<svg xmlns="http://www.w3.org/2000/svg" xmlns:xlink="http://www.w3.org/1999/xlink" width="1000" zoomAndPan="magnify" viewBox="0 0 750 749.999995" height="1000" preserveAspectRatio="xMidYMid meet" version="1.0"><defs><clipPath id="id1"><path d="M 61.445312 449 L 561 449 L 561 565 L 61.445312 565 Z M 61.445312 449 " clip-rule="nonzero"/></clipPath><clipPath id="id2"><path d="M 61.445312 449 L 561 449 L 561 580 L 61.445312 580 Z M 61.445312 449 " clip-rule="nonzero"/></clipPath></defs><path stroke-linecap="round" transform="matrix(0.897124, 0, 0, 0.897061, 60.277591, 42.697676)" fill-opacity="1" fill="#000000" fill-rule="nonzero" stroke-linejoin="round" d="M 529.491258 473.801397 L 529.491258 518.678836 L 681.121645 445.801986 C 681.121645 445.801986 700.118985 417.71984 634.301017 439.80149 C 568.478695 461.878786 529.491258 473.801397 529.491258 473.801397 Z M 529.491258 473.801397 " stroke="#231f20" stroke-width="7" stroke-opacity="1" stroke-miterlimit="4"/><path stroke-linecap="round" transform="matrix(0.897124, 0, 0, 0.897061, 60.277591, 42.697676)" fill-opacity="1" fill="#000000" fill-rule="nonzero" stroke-linejoin="round" d="M 79.350522 128.450651 L 79.350522 159.668035 C 87.401423 157.24258 95.617784 155.648835 103.995249 154.899861 C 112.377069 154.146534 120.741472 154.251042 129.101521 155.209031 C 155.979949 158.548929 165.101982 128.450651 165.101982 128.450651 C 165.101982 128.450651 131.47891 140.708558 115.87784 128.450651 C 100.281123 116.188389 79.350522 128.450651 79.350522 128.450651 Z M 79.350522 128.450651 " stroke="#231f20" stroke-width="7" stroke-opacity="1" stroke-miterlimit="4"/><path stroke-linecap="round" transform="matrix(0.897124, 0, 0, 0.897061, 60.277591, 42.697676)" fill-opacity="1" fill="#000000" fill-rule="nonzero" stroke-linejoin="round" d="M 79.211188 104.810091 C 80.151693 104.810091 81.079136 104.901535 82.002225 105.084424 C 82.925314 105.267313 83.817923 105.541646 84.684407 105.898715 C 85.555246 106.260138 86.378188 106.699942 87.161943 107.222482 C 87.941343 107.745021 88.664139 108.337233 89.33033 109.003471 C 89.992167 109.665354 90.584338 110.3882 91.106841 111.167655 C 91.629344 111.951465 92.069117 112.774464 92.430515 113.645364 C 92.791913 114.511908 93.061873 115.40458 93.244749 116.327733 C 93.427625 117.250887 93.519063 118.178394 93.519063 119.118965 L 93.519063 490.122049 L 64.898958 490.122049 L 64.898958 119.118965 C 64.898958 118.178394 64.990396 117.250887 65.173272 116.327733 C 65.356148 115.40458 65.630462 114.511908 65.987506 113.645364 C 66.348904 112.774464 66.788678 111.951465 67.311181 111.167655 C 67.833684 110.3882 68.425854 109.665354 69.092045 109.003471 C 69.753882 108.337233 70.476678 107.745021 71.260433 107.222482 C 72.039833 106.699942 72.86713 106.260138 73.733614 105.898715 C 74.600098 105.541646 75.497062 105.267313 76.420151 105.084424 C 77.338885 104.901535 78.270682 104.810091 79.211188 104.810091 Z M 79.211188 104.810091 " stroke="#231f20" stroke-width="7" stroke-opacity="1" stroke-miterlimit="4"/><path stroke-linecap="round" transform="matrix(0.89448, -0.0688217, 0.0688265, 0.894417, 40.774124, 62.289516)" fill-opacity="1" fill="#000000" fill-rule="nonzero" stroke-linejoin="round" d="M 273.638858 7.668872 L 273.651882 7.669874 C 274.328802 7.669552 275.005052 7.734688 275.671615 7.868958 C 276.338178 8.003227 276.987041 8.197277 277.613192 8.459458 C 278.244019 8.717631 278.839446 9.038591 279.404481 9.413988 C 279.969182 9.793727 280.495144 10.222893 280.97769 10.705494 C 281.456229 11.18342 281.887346 11.710105 282.263025 12.276199 C 282.64338 12.838284 282.959949 13.434768 283.221416 14.066318 C 283.483216 14.693527 283.677892 15.341775 283.810118 16.007054 C 283.94201 16.676675 284.008113 17.349969 284.008094 18.031277 L 284.009365 570.127835 C 284.009346 570.809143 283.944207 571.48544 283.809939 572.152051 C 283.680014 572.818996 283.481628 573.467571 283.219459 574.093768 C 282.961297 574.724642 282.640353 575.320113 282.264976 575.885191 C 281.885257 576.449935 281.456115 576.975938 280.973876 577.454181 C 280.495644 577.9371 279.969324 578.36391 279.407274 578.744297 C 278.841215 579.120009 278.244435 579.440948 277.612926 579.702439 C 276.986092 579.959923 276.337553 580.15896 275.672318 580.291203 C 275.002741 580.423111 274.329493 580.489226 273.648233 580.489215 L 273.63955 580.488547 C 272.958289 580.488535 272.28638 580.423732 271.619817 580.289463 C 270.95292 580.159535 270.304392 579.961143 269.673565 579.70297 C 269.047413 579.440789 268.451987 579.11983 267.88261 578.744099 C 267.317909 578.36436 266.796289 577.935528 266.313408 577.457268 C 265.835203 576.975 265.403753 576.452657 265.028073 575.886564 C 264.648052 575.320136 264.327142 574.723318 264.069682 574.096444 C 263.808216 573.464894 263.613541 572.816646 263.476973 572.151032 C 263.344747 571.485753 263.278977 570.808118 263.278662 570.131151 L 263.282067 18.030585 C 263.282086 17.349278 263.346892 16.677322 263.476817 16.010377 C 263.611084 15.343766 263.80947 14.695191 264.067632 14.064318 C 264.329801 13.43812 264.646738 12.837974 265.026456 12.273229 C 265.401834 11.708151 265.834983 11.186824 266.313215 10.703906 C 266.795788 10.221321 267.317766 9.794176 267.884159 9.414123 C 268.450217 9.038412 269.046997 8.717472 269.673831 8.459989 C 270.30534 8.198498 270.953546 8.003802 271.619115 7.867218 C 272.284349 7.734975 272.961939 7.669194 273.638858 7.668872 Z M 273.638858 7.668872 " stroke="#231f20" stroke-width="7" stroke-opacity="1" stroke-miterlimit="4"/><path stroke-linecap="round" transform="matrix(0.897124, 0, 0, 0.897061, 60.277591, 42.697676)" fill-opacity="1" fill="#000000" fill-rule="nonzero" stroke-linejoin="round" d="M 185.161745 100.952007 L 330.252135 100.952007 C 330.704971 100.952007 331.153453 100.995552 331.59758 101.082642 C 332.041708 101.169732 332.477127 101.300367 332.89513 101.474546 C 333.313132 101.648726 333.713718 101.862097 334.088178 102.114657 C 334.466993 102.367218 334.815328 102.654615 335.137539 102.972493 C 335.455395 103.294726 335.742771 103.643086 335.995314 104.021927 C 336.247858 104.396413 336.461213 104.797027 336.635381 105.215059 C 336.809548 105.63309 336.940174 106.06854 337.027258 106.512699 C 337.114342 106.956857 337.157884 107.40537 337.157884 107.858238 C 337.157884 108.31546 337.114342 108.763973 337.027258 109.208132 C 336.940174 109.652291 336.809548 110.083386 336.635381 110.505772 C 336.461213 110.923803 336.247858 111.320063 335.995314 111.698904 C 335.742771 112.077745 335.455395 112.426105 335.137539 112.743983 C 334.815328 113.066216 334.466993 113.353612 334.088178 113.606173 C 333.713718 113.858734 333.313132 114.072104 332.89513 114.24193 C 332.477127 114.416109 332.041708 114.546744 331.59758 114.638189 C 331.153453 114.725279 330.704971 114.768824 330.252135 114.768824 L 185.161745 114.768824 C 184.704555 114.768824 184.256073 114.725279 183.811945 114.638189 C 183.367818 114.546744 182.936753 114.416109 182.514396 114.24193 C 182.096394 114.072104 181.700162 113.858734 181.321347 113.606173 C 180.942533 113.353612 180.594197 113.066216 180.271987 112.743983 C 179.954131 112.426105 179.666754 112.077745 179.414211 111.698904 C 179.161668 111.320063 178.948313 110.923803 178.774145 110.505772 C 178.604331 110.083386 178.469352 109.652291 178.382268 109.208132 C 178.295184 108.763973 178.251642 108.31546 178.251642 107.858238 C 178.251642 107.40537 178.295184 106.956857 178.382268 106.512699 C 178.469352 106.06854 178.604331 105.63309 178.774145 105.215059 C 178.948313 104.797027 179.161668 104.396413 179.414211 104.021927 C 179.666754 103.643086 179.954131 103.294726 180.271987 102.972493 C 180.594197 102.654615 180.942533 102.367218 181.321347 102.114657 C 181.700162 101.862097 182.096394 101.648726 182.514396 101.474546 C 182.936753 101.300367 183.367818 101.169732 183.811945 101.082642 C 184.256073 100.995552 184.704555 100.952007 185.161745 100.952007 Z M 185.161745 100.952007 " stroke="#231f20" stroke-width="7" stroke-opacity="1" stroke-miterlimit="4"/><path stroke-linecap="round" transform="matrix(0.897124, 0, 0, 0.897061, 60.277591, 42.697676)" fill-opacity="1" fill="#000000" fill-rule="nonzero" stroke-linejoin="round" d="M 377.852163 460.999178 L 202.691722 474.498117 C 198.637969 478.499899 195.298304 475.621577 195.010927 471.841874 C 194.976094 471.389006 194.989156 470.936139 195.041407 470.487626 C 195.098011 470.034758 195.193803 469.594954 195.337492 469.163859 C 195.476826 468.732764 195.659702 468.323441 195.881766 467.927182 C 196.10383 467.530923 196.365081 467.16079 196.661166 466.816785 C 196.952897 466.47278 197.279462 466.163611 197.636505 465.880569 C 197.993549 465.601881 198.372364 465.358029 198.777304 465.153368 C 199.182243 464.948706 199.600246 464.783235 200.035665 464.656955 C 200.475439 464.535029 200.919566 464.456648 201.368048 464.421812 L 376.519781 451.001255 C 376.972616 450.966419 377.421098 450.975128 377.873934 451.031736 C 378.322416 451.088345 378.762189 451.184144 379.193254 451.327842 C 379.62432 451.467186 380.037968 451.650075 380.434199 451.872154 C 380.826077 452.094233 381.196183 452.355503 381.540164 452.647254 C 381.884145 452.94336 382.197647 453.269947 382.48067 453.627016 C 382.759338 453.984085 383.003173 454.362926 383.20782 454.767894 C 383.412467 455.172862 383.577926 455.590894 383.699843 456.026343 C 383.826115 456.461793 383.90449 456.905952 383.939324 457.358819 C 384.231055 461.099332 381.370351 464.43923 377.852163 460.999178 Z M 377.852163 460.999178 " stroke="#231f20" stroke-width="7" stroke-opacity="1" stroke-miterlimit="4"/><path stroke-linecap="round" transform="matrix(0.897124, 0, 0, 0.897061, 60.277591, 42.697676)" fill-opacity="1" fill="#000000" fill-rule="nonzero" stroke-linejoin="round" d="M 195.999329 107.387952 L 330.561283 107.387952 C 330.561283 107.387952 393.348733 152.740031 345.90981 245.791263 C 345.90981 245.791263 293.968652 210.541615 194.910781 264.328353 C 194.88901 264.328353 233.998364 200.669972 195.999329 107.387952 Z M 195.999329 107.387952 " stroke="#231f20" stroke-width="7" stroke-opacity="1" stroke-miterlimit="4"/><path stroke-linecap="round" transform="matrix(0.89448, -0.0688217, 0.0688265, 0.894417, 43.16048, 62.074207)" fill-opacity="1" fill="#000000" fill-rule="nonzero" stroke-linejoin="round" d="M 184.818683 251.928141 L 358.898544 251.928138 C 359.387449 251.930819 359.868671 251.976581 360.345885 252.074444 C 360.823433 252.167965 361.288624 252.308577 361.741456 252.496278 C 362.190282 252.679304 362.618067 252.908752 363.020805 253.179946 C 363.427884 253.451474 363.801568 253.759739 364.146196 254.105075 C 364.491158 254.446069 364.798383 254.823465 365.068538 255.228581 C 365.338694 255.633696 365.567772 256.061856 365.756108 256.508717 C 365.939769 256.959586 366.083021 257.424814 366.177182 257.903735 C 366.271677 258.378315 366.321756 258.862579 366.319071 259.351517 L 366.319069 259.408293 C 366.320726 259.897566 366.270619 260.378488 366.1771 260.85607 C 366.08358 261.333652 365.942973 261.798876 365.755614 262.2474 C 365.567921 262.700266 365.338484 263.128084 365.071646 263.531186 C 364.800132 263.938297 364.491884 264.312009 364.146569 264.656664 C 363.801253 265.00132 363.428221 265.308904 363.02313 265.579083 C 362.61804 265.849261 362.189908 266.07836 361.738734 266.26638 C 361.287894 266.450058 360.827038 266.593659 360.348149 266.687832 C 359.86926 266.782004 359.385363 266.82775 358.900465 266.829746 L 184.820605 266.829749 C 184.331366 266.83141 183.850477 266.781306 183.372929 266.687785 C 182.895381 266.594264 182.430191 266.453652 181.981699 266.266285 C 181.528866 266.078583 181.101081 265.849136 180.698343 265.577941 C 180.29093 265.310755 179.917247 265.00249 179.572619 264.657154 C 179.22799 264.311819 178.920432 263.938764 178.650276 263.533648 C 178.380121 263.128532 178.151042 262.700373 177.96304 262.24917 C 177.779379 261.798302 177.636127 261.333073 177.541632 260.858493 C 177.447471 260.379572 177.401734 259.895643 177.399743 259.410712 L 177.400079 259.349594 C 177.398089 258.864663 177.448529 258.379399 177.542049 257.901817 C 177.635569 257.424235 177.780517 256.959345 177.963534 256.510487 C 178.150894 256.061962 178.38033 255.634145 178.651844 255.227035 C 178.923024 254.824266 179.227264 254.445878 179.57258 254.101223 C 179.917895 253.756567 180.290927 253.448983 180.696018 253.178805 C 181.101109 252.908626 181.529241 252.679527 181.98008 252.495849 C 182.431254 252.307829 182.896118 252.168904 183.370666 252.074397 C 183.849889 251.975883 184.333786 251.930137 184.818683 251.928141 Z M 184.818683 251.928141 " stroke="#231f20" stroke-width="7" stroke-opacity="1" stroke-miterlimit="4"/><path stroke-linecap="round" transform="matrix(0.897124, 0, 0, 0.897061, 60.277591, 42.697676)" fill-opacity="1" fill="#000000" fill-rule="nonzero" stroke-linejoin="round" d="M 188.53189 264.78993 C 188.53189 264.78993 265.531423 296.878213 344.969304 255.109885 C 344.969304 255.109885 449.809542 314.618431 379.371776 457.271729 C 379.371776 457.271729 308.929656 427.108134 206.549537 473.801397 C 206.549537 473.801397 223.748595 288.400009 188.53189 264.78993 Z M 188.53189 264.78993 " stroke="#231f20" stroke-width="7" stroke-opacity="1" stroke-miterlimit="4"/><path stroke-linecap="round" transform="matrix(0.897124, 0, 0, 0.897061, 60.277591, 42.697676)" fill-opacity="1" fill="#000000" fill-rule="nonzero" stroke-linejoin="round" d="M 261.569108 13.888208 C 261.569108 13.888208 293.768359 39.749562 266.998786 72.299421 C 266.998786 72.299421 299.228516 53.479288 324.221579 67.370132 C 349.210287 81.260975 371.42973 65.288682 371.42973 65.288682 L 363.178536 9.751437 C 363.178536 9.751437 344.351009 23.629216 319.349238 9.751437 C 294.351821 -4.130698 261.569108 13.888208 261.569108 13.888208 Z M 261.569108 13.888208 " stroke="#231f20" stroke-width="7" stroke-opacity="1" stroke-miterlimit="4"/><path stroke-linecap="round" transform="matrix(0.897124, 0, 0, 0.897061, 60.277591, 42.697676)" fill-opacity="1" fill="#000000" fill-rule="nonzero" stroke-linejoin="round" d="M 461.70955 88.058343 L 461.70955 119.280082 C 469.760451 116.854627 477.976811 115.265236 486.354277 114.511908 C 494.727388 113.762935 503.096146 113.863088 511.45184 114.821078 C 538.338977 118.169685 547.447947 88.058343 547.447947 88.058343 C 547.447947 88.058343 513.837938 100.329314 498.228159 88.058343 C 482.61838 75.791727 461.70955 88.058343 461.70955 88.058343 Z M 461.70955 88.058343 " stroke="#231f20" stroke-width="7" stroke-opacity="1" stroke-miterlimit="4"/><path stroke-linecap="round" transform="matrix(0.89448, -0.0688217, 0.0688265, 0.894417, 42.424877, 75.969676)" fill-opacity="1" fill="#000000" fill-rule="nonzero" stroke-linejoin="round" d="M 473.259716 70.261416 C 473.753297 70.260089 474.243202 70.306519 474.724757 70.404716 C 475.210988 70.498905 475.680186 70.644192 476.133019 70.831894 C 476.590193 71.019929 477.02232 71.249711 477.433406 71.525915 C 477.840485 71.797444 478.222517 72.110718 478.571152 72.46073 C 478.920122 72.806399 479.231354 73.188471 479.505517 73.598263 C 479.779679 74.008054 480.008424 74.440555 480.200433 74.896434 C 480.388101 75.351978 480.531019 75.821549 480.624846 76.304811 C 480.723014 76.788408 480.768418 77.276679 480.76974 77.770294 L 480.771254 477.760177 C 480.768234 478.253458 480.721801 478.743397 480.623606 479.224987 C 480.529752 479.70691 480.388812 480.176476 480.196443 480.63335 C 480.008415 481.090558 479.778645 481.522717 479.502456 481.933835 C 479.230942 482.340945 478.917685 482.723006 478.572035 483.072004 C 478.222044 483.420667 477.839995 483.731925 477.430229 484.006111 C 477.020463 484.280297 476.587989 484.509062 476.132474 484.696747 C 475.676625 484.888775 475.20742 485.027366 474.723855 485.125546 C 474.240291 485.223726 473.752053 485.269139 473.258473 485.270466 C 472.764892 485.271793 472.279662 485.221355 471.793432 485.127166 C 471.311876 485.028969 470.842345 484.888023 470.38517 484.699988 C 469.932672 484.507945 469.496204 484.277829 469.089124 484.006301 C 468.678038 483.730097 468.300348 483.417156 467.951378 483.071486 C 467.602742 482.721475 467.291176 482.343745 467.017014 481.933953 C 466.742851 481.524162 466.509765 481.091327 466.322097 480.635782 C 466.134429 480.180238 465.991511 479.710667 465.893343 479.227071 C 465.79985 478.739466 465.749771 478.255202 465.748449 477.761588 L 465.751277 77.772039 C 465.749955 77.278424 465.796388 76.788484 465.894583 76.306895 C 465.988771 75.82063 466.134053 75.351398 466.32208 74.89419 C 466.509773 74.441324 466.739544 74.009165 467.015733 73.598047 C 467.287581 73.186595 467.600504 72.808876 467.950495 72.460212 C 468.296145 72.111215 468.678194 71.799957 469.08796 71.525771 C 469.497726 71.251585 469.930534 71.018479 470.386049 70.830793 C 470.841564 70.643107 471.311103 70.500174 471.794334 70.406336 C 472.277898 70.308155 472.76647 70.258402 473.259716 70.261416 Z M 473.259716 70.261416 " stroke="#231f20" stroke-width="7" stroke-opacity="1" stroke-miterlimit="4"/><path stroke-linecap="round" transform="matrix(0.897124, 0, 0, 0.897061, 60.277591, 42.697676)" fill-opacity="1" fill="#000000" fill-rule="nonzero" stroke-linejoin="round" d="M 409.150096 137.838945 L 514.260294 137.838945 C 514.586859 137.838945 514.913423 137.873781 515.235633 137.934744 C 515.557844 138.000061 515.871345 138.09586 516.176139 138.222141 C 516.480932 138.348421 516.768309 138.500828 517.042623 138.683717 C 517.316937 138.866606 517.56948 139.075622 517.804607 139.30641 C 518.035379 139.537199 518.24438 139.789759 518.427256 140.064093 C 518.610132 140.338426 518.762529 140.625823 518.888801 140.930637 C 519.015072 141.235452 519.110864 141.544621 519.171823 141.866854 C 519.237136 142.189087 519.271969 142.515674 519.271969 142.846616 C 519.271969 143.173203 519.237136 143.49979 519.171823 143.822023 C 519.110864 144.144256 519.015072 144.457779 518.888801 144.75824 C 518.762529 145.063054 518.610132 145.350451 518.427256 145.624784 C 518.24438 145.899118 518.035379 146.151678 517.804607 146.382467 C 517.56948 146.61761 517.316937 146.822271 517.042623 147.00516 C 516.768309 147.188049 516.480932 147.34481 516.176139 147.471091 C 515.871345 147.593017 515.557844 147.688816 515.235633 147.754133 C 514.913423 147.819451 514.586859 147.849932 514.260294 147.849932 L 409.150096 147.849932 C 408.819178 147.849932 408.496968 147.819451 408.174757 147.754133 C 407.848193 147.688816 407.534691 147.593017 407.234252 147.471091 C 406.929458 147.34481 406.642082 147.188049 406.367768 147.00516 C 406.093453 146.822271 405.84091 146.61761 405.605784 146.382467 C 405.375012 146.151678 405.166011 145.899118 404.983134 145.624784 C 404.800258 145.350451 404.647862 145.063054 404.52159 144.75824 C 404.395319 144.457779 404.299526 144.144256 404.234213 143.822023 C 404.173255 143.49979 404.138421 143.173203 404.138421 142.846616 C 404.138421 142.515674 404.173255 142.189087 404.234213 141.866854 C 404.299526 141.544621 404.395319 141.231098 404.52159 140.930637 C 404.647862 140.625823 404.800258 140.338426 404.983134 140.064093 C 405.166011 139.789759 405.375012 139.537199 405.605784 139.30641 C 405.84091 139.075622 406.093453 138.866606 406.367768 138.683717 C 406.642082 138.500828 406.929458 138.348421 407.234252 138.222141 C 407.534691 138.09586 407.848193 138.000061 408.170403 137.934744 C 408.496968 137.873781 408.819178 137.838945 409.150096 137.838945 Z M 409.150096 137.838945 " stroke="#231f20" stroke-width="7" stroke-opacity="1" stroke-miterlimit="4"/><path stroke-linecap="round" transform="matrix(0.89448, -0.0688217, 0.0688265, 0.894417, 33.964927, 77.082028)" fill-opacity="1" fill="#000000" fill-rule="nonzero" stroke-linejoin="round" d="M 421.091895 396.290361 L 548.361117 396.291554 C 548.688723 396.290558 549.013991 396.319954 549.336586 396.384082 C 549.659181 396.448211 549.974763 396.546739 550.275316 396.670315 C 550.579876 396.798566 550.869407 396.951865 551.143576 397.134554 C 551.417745 397.317243 551.668203 397.524311 551.903632 397.756428 C 552.13472 397.98821 552.342431 398.24003 552.526431 398.51623 C 552.706423 398.787755 552.863372 399.074975 552.988261 399.381566 C 553.113485 399.683815 553.207316 399.996751 553.274097 400.320707 C 553.336871 400.639988 553.368588 400.965614 553.36958 401.293243 C 553.370239 401.625213 553.336501 401.95017 553.272373 402.272788 C 553.208245 402.595406 553.114396 402.907003 552.990492 403.21192 C 552.86258 403.51216 552.709288 403.801714 552.526609 404.075904 C 552.34393 404.350093 552.136873 404.600571 551.900429 404.835685 C 551.66866 405.066791 551.416855 405.274519 551.145348 405.454526 C 550.869165 405.638542 550.582296 405.791163 550.275391 405.920406 C 549.973162 406.045641 549.660246 406.139482 549.336646 406.20193 C 549.012711 406.268719 548.687108 406.300441 548.359501 406.301438 L 421.09028 406.300244 C 420.762673 406.30124 420.433398 406.267169 420.110803 406.203041 C 419.788208 406.138912 419.476633 406.04506 419.172073 405.916808 C 418.867179 405.792899 418.581989 405.639933 418.30782 405.457245 C 418.033651 405.274556 417.778852 405.067153 417.547764 404.835371 C 417.316676 404.603589 417.109299 404.347427 416.924966 404.075568 C 416.740632 403.80371 416.588358 403.512481 416.463135 403.210232 C 416.33357 402.907649 416.239739 402.594714 416.177299 402.271091 C 416.110518 401.947135 416.078801 401.621509 416.08215 401.294214 C 416.081157 400.966585 416.110554 400.641295 416.174682 400.318676 C 416.23881 399.996058 416.337 399.684796 416.460904 399.379879 C 416.58915 399.075296 416.742442 398.785743 416.924787 398.515895 C 417.107466 398.241705 417.314857 397.986886 417.546626 397.75578 C 417.778395 397.524673 418.034541 397.31728 418.306383 397.132931 C 418.578224 396.948581 418.869434 396.796294 419.171664 396.671059 C 419.478235 396.546158 419.79115 396.452316 420.110743 396.385193 C 420.434344 396.322745 420.759947 396.291023 421.091895 396.290361 Z M 421.091895 396.290361 " stroke="#231f20" stroke-width="7" stroke-opacity="1" stroke-miterlimit="4"/><path stroke-linecap="round" transform="matrix(0.897124, 0, 0, 0.897061, 60.277591, 42.697676)" fill-opacity="1" fill="#000000" fill-rule="nonzero" stroke-linejoin="round" d="M 417.10956 143.669616 L 514.621692 143.669616 C 514.621692 143.669616 560.109937 176.519936 525.737945 243.940602 C 525.737945 243.940602 488.109016 218.41019 416.321451 257.378577 C 416.321451 257.378577 444.649825 211.251398 417.10956 143.669616 Z M 417.10956 143.669616 " stroke="#231f20" stroke-width="7" stroke-opacity="1" stroke-miterlimit="4"/><path stroke-linecap="round" transform="matrix(0.89448, -0.0688217, 0.0688265, 0.894417, 44.147321, 75.817149)" fill-opacity="1" fill="#000000" fill-rule="nonzero" stroke-linejoin="round" d="M 408.919584 247.229265 L 534.987916 247.22977 C 535.345912 247.231112 535.697228 247.262512 536.045537 247.332986 C 536.389505 247.403127 536.726794 247.503325 537.056734 247.642264 C 537.382667 247.776528 537.692903 247.944522 537.987776 248.141906 C 538.282984 248.334948 538.558154 248.561388 538.809612 248.812207 C 539.06107 249.063026 539.28481 249.333549 539.480498 249.628118 C 539.676185 249.922687 539.844154 250.23696 539.980731 250.56192 C 540.112632 250.890887 540.217484 251.230875 540.286936 251.576873 C 540.356388 251.922872 540.390441 252.274882 540.38943 252.628561 C 540.388084 252.986581 540.356683 253.337922 540.286543 253.681914 C 540.21607 254.030249 540.115875 254.367561 539.976942 254.697525 C 539.842684 255.023482 539.679039 255.334076 539.481666 255.628972 C 539.284292 255.923868 539.057866 256.199059 538.807395 256.446196 C 538.55659 256.697674 538.286084 256.921432 537.991199 257.121478 C 537.696648 257.317182 537.382395 257.485166 537.057791 257.617414 C 536.728511 257.75367 536.392887 257.858866 536.04257 257.927993 C 535.696594 257.997454 535.344608 258.031513 534.990954 258.030505 L 408.91828 258.029666 C 408.564626 258.028658 408.21331 257.997258 407.865 257.926784 C 407.516691 257.856309 407.179403 257.756111 406.853804 257.617506 C 406.527871 257.483242 406.213294 257.314914 405.918086 257.121872 C 405.623213 256.924488 405.352384 256.698382 405.100926 256.447563 C 404.849467 256.196744 404.625728 255.926221 404.43004 255.631652 C 404.234353 255.337083 404.066384 255.02281 403.929807 254.69785 C 403.793564 254.368549 403.69272 254.033237 403.623602 253.682897 C 403.55415 253.336898 403.520097 252.984888 403.521108 252.631209 C 403.517779 252.277196 403.553521 251.92619 403.623995 251.577856 C 403.694468 251.229521 403.794663 250.892209 403.929255 250.56191 C 404.067854 250.236288 404.231499 249.925694 404.428872 249.630798 C 404.626246 249.335902 404.852672 249.060711 405.103143 248.813574 C 405.353947 248.562096 405.624454 248.338338 405.919339 248.138292 C 406.21389 247.942588 406.527809 247.778946 406.852747 247.642356 C 407.182027 247.5061 407.517651 247.400904 407.867968 247.331777 C 408.21361 247.266658 408.565929 247.228257 408.919584 247.229265 Z M 408.919584 247.229265 " stroke="#231f20" stroke-width="7" stroke-opacity="1" stroke-miterlimit="4"/><path stroke-linecap="round" transform="matrix(0.897124, 0, 0, 0.897061, 60.277591, 42.697676)" fill-opacity="1" fill="#000000" fill-rule="nonzero" stroke-linejoin="round" d="M 412.049988 257.378577 C 412.049988 257.378577 467.831544 280.631587 525.389609 250.380902 C 525.389609 250.380902 601.392033 293.490415 550.308651 396.848739 C 550.308651 396.848739 499.307999 374.997876 425.099502 408.849731 C 425.099502 408.801831 437.569908 274.478684 412.049988 257.378577 Z M 412.049988 257.378577 " stroke="#231f20" stroke-width="7" stroke-opacity="1" stroke-miterlimit="4"/><path stroke-linecap="round" transform="matrix(0.897124, 0, 0, 0.897061, 60.277591, 42.697676)" fill-opacity="1" fill="#000000" fill-rule="nonzero" stroke-linejoin="round" d="M 76.420151 179.211014 C 46.728914 179.211014 22.672003 182.389797 22.672003 186.321907 C 22.715545 186.796547 22.937609 187.166679 23.329486 187.441012 L 35.89133 259.381645 L 36.048081 259.381645 C 37.881196 263.988703 56.3212 267.59858 78.81931 267.59858 C 101.321775 267.59858 119.748716 263.988703 121.59054 259.381645 L 121.751645 259.381645 L 130.181361 186.321907 C 130.181361 182.389797 106.111387 179.211014 76.420151 179.211014 Z M 76.420151 179.211014 " stroke="#231f20" stroke-width="7" stroke-opacity="1" stroke-miterlimit="4"/><path stroke-linecap="round" transform="matrix(0.897124, 0, 0, 0.897061, 60.277591, 42.697676)" fill-opacity="1" fill="#000000" fill-rule="nonzero" stroke-linejoin="round" d="M 23.098714 408.000604 L 23.098714 464.591638 L 178.251642 476.000418 L 178.251642 418.508003 Z M 50.591083 455.908772 L 35.89133 454.998682 L 35.89133 423.650664 L 50.591083 424.578171 Z M 79.211188 458.138274 L 64.511435 457.210766 L 64.511435 425.910647 L 79.211188 426.838155 Z M 107.831293 460.311168 L 93.13154 459.379306 L 93.13154 428.079186 L 107.831293 429.011048 Z M 136.451397 461.939749 L 121.751645 461.007887 L 121.751645 429.681641 L 136.451397 430.617858 Z M 165.071502 463.83831 L 150.37175 462.910802 L 150.37175 431.580201 L 165.071502 432.512063 Z M 165.071502 463.83831 " stroke="#231f20" stroke-width="7" stroke-opacity="1" stroke-miterlimit="4"/><path stroke-linecap="round" transform="matrix(0.897124, 0, 0, 0.897061, 60.277591, 42.697676)" fill-opacity="1" fill="#000000" fill-rule="nonzero" stroke-linejoin="round" d="M 121.581831 260.492042 C 121.581831 260.72283 121.512164 260.957973 121.377184 261.188761 C 121.242204 261.41955 121.037557 261.650338 120.767597 261.881126 C 120.497637 262.10756 120.162365 262.333994 119.761779 262.556073 C 119.361193 262.778153 118.895295 263.000232 118.364083 263.213602 C 117.837226 263.431327 117.245056 263.640343 116.591927 263.845004 C 115.943153 264.05402 115.233419 264.249972 114.462727 264.445925 C 113.696389 264.637522 112.873447 264.824766 111.9939 265.007655 C 111.118708 265.186189 110.191265 265.360369 109.211571 265.52584 C 108.231878 265.691311 107.208643 265.843718 106.141866 265.991771 C 105.070735 266.139824 103.960416 266.279168 102.810909 266.409802 C 101.661402 266.540437 100.477062 266.658009 99.257888 266.771226 C 98.038714 266.880088 96.789061 266.980241 95.508929 267.067331 C 94.233151 267.158776 92.931247 267.237157 91.607573 267.302474 C 90.283898 267.372146 88.947161 267.428755 87.588653 267.4723 C 86.230145 267.520199 84.867283 267.555035 83.491359 267.576807 C 82.11108 267.59858 80.735155 267.611643 79.350522 267.611643 C 77.965889 267.611643 76.58561 267.59858 75.209685 267.576807 C 73.83376 267.555035 72.466544 267.520199 71.11239 267.4723 C 69.753882 267.428755 68.412791 267.372146 67.089117 267.302474 C 65.769797 267.237157 64.467893 267.158776 63.187761 267.067331 C 61.911982 266.980241 60.662329 266.880088 59.443155 266.771226 C 58.223982 266.658009 57.039641 266.540437 55.890135 266.409802 C 54.736274 266.279168 53.630309 266.139824 52.559178 265.991771 C 51.492401 265.843718 50.464811 265.691311 49.489472 265.52584 C 48.509779 265.360369 47.582336 265.186189 46.707143 265.007655 C 45.827597 264.824766 45.004654 264.637522 44.238317 264.445925 C 43.467625 264.249972 42.757891 264.05402 42.104762 263.845004 C 41.455988 263.640343 40.863818 263.431327 40.332606 263.213602 C 39.805749 263.000232 39.33985 262.778153 38.939265 262.556073 C 38.538679 262.333994 38.203406 262.10756 37.933446 261.881126 C 37.663486 261.650338 37.458839 261.41955 37.323859 261.188761 C 37.188879 260.957973 37.119212 260.72283 37.119212 260.492042 C 37.119212 260.256899 37.188879 260.026111 37.323859 259.790968 C 37.458839 259.56018 37.663486 259.329392 37.933446 259.102958 C 38.203406 258.872169 38.538679 258.645736 38.939265 258.423656 C 39.33985 258.201577 39.805749 257.979498 40.332606 257.766127 C 40.863818 257.548403 41.455988 257.339387 42.104762 257.134725 C 42.757891 256.930064 43.467625 256.729757 44.238317 256.533805 C 45.004654 256.342207 45.827597 256.154964 46.707143 255.972075 C 47.582336 255.793541 48.509779 255.619361 49.489472 255.45389 C 50.464811 255.288419 51.492401 255.136012 52.559178 254.987959 C 53.630309 254.839906 54.736274 254.700562 55.890135 254.569927 C 57.039641 254.439292 58.223982 254.321721 59.443155 254.212858 C 60.662329 254.099641 61.911982 253.999488 63.187761 253.912398 C 64.467893 253.820954 65.769797 253.742573 67.089117 253.677255 C 68.412791 253.607583 69.753882 253.550975 71.11239 253.50743 C 72.466544 253.459531 73.83376 253.429049 75.209685 253.402922 C 76.58561 253.38115 77.965889 253.368086 79.350522 253.368086 C 80.735155 253.368086 82.11108 253.38115 83.491359 253.402922 C 84.867283 253.429049 86.230145 253.459531 87.588653 253.50743 C 88.947161 253.550975 90.283898 253.607583 91.607573 253.677255 C 92.931247 253.742573 94.233151 253.820954 95.508929 253.912398 C 96.789061 253.999488 98.038714 254.099641 99.257888 254.212858 C 100.477062 254.321721 101.661402 254.439292 102.810909 254.569927 C 103.960416 254.700562 105.070735 254.839906 106.141866 254.987959 C 107.208643 255.136012 108.231878 255.288419 109.211571 255.45389 C 110.191265 255.619361 111.118708 255.793541 111.9939 255.972075 C 112.873447 256.154964 113.696389 256.342207 114.462727 256.533805 C 115.233419 256.729757 115.943153 256.930064 116.591927 257.134725 C 117.245056 257.339387 117.837226 257.548403 118.364083 257.766127 C 118.895295 257.979498 119.361193 258.201577 119.761779 258.423656 C 120.162365 258.645736 120.497637 258.872169 120.767597 259.102958 C 121.037557 259.329392 121.242204 259.56018 121.377184 259.790968 C 121.512164 260.026111 121.581831 260.256899 121.581831 260.492042 Z M 121.581831 260.492042 " stroke="#231f20" stroke-width="7" stroke-opacity="1" stroke-miterlimit="4"/><path fill="#fdfdfd" d="M 327.53125 308.226562 C 333.8125 307.734375 339.964844 308.273438 345.589844 311.269531 C 353.789062 315.628906 358.25 322.527344 358.507812 331.902344 C 358.480469 333.554688 358.199219 335.164062 357.65625 336.726562 C 356.398438 340.792969 356.390625 344.628906 358.785156 348.390625 C 359.5625 349.722656 360.023438 351.152344 360.175781 352.6875 C 360.214844 353.027344 360.21875 353.371094 360.1875 353.714844 C 360.152344 354.058594 360.085938 354.394531 359.988281 354.722656 C 359.886719 355.054688 359.753906 355.371094 359.589844 355.671875 C 359.425781 355.976562 359.230469 356.257812 359.007812 356.523438 C 358.785156 356.785156 358.539062 357.023438 358.269531 357.238281 C 357.996094 357.453125 357.707031 357.636719 357.398438 357.789062 C 357.089844 357.945312 356.769531 358.066406 356.4375 358.15625 C 356.105469 358.246094 355.765625 358.300781 355.421875 358.320312 C 350.9375 358.796875 348.972656 362.230469 348.898438 365.820312 C 348.847656 368.652344 347.519531 370.167969 345.160156 371.203125 C 340.242188 373.234375 335.113281 374.25 329.78125 374.25 C 326.269531 374.410156 322.816406 374.015625 319.429688 373.078125 C 317.035156 372.351562 315.355469 371.183594 315.140625 368.429688 C 314.976562 367.429688 314.628906 366.496094 314.101562 365.628906 C 313.835938 365.050781 313.488281 364.523438 313.058594 364.050781 C 312.628906 363.578125 312.136719 363.183594 311.585938 362.863281 C 311.035156 362.539062 310.449219 362.308594 309.824219 362.171875 C 309.203125 362.03125 308.574219 361.988281 307.9375 362.042969 C 304.832031 362.167969 302.230469 360.339844 301.917969 357.503906 C 301.75 355.96875 301.964844 354.492188 302.5625 353.070312 C 304.4375 348.945312 303.992188 345.042969 301.988281 341.167969 C 299.640625 336.628906 299.59375 331.910156 300.984375 327.121094 C 303.855469 317.253906 310.851562 311.746094 320.523438 309.359375 C 322.8125 308.792969 325.1875 308.605469 327.53125 308.226562 Z M 309.589844 346.378906 C 309.589844 346.667969 309.589844 346.945312 309.652344 347.222656 C 310.269531 351.707031 314.335938 354.5625 318.425781 353.242188 C 321.136719 352.375 323.53125 350.960938 325.601562 349.007812 C 328.824219 345.941406 328.453125 341.9375 324.578125 339.804688 C 322.769531 338.828125 320.855469 338.171875 318.828125 337.832031 C 318.527344 337.777344 318.226562 337.742188 317.925781 337.722656 C 317.621094 337.707031 317.316406 337.707031 317.015625 337.722656 C 316.710938 337.738281 316.410156 337.773438 316.109375 337.824219 C 315.808594 337.878906 315.515625 337.945312 315.222656 338.03125 C 314.929688 338.117188 314.644531 338.21875 314.363281 338.339844 C 314.085938 338.457031 313.8125 338.59375 313.546875 338.742188 C 313.285156 338.890625 313.027344 339.058594 312.785156 339.238281 C 312.539062 339.414062 312.304688 339.609375 312.082031 339.816406 C 311.859375 340.023438 311.648438 340.242188 311.449219 340.472656 C 311.25 340.703125 311.066406 340.941406 310.898438 341.195312 C 310.726562 341.445312 310.570312 341.707031 310.433594 341.976562 C 310.292969 342.246094 310.167969 342.523438 310.058594 342.808594 C 309.953125 343.09375 309.859375 343.382812 309.785156 343.675781 C 309.710938 343.972656 309.652344 344.269531 309.613281 344.570312 C 309.570312 344.871094 309.550781 345.175781 309.542969 345.480469 C 309.539062 345.78125 309.550781 346.085938 309.578125 346.390625 Z M 342.871094 335.769531 C 341.355469 335.917969 339.898438 336.300781 338.5 336.914062 C 337.105469 337.527344 335.835938 338.339844 334.699219 339.355469 C 331.890625 342.046875 332.269531 345.921875 335.597656 348.039062 C 337.933594 349.589844 340.484375 350.625 343.238281 351.152344 C 343.832031 351.292969 344.429688 351.347656 345.039062 351.308594 C 345.644531 351.269531 346.234375 351.144531 346.800781 350.929688 C 347.371094 350.714844 347.898438 350.421875 348.378906 350.050781 C 348.859375 349.679688 349.277344 349.246094 349.628906 348.75 C 350.105469 348.128906 350.480469 347.453125 350.753906 346.722656 C 351.03125 345.992188 351.191406 345.234375 351.234375 344.457031 C 351.28125 343.675781 351.210938 342.90625 351.027344 342.144531 C 350.839844 341.386719 350.546875 340.671875 350.148438 340 C 349.820312 339.328125 349.402344 338.714844 348.890625 338.167969 C 348.378906 337.617188 347.800781 337.15625 347.152344 336.777344 C 346.507812 336.398438 345.816406 336.125 345.089844 335.953125 C 344.359375 335.78125 343.621094 335.71875 342.871094 335.769531 Z M 331.550781 363.082031 C 331.78125 363.359375 331.9375 363.539062 332.070312 363.730469 C 332.472656 364.265625 332.761719 365.128906 333.289062 365.300781 C 333.890625 365.441406 334.488281 365.417969 335.074219 365.226562 C 335.664062 365.035156 336.160156 364.707031 336.566406 364.242188 C 336.960938 363.636719 337.050781 362.992188 336.832031 362.300781 C 336 359.613281 333.988281 357.691406 332.269531 355.59375 C 331.78125 355.007812 330.304688 355.324219 329.84375 356.015625 C 329.351562 356.699219 328.914062 357.421875 328.535156 358.175781 C 327.738281 359.917969 326.949219 361.65625 326.320312 363.460938 C 326.242188 364.101562 326.453125 364.632812 326.949219 365.046875 C 327.613281 365.425781 328.328125 365.65625 329.089844 365.730469 C 329.277344 365.785156 329.464844 365.804688 329.65625 365.78125 C 329.847656 365.757812 330.023438 365.695312 330.191406 365.597656 C 330.355469 365.496094 330.492188 365.367188 330.605469 365.210938 C 330.714844 365.050781 330.789062 364.878906 330.824219 364.6875 C 331.019531 364.136719 331.25 363.601562 331.515625 363.082031 Z M 331.550781 363.082031 " fill-opacity="1" fill-rule="nonzero"/><path fill="#fdfdfd" d="M 322.371094 391.65625 C 321.332031 391.277344 320.667969 391.027344 319.996094 390.757812 C 315.367188 389.179688 310.71875 387.636719 306.097656 386.03125 C 300.070312 383.941406 293.851562 383.707031 287.554688 383.886719 C 285.507812 384.007812 283.492188 383.808594 281.507812 383.285156 C 277.757812 382.171875 276.734375 378.726562 278.933594 375.472656 C 280.890625 372.554688 280.609375 370.296875 278.035156 367.925781 C 275.914062 366 275.882812 364.039062 277.945312 362.042969 C 282.648438 357.484375 289.214844 358.132812 292.894531 363.53125 C 293.789062 364.859375 294.6875 366.222656 295.511719 367.578125 C 296.566406 369.261719 297.871094 370.726562 299.421875 371.96875 C 300.972656 373.214844 302.683594 374.167969 304.554688 374.835938 C 321.664062 381.1875 338.746094 387.609375 355.914062 393.808594 C 359.34375 395.046875 363.09375 395.457031 366.679688 396.15625 C 367.5625 396.257812 368.441406 396.21875 369.308594 396.03125 C 371.324219 395.628906 373.300781 395.761719 375.238281 396.4375 C 375.628906 396.570312 376.003906 396.742188 376.363281 396.945312 C 376.722656 397.152344 377.058594 397.390625 377.371094 397.65625 C 377.6875 397.925781 377.972656 398.222656 378.230469 398.542969 C 378.488281 398.867188 378.714844 399.210938 378.910156 399.578125 C 379.101562 399.941406 379.257812 400.320312 379.382812 400.714844 C 379.503906 401.109375 379.585938 401.515625 379.632812 401.925781 C 379.679688 402.335938 379.6875 402.746094 379.65625 403.160156 C 379.625 403.570312 379.554688 403.976562 379.449219 404.375 C 379.058594 405.550781 378.597656 406.695312 378.058594 407.8125 C 377.300781 409.4375 376.664062 411.109375 376.144531 412.824219 C 375.339844 416.179688 372.179688 417.777344 369.175781 416 C 367.976562 415.300781 367.015625 414.363281 366.285156 413.183594 C 364.925781 410.785156 363.054688 408.898438 360.671875 407.515625 C 357.328125 405.527344 353.875 403.746094 350.316406 402.175781 C 345.375 400.058594 340.296875 398.285156 335.253906 396.398438 C 334.738281 396.195312 334.21875 396.195312 333.703125 396.398438 C 326.902344 400.410156 320.039062 404.339844 313.382812 408.582031 C 311.523438 409.699219 309.886719 411.082031 308.476562 412.730469 C 307.066406 414.378906 305.949219 416.207031 305.128906 418.214844 C 303.917969 421.300781 301.210938 422.703125 298.5625 422.101562 C 297.9375 421.992188 297.382812 421.734375 296.902344 421.320312 C 296.417969 420.910156 296.074219 420.40625 295.871094 419.804688 C 295.097656 417.632812 293.976562 415.65625 292.515625 413.875 C 291.582031 412.703125 290.949219 411.386719 290.613281 409.925781 C 289.769531 405.71875 292.640625 402.222656 297.242188 401.613281 C 299.039062 401.371094 300.949219 401.613281 302.625 401 C 306.691406 399.558594 310.699219 397.871094 314.613281 396.09375 C 316.871094 395.082031 318.972656 393.707031 321.144531 392.507812 C 321.421875 392.28125 321.734375 392.058594 322.371094 391.65625 Z M 322.371094 391.65625 " fill-opacity="1" fill-rule="nonzero"/><path fill="#fdfdfd" d="M 337.9375 383.050781 C 338.59375 382.628906 338.90625 382.40625 339.238281 382.21875 C 345.777344 378.546875 352.238281 374.710938 358.894531 371.28125 C 361.382812 370.003906 363.550781 368.316406 365.394531 366.210938 C 367.238281 364.105469 368.632812 361.734375 369.570312 359.101562 C 370.210938 357.398438 371.140625 355.871094 372.351562 354.515625 C 372.765625 354.097656 373.21875 353.722656 373.703125 353.390625 C 374.191406 353.058594 374.703125 352.773438 375.242188 352.539062 C 375.785156 352.304688 376.339844 352.125 376.914062 351.992188 C 377.492188 351.863281 378.074219 351.789062 378.660156 351.769531 C 379.25 351.753906 379.835938 351.789062 380.417969 351.878906 C 381 351.972656 381.566406 352.117188 382.121094 352.316406 C 382.675781 352.519531 383.207031 352.769531 383.710938 353.066406 C 384.21875 353.367188 384.695312 353.714844 385.136719 354.105469 C 385.339844 354.246094 385.523438 354.410156 385.691406 354.589844 C 385.859375 354.773438 386.007812 354.96875 386.136719 355.183594 C 386.261719 355.398438 386.367188 355.621094 386.445312 355.855469 C 386.523438 356.089844 386.578125 356.332031 386.609375 356.578125 C 386.636719 356.824219 386.640625 357.070312 386.617188 357.316406 C 386.59375 357.566406 386.542969 357.804688 386.46875 358.042969 C 386.394531 358.28125 386.296875 358.507812 386.175781 358.722656 C 386.054688 358.9375 385.910156 359.140625 385.746094 359.324219 C 385.582031 359.558594 385.394531 359.773438 385.226562 359.988281 C 383.332031 362.445312 383.476562 364.816406 385.648438 366.996094 C 388.339844 369.683594 387.988281 373.230469 384.605469 374.988281 C 382.796875 375.867188 380.890625 376.414062 378.890625 376.628906 C 372.753906 377.363281 366.753906 378.421875 361.191406 381.3125 C 357.664062 383.105469 354.105469 384.898438 350.585938 386.695312 C 350.191406 386.925781 349.765625 387.058594 349.308594 387.082031 C 348.851562 387.105469 348.414062 387.027344 347.996094 386.835938 C 345.148438 385.726562 342.28125 384.71875 339.417969 383.660156 C 339.023438 383.582031 338.644531 383.367188 337.9375 383.050781 Z M 337.9375 383.050781 " fill-opacity="1" fill-rule="nonzero"/><path fill="#fdfdfd" d="M 343.769531 60.640625 C 345.5 60.429688 347.152344 60.707031 348.722656 61.472656 C 349.25 61.730469 349.734375 62.058594 350.171875 62.449219 C 350.613281 62.84375 350.988281 63.292969 351.300781 63.792969 C 351.613281 64.289062 351.851562 64.824219 352.011719 65.390625 C 352.175781 65.957031 352.257812 66.535156 352.253906 67.125 C 352.25 67.578125 352.171875 68.015625 352.023438 68.441406 C 351.820312 68.96875 351.746094 69.515625 351.800781 70.078125 C 351.859375 70.640625 352.035156 71.160156 352.335938 71.636719 C 352.546875 72 352.671875 72.394531 352.714844 72.8125 C 352.734375 73 352.71875 73.1875 352.660156 73.371094 C 352.605469 73.554688 352.515625 73.71875 352.394531 73.863281 C 352.269531 74.007812 352.125 74.125 351.953125 74.210938 C 351.785156 74.296875 351.601562 74.34375 351.414062 74.355469 C 351.15625 74.375 350.917969 74.441406 350.6875 74.554688 C 350.460938 74.671875 350.261719 74.824219 350.09375 75.015625 C 349.925781 75.207031 349.800781 75.425781 349.71875 75.664062 C 349.636719 75.90625 349.601562 76.15625 349.617188 76.410156 C 349.628906 76.742188 349.539062 77.046875 349.347656 77.316406 C 349.15625 77.589844 348.902344 77.777344 348.585938 77.878906 C 347.238281 78.433594 345.835938 78.714844 344.378906 78.714844 C 343.417969 78.757812 342.472656 78.652344 341.542969 78.390625 C 341.222656 78.34375 340.953125 78.199219 340.730469 77.960938 C 340.511719 77.722656 340.390625 77.441406 340.367188 77.117188 C 340.328125 76.84375 340.234375 76.589844 340.089844 76.355469 C 339.945312 76.019531 339.714844 75.761719 339.402344 75.574219 C 339.089844 75.386719 338.75 75.308594 338.386719 75.339844 C 338.191406 75.367188 338.003906 75.355469 337.8125 75.308594 C 337.625 75.257812 337.453125 75.175781 337.296875 75.058594 C 337.140625 74.941406 337.011719 74.800781 336.914062 74.632812 C 336.8125 74.464844 336.746094 74.289062 336.71875 74.09375 C 336.667969 73.675781 336.726562 73.269531 336.898438 72.882812 C 337.132812 72.359375 337.234375 71.808594 337.207031 71.234375 C 337.179688 70.664062 337.023438 70.125 336.734375 69.628906 C 336.433594 69.03125 336.261719 68.398438 336.210938 67.730469 C 336.164062 67.0625 336.246094 66.414062 336.457031 65.777344 C 336.628906 65.160156 336.886719 64.578125 337.222656 64.035156 C 337.5625 63.488281 337.96875 63 338.445312 62.570312 C 338.921875 62.140625 339.449219 61.785156 340.023438 61.503906 C 340.601562 61.222656 341.207031 61.027344 341.839844 60.917969 C 342.441406 60.753906 343.085938 60.710938 343.769531 60.640625 Z M 338.863281 71.089844 C 338.851562 71.167969 338.851562 71.246094 338.863281 71.324219 C 338.882812 71.605469 338.964844 71.867188 339.105469 72.109375 C 339.246094 72.355469 339.433594 72.558594 339.667969 72.714844 C 339.898438 72.875 340.15625 72.976562 340.433594 73.019531 C 340.710938 73.0625 340.988281 73.046875 341.257812 72.964844 C 342.003906 72.734375 342.664062 72.347656 343.230469 71.808594 C 343.441406 71.652344 343.601562 71.457031 343.707031 71.214844 C 343.8125 70.976562 343.851562 70.726562 343.820312 70.464844 C 343.792969 70.207031 343.699219 69.96875 343.546875 69.761719 C 343.390625 69.550781 343.191406 69.390625 342.953125 69.285156 C 342.457031 69.019531 341.929688 68.839844 341.375 68.75 C 341.210938 68.71875 341.042969 68.707031 340.878906 68.710938 C 340.710938 68.71875 340.546875 68.746094 340.386719 68.789062 C 340.226562 68.835938 340.074219 68.898438 339.929688 68.980469 C 339.78125 69.058594 339.648438 69.15625 339.523438 69.265625 C 339.398438 69.378906 339.289062 69.503906 339.195312 69.640625 C 339.101562 69.777344 339.023438 69.921875 338.960938 70.078125 C 338.898438 70.234375 338.855469 70.390625 338.832031 70.558594 C 338.808594 70.722656 338.800781 70.886719 338.816406 71.054688 Z M 347.96875 68.183594 C 347.113281 68.269531 346.367188 68.59375 345.722656 69.160156 C 345.542969 69.316406 345.410156 69.503906 345.320312 69.726562 C 345.230469 69.945312 345.199219 70.175781 345.222656 70.414062 C 345.246094 70.648438 345.324219 70.867188 345.457031 71.066406 C 345.585938 71.265625 345.757812 71.421875 345.964844 71.539062 C 346.601562 71.976562 347.300781 72.277344 348.058594 72.433594 C 348.386719 72.515625 348.714844 72.496094 349.03125 72.378906 C 349.351562 72.257812 349.609375 72.058594 349.804688 71.78125 C 350.074219 71.433594 350.222656 71.042969 350.25 70.605469 C 350.273438 70.167969 350.175781 69.761719 349.949219 69.386719 C 349.777344 68.988281 349.503906 68.671875 349.132812 68.445312 C 348.757812 68.21875 348.355469 68.121094 347.921875 68.148438 Z M 344.863281 75.65625 C 344.925781 75.738281 344.972656 75.78125 345.007812 75.835938 C 345.042969 75.890625 345.195312 76.222656 345.339844 76.265625 C 345.695312 76.355469 345.996094 76.257812 346.234375 75.980469 C 346.347656 75.8125 346.371094 75.636719 346.308594 75.449219 C 346.011719 74.769531 345.597656 74.171875 345.0625 73.65625 C 344.925781 73.492188 344.523438 73.582031 344.398438 73.773438 C 344.261719 73.960938 344.140625 74.15625 344.039062 74.363281 C 343.824219 74.839844 343.605469 75.316406 343.4375 75.808594 C 343.410156 75.988281 343.46875 76.132812 343.605469 76.246094 C 343.789062 76.347656 343.984375 76.40625 344.191406 76.425781 C 344.296875 76.460938 344.394531 76.449219 344.492188 76.394531 C 344.585938 76.339844 344.644531 76.257812 344.664062 76.148438 C 344.707031 75.96875 344.757812 75.792969 344.820312 75.621094 Z M 344.863281 75.65625 " fill-opacity="1" fill-rule="nonzero"/><path fill="#fdfdfd" d="M 342.316406 83.441406 L 341.667969 83.207031 L 337.855469 81.910156 C 336.203125 81.402344 334.511719 81.207031 332.789062 81.324219 C 332.226562 81.359375 331.671875 81.304688 331.128906 81.164062 C 330.636719 81.0625 330.308594 80.773438 330.152344 80.296875 C 329.996094 79.820312 330.082031 79.394531 330.417969 79.019531 C 330.554688 78.871094 330.652344 78.703125 330.710938 78.511719 C 330.773438 78.324219 330.789062 78.128906 330.765625 77.929688 C 330.742188 77.734375 330.679688 77.546875 330.574219 77.378906 C 330.46875 77.207031 330.335938 77.066406 330.167969 76.957031 C 330.03125 76.867188 329.925781 76.75 329.851562 76.605469 C 329.773438 76.464844 329.734375 76.3125 329.734375 76.148438 C 329.734375 75.988281 329.773438 75.835938 329.851562 75.691406 C 329.925781 75.546875 330.03125 75.429688 330.167969 75.339844 C 330.304688 75.195312 330.453125 75.066406 330.617188 74.953125 C 330.785156 74.839844 330.960938 74.75 331.144531 74.679688 C 331.332031 74.605469 331.523438 74.558594 331.722656 74.53125 C 331.921875 74.503906 332.117188 74.503906 332.316406 74.523438 C 332.515625 74.542969 332.710938 74.585938 332.898438 74.652344 C 333.085938 74.714844 333.265625 74.800781 333.433594 74.910156 C 333.601562 75.015625 333.757812 75.140625 333.894531 75.285156 C 334.035156 75.425781 334.15625 75.582031 334.257812 75.753906 C 334.5 76.113281 334.734375 76.488281 334.96875 76.859375 C 335.566406 77.804688 336.390625 78.46875 337.445312 78.847656 C 342.136719 80.589844 346.808594 82.347656 351.511719 84.042969 C 352.480469 84.332031 353.460938 84.546875 354.460938 84.6875 C 354.703125 84.726562 354.941406 84.726562 355.179688 84.6875 C 355.730469 84.578125 356.273438 84.613281 356.804688 84.796875 C 357.019531 84.871094 357.214844 84.980469 357.390625 85.128906 C 357.566406 85.277344 357.707031 85.449219 357.8125 85.652344 C 357.921875 85.855469 357.988281 86.070312 358.011719 86.296875 C 358.039062 86.523438 358.019531 86.746094 357.960938 86.96875 C 357.851562 87.277344 357.722656 87.574219 357.574219 87.863281 C 357.375 88.3125 357.199219 88.769531 357.054688 89.238281 C 357.042969 89.34375 357.015625 89.441406 356.976562 89.542969 C 356.9375 89.640625 356.890625 89.730469 356.828125 89.816406 C 356.765625 89.902344 356.695312 89.976562 356.613281 90.046875 C 356.53125 90.113281 356.441406 90.167969 356.347656 90.214844 C 356.253906 90.257812 356.152344 90.289062 356.050781 90.308594 C 355.945312 90.328125 355.839844 90.335938 355.734375 90.328125 C 355.628906 90.320312 355.527344 90.300781 355.425781 90.269531 C 355.328125 90.234375 355.234375 90.191406 355.144531 90.132812 C 354.816406 89.945312 354.550781 89.6875 354.355469 89.363281 C 353.984375 88.707031 353.472656 88.191406 352.820312 87.8125 C 351.90625 87.269531 350.960938 86.78125 349.984375 86.347656 C 348.632812 85.773438 347.242188 85.28125 345.859375 84.769531 C 345.71875 84.714844 345.578125 84.714844 345.4375 84.769531 C 343.570312 85.863281 341.695312 86.941406 339.875 88.105469 C 338.828125 88.734375 338.074219 89.613281 337.613281 90.746094 C 337.554688 90.925781 337.46875 91.09375 337.347656 91.246094 C 337.226562 91.394531 337.085938 91.519531 336.917969 91.617188 C 336.753906 91.714844 336.578125 91.777344 336.386719 91.8125 C 336.199219 91.84375 336.007812 91.839844 335.820312 91.804688 C 335.445312 91.742188 335.199219 91.53125 335.074219 91.175781 C 334.871094 90.582031 334.570312 90.042969 334.179688 89.550781 C 333.921875 89.230469 333.75 88.871094 333.660156 88.476562 C 333.605469 88.203125 333.613281 87.929688 333.679688 87.660156 C 333.746094 87.390625 333.863281 87.144531 334.035156 86.925781 C 334.207031 86.707031 334.417969 86.535156 334.664062 86.40625 C 334.910156 86.28125 335.175781 86.210938 335.453125 86.195312 C 335.949219 86.191406 336.4375 86.132812 336.921875 86.027344 C 338.035156 85.632812 339.128906 85.128906 340.207031 84.6875 C 340.828125 84.402344 341.402344 84.035156 342 83.695312 C 342.109375 83.617188 342.214844 83.53125 342.316406 83.441406 Z M 342.316406 83.441406 " fill-opacity="1" fill-rule="nonzero"/><path fill="#fdfdfd" d="M 346.578125 81.09375 C 346.757812 80.976562 346.847656 80.914062 346.9375 80.867188 C 348.730469 79.863281 350.523438 78.804688 352.316406 77.871094 C 353 77.519531 353.589844 77.054688 354.097656 76.480469 C 354.601562 75.902344 354.984375 75.253906 355.242188 74.535156 C 355.414062 74.070312 355.667969 73.648438 355.996094 73.277344 C 356.226562 73.046875 356.492188 72.867188 356.789062 72.738281 C 357.089844 72.609375 357.402344 72.539062 357.726562 72.527344 C 358.054688 72.515625 358.371094 72.566406 358.675781 72.675781 C 358.984375 72.785156 359.257812 72.945312 359.503906 73.160156 C 359.617188 73.242188 359.707031 73.339844 359.777344 73.460938 C 359.847656 73.578125 359.890625 73.707031 359.90625 73.84375 C 359.921875 73.980469 359.910156 74.113281 359.867188 74.246094 C 359.824219 74.378906 359.757812 74.496094 359.664062 74.597656 L 359.523438 74.777344 C 359.398438 74.910156 359.304688 75.0625 359.242188 75.230469 C 359.179688 75.402344 359.152344 75.578125 359.164062 75.761719 C 359.175781 75.945312 359.222656 76.117188 359.304688 76.277344 C 359.386719 76.441406 359.5 76.578125 359.640625 76.695312 C 359.726562 76.765625 359.804688 76.84375 359.871094 76.933594 C 359.9375 77.023438 359.992188 77.117188 360.035156 77.222656 C 360.078125 77.324219 360.105469 77.429688 360.121094 77.542969 C 360.132812 77.652344 360.132812 77.761719 360.121094 77.871094 C 360.105469 77.984375 360.078125 78.089844 360.035156 78.191406 C 359.992188 78.296875 359.9375 78.390625 359.871094 78.480469 C 359.800781 78.570312 359.726562 78.648438 359.636719 78.714844 C 359.550781 78.785156 359.453125 78.839844 359.351562 78.886719 C 358.859375 79.128906 358.339844 79.277344 357.789062 79.332031 C 356.097656 79.46875 354.484375 79.894531 352.945312 80.617188 C 351.976562 81.109375 351 81.59375 350.039062 82.097656 C 349.804688 82.21875 349.566406 82.21875 349.332031 82.097656 C 348.550781 81.792969 347.769531 81.511719 346.980469 81.199219 Z M 346.578125 81.09375 " fill-opacity="1" fill-rule="nonzero"/><path stroke-linecap="round" transform="matrix(0.897124, 0, 0, 0.897061, 60.277591, 42.697676)" fill-opacity="1" fill="#000000" fill-rule="nonzero" stroke-linejoin="round" d="M 51.000377 555.152097 C 51.000377 555.152097 64.180516 581.292138 93.109769 610.92884 C 172.848089 618.287939 398.282033 634.421347 500.10917 593.018797 C 510.48521 578.265763 519.450491 562.698439 527.000661 546.321179 C 264.259999 613.00158 51.000377 555.152097 51.000377 555.152097 Z M 51.000377 555.152097 " stroke="#231f20" stroke-width="7" stroke-opacity="1" stroke-miterlimit="4"/><path fill="#000000" d="M 533.0625 532.78125 C 552.988281 489.722656 557.285156 452.898438 557.285156 452.898438 L 412.15625 482.167969 C 412.15625 482.167969 402.40625 539.480469 328.015625 544.359375 C 253.625 549.242188 241.425781 471.195312 241.425781 471.195312 L 64.59375 458.996094 L 69.464844 535.820312 L 106.03125 540.703125 C 106.03125 540.703125 297.351562 592.597656 533.0625 532.78125 Z M 533.0625 532.78125 " fill-opacity="1" fill-rule="nonzero"/><g clip-path="url(#id1)"><path stroke-linecap="round" transform="matrix(0.897124, 0, 0, 0.897061, 60.277591, 42.697676)" fill="none" stroke-linejoin="round" d="M 527.000661 546.321179 C 549.211395 498.321566 554.001006 457.271729 554.001006 457.271729 L 392.229706 489.89997 C 392.229706 489.89997 381.361642 553.78914 298.440407 559.227906 C 215.519172 564.671026 201.92103 477.66819 201.92103 477.66819 L 4.811107 464.069098 L 10.240784 549.708977 L 51.000377 555.152097 C 51.000377 555.152097 264.259999 613.00158 527.000661 546.321179 Z M 527.000661 546.321179 " stroke="#231f20" stroke-width="7" stroke-opacity="1" stroke-miterlimit="4"/></g><path stroke-linecap="round" transform="matrix(0.897124, 0, 0, 0.897061, 60.277591, 42.697676)" fill-opacity="1" fill="#000000" fill-rule="nonzero" stroke-linejoin="round" d="M 150.37175 656.198183 C 194.009463 682.198881 253.17858 700.857897 330.099738 692.449365 C 387.548949 686.170181 430.4987 663.879515 462.519429 635.370628 C 347.890967 689.200911 150.550272 656.228665 150.37175 656.198183 Z M 150.37175 656.198183 " stroke="#231f20" stroke-width="7" stroke-opacity="1" stroke-miterlimit="4"/><path stroke-linecap="round" transform="matrix(0.897124, 0, 0, 0.897061, 60.277591, 42.697676)" fill-opacity="1" fill="#000000" fill-rule="nonzero" stroke-linejoin="round" d="M 93.140248 610.92884 C 110.247869 628.507942 129.323585 643.600626 150.37175 656.198183 C 150.550272 656.198183 347.890967 689.200911 462.519429 635.370628 C 476.674908 622.68598 489.214981 608.559994 500.130941 593.001379 C 398.308158 634.421347 172.878569 618.287939 93.140248 610.92884 Z M 93.140248 610.92884 " stroke="#231f20" stroke-width="7" stroke-opacity="1" stroke-miterlimit="4"/><path fill="#000000" d="M 226.496094 501.8125 C 226.496094 501.8125 253.617188 580.933594 328.015625 576.007812 C 402.414062 571.085938 425.480469 511.132812 425.480469 511.132812 L 550.179688 486.015625 C 555.730469 466.109375 557.285156 452.898438 557.285156 452.898438 L 412.15625 482.167969 C 412.15625 482.167969 402.40625 539.480469 328.015625 544.359375 C 253.625 549.242188 241.425781 471.195312 241.425781 471.195312 L 64.59375 458.996094 L 66.609375 490.789062 Z M 226.496094 501.8125 " fill-opacity="1" fill-rule="nonzero"/><g clip-path="url(#id2)"><path stroke-linecap="round" transform="matrix(0.897124, 0, 0, 0.897061, 60.277591, 42.697676)" fill="none" stroke-linejoin="round" d="M 185.279308 511.798732 C 185.279308 511.798732 215.510464 599.999054 298.440407 594.508034 C 381.370351 589.021369 407.081855 522.18856 407.081855 522.18856 L 546.08073 494.189149 C 552.268037 471.998636 554.001006 457.271729 554.001006 457.271729 L 392.229706 489.89997 C 392.229706 489.89997 381.361642 553.78914 298.440407 559.227906 C 215.519172 564.671026 201.92103 477.66819 201.92103 477.66819 L 4.811107 464.069098 L 7.05787 499.510343 Z M 185.279308 511.798732 " stroke="#231f20" stroke-width="7" stroke-opacity="1" stroke-miterlimit="4"/></g></svg>