<svg xmlns="http://www.w3.org/2000/svg" xmlns:xlink="http://www.w3.org/1999/xlink" width="1000" zoomAndPan="magnify" viewBox="0 0 750 749.999995" height="1000" preserveAspectRatio="xMidYMid meet" version="1.0"><defs><clipPath id="id1"><path d="M 33.34375 518 L 82 518 L 82 531 L 33.34375 531 Z M 33.34375 518 " clip-rule="nonzero"/></clipPath></defs><path fill="#000000" d="M 243.714844 538.339844 C 243.175781 540.113281 242.617188 541.886719 242.03125 543.636719 L 241.292969 545.878906 L 242.90625 546.171875 C 246.269531 546.800781 249.613281 547.113281 252.84375 547.429688 L 254.253906 547.5625 L 255.109375 539.171875 L 252.910156 538.765625 C 250.398438 538.320312 247.886719 537.871094 245.375 537.355469 L 244.097656 537.105469 L 243.714844 538.339844 " fill-opacity="1" fill-rule="nonzero"/><path fill="#000000" d="M 246.25 529.410156 C 245.980469 530.53125 245.710938 531.65625 245.375 532.820312 L 244.925781 534.324219 L 246.472656 534.640625 C 248.941406 535.15625 251.363281 535.582031 253.851562 535.984375 L 255.355469 536.253906 L 255.984375 529.949219 L 254.75 529.679688 C 252.4375 529.164062 250.171875 528.714844 247.886719 528.3125 L 246.539062 528.085938 L 246.25 529.410156 " fill-opacity="1" fill-rule="nonzero"/><path fill="#000000" d="M 254.660156 526.71875 L 256.25 527.054688 L 257.351562 515.792969 L 255.578125 515.972656 C 254.078125 516.128906 252.507812 516.308594 250.980469 516.511719 L 247.570312 516.9375 L 247.570312 518.191406 C 247.570312 520.210938 247.460938 522.074219 247.214844 523.890625 L 247.011719 525.28125 L 248.402344 525.507812 C 250.488281 525.84375 252.574219 526.269531 254.660156 526.71875 " fill-opacity="1" fill-rule="nonzero"/><path fill="#000000" d="M 276.816406 592.863281 L 278.230469 592.863281 L 278.230469 586.242188 L 276.730469 586.3125 C 268.496094 586.738281 260.332031 587.117188 252.148438 587.386719 L 251.070312 587.433594 L 250.824219 588.464844 C 250.691406 589.003906 250.554688 589.519531 250.441406 590.058594 L 249.726562 593.109375 L 251.5625 593.085938 C 260.714844 593.019531 269.082031 592.953125 276.816406 592.863281 " fill-opacity="1" fill-rule="nonzero"/><path fill="#000000" d="M 240.460938 549.648438 L 240.082031 549.964844 L 239.945312 550.433594 C 239.65625 551.488281 239.410156 552.566406 239.140625 553.597656 L 238.625 555.820312 L 253.042969 558.445312 L 253.964844 550.390625 L 252.484375 550.253906 C 249.121094 549.964844 245.507812 549.625 241.988281 548.929688 L 241 548.910156 L 240.460938 549.648438 " fill-opacity="1" fill-rule="nonzero"/><path fill="#000000" d="M 236.179688 567.667969 L 237.570312 567.957031 C 238.980469 568.273438 240.394531 568.519531 241.785156 568.742188 C 244.523438 569.191406 247.101562 569.640625 249.589844 570.539062 L 251.25 571.121094 L 251.519531 569.394531 C 251.855469 567.148438 252.167969 564.929688 252.484375 562.683594 L 252.664062 561.316406 L 237.996094 558.625 L 236.179688 567.667969 " fill-opacity="1" fill-rule="nonzero"/><path fill="#000000" d="M 237.949219 542.265625 C 238.128906 542.3125 238.285156 542.335938 238.488281 542.378906 C 240.976562 534.4375 243.222656 526.316406 243.222656 518.933594 C 224.203125 521.46875 205.09375 524.609375 186.277344 525.6875 C 184.191406 525.820312 182.105469 524.160156 181.609375 522.164062 C 181.589844 522.074219 181.589844 521.960938 181.542969 521.851562 C 125.472656 521.828125 108.089844 520.546875 108.089844 518.976562 C 108.089844 517.429688 125.160156 516.171875 180.199219 516.082031 C 178.539062 508.902344 176.921875 501.679688 175.355469 494.453125 C 154.339844 493.488281 96.808594 503.855469 94.074219 473.410156 C 81.019531 472.914062 67.519531 470.535156 54.535156 471.300781 C 54.621094 475.269531 54.757812 479.175781 54.980469 483.101562 C 86.648438 483.167969 98.828125 484.449219 98.828125 485.996094 C 98.828125 487.476562 86.738281 488.753906 55.339844 488.867188 C 55.496094 491.648438 55.65625 494.453125 55.835938 497.257812 C 58.839844 499.683594 63.101562 501.027344 67.25 501.632812 C 71.894531 502.398438 76.511719 502.597656 80.976562 502.621094 C 89.8125 502.757812 98 502.015625 105.445312 502.238281 C 120.179688 502.621094 131.617188 503.023438 140.34375 503.40625 C 157.835938 504.214844 164.476562 505.066406 164.476562 505.828125 C 164.476562 506.636719 157.835938 507.242188 140.34375 507.511719 C 131.617188 507.625 120.179688 507.667969 105.445312 507.578125 C 98.269531 507.46875 90.148438 508.320312 80.929688 508.320312 C 76.3125 508.277344 71.488281 508.117188 66.332031 507.3125 C 63.101562 506.792969 59.601562 506.054688 56.261719 504.394531 C 56.417969 507.578125 56.484375 510.8125 56.574219 514.019531 C 65.90625 514.289062 75.324219 513.863281 84.742188 513.707031 C 89.003906 513.59375 90.351562 518.171875 88.691406 520.996094 C 88.625 521.402344 88.535156 521.78125 88.378906 522.121094 C 86.851562 525.820312 84.8125 529.277344 83.847656 533.226562 C 83.195312 535.804688 81.15625 536.816406 79.113281 536.613281 C 78.933594 536.679688 78.710938 536.726562 78.464844 536.769531 C 74.089844 537.152344 69.671875 537.265625 65.296875 537.242188 C 65.296875 539.035156 65.636719 540.71875 66.128906 542.335938 C 66.6875 542.15625 67.25 542.042969 67.945312 542.042969 C 124.285156 542.222656 181.878906 536.390625 237.949219 542.265625 " fill-opacity="1" fill-rule="nonzero"/><path fill="#000000" d="M 140.722656 472.824219 L 139.671875 472.78125 C 127.535156 472.285156 115.695312 471.660156 104.007812 469.503906 L 102.125 469.167969 L 102.328125 471.074219 C 103.875 485.253906 126.054688 487.117188 143.347656 487.117188 C 143.863281 487.117188 144.378906 487.117188 144.894531 487.117188 L 147.363281 487.09375 L 146.105469 484.964844 C 144.132812 481.53125 142.09375 477.875 140.992188 473.835938 L 140.722656 472.824219 " fill-opacity="1" fill-rule="nonzero"/><path fill="#000000" d="M 80.304688 576.867188 L 81.289062 577.113281 C 88.578125 578.90625 97.101562 580.386719 107.351562 581.621094 L 109.011719 581.847656 L 108.964844 580.164062 C 108.585938 568.273438 109.660156 559.679688 112.578125 551.398438 L 113.25 549.425781 L 111.1875 549.492188 C 99.457031 549.828125 85.597656 550.164062 71.511719 550.210938 L 68.640625 550.210938 L 71.578125 554.09375 C 74.585938 557.996094 77.679688 562.035156 78.753906 566.769531 C 79.40625 569.640625 79.878906 572.601562 80.191406 575.855469 L 80.304688 576.867188 " fill-opacity="1" fill-rule="nonzero"/><path fill="#000000" d="M 113.699219 585.929688 L 111.972656 585.726562 L 112.128906 587.992188 C 112.308594 590.507812 112.488281 593.042969 112.621094 595.554688 L 112.824219 596.835938 L 114.125 596.925781 C 119.933594 597.214844 125.765625 597.53125 131.574219 597.867188 L 133.03125 597.957031 L 133.097656 596.496094 C 133.210938 594.03125 133.34375 591.5625 133.546875 589.117188 L 133.660156 587.679688 L 132.203125 587.589844 C 125.765625 587.1875 119.53125 586.625 113.699219 585.929688 " fill-opacity="1" fill-rule="nonzero"/><path fill="#000000" d="M 108 585.210938 C 98.917969 583.976562 90.285156 582.339844 82.300781 580.386719 L 80.503906 579.9375 L 80.527344 581.824219 C 80.59375 585.816406 80.394531 590.035156 79.898438 594.296875 L 79.71875 595.890625 L 81.289062 595.914062 C 90.800781 596.027344 99.613281 596.273438 108.226562 596.632812 L 109.820312 596.699219 L 109.167969 585.367188 L 108 585.210938 " fill-opacity="1" fill-rule="nonzero"/><path fill="#000000" d="M 54.105469 460.507812 C 54.015625 461.179688 54.152344 461.875 54.511719 462.4375 C 54.914062 463.671875 56.011719 464.546875 57.359375 464.457031 C 60.5 464.34375 63.976562 464.433594 67.988281 464.679688 C 68.058594 464.679688 68.125 464.679688 68.167969 464.679688 C 68.976562 464.679688 69.738281 464.34375 70.300781 463.738281 C 70.882812 463.109375 71.128906 462.234375 71.019531 461.382812 C 70.792969 459.878906 70.570312 458.351562 70.414062 456.871094 C 70.277344 455.414062 69.066406 454.316406 67.609375 454.292969 C 64.222656 454.203125 60.542969 454.179688 56.730469 454.5625 C 55.40625 454.695312 54.355469 455.726562 54.175781 457.050781 C 54.085938 457.746094 54.039062 458.398438 54.039062 459.183594 C 54.039062 459.25 54.085938 459.8125 54.085938 459.855469 L 54.105469 460.507812 " fill-opacity="1" fill-rule="nonzero"/><g clip-path="url(#id1)"><path fill="#000000" d="M 75.816406 530.175781 L 77.632812 530.0625 L 78.308594 528.355469 C 78.777344 527.101562 79.316406 525.867188 79.855469 524.65625 L 81.695312 520.503906 L 77.164062 520.59375 C 63.414062 520.90625 50.453125 521.199219 37.398438 519.023438 L 33.585938 518.371094 L 34.078125 522.230469 C 34.257812 523.601562 34.371094 524.945312 34.414062 526.316406 L 34.484375 528.941406 L 42.332031 529.457031 C 50.070312 529.949219 57.988281 530.488281 65.949219 530.488281 C 69.246094 530.488281 72.519531 530.398438 75.816406 530.175781 " fill-opacity="1" fill-rule="nonzero"/></g><path fill="#000000" d="M 121.886719 568.453125 L 121.367188 568.292969 L 120.875 568.542969 C 120.382812 568.789062 119.910156 568.808594 119.664062 568.765625 C 118.542969 568.429688 118.589844 567.261719 118.65625 566.792969 C 118.878906 565.378906 119.015625 563.964844 119.171875 562.527344 C 119.285156 561.40625 119.394531 560.261719 119.507812 559.363281 C 119.574219 559.273438 119.621094 559.164062 119.777344 558.804688 L 119.890625 558.601562 C 120.136719 558.175781 120.496094 557.949219 120.988281 557.949219 C 123.746094 557.996094 126.035156 558.242188 128.1875 558.667969 C 128.480469 558.714844 128.660156 558.871094 128.90625 559.140625 L 129.21875 559.433594 C 129.554688 559.65625 129.914062 560.058594 129.691406 560.824219 C 129.398438 561.832031 129.332031 562.886719 129.242188 563.917969 C 129.105469 565.9375 128.925781 567.21875 127.917969 568.003906 C 126.617188 569.058594 124.6875 569.191406 121.886719 568.453125 Z M 142.273438 548.503906 L 116.433594 549.3125 L 116.074219 550.164062 C 111.589844 560.914062 111.367188 571.75 111.726562 580.925781 L 111.792969 582.160156 L 113.027344 582.296875 C 119.328125 582.96875 125.921875 583.574219 132.582031 584.023438 L 133.972656 584.113281 L 134.128906 582.742188 C 135.429688 570.808594 137.855469 560.238281 141.53125 550.5 L 142.273438 548.503906 " fill-opacity="1" fill-rule="nonzero"/><path fill="#000000" d="M 206.796875 127.859375 C 204.847656 126.625 203.007812 125.433594 201.324219 124.042969 L 199.664062 122.652344 L 200.179688 124.761719 C 200.742188 127.117188 201.550781 129.179688 202.558594 130.839844 C 205.09375 134.925781 208.703125 136.429688 212.515625 137.730469 L 212.742188 137.796875 L 212.941406 137.730469 C 215.117188 137.078125 217.316406 136.203125 219.917969 134.992188 L 222.183594 133.9375 L 219.695312 133.644531 C 216.398438 133.21875 212.808594 131.738281 208.792969 129.136719 C 208.144531 128.710938 207.46875 128.285156 206.796875 127.859375 " fill-opacity="1" fill-rule="nonzero"/><path fill="#000000" d="M 263.921875 317.046875 L 262.578125 316.976562 C 260.199219 316.867188 257.84375 316.710938 255.464844 316.53125 L 253.941406 316.394531 L 253.917969 317.921875 C 253.628906 333.515625 252.910156 354.042969 249.835938 374.484375 L 249.613281 375.941406 L 251.070312 376.121094 C 253.222656 376.390625 255.378906 376.683594 257.53125 376.976562 L 263.742188 377.78125 L 263.855469 376.257812 C 264.863281 362.167969 264.550781 347.828125 264.234375 333.984375 C 264.101562 328.800781 263.988281 323.597656 263.945312 318.390625 L 263.921875 317.046875 " fill-opacity="1" fill-rule="nonzero"/><path fill="#000000" d="M 452.722656 336.320312 L 464.945312 337.6875 L 465.035156 336.183594 C 465.664062 324.765625 466 315.429688 466.15625 306.746094 L 466.179688 305.042969 L 464.472656 305.3125 C 461.289062 305.828125 458.464844 306.050781 455.972656 305.984375 L 454.492188 305.9375 L 454.515625 307.441406 C 454.695312 318.144531 454.203125 326.851562 452.945312 334.839844 L 452.722656 336.320312 " fill-opacity="1" fill-rule="nonzero"/><path fill="#000000" d="M 468.332031 297.503906 C 469.765625 295.507812 470.933594 293.667969 471.964844 291.847656 L 473.109375 289.808594 L 470.753906 289.71875 C 463.21875 289.449219 455.59375 289 448.167969 288.347656 L 446.242188 288.167969 L 446.621094 290.078125 C 447.25 293.082031 448.125 296.425781 450.253906 297.636719 C 452.476562 298.871094 455.007812 299.277344 457.589844 299.277344 C 460.460938 299.277344 463.398438 298.757812 466 298.3125 L 467.996094 297.972656 L 468.332031 297.503906 " fill-opacity="1" fill-rule="nonzero"/><path fill="#000000" d="M 480.601562 283.253906 L 485.625 277.914062 L 483.179688 277.355469 C 475.128906 275.46875 468.445312 273.628906 462.007812 270.804688 L 461.515625 270.601562 L 460.976562 270.757812 C 460.839844 270.824219 460.683594 270.824219 460.503906 270.871094 C 454.136719 271.609375 448.976562 270.871094 442.988281 269.972656 C 439.894531 269.523438 436.707031 269.613281 433.523438 270.308594 L 432.199219 270.578125 L 432.402344 271.902344 C 432.738281 274.324219 433.164062 276.75 433.679688 279.148438 L 433.882812 280.160156 L 434.890625 280.292969 C 447.988281 281.976562 461.894531 282.875 479.972656 283.253906 L 480.601562 283.253906 " fill-opacity="1" fill-rule="nonzero"/><path fill="#000000" d="M 209.152344 146.660156 C 215.074219 146.660156 220.925781 145.761719 226.535156 143.382812 C 227.363281 143.070312 228.148438 142.6875 228.910156 142.308594 L 230.683594 141.476562 L 229.359375 140.824219 C 229.089844 140.691406 228.84375 140.535156 228.597656 140.378906 L 228.417969 140.265625 L 228.328125 139.996094 L 227.789062 139.703125 L 227.476562 139.839844 C 218.683594 143.136719 212.988281 143.429688 210.160156 140.757812 L 209.960938 140.558594 L 209.667969 140.558594 C 208.996094 140.558594 208.433594 140.332031 208.164062 139.929688 C 207.964844 139.683594 207.917969 139.390625 208.03125 139.074219 L 208.253906 138.46875 L 207.648438 138.199219 C 204.757812 136.921875 202.695312 135.644531 201.214844 133.199219 C 198.589844 128.957031 197.175781 124.019531 197.019531 118.546875 C 196.996094 117.917969 197.46875 117.558594 197.894531 117.445312 C 198.34375 117.3125 198.925781 117.378906 199.238281 117.941406 C 201.347656 121.730469 205.027344 124 208.613281 126.195312 L 209.984375 127.050781 C 211.6875 128.105469 213.707031 129.316406 215.859375 130.167969 L 217.226562 130.730469 L 216.824219 129.316406 C 216.644531 128.710938 216.53125 128.105469 216.441406 127.429688 C 216.328125 126.78125 216.195312 126.085938 216.015625 125.320312 L 215.902344 124.917969 L 215.5 124.804688 C 215.230469 124.761719 215.074219 124.695312 214.9375 124.515625 L 214.738281 124.246094 C 214.558594 124.042969 214.378906 123.820312 214.222656 123.660156 C 213.953125 123.371094 213.863281 123.011719 213.953125 122.675781 L 213.976562 122.472656 L 213.929688 122.292969 C 212.652344 118.457031 212.808594 114.640625 214.289062 112.0625 C 215.34375 110.222656 217.046875 109.054688 219.359375 108.5625 C 225.882812 107.125 233.667969 108.71875 235.214844 115.628906 C 235.953125 119.128906 233.621094 121.777344 231.335938 124.355469 L 231.109375 124.605469 C 230.257812 125.546875 229.964844 126.554688 229.742188 127.5 L 229.339844 129.40625 L 230.886719 128.238281 C 236.539062 123.953125 241.179688 119.21875 244.34375 114.53125 C 244.703125 113.992188 245.238281 113.789062 245.777344 113.992188 C 246.25 114.195312 246.652344 114.710938 246.539062 115.472656 C 245.328125 123.125 242.570312 129.179688 238.332031 133.488281 L 237.703125 134.117188 L 238.421875 134.589844 C 239.207031 135.128906 239.878906 135.6875 240.441406 136.25 L 240.796875 136.609375 L 241.269531 136.382812 C 246.25 133.871094 251.5625 131.269531 257.195312 129.429688 L 257.6875 129.113281 L 257.6875 128.574219 C 257.53125 120.003906 257.375 111.121094 258.246094 102.527344 L 258.203125 102.101562 L 257.980469 101.875 C 256.699219 100.550781 255.847656 99.09375 255.445312 97.523438 L 255.265625 96.917969 L 254.660156 97.007812 C 244.613281 98.21875 235.394531 101.023438 225.59375 104.007812 L 221.242188 105.332031 C 211.800781 108.179688 203.835938 109.726562 195.605469 107.867188 L 194.886719 107.6875 L 194.730469 108.425781 C 193.632812 114.621094 191.457031 120.632812 189.371094 126.445312 C 187.53125 131.558594 185.625 136.855469 184.414062 142.308594 L 184.257812 143.003906 L 184.953125 143.160156 C 192.890625 145 201.101562 146.660156 209.152344 146.660156 " fill-opacity="1" fill-rule="nonzero"/><path fill="#000000" d="M 263.25 175.335938 C 264.394531 175.535156 265.492188 175.738281 266.613281 175.941406 C 267.734375 176.164062 268.878906 176.367188 270.023438 176.566406 L 272.871094 177.0625 L 272.511719 174.191406 C 270.515625 158.035156 270.917969 141.476562 271.324219 125.480469 C 271.457031 119.757812 271.613281 114.035156 271.660156 108.292969 C 271.660156 107.886719 271.726562 107.484375 271.90625 107.101562 L 272.109375 106.519531 C 273.679688 102.210938 273.789062 96.355469 270.402344 93.4375 C 269.574219 92.652344 268.476562 92.207031 267.21875 92.136719 L 265.671875 92.070312 L 265.109375 93.507812 C 264.910156 94.023438 264.527344 94.425781 264.035156 94.671875 L 262.039062 95.929688 L 263.25 97.949219 L 263.539062 98.710938 L 264.28125 99.09375 C 264.753906 99.339844 265.269531 99.765625 265.132812 100.957031 C 264.078125 110.042969 264.191406 119.332031 264.304688 128.304688 C 264.503906 143.628906 264.707031 158.078125 259.660156 172.101562 L 258.808594 174.503906 L 261.320312 174.953125 L 263.25 175.335938 " fill-opacity="1" fill-rule="nonzero"/><path fill="#000000" d="M 280.40625 310.089844 L 281.347656 310.023438 L 281.640625 309.125 C 282.199219 307.53125 282.785156 305.960938 283.367188 304.390625 C 284.195312 302.191406 285.003906 299.972656 285.765625 297.75 L 286.082031 296.898438 L 285.902344 296.402344 C 284.9375 293.914062 283.589844 291.558594 281.886719 289.359375 L 281.347656 288.664062 L 280.472656 288.820312 C 278.074219 289.292969 275.71875 289.898438 273.542969 290.636719 C 268.003906 292.476562 262.375 293.847656 256.945312 295.167969 C 249.457031 296.988281 241.71875 298.894531 234.203125 301.96875 L 233.0625 302.460938 L 233.375 303.652344 C 233.644531 304.75 233.957031 305.871094 234.316406 306.972656 L 234.609375 307.867188 L 241.628906 308.542969 C 251.160156 309.484375 260.917969 310.425781 270.71875 310.425781 C 273.949219 310.425781 277.175781 310.316406 280.40625 310.089844 " fill-opacity="1" fill-rule="nonzero"/><path fill="#000000" d="M 226.378906 117.222656 C 226.378906 117.222656 226.398438 117.222656 226.421875 117.222656 C 226.894531 117.222656 227.296875 117.695312 227.476562 118.210938 C 227.542969 118.320312 227.566406 118.457031 227.589844 118.660156 C 227.679688 119.242188 227.519531 119.980469 226.757812 120.207031 C 225.816406 120.476562 224.988281 120.070312 224.652344 119.554688 C 224.472656 119.265625 224.335938 118.816406 224.785156 118.277344 L 224.898438 118.074219 C 225.007812 117.761719 225.300781 117.265625 225.996094 117.222656 Z M 222.40625 120.519531 L 222.003906 120.207031 L 221.914062 120.050781 L 221.847656 120.09375 L 221.847656 120.070312 L 221.441406 120.296875 C 220.703125 120.542969 219.851562 120.5 219.378906 120.140625 C 219.066406 119.914062 218.929688 119.535156 218.953125 119.015625 C 218.976562 118.5 219.179688 118.140625 219.492188 117.917969 C 219.964844 117.625 220.660156 117.582031 221.355469 117.804688 L 221.464844 117.917969 L 221.601562 117.917969 C 221.691406 117.960938 221.757812 117.984375 221.847656 118.007812 C 222.207031 118.210938 222.363281 118.480469 222.40625 118.882812 L 222.363281 119.355469 C 222.339844 119.445312 222.316406 119.578125 222.160156 119.78125 L 222.003906 119.914062 Z M 218.59375 125.816406 C 218.976562 127.835938 219.445312 130.304688 222.832031 130.304688 C 222.945312 130.304688 223.101562 130.304688 223.238281 130.304688 C 225.433594 130.144531 227.320312 130.035156 227.566406 126.9375 C 227.699219 125.03125 228.710938 123.910156 229.898438 122.628906 C 230.707031 121.753906 231.535156 120.835938 232.140625 119.601562 C 233.464844 116.886719 232.8125 115 232.050781 113.878906 C 230.167969 111.210938 225.523438 110.15625 222.050781 110.535156 C 219.425781 110.828125 217.472656 111.925781 216.375 113.699219 C 215.097656 115.785156 215.050781 118.636719 216.21875 121.753906 L 216.328125 122.070312 L 216.667969 122.179688 C 216.753906 122.226562 216.824219 122.226562 216.867188 122.226562 C 217.09375 122.339844 217.273438 122.449219 217.40625 122.515625 C 217.699219 122.742188 217.878906 123.054688 217.898438 123.4375 L 218.144531 123.929688 C 218.324219 124.535156 218.460938 125.1875 218.59375 125.816406 " fill-opacity="1" fill-rule="nonzero"/><path fill="#000000" d="M 233.398438 140.109375 L 233.667969 140.199219 L 238.554688 137.730469 L 237.703125 137.035156 C 237.277344 136.675781 236.828125 136.40625 236.359375 136.226562 L 236.359375 135.328125 L 235.214844 136.160156 C 234.046875 136.988281 232.949219 137.664062 231.871094 138.199219 L 230.570312 138.851562 L 231.871094 139.503906 C 232.386719 139.75 232.902344 139.949219 233.398438 140.109375 " fill-opacity="1" fill-rule="nonzero"/><path fill="#000000" d="M 223.933594 138.738281 C 229.40625 137.144531 233.667969 134.878906 236.582031 131.941406 C 239.050781 129.429688 240.84375 126.554688 242.121094 123.191406 L 243.378906 119.824219 L 240.910156 122.449219 C 234.453125 129.359375 226.46875 134.992188 218.414062 138.335938 L 213.371094 140.445312 L 218.796875 139.703125 C 221.175781 139.390625 223.351562 138.894531 223.933594 138.738281 " fill-opacity="1" fill-rule="nonzero"/><path fill="#000000" d="M 360.429688 596.226562 L 360.296875 594.925781 L 354.398438 594.90625 C 346.054688 594.859375 336.722656 594.816406 326.316406 594.882812 C 325.375 594.882812 324.410156 594.882812 323.46875 594.925781 L 322.078125 594.972656 L 322.078125 596.363281 C 322.125 599.886719 322.28125 602.980469 322.527344 605.808594 L 322.527344 607.246094 L 335.492188 607.222656 C 343.765625 607.199219 352.066406 607.175781 360.363281 607.132812 L 362.066406 607.109375 L 361.753906 605.425781 C 361.148438 602.242188 360.722656 599.144531 360.429688 596.226562 " fill-opacity="1" fill-rule="nonzero"/><path fill="#000000" d="M 326.316406 592.414062 C 338.71875 592.527344 349.597656 592.796875 358.613281 593.066406 L 360.183594 593.109375 L 360.070312 591.539062 C 359.9375 589.09375 359.800781 586.625 359.78125 584.179688 L 359.757812 582.742188 L 358.320312 582.765625 C 348.140625 582.902344 337.128906 583.261719 323.691406 583.886719 L 322.390625 583.957031 L 322.324219 585.234375 C 322.210938 587.140625 322.125 589.046875 322.078125 590.976562 L 322.054688 592.503906 L 323.582031 592.457031 C 324.476562 592.414062 325.421875 592.414062 326.316406 592.414062 " fill-opacity="1" fill-rule="nonzero"/><path fill="#000000" d="M 407.867188 593.601562 C 407.125 593.714844 406.230469 593.828125 405.195312 593.917969 L 404.253906 594.03125 C 401.542969 594.34375 397.929688 594.636719 393.378906 594.996094 C 390.082031 595.21875 386.246094 595.285156 381.804688 595.375 C 380.277344 595.421875 378.6875 595.441406 377.070312 595.488281 C 374.246094 595.578125 371.171875 595.601562 367.898438 595.621094 L 363.953125 595.644531 L 364.042969 596.429688 C 364.378906 599.4375 364.871094 602.554688 365.5 605.765625 L 365.632812 606.347656 L 366.214844 606.347656 C 382.1875 606.121094 395.394531 605.675781 407.796875 604.957031 L 408.449219 604.910156 L 408.472656 604.285156 C 408.671875 600.941406 408.742188 597.597656 408.71875 594.320312 L 408.695312 593.492188 L 407.867188 593.601562 " fill-opacity="1" fill-rule="nonzero"/><path fill="#000000" d="M 344.707031 561.832031 C 344.796875 564.300781 344.730469 566.859375 344.664062 569.347656 L 344.640625 570.382812 C 342.957031 570.402344 340.042969 570.402344 339.59375 570.359375 L 338.964844 570.335938 C 337.53125 570.292969 336.183594 570.246094 334.972656 569.863281 C 335.242188 568.40625 335.332031 566.949219 335.421875 565.535156 C 335.535156 563.738281 335.625 562.011719 336.074219 560.375 C 338.71875 561.40625 342.039062 561.808594 344.707031 561.832031 Z M 322.617188 581.597656 L 324.277344 581.53125 C 335.558594 581.082031 347.0625 580.722656 358.457031 580.5 L 359.824219 580.457031 L 359.847656 579.085938 C 360.003906 571.996094 360.609375 564.253906 361.730469 555.394531 L 361.933594 553.800781 L 360.316406 553.777344 C 350.089844 553.710938 339.683594 553.507812 329.367188 553.214844 L 328.269531 553.171875 L 327.953125 554.226562 C 325.398438 562.773438 323.671875 571.414062 322.796875 579.960938 L 322.617188 581.597656 " fill-opacity="1" fill-rule="nonzero"/><path fill="#000000" d="M 296.554688 569.863281 C 296.824219 568.40625 296.890625 566.949219 296.980469 565.535156 C 297.09375 563.738281 297.207031 562.011719 297.652344 560.375 C 300.300781 561.40625 303.597656 561.808594 306.289062 561.832031 C 306.378906 564.300781 306.3125 566.859375 306.242188 569.347656 L 306.222656 570.382812 C 304.515625 570.402344 301.625 570.402344 301.175781 570.359375 L 300.523438 570.335938 C 299.113281 570.292969 297.765625 570.246094 296.554688 569.863281 Z M 325.261719 553.105469 L 323.402344 553.058594 C 311.066406 552.699219 298.777344 552.363281 286.441406 552.164062 L 285.410156 552.140625 L 285.050781 553.105469 C 282.269531 560.753906 280.632812 570.964844 280.472656 581.890625 L 280.453125 583.394531 L 281.976562 583.328125 C 294.109375 582.789062 306.289062 582.25 318.46875 581.757812 L 319.722656 581.710938 L 319.835938 580.457031 C 320.664062 571.996094 322.324219 563.378906 324.746094 554.878906 L 325.261719 553.105469 " fill-opacity="1" fill-rule="nonzero"/><path fill="#000000" d="M 319.183594 596.40625 L 319.183594 594.972656 L 281.058594 595.554688 L 281.257812 597.148438 C 281.664062 600.535156 282.199219 603.609375 282.828125 606.300781 L 283.074219 607.402344 L 284.195312 607.402344 C 286.753906 607.425781 289.265625 607.425781 291.800781 607.425781 C 294.335938 607.425781 296.847656 607.425781 299.359375 607.402344 C 305.683594 607.335938 311.917969 607.289062 318.242188 607.246094 L 319.65625 607.246094 L 319.65625 605.808594 L 319.589844 605.359375 C 319.363281 602.691406 319.230469 599.75 319.183594 596.40625 " fill-opacity="1" fill-rule="nonzero"/><path fill="#000000" d="M 303.195312 592.617188 L 319.164062 592.480469 L 319.183594 591.089844 C 319.230469 589.453125 319.296875 587.792969 319.363281 586.175781 L 319.453125 584.089844 L 280.429688 586.109375 L 280.472656 587.523438 C 280.496094 588.464844 280.5625 589.363281 280.632812 590.261719 L 280.789062 592.839844 L 282.15625 592.816406 C 289.691406 592.75 296.644531 592.683594 303.195312 592.617188 " fill-opacity="1" fill-rule="nonzero"/><path fill="#000000" d="M 408.5625 585.144531 L 408.539062 584.449219 L 407.84375 584.449219 C 405.242188 584.402344 402.460938 584.3125 399.34375 584.136719 C 388.332031 583.527344 376.804688 583.28125 364.109375 583.417969 L 363.367188 583.417969 L 363.390625 584.136719 C 363.4375 587.164062 363.527344 589.609375 363.683594 591.832031 L 363.75 592.480469 L 364.378906 592.503906 C 369.199219 592.660156 373.664062 592.773438 377.542969 592.839844 C 380.546875 592.886719 383.328125 592.953125 385.886719 593.042969 C 388.710938 593.109375 391.269531 593.199219 393.578125 593.199219 C 398.601562 593.15625 401.808594 593.15625 404.320312 593.222656 C 405.734375 593.265625 406.921875 593.3125 407.957031 593.355469 L 408.71875 593.378906 L 408.695312 591.851562 C 408.671875 589.609375 408.628906 587.386719 408.5625 585.144531 " fill-opacity="1" fill-rule="nonzero"/><path fill="#000000" d="M 519.421875 514.714844 C 494.460938 511.394531 474.542969 506.390625 461.355469 484.492188 C 458.644531 484.984375 455.90625 485.414062 453.191406 485.792969 C 456.488281 492.144531 460.863281 497.328125 465.550781 501.320312 C 470.867188 505.941406 476.382812 509.285156 481.632812 511.777344 C 492.0625 516.867188 501.054688 519.089844 507.828125 520.660156 C 521.507812 523.621094 526.960938 523.734375 526.960938 524.746094 C 526.960938 525.125 525.613281 525.460938 522.429688 525.664062 C 519.289062 525.777344 514.242188 525.730469 507.085938 524.699219 C 499.976562 523.554688 490.535156 521.691406 479.34375 516.578125 C 474.96875 514.625 470.351562 512.046875 465.753906 508.65625 C 458.980469 511.597656 453.707031 515.476562 449.222656 518.550781 C 444.332031 521.941406 440.386719 524.542969 437.113281 526.203125 C 435.453125 527.011719 434.128906 527.707031 432.894531 528.109375 C 431.660156 528.535156 430.675781 528.804688 429.867188 529.007812 C 428.273438 529.34375 427.511719 529.277344 427.402344 528.894531 C 427.242188 528.535156 427.714844 527.886719 428.925781 526.921875 C 429.597656 526.472656 430.382812 525.886719 431.394531 525.28125 C 432.402344 524.542969 433.589844 523.691406 435.003906 522.703125 C 437.808594 520.75 441.351562 517.902344 446.082031 514.242188 C 449.875 511.347656 454.492188 507.714844 460.707031 504.597656 C 458.394531 502.554688 456.152344 500.242188 454.023438 497.640625 C 452.027344 498.066406 450.1875 498.449219 448.503906 498.828125 C 446.578125 499.324219 444.851562 499.792969 443.257812 500.175781 C 440.003906 500.9375 437.472656 501.542969 435.386719 501.703125 C 431.28125 501.949219 429.6875 501.523438 429.621094 500.714844 C 429.554688 499.90625 430.898438 498.898438 434.464844 497.707031 C 436.28125 497.101562 438.613281 496.09375 441.730469 495.105469 C 443.300781 494.566406 445.074219 493.984375 447.023438 493.332031 C 448.058594 493.0625 449.179688 492.792969 450.34375 492.523438 C 449.132812 490.683594 448.058594 488.710938 447.070312 486.601562 C 438.546875 487.679688 429.980469 488.484375 421.390625 489.496094 C 419.976562 496.855469 418.675781 503.742188 417.488281 510.027344 C 416.433594 517.09375 415.535156 523.464844 414.683594 529.230469 C 414.460938 530.691406 414.257812 532.082031 414.035156 533.425781 C 413.832031 534.730469 413.832031 535.738281 413.785156 537.152344 C 413.765625 538.453125 413.71875 539.800781 413.519531 541.191406 C 413.472656 541.414062 413.449219 541.660156 413.40625 541.886719 C 445.230469 536.679688 476.003906 528.78125 508.859375 529.074219 C 509.601562 529.074219 510.207031 529.1875 510.742188 529.433594 C 513.703125 530.644531 521.578125 528.3125 524.851562 527.976562 C 529.917969 527.460938 535.03125 527.011719 540.101562 526.515625 C 549.902344 525.574219 559.703125 524.746094 569.503906 523.78125 C 579.6875 522.769531 589.824219 521.738281 599.984375 520.503906 C 604.964844 519.898438 623.804688 519.851562 625.84375 515.636719 C 624.386719 515.367188 622.257812 515.546875 620.640625 515.050781 C 587.894531 517.96875 551.832031 518.976562 519.421875 514.714844 " fill-opacity="1" fill-rule="nonzero"/><path fill="#000000" d="M 681.019531 451.242188 C 676.757812 454.226562 672.765625 456.691406 669.175781 458.914062 C 665.566406 461.066406 662.335938 462.953125 659.417969 464.570312 C 656.457031 466.070312 653.878906 467.375 651.613281 468.496094 C 642.507812 472.691406 638.71875 473.519531 638.40625 472.847656 C 638.046875 472.0625 641.253906 469.910156 649.707031 464.882812 C 651.816406 463.605469 654.238281 462.144531 657.042969 460.417969 C 659.777344 458.644531 662.875 456.691406 666.328125 454.425781 C 669.757812 452.117188 673.617188 449.625 677.722656 446.664062 C 680.679688 444.421875 684.089844 441.863281 685.636719 438.8125 C 662 439.886719 638.472656 439.730469 614.96875 437.082031 C 614.765625 437.308594 614.539062 437.554688 614.273438 437.777344 C 612.859375 438.96875 611.46875 440.15625 610.078125 441.347656 C 604.425781 454.808594 598.480469 468.070312 591.171875 480.679688 C 597.429688 477.425781 602.542969 473.519531 606.804688 470.222656 C 612.589844 465.644531 617.007812 461.855469 620.417969 459.003906 C 627.210938 453.28125 630.171875 451.421875 630.710938 452.003906 C 631.25 452.585938 629.367188 455.460938 623.21875 461.988281 C 620.101562 465.21875 615.953125 469.414062 610.144531 474.375 C 608.6875 475.5625 607.117188 476.839844 605.480469 478.1875 C 603.773438 479.488281 601.890625 480.722656 599.984375 482.113281 C 599.941406 482.136719 599.894531 482.136719 599.851562 482.179688 C 607.476562 482.226562 615.078125 482.382812 622.613281 483.257812 C 632.683594 484.402344 643.742188 487.679688 653.765625 486.535156 C 676.488281 483.953125 685.367188 463.3125 689.585938 443.34375 C 688.980469 444.242188 688.308594 445.09375 687.632812 445.765625 C 685.4375 448.03125 683.125 449.738281 681.019531 451.242188 " fill-opacity="1" fill-rule="nonzero"/><path fill="#000000" d="M 500.605469 538.8125 C 471.472656 539.890625 443.570312 547.539062 415.109375 551.960938 C 415.109375 552.027344 415.132812 552.117188 415.109375 552.183594 C 414.90625 553.148438 414.796875 554.113281 414.640625 555.054688 C 424.394531 553.867188 433.433594 552.769531 441.730469 551.757812 C 450.996094 550.457031 459.40625 549.269531 466.941406 548.191406 C 482.125 546.195312 493.945312 544.464844 503.074219 543.726562 C 521.261719 542.222656 528.191406 542.199219 528.28125 543.007812 C 528.28125 543.816406 521.464844 545.273438 503.566406 547.765625 C 494.574219 549.019531 482.84375 551.152344 467.75 553.464844 C 460.214844 554.609375 451.800781 555.910156 442.496094 557.367188 C 433.769531 558.488281 424.214844 559.679688 413.832031 561.003906 C 413.203125 567.058594 413.179688 573.140625 413.339844 579.242188 C 433.546875 579.289062 454.832031 578.324219 474.207031 575.855469 C 493.292969 573.410156 512.066406 569.28125 531.109375 567.238281 C 531.578125 566.746094 532.027344 566.253906 532.542969 565.714844 C 536.714844 559.902344 541.335938 555.84375 545.214844 552.878906 C 549.679688 549.492188 553.289062 547.269531 556.046875 545.566406 C 561.589844 542.3125 563.921875 541.390625 564.4375 542.042969 C 564.929688 542.648438 563.40625 544.757812 558.449219 548.910156 C 555.9375 550.949219 552.707031 553.597656 548.601562 556.984375 C 545.640625 559.523438 542.367188 562.574219 539.183594 566.523438 C 541.378906 566.363281 543.554688 566.296875 545.753906 566.207031 C 551.25 560.417969 557.460938 555.101562 564.996094 550.234375 C 576.414062 542.804688 588.1875 536.1875 600.253906 530.085938 C 568.183594 533.921875 535.996094 536.074219 503.902344 539.800781 C 502.445312 539.957031 501.367188 539.53125 500.605469 538.8125 " fill-opacity="1" fill-rule="nonzero"/><path fill="#000000" d="M 524.964844 584.5625 C 522.609375 587.636719 521.261719 588.554688 520.589844 588.171875 C 519.894531 587.792969 519.960938 586.132812 521.441406 582.519531 C 522.160156 580.703125 523.28125 578.414062 524.917969 575.519531 C 525.277344 574.9375 525.660156 574.375 526.039062 573.746094 C 508.746094 576.148438 491.679688 579.9375 474.207031 581.621094 C 454.832031 583.484375 433.613281 585.277344 413.519531 585.210938 C 413.71875 591.425781 413.875 597.664062 413.5625 603.878906 C 415.222656 603.765625 416.90625 603.699219 418.5625 603.585938 C 454.5625 600.894531 490.332031 595.960938 526.308594 592.863281 C 526.351562 592.863281 526.351562 592.816406 526.351562 592.773438 C 530.839844 585.167969 535.390625 578.414062 540.414062 572.242188 C 538.195312 572.398438 535.953125 572.625 533.730469 572.871094 C 529.425781 577.742188 527.027344 582.160156 524.964844 584.5625 " fill-opacity="1" fill-rule="nonzero"/><path fill="#000000" d="M 382.1875 560.375 C 384.832031 561.40625 388.152344 561.808594 390.84375 561.832031 C 390.910156 564.253906 390.84375 566.769531 390.796875 569.214844 L 390.753906 570.382812 C 389.070312 570.402344 386.179688 570.402344 385.707031 570.359375 L 385.078125 570.335938 C 383.664062 570.292969 382.296875 570.246094 381.085938 569.863281 C 381.355469 568.40625 381.445312 566.949219 381.535156 565.535156 C 381.625 563.738281 381.738281 562.011719 382.1875 560.375 Z M 383.933594 553.554688 C 377.609375 553.753906 371.351562 553.777344 366.058594 553.777344 L 364.804688 553.777344 L 364.648438 555.035156 C 363.527344 563.875 362.875 571.683594 362.71875 578.953125 L 362.671875 580.433594 L 364.175781 580.410156 C 376.890625 580.207031 388.375 580.253906 399.253906 580.523438 C 401.878906 580.613281 404.523438 580.632812 407.238281 580.679688 L 409.167969 580.703125 L 409.121094 579.199219 C 408.917969 571.457031 408.917969 562.304688 410.601562 553.058594 L 410.9375 551.109375 L 408.988281 551.375 C 399.949219 552.632812 391.761719 553.351562 383.933594 553.554688 " fill-opacity="1" fill-rule="nonzero"/><path fill="#000000" d="M 405.265625 491.71875 C 390.011719 494.320312 374.828125 496.585938 359.421875 497.796875 C 359.265625 498.828125 359.039062 499.816406 358.816406 500.828125 C 361.351562 500.667969 363.839844 500.558594 366.105469 500.445312 C 369.648438 500.0625 372.675781 499.703125 375.546875 499.414062 C 381.3125 498.71875 385.863281 498.132812 389.363281 497.863281 C 396.382812 497.371094 399.117188 497.664062 399.1875 498.492188 C 399.296875 499.257812 396.808594 500.355469 390.058594 501.902344 C 386.671875 502.667969 382.207031 503.675781 376.398438 504.664062 C 373.4375 505.089844 370.296875 505.5625 366.6875 506.097656 C 363.683594 506.324219 360.183594 506.503906 356.886719 506.660156 C 355.382812 510.046875 353.296875 512.964844 350.898438 515.476562 C 383.328125 515.703125 391.203125 516.890625 391.203125 518.328125 C 391.203125 519.851562 382.140625 521.132812 343.40625 521.199219 C 335.3125 525.933594 325.105469 528.15625 314.65625 528.582031 C 296.824219 529.320312 273.5 533.652344 261.386719 518.617188 C 261.027344 522.230469 260.691406 525.886719 260.355469 529.5 C 279.332031 531.65625 295.546875 531.070312 308.890625 531.386719 C 322.796875 531.609375 333.472656 531.722656 341.546875 530.960938 C 349.621094 530.152344 355.203125 529.1875 358.679688 528.425781 C 362.222656 527.660156 363.839844 527.59375 363.996094 527.929688 C 364.109375 528.3125 362.761719 529.164062 359.332031 530.578125 C 355.921875 532.035156 350.335938 533.695312 342.0625 535.042969 C 333.71875 536.390625 322.707031 536.660156 308.890625 536.679688 C 295.636719 536.679688 279.375 537.464844 259.816406 535.222656 C 259.546875 538.183594 259.234375 541.144531 258.964844 544.085938 C 259.300781 543.996094 259.660156 543.949219 260.085938 543.949219 C 303.417969 543.230469 347.894531 549.425781 391.089844 544.960938 C 396.808594 544.332031 402.484375 543.570312 408.179688 542.738281 C 408.605469 541.773438 408.808594 539.464844 408.71875 537.105469 C 408.695312 535.917969 408.695312 534.28125 408.875 532.800781 C 409.03125 531.429688 409.210938 529.996094 409.367188 528.535156 C 410.152344 522.746094 410.960938 516.285156 411.878906 509.128906 C 412.957031 503.316406 414.144531 497.011719 415.355469 490.257812 C 412.039062 490.683594 408.652344 491.179688 405.265625 491.71875 " fill-opacity="1" fill-rule="nonzero"/><path fill="#000000" d="M 173.3125 588.53125 L 171.832031 588.53125 L 172.035156 595.421875 L 173.492188 595.375 C 178.582031 595.171875 184.75 594.90625 192.308594 594.566406 C 194.394531 594.476562 196.503906 594.410156 198.703125 594.277344 L 199.980469 594.230469 L 200.359375 588.128906 L 193.992188 588.242188 C 187.152344 588.375 180.242188 588.511719 173.3125 588.53125 " fill-opacity="1" fill-rule="nonzero"/><path fill="#000000" d="M 194.84375 561.832031 C 194.933594 564.300781 194.867188 566.859375 194.796875 569.347656 L 194.777344 570.382812 C 193.09375 570.402344 190.179688 570.402344 189.730469 570.359375 L 189.101562 570.335938 C 187.6875 570.292969 186.320312 570.246094 185.109375 569.863281 C 185.355469 568.40625 185.46875 566.949219 185.558594 565.535156 C 185.648438 563.738281 185.761719 562.011719 186.207031 560.375 C 188.855469 561.40625 192.152344 561.808594 194.84375 561.832031 Z M 205.296875 549.558594 L 205.273438 548.214844 L 203.90625 548.167969 C 195.5625 547.898438 186.433594 547.785156 175.890625 547.832031 L 174.726562 547.832031 L 174.480469 548.976562 C 171.878906 561.25 171.652344 573.65625 171.808594 584.179688 L 171.808594 585.59375 L 173.222656 585.617188 C 178.203125 585.660156 183.179688 585.707031 188.070312 585.707031 C 191.859375 585.707031 195.628906 585.683594 199.308594 585.636719 L 200.609375 585.636719 L 200.71875 584.335938 C 200.988281 581.285156 201.304688 578.234375 201.683594 575.25 C 202.066406 572.132812 202.695312 569.078125 203.300781 566.140625 C 204.351562 560.867188 205.472656 555.4375 205.296875 549.558594 " fill-opacity="1" fill-rule="nonzero"/><path fill="#000000" d="M 227.835938 587.726562 C 220.164062 587.769531 212.40625 587.882812 204.53125 588.039062 L 203.164062 588.0625 L 203.121094 589.429688 C 203.097656 590.417969 203.007812 591.382812 202.941406 592.300781 L 202.828125 594.074219 L 211.484375 593.804688 C 217.113281 593.691406 223.933594 593.582031 227.386719 593.445312 L 228.574219 593.402344 L 228.753906 592.234375 C 228.910156 591.292969 229.070312 590.394531 229.25 589.453125 L 229.585938 587.726562 L 227.835938 587.726562 " fill-opacity="1" fill-rule="nonzero"/><path fill="#000000" d="M 213.4375 596.585938 L 202.78125 596.789062 L 202.625 603.25 L 203.996094 603.363281 C 211.105469 603.902344 218.167969 604.394531 225.234375 604.910156 L 226.535156 604.980469 L 228.082031 596.339844 L 226.308594 596.386719 C 223.082031 596.476562 218.035156 596.519531 213.4375 596.585938 " fill-opacity="1" fill-rule="nonzero"/><path fill="#000000" d="M 192.890625 597.035156 L 191.90625 597.035156 C 184.75 597.082031 178.539062 597.101562 173.535156 596.992188 L 172.054688 596.96875 L 172.054688 600.828125 L 199.800781 603.027344 L 199.800781 601.457031 C 199.800781 600.492188 199.800781 599.460938 199.84375 598.359375 L 199.890625 596.8125 L 198.34375 596.878906 C 196.503906 596.96875 194.710938 596.992188 192.890625 597.035156 " fill-opacity="1" fill-rule="nonzero"/><path fill="#000000" d="M 150.527344 569.863281 C 150.792969 568.40625 150.863281 566.949219 150.953125 565.535156 C 151.0625 563.738281 151.175781 562.011719 151.625 560.375 C 154.269531 561.40625 157.589844 561.808594 160.257812 561.832031 C 160.347656 564.253906 160.28125 566.769531 160.214844 569.191406 L 160.191406 570.382812 C 158.511719 570.402344 155.59375 570.402344 155.144531 570.359375 L 154.496094 570.335938 C 153.082031 570.292969 151.738281 570.246094 150.527344 569.863281 Z M 146.355469 548.371094 L 145.410156 548.394531 L 145.054688 549.246094 C 140.972656 559.183594 138.324219 570.15625 137 582.789062 L 136.820312 584.292969 L 138.324219 584.382812 C 147.429688 584.898438 157.230469 585.277344 167.480469 585.480469 L 168.960938 585.527344 L 168.9375 584.046875 C 168.847656 573.8125 169.074219 561.742188 171.40625 549.605469 L 171.742188 547.875 L 169.992188 547.898438 C 162.121094 547.988281 154.226562 548.167969 146.355469 548.371094 " fill-opacity="1" fill-rule="nonzero"/><path fill="#000000" d="M 240.507812 596.855469 C 237.929688 596.476562 235.238281 596.070312 232.65625 595.464844 L 231.199219 595.105469 L 230.929688 596.585938 C 230.707031 597.867188 230.460938 599.144531 230.257812 600.445312 L 229.40625 605.179688 L 231.019531 605.292969 C 234.382812 605.515625 237.75 605.675781 241.113281 605.875 L 242.839844 605.964844 L 243.175781 604.933594 C 243.847656 603.027344 244.433594 601.140625 245.015625 599.191406 L 245.484375 597.621094 L 243.871094 597.351562 C 242.75 597.171875 241.628906 597.011719 240.507812 596.855469 " fill-opacity="1" fill-rule="nonzero"/><path fill="#000000" d="M 278.5 596.925781 L 278.386719 595.601562 L 248.894531 596.003906 L 248.625 597.058594 C 247.976562 599.503906 247.214844 601.949219 246.449219 604.328125 L 245.890625 606.101562 L 247.75 606.210938 C 257.53125 606.730469 267.800781 607.085938 278.277344 607.289062 L 280.070312 607.3125 L 279.6875 605.5625 C 279.152344 602.890625 278.746094 600.066406 278.5 596.925781 " fill-opacity="1" fill-rule="nonzero"/><path fill="#000000" d="M 159.363281 595.980469 C 161.359375 595.824219 164.070312 595.691406 167.707031 595.601562 L 169.140625 595.554688 L 168.984375 588.53125 L 167.59375 588.53125 C 156.175781 588.53125 146.734375 588.332031 137.921875 587.882812 L 136.507812 587.816406 L 136.417969 589.207031 C 136.214844 591.742188 136.058594 594.253906 135.992188 596.765625 L 135.949219 598.15625 L 137.316406 598.246094 C 147.429688 598.941406 157.523438 599.660156 167.636719 600.492188 L 169.164062 600.605469 L 169.164062 596.789062 L 167.839844 596.675781 C 164.117188 596.429688 161.378906 596.207031 159.363281 595.980469 " fill-opacity="1" fill-rule="nonzero"/><path fill="#000000" d="M 249.050781 582.96875 C 249.566406 580.386719 250.085938 577.742188 250.554688 575.160156 L 250.578125 573.792969 L 249.320312 573.476562 C 246.472656 572.175781 243.421875 571.75 240.460938 571.300781 C 239.339844 571.144531 238.195312 570.988281 237.054688 570.761719 L 235.640625 570.492188 L 234.046875 579.109375 L 234.652344 579.625 C 238.21875 582.765625 243.332031 583.507812 247.4375 584.089844 L 248.761719 584.292969 L 249.050781 582.96875 " fill-opacity="1" fill-rule="nonzero"/><path fill="#000000" d="M 225.59375 561.832031 C 225.683594 564.253906 225.613281 566.769531 225.546875 569.191406 L 225.523438 570.382812 C 223.84375 570.402344 220.925781 570.402344 220.480469 570.359375 L 219.828125 570.335938 C 218.414062 570.292969 217.070312 570.246094 215.859375 569.863281 C 216.105469 568.40625 216.195312 566.949219 216.285156 565.535156 C 216.398438 563.738281 216.507812 562.011719 216.957031 560.375 C 219.605469 561.40625 222.902344 561.808594 225.59375 561.832031 Z M 205.027344 572.511719 C 204.488281 575.722656 204.015625 579.378906 203.546875 584 L 203.390625 585.59375 L 205.003906 585.570312 C 217.628906 585.390625 226.46875 585.03125 228.867188 584.921875 L 230.011719 584.851562 L 230.210938 583.730469 C 231.535156 576.304688 232.902344 568.632812 234.519531 561.160156 C 235.148438 558.0625 236.109375 554.855469 236.941406 552.09375 L 237.457031 550.433594 L 235.707031 550.253906 C 227.65625 549.425781 219.132812 548.820312 209.691406 548.414062 L 208.164062 548.324219 L 208.1875 549.875 C 208.300781 555.664062 207.246094 561.003906 206.125 566.65625 C 205.742188 568.585938 205.363281 570.515625 205.027344 572.511719 " fill-opacity="1" fill-rule="nonzero"/><path fill="#000000" d="M 536.894531 499.863281 L 536.984375 500.667969 C 537.230469 502.734375 537.457031 504.777344 537.722656 506.792969 L 537.882812 507.894531 L 538.980469 508.007812 C 539.339844 508.050781 539.699219 508.074219 540.078125 508.074219 L 541.15625 508.074219 L 541.449219 507.019531 C 541.695312 506.210938 542.144531 505.628906 542.929688 505.15625 C 549.476562 501.140625 556.003906 496.878906 562.328125 492.75 C 568.628906 488.621094 575.15625 484.378906 581.660156 480.363281 L 582.15625 479.894531 C 586.550781 472.535156 590.65625 464.746094 594.714844 456.066406 L 597.40625 450.164062 L 592.382812 454.449219 C 574.707031 469.527344 556.429688 485.121094 537.546875 499.367188 L 536.894531 499.863281 " fill-opacity="1" fill-rule="nonzero"/><path fill="#000000" d="M 261.972656 569.863281 C 262.21875 568.40625 262.308594 566.949219 262.398438 565.535156 C 262.507812 563.738281 262.621094 562.011719 263.070312 560.375 C 265.695312 561.40625 269.011719 561.808594 271.703125 561.832031 C 271.792969 564.253906 271.726562 566.769531 271.660156 569.191406 L 271.636719 570.382812 C 269.933594 570.402344 267.039062 570.402344 266.589844 570.359375 L 265.964844 570.335938 C 264.527344 570.292969 263.183594 570.246094 261.972656 569.863281 Z M 278.410156 581.6875 C 278.476562 580.457031 278.546875 579.199219 278.65625 577.917969 L 278.882812 573.972656 C 279.285156 566.992188 279.644531 560.417969 281.664062 553.957031 L 282.246094 552.09375 L 280.292969 552.09375 C 273.519531 552.050781 266.792969 552.027344 260.085938 552.140625 C 259.457031 552.140625 258.964844 552.050781 258.605469 551.894531 L 256.789062 551.039062 L 256.589844 553.015625 C 255.289062 564.59375 253.851562 574.039062 252.058594 582.722656 L 251.699219 584.515625 L 253.515625 584.449219 C 261.367188 584.179688 269.214844 583.867188 277.019531 583.527344 L 278.320312 583.460938 L 278.410156 581.6875 " fill-opacity="1" fill-rule="nonzero"/><path fill="#000000" d="M 241.652344 594.140625 C 242.75 594.320312 243.847656 594.476562 244.925781 594.65625 L 246.25 594.882812 L 246.875 592.300781 C 247.214844 591.046875 247.503906 589.8125 247.796875 588.578125 L 248.132812 587.074219 L 246.628906 586.828125 C 242.546875 586.132812 238.578125 585.367188 235.191406 583.460938 L 233.554688 582.542969 L 232.902344 585.257812 L 233.0625 585.660156 C 233.285156 586.222656 233.171875 586.894531 232.8125 587.277344 L 232.546875 587.566406 L 231.648438 592.234375 L 232.992188 592.546875 C 235.863281 593.265625 238.800781 593.714844 241.652344 594.140625 " fill-opacity="1" fill-rule="nonzero"/><path fill="#000000" d="M 706.742188 362.210938 C 682.945312 382.269531 659.890625 404.730469 631.632812 418.394531 C 630.824219 418.773438 630.332031 419.335938 629.972656 419.941406 C 623.78125 420.34375 617.949219 421.824219 614.273438 425.640625 L 610.210938 429.859375 L 616.042969 430.488281 C 629.769531 431.96875 643.921875 432.707031 659.285156 432.707031 C 669.332031 432.707031 679.917969 432.394531 691.199219 431.765625 L 698.109375 431.382812 L 692.972656 426.761719 C 688.058594 422.363281 672.515625 421.578125 656.996094 421.152344 C 654.304688 421.085938 652.152344 421.019531 650.875 420.929688 C 649.820312 420.839844 648.609375 420.726562 647.261719 420.59375 C 646.859375 420.570312 646.410156 420.523438 646.007812 420.480469 C 670.453125 406.410156 691.402344 386.375 712.84375 368.3125 C 717.058594 364.722656 710.960938 358.667969 706.742188 362.210938 " fill-opacity="1" fill-rule="nonzero"/><path fill="#000000" d="M 181.164062 374.101562 C 181.09375 374.082031 181.050781 374.058594 180.984375 374.035156 C 181.050781 374.035156 181.09375 374.058594 181.164062 374.058594 C 181.164062 374.082031 181.164062 374.082031 181.164062 374.101562 Z M 187.242188 322.566406 C 189.84375 319.425781 192.824219 315.699219 195.742188 310.023438 C 196.144531 309.664062 196.546875 309.304688 196.953125 308.96875 C 198.902344 306.164062 200.875 303.425781 202.582031 300.6875 C 204.9375 296.652344 207.203125 292.859375 209.308594 289.246094 C 211.285156 285.476562 213.167969 281.933594 214.9375 278.542969 C 221.847656 264.945312 227.074219 254.132812 231.648438 246.191406 C 233.957031 242.171875 235.84375 238.808594 237.613281 236.070312 C 239.453125 233.421875 240.933594 231.269531 242.167969 229.652344 C 244.542969 226.421875 245.800781 225.144531 246.136719 225.390625 C 246.472656 225.570312 245.867188 227.277344 244.050781 230.84375 C 243.175781 232.636719 241.941406 234.925781 240.417969 237.6875 C 238.914062 240.535156 237.324219 244.035156 235.257812 248.074219 C 231.222656 256.175781 226.421875 267.101562 219.695312 280.945312 C 217.96875 284.398438 216.128906 288.011719 214.199219 291.847656 C 213.167969 293.621094 212.136719 295.417969 211.082031 297.277344 C 221.039062 289.425781 230.480469 282.851562 239.363281 277.625 C 256.339844 267.640625 270.582031 261.46875 281.796875 258.105469 C 287.449219 256.488281 292.09375 254.78125 296.171875 254.019531 C 300.1875 253.257812 303.464844 252.71875 305.996094 252.292969 C 311.109375 251.53125 313.308594 251.417969 313.375 251.800781 C 313.464844 252.179688 311.378906 253.054688 306.511719 254.515625 C 304.046875 255.210938 300.882812 256.105469 296.957031 257.140625 C 293.054688 258.171875 288.570312 260.144531 283.144531 261.941406 C 272.308594 265.777344 258.628906 272.125 242.144531 282.15625 C 237.523438 284.960938 232.746094 288.167969 227.789062 291.714844 C 221.308594 295.417969 215.050781 299.367188 209.308594 303.808594 C 203.679688 308.183594 198.164062 313.03125 193.296875 317.335938 C 191.234375 319.15625 189.058594 321.0625 187.128906 322.699219 C 187.171875 322.65625 187.195312 322.609375 187.242188 322.566406 Z M 367.539062 238.605469 C 368.101562 239.796875 368.796875 241.34375 369.601562 243.296875 C 370.34375 245.292969 370.992188 247.714844 371.824219 250.609375 C 372.765625 254.066406 373.640625 258.285156 374.289062 263.242188 C 374.3125 263.152344 374.3125 263.0625 374.335938 262.972656 C 374.875 267.371094 375.253906 271.769531 375.253906 276.234375 C 375.253906 284.714844 374.222656 293.105469 372.203125 301.296875 C 371.308594 303.785156 370.5 306.296875 369.761719 308.832031 C 369.132812 305.960938 368.414062 303.089844 367.585938 300.285156 C 367.179688 298.894531 366.664062 297.546875 366.105469 296.246094 C 364.714844 289.089844 362.964844 282.605469 361.191406 276.90625 C 357.605469 265.597656 354.308594 256.914062 351.929688 250.183594 C 347.085938 236.765625 345.761719 231.425781 346.546875 231.113281 C 347.289062 230.84375 349.890625 235.601562 355.71875 248.679688 C 358.613281 255.1875 362.335938 263.824219 366.261719 275.289062 C 367.539062 279.039062 368.796875 283.164062 369.941406 287.628906 C 370.523438 271.273438 369.222656 259.515625 367.832031 251.484375 C 367.25 248.636719 366.910156 246.210938 366.484375 244.214844 C 365.992188 242.21875 365.65625 240.601562 365.386719 239.347656 C 364.871094 236.8125 364.871094 235.601562 365.253906 235.464844 C 365.65625 235.308594 366.328125 236.226562 367.539062 238.605469 Z M 378.015625 294.023438 C 379.742188 289.964844 381.625 286.082031 383.597656 282.359375 C 384.113281 281.503906 384.652344 280.628906 385.191406 279.824219 C 387.972656 275.851562 390.574219 272.015625 393.199219 268.46875 C 396.046875 265.125 398.738281 261.941406 401.273438 258.933594 C 403.761719 255.859375 406.65625 253.480469 409.097656 250.945312 C 411.632812 248.523438 413.875 246.054688 416.367188 244.171875 C 418.789062 242.21875 421.054688 240.421875 423.160156 238.695312 C 424.214844 237.84375 425.203125 236.992188 426.257812 236.273438 C 427.289062 235.578125 428.320312 234.882812 429.285156 234.230469 C 433.230469 231.695312 436.507812 229.453125 439.355469 227.835938 C 442.292969 226.355469 444.691406 225.1875 446.578125 224.335938 C 450.34375 222.652344 452.027344 222.113281 452.230469 222.496094 C 452.363281 222.855469 451.039062 224.042969 447.652344 226.3125 C 445.972656 227.453125 443.816406 228.890625 441.082031 230.574219 C 438.433594 232.414062 435.386719 234.835938 431.707031 237.527344 C 430.765625 238.226562 429.824219 238.921875 428.859375 239.636719 C 427.894531 240.445312 426.929688 241.296875 425.941406 242.171875 C 423.96875 243.902344 421.816406 245.808594 419.550781 247.804688 C 417.171875 249.691406 415.066406 252.136719 412.6875 254.558594 C 410.378906 257.050781 407.617188 259.449219 405.265625 262.480469 C 402.84375 265.441406 400.261719 268.558594 397.570312 271.8125 C 395.148438 275.359375 392.613281 279.015625 389.921875 282.898438 C 387.480469 286.578125 385.4375 290.773438 383.015625 294.96875 C 383.441406 294.542969 383.890625 294.160156 384.316406 293.734375 C 383.285156 295.304688 382.207031 296.851562 381.199219 298.46875 C 377.429688 304.59375 374.246094 311.03125 371.398438 317.628906 C 371.242188 316.753906 371.082031 315.855469 370.925781 314.960938 C 371.261719 313.65625 371.644531 312.355469 372.027344 311.078125 L 372.292969 311.167969 C 373.394531 308.003906 374.289062 304.796875 375.074219 301.5625 C 375.996094 299.027344 376.960938 296.515625 378.015625 294.023438 Z M 497.710938 166.382812 C 497.355469 166.292969 496.996094 166.179688 496.660156 166.089844 C 496.996094 166.179688 497.355469 166.226562 497.691406 166.292969 C 497.691406 166.3125 497.691406 166.335938 497.710938 166.382812 Z M 520.882812 213.8125 C 521.195312 213.589844 522.519531 214.664062 525.121094 217.492188 C 526.464844 218.929688 528.148438 220.8125 529.851562 223.417969 C 530.726562 224.71875 531.691406 226.152344 532.769531 227.679688 C 533.753906 229.273438 534.695312 231.113281 535.796875 233.042969 C 540.078125 240.804688 544.585938 251.574219 548.511719 265.820312 C 549.476562 269.390625 550.53125 273.160156 551.40625 277.175781 C 551.742188 278.476562 552.011719 279.980469 552.324219 281.4375 C 551.855469 294.5625 552.125 306.386719 553.265625 316.597656 L 553.3125 317.046875 C 553.738281 320.859375 553.871094 323.261719 553.894531 324.765625 C 553.085938 323.105469 551.988281 320.410156 550.574219 316.730469 L 550.285156 315.921875 C 549.699219 314.421875 549.050781 312.871094 548.378906 311.324219 C 547.347656 307.152344 546.046875 303.046875 544.765625 299.433594 C 541.804688 291.308594 538.53125 284.804688 535.953125 278.09375 C 530.773438 264.679688 527.429688 254.175781 523.886719 246.59375 C 520.433594 239.03125 517.40625 234.140625 515.320312 231.113281 C 513.210938 228.082031 512.449219 226.601562 512.738281 226.3125 C 513.007812 226.042969 514.308594 226.917969 517.089844 229.5625 C 519.738281 232.300781 523.503906 236.992188 527.542969 244.640625 C 531.691406 252.246094 535.527344 262.679688 540.863281 275.738281 C 542.949219 280.808594 545.441406 286.039062 547.953125 292.050781 C 547.90625 291.578125 547.90625 291.085938 547.863281 290.660156 C 547.683594 286.238281 546.988281 282.402344 546.023438 278.386719 C 545.171875 274.4375 544.25 270.734375 543.375 267.214844 C 539.789062 253.144531 535.796875 242.601562 532.164062 234.882812 C 531.175781 232.953125 530.414062 231.113281 529.582031 229.542969 C 528.664062 227.925781 527.855469 226.488281 527.117188 225.1875 C 525.726562 222.472656 524.355469 220.453125 523.304688 218.882812 C 521.308594 215.652344 520.589844 214.082031 520.882812 213.8125 Z M 387.210938 338.089844 C 387.164062 338.046875 387.140625 338.023438 387.121094 338 C 387.746094 338.070312 388.375 338.160156 389.027344 338.25 C 388.421875 338.179688 387.792969 338.136719 387.210938 338.089844 Z M 345.828125 201.113281 C 345.71875 201.046875 345.628906 201 345.515625 200.933594 C 345.515625 200.890625 345.515625 200.867188 345.539062 200.824219 C 345.628906 200.914062 345.71875 201.023438 345.828125 201.113281 Z M 150.996094 368.71875 C 156.019531 369.707031 161.089844 370.558594 166.15625 371.457031 C 166.15625 371.859375 166.203125 372.21875 166.335938 372.597656 C 166.292969 372.597656 166.246094 372.597656 166.203125 372.578125 C 166.269531 372.710938 166.359375 372.800781 166.449219 372.9375 C 166.585938 373.207031 166.785156 373.453125 167.011719 373.699219 C 171.96875 381.101562 178.023438 387.339844 183.425781 393.375 C 185.15625 395.304688 186.792969 397.191406 188.453125 399.03125 C 189.976562 400.980469 191.523438 402.910156 192.980469 404.796875 C 195.605469 408.679688 198.09375 412.378906 200.449219 415.859375 C 202.714844 419.335938 204.867188 422.542969 206.886719 425.59375 C 209.175781 428.511719 211.285156 431.273438 213.28125 433.851562 C 217.160156 439.082031 220.816406 443.476562 224 447.269531 C 236.539062 462.617188 240.976562 468.808594 240.371094 469.300781 C 239.765625 469.796875 234.273438 464.660156 220.882812 449.960938 C 217.519531 446.28125 213.660156 442.042969 209.511719 436.859375 C 207.449219 434.277344 205.207031 431.542969 202.828125 428.625 C 200.675781 425.550781 198.410156 422.296875 195.988281 418.796875 C 193.632812 415.410156 191.1875 411.820312 188.5625 408.074219 C 187.152344 406.34375 185.691406 404.527344 184.191406 402.6875 C 182.574219 400.914062 180.914062 399.074219 179.234375 397.191406 C 173.109375 390.460938 165.710938 383.191406 159.902344 373.339844 C 151.152344 395.304688 167.773438 422.050781 173.089844 443.320312 C 175.085938 451.308594 186.140625 516.554688 193.519531 515.703125 C 213.660156 513.347656 233.914062 510.632812 254.121094 508.253906 C 247.28125 505.023438 241.449219 500.871094 236.378906 496.855469 C 228.800781 490.863281 222.542969 484.941406 217.003906 479.578125 C 211.621094 474.304688 206.328125 469.300781 202.828125 464.074219 C 199.21875 458.960938 196.636719 454.203125 194.640625 450.050781 C 190.605469 441.660156 188.382812 435.78125 186.882812 432.058594 C 185.378906 428.332031 184.90625 426.558594 185.289062 426.402344 C 185.648438 426.203125 186.769531 427.59375 188.878906 431.046875 C 190.984375 434.503906 193.878906 440.203125 198.253906 448.121094 C 200.449219 452.070312 203.140625 456.535156 206.664062 461.226562 C 210.117188 466.003906 215.007812 470.335938 220.703125 475.71875 C 226.265625 480.949219 232.523438 486.691406 239.835938 492.414062 C 247.101562 498.066406 255.734375 503.789062 266.03125 506.546875 L 265.964844 506.90625 C 268.003906 506.660156 270.023438 506.4375 272.109375 506.210938 C 297.003906 503.585938 320.105469 504.257812 347.019531 504.257812 C 347.199219 504.257812 347.398438 504.28125 347.535156 504.328125 C 348.96875 501.632812 349.933594 498.449219 350.203125 494.632812 C 350.269531 493.78125 350.496094 493.109375 350.851562 492.480469 C 351.28125 490.484375 352.78125 488.710938 355.339844 488.53125 C 359.914062 488.21875 364.488281 487.789062 369.066406 487.296875 C 369.761719 485.144531 370.34375 482.945312 370.566406 480.679688 C 367.945312 480.453125 366.304688 478.410156 366.304688 476.101562 C 366.261719 475.945312 366.214844 475.832031 366.214844 475.71875 C 364.308594 454.15625 362.269531 432.507812 359.800781 410.875 C 359.375 412.628906 358.925781 414.332031 358.367188 415.949219 C 357.269531 418.976562 356.148438 421.871094 355.160156 424.585938 C 353.882812 427.253906 352.691406 429.746094 351.570312 432.101562 C 346.773438 441.347656 342.421875 448.167969 339.101562 453.28125 C 332.371094 463.492188 329.480469 467.148438 328.761719 466.765625 C 328.066406 466.386719 329.75 461.921875 335.601562 451.195312 C 338.472656 445.8125 342.398438 438.855469 346.816406 429.746094 C 350.089844 422.769531 353.542969 414.21875 355.363281 404.054688 C 355.453125 403.945312 355.5625 403.832031 355.609375 403.675781 C 356.371094 401.609375 356.707031 399.546875 356.773438 397.371094 C 356.796875 397.191406 356.820312 397.035156 356.820312 396.855469 C 356.820312 396.832031 356.820312 396.832031 356.820312 396.832031 C 356.753906 395.261719 355.71875 393.710938 353.722656 393.621094 C 319.859375 392.320312 284.871094 383.414062 251.453125 378.1875 C 227.8125 374.484375 203.949219 371.277344 180.265625 367.394531 C 183.359375 354.671875 184.839844 341.34375 185.3125 327.816406 C 187.464844 326.265625 190.558594 323.574219 195.203125 319.492188 C 200.023438 315.226562 205.496094 310.40625 211.058594 306.097656 C 216.015625 302.257812 221.375 298.804688 226.894531 295.507812 C 231.738281 293.328125 236.628906 291.46875 241.515625 290.078125 C 258.785156 285.164062 277.917969 278.632812 295.972656 279.441406 C 313.578125 280.25 331.835938 289.359375 347.289062 297.234375 C 353.1875 300.308594 358.949219 303.539062 363.773438 307.757812 C 364.960938 312.46875 365.769531 317.359375 366.394531 322.207031 C 366.238281 323.015625 366.058594 323.800781 365.902344 324.585938 C 360.09375 323.933594 354.261719 323.328125 348.453125 322.8125 C 341.546875 322.207031 341.589844 333 348.453125 333.582031 C 353.523438 334.03125 358.570312 334.546875 363.636719 335.085938 C 363.613281 335.332031 363.683594 335.578125 363.703125 335.824219 C 363.59375 335.804688 363.480469 335.804688 363.367188 335.78125 C 363.414062 336.992188 363.503906 338.136719 363.59375 339.324219 C 366.105469 347.46875 370.097656 353.910156 373.976562 358.777344 C 378.640625 364.589844 382.859375 368.742188 386.15625 371.769531 C 389.476562 374.84375 391.851562 376.886719 393.308594 378.320312 C 394.769531 379.734375 395.261719 380.566406 395.035156 380.878906 C 394.8125 381.238281 393.894531 381.035156 392.03125 380.160156 C 390.148438 379.308594 387.34375 377.691406 383.554688 374.933594 C 379.785156 372.152344 375.054688 368.15625 369.871094 362.121094 C 369.445312 361.628906 368.976562 361.089844 368.570312 360.550781 C 368.839844 361.246094 369.066406 361.898438 369.335938 362.546875 C 372.988281 371.5 377.519531 378.925781 381.78125 385.835938 C 389.96875 399.882812 395.820312 410.742188 401.496094 418.28125 C 407.035156 425.910156 411.835938 430.195312 415.066406 432.753906 C 418.292969 435.289062 419.910156 436.207031 419.707031 436.632812 C 419.59375 436.925781 417.644531 436.703125 413.832031 434.636719 C 410.019531 432.550781 404.410156 428.398438 398.265625 420.792969 C 391.964844 413.300781 385.503906 402.214844 377.25 388.621094 C 372.945312 381.933594 367.988281 374.082031 364.109375 364.703125 C 363.75 363.894531 363.457031 363.042969 363.097656 362.210938 C 368.480469 398.335938 372.136719 434.773438 375.414062 471.140625 C 395.464844 468.070312 415.78125 468 435.8125 464.726562 C 444.894531 463.246094 454 461.695312 463.0625 460.125 C 465.347656 468.292969 468.691406 476.035156 473.0625 483.257812 C 472.773438 483.28125 472.480469 483.28125 472.210938 483.304688 C 473.9375 485.613281 475.824219 487.679688 477.820312 489.519531 C 504.980469 490.058594 513.480469 491.449219 513.480469 493.019531 C 513.433594 494.410156 506.640625 495.488281 485.578125 495.375 C 498.140625 503.046875 513.859375 505.472656 529.492188 506.277344 C 528.574219 499.144531 527.921875 491.941406 527.722656 484.761719 C 512.828125 482.046875 497.757812 482.472656 482.707031 482.964844 C 482.574219 482.609375 482.507812 482.226562 482.261719 481.84375 C 477.484375 474.597656 474.007812 466.902344 471.605469 458.667969 C 479.007812 457.367188 486.410156 456.085938 493.808594 454.808594 C 509.601562 452.046875 523.929688 451.421875 539.609375 455.28125 C 546.671875 457.007812 553.625 457.300781 559.523438 459.992188 C 559.816406 455.929688 559.546875 452.117188 559.210938 448.816406 C 558.449219 442.847656 557.863281 438.203125 557.394531 434.660156 C 556.519531 427.433594 556.96875 424.5625 557.707031 424.472656 C 558.582031 424.363281 559.523438 426.941406 561.386719 433.898438 C 562.328125 437.398438 563.496094 441.972656 564.480469 448.121094 C 565.042969 452.117188 565.625 457.007812 564.996094 462.527344 C 576.347656 448.707031 567.84375 423.777344 565.265625 408.519531 C 563.046875 395.417969 561.746094 382.203125 560.289062 369.007812 C 559.59375 378.457031 557.863281 386.601562 555.554688 393.308594 C 552.4375 402.328125 549.050781 409.015625 546.136719 413.792969 C 543.285156 418.664062 540.953125 421.757812 539.382812 423.664062 C 537.792969 425.59375 536.917969 426.292969 536.558594 426.066406 C 536.265625 425.863281 536.492188 424.742188 537.457031 422.476562 C 538.417969 420.253906 540.214844 416.867188 542.523438 411.863281 C 544.945312 406.949219 547.75 400.375 550.484375 391.691406 C 552.503906 385.140625 553.671875 378.117188 554.589844 371.34375 C 554.972656 368.582031 556.183594 364.027344 555.285156 361.203125 C 560.824219 361.558594 566.363281 361.851562 571.90625 362.03125 C 578.835938 362.257812 578.8125 351.488281 571.90625 351.261719 C 505.292969 349.085938 438.882812 333.335938 372.496094 325.347656 C 372.40625 324.605469 372.273438 323.867188 372.183594 323.105469 C 375.34375 315.09375 379.113281 307.332031 383.664062 299.972656 C 387.03125 294.472656 390.796875 289.222656 394.835938 284.21875 C 401.339844 278.699219 408.15625 273.585938 415.445312 269.253906 C 420.558594 266.203125 427.132812 261.246094 433.5 261.222656 C 442.179688 261.175781 450.570312 263.445312 459.203125 262.792969 C 460.527344 262.097656 462.097656 261.894531 463.757812 262.703125 C 482.6875 271.949219 506.4375 269.480469 522.339844 284.9375 C 528.886719 291.222656 535.480469 297.1875 541.402344 303.605469 C 543.847656 308.160156 545.957031 312.625 547.59375 316.957031 L 547.90625 317.742188 C 551.269531 326.648438 552.773438 329.386719 554.546875 329.386719 C 554.703125 329.386719 554.859375 329.363281 555.015625 329.320312 C 556.992188 328.847656 557.214844 326.265625 556.160156 316.730469 L 556.09375 316.28125 C 555.777344 313.207031 555.53125 309.933594 555.351562 306.589844 C 557.84375 298.648438 559.949219 290.660156 560.019531 282.132812 C 560.175781 267.4375 558.851562 252.675781 554.816406 238.492188 C 547.527344 213.140625 533.261719 194.339844 519.828125 172.460938 C 519.46875 171.339844 518.976562 170.351562 518.257812 169.476562 C 522.742188 170.015625 527.226562 170.441406 531.714844 170.691406 C 536.335938 170.9375 536.3125 163.757812 531.714844 163.507812 C 506.75 162.164062 482.214844 156.128906 457.699219 149.824219 C 457.699219 149.597656 457.699219 149.375 457.632812 149.148438 L 458.464844 149.308594 L 458.441406 145.785156 C 458.304688 132.589844 458.753906 119.175781 459.226562 106.183594 C 459.539062 97.140625 459.855469 88.097656 459.964844 79.078125 L 460.011719 76.34375 L 457.273438 76.164062 C 455.90625 76.074219 454.515625 76.117188 453.148438 76.253906 L 451.085938 76.433594 L 450.613281 78.472656 C 447.988281 90.007812 447.429688 101.832031 446.914062 113.273438 C 446.441406 123.304688 445.972656 133.691406 444.066406 143.652344 L 443.570312 146.210938 C 422.824219 140.9375 402.058594 136.070312 380.996094 134.320312 C 376.398438 133.9375 376.421875 141.117188 380.996094 141.5 C 384.652344 141.8125 388.308594 142.21875 391.941406 142.710938 C 391.492188 143.808594 391.492188 145.132812 392.121094 146.234375 C 392.054688 191.0625 387.996094 235.667969 381.625 279.957031 C 380.078125 282.785156 378.6875 285.835938 377.296875 288.886719 C 377.789062 284.691406 378.125 280.472656 378.125 276.234375 C 378.125 268.425781 377.207031 260.683594 375.523438 253.101562 C 375.90625 249.847656 376.355469 246.617188 376.714844 243.363281 C 376.375 243.027344 376.109375 242.601562 375.816406 242.039062 C 372.789062 234.992188 369.335938 227.453125 365.074219 220.542969 C 362.761719 211.34375 358.007812 203.15625 351.347656 196.492188 C 351.863281 194.742188 351.257812 192.746094 348.925781 192.363281 C 294.109375 183.140625 239.632812 171.902344 184.816406 162.679688 C 180.308594 161.917969 178.359375 168.851562 182.910156 169.613281 C 186.835938 170.261719 190.761719 171.003906 194.6875 171.675781 C 195.742188 198.78125 204.308594 224.402344 202.355469 251.957031 C 201.078125 270.308594 198.007812 288.753906 194.101562 306.902344 C 191.234375 313.007812 188.226562 316.820312 185.492188 320.1875 C 185.738281 299.859375 184.414062 279.308594 184.121094 259.964844 C 184.035156 254.425781 175.421875 254.402344 175.511719 259.964844 C 176.027344 294.113281 180.109375 332.4375 171.765625 365.9375 C 165.417969 364.835938 159.046875 363.738281 152.699219 362.480469 C 148.640625 361.695312 146.890625 367.910156 150.996094 368.71875 " fill-opacity="1" fill-rule="nonzero"/><path fill="#000000" d="M 148.933594 410.585938 C 148.867188 410.539062 148.820312 410.519531 148.753906 410.472656 C 148.777344 410.472656 148.796875 410.449219 148.820312 410.429688 C 148.867188 410.472656 148.886719 410.539062 148.933594 410.585938 Z M 123.277344 377.828125 C 120.226562 391.175781 114.574219 404.234375 112.375 417.789062 C 110.066406 431.945312 112.398438 448.121094 108.765625 462.078125 C 127.425781 465.105469 145.882812 464.34375 164.476562 466.003906 C 162.859375 464.230469 161.292969 462.570312 159.855469 460.957031 C 157.050781 457.566406 154.519531 454.539062 152.253906 451.78125 C 147.722656 446.304688 144.378906 441.882812 141.6875 438.699219 C 136.214844 432.347656 134.46875 429.542969 135.003906 428.9375 C 135.542969 428.355469 138.300781 430.128906 144.695312 435.9375 C 147.835938 438.8125 151.511719 443.050781 156.335938 448.324219 C 158.667969 450.992188 161.246094 453.957031 164.117188 457.230469 C 165.285156 458.464844 166.5625 459.8125 167.773438 461.15625 C 164.679688 448.4375 161.179688 435.894531 156.761719 423.710938 C 150.527344 420.054688 144.492188 417.628906 139.714844 415.027344 C 134.511719 412.289062 130.585938 409.375 128.074219 406.75 C 125.519531 404.101562 124.238281 401.835938 123.703125 400.332031 C 123.117188 398.804688 123.117188 398.066406 123.476562 397.886719 C 124.351562 397.371094 125.699219 399.726562 130.8125 403.675781 C 133.390625 405.648438 137 407.914062 142.113281 410.25 C 143.125 410.765625 144.335938 411.28125 145.457031 411.773438 C 147.609375 413.164062 149.832031 414.46875 152.140625 415.632812 C 152.589844 415.859375 152.992188 415.8125 153.351562 415.65625 C 154.449219 415.925781 155.773438 414.804688 154.964844 413.589844 C 153.195312 410.875 151.152344 408.363281 148.910156 406.074219 C 131.6875 383.191406 118.140625 356.828125 102.910156 332.570312 C 100.960938 329.453125 95.980469 332.324219 97.953125 335.464844 C 106.613281 349.242188 114.730469 363.714844 123.277344 377.828125 " fill-opacity="1" fill-rule="nonzero"/></svg>