<svg xmlns="http://www.w3.org/2000/svg" xmlns:xlink="http://www.w3.org/1999/xlink" width="1000" zoomAndPan="magnify" viewBox="0 0 750 749.999995" height="1000" preserveAspectRatio="xMidYMid meet" version="1.0"><defs><clipPath id="id1"><path d="M 25.328125 76 L 724 76 L 724 607.5 L 25.328125 607.5 Z M 25.328125 76 " clip-rule="nonzero"/></clipPath></defs><g clip-path="url(#id1)"><path fill="#000000" d="M 593.136719 393.027344 C 590.925781 392.320312 590.871094 393.238281 588.492188 392.363281 C 588.890625 394.847656 589.527344 397.082031 592.472656 397.015625 C 591.992188 394.980469 593.617188 395.058594 593.136719 393.027344 Z M 320.667969 541.300781 C 307.53125 531.023438 291.246094 524.371094 280.613281 510.5625 C 270.503906 497.429688 264.117188 479.132812 256.726562 464.082031 C 254.085938 458.707031 251.660156 452.316406 248.101562 448.808594 C 247.203125 447.925781 244.734375 447.152344 243.457031 446.148438 C 239.039062 442.691406 235.367188 440.21875 230.847656 436.851562 C 222.746094 435.984375 214.5625 430.183594 204.96875 428.886719 C 198.003906 427.945312 188.472656 429.378906 183.738281 434.863281 C 188.992188 437.1875 192.472656 434.3125 198.332031 434.863281 C 207.792969 435.75 215.589844 441.019531 221.558594 444.824219 C 232.34375 451.695312 240.496094 460.703125 246.109375 471.386719 C 249.179688 477.230469 251.886719 485.84375 255.398438 490.640625 C 262.082031 499.773438 266.824219 516.535156 275.304688 518.53125 C 275.269531 519.378906 274.453125 519.449219 274.640625 520.523438 C 277.148438 520.664062 276.566406 523.910156 279.953125 523.179688 C 279.941406 524.054688 278.785156 523.785156 278.621094 524.503906 C 280.878906 524.917969 282.664062 529.234375 284.558594 527.839844 C 285.230469 527.351562 317.390625 557.175781 330.554688 550.925781 C 330.894531 550.765625 321.054688 541.601562 320.667969 541.300781 Z M 271.324219 509.894531 C 272.097656 508.117188 273.058594 511.628906 273.976562 511.890625 C 273.203125 513.664062 272.242188 510.160156 271.324219 509.894531 Z M 595.128906 375.101562 C 590.53125 373.253906 589.160156 377.742188 586.503906 379.75 C 584.648438 376.085938 581.992188 376.292969 577.875 377.09375 C 577 381.222656 579.234375 386.972656 581.855469 389.710938 C 585.972656 388.957031 587.457031 385.574219 589.820312 383.066406 C 589.976562 386.011719 591.273438 387.8125 593.800781 388.382812 C 595.605469 384.078125 597.234375 380.339844 595.128906 375.101562 Z M 585.839844 289.441406 C 598.402344 287.628906 611.25 280.542969 623.660156 280.144531 C 624.339844 277.917969 621.59375 279.113281 620.34375 278.820312 C 621.320312 277.144531 622.683594 275.851562 622.996094 273.507812 C 615.429688 270.027344 606.207031 275.5 601.761719 279.484375 C 601.183594 281.617188 603.484375 280.859375 603.753906 282.140625 C 591.644531 287.417969 559.632812 284.417969 573.894531 267.53125 C 571.542969 266.574219 570.5 267.550781 569.25 268.191406 C 561.082031 272.398438 556.144531 272.308594 557.308594 283.46875 C 562.972656 290.605469 575.21875 290.976562 585.839844 289.441406 Z M 549.347656 536.457031 C 515.339844 538.445312 482.605469 549.15625 452.46875 561.027344 C 426.949219 571.078125 402.585938 582.65625 382.796875 596.882812 C 380.527344 598.515625 375.5625 600.160156 376.160156 604.1875 C 408.933594 582.8125 445.347656 563.753906 488.296875 551.066406 C 522.832031 540.859375 559.191406 539.679688 598.445312 542.4375 C 613.09375 543.460938 630.960938 546.605469 640.910156 545.089844 C 642.851562 544.792969 645.21875 545.171875 646.882812 543.097656 C 616.371094 538.367188 583.21875 534.480469 549.347656 536.457031 Z M 575.886719 363.148438 C 572.226562 364.324219 570.34375 368.160156 569.949219 370.289062 C 570.117188 369.847656 570.277344 373.6875 570.578125 374.4375 C 573.308594 371.675781 573.644531 375.207031 576.550781 375.765625 C 579.636719 374.332031 579.96875 370.839844 579.203125 367.132812 C 576.675781 367.226562 576.257812 365.210938 575.886719 363.148438 Z M 649.539062 281.476562 C 645.640625 279.578125 644.925781 275.824219 640.910156 275.496094 C 637.519531 275.226562 634.375 277.980469 632.285156 278.820312 C 634.355469 279.402344 635.019531 281.390625 635.601562 283.46875 C 647.984375 289.738281 669.847656 287.234375 686.695312 285.457031 C 689.039062 285.210938 691.757812 284.582031 693.992188 284.132812 C 696.210938 283.683594 700.21875 284.335938 700.628906 281.476562 C 684.554688 279.046875 663.75 288.390625 649.539062 281.476562 Z M 624.324219 511.890625 C 626.925781 514.441406 630.898438 516.554688 635.601562 518.53125 C 640.574219 520.617188 648.527344 523.890625 654.183594 519.855469 C 650.195312 519.609375 646.1875 520.304688 642.238281 519.191406 C 626.476562 514.753906 615.054688 493.195312 613.707031 471.386719 C 613.191406 462.992188 612.457031 455.464844 613.042969 446.816406 C 613.742188 436.566406 617.433594 427.175781 618.351562 418.261719 C 610.320312 417.726562 606.714844 424.210938 605.742188 432.203125 C 604.390625 443.339844 599.949219 456.105469 604.351562 466.996094 C 604.273438 464.195312 604.238281 461.28125 604.773438 458.675781 C 604.839844 460.683594 605.273438 462.753906 606.1875 464.550781 C 606.398438 463.847656 606.675781 462.652344 607.023438 461.996094 C 606.882812 463.953125 606.78125 466.203125 606.402344 468.125 C 606.761719 467.84375 607.078125 467.515625 607.335938 467.136719 C 602.292969 479.339844 615.714844 503.429688 624.324219 511.890625 Z M 605.082031 444.824219 C 605.121094 444.777344 605.035156 444.167969 605.082031 444.15625 C 608.265625 443.597656 601.929688 448.429688 605.082031 444.824219 Z M 605.082031 450.136719 C 604.179688 449.929688 604.53125 448.472656 604.417969 447.480469 C 607.125 447.277344 604.769531 448.867188 605.082031 450.136719 Z M 606.40625 458.765625 C 605.378906 460.796875 605.820312 455.886719 605.742188 454.785156 C 606.769531 452.753906 606.328125 457.660156 606.40625 458.765625 Z M 693.332031 252.257812 C 688.089844 251.503906 681.683594 253.871094 677.40625 252.921875 C 675.164062 252.425781 673.28125 249.800781 670.769531 248.273438 C 669.734375 247.644531 668.632812 247.527344 667.453125 246.949219 C 661.1875 243.851562 652.699219 241.632812 640.910156 242.300781 C 638.578125 239.972656 637.957031 236.582031 635.601562 233.664062 C 633.847656 231.492188 630.730469 228.222656 628.300781 227.027344 C 626.0625 225.917969 622.761719 225.984375 619.675781 225.035156 C 616.972656 224.199219 614.703125 222.695312 612.378906 222.378906 C 595.074219 220.007812 573.539062 229.449219 566.597656 240.304688 C 564.648438 243.351562 559.96875 247.945312 561.285156 252.921875 C 567.78125 254.445312 568.214844 247.421875 570.578125 243.625 C 571.851562 241.574219 573.78125 240.632812 575.886719 238.3125 C 577.632812 236.382812 578.496094 233.738281 580.53125 232.339844 C 586.585938 228.175781 601.292969 225.273438 610.386719 227.027344 C 619.648438 228.808594 626.808594 235.292969 630.957031 241.632812 C 630.503906 245.300781 625.949219 245.722656 623.660156 248.273438 C 621.691406 250.46875 619.988281 253.953125 620.34375 256.90625 C 625.703125 256.859375 633.855469 254.230469 637.59375 250.265625 C 638.867188 248.914062 638.425781 245.375 641.574219 245.617188 C 645.128906 245.769531 649.390625 245.367188 652.855469 246.28125 C 655.367188 246.949219 659.976562 249.300781 660.820312 250.265625 C 663.222656 253.023438 662.003906 254.746094 662.808594 258.898438 C 674.863281 253.28125 687.292969 256.949219 697.3125 262.882812 C 704.902344 267.375 713.597656 271.210938 709.921875 280.8125 C 714.882812 281.0625 720.644531 282.226562 723.855469 278.820312 L 723.855469 269.523438 C 714.984375 262.199219 705.410156 253.996094 693.332031 252.257812 Z M 585.839844 352.523438 C 587.289062 348.847656 591.316406 348.765625 591.144531 345.222656 C 590.867188 339.328125 572.71875 337.550781 567.261719 341.902344 C 566.371094 347.878906 568.398438 350.945312 570.578125 353.851562 C 576.425781 355.535156 579.65625 350.273438 585.839844 352.523438 Z M 573.894531 349.871094 C 573.757812 349.808594 574.832031 348.738281 574.554688 348.539062 C 572.984375 347.40625 569.527344 347.460938 569.25 345.882812 C 573.695312 343.96875 581.839844 340.324219 586.503906 344.558594 C 583.902344 345.839844 585.894531 344.933594 585.839844 346.546875 C 585.6875 350.773438 578.246094 351.792969 573.894531 349.871094 Z M 668.777344 517.199219 C 664.390625 512.710938 660.347656 507.710938 657.5 503.257812 C 645.640625 484.699219 635.011719 458.664062 634.941406 430.878906 C 634.90625 417.113281 637.625 399.351562 630.957031 386.390625 C 626.328125 377.390625 618.847656 371.714844 615.699219 364.476562 C 612.363281 364.757812 609.097656 361.492188 605.742188 359.832031 C 604.671875 359.941406 602.324219 362.058594 601.761719 360.492188 L 602.425781 360.492188 C 603.167969 360.351562 603.460938 359.753906 603.753906 359.167969 C 600.734375 352.003906 584.960938 349.84375 581.855469 358.5 C 581.839844 360.734375 584.925781 359.855469 585.839844 361.15625 C 584.621094 363.441406 586.3125 364.535156 587.828125 365.804688 C 591.757812 366.414062 593.332031 364.667969 596.453125 364.476562 C 601.910156 371.917969 615.070312 379.800781 609.0625 392.363281 C 609.324219 387.457031 608.644531 383.488281 607.074219 380.414062 C 606.628906 381.011719 605.078125 378.863281 603.753906 381.078125 C 603.78125 378.476562 602.351562 379.023438 601.761719 378.421875 C 599.738281 378.386719 600.171875 380.8125 597.785156 380.414062 C 595.582031 390.496094 601.996094 399.636719 597.785156 408.304688 C 598.195312 411.253906 601.351562 407.339844 601.761719 410.296875 C 599.574219 410.980469 598.554688 412.839844 599.109375 416.269531 C 596.75 417.898438 596.066406 421.195312 595.792969 424.902344 C 590.957031 433.074219 584.636719 442.03125 578.539062 451.460938 C 572.5 460.8125 566.234375 471.144531 565.929688 483.335938 C 565.664062 494.15625 569.808594 506.253906 575.222656 511.890625 C 569.929688 510.765625 564.34375 509.9375 558.636719 509.234375 C 553.511719 498.351562 550.722656 487.976562 551.996094 473.375 C 554.882812 440.273438 597.589844 433.542969 591.808594 399.007812 C 590.898438 400.308594 587.746094 399.363281 586.503906 400.332031 C 583.484375 439.074219 540.222656 440.585938 540.71875 480.679688 C 543.921875 480.925781 541.460938 491.636719 544.039062 494.625 C 543.804688 491.957031 544.046875 489.765625 546.027344 489.3125 C 545.808594 491.96875 547.210938 492.996094 546.6875 495.953125 C 549.953125 497.34375 548.148438 501.859375 550.671875 503.257812 C 550.117188 502.949219 551.574219 501.140625 551.996094 502.589844 C 550.390625 504.90625 554.433594 505.957031 555.976562 508.570312 C 537.835938 505.433594 514.417969 504.335938 494.269531 505.914062 C 472.070312 507.644531 453.175781 514.636719 435.214844 520.523438 C 428.824219 522.613281 421.371094 523.671875 413.984375 524.503906 C 382.433594 528.066406 356.214844 521.144531 337.011719 509.234375 C 327.828125 503.535156 318.160156 497.859375 312.460938 488.648438 C 307.664062 488.757812 305.523438 481.777344 302.511719 478.023438 C 294.742188 474.726562 293.328125 465.078125 285.257812 462.089844 C 285.375 459.539062 282.964844 459.511719 282.601562 457.441406 C 267.566406 445.3125 250.167969 428.695312 228.855469 417.597656 C 218.761719 412.34375 207.53125 407.023438 196.34375 402.992188 C 178.246094 396.46875 153.554688 388.671875 137.292969 401.660156 C 157.453125 400.4375 176.996094 402.832031 191.699219 408.964844 C 193.15625 407.871094 196.671875 406.894531 197.667969 408.964844 C 196.492188 409.363281 194.917969 407.019531 194.355469 408.964844 C 197.773438 409.421875 199.8125 411.3125 202.980469 410.296875 C 202.847656 411.1875 200.222656 411.53125 202.980469 411.621094 C 204.902344 412.820312 209.023438 415.285156 210.941406 414.277344 C 210.160156 413.957031 209.4375 413.570312 208.953125 412.953125 C 227.824219 418.632812 240.472656 430.546875 256.726562 438.84375 C 257.710938 441.847656 260.148438 443.390625 263.363281 444.15625 C 265.890625 448.710938 269.996094 451.6875 274.640625 454.117188 C 277.429688 459.296875 283.222656 461.46875 285.921875 466.738281 C 290.636719 469.097656 293.402344 473.410156 296.535156 477.359375 C 294.011719 477.929688 293.421875 480.4375 291.890625 482.007812 C 294.972656 494.421875 304.824219 500.054688 312.460938 507.902344 C 312.460938 507.921875 312.460938 507.9375 312.460938 507.957031 C 312.910156 508.207031 313.304688 508.519531 313.632812 508.882812 C 313.667969 508.734375 313.714844 508.621094 313.789062 508.570312 C 328.917969 518.945312 347.054688 527.714844 369.527344 529.816406 C 406.507812 533.28125 444.351562 522.523438 475.027344 515.207031 C 476.4375 513.996094 477.679688 513.648438 477.683594 512.550781 C 500.050781 509.554688 531.207031 509.863281 553.328125 513.882812 C 511.71875 515.542969 477.15625 523.722656 443.839844 532.476562 C 423.230469 537.890625 403.304688 545.304688 383.460938 550.402344 C 376.257812 552.25 368.992188 552.636719 361.5625 555.050781 C 362.6875 559.78125 368.410156 558.5625 371.515625 558.371094 C 374.300781 558.195312 378.277344 557.273438 381.46875 556.375 C 390.226562 553.925781 397.074219 551.050781 404.695312 548.410156 C 419.25 543.371094 434.722656 538.960938 447.824219 533.800781 C 474.199219 529.394531 495.753906 521.5 526.121094 519.191406 C 547.675781 517.558594 570.550781 517.757812 589.820312 523.84375 C 596.898438 520.550781 602.878906 523.125 611.714844 525.171875 C 621.632812 527.460938 631.792969 530.496094 640.910156 533.140625 C 645.832031 534.5625 651.941406 536.101562 654.847656 537.785156 C 657.117188 539.105469 658.457031 541.695312 660.152344 543.097656 C 663.992188 543.460938 667.425781 544.457031 668.117188 540.441406 C 666.480469 536.75 661.605469 535.820312 658.164062 534.464844 C 644.148438 528.945312 625.378906 523.757812 611.054688 519.855469 C 604.011719 517.9375 597.226562 516.527344 591.144531 515.207031 C 587.421875 514.398438 583.335938 514.421875 580.53125 513.21875 C 572.082031 509.585938 569 497.945312 569.25 487.984375 C 569.714844 469.402344 579.503906 457.445312 587.828125 444.15625 C 597.417969 428.859375 606.75 413.449219 611.054688 395.023438 C 610.867188 396.960938 611.214844 397.304688 612.378906 396.351562 C 614.855469 394.90625 616.835938 388.503906 620.234375 387.546875 C 636.351562 409.949219 630.082031 417.117188 624.988281 422.914062 C 621.121094 427.304688 623.230469 430.355469 622.332031 433.535156 C 618.785156 446.109375 624.71875 455.550781 625.652344 466.738281 C 625.964844 470.53125 622.941406 476.050781 627.640625 478.6875 C 630.433594 479.710938 627.746094 475.253906 629.632812 475.367188 C 631.964844 481.953125 635.414062 489.980469 639.585938 497.941406 C 643.105469 504.664062 647.429688 512.660156 652.191406 517.867188 C 655.542969 521.527344 664.539062 527.726562 668.777344 529.152344 C 671.804688 530.171875 675.226562 531.285156 679.398438 531.144531 C 684.398438 530.980469 690.96875 529.511719 694.65625 526.496094 C 681.9375 529.097656 675.125 523.6875 668.777344 517.199219 Z M 544.699219 489.3125 C 543.515625 488.824219 544.605469 488.105469 544.699219 487.320312 C 545.878906 487.808594 544.796875 488.527344 544.699219 489.3125 Z M 543.371094 482.671875 C 544.441406 482.484375 544.511719 483.300781 545.363281 483.335938 C 545.625 484.625 542.339844 484.308594 543.371094 482.671875 Z M 455.121094 517.867188 C 453.859375 517.292969 455.839844 517.46875 455.785156 516.535156 C 462.867188 516.097656 467.570312 513.28125 475.027344 513.21875 C 469.4375 515.8125 461.246094 515.800781 455.121094 517.867188 Z M 600.433594 406.972656 C 599.847656 407.265625 599.25 407.558594 599.109375 408.304688 C 598.707031 408.703125 598.433594 403.707031 600.433594 404.320312 C 599.003906 407.078125 601.769531 406.769531 601.097656 403.65625 C 603.058594 403.960938 600.296875 410.523438 600.433594 406.972656 Z M 142.597656 462.75 C 142.648438 464.820312 140.925781 470.289062 143.261719 472.710938 C 148.207031 473.734375 152.71875 470.210938 151.886719 463.414062 C 149.652344 460.851562 145.253906 460.234375 142.597656 462.75 Z M 144.585938 470.054688 C 144.453125 466.605469 144.597656 463.421875 148.570312 464.082031 C 149.882812 466.914062 148.628906 470.621094 144.585938 470.054688 Z M 84.871094 430.214844 C 86.160156 433.453125 89.253906 434.179688 88.851562 437.519531 C 87.300781 439.132812 84.230469 440.25 81.550781 438.84375 C 81.519531 435.957031 82.550781 435.792969 80.890625 434.199219 C 78.714844 434.679688 78.300781 436.917969 78.238281 439.511719 C 81.871094 443.046875 88.074219 443.359375 91.507812 439.511719 C 91.777344 433.929688 89.257812 431.136719 84.871094 430.214844 Z M 98.140625 393.027344 C 94.152344 385.949219 84.800781 392.804688 80.890625 395.6875 C 81.648438 393.597656 79.84375 394.070312 79.5625 393.027344 C 68.667969 392.753906 63.152344 397.855469 58.328125 403.65625 C 59.417969 405.003906 61.292969 405.558594 60.984375 408.304688 C 68.617188 411.371094 71.355469 405.917969 76.90625 405.648438 C 81.175781 405.441406 83.785156 404.375 86.195312 401.660156 C 85.976562 400.789062 85.691406 399.484375 84.871094 397.675781 C 86.398438 397.878906 85.609375 395.757812 86.863281 395.6875 C 89.066406 397 92.945312 397.511719 94.824219 395.6875 C 95.539062 393.988281 91.96875 393.363281 94.160156 392.363281 C 97.253906 391.785156 93.246094 394.085938 95.488281 394.359375 C 95.589844 393.128906 97.734375 393.949219 98.140625 393.027344 Z M 96.152344 410.296875 C 97.65625 410.226562 101.144531 411.652344 103.449219 410.296875 C 103.445312 404.984375 100.667969 402.453125 98.140625 399.667969 C 96.21875 403.09375 98.820312 406.550781 96.152344 410.296875 Z M 58.328125 418.925781 C 58.230469 417.699219 56.082031 418.519531 55.675781 417.597656 C 52.664062 422.398438 56.070312 429.847656 60.320312 431.542969 C 61.230469 430.027344 58.609375 429.046875 60.320312 428.886719 C 61.222656 430.859375 64.90625 430.054688 67.617188 430.214844 C 69.046875 428.539062 70.113281 426.511719 71.601562 424.902344 C 71.328125 418.085938 63.1875 413.558594 58.328125 418.925781 Z M 59.65625 426.230469 C 59.050781 421.839844 61.53125 419.4375 64.304688 419.589844 C 66.761719 419.726562 66.253906 422.554688 68.949219 422.246094 C 69.050781 427.101562 63.222656 428.933594 59.65625 426.230469 Z M 73.59375 425.566406 C 77.574219 425.414062 73.421875 426.519531 74.253906 428.886719 C 79.191406 430.386719 84.28125 426.617188 87.527344 424.238281 C 86.5625 415.386719 74.851562 419.996094 73.59375 425.566406 Z M 131.316406 408.964844 C 130.855469 405.714844 127.207031 402.730469 124.683594 402.324219 C 116.566406 401.023438 110.675781 410.503906 105.441406 412.285156 C 103.113281 416.523438 105.128906 422.445312 104.113281 426.894531 C 108.453125 431.871094 116.019531 428.140625 119.375 425.566406 C 123.757812 422.207031 132.167969 414.980469 131.316406 408.964844 Z M 112.074219 411.621094 C 115.984375 409.082031 121.65625 406.789062 124.683594 411.621094 C 126.222656 426.773438 108.800781 426.414062 112.074219 411.621094 Z M 156.53125 444.15625 C 156.675781 438.039062 148.398438 440.351562 146.582031 436.191406 C 149.902344 435.308594 152.699219 433.902344 155.207031 432.207031 C 152.84375 432.355469 151.230469 431.761719 150.5625 430.214844 C 151.820312 429.167969 158.191406 430.332031 155.871094 432.871094 C 158.585938 432.933594 161.085938 432.777344 161.175781 430.214844 C 161.050781 428.347656 159.011719 428.398438 158.523438 426.894531 C 162.292969 426.132812 161.480469 425.054688 163.167969 421.582031 C 167.949219 421.890625 168.980469 425.945312 171.128906 428.886719 C 171.707031 426.957031 172.125 428.140625 173.785156 428.222656 C 174.546875 419.695312 166.195312 415.078125 159.851562 419.589844 C 157.054688 412.585938 146.265625 417.675781 143.261719 418.925781 C 143.453125 416.21875 149.246094 415.648438 147.242188 412.953125 C 139.761719 416.976562 132.992188 421.710938 128.664062 428.886719 C 120.882812 427.359375 116.460938 434.777344 112.738281 439.511719 C 116.21875 438.800781 118.667969 438.742188 121.363281 440.175781 C 124.378906 438.089844 131.078125 433.394531 135.296875 436.851562 C 134.992188 438.839844 133.234375 442.039062 135.296875 444.824219 C 144.175781 443.546875 148.871094 445.246094 156.53125 444.15625 Z M 156.53125 425.566406 L 157.859375 425.566406 L 157.859375 426.894531 L 156.53125 426.894531 Z M 144.585938 422.914062 C 147.011719 422.480469 148.125 423.355469 149.234375 424.238281 C 149.140625 426.140625 144.679688 423.664062 144.585938 425.566406 C 142.601562 425.128906 145.222656 424.148438 144.585938 422.914062 Z M 139.941406 435.527344 C 142.394531 436.171875 142.949219 438.714844 143.261719 441.503906 C 141.75 441.023438 139.875 440.910156 138.617188 440.175781 C 138.550781 438.117188 139.429688 437.003906 139.941406 435.527344 Z M 116.054688 444.824219 C 116.046875 446.140625 114.246094 445.671875 114.730469 447.480469 C 119.804688 451.695312 128.210938 452.582031 130.652344 459.433594 C 128.410156 463.78125 119.722656 457.703125 118.714844 463.414062 C 123.777344 465.871094 133.304688 462.96875 134.632812 457.441406 C 130.808594 450.867188 123.710938 447.566406 116.054688 444.824219 Z M 180.417969 432.871094 C 173.867188 434.332031 160.8125 442.269531 169.140625 448.140625 C 174.890625 445.046875 183.125 444.429688 185.730469 438.183594 C 185.210938 438.035156 184.957031 437.625 185.0625 436.851562 C 182.429688 435.226562 178.542969 437.164062 176.441406 438.183594 C 176.847656 435.664062 182.117188 435.390625 180.417969 432.871094 Z M 179.089844 439.511719 C 179.601562 442.085938 174.855469 443.539062 175.109375 440.175781 C 177.140625 440.65625 177.53125 439.496094 179.089844 439.511719 Z M 117.382812 471.386719 C 117.53125 472.640625 116.636719 472.847656 116.71875 474.042969 C 118.902344 475.265625 120.941406 473.675781 123.355469 475.367188 C 122.839844 472.5625 120.257812 471.824219 117.382812 471.386719 Z M 116.054688 476.699219 C 114.023438 475.632812 113.386719 473.167969 110.75 472.710938 C 109.515625 476.964844 115.65625 479.203125 120.703125 479.351562 C 120.335938 475.796875 118.789062 477.375 116.054688 476.699219 Z M 462.417969 458.105469 C 465.441406 458.394531 471.796875 459.855469 475.027344 459.433594 C 475.625 457.484375 475.625 457.390625 475.027344 455.445312 C 470.359375 455.867188 463.425781 454.019531 462.417969 458.105469 Z M 192.363281 481.34375 C 200.894531 495.300781 195.496094 510.84375 190.375 521.847656 C 186.03125 531.171875 179.582031 540.015625 183.738281 549.074219 C 183.425781 547.007812 185.402344 546.703125 186.390625 547.746094 C 190.914062 528.632812 210.308594 516.703125 208.289062 492.632812 C 208.042969 489.710938 206.457031 485.644531 205.632812 482.007812 C 207.898438 483.261719 207.511719 488.175781 210.277344 485.328125 C 214 505.050781 200.777344 521.402344 202.980469 537.785156 C 203.855469 544.316406 207.023438 550.953125 208.953125 555.050781 C 209.804688 556.871094 210.089844 558.753906 210.941406 560.363281 C 213.328125 564.863281 216.941406 567.585938 218.902344 568.992188 C 221 570.5 222.488281 573.839844 224.875 575.632812 C 226.976562 577.214844 230.976562 578.351562 234.164062 580.28125 C 239.011719 583.222656 242.097656 587.300781 248.765625 586.925781 C 255.902344 590.566406 263.003906 592.800781 273.976562 592.898438 C 270.105469 592.398438 265.898438 590.023438 262.699219 590.90625 C 260.835938 588.789062 257.433594 588.453125 254.734375 587.585938 C 251.65625 586.597656 248.691406 585.265625 245.445312 584.929688 C 226.316406 573.003906 209.257812 560.742188 206.960938 535.792969 C 205.386719 518.640625 214.863281 509.832031 216.25 495.289062 C 217.320312 484.039062 212.664062 475.082031 207.625 467.402344 C 217.109375 470.96875 220.894531 480.238281 230.1875 484 C 230.578125 487.375 232.503906 486.203125 233.5 487.984375 C 234.75 490.277344 235.085938 493.484375 236.820312 495.289062 C 238.304688 490.898438 233.894531 490.84375 236.820312 487.984375 C 238.066406 491.828125 237.980469 497 241.464844 498.609375 C 242.816406 504.125 240.042969 510.996094 242.789062 515.875 C 242.507812 516.917969 240.707031 516.441406 241.464844 518.53125 C 241.472656 519.410156 242.625 519.136719 242.789062 519.855469 C 240.882812 520.375 240.996094 523.117188 240.800781 524.503906 C 240.234375 528.507812 240.835938 531.417969 240.800781 536.457031 C 241.394531 537.855469 242.640625 538.601562 243.457031 539.777344 C 242.804688 543.875 245.101562 550.429688 247.433594 553.722656 C 243.421875 540.007812 244.140625 523.847656 244.785156 508.570312 C 245.519531 491.015625 239.785156 479.328125 230.847656 468.0625 C 222.539062 464.425781 215.679688 456.882812 204.308594 460.097656 C 202.890625 461.988281 201.847656 462.273438 201.652344 464.082031 C 197.933594 461.988281 196.234375 465.347656 194.355469 466.070312 C 188.171875 466.242188 186.101562 459.832031 180.417969 457.441406 C 176.058594 455.601562 172.296875 455.820312 166.484375 456.109375 C 165.460938 453.816406 165.320312 450.636719 162.503906 450.136719 C 159.585938 451.863281 157.683594 454.605469 156.53125 458.105469 C 160.335938 459.253906 159.03125 455.296875 161.839844 455.445312 C 161.933594 457.789062 163.738281 458.417969 163.832031 460.757812 C 178.425781 462.53125 184.851562 472.484375 192.363281 481.34375 Z M 234.164062 485.992188 C 235.234375 485.804688 235.308594 486.621094 236.15625 486.65625 C 236.417969 487.945312 233.132812 487.625 234.164062 485.992188 Z M 262.035156 604.1875 C 232.914062 601.367188 205.578125 593.214844 189.710938 575.632812 C 182.289062 567.410156 175.644531 556.574219 174.449219 544.425781 C 171.863281 518.273438 191.261719 508.191406 187.71875 484.664062 C 183.125 481.648438 181.089844 464.820312 169.140625 471.386719 C 166.632812 481.089844 175.941406 486.363281 177.101562 496.617188 C 178.003906 504.578125 175.269531 508.273438 175.109375 515.207031 C 168.175781 521.007812 166.914062 531.691406 167.148438 543.097656 C 169.457031 544.859375 167.113281 545.800781 167.8125 549.074219 C 169.121094 550.929688 169.28125 554.957031 169.800781 555.714844 C 169.839844 555.308594 169.902344 554.925781 170.464844 555.050781 C 170.128906 557.828125 172.710938 560.015625 173.785156 561.691406 C 177.289062 567.152344 180.859375 572.167969 185.0625 578.957031 C 188.515625 580.65625 191.203125 583.640625 194.355469 586.261719 C 200.863281 591.667969 205.714844 593.847656 213.597656 596.882812 C 219.070312 598.988281 223.398438 600.851562 228.855469 602.195312 C 239.207031 604.742188 252.582031 606.296875 265.351562 606.84375 C 269.164062 607.007812 273.484375 607.460938 276.632812 605.515625 C 270.878906 603.21875 268.542969 604.816406 262.035156 604.1875 Z M 276.632812 594.890625 C 280.691406 593.214844 285.222656 596.875 288.578125 594.226562 C 286.171875 593.414062 279.34375 594.003906 274.640625 592.234375 C 273.59375 594.835938 276.363281 593.609375 276.632812 594.890625 Z M 33.78125 404.320312 C 36.941406 392.460938 50.152344 397.050781 56.339844 389.710938 C 55.308594 389.535156 55.878906 388.25 56.339844 387.71875 C 39.726562 387.472656 33.320312 397.4375 25.816406 406.3125 C 27.292969 408.59375 28.8125 410.835938 29.796875 413.617188 C 35.175781 412.132812 39.519531 409.621094 42.40625 405.648438 C 40.09375 406.441406 34.265625 407.308594 33.78125 404.320312 Z M 108.757812 396.351562 C 111.628906 398.449219 115.304688 394.390625 112.074219 392.363281 C 111.582031 394.308594 108.492188 393.652344 108.757812 396.351562 Z M 138.617188 467.402344 C 137.792969 469.320312 138.277344 470.429688 140.609375 470.71875 C 141.734375 469.601562 141.136719 466.820312 138.617188 467.402344 Z M 53.019531 302.058594 C 62.671875 303.015625 74.019531 299.410156 82.21875 298.078125 C 81.359375 300.539062 78.042969 300.539062 78.238281 304.050781 C 84 306.027344 88.515625 302.925781 94.160156 302.722656 C 112.15625 302.089844 131.351562 305.3125 150.5625 303.386719 C 155.609375 302.882812 159.945312 300.164062 165.160156 299.402344 C 176.972656 297.675781 188.726562 300.859375 198.332031 303.386719 C 198.296875 301.148438 203.113281 304.339844 205.632812 302.722656 C 218.238281 319.992188 233.019531 335.082031 246.773438 351.195312 L 246.773438 355.179688 C 249.972656 357.289062 251.9375 360.636719 254.734375 363.148438 C 261.695312 372.5 267.5625 382.882812 271.988281 394.359375 C 280.960938 417.632812 292.609375 438.089844 304.5 458.765625 C 314.125 475.5 323.863281 487.105469 339.003906 496.617188 C 345.898438 500.949219 353.101562 505.210938 360.902344 507.238281 C 360.480469 502.347656 356.117188 501.40625 353.601562 498.609375 C 355.492188 498.289062 355.507812 496.089844 356.257812 494.625 C 350.886719 494.554688 346.410156 492.152344 343.648438 489.976562 C 336.484375 484.34375 330.128906 475.074219 326.398438 469.394531 C 354.609375 487.675781 388.492188 503.707031 425.261719 511.226562 C 413.183594 514.066406 399.605469 513.71875 389.433594 510.5625 C 383.945312 508.859375 378.394531 503.296875 374.171875 507.902344 C 382.710938 513.8125 396.777344 515.269531 409.339844 515.875 C 421.683594 516.464844 432.785156 514.082031 443.839844 512.550781 C 448.746094 511.875 454.519531 513.503906 457.773438 509.894531 C 456.652344 508.367188 453.347656 509.015625 452.46875 507.238281 C 473.804688 496.941406 486.894531 478.390625 500.90625 460.757812 C 502.066406 455.945312 504.417969 452.320312 508.207031 450.136719 C 511.4375 451.089844 520.949219 453.335938 522.804688 450.800781 C 515.257812 448.246094 506.875 446.253906 498.917969 444.15625 C 490.632812 441.980469 482.417969 439.917969 475.027344 436.851562 C 477.507812 433.804688 476.6875 427.453125 479.671875 424.902344 C 494.796875 431.269531 507.09375 437.160156 522.804688 443.496094 C 524.675781 442.355469 522.554688 440.886719 524.789062 440.839844 C 525.429688 442.675781 525.222656 444.960938 525.457031 447.480469 C 525.675781 449.816406 525.507812 453.441406 526.785156 454.117188 C 530.066406 454.15625 532.257812 448.484375 532.757812 444.824219 C 534.011719 435.578125 530.679688 422.402344 530.101562 409.628906 C 529.433594 394.972656 530.667969 381.242188 532.757812 371.117188 C 538.042969 372.453125 544.199219 374.175781 547.351562 369.789062 C 528.1875 362.851562 511.515625 353.417969 486.308594 352.523438 C 488.105469 347.902344 486.523438 339.902344 489.625 336.585938 C 497.714844 336.507812 504.878906 340.734375 510.859375 340.574219 C 512.945312 342.472656 515.320312 344.082031 519.484375 343.890625 C 520.039062 344.9375 522.09375 347.855469 523.46875 345.882812 C 520.46875 342.945312 524.878906 345.660156 528.109375 347.875 C 528.90625 349.019531 529.132812 348.125 532.9375 351.933594 C 538.308594 355.964844 537.636719 356.859375 541.382812 361.15625 C 541.796875 352.125 533.238281 346.882812 528.773438 340.574219 C 525.894531 323.253906 524.453125 303.355469 529.4375 289.441406 C 532.097656 282.023438 538.316406 277.296875 538.726562 270.847656 C 535.789062 270.34375 536.445312 273.441406 534.746094 274.171875 C 526.046875 267.164062 508.480469 269.027344 495.597656 266.203125 C 496.535156 262.269531 496.199219 257.0625 498.25 254.253906 C 504.894531 253.828125 508.457031 258.363281 512.1875 259.5625 C 512.957031 259.808594 515.246094 259.132812 516.167969 259.5625 C 521.988281 262.269531 527.367188 269.753906 534.746094 268.191406 C 534.546875 266.441406 536.128906 266.480469 537.398438 266.203125 C 537.289062 264.144531 534.414062 261.453125 538.0625 262.882812 C 538.566406 260.417969 535.820312 259.101562 534.746094 256.90625 C 533.734375 254.835938 532.605469 251.636719 532.09375 248.9375 C 529.558594 235.53125 534.195312 224.871094 538.726562 217.730469 C 541.054688 214.066406 544.855469 211.003906 544.699219 207.769531 C 541.332031 208.097656 538.042969 212.378906 535.410156 215.738281 C 528.1875 224.957031 523.257812 240.84375 525.457031 253.585938 C 519.503906 249.71875 513.847656 244.796875 506.210938 242.960938 C 486.851562 238.308594 463.71875 248.433594 451.140625 255.578125 C 453.449219 252.574219 455.238281 249.054688 457.113281 245.617188 C 450.746094 245.644531 448.3125 252.503906 445.832031 256.90625 C 439.984375 267.300781 436.160156 278.398438 433.890625 291.4375 C 432.734375 298.078125 432.738281 304.878906 430.570312 311.355469 C 380.949219 295.929688 330.125 306.527344 329.726562 306.613281 C 329.722656 306.644531 329.722656 306.675781 329.714844 306.707031 C 320.621094 309.554688 312.976562 313.863281 306.492188 319.324219 C 299.902344 302.71875 305.074219 282.042969 309.808594 267.53125 C 316.457031 260.464844 321.339844 251.625 329.714844 246.28125 C 329.242188 243.148438 331.074219 242.332031 331.703125 240.304688 L 341.65625 240.304688 C 344.6875 239.480469 343.34375 240.378906 345.636719 239.644531 C 364.910156 238.789062 388.347656 238.605469 407.347656 237.652344 C 408.125 239.386719 405.300781 240.507812 408.011719 240.304688 C 410.648438 239.726562 411.34375 239.726562 413.984375 240.304688 C 416.082031 240.632812 414.230469 237.011719 416.636719 237.652344 C 423.328125 237.730469 425.882812 236.921875 431.234375 237.652344 C 434.003906 240.417969 436.339844 243.609375 439.859375 245.617188 C 445.730469 243.746094 449.738281 240.007812 455.121094 237.652344 C 456.890625 238.742188 459.574219 241.070312 461.09375 238.3125 C 463.941406 234.769531 457.164062 235.1875 455.785156 233.664062 C 457.929688 220.980469 462.753906 210.980469 469.054688 202.457031 C 480.046875 205.6875 492.742188 205.519531 504.226562 207.105469 C 505.191406 207.238281 506.015625 208.363281 506.878906 208.433594 C 513.839844 208.992188 520.957031 208.03125 526.785156 209.761719 C 530.234375 210.785156 532.960938 214.105469 536.738281 213.746094 C 532.335938 206.421875 519.417969 207.609375 509.53125 205.777344 C 512.140625 200.605469 510.71875 194.515625 511.519531 188.511719 C 512.621094 180.308594 516.46875 172.253906 517.496094 165.9375 C 517.785156 164.128906 518.605469 161.855469 516.832031 160.621094 C 518.851562 160.214844 518.128906 157.050781 520.148438 156.640625 C 520.78125 158.566406 521.277344 162.992188 523.46875 161.289062 C 526.503906 162.167969 529.527344 155.5625 528.773438 151.328125 C 528.058594 147.289062 524.078125 146.332031 521.476562 144.023438 C 516.972656 140.027344 515.515625 136.464844 512.851562 136.054688 C 506.503906 135.078125 501.808594 139.800781 496.261719 142.03125 C 489.910156 142.289062 480.761719 141.125 473.039062 140.703125 C 471.253906 142.460938 468.667969 143.414062 467.730469 146.015625 C 471.359375 149.910156 479.347656 149.441406 483.652344 152.65625 C 482.605469 155.367188 479 155.523438 479.007812 159.296875 C 491.628906 162.9375 504.265625 151.910156 516.832031 153.320312 C 515.898438 155.929688 514.792969 158.363281 513.515625 160.621094 C 512.691406 162.773438 515.660156 161.128906 514.839844 163.277344 C 510.46875 177.496094 505.945312 191.566406 500.90625 205.113281 C 490.320312 203.535156 478.160156 203.53125 469.71875 199.800781 C 474.679688 191.8125 480.535156 184.765625 486.308594 178.554688 C 488.355469 176.34375 491.613281 174.105469 491.617188 170.582031 C 477.816406 166.859375 462.453125 169.734375 446.496094 167.925781 C 429.710938 166.03125 413.558594 166.894531 398.058594 168.59375 C 411.980469 155.082031 426.324219 138.449219 443.179688 130.078125 C 442.347656 136.226562 440.476562 143.484375 438.53125 150 C 436.800781 155.824219 431.828125 163.949219 438.53125 166.601562 C 442.972656 154.222656 446.171875 140.601562 448.484375 126.09375 C 449.980469 123.828125 453.453125 123.539062 453.792969 120.121094 C 452.621094 118.074219 450.988281 119.015625 449.816406 118.128906 C 452.34375 105.015625 455.148438 95.257812 453.792969 82.269531 C 450.828125 84.171875 452.347656 79.871094 450.476562 78.949219 C 448.9375 77.339844 443.546875 78.273438 444.503906 77.621094 C 444.910156 77.585938 445.289062 77.519531 445.171875 76.957031 C 438.585938 76.976562 436.414062 74.96875 431.898438 76.957031 C 428.089844 78.632812 426.605469 83.511719 422.609375 84.925781 C 418.382812 86.421875 414.003906 85.261719 408.011719 86.253906 C 401.257812 91.464844 386.003906 89.007812 385.449219 98.871094 C 388.824219 100.585938 391.089844 97.535156 394.738281 97.542969 C 398.347656 99.6875 404.796875 98.988281 409.339844 100.199219 C 407.65625 103.164062 403.867188 104.023438 402.703125 107.503906 C 409.769531 107.160156 420.355469 99.441406 429.90625 98.207031 C 433.035156 97.804688 436.976562 97.667969 439.195312 98.207031 C 442.65625 99.046875 444.019531 103.296875 447.824219 102.855469 C 447.132812 107.914062 446.398438 112.9375 445.171875 117.464844 C 444.066406 118.574219 441.273438 117.992188 439.195312 118.128906 C 389.699219 130.886719 338.191406 139.988281 288.578125 154.648438 C 265.527344 161.457031 241.410156 169.859375 217.578125 177.222656 C 192.449219 184.988281 160.707031 192.945312 140.609375 205.113281 C 135.660156 200.992188 133.296875 194.277344 126.007812 192.496094 C 127.558594 196.875 122.933594 197.84375 122.695312 201.792969 C 122.390625 206.753906 127.257812 208.523438 128.003906 213.746094 C 128.402344 214.890625 131.148438 213.695312 131.316406 215.074219 C 154.191406 243.015625 179.351562 272.097656 200.988281 298.738281 C 188.644531 298.089844 175.402344 292.835938 160.511719 295.421875 C 156.082031 296.1875 152.195312 299.578125 147.242188 300.066406 C 142.394531 300.546875 137.449219 299.078125 131.984375 298.738281 C 118.210938 297.894531 106.597656 298.550781 94.160156 296.746094 C 92.1875 297.238281 89.574219 300.535156 88.1875 299.402344 C 88.132812 295.804688 93.082031 297.21875 92.171875 292.761719 C 88.601562 292.542969 85.105469 295.105469 80.890625 296.082031 C 72.078125 298.128906 55.535156 299.121094 52.359375 291.4375 C 56.617188 285.660156 65.082031 282.253906 73.59375 280.144531 C 91.183594 275.796875 114.21875 275.511719 130.652344 275.496094 C 129.285156 276.808594 131.113281 277.269531 132.644531 277.488281 C 143.957031 277.621094 150.59375 281.5625 159.1875 276.828125 C 154.417969 274.738281 150.207031 272.089844 145.253906 270.1875 C 149.277344 260.785156 163.742188 270.195312 165.160156 267.53125 C 166.101562 265.757812 170.507812 267.914062 169.800781 264.875 C 169.988281 265.476562 172.273438 267.105469 172.457031 265.539062 C 160.441406 255.117188 141.96875 265.308594 133.972656 272.84375 C 101.40625 269.527344 70.902344 275.234375 51.695312 286.785156 C 47.015625 289.601562 40.605469 292.332031 42.40625 298.738281 C 45.8125 299.171875 48.636719 301.625 53.019531 302.058594 Z M 494.269531 151.992188 C 494.152344 149.660156 496.507812 149.808594 496.921875 148.007812 C 497.1875 146.414062 493.902344 148.375 494.9375 146.015625 C 500.917969 143.84375 512.777344 135.914062 514.839844 146.679688 C 508.53125 148.601562 500.558594 152.242188 494.269531 151.992188 Z M 506.210938 197.144531 C 508.207031 199.394531 505.328125 202.421875 506.210938 205.777344 C 501.738281 204.84375 507.148438 200.703125 506.210938 197.144531 Z M 446.496094 87.582031 C 441.25 89.519531 435.386719 89.601562 429.90625 91.566406 C 426.726562 92.707031 424.300781 94.484375 419.953125 92.230469 C 423.660156 91.066406 425.804688 88.347656 427.253906 84.925781 C 432.546875 82.027344 441.4375 81.503906 446.496094 84.925781 C 447.132812 86.164062 444.507812 87.144531 446.496094 87.582031 Z M 465.074219 485.328125 C 463.023438 487.675781 460.808594 490.734375 458.441406 491.304688 C 455.765625 491.949219 449.265625 490.5 444.503906 489.976562 C 417.089844 486.964844 396.300781 480.359375 376.160156 470.71875 C 373.085938 469.25 367.980469 468.546875 367.535156 464.742188 C 377.855469 465.773438 383.394531 462.019531 384.789062 454.117188 C 410.085938 465.101562 437.636719 473.832031 470.382812 477.359375 C 470.042969 479.902344 467.214844 482.875 465.074219 485.328125 Z M 472.375 436.851562 C 471.488281 435.746094 468.613281 436.632812 467.730469 435.527344 C 467.890625 430.371094 469.472656 426.648438 470.382812 422.246094 C 473.019531 422.042969 473.714844 423.78125 476.355469 423.574219 C 475.554688 428.53125 472.410156 431.136719 472.375 436.851562 Z M 519.484375 369.789062 C 523.339844 368.40625 526.554688 370.339844 530.101562 371.117188 C 523.652344 386.621094 523.222656 411.546875 523.46875 431.542969 C 522.859375 433.34375 520.273438 430.964844 520.148438 430.878906 C 516.898438 428.539062 513.355469 425.664062 508.871094 422.914062 C 494.675781 414.203125 467.324219 401.730469 444.503906 408.964844 C 438.515625 410.867188 428.324219 412.960938 425.261719 420.253906 C 413.328125 415.648438 401.957031 409.226562 389.433594 404.320312 C 385.183594 402.65625 379.933594 402.363281 376.160156 400.332031 C 372.554688 398.394531 370.316406 394.339844 366.871094 392.363281 C 361.265625 389.144531 355.335938 388.832031 350.949219 384.398438 C 357.976562 384.332031 364.757812 383.976562 370.855469 385.0625 C 391.292969 388.691406 405.421875 401.84375 421.945312 406.972656 C 422.421875 410.261719 422.855469 413.589844 422.609375 417.597656 C 426.980469 419.578125 426.703125 411.644531 429.90625 410.296875 C 429.304688 396.539062 430.226562 380.011719 431.234375 363.148438 C 431.046875 362.074219 431.863281 362.003906 431.898438 361.15625 C 467.621094 361.699219 497.113281 358.472656 519.484375 369.789062 Z M 467.0625 421.582031 C 466.199219 426.027344 464.859375 429.996094 463.75 434.199219 C 452.960938 431.269531 443.058594 427.457031 433.226562 423.574219 C 442.070312 419.261719 456.730469 419.242188 467.0625 421.582031 Z M 432.5625 358.5 C 430.214844 356.953125 433.515625 355.535156 433.890625 354.519531 C 435.5625 355.390625 432.148438 356.695312 432.5625 358.5 Z M 437.207031 351.863281 C 437.574219 350.84375 438.484375 350.417969 439.195312 349.871094 C 445.484375 345.042969 459.988281 338.917969 469.054688 337.253906 C 472.125 336.6875 475.617188 337.230469 479.007812 336.585938 C 478.613281 341.726562 478.179688 346.820312 477.683594 351.863281 C 461.515625 352.230469 451.214844 350.484375 437.207031 351.863281 Z M 481.664062 351.863281 C 482.582031 346.074219 481.804688 340.015625 483.652344 336.585938 C 484.242188 336.996094 484.84375 337.390625 484.980469 336.585938 C 486.449219 338.085938 484.164062 339.53125 483.652344 341.902344 C 482.980469 345.03125 484.140625 350.148438 481.664062 351.863281 Z M 519.484375 342.566406 C 518.835938 342.101562 517.675781 342.289062 516.832031 341.234375 C 517.589844 340.253906 524.777344 346.339844 519.484375 342.566406 Z M 492.941406 253.585938 C 495.664062 253.28125 493.164062 256.074219 492.941406 257.570312 C 492.480469 260.707031 493.371094 266.621094 490.292969 266.867188 C 490.789062 262.054688 491.921875 257.875 492.941406 253.585938 Z M 489.625 253.585938 C 488.847656 258.121094 487.941406 262.527344 486.972656 266.867188 C 474.9375 266.070312 463.808594 264.375 451.140625 264.210938 C 461.3125 258.011719 473.859375 254.1875 489.625 253.585938 Z M 435.214844 335.261719 C 437.238281 331.972656 441.09375 330.519531 441.851562 325.964844 C 443.390625 325.75 444.402344 326.070312 445.171875 326.628906 C 445.527344 321.710938 441.09375 317 441.851562 312.6875 C 443.980469 300.609375 442.628906 278.328125 447.160156 266.867188 C 456.511719 265.972656 466.863281 267.511719 479.007812 268.191406 C 483.511719 268.449219 487.769531 270.421875 490.953125 268.859375 L 490.953125 274.835938 C 494.796875 275.582031 493.800781 271.488281 494.9375 269.523438 C 509.464844 269.632812 522.019531 270.425781 532.757812 275.496094 C 529.621094 282.6875 523.316406 288.664062 521.476562 297.410156 C 518.914062 309.585938 521.632812 323.925781 524.789062 337.253906 C 498.863281 316.359375 446.515625 323.613281 433.226562 351.863281 C 432.375 347.457031 434.316406 340.121094 435.214844 335.261719 Z M 331.703125 314.011719 C 362.863281 307.875 405.878906 310.03125 428.582031 320.652344 C 398.078125 320.886719 364.953125 318.351562 331.039062 320.652344 C 330.652344 317.824219 331.519531 316.257812 331.703125 314.011719 Z M 316.445312 318.660156 C 320.042969 317.09375 324.433594 315.648438 328.386719 314.671875 C 327.699219 316.421875 327.59375 318.75 327.722656 321.316406 C 321.097656 320.410156 312.640625 322.902344 307.15625 325.300781 C 308.398438 321.46875 312.859375 320.226562 316.445312 318.660156 Z M 305.164062 327.957031 C 311.441406 327.394531 317.289062 326.402344 323.800781 326.074219 C 325.488281 325.621094 331.0625 324.925781 332.023438 325.203125 C 363.503906 323.253906 398.429688 323.71875 429.90625 325.300781 C 430.015625 329.617188 430.761719 333.300781 432.5625 335.925781 C 427.980469 340.9375 427 352.730469 425.261719 363.148438 C 423.410156 374.269531 422.226562 383.195312 423.273438 395.023438 C 402.988281 382.691406 372.710938 363.777344 340.992188 376.433594 C 335.652344 381.824219 328.496094 378.425781 319.097656 375.765625 C 308.894531 372.875 298.757812 370.296875 291.890625 365.140625 C 291.675781 355.566406 290.878906 346.246094 295.210938 339.242188 C 297.988281 334.753906 304.140625 333.214844 305.164062 327.957031 Z M 416.636719 234.996094 C 415.15625 233.679688 417.289062 230.371094 417.300781 228.355469 C 412.75 227.339844 414.117188 232.246094 412.65625 234.332031 C 411.4375 234.800781 414.019531 228.386719 413.984375 225.699219 C 420.078125 227.339844 425.820312 229.34375 428.582031 234.332031 C 424.496094 234.910156 420.25 234.160156 416.636719 234.996094 Z M 484.316406 174.566406 C 468.800781 190.25 455.566406 208.214844 447.824219 231.671875 C 443.570312 228.398438 440.6875 222.90625 435.214844 219.722656 C 423.753906 213.046875 403.390625 209.457031 388.769531 210.425781 C 376.878906 211.214844 363.8125 215.683594 357.582031 223.707031 C 361.277344 225.847656 364.351562 222.59375 368.199219 221.710938 C 382.40625 218.460938 400.828125 221.515625 410.664062 225.035156 C 410.980469 229.335938 409.347656 231.683594 408.671875 234.996094 C 383.058594 234.96875 365.835938 235.113281 346.300781 235.65625 C 346.398438 232.996094 347.441406 232.175781 347.632812 228.355469 C 350.519531 227.328125 350.8125 227.265625 353.601562 225.699219 C 357.761719 213.191406 368.9375 204.578125 377.488281 193.824219 C 383.265625 186.566406 387.789062 178.816406 394.738281 172.574219 C 425.292969 169.792969 456.75 172.828125 484.316406 174.566406 Z M 440.523438 123.4375 C 442.4375 123.832031 438.71875 126.375 437.207031 127.425781 C 432.222656 130.886719 424.578125 134.9375 419.953125 138.710938 C 413.273438 144.164062 406.230469 151.320312 399.382812 157.96875 C 382.660156 174.21875 368.359375 193.011719 352.9375 211.089844 C 349.929688 214.617188 347.671875 219.160156 344.3125 222.378906 C 339.851562 218.738281 335.140625 214.558594 329.050781 211.753906 C 324.667969 209.734375 317.011719 204.644531 310.472656 201.792969 C 308.898438 201.109375 306.613281 201.09375 305.164062 200.464844 C 301.128906 198.714844 296.59375 196.816406 290.566406 195.152344 C 287.785156 194.382812 284.464844 193.0625 281.941406 192.496094 C 268.480469 189.480469 255.113281 189.800781 240.800781 187.183594 C 233.234375 188.96875 223.578125 187.269531 214.257812 187.847656 C 207.097656 188.292969 200.390625 189.941406 194.355469 189.839844 C 271.457031 162.75 353.042969 140.144531 440.523438 123.4375 Z M 279.238281 198.019531 C 300.632812 202.996094 320.804688 212.046875 337.679688 227.027344 C 338.558594 225.398438 340.148438 227.753906 340.328125 226.359375 C 342.222656 226.261719 336.929688 233.472656 339.003906 236.320312 C 332.539062 235.609375 328.730469 237.550781 325.734375 240.304688 C 325.8125 241.773438 328.550781 240.589844 329.714844 240.96875 C 305.738281 258.851562 287.75 291.40625 295.210938 332.605469 C 289.324219 339.992188 284.4375 348.386719 281.941406 359.167969 C 277.007812 357.019531 273.644531 353.300781 268.667969 351.195312 C 256.933594 332.617188 239.851562 319.386719 225.539062 303.386719 C 240.578125 301.308594 260.96875 304.574219 269.996094 301.394531 C 268.992188 298.785156 265.429688 299.019531 262.699219 298.738281 C 250.09375 297.445312 230.902344 297.769531 224.875 303.386719 C 214.105469 293.363281 203.28125 283.386719 193.6875 272.179688 C 196.410156 272.3125 198.265625 268.058594 199.664062 270.847656 C 199.902344 268.722656 198.78125 266.203125 201.652344 264.210938 C 214.710938 264.425781 223.683594 268.722656 230.847656 274.835938 C 231.097656 278.40625 227.417969 278.042969 227.53125 281.476562 C 232.695312 279.78125 239.410156 279.636719 242.128906 275.496094 C 254.285156 274.742188 262.964844 283.484375 273.3125 284.132812 C 276.886719 284.351562 279.722656 282.753906 283.265625 283.46875 C 283.226562 280.011719 278.867188 279.46875 275.96875 278.152344 C 267.667969 274.390625 252.859375 267.585938 241.464844 270.847656 C 239.632812 266.484375 235.167969 264.757812 232.175781 261.554688 C 227.703125 261.078125 224.140625 258.683594 219.566406 258.234375 C 207.617188 257.058594 196.8125 262.546875 189.710938 267.53125 C 181.0625 258.066406 174.324219 246.976562 166.484375 236.988281 C 158.667969 227.023438 149.78125 218.042969 143.261719 207.105469 C 143.332031 207.222656 182.710938 196.988281 186.550781 196.378906 C 202.863281 193.796875 219.257812 192.648438 235.769531 192.949219 C 250.386719 193.214844 265.082031 194.726562 279.238281 198.019531 Z M 132.644531 209.761719 C 130.007812 209.300781 129.371094 206.839844 127.339844 205.777344 C 127.910156 203.699219 128.980469 202.109375 130.652344 201.128906 C 133.757812 201.785156 134.511719 204.792969 136.628906 206.441406 C 136.453125 208.699219 133.636719 208.320312 132.644531 209.761719 Z M 197.007812 288.78125 C 176.09375 263.320312 154.65625 238.34375 134.632812 212.417969 C 136.851562 212.417969 136.898438 210.257812 139.28125 210.425781 C 160.925781 233.65625 177.503906 260.410156 199 283.46875 C 220.328125 306.351562 246.878906 324.113281 265.351562 349.871094 C 262.828125 351.679688 261.085938 350.351562 258.714844 352.523438 C 263.363281 361.15625 272.9375 364.855469 281.277344 369.789062 C 283.058594 374.242188 282.976562 384.066406 287.910156 385.0625 C 291.945312 385.875 294.390625 381.96875 295.210938 376.433594 C 316.328125 382.964844 339.304688 387.640625 356.257812 398.34375 C 358.460938 402.117188 363.390625 403.15625 366.210938 406.3125 C 368.878906 406.765625 369.996094 405.675781 372.179688 405.648438 C 389.457031 411.597656 405.09375 419.191406 422.609375 424.902344 L 422.609375 427.558594 C 424.167969 427.347656 425.101562 426.511719 427.253906 426.894531 C 438.324219 431.53125 450.664062 434.898438 463.085938 438.183594 L 463.085938 442.832031 C 465.765625 443.078125 465.683594 440.558594 467.0625 439.511719 C 476.066406 441.789062 485.558594 443.582031 493.605469 446.816406 C 496.507812 446.699219 492.984375 449.058594 492.28125 449.472656 C 486.707031 458.28125 480.179688 466.136719 473.703125 474.042969 C 439.566406 471.457031 412.386719 461.914062 386.113281 451.460938 C 386.277344 448.089844 388.699219 446.96875 388.105469 442.832031 C 384.648438 441.824219 377.554688 442.882812 376.824219 446.816406 C 373.191406 446.46875 371.738281 443.933594 368.199219 443.496094 C 368.328125 438.5 367.039062 434.917969 367.535156 429.546875 C 372.363281 430.175781 374.636719 428.242188 376.824219 426.230469 C 391.316406 431.871094 404.296875 439.019531 419.953125 443.496094 C 419.304688 445.40625 417.746094 448.769531 419.292969 450.800781 C 422.617188 454.109375 430.125 453.242188 436.542969 453.453125 C 439.890625 451.988281 441.453125 448.878906 446.496094 450.800781 C 445.527344 452.039062 442.855469 451.582031 443.179688 454.117188 C 446.335938 455.515625 453.019531 456.574219 457.113281 456.109375 C 459.449219 455.84375 461.367188 453.808594 463.75 453.453125 C 470.558594 452.445312 477.792969 456.6875 482.992188 453.453125 C 479.929688 451.394531 475.710938 452.484375 471.710938 452.128906 C 467.015625 451.707031 461.714844 450.511719 456.449219 449.472656 C 451.425781 448.480469 445.765625 448.207031 441.851562 446.816406 C 438.855469 445.75 437.542969 442.117188 433.890625 443.496094 C 434.171875 442.453125 435.976562 442.925781 435.214844 440.839844 C 431.449219 439.453125 427.742188 441.871094 423.9375 441.503906 C 420.222656 441.144531 414.203125 437.425781 410.003906 436.191406 C 408.128906 435.640625 405.933594 436.03125 404.695312 435.527344 C 404.1875 435.320312 403.417969 433.84375 402.703125 433.535156 C 391.703125 428.75 377.570312 422.4375 366.210938 417.597656 C 365.714844 415.550781 368.496094 416.789062 367.535156 414.277344 C 365.597656 412.535156 363.714844 414.871094 360.902344 414.277344 C 344.457031 406.570312 329.511719 398.28125 313.789062 389.710938 C 308.703125 386.9375 303.71875 382.34375 297.203125 382.40625 C 300.277344 386.972656 305.765625 388.984375 310.472656 391.703125 C 323.816406 399.410156 338.773438 407.851562 354.265625 414.277344 C 354.109375 417.847656 349.777344 418.695312 350.949219 423.574219 C 351.863281 427.394531 356.789062 428.25 361.5625 428.886719 C 361.976562 432.679688 363.214844 435.644531 362.890625 440.175781 C 345.625 430.308594 327.042969 420.78125 309.808594 409.628906 C 304.417969 406.140625 299.621094 400.613281 293.222656 401 C 297.796875 406.144531 304.007812 409.320312 309.808594 412.953125 C 326.601562 423.457031 344.964844 434.886719 364.21875 444.15625 C 364.292969 448.734375 363.863281 453.8125 364.882812 457.441406 C 366.421875 457.226562 367.425781 457.546875 368.199219 458.105469 C 370.664062 456.238281 369.355469 449.78125 368.863281 446.816406 C 371.386719 447.609375 373.832031 448.484375 375.496094 450.136719 C 373.957031 454.792969 372.425781 459.457031 368.863281 462.089844 C 367.960938 461.882812 368.3125 460.425781 368.199219 459.433594 C 365.261719 458.703125 364.898438 460.554688 362.890625 460.757812 C 358.167969 457.175781 353.058594 452.363281 355.59375 443.496094 C 352.671875 441.699219 348.433594 444.28125 345.636719 444.824219 C 344.566406 447.289062 344.53125 450.792969 343.648438 453.453125 C 333.84375 449.050781 325.398438 442.601562 316.445312 436.851562 C 313.878906 435.207031 310.679688 432.296875 307.15625 433.535156 C 307.1875 436.84375 311.238281 437.539062 313.125 438.84375 C 327.410156 448.757812 344.507812 459.125 361.5625 467.402344 C 362.199219 468.757812 362.917969 470.027344 363.554688 471.386719 C 367.039062 470.417969 366.269531 472.582031 368.863281 470.71875 C 392.550781 483.757812 421.164062 491.863281 455.121094 494.625 C 452.144531 499.527344 442.949219 501.285156 443.179688 507.238281 C 411.203125 507.449219 387.976562 497.707031 366.210938 487.320312 C 358.214844 483.503906 349.851562 479.789062 342.324219 475.367188 C 334.980469 471.058594 328.652344 464.875 320.425781 462.089844 C 306.226562 441.78125 298.839844 415.140625 287.910156 391.039062 C 284.488281 383.484375 280.460938 375.902344 274.640625 370.453125 C 275.617188 380.746094 282.984375 388.808594 287.246094 398.34375 C 291.570312 408.007812 294.8125 418.472656 299.191406 428.222656 C 307.84375 447.484375 318.460938 465.46875 329.714844 481.34375 C 316.277344 473.019531 308.375 458.160156 299.855469 443.496094 C 291.878906 429.765625 285.554688 417.464844 279.285156 401.660156 C 273.269531 386.484375 266.851562 371.15625 256.0625 359.167969 C 258.636719 358.597656 260.980469 363.972656 265.351562 363.8125 C 266.960938 363.625 263.929688 359.164062 264.023438 360.492188 C 236.890625 341.5 217.714844 313.980469 197.007812 288.78125 Z M 361.5625 424.902344 C 360.964844 422.300781 360.753906 420.761719 362.226562 418.925781 C 364.714844 420.203125 367.265625 421.40625 370.191406 422.246094 L 370.191406 426.230469 L 366.871094 426.230469 L 366.871094 423.574219 C 363.933594 422.851562 363.574219 424.699219 361.5625 424.902344 " fill-opacity="1" fill-rule="nonzero"/></g></svg>