<svg xmlns="http://www.w3.org/2000/svg" xmlns:xlink="http://www.w3.org/1999/xlink" width="1000" zoomAndPan="magnify" viewBox="0 0 750 749.999995" height="1000" preserveAspectRatio="xMidYMid meet" version="1.0"><defs><clipPath id="id1"><path d="M 39.214844 628 L 675.214844 628 L 675.214844 671 L 39.214844 671 Z M 39.214844 628 " clip-rule="nonzero"/></clipPath></defs><path fill="#000000" d="M 618.222656 278.066406 C 620.808594 278.070312 623.269531 277.519531 625.609375 276.414062 L 625.886719 276.28125 C 627.238281 275.617188 628.484375 274.792969 629.625 273.804688 C 630.761719 272.8125 631.753906 271.695312 632.601562 270.449219 C 633.449219 269.203125 634.121094 267.867188 634.621094 266.445312 C 635.121094 265.023438 635.429688 263.558594 635.546875 262.054688 C 635.6875 260.519531 635.628906 258.988281 635.371094 257.464844 C 635.117188 255.941406 634.667969 254.480469 634.027344 253.074219 C 633.386719 251.667969 632.578125 250.367188 631.601562 249.171875 C 630.621094 247.976562 629.507812 246.925781 628.253906 246.023438 C 612.5 234.554688 570.136719 205.933594 517.265625 187.898438 L 517.21875 187.898438 L 517.175781 187.878906 C 512.746094 186.433594 508.210938 185.089844 503.605469 183.832031 C 509.558594 132.832031 489.25 97.632812 470.839844 76.910156 C 467.6875 73.34375 464.226562 70.109375 460.449219 67.210938 C 456.675781 64.308594 452.660156 61.796875 448.402344 59.667969 C 444.144531 57.542969 439.722656 55.839844 435.136719 54.566406 C 430.550781 53.289062 425.886719 52.460938 421.144531 52.082031 C 393.449219 49.839844 359.703125 50.253906 357.214844 50.292969 C 354.726562 50.25 320.980469 49.839844 293.289062 52.082031 C 288.542969 52.460938 283.878906 53.285156 279.292969 54.5625 C 274.707031 55.835938 270.285156 57.539062 266.027344 59.664062 C 261.765625 61.789062 257.75 64.300781 253.976562 67.203125 C 250.203125 70.101562 246.738281 73.332031 243.585938 76.898438 C 225.21875 97.582031 204.875 132.792969 210.824219 183.820312 C 206.222656 185.078125 201.6875 186.425781 197.257812 187.867188 C 197.242188 187.875 197.226562 187.882812 197.210938 187.886719 L 197.167969 187.886719 C 144.292969 205.921875 101.929688 234.546875 86.171875 246.011719 C 84.921875 246.917969 83.804688 247.96875 82.828125 249.164062 C 81.851562 250.359375 81.042969 251.65625 80.402344 253.0625 C 79.761719 254.46875 79.316406 255.933594 79.058594 257.457031 C 78.800781 258.980469 78.742188 260.507812 78.882812 262.046875 C 79 263.546875 79.304688 265.007812 79.804688 266.425781 C 80.300781 267.847656 80.972656 269.179688 81.816406 270.425781 C 82.660156 271.671875 83.648438 272.785156 84.78125 273.773438 C 85.917969 274.761719 87.160156 275.589844 88.507812 276.253906 L 88.871094 276.429688 C 91.191406 277.523438 93.632812 278.066406 96.195312 278.0625 C 98.03125 278.058594 99.820312 277.777344 101.570312 277.222656 C 103.316406 276.667969 104.941406 275.863281 106.441406 274.808594 C 119.71875 266.011719 133.738281 258.621094 148.496094 252.628906 C 146.546875 256.417969 144.632812 260.351562 142.78125 264.445312 C 123.019531 308.152344 106.847656 378.265625 141.984375 464.050781 C 142.003906 464.101562 142.03125 464.148438 142.054688 464.199219 C 142.074219 464.246094 142.070312 464.261719 142.085938 464.289062 C 145.363281 471.445312 149.109375 478.351562 153.320312 485 C 153.558594 485.375 153.835938 485.71875 154.144531 486.039062 C 154.453125 486.355469 154.789062 486.644531 155.152344 486.894531 C 155.515625 487.148438 155.902344 487.363281 156.308594 487.542969 C 156.714844 487.71875 157.136719 487.855469 157.570312 487.953125 C 158.003906 488.046875 158.441406 488.101562 158.882812 488.109375 C 159.328125 488.121094 159.769531 488.085938 160.207031 488.011719 C 160.640625 487.933594 161.066406 487.816406 161.480469 487.65625 C 161.894531 487.496094 162.292969 487.300781 162.667969 487.0625 C 163.042969 486.828125 163.390625 486.554688 163.714844 486.25 C 164.035156 485.945312 164.324219 485.613281 164.582031 485.253906 C 164.839844 484.890625 165.058594 484.507812 165.242188 484.105469 C 165.425781 483.699219 165.566406 483.28125 165.667969 482.847656 C 165.765625 482.417969 165.824219 481.980469 165.839844 481.535156 C 165.855469 481.09375 165.828125 480.652344 165.757812 480.214844 C 165.683594 479.777344 165.570312 479.347656 165.417969 478.933594 C 165.261719 478.519531 165.070312 478.121094 164.835938 477.742188 C 161.699219 472.769531 158.832031 467.640625 156.246094 462.355469 C 167.609375 448.496094 218.722656 392.128906 309.351562 376.492188 L 309.351562 397.652344 C 309.359375 398.09375 309.410156 398.53125 309.503906 398.964844 C 309.597656 399.394531 309.730469 399.816406 309.902344 400.222656 C 310.078125 400.628906 310.289062 401.011719 310.539062 401.378906 C 310.789062 401.742188 311.070312 402.078125 311.386719 402.390625 C 311.703125 402.699219 312.042969 402.976562 312.414062 403.21875 C 312.785156 403.460938 313.171875 403.667969 313.582031 403.835938 C 313.992188 404.003906 314.414062 404.128906 314.847656 404.214844 C 315.28125 404.300781 315.71875 404.34375 316.160156 404.34375 C 316.601562 404.34375 317.039062 404.300781 317.472656 404.214844 C 317.910156 404.128906 318.328125 404.003906 318.738281 403.835938 C 319.148438 403.667969 319.539062 403.460938 319.90625 403.21875 C 320.277344 402.976562 320.617188 402.699219 320.933594 402.390625 C 321.25 402.078125 321.53125 401.742188 321.78125 401.378906 C 322.03125 401.011719 322.242188 400.628906 322.417969 400.222656 C 322.589844 399.816406 322.726562 399.394531 322.816406 398.964844 C 322.910156 398.53125 322.960938 398.09375 322.96875 397.652344 L 322.96875 374.515625 C 345.800781 371.761719 368.628906 371.765625 391.460938 374.53125 L 391.460938 397.660156 C 391.46875 398.105469 391.519531 398.542969 391.609375 398.972656 C 391.703125 399.40625 391.835938 399.824219 392.011719 400.230469 C 392.1875 400.636719 392.398438 401.023438 392.648438 401.386719 C 392.898438 401.753906 393.179688 402.089844 393.496094 402.398438 C 393.808594 402.710938 394.152344 402.984375 394.523438 403.230469 C 394.890625 403.472656 395.28125 403.679688 395.691406 403.84375 C 396.097656 404.011719 396.519531 404.140625 396.953125 404.222656 C 397.386719 404.308594 397.824219 404.351562 398.269531 404.351562 C 398.710938 404.351562 399.148438 404.308594 399.582031 404.222656 C 400.015625 404.140625 400.4375 404.011719 400.847656 403.84375 C 401.257812 403.679688 401.644531 403.472656 402.015625 403.230469 C 402.382812 402.984375 402.726562 402.710938 403.042969 402.398438 C 403.355469 402.089844 403.640625 401.753906 403.886719 401.386719 C 404.136719 401.023438 404.351562 400.636719 404.523438 400.230469 C 404.699219 399.824219 404.832031 399.40625 404.925781 398.972656 C 405.019531 398.542969 405.066406 398.105469 405.074219 397.660156 L 405.074219 376.523438 C 414.433594 378.125 423.675781 380.21875 432.808594 382.8125 C 441.9375 385.40625 450.902344 388.484375 459.703125 392.039062 C 468.503906 395.597656 477.089844 399.617188 485.457031 404.097656 C 493.824219 408.578125 501.925781 413.496094 509.765625 418.847656 C 527.914062 431.117188 544.054688 445.621094 558.1875 462.363281 C 555.59375 467.644531 552.730469 472.777344 549.589844 477.753906 C 549.347656 478.132812 549.140625 478.53125 548.976562 478.949219 C 548.8125 479.367188 548.6875 479.796875 548.609375 480.242188 C 548.527344 480.683594 548.492188 481.128906 548.5 481.582031 C 548.511719 482.03125 548.5625 482.476562 548.660156 482.914062 C 548.757812 483.355469 548.894531 483.78125 549.078125 484.191406 C 549.257812 484.605469 549.480469 484.996094 549.738281 485.363281 C 549.996094 485.730469 550.289062 486.070312 550.617188 486.382812 C 550.941406 486.691406 551.296875 486.964844 551.679688 487.207031 C 552.058594 487.445312 552.460938 487.648438 552.878906 487.808594 C 553.300781 487.96875 553.734375 488.085938 554.179688 488.160156 C 554.621094 488.234375 555.070312 488.265625 555.519531 488.253906 C 555.96875 488.238281 556.414062 488.179688 556.851562 488.078125 C 557.292969 487.976562 557.714844 487.832031 558.125 487.644531 C 558.535156 487.460938 558.921875 487.234375 559.289062 486.972656 C 559.652344 486.707031 559.988281 486.410156 560.296875 486.082031 C 560.601562 485.75 560.875 485.394531 561.109375 485.011719 C 565.320312 478.359375 569.066406 471.457031 572.34375 464.300781 C 572.355469 464.269531 572.359375 464.238281 572.375 464.207031 C 572.386719 464.175781 572.425781 464.113281 572.445312 464.0625 C 607.582031 378.273438 591.40625 308.160156 571.660156 264.457031 C 569.804688 260.359375 567.890625 256.425781 565.941406 252.640625 C 580.699219 258.628906 594.71875 266.023438 607.996094 274.816406 C 609.492188 275.871094 611.113281 276.675781 612.859375 277.230469 C 614.601562 277.785156 616.390625 278.0625 618.222656 278.066406 Z M 357.117188 63.902344 L 357.316406 63.902344 C 357.542969 63.902344 373.082031 63.6875 391.558594 64.203125 C 398.304688 72.214844 403.625 81.078125 407.515625 90.800781 C 407.6875 91.214844 407.894531 91.605469 408.144531 91.976562 C 408.394531 92.347656 408.675781 92.691406 408.992188 93.007812 C 409.308594 93.320312 409.652344 93.601562 410.027344 93.851562 C 410.398438 94.097656 410.789062 94.308594 411.203125 94.476562 C 411.617188 94.648438 412.042969 94.777344 412.480469 94.863281 C 412.917969 94.949219 413.363281 94.992188 413.808594 94.992188 C 414.253906 94.992188 414.699219 94.949219 415.136719 94.859375 C 415.574219 94.773438 416 94.640625 416.414062 94.472656 C 416.824219 94.300781 417.21875 94.089844 417.589844 93.839844 C 417.960938 93.589844 418.304688 93.308594 418.621094 92.992188 C 418.933594 92.675781 419.214844 92.332031 419.464844 91.960938 C 419.710938 91.589844 419.921875 91.195312 420.09375 90.78125 C 420.261719 90.371094 420.390625 89.945312 420.476562 89.507812 C 420.5625 89.066406 420.605469 88.625 420.605469 88.179688 C 420.605469 87.730469 420.5625 87.289062 420.472656 86.851562 C 420.386719 86.414062 420.257812 85.988281 420.085938 85.574219 C 417.097656 78.335938 413.449219 71.453125 409.132812 64.921875 C 412.832031 65.117188 416.5 65.367188 420.042969 65.652344 C 423.917969 65.960938 427.730469 66.636719 431.480469 67.679688 C 435.226562 68.722656 438.839844 70.113281 442.320312 71.847656 C 445.800781 73.585938 449.082031 75.640625 452.167969 78.011719 C 455.253906 80.378906 458.082031 83.019531 460.660156 85.933594 C 476.984375 104.308594 494.964844 135.398438 490.277344 180.453125 C 470.339844 175.933594 450.207031 172.578125 429.878906 170.382812 C 431.105469 160.625 431.605469 150.832031 431.382812 141.003906 C 431.378906 140.550781 431.328125 140.105469 431.234375 139.667969 C 431.136719 139.226562 431 138.800781 430.820312 138.386719 C 430.640625 137.972656 430.421875 137.582031 430.167969 137.210938 C 429.910156 136.839844 429.617188 136.5 429.292969 136.1875 C 428.96875 135.875 428.613281 135.597656 428.234375 135.359375 C 427.855469 135.117188 427.453125 134.914062 427.035156 134.75 C 426.613281 134.589844 426.183594 134.46875 425.738281 134.390625 C 425.292969 134.316406 424.847656 134.28125 424.394531 134.292969 C 423.945312 134.304688 423.5 134.363281 423.0625 134.460938 C 422.621094 134.5625 422.195312 134.707031 421.785156 134.890625 C 421.375 135.074219 420.984375 135.296875 420.617188 135.558594 C 420.253906 135.820312 419.914062 136.117188 419.605469 136.445312 C 419.300781 136.773438 419.027344 137.132812 418.789062 137.515625 C 418.550781 137.898438 418.355469 138.300781 418.195312 138.722656 C 418.039062 139.144531 417.925781 139.578125 417.855469 140.023438 C 417.78125 140.46875 417.757812 140.914062 417.773438 141.363281 C 417.980469 150.609375 417.503906 159.816406 416.335938 168.992188 C 383.835938 165.972656 359.222656 165.90625 357.226562 165.90625 L 357.214844 165.90625 C 355.210938 165.90625 330.585938 165.976562 298.074219 168.996094 C 290.207031 105.476562 315.824219 72.035156 322.855469 64.207031 C 341.328125 63.691406 356.886719 63.902344 357.117188 63.902344 Z M 253.773438 85.933594 C 256.347656 83.019531 259.179688 80.378906 262.261719 78.007812 C 265.347656 75.640625 268.628906 73.585938 272.109375 71.847656 C 275.589844 70.109375 279.203125 68.71875 282.949219 67.675781 C 286.699219 66.632812 290.511719 65.957031 294.390625 65.648438 C 297.910156 65.363281 301.554688 65.125 305.230469 64.921875 C 293.921875 81.863281 277.894531 116.429688 284.519531 170.386719 C 264.199219 172.582031 244.074219 175.9375 224.144531 180.453125 C 219.453125 135.371094 237.476562 104.28125 253.773438 85.933594 Z M 159.113281 233.667969 C 133.21875 243.589844 112.875 253.6875 98.628906 263.679688 C 98.039062 264.109375 97.378906 264.363281 96.648438 264.433594 C 95.921875 264.503906 95.226562 264.382812 94.5625 264.070312 C 93.949219 263.769531 93.453125 263.335938 93.078125 262.769531 C 92.699219 262.199219 92.488281 261.574219 92.449219 260.894531 C 92.375 260.140625 92.496094 259.417969 92.804688 258.730469 C 93.117188 258.039062 93.578125 257.472656 94.1875 257.027344 C 119.554688 238.773438 146.570312 223.414062 175.234375 210.957031 C 169.523438 218.222656 164.21875 225.773438 159.324219 233.609375 C 159.253906 233.632812 159.179688 233.640625 159.113281 233.667969 Z M 209.851562 399.316406 C 207.378906 390.707031 205.386719 381.992188 203.867188 373.167969 C 203.792969 372.722656 203.679688 372.292969 203.523438 371.871094 C 203.367188 371.449219 203.167969 371.046875 202.929688 370.667969 C 202.695312 370.285156 202.421875 369.929688 202.113281 369.601562 C 201.808594 369.273438 201.472656 368.976562 201.105469 368.714844 C 200.738281 368.453125 200.351562 368.230469 199.941406 368.046875 C 199.53125 367.863281 199.109375 367.71875 198.667969 367.621094 C 198.230469 367.519531 197.789062 367.460938 197.339844 367.449219 C 196.890625 367.4375 196.441406 367.46875 196 367.542969 C 195.554688 367.617188 195.125 367.738281 194.703125 367.898438 C 194.285156 368.058594 193.886719 368.261719 193.503906 368.5 C 193.125 368.742188 192.773438 369.015625 192.445312 369.328125 C 192.121094 369.636719 191.828125 369.976562 191.570312 370.34375 C 191.3125 370.710938 191.09375 371.101562 190.914062 371.511719 C 190.730469 371.925781 190.59375 372.347656 190.496094 372.789062 C 190.398438 373.226562 190.347656 373.671875 190.335938 374.121094 C 190.328125 374.570312 190.363281 375.015625 190.445312 375.457031 C 192.292969 386.113281 194.792969 396.617188 197.945312 406.960938 C 197.453125 407.296875 196.949219 407.636719 196.464844 407.96875 C 179.515625 419.539062 164.171875 432.941406 150.425781 448.179688 C 128.027344 386.867188 129.535156 327.164062 154.949219 270.578125 C 160.761719 257.519531 167.695312 245.09375 175.753906 233.292969 C 183.8125 221.488281 192.867188 210.507812 202.917969 200.34375 C 214.570312 196.695312 226.386719 193.683594 238.367188 191.3125 C 234.421875 196.195312 230.683594 201.230469 227.148438 206.417969 C 223.613281 211.601562 220.292969 216.925781 217.191406 222.382812 C 214.09375 227.835938 211.21875 233.410156 208.570312 239.101562 C 205.925781 244.792969 203.511719 250.582031 201.335938 256.46875 C 199.164062 262.355469 197.230469 268.320312 195.539062 274.367188 C 193.851562 280.410156 192.410156 286.511719 191.21875 292.675781 C 190.027344 298.835938 189.085938 305.035156 188.402344 311.273438 C 187.714844 317.511719 187.28125 323.769531 187.105469 330.042969 C 187.09375 330.488281 187.125 330.929688 187.203125 331.371094 C 187.28125 331.8125 187.398438 332.242188 187.558594 332.65625 C 187.71875 333.074219 187.917969 333.472656 188.160156 333.847656 C 188.398438 334.226562 188.671875 334.578125 188.980469 334.902344 C 189.289062 335.222656 189.625 335.515625 189.988281 335.773438 C 190.355469 336.03125 190.742188 336.25 191.152344 336.429688 C 191.558594 336.609375 191.980469 336.75 192.417969 336.847656 C 192.855469 336.945312 193.296875 337 193.742188 337.011719 L 193.914062 337.011719 C 194.355469 337.011719 194.789062 336.96875 195.222656 336.886719 C 195.652344 336.800781 196.074219 336.675781 196.480469 336.507812 C 196.886719 336.34375 197.273438 336.140625 197.640625 335.898438 C 198.011719 335.660156 198.351562 335.382812 198.667969 335.078125 C 198.980469 334.769531 199.261719 334.4375 199.511719 334.074219 C 199.761719 333.714844 199.976562 333.332031 200.152344 332.929688 C 200.328125 332.523438 200.464844 332.109375 200.558594 331.679688 C 200.652344 331.25 200.707031 330.816406 200.71875 330.378906 C 202.730469 249.183594 251.113281 196.496094 260.058594 187.453125 C 292.265625 182.613281 324.652344 179.96875 357.214844 179.519531 C 389.785156 179.960938 422.175781 182.605469 454.382812 187.449219 C 462.59375 196.082031 470.027344 205.339844 476.683594 215.214844 C 483.34375 225.09375 489.132812 235.453125 494.054688 246.300781 C 516.320312 294.683594 519.835938 346.121094 504.578125 399.3125 C 493.515625 392.648438 482.046875 386.773438 470.175781 381.683594 C 458.308594 376.59375 446.144531 372.339844 433.6875 368.917969 C 421.234375 365.5 408.605469 362.945312 395.796875 361.261719 C 382.992188 359.574219 370.132812 358.769531 357.214844 358.851562 C 344.300781 358.769531 331.4375 359.574219 318.632812 361.257812 C 305.828125 362.945312 293.195312 365.5 280.742188 368.917969 C 268.285156 372.339844 256.121094 376.59375 244.25 381.683594 C 232.382812 386.773438 220.914062 392.652344 209.851562 399.316406 Z M 564.003906 448.179688 C 550.261719 432.941406 534.917969 419.539062 517.96875 407.964844 C 517.492188 407.636719 516.988281 407.304688 516.503906 406.984375 C 538.300781 334.832031 523.074219 276.5625 506.171875 240.074219 C 498.097656 222.589844 488.039062 206.332031 476 191.296875 C 488.003906 193.667969 499.84375 196.683594 511.523438 200.339844 C 521.570312 210.503906 530.621094 221.484375 538.679688 233.285156 C 546.738281 245.085938 553.671875 257.515625 559.480469 270.570312 C 584.894531 327.164062 586.40625 386.867188 564.003906 448.179688 Z M 539.199219 210.957031 C 567.863281 223.414062 594.878906 238.773438 620.242188 257.027344 C 620.855469 257.472656 621.316406 258.039062 621.625 258.730469 C 621.9375 259.417969 622.054688 260.140625 621.984375 260.894531 C 621.933594 261.597656 621.710938 262.242188 621.304688 262.820312 C 620.902344 263.402344 620.382812 263.839844 619.738281 264.132812 C 619.089844 264.414062 618.414062 264.511719 617.710938 264.429688 C 617.007812 264.347656 616.371094 264.097656 615.804688 263.675781 C 601.660156 253.761719 581.492188 243.734375 555.855469 233.871094 C 555.625 233.792969 555.390625 233.730469 555.152344 233.675781 C 550.242188 225.816406 544.925781 218.242188 539.199219 210.957031 Z M 539.199219 210.957031 " fill-opacity="1" fill-rule="nonzero"/><path fill="#000000" d="M 373.652344 619.878906 C 374.097656 619.878906 374.539062 619.835938 374.980469 619.75 C 375.417969 619.660156 375.84375 619.53125 376.257812 619.359375 C 376.667969 619.191406 377.0625 618.980469 377.433594 618.730469 C 377.804688 618.484375 378.148438 618.203125 378.464844 617.886719 C 378.78125 617.570312 379.0625 617.226562 379.3125 616.855469 C 379.558594 616.484375 379.769531 616.089844 379.941406 615.675781 C 380.109375 615.265625 380.238281 614.839844 380.328125 614.402344 C 380.414062 613.960938 380.457031 613.519531 380.457031 613.074219 L 380.457031 574.300781 C 408.875 583.179688 456.171875 602.003906 496.035156 637.382812 C 496.660156 637.9375 497.359375 638.359375 498.140625 638.65625 C 498.921875 638.953125 499.726562 639.101562 500.558594 639.097656 C 500.738281 639.097656 500.910156 639.097656 501.089844 639.078125 C 502.011719 639.007812 502.878906 638.757812 503.699219 638.332031 C 504.519531 637.902344 505.222656 637.335938 505.808594 636.621094 C 512.367188 628.664062 518.242188 620.226562 523.425781 611.3125 C 528.609375 602.398438 533.035156 593.121094 536.707031 583.484375 C 548.1875 559.105469 552.082031 541.929688 552.703125 538.960938 C 554.179688 534.757812 555.257812 530.457031 555.9375 526.054688 C 556.246094 524.027344 556.328125 521.988281 556.183594 519.945312 C 556.042969 517.898438 555.679688 515.890625 555.097656 513.925781 C 554.511719 511.960938 553.722656 510.082031 552.726562 508.289062 C 551.726562 506.496094 550.546875 504.832031 549.183594 503.300781 C 492.441406 439.003906 414.441406 415.902344 379.742188 408.464844 C 379.433594 407.214844 379.023438 406 378.511719 404.820312 C 378 403.640625 377.394531 402.511719 376.695312 401.429688 C 375.992188 400.351562 375.210938 399.335938 374.339844 398.386719 C 373.472656 397.4375 372.53125 396.566406 371.519531 395.773438 C 370.503906 394.980469 369.433594 394.277344 368.300781 393.660156 C 367.171875 393.046875 365.996094 392.53125 364.78125 392.109375 C 363.5625 391.691406 362.320312 391.375 361.050781 391.160156 C 359.78125 390.949219 358.503906 390.84375 357.214844 390.84375 C 355.929688 390.84375 354.652344 390.949219 353.382812 391.160156 C 352.113281 391.375 350.871094 391.691406 349.652344 392.109375 C 348.4375 392.53125 347.261719 393.046875 346.132812 393.660156 C 345 394.277344 343.929688 394.980469 342.914062 395.773438 C 341.902344 396.566406 340.960938 397.4375 340.089844 398.386719 C 339.222656 399.335938 338.4375 400.351562 337.738281 401.429688 C 337.039062 402.511719 336.433594 403.640625 335.921875 404.820312 C 335.410156 406 335 407.214844 334.691406 408.464844 C 299.984375 415.90625 221.988281 439.007812 165.25 503.300781 C 163.886719 504.832031 162.703125 506.496094 161.707031 508.289062 C 160.710938 510.082031 159.921875 511.960938 159.335938 513.925781 C 158.753906 515.890625 158.390625 517.898438 158.25 519.945312 C 158.105469 521.988281 158.1875 524.027344 158.496094 526.054688 C 159.175781 530.457031 160.253906 534.757812 161.726562 538.960938 C 162.347656 541.929688 166.25 559.113281 177.722656 583.484375 C 181.394531 593.121094 185.824219 602.394531 191.007812 611.3125 C 196.191406 620.226562 202.0625 628.660156 208.625 636.621094 C 209.210938 637.332031 209.914062 637.902344 210.734375 638.328125 C 211.550781 638.753906 212.421875 639.003906 213.34375 639.078125 C 213.519531 639.089844 213.695312 639.097656 213.871094 639.097656 C 214.707031 639.097656 215.511719 638.949219 216.292969 638.65625 C 217.070312 638.359375 217.773438 637.933594 218.394531 637.378906 C 258.164062 602.097656 305.210938 583.277344 333.976562 574.292969 L 333.976562 613.070312 C 333.96875 613.519531 334.003906 613.96875 334.085938 614.414062 C 334.167969 614.859375 334.292969 615.289062 334.460938 615.710938 C 334.628906 616.128906 334.835938 616.527344 335.082031 616.90625 C 335.328125 617.285156 335.609375 617.636719 335.925781 617.957031 C 336.242188 618.277344 336.589844 618.566406 336.964844 618.820312 C 337.335938 619.074219 337.734375 619.289062 338.148438 619.460938 C 338.566406 619.636719 338.996094 619.769531 339.441406 619.859375 C 339.882812 619.945312 340.332031 619.992188 340.78125 619.992188 C 341.234375 619.992188 341.683594 619.945312 342.125 619.859375 C 342.566406 619.769531 342.996094 619.636719 343.414062 619.460938 C 343.832031 619.289062 344.226562 619.074219 344.601562 618.820312 C 344.976562 618.566406 345.320312 618.277344 345.636719 617.957031 C 345.953125 617.636719 346.234375 617.285156 346.484375 616.90625 C 346.730469 616.527344 346.9375 616.128906 347.105469 615.710938 C 347.273438 615.289062 347.398438 614.859375 347.480469 614.414062 C 347.558594 613.96875 347.597656 613.519531 347.589844 613.070312 L 347.589844 414.089844 C 347.617188 413.476562 347.703125 412.871094 347.847656 412.273438 C 347.992188 411.675781 348.1875 411.097656 348.445312 410.539062 C 348.699219 409.980469 349.003906 409.449219 349.359375 408.949219 C 349.714844 408.449219 350.113281 407.984375 350.558594 407.5625 C 351.003906 407.136719 351.484375 406.757812 352 406.425781 C 352.515625 406.09375 353.058594 405.8125 353.628906 405.585938 C 354.199219 405.355469 354.785156 405.183594 355.390625 405.066406 C 355.992188 404.949219 356.601562 404.890625 357.214844 404.890625 C 357.832031 404.890625 358.4375 404.949219 359.042969 405.066406 C 359.644531 405.183594 360.234375 405.355469 360.804688 405.585938 C 361.375 405.8125 361.917969 406.09375 362.433594 406.425781 C 362.949219 406.757812 363.429688 407.136719 363.875 407.5625 C 364.320312 407.984375 364.71875 408.449219 365.074219 408.949219 C 365.429688 409.449219 365.734375 409.980469 365.988281 410.539062 C 366.242188 411.097656 366.441406 411.675781 366.585938 412.273438 C 366.730469 412.871094 366.816406 413.476562 366.84375 414.089844 L 366.84375 613.074219 C 366.84375 613.519531 366.886719 613.964844 366.972656 614.402344 C 367.0625 614.839844 367.191406 615.265625 367.359375 615.679688 C 367.53125 616.089844 367.742188 616.484375 367.988281 616.855469 C 368.238281 617.226562 368.519531 617.570312 368.835938 617.886719 C 369.152344 618.203125 369.496094 618.484375 369.867188 618.734375 C 370.242188 618.980469 370.632812 619.191406 371.046875 619.363281 C 371.457031 619.53125 371.882812 619.660156 372.324219 619.75 C 372.761719 619.835938 373.203125 619.878906 373.652344 619.878906 Z M 185.964844 568.597656 C 181.832031 559.050781 178.433594 549.25 175.769531 539.191406 C 177.875 536.980469 181.40625 533.410156 186.289062 528.890625 C 188.558594 539.277344 191.691406 549.398438 195.683594 559.25 C 191.757812 562.820312 188.535156 565.972656 185.964844 568.597656 Z M 206.617188 549.808594 C 202.75 539.628906 199.945312 529.167969 198.203125 518.421875 C 204.3125 513.3125 211.476562 507.683594 219.660156 501.855469 C 221.273438 512.871094 223.828125 523.660156 227.328125 534.230469 C 219.496094 539.640625 212.566406 544.917969 206.617188 549.800781 Z M 239.125 526.464844 C 235.820312 515.617188 233.53125 504.5625 232.257812 493.296875 C 235.710938 491.054688 239.273438 488.8125 243 486.582031 C 243.816406 498.25 245.347656 509.824219 247.601562 521.304688 C 244.679688 523.019531 241.855469 524.738281 239.128906 526.457031 Z M 260.148438 514.292969 C 257.992188 502.632812 256.710938 490.875 256.304688 479.019531 C 262.667969 475.589844 269.378906 472.257812 276.378906 469.074219 C 276.28125 481.027344 277.53125 492.839844 280.125 504.507812 C 273.105469 507.667969 266.449219 510.925781 260.152344 514.289062 Z M 292.867188 499.050781 C 290.476562 487.210938 289.570312 475.261719 290.148438 463.195312 C 293.589844 461.824219 297.101562 460.5 300.675781 459.222656 C 300.140625 471.34375 300.652344 483.421875 302.214844 495.453125 C 299.042969 496.621094 295.925781 497.816406 292.867188 499.042969 Z M 315.386719 490.910156 C 313.910156 478.820312 313.675781 466.710938 314.691406 454.578125 C 320.945312 452.679688 327.367188 450.96875 333.964844 449.441406 L 333.964844 485.4375 C 327.582031 487.132812 321.386719 488.953125 315.386719 490.902344 Z M 175.457031 512.304688 C 227.714844 453.097656 299.183594 430.464844 333.96875 422.566406 L 333.96875 435.484375 C 250.039062 453.875 192.796875 503.113281 171.898438 523.644531 C 171.773438 522.628906 171.757812 521.609375 171.851562 520.585938 C 171.945312 519.566406 172.144531 518.566406 172.453125 517.589844 C 172.757812 516.613281 173.167969 515.679688 173.671875 514.789062 C 174.179688 513.898438 174.773438 513.070312 175.457031 512.304688 Z M 214.789062 622.511719 C 205.332031 610.097656 197.699219 596.648438 191.886719 582.164062 C 203.390625 569.808594 251.839844 522.203125 333.976562 499.519531 L 333.976562 560.070312 C 305.777344 568.503906 257.136719 586.957031 214.792969 622.511719 Z M 528.464844 568.59375 C 525.894531 565.972656 522.671875 562.820312 518.742188 559.246094 C 522.738281 549.394531 525.871094 539.273438 528.140625 528.886719 C 533.023438 533.40625 536.554688 536.976562 538.664062 539.183594 C 536 549.242188 532.597656 559.046875 528.464844 568.597656 Z M 507.816406 549.804688 C 501.863281 544.921875 494.9375 539.644531 487.09375 534.226562 C 490.59375 523.65625 493.152344 512.863281 494.761719 501.847656 C 502.949219 507.679688 510.113281 513.304688 516.222656 518.417969 C 514.484375 529.164062 511.683594 539.628906 507.816406 549.804688 Z M 475.304688 526.460938 C 472.566406 524.738281 469.757812 523.015625 466.832031 521.296875 C 469.082031 509.816406 470.613281 498.242188 471.429688 486.574219 C 475.164062 488.804688 478.71875 491.046875 482.175781 493.292969 C 480.898438 504.558594 478.609375 515.613281 475.304688 526.460938 Z M 454.28125 514.285156 C 447.988281 510.9375 441.328125 507.675781 434.304688 504.5 C 436.882812 492.828125 438.128906 481.015625 438.042969 469.0625 C 445.042969 472.246094 451.757812 475.578125 458.125 479.011719 C 457.722656 490.863281 456.441406 502.621094 454.28125 514.285156 Z M 424.277344 463.191406 C 424.832031 475.257812 423.921875 487.210938 421.546875 499.050781 C 418.5 497.824219 415.382812 496.628906 412.214844 495.457031 C 413.785156 483.421875 414.296875 471.34375 413.757812 459.21875 C 417.332031 460.496094 420.835938 461.820312 424.277344 463.191406 Z M 399.738281 454.574219 C 400.734375 466.703125 400.503906 478.808594 399.039062 490.894531 C 393.042969 488.949219 386.847656 487.128906 380.457031 485.433594 L 380.457031 449.441406 C 387.054688 450.960938 393.480469 452.671875 399.738281 454.574219 Z M 499.644531 622.511719 C 457.152344 586.835938 408.230469 568.378906 380.46875 560.0625 L 380.46875 499.53125 C 462.597656 522.207031 511.050781 569.8125 522.554688 582.160156 C 516.742188 596.648438 509.101562 610.097656 499.636719 622.511719 Z M 538.976562 512.304688 C 539.660156 513.070312 540.253906 513.894531 540.757812 514.785156 C 541.265625 515.679688 541.671875 516.613281 541.976562 517.589844 C 542.285156 518.566406 542.484375 519.566406 542.578125 520.585938 C 542.667969 521.605469 542.652344 522.625 542.53125 523.640625 C 521.625 503.105469 464.386719 453.875 380.460938 435.484375 L 380.460938 422.5625 C 415.246094 430.460938 486.71875 453.09375 538.972656 512.304688 Z M 538.976562 512.304688 " fill-opacity="1" fill-rule="nonzero"/><g clip-path="url(#id1)"><path fill="#000000" d="M 668.453125 656.566406 L 658.261719 656.527344 C 656.433594 656.542969 654.621094 656.382812 652.828125 656.042969 C 651.03125 655.703125 649.285156 655.191406 647.589844 654.511719 C 645.894531 653.828125 644.28125 652.988281 642.75 651.988281 C 641.21875 650.992188 639.800781 649.855469 638.492188 648.578125 L 620.074219 630.039062 C 619.75 629.730469 619.402344 629.457031 619.027344 629.214844 C 618.652344 628.976562 618.257812 628.773438 617.84375 628.609375 C 617.429688 628.441406 617.003906 628.316406 616.566406 628.234375 C 616.128906 628.148438 615.6875 628.109375 615.242188 628.109375 C 614.796875 628.109375 614.355469 628.148438 613.917969 628.234375 C 613.480469 628.316406 613.054688 628.441406 612.640625 628.609375 C 612.226562 628.773438 611.835938 628.976562 611.460938 629.214844 C 611.085938 629.457031 610.734375 629.730469 610.414062 630.039062 L 592.003906 648.570312 C 591.347656 649.199219 590.660156 649.796875 589.945312 650.363281 C 589.230469 650.929688 588.492188 651.457031 587.726562 651.953125 C 586.960938 652.445312 586.175781 652.902344 585.367188 653.320312 C 584.558594 653.738281 583.730469 654.121094 582.886719 654.460938 C 582.042969 654.800781 581.183594 655.097656 580.308594 655.355469 C 579.433594 655.613281 578.550781 655.828125 577.65625 656 C 576.761719 656.175781 575.863281 656.304688 574.957031 656.390625 C 574.050781 656.476562 573.140625 656.519531 572.230469 656.519531 C 571.320312 656.519531 570.410156 656.476562 569.503906 656.390625 C 568.597656 656.304688 567.695312 656.175781 566.804688 656 C 565.910156 655.828125 565.023438 655.613281 564.152344 655.355469 C 563.277344 655.097656 562.417969 654.800781 561.574219 654.460938 C 560.730469 654.121094 559.902344 653.738281 559.09375 653.320312 C 558.285156 652.902344 557.496094 652.445312 556.734375 651.953125 C 555.96875 651.457031 555.226562 650.929688 554.515625 650.363281 C 553.800781 649.796875 553.113281 649.199219 552.457031 648.570312 L 534.046875 630.039062 C 533.726562 629.730469 533.375 629.457031 533 629.214844 C 532.625 628.976562 532.230469 628.773438 531.820312 628.605469 C 531.40625 628.441406 530.980469 628.316406 530.542969 628.234375 C 530.105469 628.148438 529.664062 628.105469 529.21875 628.105469 C 528.773438 628.105469 528.332031 628.148438 527.894531 628.234375 C 527.457031 628.316406 527.03125 628.441406 526.617188 628.605469 C 526.203125 628.773438 525.808594 628.976562 525.433594 629.214844 C 525.058594 629.457031 524.710938 629.730469 524.386719 630.039062 L 505.976562 648.570312 C 505.320312 649.199219 504.636719 649.796875 503.921875 650.363281 C 503.207031 650.929688 502.46875 651.457031 501.703125 651.953125 C 500.9375 652.445312 500.152344 652.902344 499.34375 653.320312 C 498.535156 653.738281 497.707031 654.121094 496.863281 654.460938 C 496.015625 654.796875 495.15625 655.097656 494.285156 655.355469 C 493.410156 655.613281 492.527344 655.828125 491.632812 656 C 490.738281 656.171875 489.839844 656.304688 488.933594 656.390625 C 488.023438 656.476562 487.117188 656.519531 486.207031 656.519531 C 485.296875 656.519531 484.386719 656.476562 483.480469 656.390625 C 482.574219 656.304688 481.671875 656.171875 480.777344 656 C 479.886719 655.828125 479 655.613281 478.128906 655.355469 C 477.253906 655.097656 476.394531 654.796875 475.550781 654.457031 C 474.703125 654.121094 473.878906 653.738281 473.070312 653.320312 C 472.261719 652.902344 471.472656 652.445312 470.710938 651.953125 C 469.945312 651.457031 469.203125 650.929688 468.492188 650.363281 C 467.777344 649.796875 467.089844 649.199219 466.433594 648.570312 L 448.023438 630.039062 C 447.703125 629.730469 447.351562 629.457031 446.976562 629.214844 C 446.601562 628.976562 446.207031 628.773438 445.792969 628.605469 C 445.382812 628.441406 444.957031 628.316406 444.519531 628.230469 C 444.082031 628.148438 443.640625 628.105469 443.191406 628.105469 C 442.746094 628.105469 442.304688 628.148438 441.867188 628.230469 C 441.429688 628.316406 441.003906 628.441406 440.589844 628.605469 C 440.179688 628.773438 439.785156 628.976562 439.410156 629.214844 C 439.035156 629.457031 438.683594 629.730469 438.363281 630.039062 L 419.957031 648.566406 C 419.300781 649.195312 418.617188 649.792969 417.902344 650.359375 C 417.1875 650.921875 416.449219 651.453125 415.683594 651.945312 C 414.917969 652.441406 414.132812 652.898438 413.324219 653.316406 C 412.515625 653.734375 411.6875 654.113281 410.84375 654.453125 C 409.996094 654.792969 409.136719 655.09375 408.265625 655.351562 C 407.390625 655.609375 406.507812 655.824219 405.613281 655.996094 C 404.71875 656.167969 403.816406 656.300781 402.910156 656.386719 C 402.003906 656.472656 401.097656 656.515625 400.1875 656.515625 C 399.273438 656.515625 398.367188 656.472656 397.460938 656.386719 C 396.554688 656.300781 395.652344 656.167969 394.757812 655.996094 C 393.863281 655.824219 392.980469 655.609375 392.105469 655.351562 C 391.234375 655.09375 390.375 654.792969 389.527344 654.453125 C 388.683594 654.113281 387.855469 653.734375 387.046875 653.316406 C 386.238281 652.898438 385.453125 652.441406 384.6875 651.945312 C 383.921875 651.453125 383.183594 650.921875 382.46875 650.359375 C 381.753906 649.792969 381.070312 649.195312 380.414062 648.566406 L 362.011719 630.039062 C 361.6875 629.730469 361.339844 629.457031 360.964844 629.214844 C 360.589844 628.976562 360.195312 628.773438 359.78125 628.605469 C 359.367188 628.441406 358.941406 628.316406 358.503906 628.230469 C 358.066406 628.148438 357.625 628.105469 357.179688 628.105469 C 356.734375 628.105469 356.292969 628.148438 355.855469 628.230469 C 355.417969 628.316406 354.992188 628.441406 354.578125 628.605469 C 354.164062 628.773438 353.769531 628.976562 353.394531 629.214844 C 353.019531 629.457031 352.667969 629.730469 352.347656 630.039062 L 333.953125 648.5625 C 333.292969 649.195312 332.609375 649.792969 331.894531 650.355469 C 331.179688 650.921875 330.441406 651.449219 329.675781 651.945312 C 328.910156 652.441406 328.125 652.894531 327.316406 653.316406 C 326.507812 653.734375 325.679688 654.113281 324.835938 654.453125 C 323.988281 654.792969 323.128906 655.09375 322.257812 655.351562 C 321.382812 655.609375 320.5 655.824219 319.605469 655.996094 C 318.710938 656.167969 317.808594 656.300781 316.902344 656.386719 C 315.996094 656.472656 315.089844 656.515625 314.175781 656.515625 C 313.265625 656.515625 312.359375 656.472656 311.449219 656.386719 C 310.542969 656.300781 309.644531 656.167969 308.75 655.996094 C 307.855469 655.824219 306.972656 655.609375 306.097656 655.351562 C 305.222656 655.09375 304.363281 654.792969 303.519531 654.453125 C 302.675781 654.113281 301.847656 653.734375 301.039062 653.316406 C 300.230469 652.894531 299.445312 652.441406 298.679688 651.945312 C 297.914062 651.449219 297.175781 650.921875 296.460938 650.355469 C 295.746094 649.792969 295.058594 649.195312 294.402344 648.5625 L 276 630.035156 C 275.679688 629.730469 275.328125 629.453125 274.953125 629.214844 C 274.578125 628.972656 274.1875 628.769531 273.773438 628.605469 C 273.359375 628.4375 272.933594 628.316406 272.496094 628.230469 C 272.058594 628.144531 271.617188 628.105469 271.171875 628.105469 C 270.726562 628.105469 270.285156 628.144531 269.847656 628.230469 C 269.40625 628.316406 268.984375 628.4375 268.570312 628.605469 C 268.15625 628.769531 267.761719 628.972656 267.386719 629.214844 C 267.011719 629.453125 266.660156 629.730469 266.339844 630.035156 L 247.945312 648.558594 C 247.285156 649.191406 246.601562 649.789062 245.886719 650.351562 C 245.171875 650.917969 244.433594 651.445312 243.667969 651.941406 C 242.902344 652.4375 242.117188 652.890625 241.308594 653.3125 C 240.5 653.730469 239.671875 654.109375 238.828125 654.449219 C 237.984375 654.789062 237.125 655.089844 236.25 655.347656 C 235.375 655.601562 234.492188 655.820312 233.597656 655.992188 C 232.703125 656.164062 231.804688 656.296875 230.898438 656.382812 C 229.988281 656.46875 229.082031 656.511719 228.171875 656.511719 C 227.257812 656.511719 226.351562 656.46875 225.445312 656.382812 C 224.539062 656.296875 223.636719 656.164062 222.742188 655.992188 C 221.847656 655.820312 220.964844 655.601562 220.089844 655.347656 C 219.21875 655.089844 218.359375 654.789062 217.511719 654.449219 C 216.667969 654.109375 215.84375 653.730469 215.035156 653.3125 C 214.222656 652.890625 213.4375 652.4375 212.671875 651.941406 C 211.90625 651.445312 211.167969 650.917969 210.453125 650.351562 C 209.738281 649.789062 209.054688 649.191406 208.398438 648.558594 L 190.003906 630.039062 C 189.6875 629.71875 189.34375 629.433594 188.972656 629.183594 C 188.597656 628.933594 188.207031 628.722656 187.792969 628.550781 C 187.375 628.378906 186.949219 628.246094 186.507812 628.160156 C 186.070312 628.070312 185.625 628.027344 185.175781 628.027344 C 184.726562 628.027344 184.28125 628.070312 183.839844 628.160156 C 183.398438 628.246094 182.972656 628.378906 182.558594 628.550781 C 182.144531 628.722656 181.75 628.933594 181.378906 629.183594 C 181.003906 629.433594 180.660156 629.71875 180.34375 630.039062 L 161.941406 648.566406 C 161.285156 649.195312 160.597656 649.792969 159.886719 650.359375 C 159.171875 650.921875 158.429688 651.453125 157.667969 651.945312 C 156.902344 652.441406 156.113281 652.898438 155.304688 653.316406 C 154.496094 653.734375 153.671875 654.113281 152.824219 654.453125 C 151.980469 654.792969 151.121094 655.09375 150.246094 655.351562 C 149.375 655.609375 148.488281 655.824219 147.59375 655.996094 C 146.703125 656.167969 145.800781 656.300781 144.894531 656.386719 C 143.988281 656.472656 143.078125 656.515625 142.167969 656.515625 C 141.257812 656.515625 140.347656 656.472656 139.441406 656.386719 C 138.535156 656.300781 137.632812 656.167969 136.742188 655.996094 C 135.847656 655.824219 134.960938 655.609375 134.089844 655.351562 C 133.214844 655.09375 132.355469 654.792969 131.511719 654.453125 C 130.664062 654.113281 129.839844 653.734375 129.03125 653.316406 C 128.222656 652.898438 127.433594 652.441406 126.667969 651.945312 C 125.90625 651.453125 125.164062 650.921875 124.449219 650.359375 C 123.738281 649.792969 123.050781 649.195312 122.394531 648.566406 L 103.992188 630.039062 C 103.667969 629.730469 103.320312 629.457031 102.945312 629.214844 C 102.570312 628.976562 102.175781 628.773438 101.761719 628.605469 C 101.351562 628.441406 100.925781 628.316406 100.488281 628.234375 C 100.050781 628.148438 99.609375 628.105469 99.164062 628.105469 C 98.714844 628.105469 98.273438 628.148438 97.835938 628.234375 C 97.402344 628.316406 96.976562 628.441406 96.5625 628.605469 C 96.148438 628.773438 95.753906 628.976562 95.378906 629.214844 C 95.003906 629.457031 94.65625 629.730469 94.332031 630.039062 L 75.933594 648.566406 C 74.625 649.84375 73.207031 650.980469 71.675781 651.980469 C 70.144531 652.976562 68.53125 653.816406 66.835938 654.5 C 65.136719 655.183594 63.390625 655.691406 61.59375 656.03125 C 59.800781 656.371094 57.988281 656.535156 56.160156 656.515625 L 46.003906 656.515625 C 45.554688 656.515625 45.113281 656.5625 44.675781 656.648438 C 44.234375 656.734375 43.808594 656.863281 43.398438 657.035156 C 42.984375 657.207031 42.59375 657.414062 42.21875 657.664062 C 41.847656 657.914062 41.503906 658.195312 41.1875 658.511719 C 40.871094 658.828125 40.589844 659.171875 40.34375 659.542969 C 40.09375 659.914062 39.882812 660.304688 39.710938 660.71875 C 39.542969 661.132812 39.414062 661.558594 39.324219 661.996094 C 39.238281 662.433594 39.195312 662.875 39.195312 663.324219 C 39.195312 663.769531 39.238281 664.210938 39.324219 664.652344 C 39.414062 665.089844 39.542969 665.515625 39.710938 665.929688 C 39.882812 666.339844 40.09375 666.734375 40.34375 667.105469 C 40.589844 667.476562 40.871094 667.820312 41.1875 668.136719 C 41.503906 668.453125 41.847656 668.734375 42.21875 668.980469 C 42.59375 669.230469 42.984375 669.441406 43.398438 669.609375 C 43.808594 669.78125 44.234375 669.910156 44.675781 670 C 45.113281 670.085938 45.554688 670.128906 46.003906 670.128906 L 56.160156 670.128906 C 58.882812 670.144531 61.585938 669.894531 64.261719 669.375 C 66.9375 668.859375 69.539062 668.089844 72.0625 667.0625 C 74.589844 666.035156 76.988281 664.769531 79.265625 663.273438 C 81.542969 661.773438 83.652344 660.066406 85.59375 658.15625 L 99.164062 644.492188 L 112.730469 658.15625 C 113.703125 659.101562 114.722656 660.003906 115.78125 660.851562 C 116.839844 661.703125 117.9375 662.5 119.074219 663.246094 C 120.210938 663.988281 121.382812 664.675781 122.585938 665.308594 C 123.789062 665.9375 125.019531 666.507812 126.277344 667.019531 C 127.535156 667.53125 128.816406 667.984375 130.117188 668.371094 C 131.421875 668.757812 132.738281 669.085938 134.074219 669.34375 C 135.40625 669.605469 136.75 669.800781 138.101562 669.933594 C 139.453125 670.0625 140.808594 670.128906 142.167969 670.128906 C 143.527344 670.128906 144.882812 670.0625 146.234375 669.933594 C 147.585938 669.800781 148.929688 669.605469 150.265625 669.34375 C 151.597656 669.085938 152.914062 668.757812 154.21875 668.371094 C 155.519531 667.984375 156.800781 667.53125 158.058594 667.019531 C 159.316406 666.507812 160.546875 665.9375 161.75 665.304688 C 162.953125 664.675781 164.125 663.988281 165.261719 663.246094 C 166.398438 662.5 167.496094 661.703125 168.554688 660.851562 C 169.617188 660.003906 170.632812 659.101562 171.605469 658.15625 L 185.171875 644.492188 L 198.730469 658.148438 C 200.671875 660.0625 202.78125 661.769531 205.058594 663.265625 C 207.335938 664.765625 209.738281 666.027344 212.261719 667.054688 C 214.789062 668.082031 217.386719 668.855469 220.066406 669.371094 C 222.742188 669.886719 225.445312 670.140625 228.167969 670.125 C 230.894531 670.140625 233.597656 669.890625 236.273438 669.371094 C 238.949219 668.855469 241.550781 668.085938 244.074219 667.058594 C 246.601562 666.03125 249 664.765625 251.277344 663.269531 C 253.554688 661.769531 255.664062 660.0625 257.605469 658.152344 L 271.175781 644.492188 L 284.746094 658.15625 C 285.71875 659.101562 286.734375 660.003906 287.792969 660.851562 C 288.851562 661.703125 289.953125 662.5 291.089844 663.246094 C 292.226562 663.988281 293.394531 664.675781 294.597656 665.308594 C 295.800781 665.9375 297.03125 666.511719 298.289062 667.023438 C 299.550781 667.535156 300.828125 667.984375 302.132812 668.371094 C 303.433594 668.761719 304.75 669.085938 306.085938 669.347656 C 307.417969 669.605469 308.761719 669.804688 310.113281 669.933594 C 311.464844 670.066406 312.820312 670.128906 314.179688 670.128906 C 315.539062 670.128906 316.894531 670.066406 318.246094 669.933594 C 319.601562 669.804688 320.945312 669.605469 322.277344 669.347656 C 323.609375 669.085938 324.929688 668.761719 326.230469 668.371094 C 327.53125 667.984375 328.8125 667.535156 330.070312 667.023438 C 331.328125 666.511719 332.5625 665.9375 333.765625 665.308594 C 334.96875 664.675781 336.136719 663.988281 337.273438 663.246094 C 338.410156 662.5 339.507812 661.703125 340.570312 660.851562 C 341.628906 660.003906 342.644531 659.101562 343.617188 658.15625 L 357.1875 644.492188 L 370.757812 658.15625 C 371.730469 659.105469 372.746094 660.003906 373.804688 660.855469 C 374.863281 661.707031 375.960938 662.503906 377.097656 663.246094 C 378.234375 663.992188 379.40625 664.679688 380.609375 665.308594 C 381.8125 665.941406 383.042969 666.511719 384.300781 667.023438 C 385.558594 667.535156 386.839844 667.984375 388.144531 668.375 C 389.445312 668.761719 390.761719 669.085938 392.097656 669.347656 C 393.429688 669.609375 394.773438 669.804688 396.125 669.933594 C 397.476562 670.066406 398.832031 670.132812 400.191406 670.132812 C 401.550781 670.132812 402.90625 670.066406 404.257812 669.933594 C 405.609375 669.804688 406.953125 669.609375 408.285156 669.347656 C 409.621094 669.085938 410.9375 668.761719 412.242188 668.375 C 413.542969 667.984375 414.824219 667.535156 416.082031 667.023438 C 417.339844 666.511719 418.570312 665.941406 419.773438 665.308594 C 420.976562 664.679688 422.148438 663.992188 423.285156 663.246094 C 424.421875 662.503906 425.519531 661.707031 426.578125 660.855469 C 427.636719 660.003906 428.652344 659.105469 429.625 658.15625 L 443.195312 644.492188 L 456.777344 658.164062 C 458.71875 660.074219 460.824219 661.78125 463.101562 663.277344 C 465.378906 664.777344 467.78125 666.039062 470.304688 667.066406 C 472.828125 668.09375 475.429688 668.867188 478.105469 669.382812 C 480.78125 669.898438 483.480469 670.148438 486.207031 670.136719 C 488.933594 670.148438 491.632812 669.898438 494.3125 669.382812 C 496.988281 668.867188 499.585938 668.09375 502.113281 667.066406 C 504.636719 666.039062 507.039062 664.777344 509.316406 663.277344 C 511.589844 661.78125 513.699219 660.074219 515.640625 658.164062 L 529.210938 644.492188 L 542.78125 658.164062 C 544.722656 660.074219 546.832031 661.78125 549.105469 663.28125 C 551.382812 664.777344 553.785156 666.039062 556.308594 667.066406 C 558.832031 668.09375 561.433594 668.867188 564.109375 669.382812 C 566.785156 669.898438 569.484375 670.148438 572.210938 670.136719 C 574.9375 670.148438 577.636719 669.898438 580.316406 669.382812 C 582.992188 668.867188 585.589844 668.09375 588.117188 667.066406 C 590.640625 666.039062 593.042969 664.777344 595.316406 663.277344 C 597.59375 661.78125 599.703125 660.074219 601.644531 658.164062 L 615.234375 644.484375 L 628.824219 658.164062 C 630.765625 660.074219 632.871094 661.777344 635.144531 663.273438 C 637.421875 664.773438 639.820312 666.035156 642.339844 667.058594 C 644.863281 668.085938 647.460938 668.859375 650.136719 669.375 C 652.808594 669.890625 655.507812 670.144531 658.230469 670.132812 L 668.394531 670.167969 L 668.421875 670.167969 C 668.863281 670.164062 669.300781 670.113281 669.734375 670.019531 C 670.167969 669.929688 670.585938 669.796875 670.992188 669.621094 C 671.398438 669.449219 671.785156 669.238281 672.152344 668.988281 C 672.515625 668.738281 672.855469 668.457031 673.164062 668.144531 C 673.476562 667.828125 673.753906 667.488281 673.996094 667.117188 C 674.242188 666.75 674.445312 666.359375 674.613281 665.953125 C 674.78125 665.542969 674.910156 665.121094 674.996094 664.6875 C 675.082031 664.253906 675.125 663.816406 675.125 663.375 C 675.128906 662.933594 675.085938 662.496094 675 662.0625 C 674.917969 661.628906 674.789062 661.207031 674.625 660.796875 C 674.457031 660.386719 674.253906 659.996094 674.007812 659.628906 C 673.765625 659.257812 673.492188 658.914062 673.179688 658.601562 C 672.871094 658.285156 672.535156 658 672.171875 657.75 C 671.804688 657.5 671.421875 657.289062 671.015625 657.113281 C 670.609375 656.9375 670.1875 656.804688 669.757812 656.710938 C 669.324219 656.617188 668.886719 656.566406 668.445312 656.558594 Z M 668.453125 656.566406 " fill-opacity="1" fill-rule="nonzero"/></g><path fill="#000000" d="M 439.441406 237.726562 C 437.761719 238.769531 434.226562 238.710938 429.945312 237.597656 C 429.1875 237.375 428.414062 237.285156 427.625 237.328125 C 426.835938 237.371094 426.074219 237.542969 425.34375 237.839844 C 424.613281 238.140625 423.953125 238.550781 423.359375 239.074219 C 422.769531 239.597656 422.28125 240.207031 421.894531 240.894531 C 421.65625 241.347656 421.46875 241.820312 421.335938 242.3125 C 421.203125 242.808594 421.125 243.308594 421.105469 243.820312 C 421.085938 244.332031 421.125 244.839844 421.21875 245.34375 C 421.3125 245.84375 421.460938 246.332031 421.664062 246.800781 C 421.867188 247.269531 422.121094 247.710938 422.421875 248.125 C 422.726562 248.535156 423.070312 248.910156 423.457031 249.246094 C 423.847656 249.578125 424.265625 249.867188 424.71875 250.105469 C 425.167969 250.347656 425.640625 250.535156 426.136719 250.667969 C 429.3125 251.570312 432.554688 252.046875 435.855469 252.09375 C 437.75 252.144531 439.609375 251.929688 441.441406 251.453125 C 443.273438 250.976562 445 250.253906 446.628906 249.289062 C 447.679688 248.613281 448.648438 247.832031 449.53125 246.953125 C 450.417969 246.070312 451.203125 245.105469 451.882812 244.058594 C 452.5625 243.011719 453.128906 241.902344 453.574219 240.734375 C 454.019531 239.570312 454.339844 238.367188 454.53125 237.132812 C 454.945312 234.863281 455.171875 232.570312 455.203125 230.261719 C 455.234375 227.953125 455.074219 225.65625 454.71875 223.375 C 454.363281 221.09375 453.824219 218.855469 453.09375 216.664062 C 452.363281 214.472656 451.457031 212.359375 450.371094 210.320312 C 450.035156 209.628906 449.664062 208.953125 449.261719 208.296875 C 448.863281 207.640625 448.429688 207.003906 447.972656 206.390625 C 447.511719 205.773438 447.023438 205.179688 446.507812 204.609375 C 445.992188 204.039062 445.453125 203.492188 444.886719 202.96875 C 444.320312 202.449219 443.730469 201.957031 443.117188 201.492188 C 442.503906 201.023438 441.875 200.585938 441.21875 200.179688 C 440.566406 199.773438 439.898438 199.398438 439.210938 199.050781 C 438.523438 198.707031 437.820312 198.394531 437.105469 198.113281 C 436.386719 197.835938 435.660156 197.589844 434.917969 197.378906 C 434.179688 197.164062 433.433594 196.988281 432.675781 196.84375 C 431.921875 196.703125 431.160156 196.59375 430.394531 196.523438 C 429.628906 196.453125 428.859375 196.414062 428.089844 196.414062 C 427.320312 196.414062 426.554688 196.449219 425.785156 196.519531 C 425.019531 196.589844 424.257812 196.699219 423.503906 196.839844 C 422.746094 196.980469 422 197.15625 421.257812 197.367188 C 420.519531 197.578125 419.789062 197.824219 419.074219 198.101562 C 417.605469 198.730469 416.210938 199.496094 414.894531 200.402344 C 413.574219 201.304688 412.359375 202.328125 411.242188 203.46875 C 410.125 204.609375 409.128906 205.851562 408.257812 207.1875 C 407.382812 208.527344 406.648438 209.9375 406.050781 211.417969 C 405.578125 212.476562 404.949219 213.4375 404.164062 214.292969 C 403.378906 215.148438 402.480469 215.859375 401.464844 216.421875 C 399.921875 217.289062 398.105469 218.320312 396.046875 219.503906 C 395.988281 219.445312 395.933594 219.386719 395.871094 219.332031 C 394.460938 218 392.988281 216.738281 391.453125 215.550781 C 389.921875 214.363281 388.332031 213.253906 386.691406 212.222656 C 385.046875 211.191406 383.359375 210.242188 381.621094 209.375 C 379.886719 208.507812 378.113281 207.726562 376.300781 207.035156 C 374.488281 206.339844 372.648438 205.738281 370.777344 205.226562 C 368.90625 204.710938 367.015625 204.292969 365.101562 203.964844 C 363.191406 203.636719 361.265625 203.402344 359.332031 203.261719 C 357.394531 203.121094 355.457031 203.078125 353.519531 203.125 C 351.578125 203.175781 349.648438 203.320312 347.722656 203.558594 C 345.796875 203.796875 343.886719 204.128906 341.996094 204.554688 C 340.101562 204.980469 338.234375 205.496094 336.390625 206.105469 C 334.550781 206.714844 332.742188 207.410156 330.96875 208.195312 C 329.195312 208.980469 327.460938 209.851562 325.773438 210.804688 C 324.085938 211.761719 322.445312 212.796875 320.859375 213.910156 C 319.269531 215.023438 317.742188 216.214844 316.269531 217.480469 C 314.800781 218.742188 313.394531 220.078125 312.054688 221.480469 C 309.027344 219.710938 306.054688 218 303.25 216.421875 C 302.234375 215.859375 301.332031 215.148438 300.546875 214.292969 C 299.761719 213.4375 299.132812 212.480469 298.664062 211.417969 C 298.066406 209.9375 297.332031 208.527344 296.457031 207.191406 C 295.582031 205.851562 294.589844 204.613281 293.472656 203.46875 C 292.355469 202.328125 291.136719 201.304688 289.820312 200.402344 C 288.5 199.5 287.109375 198.730469 285.640625 198.101562 C 284.921875 197.824219 284.195312 197.578125 283.453125 197.367188 C 282.714844 197.15625 281.964844 196.980469 281.210938 196.839844 C 280.453125 196.699219 279.691406 196.59375 278.925781 196.523438 C 278.160156 196.453125 277.390625 196.417969 276.621094 196.417969 C 275.851562 196.417969 275.085938 196.453125 274.320312 196.527344 C 273.554688 196.597656 272.792969 196.707031 272.035156 196.847656 C 271.28125 196.992188 270.53125 197.167969 269.792969 197.382812 C 269.054688 197.59375 268.324219 197.839844 267.609375 198.117188 C 266.890625 198.398438 266.1875 198.710938 265.5 199.054688 C 264.8125 199.402344 264.144531 199.777344 263.492188 200.183594 C 262.835938 200.589844 262.207031 201.027344 261.59375 201.492188 C 260.980469 201.960938 260.390625 202.453125 259.824219 202.972656 C 259.257812 203.496094 258.71875 204.039062 258.203125 204.609375 C 257.6875 205.183594 257.199219 205.773438 256.738281 206.390625 C 256.277344 207.007812 255.847656 207.644531 255.445312 208.300781 C 255.042969 208.957031 254.675781 209.628906 254.335938 210.320312 C 253.25 212.359375 252.34375 214.476562 251.613281 216.667969 C 250.886719 218.855469 250.34375 221.09375 249.988281 223.375 C 249.636719 225.660156 249.476562 227.953125 249.507812 230.261719 C 249.539062 232.570312 249.761719 234.863281 250.179688 237.132812 C 250.371094 238.402344 250.703125 239.632812 251.167969 240.828125 C 251.628906 242.027344 252.21875 243.15625 252.929688 244.222656 C 253.644531 245.292969 254.460938 246.269531 255.386719 247.15625 C 256.3125 248.046875 257.324219 248.824219 258.421875 249.488281 C 264 252.777344 271.515625 252.957031 280.761719 250.023438 C 282.261719 249.527344 283.800781 249.355469 285.375 249.507812 C 286.949219 249.660156 288.425781 250.121094 289.808594 250.894531 C 291.773438 252.03125 293.761719 253.21875 295.734375 254.398438 C 295.449219 256.355469 295.261719 258.320312 295.175781 260.296875 C 295 264.085938 295.183594 267.855469 295.730469 271.609375 C 296.277344 275.363281 297.179688 279.03125 298.429688 282.613281 C 299.679688 286.191406 301.261719 289.621094 303.171875 292.898438 C 305.082031 296.179688 307.285156 299.246094 309.785156 302.097656 L 309.785156 308.855469 C 303.15625 314.300781 297.957031 318.71875 294.667969 321.550781 C 291.679688 324.0625 289.332031 327.074219 287.625 330.582031 C 287.265625 331.515625 286.792969 332.386719 286.207031 333.195312 C 285.617188 334 284.9375 334.71875 284.160156 335.347656 C 283.382812 335.976562 282.539062 336.492188 281.625 336.894531 C 280.710938 337.300781 279.761719 337.578125 278.773438 337.734375 C 277.777344 337.890625 276.777344 337.929688 275.769531 337.855469 C 274.761719 337.78125 273.777344 337.59375 272.8125 337.292969 C 271.851562 336.996094 270.933594 336.589844 270.0625 336.082031 C 269.191406 335.574219 268.390625 334.972656 267.65625 334.28125 C 266.863281 333.558594 266.164062 332.757812 265.554688 331.875 C 264.949219 330.996094 264.445312 330.058594 264.054688 329.0625 C 263.660156 328.066406 263.382812 327.039062 263.226562 325.980469 C 263.066406 324.921875 263.03125 323.859375 263.117188 322.789062 C 263.175781 322.261719 263.273438 321.734375 263.402344 321.21875 C 263.511719 320.753906 263.660156 320.304688 263.847656 319.867188 C 264.035156 319.429688 264.261719 319.011719 264.523438 318.613281 C 264.789062 318.214844 265.082031 317.847656 265.414062 317.5 C 265.742188 317.15625 266.101562 316.84375 266.484375 316.566406 C 266.871094 316.285156 267.277344 316.039062 267.707031 315.832031 C 268.132812 315.625 268.578125 315.457031 269.035156 315.328125 C 269.496094 315.199219 269.960938 315.113281 270.4375 315.066406 C 270.910156 315.023438 271.386719 315.019531 271.859375 315.058594 C 279.53125 315.734375 292.820312 315.242188 298.210938 304.945312 C 298.417969 304.601562 298.59375 304.238281 298.734375 303.863281 C 298.878906 303.488281 298.984375 303.101562 299.058594 302.707031 C 299.128906 302.3125 299.164062 301.914062 299.164062 301.511719 C 299.164062 301.113281 299.128906 300.714844 299.058594 300.316406 C 298.984375 299.921875 298.878906 299.539062 298.734375 299.160156 C 298.59375 298.785156 298.417969 298.425781 298.210938 298.082031 C 298.003906 297.738281 297.769531 297.414062 297.503906 297.113281 C 297.238281 296.8125 296.945312 296.539062 296.632812 296.289062 C 296.316406 296.039062 295.980469 295.820312 295.625 295.632812 C 295.269531 295.445312 294.902344 295.292969 294.519531 295.171875 C 294.136719 295.050781 293.746094 294.964844 293.347656 294.914062 C 292.949219 294.863281 292.546875 294.847656 292.148438 294.871094 C 291.746094 294.890625 291.351562 294.949219 290.960938 295.042969 C 290.570312 295.136719 290.191406 295.265625 289.824219 295.425781 C 289.453125 295.589844 289.105469 295.78125 288.773438 296.007812 C 288.441406 296.234375 288.128906 296.488281 287.84375 296.769531 C 286.867188 297.6875 285.898438 298.605469 284.9375 299.523438 C 284.023438 300.382812 283.019531 301.121094 281.921875 301.726562 C 280.820312 302.335938 279.664062 302.796875 278.449219 303.109375 C 277.234375 303.421875 276 303.582031 274.742188 303.582031 C 273.488281 303.582031 272.253906 303.425781 271.039062 303.113281 L 270.746094 303.035156 C 267.773438 302.25 264.816406 302.304688 261.875 303.195312 C 260.492188 303.613281 259.183594 304.203125 257.957031 304.964844 C 256.726562 305.722656 255.617188 306.628906 254.628906 307.683594 C 253.636719 308.734375 252.800781 309.898438 252.113281 311.171875 C 251.429688 312.441406 250.921875 313.78125 250.589844 315.1875 C 250.078125 317.332031 249.734375 319.503906 249.550781 321.703125 C 249.382812 323.796875 249.449219 325.882812 249.757812 327.960938 C 250.066406 330.042969 250.601562 332.058594 251.371094 334.015625 C 252.140625 335.972656 253.121094 337.816406 254.3125 339.546875 C 255.503906 341.28125 256.875 342.855469 258.425781 344.273438 C 259.914062 345.671875 261.539062 346.882812 263.308594 347.90625 C 265.074219 348.933594 266.933594 349.742188 268.882812 350.339844 C 270.835938 350.9375 272.832031 351.308594 274.867188 351.449219 C 276.90625 351.589844 278.929688 351.496094 280.949219 351.171875 C 283.027344 350.84375 285.03125 350.261719 286.960938 349.425781 C 288.894531 348.589844 290.691406 347.527344 292.351562 346.234375 C 294.011719 344.941406 295.484375 343.464844 296.769531 341.796875 C 298.054688 340.132812 299.109375 338.332031 299.9375 336.398438 C 300.824219 334.632812 302.03125 333.121094 303.558594 331.863281 C 305.660156 330.054688 308.566406 327.574219 312.121094 324.589844 C 312.578125 325.515625 313.097656 326.402344 313.679688 327.257812 C 314.261719 328.109375 314.898438 328.917969 315.589844 329.683594 C 316.285156 330.449219 317.027344 331.160156 317.820312 331.824219 C 318.613281 332.484375 319.449219 333.089844 320.324219 333.632812 C 321.199219 334.179688 322.109375 334.660156 323.054688 335.078125 C 324 335.5 324.964844 335.851562 325.957031 336.136719 C 326.953125 336.417969 327.957031 336.632812 328.980469 336.777344 C 330.003906 336.921875 331.03125 336.996094 332.0625 336.996094 L 373.789062 336.996094 C 374.789062 336.996094 375.789062 336.929688 376.78125 336.792969 C 377.773438 336.660156 378.75 336.457031 379.714844 336.191406 C 380.679688 335.921875 381.625 335.59375 382.542969 335.199219 C 383.464844 334.804688 384.355469 334.351562 385.214844 333.835938 C 386.074219 333.324219 386.894531 332.753906 387.679688 332.128906 C 388.460938 331.503906 389.199219 330.832031 389.890625 330.105469 C 390.582031 329.382812 391.222656 328.617188 391.808594 327.804688 C 392.398438 326.996094 392.929688 326.148438 393.402344 325.269531 C 396.640625 327.980469 399.269531 330.226562 401.160156 331.855469 C 402.6875 333.113281 403.894531 334.625 404.78125 336.390625 C 405.609375 338.324219 406.667969 340.125 407.953125 341.789062 C 409.238281 343.457031 410.710938 344.933594 412.371094 346.226562 C 414.03125 347.519531 415.828125 348.582031 417.757812 349.417969 C 419.6875 350.253906 421.691406 350.835938 423.773438 351.164062 C 425.789062 351.488281 427.8125 351.582031 429.851562 351.441406 C 431.886719 351.300781 433.882812 350.929688 435.835938 350.332031 C 437.785156 349.734375 439.644531 348.925781 441.410156 347.898438 C 443.175781 346.875 444.804688 345.664062 446.292969 344.265625 C 447.84375 342.847656 449.214844 341.273438 450.40625 339.539062 C 451.597656 337.808594 452.574219 335.964844 453.34375 334.007812 C 454.113281 332.050781 454.652344 330.035156 454.960938 327.953125 C 455.265625 325.875 455.335938 323.789062 455.164062 321.695312 C 455.015625 319.882812 454.753906 318.089844 454.378906 316.3125 C 453.957031 314.070312 453.128906 311.996094 451.890625 310.085938 C 450.652344 308.171875 449.097656 306.566406 447.226562 305.265625 C 446.265625 304.621094 445.25 304.089844 444.175781 303.660156 C 443.101562 303.234375 441.996094 302.921875 440.859375 302.730469 C 439.71875 302.535156 438.574219 302.460938 437.417969 302.507812 C 436.265625 302.554688 435.128906 302.722656 434.011719 303.007812 C 434.011719 303.007812 425.652344 305.273438 419.78125 299.503906 C 416.3125 296.097656 412.503906 292.710938 408.589844 289.265625 C 409.730469 286.945312 410.71875 284.558594 411.550781 282.109375 C 412.386719 279.660156 413.054688 277.164062 413.5625 274.625 C 414.074219 272.089844 414.414062 269.53125 414.589844 266.949219 C 414.765625 264.367188 414.769531 261.78125 414.609375 259.199219 C 414.449219 256.617188 414.121094 254.054688 413.625 251.515625 C 413.132812 248.976562 412.472656 246.476562 411.65625 244.023438 C 410.835938 241.566406 409.859375 239.175781 408.726562 236.847656 C 407.597656 234.519531 406.320312 232.277344 404.898438 230.113281 C 406.078125 229.4375 407.171875 228.820312 408.144531 228.273438 C 410.457031 226.976562 412.503906 225.347656 414.285156 223.386719 C 416.066406 221.421875 417.488281 219.230469 418.554688 216.804688 C 419.058594 215.433594 419.808594 214.214844 420.804688 213.148438 C 421.804688 212.082031 422.96875 211.253906 424.304688 210.660156 C 424.957031 210.425781 425.625 210.253906 426.308594 210.144531 C 426.996094 210.035156 427.683594 209.988281 428.375 210.007812 C 429.070312 210.023438 429.753906 210.105469 430.433594 210.25 C 431.109375 210.398438 431.769531 210.601562 432.40625 210.871094 C 433.046875 211.136719 433.65625 211.464844 434.234375 211.84375 C 434.8125 212.226562 435.351562 212.65625 435.851562 213.136719 C 436.351562 213.617188 436.800781 214.140625 437.203125 214.707031 C 437.605469 215.269531 437.949219 215.867188 438.242188 216.496094 C 439.742188 219.242188 440.746094 222.164062 441.25 225.253906 C 441.753906 228.34375 441.730469 231.433594 441.175781 234.515625 C 440.6875 236.960938 439.746094 237.542969 439.441406 237.726562 Z M 296.597656 239.105469 C 295.113281 238.25 293.558594 237.558594 291.929688 237.03125 C 290.300781 236.503906 288.632812 236.148438 286.929688 235.96875 C 285.226562 235.785156 283.523438 235.78125 281.820312 235.957031 C 280.117188 236.132812 278.449219 236.480469 276.816406 237 C 270.722656 238.964844 266.886719 238.6875 265.332031 237.769531 C 264.972656 237.5625 264.027344 237.003906 263.535156 234.511719 C 262.984375 231.429688 262.960938 228.34375 263.464844 225.253906 C 263.96875 222.164062 264.96875 219.242188 266.472656 216.496094 C 266.765625 215.867188 267.113281 215.273438 267.515625 214.707031 C 267.917969 214.144531 268.367188 213.621094 268.867188 213.140625 C 269.367188 212.664062 269.90625 212.230469 270.484375 211.851562 C 271.0625 211.472656 271.671875 211.148438 272.3125 210.882812 C 272.949219 210.613281 273.609375 210.410156 274.285156 210.265625 C 274.964844 210.117188 275.648438 210.039062 276.339844 210.019531 C 277.03125 210.003906 277.722656 210.046875 278.40625 210.160156 C 279.089844 210.269531 279.757812 210.441406 280.410156 210.675781 C 281.742188 211.269531 282.910156 212.097656 283.90625 213.164062 C 284.90625 214.230469 285.65625 215.445312 286.160156 216.816406 C 287.226562 219.242188 288.648438 221.4375 290.429688 223.402344 C 292.210938 225.363281 294.257812 226.992188 296.570312 228.289062 C 298.851562 229.570312 301.242188 230.945312 303.679688 232.359375 C 302.050781 235.058594 300.640625 237.867188 299.449219 240.789062 C 298.5 240.234375 297.550781 239.65625 296.597656 239.105469 Z M 382.445312 314.746094 C 382.441406 315.3125 382.386719 315.875 382.273438 316.433594 C 382.164062 316.988281 382 317.53125 381.78125 318.054688 C 381.5625 318.578125 381.296875 319.078125 380.980469 319.546875 C 380.664062 320.019531 380.304688 320.457031 379.90625 320.859375 C 379.503906 321.257812 379.066406 321.617188 378.59375 321.933594 C 378.121094 322.25 377.625 322.515625 377.101562 322.734375 C 376.574219 322.953125 376.035156 323.117188 375.476562 323.226562 C 374.921875 323.339844 374.359375 323.394531 373.789062 323.394531 L 371.476562 323.394531 L 371.476562 310.144531 C 371.46875 309.703125 371.417969 309.265625 371.324219 308.832031 C 371.234375 308.398438 371.101562 307.980469 370.925781 307.574219 C 370.75 307.167969 370.539062 306.78125 370.289062 306.417969 C 370.039062 306.054688 369.757812 305.714844 369.441406 305.40625 C 369.125 305.097656 368.785156 304.820312 368.414062 304.574219 C 368.046875 304.332031 367.65625 304.128906 367.246094 303.960938 C 366.839844 303.792969 366.417969 303.667969 365.984375 303.582031 C 365.550781 303.496094 365.109375 303.453125 364.667969 303.453125 C 364.226562 303.453125 363.789062 303.496094 363.355469 303.582031 C 362.921875 303.667969 362.5 303.792969 362.089844 303.960938 C 361.679688 304.128906 361.292969 304.332031 360.921875 304.574219 C 360.554688 304.820312 360.210938 305.097656 359.894531 305.40625 C 359.578125 305.714844 359.296875 306.054688 359.046875 306.417969 C 358.796875 306.78125 358.585938 307.167969 358.410156 307.574219 C 358.238281 307.980469 358.105469 308.398438 358.011719 308.832031 C 357.917969 309.265625 357.867188 309.703125 357.859375 310.144531 L 357.859375 323.394531 L 348.675781 323.394531 L 348.675781 310.144531 C 348.675781 309.695312 348.632812 309.253906 348.542969 308.816406 C 348.457031 308.378906 348.328125 307.953125 348.15625 307.539062 C 347.984375 307.125 347.777344 306.734375 347.527344 306.363281 C 347.28125 305.992188 346.996094 305.648438 346.679688 305.332031 C 346.363281 305.015625 346.019531 304.734375 345.648438 304.484375 C 345.277344 304.238281 344.886719 304.027344 344.472656 303.855469 C 344.058594 303.683594 343.632812 303.554688 343.195312 303.46875 C 342.757812 303.382812 342.3125 303.335938 341.867188 303.335938 C 341.417969 303.335938 340.976562 303.382812 340.539062 303.46875 C 340.101562 303.554688 339.675781 303.683594 339.261719 303.855469 C 338.847656 304.027344 338.457031 304.238281 338.085938 304.484375 C 337.710938 304.734375 337.367188 305.015625 337.050781 305.332031 C 336.738281 305.648438 336.453125 305.992188 336.207031 306.363281 C 335.957031 306.734375 335.746094 307.125 335.578125 307.539062 C 335.40625 307.953125 335.277344 308.378906 335.1875 308.816406 C 335.101562 309.253906 335.058594 309.695312 335.058594 310.144531 L 335.058594 323.394531 L 332.066406 323.394531 C 331.496094 323.394531 330.933594 323.339844 330.378906 323.226562 C 329.820312 323.117188 329.28125 322.953125 328.757812 322.734375 C 328.230469 322.515625 327.734375 322.25 327.261719 321.933594 C 326.789062 321.617188 326.351562 321.261719 325.949219 320.859375 C 325.550781 320.457031 325.191406 320.019531 324.875 319.546875 C 324.558594 319.078125 324.292969 318.578125 324.074219 318.054688 C 323.855469 317.53125 323.691406 316.988281 323.582031 316.433594 C 323.46875 315.875 323.414062 315.3125 323.414062 314.746094 L 323.414062 299.457031 C 323.414062 298.582031 323.25 297.738281 322.921875 296.929688 C 322.597656 296.117188 322.132812 295.394531 321.527344 294.761719 C 319.371094 292.515625 317.460938 290.078125 315.800781 287.445312 C 314.140625 284.8125 312.765625 282.039062 311.667969 279.128906 C 310.574219 276.214844 309.785156 273.222656 309.300781 270.148438 C 308.8125 267.074219 308.644531 263.980469 308.789062 260.871094 C 308.859375 259.46875 308.996094 258.070312 309.195312 256.679688 C 309.394531 255.289062 309.65625 253.910156 309.976562 252.539062 C 310.300781 251.171875 310.6875 249.820312 311.132812 248.488281 C 311.578125 247.15625 312.085938 245.847656 312.648438 244.558594 C 313.214844 243.269531 313.835938 242.011719 314.515625 240.78125 C 315.191406 239.550781 315.925781 238.351562 316.714844 237.1875 C 317.5 236.023438 318.339844 234.894531 319.230469 233.808594 C 320.117188 232.71875 321.054688 231.671875 322.039062 230.667969 C 323.023438 229.664062 324.050781 228.707031 325.121094 227.796875 C 326.191406 226.886719 327.304688 226.023438 328.453125 225.214844 C 329.601562 224.40625 330.785156 223.648438 332 222.945312 C 333.21875 222.242188 334.464844 221.59375 335.742188 221.003906 C 337.019531 220.414062 338.320312 219.882812 339.644531 219.410156 C 340.96875 218.9375 342.308594 218.523438 343.671875 218.175781 C 345.035156 217.824219 346.40625 217.535156 347.796875 217.308594 C 349.183594 217.082031 350.578125 216.917969 351.980469 216.816406 C 352.976562 216.757812 353.96875 216.730469 354.957031 216.726562 C 357.308594 216.726562 359.640625 216.90625 361.964844 217.261719 C 364.285156 217.621094 366.566406 218.152344 368.808594 218.855469 C 371.046875 219.5625 373.222656 220.429688 375.328125 221.46875 C 377.4375 222.503906 379.453125 223.695312 381.378906 225.039062 C 383.304688 226.382812 385.117188 227.863281 386.816406 229.484375 C 388.515625 231.105469 390.082031 232.84375 391.515625 234.707031 C 392.949219 236.566406 394.234375 238.523438 395.371094 240.578125 C 396.507812 242.632812 397.476562 244.761719 398.289062 246.96875 C 399.097656 249.171875 399.738281 251.421875 400.203125 253.722656 C 400.667969 256.027344 400.957031 258.347656 401.070312 260.695312 C 401.179688 263.039062 401.113281 265.378906 400.867188 267.714844 C 400.621094 270.050781 400.199219 272.351562 399.605469 274.625 C 399.007812 276.894531 398.242188 279.105469 397.304688 281.261719 C 396.371094 283.414062 395.277344 285.484375 394.027344 287.472656 C 392.773438 289.460938 391.378906 291.339844 389.84375 293.113281 C 388.304688 294.890625 386.640625 296.535156 384.851562 298.058594 C 384.089844 298.703125 383.503906 299.480469 383.085938 300.386719 C 382.667969 301.292969 382.457031 302.242188 382.457031 303.238281 Z M 410.371094 309.347656 C 411.921875 310.832031 413.625 312.125 415.472656 313.21875 C 417.320312 314.316406 419.269531 315.191406 421.316406 315.84375 C 423.363281 316.496094 425.457031 316.910156 427.601562 317.085938 C 429.742188 317.265625 431.875 317.195312 434.003906 316.886719 C 434.558594 316.796875 435.113281 316.789062 435.671875 316.859375 C 436.226562 316.933594 436.761719 317.085938 437.273438 317.320312 C 437.785156 317.550781 438.253906 317.851562 438.675781 318.222656 C 439.097656 318.59375 439.457031 319.015625 439.753906 319.492188 C 441.5625 322.585938 442.691406 327.75 437.054688 334.28125 C 436.351562 335.015625 435.566406 335.648438 434.699219 336.183594 C 433.832031 336.71875 432.914062 337.136719 431.941406 337.4375 C 430.96875 337.742188 429.976562 337.917969 428.960938 337.96875 C 427.941406 338.019531 426.9375 337.941406 425.9375 337.738281 C 424.953125 337.582031 424.003906 337.304688 423.089844 336.898438 C 422.175781 336.492188 421.332031 335.976562 420.554688 335.347656 C 419.777344 334.71875 419.09375 334.003906 418.507812 333.195312 C 417.917969 332.386719 417.449219 331.515625 417.089844 330.582031 C 415.382812 327.074219 413.035156 324.066406 410.050781 321.554688 C 407.046875 318.972656 402.222656 314.871094 396.0625 309.789062 L 396.0625 306.277344 C 397.855469 304.566406 399.539062 302.753906 401.109375 300.835938 C 404.335938 303.707031 407.441406 306.554688 410.363281 309.351562 Z M 410.371094 309.347656 " fill-opacity="1" fill-rule="nonzero"/><path fill="#000000" d="M 415.179688 116.703125 C 415.25 117.15625 415.363281 117.59375 415.523438 118.023438 C 415.679688 118.449219 415.882812 118.855469 416.121094 119.246094 C 416.363281 119.632812 416.636719 119.992188 416.953125 120.324219 C 417.265625 120.65625 417.605469 120.953125 417.980469 121.21875 C 418.351562 121.480469 418.75 121.703125 419.164062 121.886719 C 419.582031 122.070312 420.015625 122.210938 420.460938 122.308594 C 420.90625 122.40625 421.359375 122.457031 421.816406 122.464844 C 422.269531 122.46875 422.722656 122.429688 423.171875 122.34375 C 423.621094 122.261719 424.054688 122.132812 424.476562 121.960938 C 424.902344 121.789062 425.300781 121.574219 425.683594 121.324219 C 426.0625 121.070312 426.414062 120.78125 426.734375 120.457031 C 427.054688 120.132812 427.34375 119.78125 427.59375 119.402344 C 427.84375 119.019531 428.054688 118.617188 428.226562 118.195312 C 428.394531 117.773438 428.519531 117.335938 428.605469 116.886719 C 428.6875 116.4375 428.722656 115.984375 428.714844 115.53125 C 428.707031 115.074219 428.652344 114.621094 428.554688 114.175781 L 428.242188 112.585938 C 428.152344 112.152344 428.019531 111.734375 427.84375 111.328125 C 427.667969 110.921875 427.457031 110.535156 427.207031 110.167969 C 426.957031 109.804688 426.671875 109.464844 426.355469 109.15625 C 426.039062 108.84375 425.699219 108.566406 425.328125 108.324219 C 424.957031 108.082031 424.566406 107.875 424.15625 107.710938 C 423.746094 107.542969 423.324219 107.417969 422.890625 107.332031 C 422.453125 107.246094 422.015625 107.203125 421.574219 107.207031 C 421.128906 107.207031 420.691406 107.25 420.257812 107.335938 C 419.824219 107.421875 419.402344 107.550781 418.992188 107.71875 C 418.582031 107.886719 418.191406 108.09375 417.824219 108.339844 C 417.453125 108.585938 417.113281 108.863281 416.796875 109.175781 C 416.484375 109.484375 416.199219 109.824219 415.953125 110.191406 C 415.703125 110.558594 415.492188 110.945312 415.320312 111.351562 C 415.148438 111.757812 415.015625 112.179688 414.921875 112.613281 C 414.832031 113.046875 414.785156 113.484375 414.777344 113.925781 C 414.773438 114.371094 414.8125 114.808594 414.890625 115.246094 Z M 415.179688 116.703125 " fill-opacity="1" fill-rule="nonzero"/><path fill="#000000" d="M 344.039062 258.496094 L 339.476562 255.898438 C 339.085938 255.667969 338.679688 255.480469 338.253906 255.335938 C 337.828125 255.1875 337.390625 255.082031 336.945312 255.023438 C 336.496094 254.960938 336.046875 254.945312 335.597656 254.976562 C 335.148438 255.003906 334.707031 255.078125 334.269531 255.191406 C 333.835938 255.308594 333.414062 255.46875 333.011719 255.667969 C 332.605469 255.867188 332.226562 256.105469 331.867188 256.382812 C 331.511719 256.65625 331.1875 256.964844 330.890625 257.304688 C 330.59375 257.644531 330.335938 258.011719 330.113281 258.402344 C 329.890625 258.792969 329.707031 259.203125 329.566406 259.632812 C 329.425781 260.058594 329.328125 260.5 329.273438 260.945312 C 329.21875 261.394531 329.207031 261.839844 329.242188 262.289062 C 329.277344 262.738281 329.355469 263.183594 329.476562 263.617188 C 329.601562 264.050781 329.765625 264.46875 329.96875 264.867188 C 330.175781 265.269531 330.417969 265.644531 330.699219 266 C 330.976562 266.351562 331.289062 266.675781 331.636719 266.964844 C 331.980469 267.257812 332.347656 267.511719 332.742188 267.726562 C 335.292969 269.101562 337.933594 270.265625 340.667969 271.214844 C 341.417969 271.214844 342.148438 271.097656 342.863281 270.855469 C 343.574219 270.613281 344.226562 270.261719 344.824219 269.804688 C 345.417969 269.347656 345.925781 268.804688 346.339844 268.179688 C 346.757812 267.554688 347.0625 266.878906 347.253906 266.152344 C 347.445312 265.425781 347.515625 264.691406 347.464844 263.941406 C 347.414062 263.191406 347.242188 262.46875 346.953125 261.777344 C 346.660156 261.085938 346.265625 260.457031 345.765625 259.894531 C 345.269531 259.332031 344.691406 258.867188 344.039062 258.496094 Z M 344.039062 258.496094 " fill-opacity="1" fill-rule="nonzero"/><path fill="#000000" d="M 370.363281 255.898438 L 365.800781 258.496094 C 365.449219 258.667969 365.121094 258.875 364.808594 259.109375 C 364.496094 259.34375 364.207031 259.605469 363.941406 259.894531 C 363.675781 260.183594 363.4375 260.492188 363.230469 260.824219 C 363.019531 261.152344 362.84375 261.5 362.695312 261.863281 C 362.550781 262.226562 362.4375 262.597656 362.359375 262.984375 C 362.28125 263.367188 362.238281 263.753906 362.230469 264.144531 C 362.222656 264.535156 362.25 264.925781 362.3125 265.308594 C 362.375 265.695312 362.472656 266.074219 362.605469 266.441406 C 362.734375 266.8125 362.898438 267.164062 363.09375 267.503906 C 363.289062 267.84375 363.511719 268.160156 363.765625 268.460938 C 364.019531 268.757812 364.296875 269.03125 364.597656 269.277344 C 364.902344 269.527344 365.226562 269.746094 365.566406 269.933594 C 365.910156 270.125 366.265625 270.28125 366.636719 270.40625 C 367.007812 270.53125 367.386719 270.621094 367.773438 270.675781 C 368.160156 270.734375 368.550781 270.753906 368.941406 270.738281 C 369.332031 270.726562 369.71875 270.675781 370.101562 270.589844 C 377.125 268.878906 381.8125 263.121094 379.648438 258.445312 C 379.433594 258.046875 379.183594 257.675781 378.898438 257.328125 C 378.609375 256.984375 378.289062 256.667969 377.9375 256.386719 C 377.585938 256.105469 377.207031 255.863281 376.808594 255.660156 C 376.40625 255.457031 375.988281 255.292969 375.554688 255.175781 C 375.117188 255.054688 374.675781 254.980469 374.226562 254.953125 C 373.777344 254.921875 373.328125 254.9375 372.882812 255 C 372.4375 255.0625 372.003906 255.171875 371.578125 255.320312 C 371.152344 255.472656 370.75 255.664062 370.363281 255.898438 Z M 370.363281 255.898438 " fill-opacity="1" fill-rule="nonzero"/><path fill="#000000" d="M 231.554688 585.738281 C 231.554688 586.1875 231.511719 586.628906 231.421875 587.066406 C 231.335938 587.503906 231.207031 587.929688 231.035156 588.34375 C 230.863281 588.757812 230.65625 589.148438 230.40625 589.519531 C 230.160156 589.890625 229.875 590.234375 229.558594 590.550781 C 229.242188 590.867188 228.898438 591.148438 228.527344 591.398438 C 228.15625 591.644531 227.765625 591.855469 227.351562 592.027344 C 226.9375 592.199219 226.511719 592.328125 226.074219 592.414062 C 225.636719 592.5 225.191406 592.546875 224.746094 592.546875 C 224.296875 592.546875 223.855469 592.5 223.417969 592.414062 C 222.980469 592.328125 222.554688 592.199219 222.140625 592.027344 C 221.726562 591.855469 221.335938 591.644531 220.964844 591.398438 C 220.589844 591.148438 220.246094 590.867188 219.929688 590.550781 C 219.617188 590.234375 219.332031 589.890625 219.085938 589.519531 C 218.835938 589.148438 218.625 588.757812 218.457031 588.34375 C 218.285156 587.929688 218.15625 587.503906 218.066406 587.066406 C 217.980469 586.628906 217.9375 586.1875 217.9375 585.738281 C 217.9375 585.292969 217.980469 584.847656 218.066406 584.410156 C 218.15625 583.972656 218.285156 583.546875 218.457031 583.132812 C 218.625 582.722656 218.835938 582.328125 219.085938 581.957031 C 219.332031 581.585938 219.617188 581.242188 219.929688 580.925781 C 220.246094 580.609375 220.589844 580.328125 220.964844 580.078125 C 221.335938 579.832031 221.726562 579.621094 222.140625 579.449219 C 222.554688 579.28125 222.980469 579.152344 223.417969 579.0625 C 223.855469 578.976562 224.296875 578.933594 224.746094 578.933594 C 225.191406 578.933594 225.636719 578.976562 226.074219 579.0625 C 226.511719 579.152344 226.9375 579.28125 227.351562 579.449219 C 227.765625 579.621094 228.15625 579.832031 228.527344 580.078125 C 228.898438 580.328125 229.242188 580.609375 229.558594 580.925781 C 229.875 581.242188 230.160156 581.585938 230.40625 581.957031 C 230.65625 582.328125 230.863281 582.722656 231.035156 583.132812 C 231.207031 583.546875 231.335938 583.972656 231.421875 584.410156 C 231.511719 584.847656 231.554688 585.292969 231.554688 585.738281 Z M 231.554688 585.738281 " fill-opacity="1" fill-rule="nonzero"/><path fill="#000000" d="M 277.40625 554.351562 C 277.40625 554.796875 277.363281 555.238281 277.273438 555.679688 C 277.1875 556.117188 277.058594 556.542969 276.886719 556.953125 C 276.714844 557.367188 276.507812 557.761719 276.257812 558.132812 C 276.007812 558.503906 275.726562 558.847656 275.410156 559.164062 C 275.09375 559.480469 274.75 559.761719 274.378906 560.007812 C 274.007812 560.257812 273.617188 560.46875 273.203125 560.636719 C 272.789062 560.808594 272.363281 560.9375 271.925781 561.027344 C 271.488281 561.113281 271.042969 561.15625 270.597656 561.15625 C 270.148438 561.15625 269.707031 561.113281 269.269531 561.027344 C 268.832031 560.9375 268.40625 560.808594 267.992188 560.636719 C 267.578125 560.46875 267.1875 560.257812 266.816406 560.007812 C 266.441406 559.761719 266.097656 559.480469 265.78125 559.164062 C 265.464844 558.847656 265.183594 558.503906 264.9375 558.132812 C 264.6875 557.761719 264.476562 557.367188 264.308594 556.953125 C 264.136719 556.542969 264.007812 556.117188 263.917969 555.679688 C 263.832031 555.238281 263.789062 554.796875 263.789062 554.351562 C 263.789062 553.902344 263.832031 553.460938 263.917969 553.023438 C 264.007812 552.585938 264.136719 552.160156 264.308594 551.746094 C 264.476562 551.332031 264.6875 550.941406 264.9375 550.570312 C 265.183594 550.199219 265.464844 549.855469 265.78125 549.539062 C 266.097656 549.222656 266.441406 548.941406 266.816406 548.691406 C 267.1875 548.441406 267.578125 548.234375 267.992188 548.0625 C 268.40625 547.890625 268.832031 547.761719 269.269531 547.675781 C 269.707031 547.585938 270.148438 547.542969 270.597656 547.542969 C 271.042969 547.542969 271.488281 547.585938 271.925781 547.675781 C 272.363281 547.761719 272.789062 547.890625 273.203125 548.0625 C 273.617188 548.234375 274.007812 548.441406 274.378906 548.691406 C 274.75 548.941406 275.09375 549.222656 275.410156 549.539062 C 275.726562 549.855469 276.007812 550.199219 276.257812 550.570312 C 276.507812 550.941406 276.714844 551.332031 276.886719 551.746094 C 277.058594 552.160156 277.1875 552.585938 277.273438 553.023438 C 277.363281 553.460938 277.40625 553.902344 277.40625 554.351562 Z M 277.40625 554.351562 " fill-opacity="1" fill-rule="nonzero"/><path fill="#000000" d="M 496.496094 585.738281 C 496.496094 586.1875 496.453125 586.628906 496.363281 587.066406 C 496.277344 587.503906 496.148438 587.929688 495.976562 588.34375 C 495.804688 588.757812 495.597656 589.148438 495.347656 589.519531 C 495.097656 589.890625 494.816406 590.234375 494.5 590.550781 C 494.183594 590.867188 493.839844 591.148438 493.46875 591.398438 C 493.097656 591.644531 492.707031 591.855469 492.292969 592.027344 C 491.878906 592.199219 491.453125 592.328125 491.015625 592.414062 C 490.578125 592.5 490.132812 592.546875 489.6875 592.546875 C 489.238281 592.546875 488.796875 592.5 488.359375 592.414062 C 487.921875 592.328125 487.496094 592.199219 487.082031 592.027344 C 486.667969 591.855469 486.277344 591.644531 485.902344 591.398438 C 485.53125 591.148438 485.1875 590.867188 484.871094 590.550781 C 484.554688 590.234375 484.273438 589.890625 484.027344 589.519531 C 483.777344 589.148438 483.566406 588.757812 483.398438 588.34375 C 483.226562 587.929688 483.097656 587.503906 483.007812 587.066406 C 482.921875 586.628906 482.878906 586.1875 482.878906 585.738281 C 482.878906 585.292969 482.921875 584.847656 483.007812 584.410156 C 483.097656 583.972656 483.226562 583.546875 483.398438 583.132812 C 483.566406 582.722656 483.777344 582.328125 484.027344 581.957031 C 484.273438 581.585938 484.554688 581.242188 484.871094 580.925781 C 485.1875 580.609375 485.53125 580.328125 485.902344 580.078125 C 486.277344 579.832031 486.667969 579.621094 487.082031 579.449219 C 487.496094 579.28125 487.921875 579.152344 488.359375 579.0625 C 488.796875 578.976562 489.238281 578.933594 489.6875 578.933594 C 490.132812 578.933594 490.578125 578.976562 491.015625 579.0625 C 491.453125 579.152344 491.878906 579.28125 492.292969 579.449219 C 492.707031 579.621094 493.097656 579.832031 493.46875 580.078125 C 493.839844 580.328125 494.183594 580.609375 494.5 580.925781 C 494.816406 581.242188 495.097656 581.585938 495.347656 581.957031 C 495.597656 582.328125 495.804688 582.722656 495.976562 583.132812 C 496.148438 583.546875 496.277344 583.972656 496.363281 584.410156 C 496.453125 584.847656 496.496094 585.292969 496.496094 585.738281 Z M 496.496094 585.738281 " fill-opacity="1" fill-rule="nonzero"/><path fill="#000000" d="M 450.644531 554.351562 C 450.644531 554.796875 450.601562 555.238281 450.511719 555.679688 C 450.425781 556.117188 450.296875 556.542969 450.125 556.953125 C 449.953125 557.367188 449.746094 557.761719 449.496094 558.132812 C 449.246094 558.503906 448.964844 558.847656 448.648438 559.164062 C 448.332031 559.480469 447.988281 559.761719 447.617188 560.007812 C 447.246094 560.257812 446.855469 560.46875 446.441406 560.636719 C 446.027344 560.808594 445.601562 560.9375 445.164062 561.027344 C 444.726562 561.113281 444.28125 561.15625 443.835938 561.15625 C 443.386719 561.15625 442.945312 561.113281 442.507812 561.027344 C 442.070312 560.9375 441.644531 560.808594 441.230469 560.636719 C 440.816406 560.46875 440.425781 560.257812 440.050781 560.007812 C 439.679688 559.761719 439.335938 559.480469 439.019531 559.164062 C 438.703125 558.847656 438.421875 558.503906 438.175781 558.132812 C 437.925781 557.761719 437.714844 557.367188 437.546875 556.953125 C 437.375 556.542969 437.246094 556.117188 437.15625 555.679688 C 437.070312 555.238281 437.027344 554.796875 437.027344 554.351562 C 437.027344 553.902344 437.070312 553.460938 437.15625 553.023438 C 437.246094 552.585938 437.375 552.160156 437.546875 551.746094 C 437.714844 551.332031 437.925781 550.941406 438.175781 550.570312 C 438.421875 550.199219 438.703125 549.855469 439.019531 549.539062 C 439.335938 549.222656 439.679688 548.941406 440.050781 548.691406 C 440.425781 548.441406 440.816406 548.234375 441.230469 548.0625 C 441.644531 547.890625 442.070312 547.761719 442.507812 547.675781 C 442.945312 547.585938 443.386719 547.542969 443.835938 547.542969 C 444.28125 547.542969 444.726562 547.585938 445.164062 547.675781 C 445.601562 547.761719 446.027344 547.890625 446.441406 548.0625 C 446.855469 548.234375 447.246094 548.441406 447.617188 548.691406 C 447.988281 548.941406 448.332031 549.222656 448.648438 549.539062 C 448.964844 549.855469 449.246094 550.199219 449.496094 550.570312 C 449.746094 550.941406 449.953125 551.332031 450.125 551.746094 C 450.296875 552.160156 450.425781 552.585938 450.511719 553.023438 C 450.601562 553.460938 450.644531 553.902344 450.644531 554.351562 Z M 450.644531 554.351562 " fill-opacity="1" fill-rule="nonzero"/></svg>