<svg xmlns="http://www.w3.org/2000/svg" xmlns:xlink="http://www.w3.org/1999/xlink" width="1000" zoomAndPan="magnify" viewBox="0 0 750 749.999995" height="1000" preserveAspectRatio="xMidYMid meet" version="1.0"><defs><clipPath id="id1"><path d="M 35 106 L 715.242188 106 L 715.242188 636 L 35 636 Z M 35 106 " clip-rule="nonzero"/></clipPath></defs><g clip-path="url(#id1)"><path fill="#000000" d="M 118.886719 420.421875 C 121.1875 419.339844 123.46875 418.253906 125.75 417.125 C 98.070312 401.0625 73.710938 379.714844 44.617188 366.175781 C 44.527344 366.507812 44.414062 366.839844 44.28125 367.191406 C 67.335938 387.125 93.863281 402.214844 118.484375 420.046875 C 118.640625 420.179688 118.75 420.289062 118.886719 420.421875 Z M 125.769531 407.28125 C 128.273438 405.820312 130.621094 404.226562 132.855469 402.457031 C 125.484375 401.261719 118.175781 399.804688 110.980469 397.789062 C 115.851562 401.0625 120.746094 404.226562 125.769531 407.28125 Z M 145.546875 420.597656 C 145.125 419.800781 144.683594 419.074219 144.285156 418.320312 C 129.359375 423.785156 115.785156 432.28125 100.617188 437.214844 C 101.035156 438.5625 101.613281 439.890625 102.320312 441.171875 C 118.375 437.433594 132.414062 430.398438 145.546875 420.597656 Z M 195.546875 456.816406 C 189.722656 453.605469 183.988281 450.222656 178.582031 446.128906 C 171.011719 440.464844 163.835938 434.316406 155.445312 430.199219 C 162.199219 442.921875 179.136719 453.585938 195.546875 456.816406 Z M 206.507812 466.238281 C 182.636719 466.835938 154.691406 450.863281 146.253906 430.554688 C 137.242188 436.835938 127.765625 441.859375 117.578125 445.53125 C 128.074219 465.089844 145.414062 472.832031 167.886719 472.390625 C 180.84375 472.167969 194.902344 471.792969 206.507812 466.238281 Z M 268.089844 510.355469 C 273.027344 510.355469 277.941406 510.355469 282.835938 510.355469 C 272.230469 503.339844 262.484375 495.023438 251.722656 488.1875 C 240.851562 481.304688 229.691406 475.023438 218.332031 468.960938 C 216.738281 470.199219 215.078125 471.285156 213.347656 472.257812 C 221.476562 478.605469 231.972656 482.566406 240.230469 488.851562 C 249.109375 495.640625 258.167969 502.167969 266.957031 509.046875 C 267.46875 509.425781 267.84375 509.910156 268.089844 510.355469 Z M 320.214844 238.324219 C 306.839844 245.117188 292.910156 250.800781 280.664062 259.804688 C 261.179688 274.097656 241.625 288.035156 221.34375 301.222656 C 180.910156 327.414062 135.601562 351.796875 100.527344 385.355469 C 119.527344 393.101562 140.210938 395.113281 160.46875 397.636719 C 181.75 400.269531 202.632812 405.464844 223.957031 407.546875 C 234.9375 389.582031 245.058594 371.152344 255 352.65625 C 255.132812 352.171875 255.378906 351.730469 255.710938 351.332031 C 263.4375 336.949219 271.03125 322.527344 278.9375 308.167969 C 291.539062 285.25 304.582031 260.203125 320.214844 238.324219 Z M 315.628906 231.265625 C 308.167969 231.15625 300.726562 231.023438 293.308594 230.890625 C 291.890625 234.875 291.582031 238.898438 291.980469 243.082031 C 299.796875 238.988281 307.8125 235.316406 315.628906 231.265625 Z M 321.742188 327.347656 C 314.367188 326.863281 306.617188 326.550781 300.175781 329.648438 C 299.886719 330.292969 299.398438 330.910156 298.691406 331.417969 C 295.832031 333.34375 292.933594 336.042969 292.601562 339.496094 C 297.695312 337.8125 302.765625 335.910156 307.726562 333.652344 C 312.417969 331.550781 317.070312 329.40625 321.742188 327.347656 Z M 316.226562 510.375 C 318.242188 510.375 320.28125 510.375 322.316406 510.375 C 321.917969 505.882812 322.496094 501.28125 321.367188 496.859375 C 319.636719 495.863281 317.976562 494.777344 316.339844 493.671875 C 315.894531 498.894531 316.671875 504.269531 316.359375 509.492188 C 316.339844 509.800781 316.292969 510.066406 316.226562 510.375 Z M 294.992188 385.976562 C 312.332031 369.539062 323.957031 349.648438 336.976562 330.160156 C 326.390625 334.40625 316.226562 339.496094 305.597656 343.785156 C 291.40625 349.496094 276.65625 352.921875 262.132812 357.503906 C 251.769531 376.773438 241.183594 395.886719 229.667969 414.539062 C 228.296875 416.726562 225.992188 416.925781 224.199219 416.0625 C 199.308594 413.652344 174.707031 407.988281 149.863281 404.824219 C 147.894531 404.582031 145.921875 404.316406 143.929688 404.074219 C 140.875 406.992188 137.574219 409.714844 134.054688 412.105469 C 134.253906 412.191406 134.429688 412.304688 134.628906 412.414062 C 134.871094 412.546875 135.027344 412.679688 135.25 412.8125 C 138.0625 411.617188 140.875 410.445312 143.796875 409.40625 C 144.992188 409.007812 146.011719 409.140625 146.828125 409.582031 C 148.160156 409.558594 149.441406 410.15625 150.304688 411.660156 C 151.347656 413.519531 152.367188 415.398438 153.382812 417.234375 C 153.761719 417.191406 154.136719 417.167969 154.582031 417.191406 C 170.699219 419.027344 184.296875 426.261719 199.640625 430.886719 C 216.160156 435.84375 233.5 437.035156 250.128906 441.882812 C 257.925781 432.214844 263.394531 421.042969 270.457031 410.796875 C 277.101562 401.261719 286.621094 393.917969 294.992188 385.976562 Z M 334.253906 220.050781 C 334.296875 219.410156 334.363281 218.722656 334.363281 218.082031 C 317.023438 217.261719 291.449219 216.664062 284.851562 222.242188 C 299.796875 222.507812 314.898438 222.839844 330.046875 222.949219 C 331.460938 221.996094 332.902344 221.066406 334.253906 220.050781 Z M 329.957031 304.230469 C 332.214844 304.230469 334.453125 304.207031 336.710938 304.164062 C 335.207031 298.742188 334.894531 292.925781 334.804688 287.285156 C 323.378906 287.285156 311.976562 287.152344 300.792969 286.972656 C 300.75 286.972656 300.726562 286.972656 300.707031 286.972656 C 293.730469 298.898438 287 311.023438 280.464844 323.234375 C 276.214844 331.109375 272.03125 339.03125 267.800781 346.90625 C 273.3125 345.3125 278.785156 343.742188 284.273438 342.128906 C 283.589844 335.933594 286.445312 330.867188 290.875 326.90625 C 290.5625 326.90625 290.277344 326.90625 290.011719 326.90625 C 284.539062 326.90625 284.539062 318.125 290.011719 318.125 C 300.460938 318.125 310.9375 318.234375 321.433594 318.367188 C 322.429688 315.136719 322.871094 311.75 323.890625 308.476562 C 324.398438 306.886719 325.550781 305.976562 326.835938 305.667969 C 327.519531 304.804688 328.539062 304.273438 329.957031 304.230469 Z M 341.339844 490.90625 C 341.339844 490.773438 341.292969 490.6875 341.292969 490.53125 C 341.292969 487.589844 341.25 484.667969 341.25 481.75 C 331.972656 481.769531 323.644531 481.902344 315.277344 482.921875 C 319.328125 485.488281 323.160156 488.472656 327.585938 490.53125 C 327.765625 490.640625 327.898438 490.753906 328.054688 490.820312 C 332.480469 490.839844 336.910156 490.886719 341.339844 490.90625 Z M 341.492188 473.273438 C 341.558594 471.816406 341.691406 470.355469 341.847656 468.9375 C 331.574219 468.519531 321.300781 467.367188 312.53125 461.925781 C 312.042969 461.636719 311.6875 461.261719 311.378906 460.886719 C 311.269531 460.820312 311.203125 460.773438 311.089844 460.6875 C 295.457031 447.679688 284.804688 427.480469 285.160156 407.082031 C 280.332031 412.105469 275.882812 417.457031 272.207031 423.585938 C 266.738281 432.746094 261.445312 441.816406 254.492188 449.933594 C 252.898438 451.769531 250.816406 451.617188 249.308594 450.488281 C 249.289062 450.488281 249.242188 450.488281 249.222656 450.445312 C 234.007812 445.796875 217.933594 445.246094 202.832031 440.710938 C 191.648438 437.347656 180.976562 432.414062 169.859375 429.007812 C 173.46875 431.527344 176.921875 434.203125 180.464844 436.925781 C 191.007812 445.089844 202.277344 450.796875 214.058594 456.769531 C 216.40625 456.195312 218.6875 455.421875 220.722656 454.292969 C 224.863281 452.058594 228.648438 457.167969 226.457031 460.332031 C 226.324219 460.953125 226.058594 461.527344 225.59375 462.101562 C 225.375 462.367188 225.152344 462.589844 224.929688 462.808594 C 237.175781 469.335938 249.308594 476.128906 260.738281 483.984375 C 272.207031 491.859375 282.769531 501.0625 294.992188 507.789062 C 296.167969 508.449219 296.785156 509.359375 296.984375 510.355469 C 300.640625 510.355469 304.269531 510.355469 307.902344 510.355469 C 307.859375 510.066406 307.835938 509.800781 307.859375 509.492188 C 308.210938 504.027344 307.570312 498.5625 307.902344 493.164062 C 307.835938 493.097656 307.769531 493.007812 307.703125 492.941406 C 305.597656 490.886719 303.140625 488.5625 301.945312 485.886719 C 300.640625 484.535156 300.59375 482.390625 301.503906 480.796875 C 301.613281 480.441406 301.65625 480.109375 301.789062 479.777344 C 301.878906 479.535156 301.988281 479.335938 302.101562 479.117188 C 302.300781 477.632812 303.253906 476.351562 305.179688 475.972656 C 317.15625 473.652344 328.984375 473.320312 341.492188 473.273438 Z M 344.285156 384.316406 C 344.019531 378.386719 343.441406 372.523438 343.132812 366.617188 C 337.21875 366.992188 331.328125 367.214844 325.441406 367.082031 C 324.621094 367.082031 323.957031 366.882812 323.402344 366.550781 C 319.769531 371.597656 315.960938 376.574219 311.777344 381.21875 C 322.695312 381.683594 333.5 382.855469 344.285156 384.316406 Z M 345.546875 304.03125 C 346.433594 304.03125 347.273438 304.03125 348.160156 304.007812 C 347.140625 298.457031 347.914062 292.660156 346.453125 287.195312 C 345.414062 287.21875 344.351562 287.21875 343.289062 287.261719 C 343.398438 292.925781 343.730469 298.675781 345.546875 304.03125 Z M 345.367188 210.714844 C 348.777344 210.824219 352.210938 210.890625 355.621094 210.914062 C 353.5625 197.351562 352.964844 183.679688 350.683594 170.074219 C 348.710938 158.261719 346.875 146.578125 346.699219 134.585938 C 345.414062 134.523438 344.105469 134.585938 342.824219 134.742188 C 343.441406 160.140625 347.449219 185.292969 345.367188 210.714844 Z M 357.128906 469.382812 C 356.398438 469.382812 355.644531 469.335938 354.890625 469.316406 C 353.363281 469.25 351.835938 469.203125 350.261719 469.183594 C 349.445312 476.238281 349.753906 483.40625 349.796875 490.53125 C 349.796875 490.6875 349.753906 490.820312 349.753906 490.972656 C 351.921875 490.972656 354.160156 490.972656 356.332031 491.019531 C 356.351562 483.03125 356.464844 476.417969 357.128906 469.382812 Z M 352.832031 385.46875 C 355.621094 385.867188 358.433594 386.285156 361.246094 386.726562 C 360.425781 379.515625 359.5625 372.347656 359.496094 365.15625 C 356.863281 365.421875 354.226562 365.6875 351.589844 365.933594 C 351.902344 372.457031 352.585938 378.941406 352.832031 385.46875 Z M 356.484375 303.941406 C 358.390625 303.941406 360.339844 303.941406 362.285156 303.941406 C 362.242188 298.167969 362.109375 292.304688 361.089844 286.839844 C 359.121094 286.90625 357.105469 286.972656 355.132812 287.039062 C 355.976562 292.085938 355.398438 297.238281 356.464844 302.261719 C 356.574219 302.878906 356.574219 303.433594 356.484375 303.941406 Z M 350.773438 318.789062 C 359.851562 318.875 368.929688 318.941406 378.007812 318.921875 C 377.855469 316.972656 377.742188 315.003906 377.675781 313.035156 C 362.308594 311.949219 346.941406 312.636719 331.53125 312.726562 C 331.0625 314.628906 330.6875 316.574219 330.199219 318.5 C 334.738281 318.566406 339.257812 318.632812 343.773438 318.722656 C 344.75 318.367188 345.722656 317.992188 346.699219 317.679688 C 348.445312 317.171875 349.863281 317.769531 350.773438 318.789062 Z M 399.289062 275.734375 C 388.304688 264.386719 389.101562 242.484375 398.578125 228.988281 C 377.921875 230.933594 356.996094 231.464844 336.089844 231.445312 C 325.351562 244.761719 316.339844 260.957031 307.570312 275.425781 C 306.949219 276.441406 306.351562 277.503906 305.6875 278.542969 C 336.511719 279.03125 368.597656 279.296875 399.289062 275.734375 Z M 362.351562 403.34375 C 379.648438 405.886719 399.644531 409.007812 416.027344 401.773438 C 379.714844 399.738281 344.351562 390.6875 307.925781 389.582031 C 325.792969 395.820312 343.398438 400.511719 362.351562 403.34375 Z M 406.773438 429.957031 C 407.128906 423.011719 408.855469 417.433594 411.710938 412.347656 C 398.425781 415.84375 383.765625 414.605469 370.125 412.945312 C 344.992188 409.890625 321.675781 403.808594 297.9375 394.980469 C 297.914062 394.9375 297.847656 394.914062 297.78125 394.871094 C 296.742188 395.820312 295.722656 396.773438 294.703125 397.722656 C 294.703125 397.789062 294.703125 397.855469 294.683594 397.964844 C 289.855469 419.160156 300.972656 441.238281 317.113281 454.691406 C 317.15625 454.734375 317.179688 454.800781 317.246094 454.847656 C 330.796875 462.964844 351.480469 460.972656 366.78125 461.128906 C 382.8125 461.21875 399.597656 462.480469 415.761719 461.328125 C 409.71875 452.148438 406.285156 440.730469 406.773438 429.957031 Z M 407.703125 219.519531 C 407.703125 219.144531 407.660156 218.765625 407.660156 218.390625 C 388.484375 219.585938 369.304688 218.257812 350.109375 218.765625 C 348.777344 218.789062 346.210938 218.65625 342.867188 218.5 C 342.800781 219.960938 342.757812 221.445312 342.757812 222.949219 C 364.523438 222.839844 386.246094 222.019531 407.703125 219.519531 Z M 409.1875 337.878906 C 397.828125 338.144531 386.644531 336.816406 375.285156 336.617188 C 365.363281 336.441406 355.644531 336.441406 345.855469 334.671875 C 345.347656 334.582031 344.925781 334.40625 344.550781 334.207031 C 339.257812 342.28125 334.1875 350.535156 328.851562 358.585938 C 345.28125 358.433594 361.089844 354.828125 377.367188 353.253906 C 391.960938 351.863281 406.332031 354.382812 409.1875 337.878906 Z M 418.640625 488.871094 C 414.8125 487.675781 410.714844 486.636719 409.140625 486.152344 C 403.851562 484.601562 398.335938 483.363281 393.242188 481.238281 C 383.875 481.96875 374.3125 480.730469 364.988281 482.566406 C 364.921875 485.996094 364.855469 489.046875 364.855469 491.019531 C 382.8125 491.019531 400.726562 490.574219 418.640625 488.871094 Z M 412.972656 508.671875 C 412.863281 505.042969 412.484375 501.480469 411.734375 497.941406 C 384.652344 500.042969 357.480469 499.46875 330.3125 499.335938 C 330.621094 503.007812 330.488281 506.746094 330.820312 510.441406 C 358.144531 510.707031 385.824219 511.148438 412.972656 508.671875 Z M 414.257812 537.519531 C 413.859375 532.320312 414.035156 527.5 414.566406 522.300781 C 411.003906 523.449219 406.707031 524.027344 401.480469 524.777344 C 398.425781 525.21875 395.082031 525.707031 391.382812 526.214844 C 389.546875 526.4375 387.640625 526.792969 385.625 526.925781 C 383.632812 527.058594 381.53125 527.191406 379.335938 527.320312 C 361.910156 528.960938 339.035156 528.5625 309.871094 528.894531 C 281.285156 528.960938 246.363281 530.617188 204.183594 528.5625 C 203.5625 530.75 202.765625 532.941406 201.878906 535.042969 C 219.394531 535.730469 237.042969 534.335938 254.449219 536.328125 C 273.246094 538.539062 291.714844 539.160156 310.625 539.621094 C 326.304688 540 342.003906 539.800781 357.726562 539.421875 C 357.570312 538.582031 357.4375 537.632812 357.304688 536.769531 C 356.484375 531.414062 364.679688 528.9375 365.542969 534.335938 C 365.785156 535.882812 365.984375 537.054688 366.226562 538.605469 C 366.292969 539.027344 410.226562 537.632812 414.257812 537.519531 Z M 414.8125 520.066406 C 414.964844 518.804688 415.144531 517.542969 415.34375 516.28125 C 381.417969 519.558594 346.632812 517.144531 312.640625 517.144531 C 281.59375 517.144531 223.160156 517.144531 206.308594 517.144531 C 206.175781 519.269531 205.863281 521.394531 205.445312 523.515625 C 246.808594 525.484375 281.417969 524.003906 309.851562 524.203125 C 339.082031 524.113281 361.867188 524.886719 379.09375 523.738281 C 381.285156 523.671875 383.34375 523.582031 385.359375 523.496094 C 387.351562 523.429688 389.234375 523.117188 391.074219 522.984375 C 394.703125 522.609375 398.070312 522.277344 401.105469 521.96875 C 406.75 521.414062 411.511719 521.039062 414.8125 520.066406 Z M 419.683594 328.832031 C 420.480469 325.777344 419.128906 323.898438 415.542969 326.90625 C 413.484375 326.90625 411.445312 326.90625 409.40625 326.90625 C 403.273438 326.90625 397.164062 326.90625 391.050781 326.90625 C 380.730469 326.90625 370.433594 326.90625 360.140625 326.90625 C 357.082031 326.90625 353.984375 326.90625 350.882812 326.90625 C 362.132812 328.5 373.535156 327.859375 384.875 328.632812 C 394.570312 329.316406 404.136719 329.828125 413.859375 329.164062 C 414.035156 329.140625 414.191406 329.164062 414.367188 329.164062 L 414.414062 329.164062 C 416.160156 328.941406 417.933594 328.875 419.683594 328.832031 Z M 427.722656 384.914062 C 429.027344 384.847656 430.289062 384.78125 431.574219 384.714844 C 425.308594 376.90625 425.660156 363.71875 429.050781 353.941406 C 429.027344 353.941406 429.027344 353.941406 429.027344 353.941406 C 426.945312 353.832031 424.910156 352.503906 424.910156 349.828125 C 424.863281 346.152344 424.644531 342.460938 424.597656 338.785156 C 424.597656 338.320312 424.710938 337.902344 424.796875 337.527344 C 423.003906 338.101562 421.101562 338.453125 419.21875 338.585938 C 418.730469 338.609375 418.289062 338.542969 417.867188 338.453125 C 417.425781 348.121094 416.78125 359.980469 404.515625 360.601562 C 392.335938 361.175781 380.15625 362.746094 367.957031 364.164062 C 367.957031 372.148438 369.039062 380.070312 369.882812 388.011719 C 387.507812 390.621094 405.15625 393.078125 423.070312 393.585938 C 422.9375 392.523438 422.871094 391.441406 422.894531 390.3125 C 422.960938 389.160156 423.378906 388.277344 424 387.636719 C 424.53125 386.21875 425.792969 385.046875 427.722656 384.914062 Z M 443.332031 511.769531 C 442.667969 511.835938 441.9375 511.902344 441.226562 511.945312 C 439.257812 512.035156 429.050781 511.4375 425.75 512.855469 C 429.027344 515.066406 432.148438 517.476562 435.007812 520.152344 C 437.507812 519.890625 440.011719 519.691406 442.492188 519.511719 C 442.445312 516.902344 442.734375 514.292969 443.332031 511.769531 Z M 484.675781 178.238281 C 487.265625 177.925781 489.855469 177.597656 492.46875 177.285156 C 490.320312 156.335938 483.144531 136.3125 482.480469 115.230469 C 481.550781 115.1875 480.644531 115.121094 479.714844 115.054688 C 480.535156 136.203125 484.828125 157.042969 484.675781 178.238281 Z M 494.949219 243.082031 C 496.519531 242.859375 498.09375 242.617188 499.644531 242.371094 C 499.398438 240.335938 499.15625 238.324219 499.132812 236.289062 C 499.132812 236.222656 499.132812 236.199219 499.15625 236.132812 C 497.472656 236.398438 495.769531 236.664062 494.0625 236.929688 C 494.195312 237.351562 494.304688 237.792969 494.304688 238.300781 C 494.328125 239.960938 494.550781 241.488281 494.949219 243.082031 Z M 504.136719 490.464844 C 503.785156 482.125 503.472656 473.761719 502.832031 465.441406 C 497.648438 464.691406 492.46875 463.738281 487.332031 462.433594 C 460.980469 455.6875 432.660156 433.851562 439.722656 403.808594 C 436.554688 404.007812 433.367188 404.050781 430.511719 403.03125 C 430.289062 402.964844 430.066406 402.832031 429.867188 402.722656 C 429.558594 403.363281 429.117188 403.941406 428.429688 404.449219 C 428.207031 404.625 427.964844 404.757812 427.722656 404.9375 C 427.589844 405.136719 427.5 405.3125 427.324219 405.464844 C 419.859375 413.808594 414.257812 421.507812 415.34375 433.320312 C 416.273438 443.386719 419.21875 453.164062 425.949219 460.839844 C 429.027344 462.367188 428.230469 468.429688 423.757812 469.003906 C 405.089844 471.484375 384.875 470.597656 365.609375 469.757812 C 365.496094 471.039062 365.429688 472.433594 365.363281 473.894531 C 374.753906 472.5 384.230469 473.5625 393.730469 472.699219 C 394.925781 472.609375 395.789062 472.898438 396.476562 473.496094 C 396.542969 473.519531 396.652344 473.519531 396.71875 473.5625 C 403.695312 476.703125 411.734375 477.898438 418.996094 480.355469 C 424.289062 482.191406 432.902344 484.226562 434.941406 490.242188 C 435.9375 493.121094 433.808594 495.089844 431.464844 495.398438 C 430.933594 495.796875 430.246094 496.085938 429.425781 496.171875 C 426.371094 496.59375 423.3125 496.902344 420.238281 497.191406 C 420.789062 499.957031 421.167969 502.765625 421.34375 505.597656 C 429.335938 501.746094 443.886719 507.722656 447.847656 499.445312 C 448.160156 498.761719 448.582031 498.273438 449.046875 497.941406 C 459.851562 484.601562 488.769531 489.957031 504.136719 490.464844 Z M 504.714844 502.433594 C 504.648438 501.304688 504.601562 500.15625 504.535156 499.003906 C 496.410156 498.871094 488.328125 498.1875 480.199219 498.320312 C 474.664062 498.386719 463.527344 497.609375 457.746094 501.28125 C 473.425781 502.632812 488.992188 504.867188 504.714844 502.433594 Z M 506.332031 519.378906 C 505.976562 518.671875 505.800781 517.851562 505.867188 517.011719 C 505.777344 516.703125 505.6875 516.347656 505.667969 516.015625 C 505.488281 514.292969 505.421875 512.589844 505.289062 510.863281 C 487.753906 513.273438 470.613281 510.574219 453.03125 509.425781 C 451.722656 512.476562 451.015625 515.773438 450.992188 519.136719 C 464.28125 518.804688 477.523438 519.644531 490.917969 519.867188 C 496.144531 519.933594 501.28125 519.757812 506.332031 519.378906 Z M 499.113281 316.839844 C 501.8125 316.839844 504.515625 316.816406 507.238281 316.816406 C 506.882812 312.0625 506.308594 307.261719 506.066406 302.480469 C 503.785156 302.171875 501.546875 301.820312 499.265625 301.488281 C 499.644531 306.554688 499.597656 311.621094 499.132812 316.707031 C 499.132812 316.773438 499.113281 316.816406 499.113281 316.839844 Z M 513.902344 512.410156 C 516.230469 512.390625 518.574219 512.457031 520.96875 512.523438 C 520.902344 497.367188 520.480469 482.191406 520.65625 467.035156 C 517.558594 466.902344 514.5 466.683594 511.402344 466.417969 C 512.507812 481.75 512.664062 497.101562 513.902344 512.410156 Z M 528.472656 326.308594 C 528.519531 326.21875 528.519531 326.109375 528.539062 326.023438 C 514.746094 325.003906 500.90625 325.359375 487.066406 325.46875 C 487.308594 327.171875 487.507812 328.898438 487.707031 330.625 C 496.1875 330.226562 504.667969 329.761719 513.171875 329.097656 C 518.242188 328.742188 523.335938 328.457031 528.40625 328.191406 C 528.296875 327.636719 528.296875 326.996094 528.472656 326.308594 Z M 537.621094 219.652344 C 529.914062 208.921875 531.683594 193.902344 533.679688 180.847656 C 500.152344 184.894531 466.5625 188.589844 433.167969 193.855469 C 438.0625 205.914062 436.976562 219.03125 436.800781 231.953125 C 471.367188 233.855469 504.09375 227.0625 537.621094 219.652344 Z M 563.371094 285.316406 C 559.011719 277.816406 549.53125 280.316406 545.039062 272.703125 C 541.429688 266.554688 548.160156 259.472656 550.992188 253.414062 C 533.789062 255.734375 516.472656 257.484375 499.332031 260.335938 C 476.925781 264.054688 454.734375 268.632812 432.082031 270.78125 C 431.816406 279.207031 433.808594 287.085938 444.152344 287.617188 C 450.308594 287.925781 456.464844 288.210938 462.621094 288.566406 C 473.292969 289.230469 484.03125 289.960938 494.617188 291.664062 C 511.246094 294.363281 525.175781 296.730469 541.671875 291.15625 C 548.914062 288.722656 555.976562 286.640625 563.371094 285.316406 Z M 556.972656 140.164062 C 551.945312 141.003906 545.855469 138.859375 541.230469 137 C 525.042969 130.40625 510.027344 116.070312 491.5625 123.238281 C 492.578125 133.128906 494.707031 142.839844 496.742188 152.597656 C 504.027344 150.847656 511.554688 150.894531 518.820312 152.949219 C 526.546875 155.140625 535.007812 159.34375 543.199219 157.863281 C 547.628906 152.683594 554.667969 146.910156 556.972656 140.164062 Z M 558.167969 599.355469 C 559.144531 599.046875 560.09375 598.671875 561.046875 598.339844 C 557.039062 598.472656 552.964844 598.492188 548.667969 598.671875 C 528.363281 599.488281 508.457031 601.921875 488.328125 604.6875 C 451.015625 609.753906 413.285156 608.117188 375.859375 612.808594 C 347.40625 616.347656 308.457031 630.175781 281.683594 614.199219 C 260.402344 601.523438 257.148438 566.835938 256.59375 545.175781 C 256.59375 545.066406 256.59375 544.953125 256.59375 544.820312 C 253.871094 544.667969 251.125 544.445312 248.359375 544.3125 C 240.011719 543.9375 231.640625 543.9375 223.269531 543.9375 C 232.261719 549.644531 237.949219 556.921875 242.621094 568.027344 C 250.707031 587.363281 256.925781 618.335938 280.84375 623.535156 C 304.601562 628.667969 330.488281 624.246094 354.050781 620.417969 C 375.640625 616.878906 396.652344 614.511719 418.574219 614.089844 C 432.195312 613.847656 445.921875 614.046875 459.320312 611.234375 C 468.839844 609.246094 478.539062 606.722656 488.285156 606.238281 C 511.601562 605.152344 535.582031 606.613281 558.167969 599.355469 Z M 572.605469 382.28125 C 570.746094 368.410156 562.15625 357.945312 566.097656 345.953125 C 545.105469 349.207031 524.664062 352.503906 503.207031 352.0625 C 482.304688 351.664062 459.007812 348.234375 438.503906 353.300781 C 434.386719 361.375 432.328125 377.722656 441.761719 382.105469 C 442.800781 382.613281 443.398438 383.300781 443.753906 384.074219 C 486.777344 381.925781 529.601562 381.21875 572.605469 382.28125 Z M 569.925781 241.910156 C 569.925781 241.023438 569.90625 240.136719 569.816406 239.253906 C 543.953125 240.226562 518.109375 248.191406 492.46875 251.929688 C 470.769531 255.070312 448.867188 259.738281 426.96875 261.507812 C 427.011719 261.886719 427.011719 262.285156 427.035156 262.683594 C 427.078125 262.726562 427.078125 262.835938 427.121094 262.902344 C 427.5 262.75 427.875 262.660156 428.296875 262.617188 C 453.652344 260.582031 478.296875 254.785156 503.386719 251.179688 C 525.507812 248.015625 547.9375 245.933594 569.925781 241.910156 Z M 586.046875 457.414062 C 583.058594 439.847656 582.328125 422.28125 585.09375 404.691406 C 539.878906 404.007812 493.886719 396.527344 448.847656 402.789062 C 436.867188 440.710938 484.742188 455.6875 512.707031 457.765625 C 537.222656 459.582031 561.554688 457.414062 586.046875 457.414062 Z M 587.839844 335.359375 C 563.0625 335.246094 537.796875 335.160156 513.171875 337.59375 C 486.421875 340.246094 459.960938 340.292969 433.210938 341.707031 C 433.234375 342.96875 433.234375 344.25 433.277344 345.511719 C 433.855469 345.445312 434.429688 345.445312 435.007812 345.402344 C 455.113281 340.070312 476.859375 343.035156 497.363281 343.476562 C 523.183594 343.984375 547.382812 340.226562 572.828125 336.375 C 573.847656 336.242188 574.796875 336.375 575.574219 336.707031 C 579.003906 336.441406 582.4375 336.707031 585.847656 336.332031 C 586.824219 336.242188 587.441406 335.910156 587.839844 335.359375 Z M 598.734375 396.507812 C 599.445312 395.753906 599.3125 393.675781 599 391.617188 C 543 389.292969 487.574219 390.046875 431.597656 393.210938 C 432.015625 394.539062 432.992188 395.179688 435.273438 395.246094 C 438.195312 395.355469 441.117188 395.070312 444.085938 394.9375 C 492.160156 387.703125 540.984375 395.996094 589.234375 396.261719 C 589.480469 396.261719 589.722656 396.308594 589.964844 396.328125 C 590.832031 396.394531 591.695312 396.707031 592.425781 397.214844 C 593.109375 397.214844 593.796875 397.214844 594.484375 397.191406 C 595.503906 397.148438 597.917969 397.347656 598.734375 396.507812 Z M 605.246094 441.859375 C 605.222656 441.019531 605.179688 440.15625 605.179688 439.335938 C 600.839844 439.382812 596.519531 439.316406 592.226562 439.316406 C 592.667969 444.890625 593.421875 450.421875 594.417969 455.996094 C 594.617188 455.996094 594.839844 455.996094 595.058594 455.996094 C 595.28125 453.074219 595.789062 450.15625 596.035156 447.234375 C 596.167969 445.6875 596.917969 444.601562 597.9375 443.9375 C 598.492188 443.121094 599.265625 442.433594 600.285156 442.257812 C 601.945312 441.992188 603.585938 441.882812 605.246094 441.859375 Z M 550.992188 470.15625 C 569.859375 467.609375 588.792969 468.453125 607.769531 468.429688 C 607.746094 468.253906 607.679688 468.074219 607.679688 467.875 C 607.59375 467.300781 607.527344 466.75 607.460938 466.171875 C 600.882812 466.171875 592.644531 466.171875 592.644531 466.171875 C 591.980469 466.171875 591.429688 466.085938 590.917969 465.90625 C 570.503906 465.664062 549.730469 467.5 529.160156 467.28125 C 528.984375 482.566406 529.425781 497.875 529.46875 513.164062 C 529.46875 513.230469 529.425781 513.273438 529.425781 513.296875 C 534.628906 513.339844 539.832031 513.273438 545.039062 513.230469 C 545.039062 500.929688 545.039062 488.671875 545.039062 476.371094 C 545.039062 473.851562 546.433594 472.300781 548.203125 471.617188 C 548.847656 470.863281 549.796875 470.289062 550.992188 470.15625 Z M 612.375 311.132812 C 612.375 311.109375 612.375 311.066406 612.332031 311.023438 C 609.1875 288.300781 608.480469 265.003906 606.816406 242.109375 C 605.222656 220.757812 602.257812 198.855469 602.300781 177.398438 C 601.59375 177.285156 600.882812 177.152344 600.195312 177.042969 C 599.132812 200.492188 602.542969 224.941406 603.785156 248.214844 C 605.046875 271.023438 606.308594 293.765625 607.59375 316.574219 C 609.1875 314.761719 610.804688 312.96875 612.375 311.132812 Z M 622.804688 468.1875 C 623.402344 458.207031 621.808594 448.339844 621.367188 438.386719 C 618.820312 438.695312 616.25 438.894531 613.660156 439.070312 C 613.859375 448.71875 615.078125 458.273438 616.183594 467.875 C 616.183594 468.054688 616.183594 468.1875 616.183594 468.363281 C 618.375 468.320312 620.589844 468.253906 622.804688 468.1875 Z M 634.121094 522.433594 C 634.164062 520.332031 634.1875 518.230469 634.230469 516.128906 C 607.238281 519.179688 580.136719 521.039062 552.855469 521.328125 C 552.632812 521.394531 552.390625 521.480469 552.101562 521.527344 C 533.746094 524.511719 516.007812 528.714844 497.230469 528.449219 C 476.171875 528.117188 455.222656 526.214844 434.253906 528.761719 C 432.992188 528.894531 432.039062 528.5625 431.375 527.941406 C 430.84375 527.742188 430.3125 527.433594 429.824219 526.925781 C 427.722656 524.886719 425.484375 523.074219 423.136719 521.394531 C 422.449219 526.792969 422.230469 532.300781 422.761719 537.652344 C 459.253906 536.835938 495.523438 533.183594 532.015625 532.058594 C 551.125 531.4375 570.28125 530.484375 589.28125 528.316406 C 604.203125 526.59375 619.085938 523.25 634.121094 522.433594 Z M 636.976562 486.0625 C 636.867188 482.589844 636.910156 479.160156 636.402344 475.753906 C 609.277344 478.453125 582.214844 475.222656 555.246094 478.140625 C 555.246094 482.078125 555.246094 486.792969 555.246094 491.660156 C 582.613281 491.394531 609.742188 488.164062 636.976562 486.0625 Z M 655.378906 530.550781 C 655.335938 530.417969 655.269531 530.332031 655.269531 530.152344 C 654.558594 524.710938 655.246094 519.046875 653.539062 513.78125 C 649.929688 514.246094 646.320312 514.691406 642.734375 515.132812 C 642.667969 518.605469 642.492188 522.101562 642.601562 525.574219 C 642.667969 526.039062 642.667969 526.480469 642.625 526.945312 C 642.667969 528.207031 642.824219 529.46875 643 530.730469 C 647.140625 530.683594 651.261719 530.664062 655.378906 530.550781 Z M 662.554688 445.398438 C 662.507812 445.332031 662.507812 445.289062 662.488281 445.222656 C 662.488281 445.15625 662.507812 445.046875 662.488281 444.980469 C 651.703125 444.667969 640.917969 444.582031 630.488281 447.5 C 631.066406 454.226562 631.707031 460.953125 631.332031 467.699219 C 633.480469 467.542969 635.582031 467.347656 637.730469 467.125 C 637.972656 462.347656 637.972656 457.722656 637.972656 452.589844 C 637.972656 450.222656 639.015625 448.71875 640.34375 447.964844 C 641.207031 446.75 642.667969 446.171875 644.085938 446.238281 C 644.507812 446.128906 644.90625 446.0625 645.347656 446.0625 C 651.128906 446.238281 656.839844 445.90625 662.554688 445.398438 Z M 662.375 567.632812 C 662.574219 565.285156 662.730469 562.941406 662.820312 560.617188 C 644.394531 565.175781 627.742188 577.476562 610.226562 584.667969 C 600.085938 588.847656 590.519531 594.15625 580.777344 598.9375 C 606.574219 598.027344 632.394531 598.027344 657.882812 593.273438 C 659.078125 584.667969 661.667969 576.304688 662.375 567.632812 Z M 664.035156 538.847656 C 664.035156 538.648438 664.035156 538.449219 664.035156 538.273438 C 650.441406 539.09375 640.675781 539.226562 640.675781 539.226562 C 637.375 539.226562 635.292969 537.253906 635.183594 535.21875 C 635.117188 535.042969 635.050781 534.867188 635.007812 534.710938 C 634.761719 533.449219 634.675781 532.1875 634.519531 530.929688 C 617.292969 531.792969 600.085938 535.863281 582.925781 537.453125 C 563.835938 539.226562 544.792969 540.132812 525.660156 540.683594 C 488.550781 541.722656 451.703125 545.773438 414.566406 546.328125 C 411.003906 546.394531 367.710938 548.628906 367.46875 547.476562 C 369.039062 557.832031 370.769531 568.160156 373.425781 578.316406 C 378.9375 575.066406 382.4375 570.640625 381.550781 563.007812 C 380.910156 557.566406 389.414062 557.632812 390.054688 563.007812 C 391.449219 575.085938 384.097656 582.960938 373.824219 587.675781 C 373.292969 588.207031 372.671875 588.714844 371.898438 588.890625 C 360.140625 591.746094 346.964844 583.207031 344.859375 571.214844 C 343.90625 565.859375 352.101562 563.582031 353.054688 568.9375 C 354.070312 574.867188 359.273438 580.019531 365.253906 580.839844 C 362.441406 569.933594 360.648438 558.824219 358.941406 547.675781 C 340.742188 548.117188 322.515625 548.382812 304.269531 547.984375 C 291.074219 547.71875 278.117188 546.414062 265.097656 545.398438 C 265.230469 550.152344 265.429688 555.042969 265.875 559.953125 C 292.867188 566.058594 311.378906 566.304688 322.714844 567.453125 C 334.519531 568.09375 339.035156 568.804688 339.035156 569.535156 C 339.035156 570.199219 334.519531 570.773438 322.628906 571.058594 C 311.402344 570.816406 293.15625 571.125 266.492188 565.308594 C 266.847656 568.207031 267.335938 571.058594 267.957031 573.871094 C 292.710938 578.226562 309.605469 577.808594 319.96875 578.691406 C 330.730469 579.203125 334.804688 579.84375 334.804688 580.550781 C 334.804688 581.238281 330.6875 581.878906 319.925781 582.300781 C 314.546875 582.496094 307.460938 582.476562 298.378906 582.234375 C 293.820312 581.921875 288.792969 581.589844 283.210938 581.214844 C 278.894531 580.660156 274.265625 579.953125 269.351562 579.203125 C 270.746094 583.957031 272.539062 588.539062 275.0625 592.761719 C 284.851562 609.15625 297.050781 613.074219 315.253906 612.253906 C 345.945312 610.859375 376.238281 603.492188 406.996094 601.324219 C 439.589844 599.003906 471.566406 598.539062 504.027344 593.980469 C 516.761719 592.1875 529.601562 590.925781 542.492188 590.417969 C 554.359375 589.929688 566.5625 591.304688 578.253906 588.890625 C 590.699219 586.304688 601.613281 579.136719 613.328125 574.488281 C 620.523438 571.589844 627.210938 567.832031 633.921875 564.113281 C 631.882812 564.402344 629.847656 564.667969 627.808594 564.84375 C 615.785156 565.992188 604.40625 565.925781 593.710938 566.679688 C 582.992188 567.253906 572.917969 568.871094 563.128906 570.199219 C 553.363281 571.503906 544.175781 573.027344 535.382812 573.804688 C 526.570312 574.710938 518.289062 575.59375 510.425781 576.414062 C 502.5 576.703125 495.082031 576.96875 488.085938 577.210938 C 484.585938 577.34375 481.21875 577.433594 477.941406 577.542969 C 474.6875 577.5 471.519531 577.476562 468.488281 577.476562 C 462.398438 577.410156 456.773438 577.34375 451.503906 577.253906 C 446.234375 577.101562 441.472656 577.367188 437.042969 577.5 C 432.660156 577.566406 428.605469 578.09375 424.953125 578.359375 C 417.558594 578.9375 411.644531 579.402344 407.015625 579.777344 C 397.714844 579.910156 393.730469 579.777344 393.730469 579.402344 C 393.730469 579.070312 397.714844 578.558594 406.839844 577.808594 C 411.445312 577.234375 417.3125 576.457031 424.644531 575.507812 C 428.339844 575.085938 432.347656 574.445312 436.867188 574.289062 C 441.363281 574.003906 446.253906 573.605469 451.503906 573.671875 C 456.730469 573.605469 462.398438 573.558594 468.464844 573.539062 C 471.519531 573.492188 474.664062 573.472656 477.921875 573.472656 C 481.152344 573.292969 484.519531 573.160156 487.953125 572.984375 C 494.882812 572.652344 502.234375 572.300781 510.050781 571.945312 C 517.84375 571.058594 526.105469 570.132812 534.808594 569.113281 C 543.574219 568.292969 552.722656 566.746094 562.441406 565.375 C 567.269531 564.710938 572.273438 563.980469 577.367188 563.226562 C 582.570312 562.652344 587.90625 561.921875 593.355469 561.679688 C 604.269531 560.90625 615.652344 560.925781 627.324219 559.777344 C 635.714844 559.003906 644.285156 557.542969 652.789062 554.910156 C 654.671875 554.203125 656.597656 553.5625 658.546875 552.984375 C 659.941406 552.476562 661.335938 551.921875 662.730469 551.304688 L 662.996094 551.902344 C 663.019531 551.902344 663.0625 551.855469 663.128906 551.855469 C 663.171875 549.246094 663.195312 546.636719 663.195312 544.003906 C 652.144531 545.53125 641.539062 546.835938 631.332031 548.605469 C 625.617188 549.554688 620.039062 550.441406 614.613281 551.304688 C 609.144531 552.121094 603.761719 552.875 598.558594 553.648438 C 588.128906 555.417969 578.03125 555.972656 568.464844 556.855469 C 558.878906 557.765625 549.929688 558.117188 541.40625 558.714844 C 507.238281 560.617188 480.601562 562.808594 460.273438 564.179688 C 450.0625 564.910156 441.472656 565.484375 434.296875 565.992188 C 427.121094 566.589844 421.300781 566.324219 416.828125 566.4375 C 407.792969 566.390625 403.917969 566.191406 403.917969 565.816406 C 403.917969 565.484375 407.792969 565 416.738281 564.421875 C 421.210938 564.046875 426.945312 564.023438 434.074219 563.140625 C 441.226562 562.433594 449.796875 561.613281 459.960938 560.597656 C 480.265625 558.757812 506.882812 556.214844 541.117188 554.003906 C 549.664062 553.363281 558.8125 552.941406 568.199219 551.988281 C 577.609375 551.082031 587.621094 550.507812 597.9375 548.695312 C 603.140625 547.917969 608.589844 547.144531 614.035156 546.328125 C 619.460938 545.441406 625.242188 544.511719 630.953125 543.605469 C 641.296875 541.769531 650.441406 540.441406 664.035156 538.847656 Z M 672.539062 529.734375 C 672.695312 523.496094 671.964844 517.410156 670.039062 511.503906 C 667.378906 511.878906 664.703125 512.257812 662.042969 512.589844 C 663.59375 518.296875 662.996094 524.335938 663.769531 530.152344 C 663.769531 530.21875 663.769531 530.242188 663.769531 530.285156 C 666.695312 530.152344 669.617188 529.976562 672.539062 529.734375 Z M 678.386719 291.332031 C 680.246094 280.691406 683.324219 269.695312 685.140625 258.789062 C 669.285156 276.242188 653.363281 293.609375 637.597656 311.109375 C 624.886719 325.203125 612.199219 339.296875 599.6875 353.609375 C 593.109375 361.066406 584.960938 368.675781 579.914062 377.371094 C 580.46875 379.117188 580.910156 380.84375 581.152344 382.480469 C 587.972656 382.679688 594.839844 382.945312 601.726562 383.234375 C 601.859375 383.253906 601.945312 383.253906 602.101562 383.300781 C 602.234375 383.253906 602.390625 383.234375 602.566406 383.234375 C 605.089844 383.234375 606.550781 385.203125 606.816406 387.457031 C 607.371094 392.082031 608.988281 399.09375 604.714844 402.523438 C 601.304688 405.265625 597.519531 405.511719 593.53125 405.644531 C 592.160156 414.027344 591.582031 422.433594 591.78125 430.820312 C 608.324219 430.910156 626.304688 431.96875 641.207031 423.894531 C 648.402344 409.515625 648.582031 394.292969 652.722656 379.050781 C 656.417969 365.445312 661.226562 352.171875 665.542969 338.742188 C 670.546875 323.191406 675.597656 307.460938 678.386719 291.332031 Z M 687.242188 480.621094 C 688.261719 477.078125 689.214844 473.519531 690.035156 469.957031 C 676.148438 472.234375 662.242188 473.828125 648.160156 474.070312 C 648.09375 477.65625 647.917969 481.261719 647.628906 484.867188 C 647.585938 484.976562 647.5625 485.066406 647.5625 485.175781 C 660.847656 484.378906 673.980469 482.144531 687.242188 480.621094 Z M 690.101562 240.667969 C 689.722656 240.402344 689.347656 240.160156 688.96875 239.9375 C 644.59375 273.125 620.65625 326.75 574.113281 357.746094 C 573.980469 357.8125 573.847656 357.878906 573.734375 357.945312 C 574.246094 361.042969 575.261719 364.230469 576.394531 367.390625 C 581.042969 361.132812 586.867188 355.355469 591.828125 349.695312 C 604.957031 334.714844 618.242188 319.894531 631.574219 305.09375 C 651.015625 283.589844 670.679688 262.238281 690.101562 240.667969 Z M 692.980469 527.234375 C 691.804688 520.972656 691.25 514.625 691.25 508.382812 C 691.25 508.339844 691.25 508.339844 691.25 508.339844 C 687.839844 508.980469 682.925781 509.558594 679.007812 510.175781 C 680.886719 516.214844 681.617188 522.566406 681.53125 528.9375 C 685.359375 528.449219 689.167969 527.941406 692.980469 527.234375 Z M 691.960938 461.0625 C 692.710938 457.324219 693.464844 453.585938 694.152344 449.800781 C 678.851562 451.703125 663.683594 454.601562 648.203125 454.558594 C 648.226562 458.230469 648.269531 461.902344 648.269531 465.574219 C 662.996094 465.332031 677.476562 463.605469 691.960938 461.0625 Z M 701.460938 497.855469 C 699.578125 497.410156 697.671875 497.125 696.101562 496.59375 C 691.9375 495.15625 688.769531 492.921875 686.867188 489.136719 C 672.074219 490.886719 657.414062 493.453125 642.511719 493.871094 C 642.070312 494.046875 641.628906 494.179688 641.097656 494.203125 C 612.464844 496.304688 583.964844 499.84375 555.246094 500.15625 C 555.246094 505.109375 555.246094 509.667969 555.246094 512.789062 C 604.382812 512.101562 653.074219 506.261719 701.460938 497.855469 Z M 706.882812 523.695312 C 705.976562 517.675781 706.042969 511.660156 706.175781 505.621094 C 703.628906 506.0625 701.105469 506.480469 698.558594 506.925781 C 699.398438 513.050781 699.554688 519.3125 700.773438 525.417969 C 702.808594 524.910156 704.847656 524.3125 706.882812 523.695312 Z M 715.1875 522.234375 C 715.386719 523.5625 715.078125 524.691406 714.4375 525.574219 C 715.167969 527.632812 714.503906 530.285156 711.777344 531.128906 C 701.28125 534.535156 685.671875 536.503906 671.699219 537.632812 C 671.742188 547.609375 672.007812 557.699219 670.878906 567.632812 C 669.773438 577.234375 666.980469 586.546875 666.03125 596.125 C 665.941406 596.898438 665.71875 597.542969 665.34375 598.117188 C 665.101562 599.488281 664.191406 600.707031 662.355469 601.082031 C 627.144531 608.007812 591.382812 605.839844 555.820312 608.847656 C 555.710938 608.847656 555.6875 608.847656 555.578125 608.847656 C 553.738281 609.332031 551.878906 609.777344 549.976562 610.152344 C 526.191406 614.644531 501.746094 611.457031 478.1875 616.035156 C 455.820312 620.351562 435.140625 622.078125 412.285156 622.71875 C 368.421875 623.980469 317.800781 643.847656 274.574219 630.460938 C 258.765625 625.570312 251.257812 610.773438 245.101562 596.746094 C 236.203125 576.480469 232.480469 556.679688 210.78125 546.855469 C 210.492188 546.703125 210.183594 546.523438 209.9375 546.347656 C 205.863281 545.265625 201.878906 543.605469 197.628906 543.472656 C 197.230469 543.472656 196.851562 543.363281 196.476562 543.273438 C 195.988281 543.230469 195.546875 543.230469 195.082031 543.183594 C 190.828125 542.851562 189.921875 537.566406 192.355469 535.507812 C 195.5 529.292969 197.761719 522.125 197.9375 515.175781 C 197.980469 513.738281 198.558594 512.699219 199.421875 512.011719 C 199.796875 511.0625 200.527344 510.355469 201.613281 510.355469 C 219.503906 510.355469 237.351562 510.355469 255.066406 510.355469 C 246.011719 503.007812 236.6875 495.199219 226.945312 489.378906 C 219.503906 484.976562 211.378906 482.035156 204.867188 476.195312 C 190.253906 481.636719 172.847656 482.125 158.523438 480.6875 C 135.914062 478.453125 119.460938 468.453125 109.363281 448.144531 C 107.457031 448.695312 105.511719 449.160156 103.582031 449.601562 C 102.519531 449.847656 101.613281 449.714844 100.859375 449.359375 C 99.066406 449.78125 97.292969 448.917969 96.210938 447.367188 C 93.550781 443.585938 92.113281 439.335938 91.691406 434.757812 C 91.515625 433.164062 92.554688 431.769531 93.949219 431.0625 C 94.4375 430.511719 95.035156 430.066406 95.921875 429.800781 C 100.792969 428.363281 105.488281 426.527344 110.070312 424.492188 C 85.933594 407.414062 60.359375 392.390625 37.949219 372.921875 C 36.6875 371.839844 36.355469 370.511719 36.664062 369.339844 C 35.515625 367.96875 35.136719 365.933594 36.15625 364.40625 C 36.597656 363.71875 36.664062 363.253906 36.6875 362.304688 C 36.6875 361.863281 36.796875 361.441406 36.910156 361.066406 C 36.488281 358.253906 39.742188 354.828125 43.351562 356.351562 C 60.183594 363.453125 75.285156 373.277344 90.207031 383.519531 C 124.972656 348.675781 170.613281 323.984375 211.601562 297.371094 C 233.742188 283.035156 254.847656 267.617188 276.371094 252.460938 C 278.894531 250.691406 281.527344 249.03125 284.140625 247.460938 C 284.03125 247.261719 283.964844 247.019531 283.941406 246.796875 C 283.191406 241.332031 283.011719 235.957031 284.40625 230.714844 C 283.078125 230.691406 281.726562 230.648438 280.398438 230.648438 C 278.894531 230.625 277.808594 229.941406 277.121094 229.03125 C 275.726562 228.457031 274.6875 227.21875 274.707031 225.25 C 275.0625 203.371094 302.386719 209.519531 318.355469 209.960938 C 324.488281 210.140625 330.6875 210.339844 336.910156 210.515625 C 338.992188 184.277344 334.628906 158.328125 334.207031 132.132812 C 334.207031 131.734375 334.253906 131.359375 334.363281 130.980469 C 334.386719 129.34375 335.316406 127.75 337.351562 127.175781 C 341.9375 125.894531 346.519531 125.960938 351.214844 126.601562 C 351.703125 126.667969 352.078125 126.867188 352.453125 127.109375 C 353.984375 127.617188 355.246094 128.878906 355.199219 130.980469 C 354.957031 145.316406 357.660156 159.144531 359.785156 173.238281 C 361.667969 185.738281 362.066406 198.390625 364.101562 210.824219 C 364.101562 210.914062 364.101562 210.980469 364.101562 211.046875 C 379.847656 211.179688 395.570312 210.914062 411.003906 209.695312 C 411.269531 209.652344 411.46875 209.695312 411.710938 209.695312 C 413.882812 209.628906 416.09375 211.332031 416.09375 214.785156 C 416.09375 218.191406 416.140625 220.160156 416.40625 222.90625 C 416.515625 223.964844 416.027344 224.917969 415.320312 225.667969 C 415.144531 225.890625 414.945312 226.113281 414.699219 226.3125 C 414.300781 226.710938 413.792969 227.0625 413.171875 227.285156 C 397.804688 235.117188 392.535156 269.253906 413.285156 274.097656 C 417.734375 275.160156 416.894531 281.066406 413.304688 282.21875 C 412.972656 282.394531 412.597656 282.527344 412.152344 282.59375 C 398.203125 284.628906 383.941406 285.867188 369.570312 286.53125 C 370.546875 292.039062 370.746094 296.554688 370.769531 304.164062 C 374.289062 304.296875 377.765625 304.519531 381.242188 304.804688 C 382.394531 304.914062 383.277344 305.402344 383.941406 306.042969 C 385.160156 306.640625 386.070312 307.835938 386.070312 309.648438 C 386.070312 312.726562 386.269531 315.777344 386.511719 318.875 C 396.210938 318.789062 405.910156 318.566406 415.542969 318.125 C 422.25 317.859375 432.59375 318.433594 432.59375 327.859375 C 432.59375 330.09375 431.949219 331.882812 430.933594 333.320312 C 447.074219 332.394531 463.152344 331.796875 479.25 331.042969 C 478.9375 328.144531 478.472656 325.269531 478.164062 322.371094 C 478.007812 320.910156 478.894531 319.582031 480.132812 318.855469 C 480.777344 317.769531 481.882812 317.015625 483.566406 316.972656 C 485.914062 316.972656 488.285156 316.949219 490.628906 316.949219 C 490.628906 316.839844 490.628906 316.773438 490.628906 316.707031 C 491.140625 311.175781 491.140625 305.625 490.675781 300.09375 C 483.433594 298.964844 476.148438 297.878906 468.773438 297.4375 C 457.480469 296.730469 438.925781 299.695312 428.804688 293.765625 C 420.835938 289.097656 422.449219 278.765625 423.402344 270.847656 C 421.34375 269.894531 419.703125 268.167969 419.019531 265.691406 C 418.308594 262.992188 418.554688 260.269531 418.375 257.527344 C 418.242188 255.226562 420.414062 253.28125 422.628906 253.28125 C 422.761719 253.28125 422.871094 253.347656 423.003906 253.390625 C 423.179688 253.347656 423.3125 253.324219 423.46875 253.28125 C 444.460938 251.929688 465.628906 247.96875 486.601562 244.476562 C 486.136719 242.4375 485.824219 240.382812 485.804688 238.300781 C 485.804688 238.234375 485.824219 238.191406 485.824219 238.167969 C 468.664062 240.46875 451.347656 241.554688 433.410156 240.269531 C 433.101562 240.226562 432.835938 240.203125 432.59375 240.136719 C 430.445312 240.136719 428.296875 238.765625 428.296875 236.023438 C 428.164062 222.507812 430.6875 207.726562 424.488281 195.160156 C 419.835938 194.984375 418.132812 187.75 423.203125 186.910156 C 440.808594 183.96875 458.457031 181.535156 476.171875 179.300781 C 476.523438 156.621094 471.519531 134.390625 471.078125 111.757812 C 471.054688 110.007812 471.875 108.859375 472.980469 108.214844 C 473.757812 107.066406 475.0625 106.246094 476.457031 106.359375 C 479.46875 106.625 482.503906 106.667969 485.539062 106.933594 C 486.136719 107 486.734375 107.15625 487.265625 107.398438 C 489.167969 107.621094 490.941406 108.96875 490.917969 111.445312 C 490.917969 112.507812 490.941406 113.527344 490.984375 114.566406 C 503.828125 110.695312 515.078125 114.125 527.632812 120.515625 C 532.0625 122.796875 553.871094 137.199219 557.238281 129.984375 C 557.835938 128.746094 558.699219 128.0625 559.695312 127.863281 C 561.867188 126.84375 564.832031 127.441406 565.566406 130.429688 C 569.21875 144.917969 556.796875 154.566406 548.601562 164.585938 C 547.761719 165.605469 546.765625 166.003906 545.8125 166.003906 C 529.359375 169.433594 515.078125 157.417969 498.492188 161.003906 C 499.445312 166.070312 500.285156 171.136719 500.839844 176.269531 C 518.6875 174.121094 536.578125 172.085938 554.382812 169.785156 C 559.828125 169.054688 559.761719 177.597656 554.382812 178.28125 C 550.375 178.789062 546.386719 179.300781 542.378906 179.765625 C 540.296875 192.839844 536.953125 209.585938 548.601562 218.878906 C 549.796875 219.785156 550.175781 220.914062 550.042969 221.996094 C 550.242188 223.832031 549.398438 225.734375 547.007812 226.246094 C 533.613281 229.230469 520.414062 232.175781 507.304688 234.675781 C 507.503906 235.136719 507.636719 235.691406 507.636719 236.289062 C 507.660156 237.882812 507.792969 239.453125 507.96875 241.023438 C 529.292969 237.308594 550.242188 231.132812 571.964844 230.648438 C 573.734375 230.582031 574.929688 231.464844 575.550781 232.660156 C 577.078125 233.300781 578.03125 234.828125 578.1875 236.597656 C 578.472656 239.519531 578.472656 242.4375 578.472656 245.359375 C 578.472656 247.570312 577.101562 248.855469 575.460938 249.296875 C 575.085938 249.476562 574.6875 249.652344 574.222656 249.738281 C 569.59375 250.625 564.898438 251.378906 560.226562 252.085938 C 558.058594 261.597656 550.550781 267.351562 563.636719 272.75 C 569.792969 275.292969 571.941406 281.488281 573.226562 287.550781 C 573.847656 290.46875 571.964844 292.613281 569.109375 292.925781 C 553.230469 294.71875 537.730469 304.960938 521.609375 304.097656 C 519.261719 303.964844 516.960938 303.789062 514.613281 303.566406 C 514.878906 308.011719 515.429688 312.460938 515.71875 316.949219 C 521.34375 317.039062 526.945312 317.328125 532.546875 317.835938 C 534.296875 317.992188 535.492188 318.984375 536.089844 320.203125 C 537.355469 321.265625 537.863281 322.945312 537.53125 324.628906 C 537.332031 325.667969 537.089844 326.730469 536.84375 327.792969 C 555.246094 326.996094 573.691406 326.839844 592.070312 326.90625 C 592.910156 326.90625 593.621094 327.128906 594.21875 327.480469 C 594.949219 327.636719 595.636719 328.011719 596.167969 328.566406 C 597.472656 327.261719 598.757812 325.976562 600.042969 324.648438 C 599.710938 324.117188 599.488281 323.433594 599.445312 322.660156 C 598.050781 297.859375 596.652344 273.058594 595.28125 248.214844 C 593.976562 223.921875 590.300781 198.347656 591.78125 174.035156 C 591.828125 173.480469 591.960938 173.039062 592.136719 172.597656 C 592.136719 172.484375 592.070312 172.417969 592.070312 172.332031 C 592.070312 170.164062 593.996094 167.882812 596.320312 168.082031 C 599.953125 168.414062 603.519531 168.988281 607.082031 169.632812 C 608.015625 169.808594 608.722656 170.363281 609.277344 171.070312 C 610.183594 171.753906 610.804688 172.796875 610.757812 174.300781 C 610.425781 196.753906 613.660156 219.742188 615.320312 242.109375 C 616.78125 261.90625 617.46875 282.835938 619.75 302.394531 C 640.34375 277.527344 659.496094 251.066406 685.691406 231.777344 C 685.847656 231.710938 685.980469 231.644531 686.09375 231.578125 C 686.179688 231.464844 686.3125 231.445312 686.425781 231.378906 C 686.492188 231.332031 686.558594 231.3125 686.625 231.265625 C 687.886719 230.582031 689.457031 230.515625 690.851562 231.222656 C 693.996094 232.835938 697.007812 234.941406 699.355469 237.550781 C 700.90625 239.253906 701.039062 241.863281 699.355469 243.566406 C 699 243.898438 698.558594 244.1875 698.070312 244.386719 C 697.960938 244.585938 697.804688 244.785156 697.652344 244.960938 C 696.722656 246 695.769531 247.019531 694.816406 248.082031 C 693.996094 263.167969 689.546875 278.789062 686.601562 293.566406 C 683.367188 309.671875 678.875 325.402344 673.734375 341 C 668.222656 357.769531 661.734375 374.515625 658.765625 391.992188 C 656.597656 404.957031 654.292969 417.234375 648.160156 428.984375 C 647.628906 430 646.875 430.621094 646.011719 430.886719 C 645.96875 430.953125 645.878906 431.019531 645.789062 431.0625 C 640.71875 433.875 635.359375 435.710938 629.804688 436.96875 C 629.847656 437.613281 629.847656 438.253906 629.871094 438.871094 C 644.195312 435.265625 659.011719 436.617188 673.667969 436.726562 C 674.046875 436.726562 674.355469 436.792969 674.6875 436.859375 C 683.101562 437.746094 691.449219 438.894531 699.753906 440.578125 C 699.886719 440.597656 700.019531 440.664062 700.152344 440.710938 C 702.921875 440.84375 703.960938 443.496094 703.363281 445.84375 C 703.363281 446.171875 703.363281 446.550781 703.273438 446.925781 C 700.90625 459.757812 698.691406 472.675781 694.773438 485.132812 C 694.707031 485.308594 694.660156 485.441406 694.59375 485.621094 C 696.320312 488.804688 701.082031 489.046875 704.273438 489.933594 C 708.613281 491.105469 712.507812 493.097656 714.746094 497.167969 C 715.609375 498.648438 715.433594 500.109375 714.746094 501.28125 C 714.613281 508.230469 713.992188 515.332031 715.1875 522.234375 " fill-opacity="1" fill-rule="nonzero"/></g><path fill="#000000" d="M 590.234375 540.351562 C 592.535156 540.132812 594.0625 542.453125 594.0625 544.578125 C 594.0625 547.078125 592.402344 548.628906 590.097656 548.828125 C 587.375 549.113281 582.4375 549.136719 582.4375 549.136719 C 575.640625 549.136719 575.640625 540.640625 582.4375 540.640625 C 582.4375 540.640625 587.507812 540.617188 590.234375 540.351562 " fill-opacity="1" fill-rule="nonzero"/><path fill="#000000" d="M 534.828125 544.3125 C 541.648438 544.3125 541.648438 551.105469 534.828125 551.105469 C 531.441406 551.105469 531.441406 551.105469 531.441406 551.105469 C 524.644531 551.105469 524.644531 544.3125 531.441406 544.3125 C 531.441406 544.3125 531.441406 544.3125 534.828125 544.3125 " fill-opacity="1" fill-rule="nonzero"/><path fill="#000000" d="M 493.332031 550.839844 C 493.886719 552.917969 492.644531 555.664062 490.363281 556.058594 C 488.550781 556.371094 486.777344 556.480469 484.960938 556.480469 C 479.46875 556.503906 479.46875 548.03125 484.960938 547.984375 C 486.003906 547.984375 487.066406 548.050781 488.085938 547.851562 C 490.363281 547.476562 492.644531 548.429688 493.332031 550.839844 " fill-opacity="1" fill-rule="nonzero"/><path fill="#000000" d="M 448.535156 552.808594 C 449.222656 555.265625 447.714844 557.121094 445.589844 558.050781 C 444.152344 558.648438 442.578125 558.757812 441.050781 558.757812 C 435.539062 558.78125 435.539062 550.285156 441.050781 550.265625 C 441.9375 550.265625 442.492188 550.199219 443.289062 549.84375 C 445.4375 548.9375 448.003906 550.796875 448.535156 552.808594 " fill-opacity="1" fill-rule="nonzero"/><path fill="#000000" d="M 409.03125 551.105469 C 415.828125 551.105469 415.828125 561.304688 409.03125 561.304688 C 405.621094 561.304688 402.234375 561.304688 402.234375 561.304688 C 395.414062 561.304688 395.414062 551.105469 402.234375 551.105469 C 405.621094 551.105469 405.621094 551.105469 409.03125 551.105469 " fill-opacity="1" fill-rule="nonzero"/><path fill="#000000" d="M 310.425781 554.511719 C 313.816406 554.511719 313.816406 561.304688 310.425781 561.304688 C 307.015625 561.304688 303.605469 561.304688 303.605469 561.304688 C 300.21875 561.304688 300.21875 554.511719 303.605469 554.511719 C 307.015625 554.511719 307.015625 554.511719 310.425781 554.511719 " fill-opacity="1" fill-rule="nonzero"/></svg>