<svg xmlns="http://www.w3.org/2000/svg" xmlns:xlink="http://www.w3.org/1999/xlink" width="1000" zoomAndPan="magnify" viewBox="0 0 750 749.999995" height="1000" preserveAspectRatio="xMidYMid meet" version="1.0"><defs><clipPath id="id1"><path d="M 75 368 L 704.25 368 L 704.25 637 L 75 637 Z M 75 368 " clip-rule="nonzero"/></clipPath></defs><g clip-path="url(#id1)"><path fill="#393536" d="M 75.136719 411.417969 L 219.363281 435.453125 L 219.363281 460.53125 L 482.738281 458.441406 L 482.738281 436.492188 L 521.40625 436.492188 C 521.40625 436.492188 515.132812 408.285156 542.3125 402.007812 C 569.480469 395.738281 704.304688 368.566406 704.304688 368.566406 L 643.683594 561.902344 C 643.683594 561.902344 635.324219 611.015625 570.527344 626.695312 C 513.496094 640.492188 254.90625 640.28125 204.734375 623.5625 C 170.109375 612.011719 146.207031 581.761719 135.757812 556.675781 C 125.308594 531.597656 75.136719 411.417969 75.136719 411.417969 " fill-opacity="1" fill-rule="evenodd"/></g><path fill="#ffffff" d="M 122.789062 529.824219 C 131.335938 536.140625 145.144531 541.429688 163.019531 546 C 216.59375 559.664062 306.695312 566.421875 395.664062 566.429688 C 454.683594 566.429688 513.164062 563.441406 560.054688 557.460938 C 583.5 554.472656 604.050781 550.730469 620.355469 546.226562 C 636.667969 541.691406 648.738281 536.496094 655.402344 530.113281 L 652.761719 527.371094 C 647.0625 532.910156 635.375 538.144531 619.34375 542.550781 C 595.277344 549.214844 561.414062 554.246094 522.558594 557.59375 C 483.695312 560.945312 439.828125 562.628906 395.664062 562.628906 C 336.488281 562.628906 276.777344 559.609375 227.835938 553.589844 C 203.367188 550.578125 181.59375 546.816406 163.960938 542.3125 C 146.328125 537.820312 132.824219 532.539062 125.050781 526.769531 L 122.789062 529.824219 " fill-opacity="1" fill-rule="nonzero"/><path fill="#ffffff" d="M 137.417969 564.363281 C 145.535156 570.359375 158.113281 575.378906 174.152344 579.691406 C 222.246094 592.5625 301.625 598.71875 382.027344 598.726562 C 440.773438 598.726562 500.023438 595.421875 547.902344 588.988281 C 571.839844 585.765625 592.9375 581.769531 609.746094 576.976562 C 626.554688 572.164062 639.074219 566.671875 646.03125 560.011719 L 643.390625 557.269531 C 637.375 563.101562 625.234375 568.625 608.707031 573.316406 C 583.890625 580.394531 549.167969 585.804688 509.695312 589.433594 C 470.21875 593.0625 425.976562 594.917969 382.027344 594.917969 C 328.566406 594.917969 275.535156 592.179688 232.039062 586.566406 C 210.292969 583.765625 190.941406 580.242188 175.140625 576.011719 C 159.34375 571.785156 147.097656 566.808594 139.679688 561.300781 L 137.417969 564.363281 " fill-opacity="1" fill-rule="nonzero"/><path fill="#393536" d="M 237.660156 510.269531 C 237.660156 520.230469 229.585938 528.292969 219.625 528.292969 C 209.675781 528.292969 201.59375 520.230469 201.59375 510.269531 C 201.59375 500.3125 209.675781 492.246094 219.625 492.246094 C 229.585938 492.246094 237.660156 500.3125 237.660156 510.269531 " fill-opacity="1" fill-rule="nonzero"/><path fill="#ffffff" d="M 237.660156 510.269531 L 235.75 510.269531 C 235.75 514.730469 233.953125 518.75 231.027344 521.667969 C 228.105469 524.589844 224.085938 526.390625 219.625 526.390625 C 215.167969 526.390625 211.144531 524.589844 208.226562 521.667969 C 205.304688 518.75 203.503906 514.730469 203.503906 510.269531 C 203.503906 505.8125 205.304688 501.796875 208.226562 498.871094 C 211.144531 495.949219 215.167969 494.148438 219.625 494.148438 C 224.085938 494.148438 228.105469 495.949219 231.027344 498.871094 C 233.953125 501.796875 235.75 505.8125 235.75 510.269531 L 239.558594 510.269531 C 239.558594 499.261719 230.632812 490.34375 219.625 490.34375 C 208.617188 490.34375 199.691406 499.261719 199.691406 510.269531 C 199.691406 521.277344 208.617188 530.203125 219.625 530.203125 C 230.632812 530.203125 239.558594 521.277344 239.558594 510.269531 L 237.660156 510.269531 " fill-opacity="1" fill-rule="nonzero"/><path fill="#393536" d="M 333.28125 510.269531 C 333.28125 520.230469 325.207031 528.292969 315.257812 528.292969 C 305.296875 528.292969 297.234375 520.230469 297.234375 510.269531 C 297.234375 500.3125 305.296875 492.246094 315.257812 492.246094 C 325.207031 492.246094 333.28125 500.3125 333.28125 510.269531 " fill-opacity="1" fill-rule="nonzero"/><path fill="#ffffff" d="M 333.28125 510.269531 L 331.378906 510.269531 C 331.378906 514.730469 329.578125 518.75 326.65625 521.667969 C 323.730469 524.589844 319.714844 526.390625 315.257812 526.390625 C 310.796875 526.390625 306.777344 524.589844 303.855469 521.667969 C 300.9375 518.75 299.132812 514.730469 299.132812 510.269531 C 299.132812 505.8125 300.9375 501.796875 303.855469 498.871094 C 306.777344 495.949219 310.796875 494.148438 315.257812 494.148438 C 319.714844 494.148438 323.730469 495.949219 326.65625 498.871094 C 329.578125 501.796875 331.378906 505.8125 331.378906 510.269531 L 335.183594 510.269531 C 335.183594 499.261719 326.265625 490.34375 315.257812 490.34375 C 304.242188 490.34375 295.324219 499.261719 295.324219 510.269531 C 295.324219 521.277344 304.242188 530.203125 315.257812 530.203125 C 326.265625 530.203125 335.183594 521.277344 335.183594 510.269531 L 333.28125 510.269531 " fill-opacity="1" fill-rule="nonzero"/><path fill="#393536" d="M 425.058594 510.269531 C 425.058594 520.230469 416.984375 528.292969 407.03125 528.292969 C 397.074219 528.292969 389 520.230469 389 510.269531 C 389 500.3125 397.074219 492.246094 407.03125 492.246094 C 416.984375 492.246094 425.058594 500.3125 425.058594 510.269531 " fill-opacity="1" fill-rule="nonzero"/><path fill="#ffffff" d="M 425.058594 510.269531 L 423.15625 510.269531 C 423.148438 514.730469 421.351562 518.75 418.433594 521.667969 C 415.503906 524.589844 411.484375 526.390625 407.03125 526.390625 C 402.566406 526.390625 398.550781 524.589844 395.625 521.667969 C 392.703125 518.75 390.902344 514.730469 390.902344 510.269531 C 390.902344 505.8125 392.703125 501.796875 395.625 498.871094 C 398.550781 495.949219 402.566406 494.148438 407.03125 494.148438 C 411.484375 494.148438 415.503906 495.949219 418.433594 498.871094 C 421.351562 501.796875 423.148438 505.8125 423.15625 510.269531 L 426.957031 510.269531 C 426.957031 499.261719 418.03125 490.34375 407.03125 490.34375 C 396.015625 490.34375 387.097656 499.261719 387.097656 510.269531 C 387.097656 521.277344 396.015625 530.203125 407.03125 530.203125 C 418.03125 530.203125 426.957031 521.277344 426.957031 510.269531 L 425.058594 510.269531 " fill-opacity="1" fill-rule="nonzero"/><path fill="#393536" d="M 512.78125 502.589844 C 512.78125 512.539062 504.714844 520.613281 494.757812 520.613281 C 484.796875 520.613281 476.722656 512.539062 476.722656 502.589844 C 476.722656 492.632812 484.796875 484.558594 494.757812 484.558594 C 504.714844 484.558594 512.78125 492.632812 512.78125 502.589844 " fill-opacity="1" fill-rule="nonzero"/><path fill="#ffffff" d="M 512.78125 502.589844 L 510.878906 502.589844 C 510.878906 507.042969 509.074219 511.0625 506.15625 513.988281 C 503.230469 516.910156 499.214844 518.703125 494.757812 518.710938 C 490.296875 518.703125 486.277344 516.910156 483.347656 513.988281 C 480.429688 511.0625 478.625 507.042969 478.625 502.589844 C 478.625 498.132812 480.429688 494.109375 483.347656 491.183594 C 486.277344 488.261719 490.296875 486.460938 494.757812 486.460938 C 499.214844 486.460938 503.230469 488.261719 506.15625 491.183594 C 509.074219 494.109375 510.878906 498.132812 510.878906 502.589844 L 514.691406 502.589844 C 514.683594 491.582031 505.765625 482.65625 494.757812 482.65625 C 483.742188 482.65625 474.824219 491.582031 474.824219 502.589844 C 474.824219 513.589844 483.742188 522.515625 494.757812 522.515625 C 505.765625 522.515625 514.683594 513.589844 514.691406 502.589844 L 512.78125 502.589844 " fill-opacity="1" fill-rule="nonzero"/><path fill="#393536" d="M 631.144531 502.589844 L 569.214844 502.589844 L 569.214844 424.210938 L 631.144531 424.210938 L 631.144531 502.589844 " fill-opacity="1" fill-rule="nonzero"/><path fill="#ffffff" d="M 631.144531 502.589844 L 631.144531 500.679688 L 571.125 500.679688 L 571.125 426.113281 L 629.234375 426.113281 L 629.234375 502.589844 L 631.144531 502.589844 L 631.144531 500.679688 L 631.144531 502.589844 L 633.046875 502.589844 L 633.046875 422.304688 L 567.316406 422.304688 L 567.316406 504.492188 L 633.046875 504.492188 L 633.046875 502.589844 L 631.144531 502.589844 " fill-opacity="1" fill-rule="nonzero"/><path fill="#ffffff" d="M 598.792969 496.585938 L 574.601562 496.585938 L 574.601562 463.398438 L 598.792969 463.398438 L 598.792969 496.585938 " fill-opacity="1" fill-rule="nonzero"/><path fill="#ffffff" d="M 625.945312 496.585938 L 601.765625 496.585938 L 601.765625 463.398438 L 625.945312 463.398438 L 625.945312 496.585938 " fill-opacity="1" fill-rule="nonzero"/><path fill="#ffffff" d="M 598.792969 461.707031 L 574.601562 461.707031 L 574.601562 428.511719 L 598.792969 428.511719 L 598.792969 461.707031 " fill-opacity="1" fill-rule="nonzero"/><path fill="#ffffff" d="M 625.945312 461.707031 L 601.765625 461.707031 L 601.765625 428.511719 L 625.945312 428.511719 L 625.945312 461.707031 " fill-opacity="1" fill-rule="nonzero"/><path fill="#393536" d="M 115.9375 306.25 C 115.9375 302.492188 112.898438 299.449219 109.148438 299.449219 C 105.390625 299.449219 102.351562 302.492188 102.351562 306.25 C 102.351562 308.859375 103.84375 311.097656 106.007812 312.238281 L 106.007812 460.914062 L 112.277344 460.914062 L 112.277344 312.238281 C 114.445312 311.097656 115.9375 308.859375 115.9375 306.25 " fill-opacity="1" fill-rule="nonzero"/><path fill="#393536" d="M 394.789062 91.40625 C 394.789062 82.371094 387.453125 75.035156 378.40625 75.035156 C 369.359375 75.035156 362.027344 82.371094 362.027344 91.40625 C 362.027344 97.714844 365.625 103.125 370.847656 105.863281 L 370.847656 464.316406 L 385.96875 464.316406 L 385.96875 105.863281 C 391.179688 103.125 394.789062 97.714844 394.789062 91.40625 " fill-opacity="1" fill-rule="nonzero"/><path fill="#393536" d="M 569.214844 160.855469 C 569.214844 153.039062 562.871094 146.679688 555.039062 146.679688 C 547.207031 146.679688 540.863281 153.039062 540.863281 160.855469 C 540.863281 166.316406 543.976562 170.992188 548.492188 173.371094 L 548.492188 483.707031 L 561.589844 483.707031 L 561.589844 173.371094 C 566.101562 170.992188 569.214844 166.316406 569.214844 160.855469 " fill-opacity="1" fill-rule="nonzero"/><path fill="#393536" d="M 214.042969 379.398438 C 194.789062 367.695312 170.636719 392.976562 148.757812 392.976562 C 126.878906 392.976562 110.648438 379.398438 110.648438 379.398438 L 110.648438 315.257812 C 110.648438 315.257812 120.082031 326.949219 147.25 328.835938 C 174.417969 330.722656 188.761719 314.125 214.042969 315.257812 C 214.414062 336.757812 214.035156 355.25 214.042969 379.398438 " fill-opacity="1" fill-rule="nonzero"/><path fill="#393536" d="M 442.636719 285.34375 C 403.832031 275.933594 349.351562 296.703125 318.789062 285.34375 C 296.054688 267.710938 318.789062 206.964844 318.789062 206.964844 L 442.636719 206.964844 C 442.636719 206.964844 415.980469 264.964844 442.636719 285.34375 " fill-opacity="1" fill-rule="nonzero"/><path fill="#393536" d="M 448.128906 204.414062 C 448.128906 206.691406 446.28125 208.535156 444.003906 208.535156 L 314.277344 208.535156 C 312.011719 208.535156 310.164062 206.691406 310.164062 204.414062 C 310.164062 202.144531 312.011719 200.304688 314.277344 200.304688 L 444.003906 200.304688 C 446.28125 200.304688 448.128906 202.144531 448.128906 204.414062 " fill-opacity="1" fill-rule="nonzero"/><path fill="#393536" d="M 617.773438 355.964844 C 578.972656 346.566406 524.496094 367.335938 493.925781 355.964844 C 471.195312 338.335938 493.925781 277.59375 493.925781 277.59375 L 617.773438 277.59375 C 617.773438 277.59375 591.125 335.589844 617.773438 355.964844 " fill-opacity="1" fill-rule="nonzero"/><path fill="#393536" d="M 623.265625 275.039062 C 623.265625 277.316406 621.417969 279.15625 619.148438 279.15625 L 489.421875 279.15625 C 487.152344 279.15625 485.308594 277.316406 485.308594 275.039062 C 485.308594 272.765625 487.152344 270.925781 489.421875 270.925781 L 619.148438 270.925781 C 621.417969 270.925781 623.265625 272.765625 623.265625 275.039062 " fill-opacity="1" fill-rule="nonzero"/><path fill="#393536" d="M 410.609375 179.429688 C 389.5 174.3125 359.855469 185.621094 343.226562 179.429688 C 330.851562 169.839844 343.226562 136.789062 343.226562 136.789062 L 410.609375 136.789062 C 410.609375 136.789062 396.109375 168.335938 410.609375 179.429688 " fill-opacity="1" fill-rule="nonzero"/><path fill="#393536" d="M 413.597656 135.398438 C 413.597656 136.636719 412.59375 137.640625 411.355469 137.640625 L 340.773438 137.640625 C 339.527344 137.640625 338.53125 136.636719 338.53125 135.398438 C 338.53125 134.160156 339.527344 133.160156 340.773438 133.160156 L 411.355469 133.160156 C 412.59375 133.160156 413.597656 134.160156 413.597656 135.398438 " fill-opacity="1" fill-rule="nonzero"/><path fill="#393536" d="M 589.988281 237.820312 C 568.875 232.699219 539.234375 244 522.605469 237.820312 C 510.230469 228.21875 522.605469 195.171875 522.605469 195.171875 L 589.988281 195.171875 C 589.988281 195.171875 575.484375 226.730469 589.988281 237.820312 " fill-opacity="1" fill-rule="nonzero"/><path fill="#393536" d="M 592.96875 193.777344 C 592.96875 195.023438 591.972656 196.019531 590.734375 196.019531 L 520.152344 196.019531 C 518.90625 196.019531 517.910156 195.023438 517.910156 193.777344 C 517.910156 192.546875 518.90625 191.542969 520.152344 191.542969 L 590.734375 191.542969 C 591.972656 191.542969 592.96875 192.546875 592.96875 193.777344 " fill-opacity="1" fill-rule="nonzero"/><path fill="#393536" d="M 469.324219 419.558594 C 413.957031 407.054688 336.230469 434.660156 292.613281 419.558594 C 260.179688 396.117188 292.613281 315.390625 292.613281 315.390625 L 469.324219 315.390625 C 469.324219 315.390625 431.296875 392.472656 469.324219 419.558594 " fill-opacity="1" fill-rule="nonzero"/><path fill="#393536" d="M 473.027344 312.847656 C 473.027344 315.113281 471.179688 316.960938 468.90625 316.960938 L 289.015625 316.960938 C 286.746094 316.960938 284.90625 315.113281 284.90625 312.847656 C 284.90625 310.578125 286.746094 308.730469 289.015625 308.730469 L 468.90625 308.730469 C 471.179688 308.730469 473.027344 310.578125 473.027344 312.847656 " fill-opacity="1" fill-rule="nonzero"/><path fill="#ffffff" d="M 383.449219 230.179688 C 383.449219 233.015625 386.179688 237.027344 382.59375 237.925781 C 381.175781 238.28125 378.679688 240.167969 378.632812 241.320312 C 378.589844 242.621094 376.324219 243.15625 373.894531 242.957031 C 371.699219 242.785156 369.679688 243.011719 369.023438 241.851562 C 367.921875 239.902344 367.171875 239.246094 365.378906 238.734375 C 361.296875 237.535156 364.011719 234.167969 363.988281 230.082031 C 363.945312 221.757812 366.683594 219.222656 373.292969 219.222656 C 379.902344 219.222656 383.449219 222 383.449219 230.179688 " fill-opacity="1" fill-rule="nonzero"/><path fill="#393536" d="M 372.128906 232.941406 C 372.167969 234.691406 371.292969 234.855469 369.082031 234.902344 C 366.878906 234.945312 365.097656 234.824219 365.058594 233.074219 C 365.023438 231.324219 365.03125 230.222656 367.234375 230.1875 C 369.4375 230.140625 372.101562 231.183594 372.128906 232.941406 " fill-opacity="1" fill-rule="nonzero"/><path fill="#393536" d="M 372.257812 238.394531 C 371.789062 238.589844 371.609375 238.28125 371.253906 237.457031 C 370.898438 236.636719 370.660156 235.949219 371.125 235.753906 C 371.585938 235.542969 371.882812 235.4375 372.234375 236.25 C 372.589844 237.074219 372.726562 238.183594 372.257812 238.394531 " fill-opacity="1" fill-rule="nonzero"/><path fill="#393536" d="M 374.4375 238.394531 C 374.90625 238.589844 375.085938 238.28125 375.441406 237.457031 C 375.804688 236.636719 376.046875 235.949219 375.578125 235.753906 C 375.117188 235.542969 374.816406 235.4375 374.460938 236.25 C 374.105469 237.074219 373.980469 238.183594 374.4375 238.394531 " fill-opacity="1" fill-rule="nonzero"/><path fill="#ffffff" d="M 371.074219 247.273438 C 371.480469 247.355469 371.738281 246.195312 371.867188 245.492188 C 371.996094 244.777344 371.707031 244.859375 371.308594 244.785156 C 370.914062 244.703125 370.425781 244.609375 370.289062 245.328125 C 370.160156 246.035156 370.679688 247.191406 371.074219 247.273438 " fill-opacity="1" fill-rule="nonzero"/><path fill="#ffffff" d="M 372.878906 247.476562 C 373.277344 247.546875 373.535156 246.390625 373.660156 245.691406 C 373.789062 244.980469 373.511719 245.0625 373.101562 244.980469 C 372.703125 244.90625 372.214844 244.808594 372.085938 245.515625 C 371.957031 246.226562 372.476562 247.394531 372.878906 247.476562 " fill-opacity="1" fill-rule="nonzero"/><path fill="#ffffff" d="M 374.785156 247.273438 C 375.191406 247.355469 375.449219 246.195312 375.570312 245.492188 C 375.707031 244.777344 375.417969 244.859375 375.019531 244.785156 C 374.621094 244.703125 374.128906 244.609375 374.007812 245.328125 C 373.871094 246.035156 374.386719 247.191406 374.785156 247.273438 " fill-opacity="1" fill-rule="nonzero"/><path fill="#ffffff" d="M 376.703125 247.09375 C 377.109375 247.167969 377.367188 246.007812 377.496094 245.304688 C 377.621094 244.589844 377.335938 244.679688 376.9375 244.597656 C 376.535156 244.519531 376.046875 244.429688 375.910156 245.132812 C 375.789062 245.839844 376.300781 247.011719 376.703125 247.09375 " fill-opacity="1" fill-rule="nonzero"/><path fill="#ffffff" d="M 376.421875 241.578125 C 376.023438 241.511719 375.8125 242.679688 375.714844 243.394531 C 375.617188 244.105469 375.894531 244.015625 376.292969 244.066406 C 376.703125 244.136719 377.199219 244.203125 377.289062 243.488281 C 377.390625 242.769531 376.832031 241.636719 376.421875 241.578125 " fill-opacity="1" fill-rule="nonzero"/><path fill="#ffffff" d="M 374.613281 241.449219 C 374.210938 241.398438 374.015625 242.558594 373.910156 243.269531 C 373.8125 243.984375 374.089844 243.886719 374.5 243.960938 C 374.898438 244.023438 375.398438 244.074219 375.488281 243.367188 C 375.59375 242.648438 375.019531 241.519531 374.613281 241.449219 " fill-opacity="1" fill-rule="nonzero"/><path fill="#ffffff" d="M 372.71875 241.738281 C 372.3125 241.675781 372.105469 242.84375 372.007812 243.554688 C 371.910156 244.269531 372.191406 244.171875 372.589844 244.242188 C 372.996094 244.292969 373.488281 244.371094 373.585938 243.652344 C 373.691406 242.9375 373.117188 241.796875 372.71875 241.738281 " fill-opacity="1" fill-rule="nonzero"/><path fill="#ffffff" d="M 370.808594 242.015625 C 370.410156 241.957031 370.199219 243.117188 370.101562 243.828125 C 370.011719 244.542969 370.28125 244.453125 370.6875 244.511719 C 371.089844 244.574219 371.585938 244.632812 371.683594 243.925781 C 371.78125 243.214844 371.210938 242.074219 370.808594 242.015625 " fill-opacity="1" fill-rule="nonzero"/><path fill="#393536" d="M 375.253906 232.960938 C 375.222656 234.710938 376.097656 234.886719 378.300781 234.929688 C 380.496094 234.96875 382.292969 234.855469 382.324219 233.105469 C 382.359375 231.355469 382.351562 230.261719 380.148438 230.214844 C 377.945312 230.179688 375.292969 231.210938 375.253906 232.960938 " fill-opacity="1" fill-rule="nonzero"/><path fill="#ffffff" d="M 365.390625 240.945312 C 365.390625 240.945312 366.628906 242.054688 367.601562 244.453125 C 368.578125 246.851562 368.304688 249.265625 371 249.265625 C 372.257812 249.265625 377.53125 249.785156 378.492188 248.421875 C 379.691406 246.730469 379.832031 245.726562 380.105469 244.453125 C 380.429688 243.011719 380.21875 241.722656 381.605469 240.761719 C 383.003906 239.804688 380.59375 239.003906 379.480469 240.753906 C 378.875 241.714844 378.550781 246.25 377.441406 246.609375 C 375.539062 247.242188 373.058594 246.910156 371.359375 246.699219 C 369.285156 246.445312 368.929688 239.617188 365.929688 239.722656 C 363.738281 239.796875 365.390625 240.945312 365.390625 240.945312 " fill-opacity="1" fill-rule="nonzero"/><path fill="#ffffff" d="M 361.664062 257.996094 C 368.5625 256.878906 392.207031 246.980469 402.277344 234.699219 C 401.320312 238.101562 395.664062 245.578125 391.921875 248.585938 C 388.179688 251.605469 376.089844 259.082031 363.832031 262.28125 C 363.078125 260.996094 361.976562 259.625 361.664062 257.996094 " fill-opacity="1" fill-rule="nonzero"/><path fill="#393536" d="M 359.792969 260.695312 C 363.355469 259.601562 381.246094 253.429688 385.476562 249.847656 C 381.75 252.765625 379.660156 253.753906 376.980469 255.113281 C 374.953125 256.144531 366.613281 259.796875 360.804688 261.304688 C 360.34375 261.261719 360.035156 260.914062 359.792969 260.695312 " fill-opacity="1" fill-rule="nonzero"/><path fill="#ffffff" d="M 356.097656 264.777344 C 355.132812 265.09375 354.023438 264.363281 353.621094 263.140625 C 353.222656 261.917969 353.691406 260.671875 354.664062 260.363281 L 361.085938 258.265625 C 362.058594 257.957031 363.167969 258.679688 363.558594 259.902344 C 363.960938 261.117188 363.492188 262.371094 362.527344 262.679688 L 356.097656 264.777344 " fill-opacity="1" fill-rule="nonzero"/><path fill="#ffffff" d="M 356.917969 252.15625 C 357.363281 251.386719 359.214844 251.875 359.996094 252.878906 C 360.765625 253.875 360.972656 257.691406 364.503906 260.160156 C 363.785156 261.632812 365.445312 265.847656 366.160156 267.152344 C 365.929688 270.125 364.683594 268.980469 363.808594 268.933594 C 364.96875 266.679688 362.117188 263.609375 362.925781 261.367188 C 360.097656 259.4375 360.035156 254.585938 356.917969 252.15625 " fill-opacity="1" fill-rule="nonzero"/><path fill="#393536" d="M 356.917969 252.15625 L 357.335938 252.390625 C 357.355469 252.335938 357.464844 252.253906 357.757812 252.253906 C 358.316406 252.238281 359.226562 252.644531 359.621094 253.167969 C 359.734375 253.308594 359.898438 253.710938 360.082031 254.246094 C 360.625 255.835938 361.4375 258.605469 364.230469 260.550781 L 364.503906 260.160156 L 364.078125 259.957031 C 363.90625 260.304688 363.851562 260.703125 363.851562 261.125 C 363.867188 263.175781 365.121094 266.21875 365.746094 267.386719 L 366.160156 267.152344 L 365.6875 267.125 C 365.632812 267.90625 365.484375 268.351562 365.363281 268.535156 C 365.234375 268.707031 365.210938 268.691406 365.066406 268.714844 C 364.953125 268.714844 364.765625 268.667969 364.554688 268.609375 C 364.34375 268.550781 364.109375 268.472656 363.832031 268.457031 L 363.808594 268.933594 L 364.230469 269.152344 C 364.472656 268.683594 364.5625 268.179688 364.5625 267.695312 C 364.5625 266.699219 364.207031 265.734375 363.882812 264.800781 C 363.550781 263.871094 363.25 262.988281 363.25 262.265625 C 363.25 262 363.289062 261.757812 363.371094 261.539062 L 363.507812 261.1875 L 363.195312 260.976562 C 361.9375 260.128906 361.21875 258.53125 360.464844 256.757812 C 359.703125 255.007812 358.894531 253.089844 357.214844 251.777344 L 356.917969 252.15625 L 357.335938 252.390625 L 356.917969 252.15625 L 356.632812 252.523438 C 358.066406 253.640625 358.835938 255.375 359.589844 257.132812 C 360.351562 258.886719 361.085938 260.679688 362.660156 261.757812 L 362.925781 261.367188 L 362.480469 261.199219 C 362.351562 261.546875 362.300781 261.910156 362.300781 262.265625 C 362.308594 263.230469 362.660156 264.1875 362.984375 265.117188 C 363.316406 266.042969 363.621094 266.941406 363.613281 267.695312 C 363.613281 268.066406 363.542969 268.398438 363.386719 268.714844 L 363.046875 269.371094 L 363.785156 269.410156 C 363.890625 269.410156 364.078125 269.460938 364.296875 269.523438 C 364.515625 269.582031 364.765625 269.65625 365.066406 269.664062 C 365.4375 269.679688 365.90625 269.476562 366.160156 269.054688 C 366.425781 268.632812 366.570312 268.058594 366.636719 267.191406 L 366.652344 267.054688 L 366.585938 266.925781 C 366.019531 265.921875 364.78125 262.800781 364.804688 261.125 C 364.804688 260.785156 364.855469 260.523438 364.933594 260.371094 L 365.105469 260.007812 L 364.773438 259.773438 C 363.105469 258.605469 362.222656 257.121094 361.648438 255.785156 C 361.371094 255.113281 361.167969 254.480469 360.980469 253.9375 C 360.789062 253.390625 360.640625 252.941406 360.367188 252.585938 C 359.71875 251.777344 358.671875 251.308594 357.757812 251.304688 C 357.296875 251.296875 356.785156 251.445312 356.511719 251.914062 L 356.308594 252.269531 L 356.632812 252.523438 L 356.917969 252.15625 " fill-opacity="1" fill-rule="nonzero"/><path fill="#ffffff" d="M 357.328125 263.820312 C 356.820312 265.433594 355.117188 266.324219 353.496094 265.824219 C 351.886719 265.320312 350.996094 263.609375 351.496094 261.992188 C 351.992188 260.386719 353.707031 259.488281 355.320312 259.988281 C 356.933594 260.492188 357.824219 262.203125 357.328125 263.820312 " fill-opacity="1" fill-rule="nonzero"/><path fill="#ffffff" d="M 386.667969 258.109375 C 379.789062 256.910156 356.269531 246.707031 346.347656 234.296875 C 347.261719 237.714844 352.832031 245.265625 356.527344 248.324219 C 360.238281 251.378906 372.234375 259.011719 384.4375 262.363281 C 385.210938 261.09375 386.335938 259.738281 386.667969 258.109375 " fill-opacity="1" fill-rule="nonzero"/><path fill="#393536" d="M 388.503906 260.832031 C 384.949219 259.691406 367.152344 253.300781 362.957031 249.65625 C 366.652344 252.628906 368.726562 253.632812 371.390625 255.03125 C 373.40625 256.09375 381.6875 259.835938 387.492188 261.433594 C 387.945312 261.398438 388.253906 261.042969 388.503906 260.832031 " fill-opacity="1" fill-rule="nonzero"/><path fill="#ffffff" d="M 392.144531 264.964844 C 393.113281 265.289062 394.230469 264.574219 394.644531 263.359375 C 395.050781 262.144531 394.605469 260.882812 393.648438 260.558594 L 387.242188 258.386719 C 386.277344 258.054688 385.160156 258.777344 384.746094 259.992188 C 384.328125 261.207031 384.78125 262.460938 385.742188 262.785156 L 392.144531 264.964844 " fill-opacity="1" fill-rule="nonzero"/><path fill="#ffffff" d="M 391.484375 252.328125 C 391.058594 251.550781 389.195312 252.027344 388.402344 253.015625 C 387.621094 254.003906 387.363281 257.8125 383.792969 260.242188 C 384.496094 261.722656 382.789062 265.921875 382.042969 267.214844 C 382.246094 270.195312 383.515625 269.054688 384.382812 269.023438 C 383.25 266.746094 386.140625 263.714844 385.363281 261.464844 C 388.214844 259.570312 388.335938 254.71875 391.484375 252.328125 " fill-opacity="1" fill-rule="nonzero"/><path fill="#393536" d="M 391.484375 252.328125 L 391.898438 252.101562 C 391.625 251.613281 391.097656 251.460938 390.628906 251.46875 C 389.722656 251.476562 388.675781 251.9375 388.035156 252.722656 C 387.753906 253.066406 387.605469 253.519531 387.402344 254.054688 C 386.828125 255.679688 386.058594 258.121094 383.53125 259.851562 L 383.191406 260.078125 L 383.363281 260.445312 C 383.433594 260.589844 383.484375 260.847656 383.484375 261.171875 C 383.5 262.832031 382.21875 265.984375 381.628906 266.980469 L 381.5625 267.101562 L 381.570312 267.242188 C 381.628906 268.117188 381.765625 268.699219 382.027344 269.121094 C 382.285156 269.550781 382.761719 269.757812 383.128906 269.734375 C 383.703125 269.71875 384.171875 269.484375 384.398438 269.5 L 385.144531 269.476562 L 384.8125 268.8125 C 384.65625 268.503906 384.59375 268.179688 384.59375 267.824219 C 384.585938 267.0625 384.902344 266.148438 385.25 265.214844 C 385.597656 264.273438 385.96875 263.304688 385.96875 262.316406 C 385.96875 261.984375 385.929688 261.644531 385.816406 261.3125 L 385.363281 261.464844 L 385.628906 261.863281 C 387.210938 260.800781 387.964844 259.019531 388.75 257.277344 C 389.527344 255.527344 390.320312 253.800781 391.769531 252.707031 L 392.09375 252.457031 L 391.898438 252.101562 L 391.484375 252.328125 L 391.195312 251.953125 C 389.5 253.242188 388.660156 255.144531 387.875 256.894531 C 387.097656 258.644531 386.367188 260.234375 385.097656 261.074219 L 384.796875 261.277344 L 384.910156 261.625 C 384.988281 261.835938 385.015625 262.070312 385.015625 262.316406 C 385.023438 263.050781 384.707031 263.945312 384.359375 264.890625 C 384.011719 265.832031 383.644531 266.8125 383.636719 267.824219 C 383.636719 268.300781 383.726562 268.78125 383.960938 269.234375 L 384.382812 269.023438 L 384.367188 268.550781 C 383.824219 268.578125 383.378906 268.804688 383.128906 268.78125 L 382.835938 268.609375 C 382.714844 268.429688 382.570312 267.984375 382.519531 267.183594 L 382.042969 267.214844 L 382.457031 267.449219 C 383.109375 266.285156 384.421875 263.222656 384.4375 261.171875 C 384.4375 260.761719 384.382812 260.378906 384.222656 260.039062 L 383.792969 260.242188 L 384.058594 260.636719 C 385.9375 259.359375 386.949219 257.707031 387.574219 256.28125 C 387.890625 255.566406 388.109375 254.910156 388.296875 254.382812 C 388.488281 253.851562 388.652344 253.453125 388.773438 253.308594 C 389.160156 252.804688 390.070312 252.402344 390.628906 252.417969 C 390.9375 252.417969 391.046875 252.511719 391.066406 252.554688 L 391.484375 252.328125 L 391.195312 251.953125 L 391.484375 252.328125 " fill-opacity="1" fill-rule="nonzero"/><path fill="#ffffff" d="M 390.933594 263.984375 C 391.414062 265.605469 393.113281 266.519531 394.734375 266.035156 C 396.347656 265.554688 397.277344 263.855469 396.785156 262.234375 C 396.304688 260.621094 394.605469 259.699219 392.984375 260.191406 C 391.363281 260.671875 390.449219 262.371094 390.933594 263.984375 " fill-opacity="1" fill-rule="nonzero"/></svg>