<svg xmlns="http://www.w3.org/2000/svg" xmlns:xlink="http://www.w3.org/1999/xlink" width="1000" zoomAndPan="magnify" viewBox="0 0 750 749.999995" height="1000" preserveAspectRatio="xMidYMid meet" version="1.0"><defs><clipPath id="id1"><path d="M 19.785156 75.246094 L 729.992188 75.246094 L 729.992188 680.671875 L 19.785156 680.671875 Z M 19.785156 75.246094 " clip-rule="nonzero"/></clipPath></defs><g clip-path="url(#id1)"><path fill="#000000" d="M 418.90625 501.957031 C 418.289062 501.851562 417.96875 501.792969 417.332031 501.6875 C 417.332031 501.6875 417.21875 500.292969 417.488281 500.21875 C 419.617188 499.621094 421.320312 498.160156 422.171875 496.742188 C 423.207031 496.8125 423.753906 497.378906 423.207031 499.191406 C 422.285156 502.242188 420.929688 503.589844 419.25 503.671875 C 418.492188 503.714844 419.496094 502.292969 418.90625 501.957031 Z M 416.949219 490.558594 C 418.539062 489.058594 419.210938 486.125 419.601562 483.875 C 419.78125 483.449219 419.933594 483.882812 420.074219 484.019531 C 420.300781 484.265625 420.382812 485.148438 420.578125 485.449219 C 420.621094 487.410156 418.582031 493.164062 417.667969 493.890625 C 417.21875 494.25 416.484375 491.742188 416.949219 490.558594 Z M 415.203125 482.296875 C 415.75 480.425781 416.140625 477.039062 416.035156 475.078125 C 416.664062 474.507812 417.398438 475.804688 417.886719 476.695312 C 418.101562 478.167969 416.941406 483.269531 416.550781 484.65625 C 416.445312 485.058594 415.015625 482.917969 415.203125 482.296875 Z M 414.09375 500.960938 C 413.515625 501.425781 410.773438 502.660156 408.210938 501.230469 C 410.90625 501.550781 412.128906 500.457031 414.070312 498.855469 C 413.480469 495.734375 413.222656 493.71875 412.757812 490.160156 C 412.113281 488.917969 412.300781 488.484375 411.90625 487.335938 C 411.402344 485.832031 410.75 485.21875 409.925781 483.921875 C 410.136719 483.765625 410.359375 483.59375 410.585938 483.390625 C 411.074219 483.277344 411.582031 483.734375 412.007812 484.46875 C 412.640625 485.570312 413.375 486.28125 413.882812 487.867188 C 414.257812 489.023438 414.070312 489.464844 414.691406 490.714844 C 415.113281 494.316406 415.351562 496.339844 415.890625 499.492188 C 415.628906 499.710938 414.273438 500.824219 414.09375 500.960938 Z M 413.058594 505.632812 C 406.074219 507.542969 401.238281 499.5 398.082031 494.570312 C 396.816406 492.601562 395.445312 491.230469 396.328125 488.453125 C 397.175781 485.777344 400.121094 483.300781 402.886719 482.394531 C 408.171875 480.648438 410.816406 473.609375 412.570312 468.824219 C 412.863281 468.042969 412.722656 466.929688 412.429688 466.375 C 412.078125 465.699219 411.6875 464.972656 411.613281 464.898438 C 412.894531 462.300781 413.417969 462.507812 414.46875 461.96875 C 415.292969 462 415.652344 463.175781 415.480469 465.128906 C 414.835938 465.257812 414.085938 465.847656 413.613281 466.253906 C 413.816406 466.246094 414.046875 466.335938 414.273438 466.441406 C 414.046875 466.53125 413.824219 466.628906 413.621094 466.769531 C 414.136719 466.816406 414.699219 466.824219 415.226562 466.808594 C 414.65625 469.570312 413.238281 473.285156 410.601562 477.316406 C 405.144531 485.644531 403.988281 483.765625 402.289062 484.632812 C 395.886719 487.898438 395.460938 492.078125 401.613281 496.339844 C 405.824219 499.253906 407.476562 504.046875 412.085938 503.09375 C 413.15625 502.863281 413.710938 505.453125 413.058594 505.632812 Z M 377.589844 518.066406 C 351.410156 513.648438 332.117188 510.398438 305.378906 505.894531 L 303.828125 480.453125 C 337.355469 482.761719 379.40625 489.113281 399.507812 516.007812 C 388.152344 517.03125 377.402344 518.082031 377.589844 518.066406 Z M 306.59375 525.832031 L 305.785156 512.578125 C 324.613281 515.519531 337.664062 517.558594 355.417969 520.328125 C 338.988281 522.058594 322.46875 523.929688 306.59375 525.832031 Z M 282.453125 469.003906 C 282.078125 468.402344 287.160156 467.496094 287.929688 468.476562 C 291.175781 472.628906 300.410156 471.121094 309.578125 471.527344 C 325.738281 472.246094 328.203125 469.804688 325.804688 463.09375 C 325.199219 461.402344 322.828125 462.441406 325.136719 452.308594 C 326.253906 447.410156 327.574219 437.457031 333.699219 437.015625 C 334.898438 438.339844 335.910156 438.601562 335.59375 441.726562 C 335.429688 441.734375 334.296875 442.039062 333.253906 442.332031 C 332.386719 442.570312 331.261719 443.375 330.960938 444.226562 C 329.304688 448.945312 324.554688 456.367188 328.046875 461.117188 C 332.304688 466.90625 323.667969 471.632812 318.675781 472.058594 C 309.675781 472.84375 288.207031 478.378906 282.453125 469.003906 Z M 288.007812 497.179688 C 288.34375 496.339844 288.199219 495.277344 287.292969 494.28125 L 288.277344 494.03125 C 288.359375 495.253906 288.433594 496.453125 288.507812 497.664062 C 288.132812 497.253906 288.484375 497.558594 288.007812 497.179688 Z M 280.234375 501.65625 L 268.089844 499.605469 C 267.917969 499.261719 268.136719 499.589844 267.84375 499.171875 L 281.125 495.835938 C 280.96875 496.503906 280.96875 497.289062 281.273438 497.941406 C 280.242188 499.238281 280.0625 500.5625 280.234375 501.65625 Z M 269.882812 507.371094 C 269.808594 507.265625 269.738281 507.125 269.671875 506.9375 L 270.886719 507.132812 Z M 248.933594 512.457031 C 248.859375 512.082031 248.851562 511.601562 249.023438 510.988281 C 249.351562 509.878906 248.851562 508.5625 247.808594 507.648438 C 247.742188 507.589844 247.660156 507.535156 247.589844 507.476562 C 247.929688 506.613281 247.769531 505.492188 246.773438 504.464844 L 249.480469 503.785156 L 260.421875 505.492188 C 260.4375 506.667969 260.886719 507.65625 261.238281 508.15625 C 261.546875 508.59375 261.578125 509.042969 261.523438 509.402344 Z M 240.582031 513.941406 C 240.695312 514.105469 240.761719 514.269531 240.808594 514.425781 L 227.269531 517.714844 C 227.234375 517.371094 227.25 516.980469 227.390625 516.492188 C 227.691406 515.445312 227.300781 514.03125 225.953125 512.980469 C 226.296875 512.089844 226.117188 510.9375 225.089844 509.917969 L 240.734375 505.984375 C 240.546875 506.675781 240.53125 507.527344 240.851562 508.234375 C 239.007812 510.570312 239.9375 513.027344 240.582031 513.941406 Z M 218.9375 519.4375 C 219.003906 519.527344 219.035156 519.609375 219.078125 519.699219 L 208.285156 522.320312 C 208.246094 521.976562 208.261719 521.578125 208.398438 521.085938 C 208.699219 520.035156 208.308594 518.613281 206.964844 517.566406 C 207.296875 516.726562 207.144531 515.648438 206.238281 514.660156 L 219.125 511.421875 C 218.914062 512.128906 218.882812 513.011719 219.207031 513.730469 C 217.363281 516.074219 218.300781 518.53125 218.9375 519.4375 Z M 199.957031 524.035156 C 200.011719 524.125 200.054688 524.214844 200.09375 524.304688 L 193.167969 525.984375 L 192.753906 518.050781 L 200.078125 516.203125 C 199.921875 516.875 199.921875 517.667969 200.226562 518.328125 C 198.382812 520.671875 199.3125 523.128906 199.957031 524.035156 Z M 191.527344 494.738281 L 229.503906 500.667969 L 192.363281 510.503906 Z M 287.390625 479.699219 C 287.503906 481.5625 287.617188 483.398438 287.730469 485.238281 L 246.960938 496.039062 L 194.164062 487.140625 C 215.601562 483.390625 250.140625 478.820312 287.390625 479.699219 Z M 272.273438 457.722656 C 273.523438 456.5625 277.65625 454.808594 277.789062 456.082031 C 278.832031 456.511719 276.074219 458.488281 274.792969 458.964844 C 274.828125 458.75 274.621094 458.523438 274.730469 458.226562 C 272.648438 459.132812 272.648438 460.996094 273.226562 461.871094 C 273.082031 461.925781 272.917969 461.984375 272.769531 462.042969 C 270.195312 461.476562 270.535156 459.332031 272.273438 457.722656 Z M 285.96875 455.992188 C 284.902344 457.828125 283.246094 461.304688 285.554688 463.765625 C 285.546875 463.8125 285.539062 463.855469 285.53125 463.894531 C 284.273438 462.9375 283.644531 462.449219 282.371094 461.445312 C 281.117188 461.035156 279.648438 463.191406 278.792969 462.425781 C 277.347656 461.144531 277.421875 459.648438 278.816406 458.046875 C 280.914062 456.15625 282.960938 453.949219 285.96875 455.992188 Z M 282.070312 121.269531 C 282.023438 121.300781 281.957031 121.335938 281.90625 121.367188 L 281.90625 121.308594 C 281.957031 121.292969 282.015625 121.285156 282.070312 121.269531 Z M 290.15625 164.605469 C 289.714844 170.140625 286.703125 177.164062 285.578125 179.628906 C 285.21875 154.089844 283.589844 148.449219 282.257812 126.910156 C 286.035156 132.609375 291.738281 144.742188 290.15625 164.605469 Z M 302.335938 120.019531 C 305.5 120.648438 307.253906 119.554688 314.824219 119.621094 C 315.714844 120.519531 315.792969 120.328125 316.152344 120.671875 C 315.019531 120.640625 308.101562 120.417969 304.816406 122.027344 C 305.703125 121.75 308.394531 121.871094 309.578125 121.765625 C 309.015625 121.847656 316.636719 121.855469 317.214844 121.832031 C 317.3125 122.070312 317.644531 122.492188 317.957031 122.878906 C 313.136719 123.082031 308.109375 123.015625 303.3125 122.421875 C 303.25 122.519531 303.363281 123.246094 304.816406 123.328125 C 302.636719 123.472656 302.578125 124.421875 301.28125 124.941406 C 300.019531 125.449219 298.988281 125.398438 298.53125 124.566406 C 298.34375 124.242188 297.742188 124.144531 297.367188 123.945312 C 297.546875 123.855469 298.476562 123.636719 298.664062 123.628906 C 297.472656 123.15625 293.777344 123.71875 293.777344 123.71875 C 293.941406 118.492188 296.878906 118.941406 302.335938 120.019531 Z M 314.058594 112.425781 C 315.679688 108.925781 318.152344 104.972656 323.339844 102.554688 C 329.042969 99.910156 343.34375 100.417969 343.410156 109.488281 C 343.148438 107.617188 340.855469 103.902344 338.40625 103.046875 C 339.710938 103.738281 340.824219 105.191406 340.78125 106.464844 C 340.75 107.363281 340.496094 107.601562 340.210938 108.261719 C 339.535156 109.8125 341.425781 111.390625 341.464844 111.691406 C 340.511719 111.535156 339.730469 110.925781 339.140625 110.214844 C 340.472656 113.277344 342.25 113.136719 342.632812 114.253906 C 342.910156 115.082031 343.238281 116.445312 340.824219 119.121094 C 342.675781 118.492188 343.269531 116.882812 343.171875 116.582031 C 343.253906 116.5 345.089844 116.722656 345.332031 117.496094 C 346.019531 119.691406 343.898438 121.277344 341.410156 122.5 C 341.808594 122.230469 344.746094 119.570312 343.449219 119 C 343.132812 121.074219 337.566406 122.632812 336.644531 124.699219 C 336.382812 125.285156 337.101562 126.789062 336.847656 127.507812 C 336.441406 127.230469 336.304688 127.914062 335.8125 128.398438 C 334.890625 128.332031 333.601562 129.410156 333.21875 130.257812 C 333.253906 129.441406 332.042969 130.691406 331.9375 130.820312 C 331.660156 129.792969 329.859375 131.3125 329.394531 132.300781 C 329.320312 132.265625 328.40625 132.191406 328.0625 133.253906 C 327.992188 132.609375 326.90625 132.804688 325.789062 134.070312 C 325.429688 134.03125 325.558594 133.230469 324.972656 134.128906 C 324.980469 133.433594 326.316406 130.609375 326.195312 130.144531 C 325.789062 128.574219 320.378906 131.933594 320.152344 129.660156 C 318.835938 131.449219 321.351562 132.347656 321.699219 132.308594 C 319.425781 133.109375 317.734375 132.445312 318.28125 129.351562 C 318.46875 128.25 320.222656 126.617188 320.3125 126.648438 C 320.257812 127.050781 320.933594 128.460938 322.769531 127.53125 C 320.429688 126.574219 320.296875 124.828125 320.296875 123.816406 C 320.28125 122.4375 322.425781 120.984375 321.382812 117.726562 C 321.382812 118.6875 321.039062 119.792969 320.242188 120.632812 C 320.109375 120.347656 320.859375 117.683594 318.878906 117.160156 C 318.039062 116.941406 317.597656 116.964844 316.625 116.476562 C 315.230469 115.773438 314.40625 114.304688 314.585938 113.089844 C 313.640625 115.203125 315.738281 118.746094 316.929688 120.304688 C 314.839844 118.289062 312.523438 115.757812 314.058594 112.425781 Z M 348.335938 109.796875 C 350.832031 108.035156 351.238281 107.039062 353.171875 107.183594 C 353.957031 107.242188 355.089844 107.558594 355.953125 107.617188 C 355.960938 107.667969 355.972656 107.707031 355.980469 107.757812 C 354.8125 107.878906 353.351562 107.355469 351.898438 107.960938 C 350.425781 108.582031 349.421875 109.675781 348.066406 110.605469 C 346.738281 111.519531 345.234375 112.394531 343.824219 113.496094 C 343.839844 113.429688 347.59375 110.320312 348.335938 109.796875 Z M 344.085938 107.820312 C 344.8125 107.046875 345.300781 106.5 345.96875 105.773438 C 347.03125 104.621094 348.757812 103.789062 348.679688 102.140625 C 348.628906 101.085938 348.171875 99.625 348.816406 98.785156 C 351.964844 94.613281 354.121094 101.707031 354.121094 101.707031 C 354.121094 101.707031 353.050781 102.816406 353.34375 103.804688 C 353.394531 103.730469 353.800781 103.535156 353.941406 103.550781 C 354.101562 103.910156 354.09375 104.277344 354.414062 104.6875 C 355.210938 105.730469 354.960938 106.207031 354.070312 106.222656 C 353.15625 106.230469 352.277344 105.371094 351.371094 106.164062 C 351.8125 105.480469 351.09375 104.75 350.980469 104.695312 C 351.304688 106.359375 344.566406 112.132812 344.085938 112.082031 C 344.140625 111.59375 344.160156 111.070312 344.101562 110.835938 C 344.492188 110.523438 348.492188 106.734375 348.171875 106.921875 C 348.769531 106.476562 349.617188 105.160156 350.15625 105.003906 C 347.601562 105.046875 344.722656 108.695312 344.085938 109.339844 C 344.078125 108.875 344.296875 108.972656 344.085938 107.820312 Z M 358.613281 131.007812 C 357.90625 131.761719 356.664062 132.199219 355.480469 131.734375 C 355.703125 131.785156 356.109375 131.484375 357.316406 131.605469 C 356.625 131.285156 355.507812 131.035156 354.960938 130.371094 C 355 130.550781 355.050781 130.8125 355.195312 130.992188 C 353.628906 131.777344 349.722656 130.8125 348.71875 129.34375 C 349.363281 129.5625 352.578125 130.511719 353.621094 130.257812 C 348.6875 128.714844 343.890625 126.707031 339.085938 124.789062 C 339.230469 124.550781 340.152344 124.421875 340.554688 124.289062 C 342.085938 123.792969 348.785156 126.878906 349.699219 127.882812 C 349.648438 126.144531 344.242188 123.449219 342.429688 122.976562 C 342.789062 122.867188 343.230469 122.355469 343.375 122.410156 C 346.574219 123.570312 345.585938 123.023438 348.328125 124.3125 C 350.015625 125.113281 351.476562 126.753906 353.808594 127.15625 C 355.230469 127.402344 356.875 127.148438 358.515625 128.40625 C 358.558594 129.335938 358.589844 130.210938 358.613281 131.007812 Z M 352.554688 132.738281 C 351.46875 132.886719 352.367188 132.347656 352.367188 132.347656 C 347.675781 133.171875 348.261719 132.113281 347.773438 130.386719 C 348.074219 131.007812 349.511719 131.589844 350.996094 131.335938 C 350.78125 131.449219 350.144531 131.964844 349.992188 132.144531 C 350.847656 131.628906 353.554688 131.464844 354.234375 132.265625 C 353.628906 132.414062 353.140625 132.488281 352.554688 132.738281 Z M 338.929688 125.734375 C 340.347656 126.199219 344.640625 128.027344 346.003906 128.648438 C 347.925781 129.515625 347.257812 132.039062 348.472656 133.359375 C 346.386719 131.964844 349.992188 129.851562 338.929688 125.734375 Z M 339.132812 165.675781 C 339.140625 165.707031 339.140625 165.742188 339.148438 165.78125 C 339.085938 166.769531 339.050781 166.265625 339.132812 165.675781 Z M 336.214844 129.957031 C 336.132812 129.949219 336.007812 129.996094 335.945312 129.914062 C 335.925781 129.75 336.425781 128.765625 336.34375 128.445312 C 336.671875 128.167969 336.75 129.148438 336.214844 129.957031 Z M 335.046875 131.050781 C 335.105469 130.835938 335.738281 129.570312 335.472656 128.976562 C 336.148438 128.804688 335.585938 130.59375 335.046875 131.050781 Z M 334.84375 129.539062 C 335.472656 129.671875 334.84375 131.222656 334.378906 131.703125 C 334.597656 131.238281 334.925781 129.769531 334.84375 129.539062 Z M 333.136719 133.671875 C 333.082031 133.1875 332.761719 133.605469 332.761719 133.230469 C 333.136719 132.144531 333.636719 130.835938 333.519531 130.28125 C 333.71875 129.957031 333.914062 129.660156 334.019531 129.613281 C 335.054688 129.074219 333.929688 132.945312 333.136719 133.671875 Z M 331.410156 134.363281 C 331.667969 133.523438 332.296875 131.328125 332.207031 130.925781 C 332.566406 130.601562 332.941406 130.667969 332.992188 130.847656 C 333.03125 131.34375 332.65625 133.328125 332.289062 133.71875 C 331.71875 134.316406 331.410156 134.363281 331.410156 134.363281 Z M 329.890625 135.574219 C 330.226562 134.324219 330.753906 131.238281 330.886719 131.015625 C 331.480469 130.910156 331.964844 131.375 331.898438 131.792969 C 331.839844 132.152344 331.351562 134.152344 331.132812 134.601562 C 330.789062 135.019531 330.21875 135.410156 329.890625 135.574219 Z M 328.503906 136.257812 C 328.464844 135.964844 328.886719 133.914062 328.984375 133.515625 C 329.101562 133.058594 329.914062 131.808594 330.617188 131.171875 C 330.683594 131.277344 329.867188 134.542969 329.621094 135.746094 C 329.269531 136.015625 328.734375 136.324219 328.503906 136.257812 Z M 327.476562 136.734375 C 327.207031 136.722656 327.785156 134.453125 328.070312 133.734375 C 328.21875 133.425781 328.714844 132.839844 329.011719 132.789062 C 328.714844 133.433594 328.398438 135.546875 328.269531 136.339844 C 328.269531 136.339844 327.882812 136.742188 327.476562 136.734375 Z M 326.390625 137.933594 C 325.453125 138.097656 326.988281 132.121094 327.6875 133.679688 C 327.289062 134.578125 327.246094 135.71875 327.132812 136.734375 C 326.921875 137.269531 326.742188 137.140625 326.390625 137.933594 Z M 326.433594 134.40625 C 326.21875 134.839844 325.886719 136.480469 325.917969 136.839844 C 325.265625 136.789062 326.007812 134.921875 326.433594 134.40625 Z M 325.933594 134.4375 C 325.339844 135.621094 325.46875 136.601562 325.429688 136.839844 C 325.003906 136.921875 325.199219 135.082031 325.933594 134.4375 Z M 324.921875 136.398438 C 324.800781 136.617188 324.679688 136.699219 324.582031 136.824219 C 324.34375 136.355469 324.898438 134.832031 325.144531 134.820312 C 324.898438 135.378906 325.019531 136.152344 324.921875 136.398438 Z M 299.542969 126.960938 C 300.972656 126.59375 302.539062 125.5 303.769531 124.894531 C 306.136719 123.726562 308.035156 123.980469 312.132812 123.792969 C 313.355469 123.734375 318.828125 123.9375 318.871094 123.980469 C 301.378906 123.800781 304.359375 126.167969 299.542969 126.960938 Z M 306.945312 154.660156 C 307.621094 154.792969 310.859375 150.964844 311.570312 150.050781 C 309.832031 153.617188 306.078125 157.894531 305.371094 156.597656 C 305.574219 156.1875 305.746094 155.65625 305.867188 155.273438 C 305.027344 156.921875 304.359375 157.257812 303.566406 158.074219 C 304.4375 157.835938 304.570312 158.34375 304.75 158.214844 C 302.636719 160.515625 302.253906 154.792969 303.910156 152.066406 C 305.726562 149.429688 306.976562 149.738281 308.304688 148.785156 C 310.371094 147.28125 312.375 143.46875 314.253906 140.984375 C 317.289062 136.984375 316.167969 138.59375 319.703125 134.054688 C 319.875 133.84375 320.183594 134.144531 320.527344 133.941406 C 317.082031 138.234375 313.496094 142.886719 311.464844 148.03125 C 314.472656 143.085938 317.941406 137.109375 322.085938 133.875 C 322.417969 133.621094 323.421875 132.8125 323.503906 132.984375 C 318.175781 140.21875 313.167969 148.164062 306.945312 154.660156 Z M 309.832031 156.007812 C 308.707031 157.757812 306.707031 158.484375 306.707031 158.484375 C 306.707031 158.484375 307.058594 159.226562 306.316406 159.414062 C 306.023438 159.152344 305.695312 159.183594 305.335938 159.046875 C 306.316406 157.128906 308.371094 156.132812 308.769531 156.597656 C 308.753906 156.335938 308.535156 155.683594 308.429688 155.578125 C 309.503906 155.191406 311.175781 152.742188 311.828125 151.28125 C 311.496094 152.128906 310.710938 154.644531 309.832031 156.007812 Z M 294.601562 124.566406 C 297.878906 125.300781 295.523438 127.277344 298.140625 127.171875 C 295.515625 127.457031 295.042969 125.425781 294.601562 124.566406 Z M 287.832031 454.269531 C 288.304688 453.527344 290.570312 452.863281 292.519531 452.546875 C 288.664062 455.175781 288.941406 455.828125 287.789062 455.753906 C 287.683594 455.09375 287.652344 454.539062 287.832031 454.269531 Z M 294.054688 452.367188 C 294.773438 452.324219 295.328125 452.382812 295.480469 452.570312 C 294.308594 454.539062 287.527344 460.203125 288.253906 459.410156 C 288.3125 458.742188 288.074219 457.761719 288.261719 457.230469 C 289.691406 455.394531 291.214844 453.222656 294.054688 452.367188 Z M 322.703125 449.957031 C 324.125 439.292969 327.746094 438.4375 329.832031 437.382812 C 326.570312 441.285156 326.628906 442.992188 323.839844 449.558594 C 323.40625 450.5625 322.582031 450.816406 322.703125 449.957031 Z M 303.566406 459.355469 C 306.011719 459.011719 306.542969 458.703125 308.511719 458.179688 C 311.195312 457.46875 312.710938 456.855469 313.96875 456.808594 C 315.320312 456.75 317.613281 455.707031 318.152344 456.824219 C 318.289062 459.402344 320.144531 459.933594 320.507812 460.742188 C 322.679688 465.566406 324.921875 466.074219 322.28125 467.578125 C 321.5625 466.113281 320.445312 464.523438 319.800781 463.027344 C 319.457031 462.230469 317.613281 461.707031 317.546875 459.160156 C 317.035156 458.058594 314.710938 459.101562 313.339844 459.160156 C 311.472656 459.242188 306.542969 461.199219 302.792969 461.730469 C 297.953125 464.03125 294.363281 464.785156 289.308594 465.691406 C 289.296875 465.683594 289.289062 465.675781 289.28125 465.667969 C 289.574219 465.429688 289.625 463.789062 289.675781 463.4375 C 295 462.488281 298.632812 461.773438 303.566406 459.355469 Z M 296.46875 457.085938 C 295.757812 459.027344 293.859375 459.648438 293.566406 459.730469 C 292.472656 460.023438 290.496094 460.621094 291.042969 459.871094 C 295.472656 453.777344 296.386719 452.449219 299.722656 451.191406 C 301.925781 451.671875 297.292969 454.824219 296.46875 457.085938 Z M 305.066406 451.433594 C 303.8125 453.050781 303.230469 453.957031 301.289062 456.972656 C 300.523438 457.550781 297.433594 458.652344 297.332031 457.894531 C 297.039062 455.617188 300.320312 452.59375 303.304688 450.382812 C 303.777344 450.375 304.195312 450.40625 304.503906 450.519531 C 304.773438 450.628906 305.914062 450.339844 305.066406 451.433594 Z M 305.867188 455.746094 C 305.867188 455.777344 304.707031 455.976562 304.707031 456 C 301.960938 456.324219 307.75 450.359375 312.253906 447.792969 C 312.71875 447.679688 313.414062 447.460938 314.164062 447.230469 C 314.765625 448.257812 309.179688 454.546875 305.867188 455.746094 Z M 318.910156 450.765625 C 318.558594 451.304688 317.761719 452.277344 316.832031 451.890625 C 315.835938 451.484375 317.109375 450.839844 317.410156 450.242188 C 317.785156 449.875 318.445312 449.207031 319.132812 449.164062 C 320.117188 449.101562 319.15625 450.398438 318.910156 450.765625 Z M 319.523438 447.65625 C 317.417969 449.09375 315.222656 450.839844 313.773438 452.628906 C 312.742188 453.894531 310.515625 454.300781 310.335938 453.902344 C 310.640625 452.953125 312.148438 451.597656 312.898438 450.847656 C 314.605469 449.132812 316.046875 446.503906 318.863281 446.285156 C 319.726562 446.210938 319.988281 446.578125 319.523438 447.65625 Z M 333.457031 443.6875 C 334.582031 442.289062 333.5625 443.074219 357.527344 441.3125 C 358.019531 441.589844 358.5 441.867188 358.996094 442.136719 C 350.570312 442.738281 341.914062 444.003906 333.457031 443.6875 Z M 333.488281 445.320312 C 342.550781 444.675781 351.597656 443.835938 360.652344 443.035156 C 361.363281 443.425781 362.074219 443.808594 362.78125 444.183594 C 352.75 444.660156 342.746094 445.746094 332.761719 446.832031 C 333.0625 446.226562 333.203125 445.925781 333.488281 445.320312 Z M 338.601562 453.597656 C 335.722656 453.910156 332.886719 454.292969 330.21875 454.773438 C 330.324219 453.84375 330.617188 452.5625 331.058594 452.082031 C 335.730469 446.953125 359.136719 446.183594 366.109375 445.941406 C 370.171875 448.070312 374.269531 450.179688 378.421875 452.480469 C 366.4375 452.097656 354.445312 452.277344 342.496094 453.230469 C 342.46875 452.089844 342.746094 450.609375 343.328125 449.441406 C 341.816406 450.609375 339.851562 452.226562 338.601562 453.597656 Z M 410.847656 468.589844 C 410.660156 469.175781 410.5625 469.472656 410.367188 470.050781 C 391.703125 446.878906 367.457031 436.027344 343.628906 419.871094 C 341.15625 418.1875 338.628906 416.523438 336.050781 414.964844 C 351.34375 428.4375 383.746094 442.570312 404.246094 465.0625 C 410.765625 472.214844 408.425781 473.894531 408.042969 474.703125 C 407.65625 475.503906 407.234375 476.296875 406.636719 477.015625 C 398.667969 465.0625 385.582031 455.140625 373.421875 448.023438 C 373.707031 447.628906 374.734375 447.925781 374.585938 447.148438 C 374.375 446.023438 371.429688 445.859375 371.828125 447.125 C 359.917969 440.453125 348.515625 433.585938 337.722656 425.195312 C 338.007812 424.402344 339.050781 423.578125 339.453125 423.054688 C 338.75 423.242188 337.871094 423.4375 337.125 423.644531 C 337.640625 422.808594 338.433594 421.8125 339.09375 420.949219 C 337.933594 421.503906 335.863281 422.132812 334.207031 422.222656 C 318.910156 409.042969 306.835938 392.757812 294.8125 376.679688 C 351.140625 427.539062 367.179688 421.503906 410.847656 468.589844 Z M 349.84375 345.34375 C 365.34375 353.3125 378.371094 364.375 389.726562 377.539062 C 393.855469 382.324219 398.675781 389.890625 394.222656 385.132812 C 392.785156 383.597656 392.917969 384.566406 391.734375 382.902344 C 390.609375 381.308594 389.898438 379.691406 389.042969 378.339844 C 388.527344 378.648438 389.832031 380.730469 389.996094 381.277344 C 390.027344 381.40625 389.972656 381.90625 389.988281 381.929688 C 390.582031 383.015625 393.757812 386.355469 395.054688 387.867188 C 396.980469 390.109375 399.042969 393.230469 400.871094 395.378906 C 402.789062 397.621094 405.625 400.449219 407.429688 403.664062 C 408.457031 406.472656 411.917969 411.878906 411.574219 412.980469 C 411.328125 413.746094 409.019531 412.203125 408.1875 412.546875 C 407.503906 412.824219 406.785156 413.003906 406.269531 413.617188 C 405.089844 413.617188 403.480469 411.289062 403.105469 410.472656 C 404.160156 410.554688 405.195312 411.257812 405.847656 410.695312 C 406.269531 410.335938 407.527344 410.464844 407.257812 409.445312 C 405.804688 408.316406 404.679688 409.582031 403.398438 409.257812 C 401.9375 408.882812 400.023438 407.894531 398.113281 406.21875 C 399.925781 408.269531 402.445312 410.742188 404.257812 413.308594 C 403.9375 413.976562 403.824219 414.882812 404.050781 416.1875 C 404.363281 417.984375 403.726562 413.257812 404.792969 415.390625 C 406.34375 418.484375 407.289062 420.753906 406.921875 422.125 C 406.734375 422.253906 406.523438 422.34375 406.320312 422.46875 C 404.890625 420.785156 402.828125 417.390625 402.167969 416.800781 C 399.214844 414.179688 398.34375 418.097656 396.621094 419.136719 C 394.34375 414.628906 392.910156 414.125 390.234375 415.625 C 387.140625 417.371094 387.6875 413.578125 383.683594 411.257812 C 379.960938 409.101562 378.863281 413.339844 375.132812 409.878906 C 373.664062 408.523438 373.054688 406.726562 370.890625 405.746094 C 369.210938 404.988281 367.792969 405.609375 366.109375 405.019531 C 363.550781 404.121094 361.078125 399.476562 359.203125 399.296875 C 359.746094 397.777344 363.957031 400.359375 361.679688 397.917969 C 358.164062 394.152344 355.773438 394.203125 352.039062 393.695312 C 348.359375 393.199219 348.375 393.835938 345.839844 391.097656 C 345.9375 390.886719 344.8125 388.902344 344.917969 388.722656 C 345.789062 387.210938 341.921875 385.695312 343.5625 384.863281 C 339.640625 383.121094 338.382812 386.503906 334.980469 382.339844 C 333.164062 380.117188 327.296875 374.273438 325.828125 371.894531 C 322.867188 366.132812 330.121094 369.355469 329.394531 363.183594 C 330.109375 361.339844 329.230469 355.894531 331.675781 356.015625 C 334.15625 356.136719 335.59375 356.855469 335.300781 354.59375 C 335.054688 352.683594 331.441406 349.550781 329.378906 347.09375 C 330.558594 348.570312 331.585938 351.804688 330.40625 351.589844 C 326 350.78125 319.972656 344.105469 316.847656 339.988281 C 308.707031 329.261719 347.835938 344.382812 349.84375 345.34375 Z M 402.859375 424.6875 C 402.386719 423.496094 401.6875 419.175781 402.664062 419.390625 C 403.285156 419.519531 406.011719 423.40625 406.191406 424.253906 C 406.359375 425.097656 405.234375 428.207031 404.6875 428.492188 C 402.902344 429.414062 403.488281 425.71875 402.804688 424.214844 C 402.820312 424.402344 402.835938 424.5 402.859375 424.6875 Z M 386.742188 425.527344 C 385.617188 426.335938 379.179688 424.722656 377.839844 423.382812 C 376.023438 421.542969 378.039062 417.585938 378.601562 416.132812 C 379.050781 414.988281 380.132812 411.273438 382.417969 412.75 C 385.003906 413.308594 386.667969 416.261719 387.050781 418.109375 C 387.371094 419.667969 387.980469 424.648438 386.742188 425.527344 Z M 397.273438 421.128906 C 399.074219 419.667969 401.859375 416.582031 402.046875 422.941406 C 402.085938 424.417969 402.199219 427.546875 401.5625 428.574219 C 400.632812 430.078125 398.765625 429 398.082031 426.875 C 397.558594 425.234375 396.515625 421.136719 397.828125 420.890625 C 397.609375 420.988281 397.492188 421.039062 397.273438 421.128906 Z M 389.082031 423.796875 C 389.539062 421.421875 389.019531 419.167969 390.453125 418.441406 C 391.433594 417.152344 392.941406 415.707031 394.835938 418.261719 C 396.554688 420.582031 396.277344 424.613281 396.1875 426.738281 C 396.023438 430.199219 395.226562 430.769531 391.660156 429.601562 C 387.753906 428.328125 388.519531 426.746094 389.082031 423.796875 Z M 400.652344 439.179688 C 396.441406 440.101562 391.773438 440.558594 386.96875 440.855469 C 386.667969 440.585938 386.351562 440.324219 386.046875 440.046875 C 395.363281 439.71875 400.652344 439.179688 400.652344 439.179688 Z M 410.707031 465.128906 C 411.214844 465.789062 411.574219 466.523438 411.777344 467.324219 C 407.226562 464.507812 403.367188 459.027344 399.523438 455.070312 C 389.117188 444.347656 377.742188 435.996094 365.628906 427.308594 C 382.734375 438.355469 396.210938 450.894531 410.707031 465.128906 Z M 369.367188 410.367188 C 369.464844 405.933594 377.089844 410.636719 376.347656 415.070312 C 376.1875 416.035156 376.113281 419.878906 374.5625 419.742188 C 372.832031 419.59375 371.039062 415.65625 370.328125 414.613281 C 369.25 413.046875 368.078125 411.078125 369.367188 410.367188 Z M 361.234375 407.003906 C 364.382812 405.507812 366.976562 405.617188 367.285156 409.28125 C 367.441406 411.085938 366.167969 414.042969 369.210938 415.746094 C 365.582031 418.171875 358.515625 408.472656 361.492188 406.945312 C 361.386719 406.972656 361.339844 406.980469 361.234375 407.003906 Z M 414.941406 480.011719 C 414.746094 480.8125 414.355469 481.398438 413.769531 480.246094 C 413.359375 479.449219 413.824219 479.0625 414.109375 478.378906 C 414.339844 477.839844 414.679688 476.671875 415.136719 476.394531 C 415.234375 476.125 415.375 475.878906 415.539062 475.96875 C 415.960938 476.207031 415.105469 479.339844 414.941406 480.011719 Z M 412.863281 475.847656 C 414.691406 471.691406 415.433594 469.738281 415.824219 467.445312 C 415.9375 468.230469 415.996094 468.996094 416.355469 469.640625 C 416.445312 465.046875 416.078125 466.449219 416.101562 463.960938 C 416.703125 465.910156 416.957031 466.246094 416.6875 468.296875 C 416.011719 473.382812 411.222656 479.5625 412.863281 475.847656 Z M 417.179688 488.484375 C 416.867188 489.171875 416.800781 486.160156 417.773438 481.195312 C 417.984375 480.140625 417.878906 478.140625 418.613281 478.355469 C 419.054688 480.445312 419.8125 482.632812 417.179688 488.484375 Z M 418.597656 495.949219 C 418.417969 496.273438 417.21875 495.644531 417.542969 495.042969 C 419.59375 491.230469 418.859375 492.835938 420.417969 488.4375 C 420.628906 487.832031 420.980469 487.171875 421.355469 487.203125 C 421.875 489.171875 421.429688 490.855469 418.597656 495.949219 Z M 419.414062 496.308594 C 420.097656 494.625 421.003906 492.308594 421.484375 491.292969 C 422.113281 491.105469 423.222656 493.386719 422.277344 495.148438 C 422 495.664062 420.726562 496.5625 419.617188 497.417969 C 419.265625 497.6875 418.875 497.613281 419.414062 496.308594 Z M 420.285156 437.261719 C 424.453125 435.855469 428.019531 433.546875 432.496094 433.246094 C 430.6875 436.550781 428.394531 441.410156 424.75 444.894531 C 424.046875 444.339844 423.042969 443.253906 422.691406 442.917969 C 422.996094 443.726562 423.371094 444.96875 423.628906 445.890625 C 423.335938 446.136719 423.035156 446.398438 422.726562 446.632812 C 422.660156 446.554688 422.601562 446.464844 422.539062 446.40625 C 422.539062 446.339844 422.539062 446.300781 422.539062 446.234375 C 422.054688 445.441406 421.296875 446.0625 421.894531 447.230469 C 415.457031 451.605469 407.542969 453.027344 399.890625 453.167969 C 397.558594 450.804688 395.152344 448.445312 392.65625 446.085938 C 405.121094 445.777344 427.285156 436.738281 427.285156 436.738281 C 427.285156 436.738281 403.179688 444.421875 390.761719 444.316406 C 389.824219 443.433594 388.863281 442.558594 387.898438 441.6875 C 398.765625 441.066406 409.867188 440.789062 420.285156 437.261719 Z M 423.867188 504.089844 C 423.003906 505.859375 421.507812 506.953125 420.695312 506.152344 C 420.71875 505.972656 420.726562 505.917969 420.742188 505.859375 C 421.492188 505.664062 422.839844 504.675781 423.09375 503.222656 C 422.90625 503.425781 422.707031 503.460938 422.570312 503.589844 C 422.660156 502.742188 423.46875 500.339844 423.964844 500.585938 C 424.835938 499.925781 424.460938 502.871094 423.867188 504.089844 Z M 168.785156 485.777344 C 165.464844 486.859375 161.355469 488.199219 156.65625 489.734375 C 155.929688 488.789062 155.179688 488.152344 154.144531 487.523438 C 154.28125 486.234375 153.921875 484.851562 153 483.636719 C 159.257812 481.539062 165.074219 479.578125 170.15625 477.863281 C 170.132812 478.828125 170.261719 479.914062 170.6875 480.804688 C 169.4375 482.5 168.90625 484.199219 168.785156 485.777344 Z M 139.507812 495.320312 C 134.238281 497.035156 128.648438 498.839844 122.890625 500.707031 C 122.238281 499.523438 121.332031 498.714844 120.222656 498.070312 C 120.402344 497.042969 120.214844 495.957031 119.546875 494.894531 C 126.59375 492.527344 133.675781 490.144531 140.496094 487.847656 C 140.511719 488.738281 140.648438 489.710938 141.074219 490.511719 C 139.996094 492.160156 139.558594 493.808594 139.507812 495.320312 Z M 108.347656 505.402344 C 104.722656 506.5625 101.085938 507.738281 97.472656 508.898438 C 97.445312 507.535156 96.671875 506.113281 95.023438 505.183594 C 95.097656 504.570312 94.949219 503.910156 94.625 503.289062 C 99.242188 501.730469 104.0625 500.105469 108.992188 498.445312 C 109.0625 499.261719 109.195312 499.746094 109.699219 500.445312 C 108.523438 502.167969 108.222656 503.890625 108.347656 505.402344 Z M 86.378906 512.441406 C 84.027344 513.191406 81.695312 513.933594 79.402344 514.660156 C 79.34375 513.371094 78.609375 512.039062 77.101562 511.132812 C 77.265625 510.539062 77.25 509.867188 77.019531 509.207031 C 79.925781 508.226562 83.039062 507.183594 86.3125 506.082031 C 86.441406 506.960938 86.605469 507.140625 86.808594 507.453125 C 85.757812 509.347656 85.886719 511.117188 86.378906 512.441406 Z M 68.257812 518.179688 C 64.539062 519.347656 63.730469 519.601562 61.332031 520.359375 C 61.203125 519.046875 60.386719 517.714844 58.78125 516.859375 C 58.863281 516.375 58.804688 515.871094 58.617188 515.363281 C 62.589844 514.082031 63.835938 513.648438 69 511.910156 C 69.109375 512.398438 69.132812 512.390625 69.207031 512.570312 C 67.671875 514.667969 67.738281 516.695312 68.257812 518.179688 Z M 50.164062 523.960938 C 48.410156 524.53125 46.707031 525.105469 45.089844 525.660156 C 45.035156 524.761719 44.609375 523.878906 43.875 523.160156 C 44.1875 522.289062 44.0625 521.191406 43.296875 520.179688 C 45.574219 519.460938 47.953125 518.71875 50.460938 517.945312 C 50.53125 518.320312 50.628906 518.605469 50.816406 518.957031 C 49.675781 520.824219 49.71875 522.605469 50.164062 523.960938 Z M 34.878906 529.382812 C 33.769531 529.824219 32.734375 530.257812 31.738281 530.679688 C 31.386719 530.078125 30.855469 529.539062 30.195312 529.128906 C 30.398438 528.085938 29.992188 526.851562 28.726562 525.914062 C 30.359375 524.898438 32.535156 523.855469 35.433594 522.816406 C 35.433594 523.203125 35.480469 523.554688 35.546875 523.839844 C 34.039062 525.96875 34.273438 527.984375 34.878906 529.382812 Z M 729.304688 475.945312 L 728.148438 474.46875 C 377.214844 528.304688 551.484375 503.875 420.441406 514.238281 C 463.203125 463.347656 453.023438 374.664062 293.746094 315.003906 L 292.707031 298.03125 C 293.222656 297.992188 293.746094 297.972656 294.25 297.933594 L 294.257812 297.957031 C 294.273438 297.949219 294.28125 297.949219 294.292969 297.949219 L 294.292969 297.933594 C 309.824219 296.636719 333.253906 291.589844 333.195312 275.914062 L 333.21875 275.921875 C 333.585938 269.644531 335.960938 251.65625 336.117188 250.433594 C 336.492188 250.433594 337.542969 250.277344 337.722656 248.53125 C 337.753906 248.554688 339.148438 234.339844 339.085938 232.40625 C 329.484375 216.484375 311.707031 205.585938 297.578125 203.09375 C 294.894531 202.597656 291.214844 202.058594 286.898438 201.738281 C 286.851562 201.019531 285.59375 180.933594 285.585938 180.21875 C 294.445312 173.570312 315.949219 155.992188 333.480469 145.707031 C 334.898438 153.765625 337.4375 162.988281 339.207031 168.066406 C 339.207031 168.066406 339.207031 168.058594 339.207031 168.058594 C 341.238281 174.0625 359.257812 160.835938 364.675781 155.398438 C 372.113281 147.242188 391.328125 121.179688 419.378906 118.582031 C 379.773438 115.347656 365.132812 121.480469 358.550781 124.796875 C 357.832031 115.796875 356.167969 104.171875 352.347656 94.5625 C 351.746094 93.035156 350.554688 91.753906 348.652344 91.730469 C 339.972656 91.589844 316.707031 101.902344 313.46875 103.578125 C 306.101562 107.398438 296.242188 113.015625 288.980469 117.234375 C 289.753906 115.832031 289.566406 114.011719 289.574219 114.828125 C 290.105469 107.675781 290.855469 106.859375 288.523438 103.4375 C 295.328125 92.742188 285.578125 72.160156 269.132812 75.628906 C 255.460938 78.511719 249.960938 93.867188 255.730469 103.144531 C 254.945312 105.234375 255.371094 106.222656 256.113281 113.039062 C 256.113281 112.964844 256.136719 112.882812 256.144531 112.808594 C 255.722656 117.441406 260.769531 119.90625 265.257812 121.144531 C 265.992188 132.886719 267.984375 165 270.265625 201.796875 C 262.785156 202.480469 255.582031 204.292969 249.121094 207.347656 C 237.695312 212.230469 230.261719 220.589844 225.644531 232.429688 C 225.785156 235.621094 227.070312 242.683594 227.472656 244.277344 C 227.472656 244.269531 227.472656 244.257812 227.472656 244.25 C 229.355469 249.4375 227.839844 239.050781 231.84375 271.511719 C 231.851562 271.472656 231.859375 271.441406 231.867188 271.398438 C 232.292969 288.738281 258.683594 296.234375 276.089844 297.820312 C 276.3125 301.273438 276.539062 304.980469 276.785156 308.957031 C 226.972656 292.039062 185.085938 284.984375 185.085938 284.984375 C 185.085938 284.984375 186.910156 285.769531 189.953125 287.367188 C 189.9375 287.367188 184.226562 284.566406 184.226562 284.566406 C 182.621094 284.191406 181.03125 287.777344 181.03125 291.695312 C 181.03125 295.222656 182.222656 298.339844 183.664062 298.921875 C 183.664062 298.921875 230.210938 320.632812 230.210938 320.632812 C 264.761719 364.066406 269.574219 438.019531 187.320312 484.0625 C 187.140625 481.980469 185.859375 480.058594 184.105469 478.804688 C 184.644531 477.234375 184.335938 475.285156 182.90625 473.578125 C 187.574219 472.011719 190.296875 471.09375 190.296875 471.09375 L 189.914062 463.773438 L 176.84375 461.09375 C 5.78125 523.242188 19.4375 515.332031 20.421875 528.246094 C 19.992188 530.613281 20.113281 533.285156 21.785156 535.285156 C 21.882812 535.636719 22.003906 535.953125 22.144531 536.25 C 21.726562 536.671875 21.359375 537.097656 21.125 537.507812 C 21.125 537.507812 21.109375 542.324219 21.425781 556.160156 C 21.425781 556.160156 21.425781 556.160156 22.722656 558.945312 C 22.722656 558.773438 22.765625 558.59375 22.8125 558.414062 C 23.015625 562.433594 23.269531 568.179688 23.457031 574.851562 C 22.175781 575.242188 21.261719 575.570312 20.773438 575.832031 C 20.4375 576.011719 20.757812 596.886719 20.773438 597.269531 C 20.773438 597.269531 20.855469 598.714844 23.695312 599.605469 C 23.335938 631.464844 47.1875 663.167969 72.992188 675.226562 C 77.976562 677.550781 353.875 684.957031 453.1875 677.257812 L 453.175781 677.257812 C 455.265625 677.078125 457.3125 676.949219 461.203125 676.574219 L 467.453125 673.683594 C 467.453125 673.683594 507.980469 647.636719 512.035156 532.476562 L 730 490.152344 L 729.304688 475.945312 " fill-opacity="1" fill-rule="nonzero"/></g><path fill="#000000" d="M 321.496094 123.578125 C 320.886719 125.964844 322.140625 126.773438 323.324219 126.671875 C 323.015625 126.558594 322.15625 125.351562 322.335938 124.394531 C 323.046875 125.996094 324.808594 125.695312 325.878906 125.335938 C 325.648438 125.605469 324.382812 126.25 323.984375 126.257812 C 325.332031 126.953125 329.238281 124.542969 329.367188 121.960938 C 330.496094 123.953125 327.582031 127.074219 325.484375 127.792969 C 325.746094 127.980469 326.667969 127.964844 327.050781 128.183594 C 327.371094 128.371094 327.5 129.53125 327.335938 130.632812 C 327.589844 130.121094 327.371094 127.5625 328.855469 126.226562 C 330.511719 124.738281 330.945312 120.84375 331.132812 120.664062 C 330.945312 120.746094 330.46875 121.605469 330.339844 121.847656 C 330.234375 121.515625 329.359375 119.105469 330.953125 117.300781 C 329.769531 117.398438 329.832031 118.738281 328.976562 119.261719 C 329.148438 119.046875 329.132812 118.597656 329.109375 118.386719 C 328.886719 118.804688 327.402344 119.292969 326.847656 119.40625 C 322.53125 120.28125 322.273438 121.988281 321.898438 122.140625 C 322.085938 122.125 323.085938 121.921875 323.273438 121.882812 C 322.746094 122.402344 321.71875 122.722656 321.496094 123.578125 " fill-opacity="1" fill-rule="nonzero"/><path fill="#000000" d="M 334.109375 116.941406 C 333.226562 117.203125 332.886719 116.003906 331.839844 116.902344 C 333.78125 117.113281 333.308594 120.070312 333.21875 120.492188 C 333.082031 120.378906 332.558594 119.996094 332.371094 120.085938 C 332.566406 120.085938 332.902344 123.554688 334.46875 123.40625 C 335.878906 123.277344 335.007812 126.160156 335.144531 126.4375 C 335.300781 125.425781 335.707031 124.101562 336.125 123.578125 C 336.605469 122.957031 337.617188 122.109375 337.925781 121.695312 C 335.738281 122.925781 333.203125 122.589844 334.164062 119.710938 C 334.460938 122.003906 338.253906 120.6875 339.597656 118.984375 C 339.199219 119.292969 337.925781 119.792969 337.691406 119.742188 C 338.773438 119.144531 340.644531 117.960938 341.011719 116.117188 C 341.328125 116.792969 340.570312 118.46875 340.265625 118.820312 C 341.449219 117.960938 342.675781 116.394531 341.574219 114.859375 C 341.171875 114.304688 340.21875 114.761719 339.640625 114.710938 C 339.800781 114.613281 340.675781 114.074219 340.832031 113.960938 C 340.488281 114.101562 339.785156 112.71875 335.945312 115.359375 C 335.453125 115.699219 334.058594 116.484375 333.75 116.304688 C 333.789062 116.5 333.894531 116.910156 334.109375 116.941406 " fill-opacity="1" fill-rule="nonzero"/><path fill="#000000" d="M 331.015625 115.421875 C 331.023438 115.40625 331.023438 115.398438 331.023438 115.382812 C 331.03125 115.390625 331.050781 115.398438 331.058594 115.40625 C 331.261719 114.386719 333.015625 113.152344 335.886719 112.386719 C 332.402344 112.011719 332.476562 114.351562 330.476562 113.503906 C 330.476562 113.511719 330.46875 113.519531 330.46875 113.527344 C 330.460938 113.527344 330.453125 113.519531 330.445312 113.519531 C 329.492188 115.652344 328.234375 113.839844 325.550781 116.867188 C 328.382812 115.210938 330.386719 114.769531 331.015625 115.421875 " fill-opacity="1" fill-rule="nonzero"/><path fill="#000000" d="M 332.640625 123.03125 C 332.371094 122.347656 332.894531 121.71875 331.785156 121.464844 C 330.683594 122.769531 331.1875 122.917969 330.84375 123.914062 C 330.265625 125.578125 329.058594 126.40625 328.921875 127.644531 C 328.757812 129.140625 330.183594 128.316406 330.753906 128.191406 C 330.316406 127.980469 330.863281 126.789062 331.5 126.242188 C 331.507812 126.242188 331.507812 126.242188 331.515625 126.234375 C 331.523438 126.234375 331.523438 126.226562 331.53125 126.226562 C 332.109375 126.144531 332.417969 126.863281 331.839844 127.605469 C 332.46875 127.089844 333.945312 126.378906 334.109375 124.96875 C 334.246094 123.792969 333.082031 124.175781 332.640625 123.03125 " fill-opacity="1" fill-rule="nonzero"/><path fill="#000000" d="M 368.589844 375.226562 C 367.628906 375.21875 367.398438 375.464844 368.714844 377.488281 C 370.058594 379.5625 370.851562 380.242188 369.609375 381 C 372.589844 382.925781 370.957031 384.558594 370.914062 385.742188 C 370.859375 387.410156 370.785156 389.382812 370.769531 391.238281 C 371.609375 390.226562 372.113281 381.808594 376.820312 385.964844 C 376.59375 385.6875 376.324219 385.375 376.015625 385.066406 C 377.089844 385.515625 378.378906 386.324219 379.15625 387.320312 C 378.386719 386.019531 376.339844 384.226562 374.585938 383.015625 C 375.027344 382.984375 375.191406 382.714844 375.972656 383 C 373.714844 381.683594 372.539062 380.320312 371.746094 379.015625 C 372.203125 377.890625 375.109375 378.964844 376.007812 378.535156 C 370.253906 375.628906 365.695312 369.660156 360.957031 365.460938 C 364.75 369.046875 363.917969 368.828125 360.023438 366.109375 C 355.675781 362.859375 348.132812 357.011719 342.429688 357.484375 C 345.539062 359.324219 355.773438 362.058594 368.589844 375.226562 " fill-opacity="1" fill-rule="nonzero"/><path fill="#000000" d="M 371.984375 396.128906 C 370.289062 396.9375 373.894531 402.652344 377.964844 404.523438 C 378.585938 403.648438 380.820312 402.800781 381.660156 402.164062 C 382.359375 403.25 384.050781 405.671875 384.488281 406.703125 C 387.425781 407.65625 386.253906 406.414062 386.398438 404.847656 C 386.96875 404.367188 387.6875 404.113281 388.4375 404.882812 C 389.652344 406.113281 387.710938 407.0625 387.207031 407.4375 C 392.867188 407.527344 389.042969 401.453125 386.433594 399.066406 C 384.328125 395.359375 383.203125 392.796875 380.714844 389.84375 C 380.535156 390.496094 380.4375 390.820312 380.027344 391.402344 C 378.960938 390.226562 378.421875 389.636719 377.3125 388.460938 C 373.722656 389.1875 376.796875 393.835938 371.984375 396.128906 " fill-opacity="1" fill-rule="nonzero"/><path fill="#000000" d="M 392.289062 401.363281 C 391.226562 400.105469 390.84375 399.050781 390.003906 397.890625 C 388.789062 396.636719 387.523438 395.117188 386.5625 393.925781 C 387.65625 395.679688 389.117188 397.53125 390.152344 399.222656 C 389.417969 398.617188 388.617188 397.71875 387.890625 396.9375 C 395.566406 407.722656 395.648438 404.324219 395.632812 409.503906 C 396.195312 408.210938 397.265625 407.371094 396.203125 404.988281 C 394.613281 404.234375 392.605469 401.125 392.289062 401.363281 " fill-opacity="1" fill-rule="nonzero"/><path fill="#000000" d="M 294.894531 472.179688 C 294.324219 473.445312 299.707031 472.566406 298.769531 471.707031 C 298.417969 471.382812 295.703125 471.921875 294.894531 472.179688 " fill-opacity="1" fill-rule="nonzero"/><path fill="#000000" d="M 300.328125 472.882812 C 300.726562 472.664062 301.085938 472.566406 301.585938 472.394531 C 301.59375 472.261719 301.601562 472.207031 301.601562 472.074219 C 297.34375 471.453125 300.457031 475.488281 302.21875 472.558594 C 301.691406 472.710938 301.429688 472.6875 300.75 473.007812 C 300.546875 473.007812 300.402344 472.964844 300.328125 472.882812 " fill-opacity="1" fill-rule="nonzero"/><path fill="#000000" d="M 398.734375 404.914062 C 398.734375 404.914062 395.332031 400.578125 393.226562 398.113281 C 395.835938 399.972656 400.804688 402.871094 401.082031 402.269531 C 402.4375 399.296875 395.871094 390.191406 391.9375 386.460938 C 389.703125 384.347656 386.539062 383.554688 384.238281 383.515625 C 373.65625 380.265625 390.722656 397.3125 398.734375 404.914062 " fill-opacity="1" fill-rule="nonzero"/><path fill="#000000" d="M 338.089844 374.238281 C 342.601562 377.757812 347.324219 380.671875 352.707031 382.679688 C 351.371094 382.511719 349.722656 383.921875 349.722656 383.921875 C 349.722656 383.921875 353.335938 385.621094 354.84375 385.800781 C 357.863281 386.167969 361.09375 386.625 363.109375 385.921875 C 369.886719 387.171875 370.566406 384.226562 367.734375 380.5 C 364.316406 376.003906 360.957031 371.40625 355.898438 368.425781 C 353.148438 367.398438 348.042969 366.15625 346.183594 364.957031 C 335.609375 358.128906 331.800781 365.265625 338.089844 374.238281 " fill-opacity="1" fill-rule="nonzero"/></svg>