<svg xmlns="http://www.w3.org/2000/svg" xmlns:xlink="http://www.w3.org/1999/xlink" width="1000" zoomAndPan="magnify" viewBox="0 0 750 749.999995" height="1000" preserveAspectRatio="xMidYMid meet" version="1.0"><defs><clipPath id="id1"><path d="M 549 428 L 698.449219 428 L 698.449219 528 L 549 528 Z M 549 428 " clip-rule="nonzero"/></clipPath><clipPath id="id2"><path d="M 289 57.273438 L 320 57.273438 L 320 623 L 289 623 Z M 289 57.273438 " clip-rule="nonzero"/></clipPath><clipPath id="id3"><path d="M 71.140625 458.46875 L 606.125 458.46875 L 606.125 692.519531 L 71.140625 692.519531 Z M 71.140625 458.46875 " clip-rule="nonzero"/></clipPath><clipPath id="id4"><path d="M 51.199219 449 L 606 449 L 606 621 L 51.199219 621 Z M 51.199219 449 " clip-rule="nonzero"/></clipPath></defs><path fill="#f6f6f6" d="M 516.742188 421.378906 L 521.511719 414.25 C 471.257812 380.5625 449.582031 338.671875 435.011719 302.148438 L 427.039062 305.328125 C 442.105469 343.078125 464.539062 386.386719 516.742188 421.378906 " fill-opacity="1" fill-rule="nonzero"/><path fill="#f6f6f6" d="M 556.988281 415.734375 L 560.679688 406.796875 C 497.65625 380.761719 464.382812 339.316406 440.15625 302.203125 L 432.054688 307.492188 C 457.105469 345.839844 491.527344 388.691406 556.988281 415.734375 " fill-opacity="1" fill-rule="nonzero"/><path fill="#582514" d="M 582.976562 386.339844 L 598.421875 407.847656 L 310.300781 486.390625 L 307.824219 469.660156 L 582.976562 386.339844 " fill-opacity="1" fill-rule="nonzero"/><g clip-path="url(#id1)"><path fill="#632815" d="M 559.1875 489.957031 L 698.4375 428.144531 L 653.574219 490.191406 C 637.179688 480.734375 607.394531 486.367188 549.226562 527.695312 L 559.1875 489.957031 " fill-opacity="1" fill-rule="nonzero"/></g><path fill="#df1d25" d="M 300.460938 104.707031 L 303.207031 134.691406 C 259.542969 145.253906 226.691406 136.652344 193.695312 128.316406 C 257.96875 124.875 259.378906 97.667969 300.460938 104.707031 " fill-opacity="1" fill-rule="nonzero"/><g clip-path="url(#id2)"><path fill="#582514" d="M 315.15625 57.273438 L 319.433594 619.945312 L 302.328125 622.796875 L 289.425781 57.792969 L 315.15625 57.273438 " fill-opacity="1" fill-rule="nonzero"/></g><path fill="#df1d25" d="M 381.214844 173.875 L 426.953125 314.5625 C 354.054688 241.453125 281.042969 173.238281 203.96875 319.054688 L 226.675781 168.414062 L 381.214844 173.875 " fill-opacity="1" fill-rule="nonzero"/><path fill="#f0f2d4" d="M 350.753906 172.800781 C 359.886719 206.09375 370.488281 238.621094 381.050781 271.160156 C 365.929688 258.363281 350.769531 247.695312 335.539062 240.921875 C 330.414062 217.835938 324.238281 194.773438 319.308594 171.695312 L 350.753906 172.800781 " fill-opacity="1" fill-rule="nonzero"/><path fill="#f0f2d4" d="M 245.769531 169.089844 L 281.398438 170.355469 C 284.277344 191.757812 284.308594 213.632812 284.027344 235.5625 C 272.726562 238.742188 261.367188 245.148438 249.945312 255.464844 C 246.4375 226.714844 243.605469 197.953125 245.769531 169.089844 " fill-opacity="1" fill-rule="nonzero"/><path fill="#11100f" d="M 450.628906 269.632812 C 437.703125 364.101562 445.195312 451.175781 474.207031 530.46875 C 375.414062 509.960938 279.195312 504.605469 188.507812 531.652344 C 165.902344 445.011719 165.570312 357.902344 183.242188 270.449219 C 197.027344 288.898438 210.605469 297.257812 223.472656 270.328125 C 237.222656 295.910156 249.914062 297.050781 261.386719 270.214844 C 276.234375 297.421875 287.902344 296.15625 296.796875 270.105469 C 315.828125 299.234375 328.902344 294.9375 338.296875 269.984375 C 356.863281 303.398438 368.386719 286.929688 379.816406 269.859375 C 395.195312 296.847656 409.570312 300.050781 422.546875 269.730469 C 434.523438 295.203125 443.214844 288.675781 450.628906 269.632812 " fill-opacity="1" fill-rule="nonzero"/><path fill="#df1d25" d="M 258.957031 351.433594 C 224.039062 433.730469 266.746094 499 309.011719 564.371094 L 116.429688 516.300781 C 93.058594 449.5625 84.714844 385.558594 121.246094 329.769531 C 160.804688 352.882812 207.039062 359.277344 258.957031 351.433594 " fill-opacity="1" fill-rule="nonzero"/><path fill="#b11d23" d="M 99.316406 451.472656 C 163.085938 441.796875 230.9375 452.171875 263.519531 506.644531 C 273.347656 523.824219 279.671875 541.074219 284.875 558.339844 L 116.429688 516.296875 C 108.730469 494.320312 102.683594 472.652344 99.316406 451.472656 " fill-opacity="1" fill-rule="nonzero"/><path fill="#ffffff" d="M 368.273438 398.996094 L 301.734375 444.449219 C 302.6875 469.390625 277.234375 473.839844 287.207031 446.664062 C 268.402344 435.957031 286.863281 424.675781 299.539062 437.671875 L 364.386719 391.5 C 366.417969 373.558594 384.449219 373.726562 378.3125 391.957031 C 409.472656 399.515625 375.679688 425.128906 368.273438 398.996094 " fill-opacity="1" fill-rule="nonzero"/><path fill="#ffffff" d="M 360.875 435.089844 L 283.628906 416.875 C 267.800781 435.183594 246.816406 419.078125 271.859375 407.453125 C 265.617188 385.699219 286.164062 391.691406 286.566406 410.421875 L 363.082031 426.859375 C 376.390625 415.75 389.066406 429.492188 372.65625 437.710938 C 389.738281 466.585938 348.84375 459.117188 360.875 435.089844 " fill-opacity="1" fill-rule="nonzero"/><path fill="#ffffff" d="M 305.652344 372.976562 C 300.140625 375.464844 288.96875 374.386719 287.273438 370.136719 C 285.582031 365.886719 291.457031 359.761719 296.960938 357.269531 C 302.480469 354.785156 310.597656 355.757812 312.296875 360.015625 C 313.980469 364.273438 311.171875 370.484375 305.652344 372.976562 Z M 319.453125 380.8125 L 320.085938 369.980469 L 326.863281 378.785156 L 322.757812 376.6875 Z M 323.082031 360.277344 C 321.523438 356.375 324.527344 351.273438 329.796875 348.898438 C 335.042969 346.53125 340.570312 347.769531 342.125 351.6875 C 343.679688 355.597656 340.671875 360.699219 335.414062 363.066406 C 330.160156 365.4375 324.636719 364.191406 323.082031 360.277344 Z M 309.828125 410.363281 L 324 403.96875 L 323.53125 390.402344 L 327.121094 400.796875 L 337.242188 395.933594 L 332.566406 384.863281 L 340.480469 396.523438 L 351.632812 391.503906 L 339.300781 377.011719 C 336.890625 375.753906 341.191406 372.785156 341.191406 372.785156 C 375.355469 358.832031 356.421875 341.5 356.421875 341.5 C 335.964844 325.832031 294.1875 342.695312 294.1875 342.695312 C 230.351562 368.195312 308.082031 383.890625 308.082031 383.890625 C 316.339844 385.53125 309.828125 410.363281 309.828125 410.363281 " fill-opacity="1" fill-rule="nonzero"/><g clip-path="url(#id3)"><path fill="#7f301a" d="M 606.019531 472.253906 L 351.300781 556.46875 L 339.957031 601.867188 L 259.179688 609.992188 C 275.617188 473.683594 188.945312 434.882812 71.203125 471.582031 L 89.089844 560.738281 L 97.03125 600.261719 C 165.691406 615.542969 179.359375 655.988281 195.765625 692.519531 C 339.511719 689.617188 308.867188 688.699219 477.535156 685.300781 C 493.007812 611.617188 555.054688 541.238281 606.019531 472.253906 " fill-opacity="1" fill-rule="nonzero"/></g><path fill="#632815" d="M 260.039062 601.75 C 259.792969 604.460938 259.515625 607.195312 259.179688 609.992188 L 339.957031 601.867188 L 340.074219 601.371094 L 513.449219 600.550781 C 512.246094 602.542969 511.0625 604.546875 509.902344 606.542969 C 401.835938 622.8125 184.050781 609.429688 112.167969 604.328125 C 110.125 603.683594 108.035156 603.070312 105.882812 602.476562 L 260.039062 601.75 " fill-opacity="1" fill-rule="nonzero"/><path fill="#632815" d="M 486.222656 655.65625 C 398.394531 664.25 264.421875 659.1875 177.230469 654.261719 C 175.992188 652.1875 174.691406 650.132812 173.324219 648.113281 L 489.777344 646.609375 C 488.53125 649.625 487.34375 652.636719 486.222656 655.65625 " fill-opacity="1" fill-rule="nonzero"/><path fill="#632815" d="M 350.542969 559.503906 L 540.46875 558.605469 C 499.4375 570.015625 424.488281 573.070312 347.304688 572.464844 L 350.542969 559.503906 " fill-opacity="1" fill-rule="nonzero"/><path fill="#632815" d="M 261.023438 570.488281 C 167.417969 567.113281 89.089844 560.738281 89.089844 560.738281 L 260.34375 559.929688 C 260.660156 563.359375 260.890625 566.882812 261.023438 570.488281 " fill-opacity="1" fill-rule="nonzero"/><g clip-path="url(#id4)"><path fill="#582514" d="M 258.582031 610.003906 L 339.660156 601.875 L 351.15625 556.472656 L 605.949219 472.257812 C 598.882812 481.828125 592.230469 491.441406 585.835938 501.097656 C 512.589844 520.929688 442.414062 550.234375 376.292969 568.730469 C 367.804688 573.191406 364.222656 607.59375 355.816406 616.34375 C 327.695312 618.011719 267.523438 622.519531 252.304688 618.441406 C 258.8125 514.472656 181.367188 448.339844 51.859375 493.75 L 51.214844 461.585938 C 176.65625 423.695312 288.792969 471.019531 258.582031 610.003906 " fill-opacity="1" fill-rule="nonzero"/></g><path fill="#ffffff" d="M 203.664062 516.4375 L 193.0625 565.792969 L 148.894531 566.164062 L 143.429688 507.636719 L 203.664062 516.4375 " fill-opacity="1" fill-rule="nonzero"/><path fill="#582514" d="M 156.75 563.738281 L 153.886719 546.632812 L 166.121094 547.167969 L 164.878906 564.195312 Z M 193.0625 565.792969 L 175.238281 564.785156 L 176.492188 547.625 L 196.15625 548.503906 Z M 197.996094 538.195312 L 177.265625 537.269531 L 178.5 520.386719 L 200.625 523.511719 Z M 148.777344 516.179688 L 168.207031 518.925781 L 166.882812 536.816406 L 152.128906 536.160156 Z M 136.195312 503.914062 L 147.890625 573.628906 L 201.652344 576.675781 L 212.738281 514.75 L 136.195312 503.914062 " fill-opacity="1" fill-rule="nonzero"/><path fill="#582514" d="M 408.117188 160.460938 L 402.6875 174.875 L 196.625 167.585938 L 191.933594 147.664062 L 408.117188 160.460938 " fill-opacity="1" fill-rule="nonzero"/></svg>