<svg xmlns="http://www.w3.org/2000/svg" xmlns:xlink="http://www.w3.org/1999/xlink" width="1000" zoomAndPan="magnify" viewBox="0 0 750 749.999995" height="1000" preserveAspectRatio="xMidYMid meet" version="1.0"><defs><clipPath id="id1"><path d="M 546 488 L 701.183594 488 L 701.183594 516 L 546 516 Z M 546 488 " clip-rule="nonzero"/></clipPath><clipPath id="id2"><path d="M 48.683594 367 L 135 367 L 135 427 L 48.683594 427 Z M 48.683594 367 " clip-rule="nonzero"/></clipPath><clipPath id="id3"><path d="M 420 123.734375 L 548 123.734375 L 548 241 L 420 241 Z M 420 123.734375 " clip-rule="nonzero"/></clipPath></defs><path fill="#000000" d="M 513.214844 162.816406 C 518.199219 164.214844 523.460938 166.460938 528.785156 167.410156 C 528.894531 167.472656 528.9375 167.539062 529.042969 167.558594 C 532.496094 168.679688 537.109375 170.339844 540.410156 168.269531 C 543.363281 167.191406 546.359375 164.605469 548.496094 163.007812 C 554.835938 158.242188 558.371094 151.707031 557.617188 143.664062 C 557.292969 140.167969 552.246094 140.0625 552.097656 143.664062 C 551.964844 147.546875 549.808594 149.507812 546.964844 150.457031 C 542.886719 150.21875 538.554688 148.667969 535.039062 147.265625 C 519.277344 140.839844 504.65625 126.863281 486.671875 133.851562 C 487.640625 143.492188 489.734375 152.957031 491.71875 162.46875 C 498.8125 160.765625 506.144531 160.808594 513.214844 162.816406 " fill-opacity="1" fill-rule="nonzero"/><path fill="#000000" d="M 566.175781 360.582031 L 564.429688 361.683594 L 564.644531 363 C 565.207031 366.34375 566.304688 369.707031 567.320312 372.554688 L 568.613281 376.199219 L 570.941406 373.09375 C 573.960938 369.058594 577.519531 365.15625 580.96875 361.402344 C 582.652344 359.570312 584.3125 357.757812 585.863281 355.96875 C 598.804688 341.195312 612.066406 326.398438 624.550781 312.511719 C 632.9375 303.214844 641.390625 293.964844 649.824219 284.691406 C 660.410156 273.066406 671.019531 261.417969 681.542969 249.730469 L 683.09375 248.003906 L 681.21875 246.644531 C 680.808594 246.363281 680.421875 246.105469 680.011719 245.847656 L 678.804688 245.09375 L 677.660156 245.957031 C 656.960938 261.460938 640.570312 281.734375 624.742188 301.359375 C 607.40625 322.839844 589.464844 345.035156 566.175781 360.582031 " fill-opacity="1" fill-rule="nonzero"/><path fill="#000000" d="M 486.390625 243.023438 L 487.144531 245.328125 C 487.234375 245.609375 487.277344 245.824219 487.277344 246.0625 C 487.320312 247.851562 487.535156 249.46875 487.964844 251.195312 L 488.417969 253.007812 L 494.84375 252.039062 L 496.828125 251.605469 L 496.589844 249.621094 C 496.375 247.875 496.179688 246.148438 496.136719 244.425781 L 497.734375 241.210938 L 486.390625 243.023438 " fill-opacity="1" fill-rule="nonzero"/><path fill="#000000" d="M 507.523438 340.761719 C 490.554688 342.445312 473.386719 343.050781 456.804688 343.632812 C 447.792969 343.957031 438.777344 344.277344 429.742188 344.753906 L 427.714844 344.859375 L 427.890625 352.839844 L 430.152344 352.605469 C 430.457031 352.5625 430.757812 352.539062 431.058594 352.539062 L 432.136719 352.429688 C 446.886719 348.507812 462.84375 349.304688 478.285156 350.058594 C 483.007812 350.296875 487.664062 350.511719 492.277344 350.621094 C 517.054688 351.160156 539.976562 347.621094 564.324219 343.957031 L 566.089844 343.675781 C 566.652344 343.589844 567.210938 343.675781 567.664062 343.871094 L 568.140625 344.0625 L 568.636719 344.019531 C 570.125 343.914062 571.589844 343.890625 573.078125 343.890625 C 574.953125 343.871094 576.828125 343.847656 578.683594 343.652344 C 580.195312 343.503906 581.335938 342.898438 582.113281 341.863281 L 584.421875 338.585938 L 580.34375 338.5625 C 556.386719 338.457031 531.566406 338.371094 507.523438 340.761719 " fill-opacity="1" fill-rule="nonzero"/><path fill="#000000" d="M 593.90625 255.789062 C 595.136719 278.023438 596.34375 300.21875 597.617188 322.429688 L 597.898438 327.457031 L 601.84375 322.992188 C 603.203125 321.460938 604.558594 319.929688 605.875 318.355469 L 606.394531 317.773438 L 606.351562 316.15625 L 606.242188 316.027344 C 604.152344 300.5 603.160156 284.410156 602.210938 268.859375 C 601.84375 262.410156 601.433594 255.984375 600.980469 249.578125 C 600.507812 243.171875 599.882812 236.722656 599.300781 230.234375 C 597.941406 215.890625 596.558594 201.054688 596.582031 186.644531 L 596.582031 184.855469 L 590.5 183.90625 L 590.394531 186.214844 C 589.679688 201.9375 591.019531 218.199219 592.3125 233.921875 C 592.917969 241.296875 593.519531 248.609375 593.90625 255.789062 " fill-opacity="1" fill-rule="nonzero"/><path fill="#000000" d="M 442.421875 510.257812 L 439.511719 510.558594 C 438.863281 510.601562 438.21875 510.667969 437.550781 510.710938 C 437.140625 510.734375 436.320312 510.710938 435.285156 510.691406 C 429.894531 510.601562 424.417969 510.625 421.765625 511.769531 L 418.316406 513.257812 L 421.421875 515.390625 C 424.785156 517.65625 427.652344 519.921875 430.175781 522.292969 L 430.886719 522.960938 L 431.8125 522.851562 C 434.25 522.59375 436.644531 522.398438 439.015625 522.226562 L 440.976562 522.097656 L 440.957031 520.136719 C 440.914062 517.699219 441.171875 515.328125 441.710938 513.105469 L 442.421875 510.257812 " fill-opacity="1" fill-rule="nonzero"/><path fill="#000000" d="M 342.992188 312.164062 L 344.480469 312.164062 C 345.363281 312.164062 346.226562 312.164062 347.089844 312.144531 L 349.503906 312.035156 L 349.074219 309.6875 C 348.644531 307.441406 348.554688 305.136719 348.46875 302.675781 C 348.339844 299.550781 348.210938 296.3125 347.371094 293.144531 L 346.9375 291.546875 L 340.191406 291.742188 L 340.210938 293.769531 C 340.320312 299.332031 340.664062 305.242188 342.519531 310.765625 L 342.992188 312.164062 " fill-opacity="1" fill-rule="nonzero"/><path fill="#000000" d="M 183.140625 446.980469 C 181.609375 445.816406 180.101562 444.652344 178.589844 443.507812 C 172.855469 439.085938 166.925781 434.515625 160.261719 431.238281 L 154.527344 428.410156 L 157.523438 434.0625 C 164.164062 446.570312 180.8125 457.679688 198.019531 461.0625 L 211.175781 463.652344 L 199.421875 457.203125 C 194.828125 454.703125 188.835938 451.273438 183.140625 446.980469 " fill-opacity="1" fill-rule="nonzero"/><path fill="#000000" d="M 271.378906 414.175781 C 277.828125 404.882812 287.101562 397.722656 295.25 389.980469 C 312.136719 373.953125 323.457031 354.566406 336.136719 335.566406 C 325.828125 339.707031 315.929688 344.667969 305.578125 348.851562 C 291.757812 354.414062 277.394531 357.757812 263.25 362.222656 C 253.160156 381.007812 242.851562 399.640625 231.636719 417.820312 C 230.300781 419.957031 228.058594 420.152344 226.3125 419.308594 C 202.074219 416.960938 178.117188 411.4375 153.921875 408.355469 C 152.003906 408.117188 150.085938 407.859375 148.144531 407.621094 C 145.1875 410.46875 141.953125 413.121094 138.527344 415.449219 C 138.71875 415.535156 138.894531 415.644531 139.085938 415.75 C 139.324219 415.882812 139.476562 416.011719 139.691406 416.140625 C 142.429688 414.976562 145.1875 413.832031 148.015625 412.820312 C 149.179688 412.429688 150.171875 412.558594 150.96875 412.992188 C 152.261719 412.96875 153.511719 413.550781 154.355469 415.019531 C 155.367188 416.832031 156.359375 418.664062 157.351562 420.453125 C 157.71875 420.410156 158.085938 420.390625 158.515625 420.410156 C 174.214844 422.199219 187.453125 429.253906 202.398438 433.761719 C 218.484375 438.589844 235.367188 439.753906 251.5625 444.480469 C 259.152344 435.054688 264.480469 424.164062 271.378906 414.175781 " fill-opacity="1" fill-rule="nonzero"/><path fill="#000000" d="M 371.113281 326.679688 C 372.773438 326.679688 374.433594 326.679688 376.113281 326.679688 L 378.355469 326.660156 L 378.164062 324.414062 C 378.011719 322.582031 377.90625 320.683594 377.839844 318.808594 L 377.773438 316.933594 L 375.921875 316.800781 C 364.554688 316.003906 353.042969 316.175781 341.914062 316.371094 C 338.226562 316.414062 334.519531 316.480469 330.832031 316.5 L 329.214844 316.523438 L 328.824219 318.074219 C 328.589844 319.046875 328.371094 320.039062 328.136719 321.03125 C 327.941406 321.914062 327.746094 322.820312 327.53125 323.703125 L 326.90625 326.25 L 343.078125 326.484375 L 344.460938 325.988281 C 345.042969 325.773438 345.625 325.582031 346.183594 325.40625 C 346.9375 325.148438 347.5625 325.320312 348.039062 325.859375 L 348.664062 326.53125 L 349.546875 326.550781 C 356.75 326.617188 363.929688 326.679688 371.113281 326.679688 " fill-opacity="1" fill-rule="nonzero"/><path fill="#000000" d="M 417.820312 539.957031 L 419.714844 539.914062 C 438.542969 539.503906 457.605469 538.273438 476.039062 537.109375 C 492.449219 536.050781 509.421875 534.972656 526.132812 534.457031 C 542.628906 533.917969 562.167969 533.074219 582.070312 530.789062 C 587.742188 530.144531 593.476562 529.238281 599.039062 528.351562 C 607.75 526.972656 616.765625 525.550781 625.605469 525.074219 L 627.546875 524.96875 L 627.699219 514.527344 L 625.371094 514.789062 C 597.59375 517.9375 571.742188 519.597656 546.339844 519.855469 L 545.304688 520.070312 C 541.3125 520.71875 537.347656 521.429688 533.398438 522.140625 C 519.425781 524.644531 506.335938 527.082031 492.234375 526.800781 C 486.910156 526.714844 481.605469 526.519531 476.300781 526.347656 C 461.378906 525.808594 445.917969 525.246094 430.648438 527.101562 C 429.851562 527.1875 429.527344 526.929688 429.441406 526.84375 L 428.816406 526.453125 C 428.515625 526.324219 428.253906 526.175781 427.996094 525.894531 C 426.054688 524.019531 423.855469 522.183594 421.246094 520.308594 L 418.421875 518.257812 L 417.992188 521.730469 C 417.238281 527.726562 417.105469 533.054688 417.601562 538.058594 L 417.820312 539.957031 " fill-opacity="1" fill-rule="nonzero"/><path fill="#000000" d="M 349.398438 334.445312 C 356.210938 335.414062 363.15625 335.542969 369.859375 335.671875 C 374.109375 335.761719 378.378906 335.847656 382.648438 336.148438 C 388.75 336.578125 395.113281 336.96875 401.730469 336.96875 C 404.835938 336.96875 408.007812 336.882812 411.199219 336.664062 L 411.800781 336.664062 C 413.441406 336.429688 415.082031 336.386719 416.699219 336.34375 L 418.273438 336.320312 L 418.660156 334.8125 C 419.328125 332.308594 418.855469 330.304688 417.34375 329.355469 C 416.308594 328.6875 414.542969 328.382812 411.933594 330.324219 L 349.675781 330.324219 L 349.398438 334.445312 " fill-opacity="1" fill-rule="nonzero"/><path fill="#000000" d="M 487.253906 257.257812 C 480.136719 258.292969 473 259.476562 465.839844 260.683594 C 451.996094 263.015625 437.679688 265.429688 423.621094 266.574219 L 421.570312 267.21875 L 421.851562 270.820312 L 422.90625 272.589844 L 424.632812 271.945312 C 424.871094 271.855469 425.042969 271.8125 425.238281 271.792969 C 440.871094 270.542969 456.460938 267.757812 471.535156 265.085938 C 480.355469 263.53125 489.476562 261.914062 498.488281 260.621094 C 506.144531 259.519531 513.84375 258.570312 521.5625 257.601562 C 535.296875 255.875 549.507812 254.109375 563.351562 251.5625 L 565.054688 251.261719 L 565.054688 249.535156 C 565.054688 248.609375 565.035156 247.703125 564.949219 246.796875 L 564.796875 244.789062 L 562.8125 244.875 C 546.855469 245.480469 530.792969 248.800781 515.222656 252.039062 C 506.035156 253.933594 496.527344 255.898438 487.253906 257.257812 " fill-opacity="1" fill-rule="nonzero"/><path fill="#000000" d="M 298.765625 333.515625 L 298.441406 334.164062 C 298.25 334.550781 298.011719 334.855469 297.6875 335.070312 C 293.441406 337.960938 291.195312 341.042969 290.851562 344.472656 L 290.550781 347.644531 L 293.570312 346.628906 C 299.132812 344.796875 304.003906 342.898438 308.492188 340.871094 L 314.054688 338.347656 C 316.75 337.117188 319.445312 335.910156 322.140625 334.703125 L 329.839844 331.296875 L 321.429688 330.757812 C 313.558594 330.238281 305.945312 330.042969 299.414062 333.195312 L 298.765625 333.515625 " fill-opacity="1" fill-rule="nonzero"/><path fill="#000000" d="M 494.242188 267.5 C 472.417969 271.125 450.8125 275.589844 428.75 277.679688 C 428.492188 285.898438 430.433594 293.574219 440.503906 294.09375 C 446.5 294.394531 452.492188 294.675781 458.488281 295.019531 C 468.882812 295.667969 479.339844 296.378906 489.648438 298.039062 C 505.84375 300.671875 519.40625 302.976562 535.46875 297.542969 C 542.523438 295.171875 549.402344 293.144531 556.601562 291.851562 C 552.355469 284.539062 543.125 286.976562 538.75 279.554688 C 535.234375 273.5625 541.789062 266.660156 544.546875 260.75 C 527.792969 263.015625 510.929688 264.71875 494.242188 267.5 " fill-opacity="1" fill-rule="nonzero"/><path fill="#000000" d="M 445.097656 519.769531 L 445.074219 521.925781 L 447.210938 521.859375 C 455.511719 521.667969 464.007812 521.925781 472.203125 522.207031 C 476.796875 522.335938 481.386719 522.488281 486.003906 522.574219 C 486.714844 522.574219 487.449219 522.574219 488.160156 522.574219 C 492.449219 522.574219 496.828125 522.421875 501.226562 522.097656 L 504.355469 521.859375 L 502.910156 519.078125 C 502.714844 518.710938 502.628906 518.300781 502.671875 517.871094 L 502.695312 517.460938 L 502.585938 517.074219 C 502.519531 516.902344 502.476562 516.707031 502.457031 516.554688 C 502.371094 515.542969 502.304688 514.550781 502.242188 513.558594 L 501.9375 509.375 L 499.761719 509.675781 C 486.886719 511.421875 474.445312 510.367188 461.269531 509.222656 C 457.28125 508.878906 453.292969 508.53125 449.28125 508.253906 L 447.8125 508.167969 L 447.230469 509.523438 C 445.851562 512.824219 445.117188 516.273438 445.097656 519.769531 " fill-opacity="1" fill-rule="nonzero"/><path fill="#000000" d="M 506.359375 513.40625 L 506.511719 515.347656 L 508.449219 515.304688 C 510.585938 515.285156 512.699219 515.328125 515.242188 515.414062 L 517.378906 515.476562 L 517.378906 513.320312 C 517.355469 507.84375 517.269531 502.34375 517.207031 496.863281 C 517.097656 487.570312 516.96875 478.296875 517.078125 469.023438 L 517.097656 467.015625 L 515.09375 466.929688 C 512.117188 466.800781 509.164062 466.605469 506.1875 466.328125 L 503.75 466.132812 L 503.945312 468.546875 C 504.417969 475.492188 504.71875 482.4375 505.023438 489.402344 C 505.367188 497.273438 505.710938 505.40625 506.359375 513.40625 " fill-opacity="1" fill-rule="nonzero"/><path fill="#000000" d="M 460.839844 505.125 C 468.644531 505.859375 476.644531 506.636719 484.710938 506.636719 C 489.710938 506.636719 494.757812 506.332031 499.804688 505.554688 L 501.660156 505.253906 L 501.269531 498.117188 L 499.351562 498.09375 C 496.179688 498.03125 493.03125 497.898438 489.90625 497.769531 C 485.207031 497.554688 480.355469 497.339844 475.566406 497.425781 C 474.769531 497.449219 473.820312 497.425781 472.804688 497.425781 C 466.875 497.382812 457.925781 497.273438 452.644531 500.640625 L 447.46875 503.917969 L 453.570312 504.433594 C 455.988281 504.652344 458.421875 504.886719 460.839844 505.125 " fill-opacity="1" fill-rule="nonzero"/><path fill="#000000" d="M 578.683594 459.617188 C 575.773438 442.496094 575.0625 425.371094 577.757812 408.226562 C 533.722656 407.554688 488.9375 400.265625 445.074219 406.371094 C 433.410156 443.335938 480.03125 457.9375 507.265625 459.964844 C 531.136719 461.734375 554.835938 459.617188 578.683594 459.617188 " fill-opacity="1" fill-rule="nonzero"/><g clip-path="url(#id1)"><path fill="#000000" d="M 678.71875 489.617188 L 678.050781 488.324219 L 676.625 488.496094 C 672.527344 488.972656 668.453125 489.511719 664.398438 490.070312 C 654.328125 491.410156 643.914062 492.808594 633.628906 493.089844 L 632.9375 493.21875 C 632.613281 493.351562 632.398438 493.414062 632.140625 493.414062 C 623.578125 494.0625 615.019531 494.816406 606.480469 495.570312 C 587.546875 497.273438 567.96875 499 548.667969 499.214844 L 546.617188 499.238281 L 546.617188 515.691406 L 548.710938 515.671875 C 591.792969 515.066406 638.480469 510.300781 691.417969 501.070312 L 701.359375 499.34375 L 691.546875 497.015625 C 690.902344 496.863281 690.253906 496.734375 689.628906 496.605469 C 688.53125 496.390625 687.472656 496.175781 686.523438 495.851562 C 682.664062 494.535156 680.183594 492.550781 678.71875 489.617188 " fill-opacity="1" fill-rule="nonzero"/></g><path fill="#000000" d="M 643.613281 383.230469 C 647.214844 369.964844 651.894531 357.023438 656.097656 343.957031 C 660.972656 328.773438 665.886719 313.4375 668.605469 297.714844 C 670.414062 287.34375 673.414062 276.625 675.179688 265.992188 C 659.742188 283.007812 644.238281 299.9375 628.882812 316.996094 C 616.507812 330.734375 604.152344 344.472656 591.96875 358.425781 C 585.5625 365.695312 577.628906 373.113281 572.710938 381.589844 C 573.25 383.292969 573.679688 384.976562 573.917969 386.570312 C 580.558594 386.765625 587.246094 387.023438 593.949219 387.304688 C 594.082031 387.328125 594.167969 387.328125 594.316406 387.371094 C 594.445312 387.328125 594.597656 387.304688 594.769531 387.304688 C 597.230469 387.304688 598.652344 389.222656 598.910156 391.425781 C 599.449219 395.933594 601.023438 402.769531 596.863281 406.113281 C 593.5625 408.785156 589.855469 409.023438 585.972656 409.152344 C 584.636719 417.328125 584.074219 425.523438 584.269531 433.695312 C 600.378906 433.78125 617.886719 434.816406 632.398438 426.945312 C 639.40625 412.925781 639.578125 398.089844 643.613281 383.230469 " fill-opacity="1" fill-rule="nonzero"/><path fill="#000000" d="M 523.546875 516.167969 C 524.515625 516.167969 525.488281 516.1875 526.457031 516.1875 C 529.28125 516.1875 532.128906 516.144531 534.972656 516.125 L 540.816406 516.101562 L 540.816406 478.101562 C 540.816406 476.765625 541.402344 475.835938 542.566406 475.40625 L 543.382812 474.824219 C 543.644531 474.542969 544.074219 474.175781 544.808594 474.089844 C 559.234375 472.148438 574.027344 472.277344 588.324219 472.363281 C 592.160156 472.40625 596.0625 472.453125 599.839844 472.429688 L 602.296875 472.0625 L 601.367188 466.089844 L 600.011719 466.089844 C 600.054688 465.9375 600.140625 465.765625 600.140625 465.570312 C 600.484375 461.214844 601.457031 455.757812 600.59375 451.421875 C 600.011719 448.511719 596.863281 447.671875 594.125 447.84375 C 590.457031 448.082031 590.847656 452.328125 590.414062 455.175781 C 589.898438 458.84375 589.316406 462.421875 589.464844 466.089844 L 585.109375 466.089844 C 584.722656 466.089844 584.398438 466.046875 584.074219 465.9375 L 583.449219 465.832031 C 573.507812 465.699219 563.265625 466.109375 553.390625 466.5 C 543.511719 466.886719 533.335938 467.296875 523.308594 467.167969 L 521.238281 467.144531 L 521.21875 469.214844 C 521.109375 478.167969 521.238281 487.136719 521.347656 496.109375 C 521.410156 501.953125 521.496094 507.777344 521.519531 513.601562 L 521.476562 516.167969 L 523.546875 516.167969 " fill-opacity="1" fill-rule="nonzero"/><path fill="#000000" d="M 632.097656 531.371094 L 632.335938 533.183594 L 634.167969 533.164062 C 638.222656 533.117188 642.230469 533.097656 646.242188 532.988281 L 648.746094 532.753906 L 648.140625 530.25 C 647.902344 528.375 647.839844 526.433594 647.773438 524.515625 C 647.644531 521.042969 647.515625 517.441406 646.371094 513.925781 L 645.855469 512.285156 L 644.152344 512.5 C 640.636719 512.976562 637.121094 513.40625 633.628906 513.839844 L 631.839844 514.054688 L 631.753906 518.476562 C 631.6875 521.019531 631.601562 523.585938 631.710938 526.347656 C 631.730469 526.628906 631.753906 526.90625 631.710938 527.46875 C 631.753906 528.761719 631.925781 530.078125 632.097656 531.371094 " fill-opacity="1" fill-rule="nonzero"/><path fill="#000000" d="M 621.402344 447.953125 L 619.761719 448.425781 L 620.023438 451.421875 C 620.519531 457.375 621.058594 463.523438 620.734375 469.539062 L 620.582031 471.914062 L 622.953125 471.71875 C 624.894531 471.566406 626.8125 471.394531 629.207031 471.15625 L 630.996094 470.984375 L 631.082031 469.195312 C 631.320312 464.472656 631.320312 459.835938 631.320312 454.917969 C 631.320312 453.625 631.753906 452.695312 632.570312 452.222656 L 633.261719 451.597656 C 633.691406 450.96875 634.425781 450.710938 635.09375 450.796875 L 635.417969 450.820312 L 635.71875 450.734375 C 636 450.667969 636.214844 450.625 636.367188 450.625 C 641.734375 450.796875 677.488281 450.472656 683.226562 449.957031 L 685.597656 449.914062 L 683.699219 450.152344 C 679.902344 450.625 676.152344 451.144531 672.355469 451.683594 C 661.617188 453.191406 650.492188 454.765625 639.472656 454.765625 C 639.386719 454.765625 639.300781 454.765625 639.214844 454.765625 L 637.121094 454.789062 L 637.144531 456.878906 C 637.164062 460.4375 637.207031 463.996094 637.207031 467.578125 L 637.207031 469.667969 L 639.320312 469.648438 C 652.410156 469.433594 666.425781 467.988281 682.191406 465.203125 L 683.570312 464.96875 L 683.851562 463.566406 C 684.582031 459.921875 685.316406 456.253906 685.984375 452.566406 L 686.480469 449.804688 L 686.285156 449.828125 L 685.078125 447.390625 L 685.101562 447.175781 L 684.304688 445.472656 L 683.03125 445.429688 C 672.484375 445.125 631.925781 445.019531 621.402344 447.953125 " fill-opacity="1" fill-rule="nonzero"/><path fill="#000000" d="M 615.148438 440.984375 L 615.039062 438.765625 L 612.839844 439.023438 C 610.402344 439.324219 607.902344 439.519531 605.421875 439.667969 L 603.460938 439.800781 L 603.503906 441.78125 C 603.675781 450.152344 604.648438 458.5625 605.574219 466.691406 L 605.960938 470.292969 L 605.960938 472.386719 L 608.054688 472.363281 C 610.210938 472.320312 612.386719 472.257812 614.542969 472.191406 L 616.421875 472.128906 L 616.550781 470.25 C 616.9375 463.714844 616.378906 457.183594 615.859375 450.882812 C 615.578125 447.585938 615.300781 444.285156 615.148438 440.984375 " fill-opacity="1" fill-rule="nonzero"/><path fill="#000000" d="M 491.953125 324.652344 L 494.023438 324.652344 L 504.160156 324.632812 L 503.988281 322.410156 C 503.859375 320.511719 503.683594 318.613281 503.511719 316.714844 C 503.253906 313.976562 503.015625 311.21875 502.867188 308.476562 L 502.78125 306.753906 L 501.078125 306.535156 C 498.875 306.234375 496.699219 305.890625 494.476562 305.566406 L 491.933594 305.179688 L 492.105469 307.765625 C 492.449219 312.488281 492.429688 317.210938 492.019531 322 L 491.953125 324.652344 " fill-opacity="1" fill-rule="nonzero"/><path fill="#000000" d="M 606.585938 491.472656 C 613.855469 490.828125 621.164062 490.179688 628.453125 489.597656 L 630.414062 489.445312 L 630.308594 485.457031 C 630.242188 482.761719 630.179688 479.976562 629.769531 477.195312 L 629.488281 475.253906 L 627.503906 475.449219 C 614.671875 476.722656 601.585938 476.613281 588.925781 476.507812 C 575.6875 476.398438 561.972656 476.289062 548.472656 477.757812 L 546.617188 477.972656 L 546.617188 495.097656 L 548.710938 495.074219 C 568.097656 494.882812 587.65625 493.15625 606.585938 491.472656 " fill-opacity="1" fill-rule="nonzero"/><path fill="#000000" d="M 677.46875 484.292969 L 678.824219 484.140625 L 679.214844 482.804688 C 680.226562 479.332031 681.15625 475.816406 681.953125 472.300781 L 682.640625 469.300781 L 679.601562 469.796875 C 664.3125 472.300781 651.460938 473.574219 639.148438 473.789062 L 637.144531 473.808594 L 637.101562 475.816406 C 637.035156 479.265625 636.882812 482.738281 636.667969 485.78125 L 636.519531 488.863281 L 638.695312 488.734375 C 647.472656 488.238281 656.269531 487.050781 664.808594 485.910156 C 669.015625 485.347656 673.242188 484.789062 677.46875 484.292969 " fill-opacity="1" fill-rule="nonzero"/><path fill="#000000" d="M 525.441406 329.65625 L 522.835938 329.460938 C 511.46875 328.621094 499.910156 328.75 488.761719 328.859375 L 479.921875 328.945312 L 480.246094 331.273438 C 480.460938 332.914062 480.65625 334.59375 480.871094 336.277344 L 481.085938 338.195312 L 483.027344 338.109375 C 491.285156 337.699219 499.589844 337.226562 507.867188 336.601562 C 512.785156 336.234375 517.746094 335.976562 522.660156 335.71875 L 525.011719 335.585938 L 524.582031 333.28125 C 524.558594 333.105469 524.515625 332.761719 524.667969 332.160156 L 525.441406 329.65625 " fill-opacity="1" fill-rule="nonzero"/><path fill="#000000" d="M 425.539062 395.113281 L 426.316406 397.636719 C 427.328125 400.957031 430.691406 401.066406 431.792969 401.085938 C 433.949219 401.171875 436.039062 401.042969 438.175781 400.914062 L 440.742188 400.761719 C 471.425781 396.148438 503.015625 398.109375 533.574219 399.988281 C 549.378906 400.976562 565.746094 401.992188 581.789062 402.078125 L 582.328125 402.144531 C 582.824219 402.1875 583.296875 402.359375 583.730469 402.640625 L 584.269531 403.003906 L 584.894531 403.003906 C 585.605469 403.003906 586.296875 403.003906 586.964844 402.984375 L 587.523438 402.984375 C 589.054688 402.960938 591.253906 403.003906 592.527344 401.667969 C 593.800781 400.332031 593.777344 398.109375 593.347656 395.175781 L 593.109375 393.472656 L 591.386719 393.410156 C 538.617188 391.230469 485.25 391.726562 428.167969 394.960938 L 425.539062 395.113281 " fill-opacity="1" fill-rule="nonzero"/><path fill="#000000" d="M 498.015625 356.917969 C 477.65625 356.527344 454.972656 353.1875 435.003906 358.125 C 430.996094 365.996094 428.96875 381.933594 438.175781 386.207031 C 439.1875 386.699219 439.769531 387.371094 440.117188 388.125 C 482.015625 386.03125 523.71875 385.34375 565.59375 386.378906 C 563.785156 372.855469 555.417969 362.652344 559.253906 350.964844 C 538.8125 354.136719 518.910156 357.347656 498.015625 356.917969 " fill-opacity="1" fill-rule="nonzero"/><path fill="#000000" d="M 335.273438 239.335938 C 324.816406 252.316406 316.039062 268.105469 307.5 282.210938 C 306.894531 283.203125 306.3125 284.238281 305.667969 285.25 C 335.683594 285.726562 366.929688 285.984375 396.816406 282.511719 C 386.121094 271.449219 386.898438 250.097656 396.125 236.941406 C 376.007812 238.839844 355.652344 239.355469 335.273438 239.335938 " fill-opacity="1" fill-rule="nonzero"/><g clip-path="url(#id2)"><path fill="#000000" d="M 123.300781 426.039062 L 124.617188 425.433594 C 126.902344 424.378906 129.125 423.300781 131.34375 422.199219 L 134.839844 420.496094 L 131.476562 418.554688 C 120.605469 412.238281 110.0625 404.925781 99.863281 397.871094 C 84.832031 387.476562 69.304688 376.714844 52.3125 368.800781 L 50.136719 367.875 L 49.425781 370.160156 C 49.359375 370.398438 49.273438 370.632812 49.1875 370.871094 L 48.628906 372.25 L 49.75 373.222656 C 64.238281 385.773438 80.324219 396.492188 95.894531 406.867188 C 104.5625 412.644531 113.554688 418.640625 122.074219 424.808594 L 123.300781 426.039062 " fill-opacity="1" fill-rule="nonzero"/></g><path fill="#000000" d="M 152.371094 424.3125 L 149.457031 418.945312 L 147.777344 419.570312 C 141.003906 422.050781 134.449219 425.199219 128.132812 428.21875 C 120.777344 431.753906 113.1875 435.398438 105.316406 437.945312 L 103.398438 438.570312 L 103.980469 440.511719 C 104.414062 441.957031 105.039062 443.378906 105.8125 444.800781 L 106.570312 446.160156 L 108.101562 445.816406 C 123.300781 442.257812 137.320312 435.59375 150.945312 425.371094 L 152.371094 424.3125 " fill-opacity="1" fill-rule="nonzero"/><path fill="#000000" d="M 329.363281 233.121094 L 329.988281 233.121094 L 331.261719 232.28125 C 332.449219 231.503906 333.613281 230.730469 334.734375 229.886719 L 335.488281 229.304688 L 335.597656 227.730469 C 335.617188 227.257812 335.660156 226.78125 335.660156 226.308594 L 335.660156 224.34375 L 333.675781 224.238281 C 304.652344 222.878906 289.34375 224.28125 284.039062 228.765625 L 279.832031 232.324219 L 294.734375 232.605469 C 306.226562 232.820312 317.785156 233.035156 329.363281 233.121094 " fill-opacity="1" fill-rule="nonzero"/><path fill="#000000" d="M 292.167969 236.703125 L 291.671875 238.105469 C 290.269531 242.007812 289.816406 246.191406 290.269531 250.894531 L 290.570312 253.957031 L 293.289062 252.511719 C 297.34375 250.398438 301.441406 248.371094 305.535156 246.363281 C 309.136719 244.617188 312.71875 242.851562 316.296875 240.996094 L 323.628906 237.199219 L 315.371094 237.089844 C 308.945312 237.003906 302.519531 236.898438 296.09375 236.769531 L 292.167969 236.703125 " fill-opacity="1" fill-rule="nonzero"/><path fill="#000000" d="M 226.074219 411.007812 C 236.769531 393.496094 246.625 375.53125 256.308594 357.5 C 256.4375 357.023438 256.671875 356.59375 256.996094 356.207031 C 264.523438 342.1875 271.917969 328.125 279.617188 314.128906 C 291.886719 291.785156 304.589844 267.371094 319.8125 246.042969 C 306.789062 252.664062 293.222656 258.207031 281.300781 266.984375 C 262.324219 280.914062 243.28125 294.503906 223.53125 307.355469 C 184.15625 332.890625 140.035156 356.660156 105.878906 389.375 C 124.378906 396.925781 144.519531 398.886719 164.25 401.34375 C 184.972656 403.910156 205.308594 408.980469 226.074219 411.007812 " fill-opacity="1" fill-rule="nonzero"/><path fill="#000000" d="M 255.769531 536.546875 C 274.074219 538.703125 292.058594 539.308594 310.476562 539.761719 C 325.742188 540.128906 341.03125 539.933594 356.339844 539.566406 C 356.191406 538.75 356.058594 537.820312 355.929688 536.980469 C 355.132812 531.761719 363.113281 529.34375 363.953125 534.605469 C 364.191406 536.117188 364.382812 537.261719 364.621094 538.769531 C 364.6875 539.179688 407.46875 537.820312 411.394531 537.710938 C 411.003906 532.644531 411.175781 527.941406 411.695312 522.875 C 408.222656 523.996094 404.039062 524.558594 398.949219 525.289062 C 395.976562 525.722656 392.71875 526.195312 389.117188 526.691406 C 387.328125 526.90625 385.472656 527.253906 383.511719 527.382812 C 381.570312 527.511719 379.523438 527.640625 377.386719 527.769531 C 360.417969 529.367188 338.140625 528.976562 309.742188 529.300781 C 281.902344 529.367188 247.898438 530.984375 206.816406 528.976562 C 206.214844 531.113281 205.4375 533.25 204.574219 535.296875 C 221.632812 535.964844 238.820312 534.605469 255.769531 536.546875 " fill-opacity="1" fill-rule="nonzero"/><path fill="#000000" d="M 661.875 510.0625 L 660.152344 510.300781 C 657.585938 510.667969 654.996094 511.011719 652.433594 511.359375 L 650.058594 511.660156 L 650.683594 513.945312 C 651.570312 517.117188 651.699219 520.417969 651.828125 523.910156 C 651.9375 526.21875 652.023438 528.523438 652.300781 530.660156 L 652.300781 532.816406 L 654.480469 532.730469 C 657.347656 532.601562 660.214844 532.429688 663.085938 532.191406 L 664.960938 532.039062 L 664.980469 530.164062 C 665.132812 523.4375 664.292969 517.398438 662.4375 511.703125 L 661.875 510.0625 " fill-opacity="1" fill-rule="nonzero"/><path fill="#000000" d="M 683.203125 509.308594 L 683.203125 506.765625 L 680.746094 507.238281 C 678.71875 507.605469 676.152344 507.972656 673.585938 508.339844 C 671.96875 508.554688 670.351562 508.769531 668.886719 509.007812 L 666.511719 509.375 L 667.222656 511.660156 C 668.90625 517.074219 669.703125 523.003906 669.597656 529.300781 L 669.554688 531.675781 L 671.902344 531.394531 C 675.527344 530.941406 679.386719 530.421875 683.203125 529.710938 L 685.230469 529.324219 L 684.863281 527.296875 C 683.765625 521.539062 683.203125 515.476562 683.203125 509.308594 " fill-opacity="1" fill-rule="nonzero"/><path fill="#000000" d="M 549.035156 595.058594 C 546.8125 595.101562 544.527344 595.167969 542.21875 595.253906 C 523.375 596.007812 505 598.144531 483.242188 601.140625 C 464.65625 603.664062 445.570312 604.484375 427.132812 605.28125 C 409.625 606.035156 391.53125 606.8125 373.765625 609.054688 C 367.273438 609.855469 360.332031 611.191406 352.976562 612.59375 C 329.40625 617.121094 302.691406 622.234375 283.347656 610.675781 C 268.683594 601.9375 260.792969 579.875 259.929688 544.828125 L 259.929688 542.890625 L 255.140625 542.585938 C 253.417969 542.480469 251.671875 542.351562 249.925781 542.261719 C 241.75 541.898438 233.449219 541.898438 225.40625 541.898438 L 218.289062 541.898438 L 224.285156 545.714844 C 232.523438 550.953125 237.914062 557.683594 242.332031 568.25 C 243.777344 571.679688 245.160156 575.5 246.582031 579.464844 C 252.964844 597.171875 260.898438 619.214844 281.039062 623.59375 C 288.652344 625.230469 296.523438 625.878906 304.457031 625.878906 C 320.480469 625.878906 336.71875 623.246094 351.617188 620.808594 L 353.085938 620.574219 C 376.4375 616.734375 396.320312 614.792969 415.640625 614.425781 L 420.707031 614.363281 C 432.222656 614.210938 444.125 614.039062 455.707031 611.601562 L 460.945312 610.457031 C 468.386719 608.839844 476.039062 607.136719 483.589844 606.769531 C 488.699219 606.53125 493.851562 606.425781 499.007812 606.316406 C 516.625 605.929688 534.867188 605.539062 552.140625 599.957031 C 552.871094 599.738281 553.582031 599.480469 554.296875 599.199219 L 567.449219 594.476562 L 554.273438 594.929688 C 552.550781 594.972656 550.800781 595.015625 549.035156 595.058594 " fill-opacity="1" fill-rule="nonzero"/><path fill="#000000" d="M 697.738281 506.65625 L 697.800781 504.15625 L 685.921875 506.183594 L 686.199219 508.167969 C 686.523438 510.515625 686.738281 512.867188 686.957031 515.238281 C 687.277344 518.863281 687.644531 522.617188 688.378906 526.324219 L 688.808594 528.460938 L 690.902344 527.941406 C 692.800781 527.46875 694.675781 526.90625 696.960938 526.21875 L 698.6875 525.699219 L 698.40625 523.929688 C 697.566406 518.367188 697.609375 512.804688 697.738281 506.65625 " fill-opacity="1" fill-rule="nonzero"/><path fill="#000000" d="M 573.550781 597.582031 C 598.671875 596.699219 623.816406 596.699219 648.636719 592.0625 C 649.800781 583.671875 652.324219 575.519531 653.015625 567.066406 C 653.207031 564.78125 653.359375 562.492188 653.445312 560.230469 C 635.503906 564.671875 619.289062 576.664062 602.230469 583.671875 C 592.355469 587.75 583.039062 592.925781 573.550781 597.582031 " fill-opacity="1" fill-rule="nonzero"/><path fill="#000000" d="M 582.609375 548.734375 C 579.976562 549.015625 575.167969 549.035156 575.167969 549.035156 C 568.550781 549.035156 568.550781 540.753906 575.167969 540.753906 C 575.167969 540.753906 580.105469 540.730469 582.757812 540.472656 C 585.003906 540.257812 586.488281 542.523438 586.488281 544.59375 C 586.488281 547.03125 584.871094 548.539062 582.609375 548.734375 Z M 528.808594 550.953125 C 525.507812 550.953125 525.507812 550.953125 525.507812 550.953125 C 518.886719 550.953125 518.886719 544.332031 525.507812 544.332031 C 525.507812 544.332031 525.507812 544.332031 528.808594 544.332031 C 535.449219 544.332031 535.449219 550.953125 528.808594 550.953125 Z M 485.507812 555.785156 C 483.738281 556.089844 482.015625 556.195312 480.246094 556.195312 C 474.898438 556.21875 474.898438 547.957031 480.246094 547.914062 C 481.257812 547.914062 482.292969 547.980469 483.285156 547.785156 C 485.507812 547.417969 487.726562 548.34375 488.398438 550.695312 C 488.9375 552.722656 487.726562 555.398438 485.507812 555.785156 Z M 441.90625 557.726562 C 440.503906 558.308594 438.972656 558.417969 437.484375 558.417969 C 432.117188 558.4375 432.117188 550.15625 437.484375 550.136719 C 438.347656 550.136719 438.886719 550.070312 439.664062 549.726562 C 441.753906 548.839844 444.257812 550.652344 444.773438 552.617188 C 445.441406 555.007812 443.976562 556.820312 441.90625 557.726562 Z M 406.304688 560.898438 C 402.984375 560.898438 399.683594 560.898438 399.683594 560.898438 C 393.042969 560.898438 393.042969 550.953125 399.683594 550.953125 C 402.984375 550.953125 402.984375 550.953125 406.304688 550.953125 C 412.925781 550.953125 412.925781 560.898438 406.304688 560.898438 Z M 310.28125 560.898438 C 306.960938 560.898438 303.640625 560.898438 303.640625 560.898438 C 300.339844 560.898438 300.339844 554.277344 303.640625 554.277344 C 306.960938 554.277344 306.960938 554.277344 310.28125 554.277344 C 313.578125 554.277344 313.578125 560.898438 310.28125 560.898438 Z M 626.535156 535.46875 C 626.46875 535.296875 626.40625 535.125 626.363281 534.972656 C 626.125 533.746094 626.039062 532.515625 625.886719 531.285156 C 609.109375 532.128906 592.355469 536.09375 575.644531 537.648438 C 557.054688 539.375 538.511719 540.257812 519.878906 540.796875 C 483.738281 541.8125 447.855469 545.757812 411.695312 546.296875 C 408.222656 546.359375 366.066406 548.539062 365.828125 547.417969 C 367.359375 557.511719 369.042969 567.582031 371.628906 577.480469 C 377 574.3125 380.40625 570 379.542969 562.558594 C 378.917969 557.253906 387.199219 557.316406 387.824219 562.558594 C 389.183594 574.332031 382.023438 582.011719 372.019531 586.605469 C 371.5 587.121094 370.894531 587.617188 370.140625 587.792969 C 358.691406 590.574219 345.859375 582.25 343.8125 570.558594 C 342.886719 565.339844 350.863281 563.117188 351.789062 568.339844 C 352.78125 574.117188 357.851562 579.144531 363.671875 579.941406 C 360.933594 569.308594 359.1875 558.480469 357.527344 547.613281 C 339.824219 548.042969 322.054688 548.300781 304.285156 547.914062 C 291.433594 547.65625 278.820312 546.382812 266.140625 545.390625 C 266.269531 550.027344 266.464844 554.792969 266.894531 559.582031 C 293.179688 565.535156 311.207031 565.769531 322.25 566.894531 C 333.742188 567.519531 338.140625 568.207031 338.140625 568.921875 C 338.140625 569.566406 333.742188 570.128906 322.164062 570.410156 C 311.230469 570.171875 293.460938 570.472656 267.5 564.800781 C 267.84375 567.625 268.316406 570.410156 268.921875 573.148438 C 293.007812 577.394531 309.484375 576.984375 319.574219 577.847656 C 330.054688 578.34375 334 578.96875 334 579.660156 C 334 580.328125 330.011719 580.976562 319.53125 581.363281 C 314.292969 581.558594 307.390625 581.535156 298.550781 581.300781 C 294.109375 580.996094 289.214844 580.675781 283.777344 580.308594 C 279.574219 579.769531 275.066406 579.078125 270.28125 578.34375 C 271.636719 582.980469 273.386719 587.445312 275.84375 591.566406 C 285.375 607.546875 297.257812 611.363281 314.980469 610.566406 C 344.867188 609.207031 374.367188 602.027344 404.320312 599.910156 C 436.0625 597.648438 467.199219 597.195312 498.8125 592.75 C 511.210938 591.003906 523.71875 589.777344 536.269531 589.28125 C 547.828125 588.804688 559.707031 590.140625 571.09375 587.792969 C 583.210938 585.269531 593.84375 578.28125 605.25 573.75 C 612.257812 570.925781 618.769531 567.257812 625.304688 563.636719 C 623.320312 563.917969 621.335938 564.175781 619.351562 564.347656 C 607.644531 565.46875 596.558594 565.40625 586.144531 566.136719 C 575.707031 566.699219 565.898438 568.273438 556.367188 569.566406 C 546.855469 570.839844 537.90625 572.328125 529.347656 573.082031 C 520.765625 573.96875 512.699219 574.828125 505.042969 575.628906 C 497.324219 575.90625 490.101562 576.167969 483.285156 576.402344 C 479.878906 576.535156 476.601562 576.621094 473.410156 576.726562 C 470.242188 576.683594 467.15625 576.664062 464.203125 576.664062 C 458.273438 576.597656 452.796875 576.535156 447.664062 576.445312 C 442.53125 576.296875 437.894531 576.554688 433.582031 576.683594 C 429.3125 576.75 425.367188 577.265625 421.808594 577.527344 C 414.605469 578.085938 408.847656 578.539062 404.339844 578.90625 C 395.285156 579.035156 391.402344 578.90625 391.402344 578.539062 C 391.402344 578.214844 395.285156 577.71875 404.167969 576.984375 C 408.65625 576.425781 414.367188 575.671875 421.507812 574.742188 C 425.109375 574.332031 429.011719 573.707031 433.410156 573.558594 C 437.785156 573.277344 442.550781 572.886719 447.664062 572.953125 C 452.753906 572.886719 458.273438 572.84375 464.179688 572.824219 C 467.15625 572.78125 470.21875 572.757812 473.386719 572.757812 C 476.535156 572.585938 479.816406 572.457031 483.15625 572.285156 C 489.90625 571.960938 497.066406 571.617188 504.675781 571.269531 C 512.269531 570.410156 520.3125 569.503906 528.785156 568.511719 C 537.324219 567.710938 546.230469 566.203125 555.695312 564.867188 C 560.398438 564.21875 565.269531 563.507812 570.230469 562.773438 C 575.296875 562.214844 580.496094 561.5 585.800781 561.265625 C 596.429688 560.507812 607.535156 560.53125 618.878906 559.410156 C 627.050781 558.65625 635.398438 557.230469 643.675781 554.664062 C 645.511719 553.972656 647.386719 553.347656 649.285156 552.789062 C 650.640625 552.292969 652 551.753906 653.359375 551.148438 L 653.617188 551.730469 C 653.640625 551.730469 653.683594 551.6875 653.746094 551.6875 C 653.789062 549.144531 653.8125 546.597656 653.8125 544.03125 C 643.050781 545.519531 632.722656 546.792969 622.78125 548.519531 C 617.21875 549.445312 611.785156 550.308594 606.5 551.148438 C 601.175781 551.945312 595.933594 552.679688 590.867188 553.433594 C 580.710938 555.160156 570.878906 555.699219 561.5625 556.5625 C 552.226562 557.445312 543.511719 557.792969 535.210938 558.375 C 501.9375 560.230469 475.996094 562.363281 456.203125 563.699219 C 446.261719 564.414062 437.894531 564.972656 430.90625 565.46875 C 423.921875 566.050781 418.25 565.792969 413.894531 565.902344 C 405.097656 565.859375 401.324219 565.664062 401.324219 565.296875 C 401.324219 564.972656 405.097656 564.5 413.808594 563.9375 C 418.164062 563.570312 423.75 563.550781 430.691406 562.6875 C 437.65625 561.996094 446.003906 561.199219 455.898438 560.207031 C 475.675781 558.417969 501.59375 555.9375 534.929688 553.78125 C 543.253906 553.15625 552.160156 552.746094 561.304688 551.816406 C 570.46875 550.933594 580.214844 550.371094 590.265625 548.605469 C 595.332031 547.847656 600.636719 547.09375 605.941406 546.296875 C 611.246094 545.433594 616.851562 544.527344 622.414062 543.644531 C 632.484375 541.855469 641.390625 540.558594 654.632812 539.007812 C 654.632812 538.8125 654.632812 538.617188 654.632812 538.445312 C 641.390625 539.242188 631.882812 539.375 631.882812 539.375 C 628.667969 539.375 626.640625 537.453125 626.535156 535.46875 " fill-opacity="1" fill-rule="nonzero"/><path fill="#000000" d="M 353.667969 469.152344 C 352.179688 469.085938 350.667969 469.042969 349.117188 469.023438 L 347.242188 468.980469 L 347.023438 470.855469 C 346.378906 476.527344 346.441406 482.285156 346.507812 487.871094 L 346.550781 491.820312 L 348.578125 492.097656 L 346.507812 492.335938 L 346.507812 494.40625 L 348.578125 494.40625 C 350.691406 494.40625 352.847656 494.40625 354.9375 494.449219 L 357.03125 494.472656 L 357.050781 492.378906 C 357.074219 485.066406 357.160156 478.425781 357.828125 471.480469 L 358.042969 469.214844 L 355.757812 469.214844 C 355.070312 469.214844 354.378906 469.171875 353.667969 469.152344 " fill-opacity="1" fill-rule="nonzero"/><path fill="#000000" d="M 421.828125 403.78125 L 413.246094 403.308594 C 396.730469 402.378906 380.105469 399.921875 364.015625 397.527344 C 345.753906 394.808594 326.839844 392.007812 307.910156 391.425781 L 294.519531 390.992188 L 307.175781 395.4375 C 326 402.035156 342.949219 406.328125 360.546875 408.957031 L 361.429688 409.085938 C 370.378906 410.402344 379.953125 411.828125 389.398438 411.828125 C 397.894531 411.828125 406.261719 410.660156 413.960938 407.277344 L 421.828125 403.78125 " fill-opacity="1" fill-rule="nonzero"/><path fill="#000000" d="M 412.859375 463.4375 C 406.972656 454.484375 403.628906 443.359375 404.105469 432.855469 C 404.449219 426.082031 406.132812 420.648438 408.914062 415.6875 C 395.976562 419.09375 381.699219 417.886719 368.417969 416.269531 C 343.941406 413.292969 321.234375 407.363281 298.117188 398.757812 C 298.097656 398.714844 298.03125 398.691406 297.96875 398.648438 C 296.976562 399.578125 295.960938 400.503906 294.96875 401.429688 C 294.96875 401.496094 294.96875 401.5625 294.949219 401.667969 C 290.226562 422.328125 301.074219 443.855469 316.792969 456.964844 C 316.835938 457.007812 316.859375 457.074219 316.921875 457.117188 C 330.121094 465.03125 350.261719 463.089844 365.160156 463.242188 C 380.773438 463.328125 397.117188 464.558594 412.859375 463.4375 " fill-opacity="1" fill-rule="nonzero"/><path fill="#000000" d="M 327.789062 505.730469 C 327.855469 507.648438 327.898438 509.589844 328.09375 511.507812 L 328.242188 513.363281 L 334.214844 513.429688 C 342.257812 513.515625 350.410156 513.601562 358.582031 513.601562 C 375.835938 513.601562 393.257812 513.210938 410.335938 511.660156 L 412.277344 511.488281 L 412.210938 509.546875 C 412.105469 505.644531 411.695312 502.105469 410.960938 498.699219 L 410.59375 496.929688 L 408.785156 497.058594 C 386.25 498.828125 363.261719 498.632812 341.007812 498.503906 L 327.402344 498.417969 L 327.574219 500.660156 C 327.726562 502.34375 327.769531 504.023438 327.789062 505.730469 " fill-opacity="1" fill-rule="nonzero"/><path fill="#000000" d="M 362.851562 312.078125 L 362.851562 309.988281 C 362.808594 304.421875 362.679688 298.515625 361.644531 292.949219 L 361.320312 291.203125 L 351.382812 291.546875 L 351.769531 293.878906 C 352.136719 296.035156 352.222656 298.210938 352.308594 300.542969 C 352.394531 303.238281 352.503906 306.019531 353.0625 308.738281 C 353.128906 309.082031 353.128906 309.40625 353.085938 309.707031 L 352.761719 312.078125 L 362.851562 312.078125 " fill-opacity="1" fill-rule="nonzero"/><path fill="#000000" d="M 405.246094 229.757812 L 407.082031 229.542969 L 407.058594 224.410156 L 404.835938 224.539062 C 394.140625 225.207031 383.210938 225.058594 372.621094 224.90625 C 364.859375 224.796875 356.792969 224.691406 348.859375 224.90625 C 347.652344 224.949219 345.300781 224.820312 341.957031 224.648438 L 339.886719 224.539062 L 339.800781 226.609375 C 339.738281 228.078125 339.695312 229.5625 339.695312 231.050781 L 339.695312 233.121094 L 341.785156 233.121094 C 366.5625 232.992188 386.746094 231.9375 405.246094 229.757812 " fill-opacity="1" fill-rule="nonzero"/><path fill="#000000" d="M 326.519531 494.039062 L 340.363281 494.339844 L 342.410156 493.996094 L 342.367188 481.25 L 340.296875 481.273438 C 331.671875 481.292969 323.21875 481.402344 314.765625 482.4375 L 308.988281 483.148438 L 313.902344 486.253906 C 315.089844 486.988281 316.277344 487.785156 317.441406 488.582031 C 320.179688 490.417969 322.980469 492.316406 326.042969 493.757812 L 326.519531 494.039062 " fill-opacity="1" fill-rule="nonzero"/><path fill="#000000" d="M 313.925781 510.820312 L 313.363281 513.320312 L 324.125 513.320312 L 323.929688 511.078125 C 323.78125 509.523438 323.757812 507.949219 323.757812 506.398438 C 323.714844 503.507812 323.695312 500.53125 322.9375 497.554688 L 322.722656 496.714844 L 321.945312 496.261719 C 320.308594 495.332031 318.753906 494.320312 317.203125 493.261719 L 314.269531 491.234375 L 313.96875 494.792969 C 313.730469 497.621094 313.839844 500.445312 313.945312 503.207031 C 314.054688 505.664062 314.140625 507.972656 314.011719 510.148438 C 313.988281 510.386719 313.96875 510.582031 313.925781 510.820312 " fill-opacity="1" fill-rule="nonzero"/><path fill="#000000" d="M 349.503906 389.546875 L 349.546875 391.273438 L 352.957031 391.769531 C 355.113281 392.09375 357.289062 392.417969 359.445312 392.738281 L 362.140625 393.171875 L 361.625 388.707031 C 360.914062 382.453125 360.179688 375.980469 360.136719 369.664062 L 360.113281 367.378906 L 357.828125 367.613281 C 355.304688 367.875 352.71875 368.152344 350.195312 368.371094 L 348.210938 368.5625 L 348.296875 370.527344 C 348.449219 373.480469 348.664062 376.414062 348.878906 379.347656 C 349.117188 382.753906 349.375 386.140625 349.503906 389.546875 " fill-opacity="1" fill-rule="nonzero"/><path fill="#000000" d="M 208.046875 524.0625 C 248.328125 525.980469 282.03125 524.535156 309.71875 524.730469 C 338.183594 524.644531 360.375 525.398438 377.148438 524.277344 C 379.285156 524.210938 381.289062 524.125 383.253906 524.039062 C 385.191406 523.976562 387.027344 523.671875 388.816406 523.542969 C 392.351562 523.175781 395.628906 522.851562 398.585938 522.550781 C 404.082031 522.011719 408.71875 521.644531 411.933594 520.695312 C 412.082031 519.46875 412.253906 518.238281 412.449219 517.007812 C 379.414062 520.199219 345.539062 517.851562 312.4375 517.851562 C 282.203125 517.851562 225.296875 517.851562 208.886719 517.851562 C 208.738281 519.921875 208.457031 521.992188 208.046875 524.0625 " fill-opacity="1" fill-rule="nonzero"/><path fill="#000000" d="M 341.246094 171.785156 C 342.367188 187.25 343.53125 203.230469 342.257812 218.953125 L 342.066406 221.132812 L 344.242188 221.195312 C 347.5625 221.304688 350.929688 221.367188 354.269531 221.390625 L 356.6875 221.410156 L 356.339844 219.019531 C 355.414062 212.9375 354.789062 206.703125 354.183594 200.6875 C 353.453125 193.632812 352.71875 186.34375 351.53125 179.183594 C 349.503906 167.105469 347.824219 156.195312 347.671875 144.871094 L 347.652344 142.953125 L 345.710938 142.84375 C 344.417969 142.757812 343.058594 142.820312 341.570312 143.015625 L 339.714844 143.253906 L 339.757812 145.109375 C 339.972656 154.035156 340.621094 163.050781 341.246094 171.785156 " fill-opacity="1" fill-rule="nonzero"/><path fill="#000000" d="M 220.402344 468.441406 L 219.347656 469.238281 C 217.921875 470.335938 216.390625 471.328125 214.710938 472.300781 L 212.035156 473.808594 L 214.453125 475.730469 C 218.636719 478.984375 223.421875 481.617188 228.058594 484.164062 C 232.394531 486.535156 236.855469 488.992188 240.671875 491.90625 C 244.316406 494.6875 247.984375 497.425781 251.648438 500.164062 C 256.695312 503.9375 261.71875 507.714844 266.679688 511.59375 L 266.722656 511.617188 C 267.003906 511.832031 267.152344 512.089844 267.238281 512.222656 L 267.820312 513.300781 L 290.3125 513.300781 L 284.554688 509.503906 C 279.769531 506.332031 275.066406 502.816406 270.515625 499.410156 C 265.277344 495.507812 259.863281 491.472656 254.238281 487.871094 C 244.707031 481.832031 234.332031 475.859375 221.589844 469.066406 L 220.402344 468.441406 " fill-opacity="1" fill-rule="nonzero"/><path fill="#000000" d="M 426.164062 491.367188 L 416.289062 488.304688 C 413.808594 487.546875 411.242188 486.835938 409.324219 486.320312 C 408.332031 486.039062 407.511719 485.824219 406.992188 485.648438 C 405.507812 485.21875 404.019531 484.808594 402.53125 484.398438 C 398.90625 483.40625 395.15625 482.371094 391.726562 480.925781 L 391.273438 480.734375 L 390.777344 480.777344 C 387.261719 481.054688 383.640625 481.054688 380.125 481.011719 C 374.539062 481.011719 368.71875 480.96875 363.027344 482.089844 L 361.386719 482.414062 L 361.300781 486.101562 C 361.257812 488.625 361.214844 490.847656 361.214844 492.378906 L 361.214844 494.449219 L 363.285156 494.449219 C 384.375 494.449219 400.589844 493.800781 415.855469 492.359375 L 426.164062 491.367188 " fill-opacity="1" fill-rule="nonzero"/><path fill="#000000" d="M 344.78125 339.964844 C 344.285156 339.878906 343.878906 339.707031 343.53125 339.511719 C 338.355469 347.382812 333.417969 355.429688 328.222656 363.28125 C 344.222656 363.128906 359.597656 359.613281 375.46875 358.082031 C 389.679688 356.722656 403.671875 359.183594 406.453125 343.09375 C 395.394531 343.351562 384.503906 342.058594 373.441406 341.863281 C 363.78125 341.691406 354.3125 341.691406 344.78125 339.964844 " fill-opacity="1" fill-rule="nonzero"/><path fill="#000000" d="M 220.683594 466.800781 C 223.746094 464.96875 225.535156 462.53125 227 460.566406 L 224.78125 458.90625 L 222.28125 457.65625 C 221.289062 458.972656 219.949219 460.804688 217.835938 462.054688 C 214.925781 463.824219 211.949219 465.140625 208.972656 466.152344 C 185.792969 466.714844 160.089844 451.359375 152.328125 432.640625 L 151.335938 430.265625 L 149.222656 431.734375 C 140.335938 437.921875 131.367188 442.625 121.792969 446.074219 L 119.527344 446.894531 L 120.671875 449.007812 C 130.484375 467.363281 146.527344 476.3125 169.683594 476.3125 C 170.289062 476.3125 170.894531 476.3125 171.496094 476.289062 C 179.152344 476.160156 187.992188 475.964844 196.53125 474.328125 C 204.488281 473.722656 212.660156 471.609375 220.683594 466.800781 " fill-opacity="1" fill-rule="nonzero"/><g clip-path="url(#id3)"><path fill="#000000" d="M 423.511719 202.175781 C 423.640625 202.175781 423.75 202.175781 423.878906 202.152344 L 428.320312 201.550781 C 428.515625 201.765625 428.664062 201.980469 428.945312 202.152344 C 429.3125 202.390625 429.570312 202.734375 429.917969 202.992188 C 434.53125 214.683594 433.515625 227.34375 433.34375 239.832031 C 467.003906 241.683594 498.875 235.0625 531.523438 227.839844 C 524.214844 217.660156 525.660156 203.578125 527.535156 191.109375 C 527.988281 190.246094 528.65625 189.492188 529.496094 188.804688 C 529.929688 188.4375 530.144531 188.046875 530.273438 187.636719 L 545.324219 185.589844 C 546.835938 185.375 547.890625 183.992188 547.695312 182.484375 C 547.480469 180.972656 546.035156 179.851562 544.59375 180.113281 L 489.734375 187.59375 L 489.605469 186.324219 C 488.699219 177.265625 486.800781 168.3125 484.96875 159.644531 C 482.660156 148.6875 480.265625 137.34375 479.902344 125.976562 L 479.835938 124.039062 L 477.894531 123.972656 C 477.054688 123.929688 476.191406 123.863281 475.285156 123.800781 L 472.980469 123.628906 L 473.066406 125.957031 C 473.433594 135.101562 474.445312 144.308594 475.4375 153.21875 C 476.6875 164.410156 477.980469 176.011719 477.894531 187.445312 L 477.894531 189.210938 L 423.144531 196.675781 C 421.636719 196.890625 420.578125 198.269531 420.773438 199.78125 C 420.96875 201.183594 422.152344 202.175781 423.511719 202.175781 " fill-opacity="1" fill-rule="nonzero"/></g></svg>