<svg xmlns="http://www.w3.org/2000/svg" xmlns:xlink="http://www.w3.org/1999/xlink" width="1000" zoomAndPan="magnify" viewBox="0 0 750 749.999995" height="1000" preserveAspectRatio="xMidYMid meet" version="1.0"><defs><clipPath id="id1"><path d="M 44 113.8125 L 703 113.8125 L 703 635.8125 L 44 635.8125 Z M 44 113.8125 " clip-rule="nonzero"/></clipPath></defs><g clip-path="url(#id1)"><path fill="#000000" d="M 84.257812 488.363281 C 84.042969 486.882812 83.828125 485.386719 83.679688 483.929688 C 80.292969 483.84375 76.953125 483.84375 73.609375 484.1875 C 73.542969 484.722656 73.5 485.234375 73.5 485.855469 C 73.5 486.113281 73.609375 487.441406 73.542969 487.441406 C 73.609375 487.546875 73.757812 487.914062 73.824219 488.148438 C 77.292969 488.019531 80.789062 488.148438 84.257812 488.363281 Z M 91.394531 550.90625 C 91.867188 549.640625 92.378906 548.441406 92.914062 547.222656 C 79.996094 547.519531 67.160156 547.820312 54.410156 545.679688 C 54.601562 547.070312 54.710938 548.464844 54.753906 549.875 C 66.964844 550.625 79.117188 551.699219 91.394531 550.90625 Z M 121.863281 601.390625 C 121.5625 591.964844 122.121094 582.753906 125.378906 573.4375 C 112.671875 573.800781 100.050781 574.078125 87.453125 574.121094 C 90.773438 578.492188 94.480469 582.820312 95.722656 588.257812 C 96.386719 591.214844 96.816406 594.148438 97.113281 597.105469 C 104.464844 598.902344 112.863281 600.296875 121.863281 601.390625 Z M 122.59375 615.695312 C 122.441406 612.953125 122.269531 610.234375 122.121094 607.515625 C 113.785156 606.378906 105.515625 604.878906 97.4375 602.886719 C 97.523438 606.894531 97.308594 610.921875 96.816406 615.011719 C 105.40625 615.117188 114 615.332031 122.59375 615.695312 Z M 144.921875 616.875 C 145.027344 614.496094 145.175781 612.140625 145.347656 609.804688 C 139.414062 609.421875 133.457031 608.90625 127.585938 608.222656 C 127.777344 610.792969 127.949219 613.382812 128.097656 615.953125 C 133.714844 616.253906 139.328125 616.554688 144.921875 616.875 Z M 153.0625 572.539062 C 145.796875 572.773438 138.511719 573.03125 131.292969 573.246094 C 127.328125 582.710938 126.855469 592.285156 127.242188 602.011719 C 133.304688 602.675781 139.542969 603.230469 145.90625 603.660156 C 147.085938 593.015625 149.25 582.667969 153.0625 572.539062 Z M 118.265625 497.058594 C 119.59375 509.160156 139.113281 511.257812 157.539062 511.152344 C 155.484375 507.617188 153.578125 504.105469 152.527344 500.207031 C 141.105469 499.734375 129.683594 499.15625 118.265625 497.058594 Z M 175.925781 483.992188 C 177.039062 485.171875 178.261719 486.457031 179.417969 487.742188 C 176.460938 475.597656 173.117188 463.625 168.898438 451.992188 C 162.941406 448.503906 157.175781 446.1875 152.613281 443.703125 C 147.640625 441.089844 143.890625 438.308594 141.492188 435.800781 C 139.050781 433.273438 137.828125 431.109375 137.3125 429.675781 C 136.757812 428.21875 136.757812 427.511719 137.097656 427.339844 C 137.933594 426.847656 139.21875 429.097656 144.105469 432.867188 C 146.570312 434.75 150.019531 436.914062 154.90625 439.140625 C 156.597656 440 158.460938 440.792969 160.476562 441.667969 C 152.335938 430.082031 144.984375 417.875 137.464844 405.792969 C 134.71875 419.371094 128.722656 432.585938 126.492188 446.339844 C 124.285156 459.855469 126.515625 475.296875 123.042969 488.621094 C 140.871094 491.511719 158.503906 490.78125 176.269531 492.367188 C 174.726562 490.675781 173.226562 489.089844 171.855469 487.546875 C 169.175781 484.335938 166.753906 481.421875 164.589844 478.789062 C 160.261719 473.5625 157.070312 469.34375 154.5 466.300781 C 149.269531 460.238281 147.597656 457.5625 148.113281 456.984375 C 148.628906 456.425781 151.261719 458.117188 157.371094 463.667969 C 160.371094 466.40625 163.882812 470.457031 168.492188 475.488281 C 170.71875 478.039062 173.183594 480.867188 175.925781 483.992188 Z M 179.160156 605.050781 C 179.054688 593.933594 179.417969 582.882812 181.5625 571.917969 C 174.039062 572.003906 166.496094 572.171875 158.976562 572.367188 C 154.753906 582.605469 152.527344 593.164062 151.371094 604 C 160.734375 604.539062 170.140625 604.878906 179.160156 605.050781 Z M 179.375 619.378906 C 179.375 619.082031 179.375 618.78125 179.375 618.480469 C 168.960938 617.796875 164.953125 617.066406 164.953125 616.316406 C 164.996094 615.589844 168.898438 615.011719 179.3125 614.710938 C 179.289062 613.382812 179.289062 612.054688 179.246094 610.707031 C 169.777344 610.707031 160.304688 610.554688 150.835938 610.085938 C 150.640625 612.460938 150.492188 614.859375 150.425781 617.238281 C 160.070312 617.902344 169.734375 618.609375 179.375 619.378906 Z M 184.648438 510.296875 C 184.046875 507.597656 183.46875 504.917969 182.824219 502.242188 C 175.925781 501.34375 169.003906 500.914062 162.0625 500.613281 C 163.5625 504.253906 166.132812 507.617188 168.082031 510.894531 C 174.683594 510.636719 180.574219 510.296875 184.648438 510.296875 Z M 208.644531 621.671875 C 208.644531 620.730469 208.644531 619.746094 208.6875 618.671875 C 206.929688 618.757812 205.195312 618.78125 203.4375 618.824219 C 196.066406 618.867188 189.917969 618.886719 184.882812 618.78125 C 184.882812 619.125 184.882812 619.445312 184.882812 619.808594 C 192.832031 620.429688 200.71875 621.074219 208.644531 621.671875 Z M 208.902344 613.46875 C 208.988281 612.441406 209.011719 611.414062 209.097656 610.34375 C 201.039062 610.492188 192.894531 610.683594 184.710938 610.707031 C 184.753906 611.992188 184.796875 613.253906 184.816406 614.496094 C 189.703125 614.304688 195.574219 614.046875 202.816406 613.726562 C 204.789062 613.640625 206.804688 613.574219 208.902344 613.46875 Z M 210.445312 596.460938 C 211.515625 588.109375 214.152344 580.71875 213.894531 572.171875 C 205.023438 571.875 196.089844 571.808594 187.175781 571.851562 C 184.816406 582.882812 184.496094 594.019531 184.648438 605.179688 C 193.605469 605.285156 202.046875 605.285156 209.523438 605.203125 C 209.78125 602.265625 210.082031 599.332031 210.445312 596.460938 Z M 222.378906 178.328125 C 224.585938 177.664062 226.753906 176.785156 228.960938 175.757812 C 225.167969 175.285156 221.566406 173.527344 218.222656 171.363281 C 215.757812 169.738281 213.230469 168.28125 211.046875 166.4375 C 211.515625 168.429688 212.203125 170.359375 213.230469 172.050781 C 215.523438 175.734375 218.714844 177.082031 222.378906 178.328125 Z M 234.421875 623.601562 C 234.746094 621.800781 235.042969 620 235.386719 618.203125 C 231.144531 618.308594 223.625 618.375 218.4375 618.460938 C 216.9375 618.480469 215.546875 618.523438 214.195312 618.566406 C 214.152344 619.808594 214.152344 621.03125 214.132812 622.121094 C 220.902344 622.636719 227.671875 623.105469 234.421875 623.601562 Z M 236.332031 612.65625 C 236.480469 611.734375 236.628906 610.855469 236.800781 609.933594 C 229.496094 609.976562 222.082031 610.085938 214.558594 610.234375 C 214.515625 611.261719 214.453125 612.25 214.367188 613.210938 C 215.652344 613.167969 216.9375 613.105469 218.308594 613.0625 C 223.945312 612.953125 232.410156 612.804688 236.332031 612.65625 Z M 240.292969 161.382812 C 243.230469 155.40625 235.773438 153.222656 231.335938 153.714844 C 225.679688 154.335938 224.609375 158.921875 226.34375 163.503906 C 226.453125 163.546875 226.539062 163.546875 226.644531 163.589844 C 226.859375 163.695312 227.03125 163.804688 227.222656 163.910156 C 227.738281 164.277344 227.953125 164.789062 227.996094 165.304688 C 228.058594 165.410156 228.144531 165.496094 228.1875 165.601562 C 229.066406 168.238281 228.464844 171.429688 232.367188 171.214844 C 234.574219 171.066406 235.664062 170.957031 235.859375 168.644531 C 236.117188 165.238281 238.945312 164.167969 240.292969 161.382812 Z M 241.835938 582.925781 C 242.414062 580.097656 243.273438 577.164062 244.195312 574.164062 C 235.964844 573.308594 227.695312 572.773438 219.402344 572.410156 C 219.550781 579.992188 217.644531 586.824219 216.359375 594.277344 C 215.757812 597.769531 215.332031 601.453125 214.96875 605.136719 C 225.617188 604.988281 233.714844 604.6875 237.722656 604.515625 C 239.007812 597.277344 240.292969 590.058594 241.835938 582.925781 Z M 244.664062 172.972656 C 247.085938 170.507812 248.695312 167.808594 249.808594 164.875 C 243.851562 171.214844 236.117188 176.871094 228.058594 180.210938 C 230.265625 179.910156 232.324219 179.441406 232.878906 179.289062 C 237.101562 178.070312 241.496094 176.164062 244.664062 172.972656 Z M 242.308594 180.617188 C 243.488281 180.019531 244.621094 179.441406 245.800781 178.839844 C 245.371094 178.476562 244.835938 178.175781 244.257812 178.070312 L 244.257812 178.046875 C 243.230469 178.777344 242.136719 179.460938 240.957031 180.0625 C 241.386719 180.273438 241.835938 180.46875 242.308594 180.617188 Z M 246.980469 565.277344 C 249.359375 557.695312 251.5 549.941406 251.5 542.894531 C 233.332031 545.316406 215.074219 548.3125 197.097656 549.339844 C 195.101562 549.46875 193.109375 547.886719 192.640625 545.980469 C 192.617188 545.894531 192.617188 545.785156 192.574219 545.679688 C 139.007812 545.65625 122.398438 544.4375 122.398438 542.9375 C 122.398438 541.460938 138.707031 540.261719 191.289062 540.175781 C 189.703125 533.320312 188.160156 526.421875 186.660156 519.503906 C 166.582031 518.605469 111.621094 528.5 109.007812 499.4375 C 96.535156 498.964844 83.636719 496.695312 71.230469 497.421875 C 71.316406 501.214844 71.445312 504.941406 71.660156 508.6875 C 101.914062 508.753906 113.550781 509.972656 113.550781 511.453125 C 113.550781 512.863281 102 514.085938 72.003906 514.191406 C 72.152344 516.847656 72.300781 519.503906 72.472656 522.203125 C 75.34375 524.515625 79.414062 525.800781 83.378906 526.378906 C 87.816406 527.109375 92.230469 527.300781 96.492188 527.324219 C 104.9375 527.453125 112.757812 526.746094 119.871094 526.957031 C 133.949219 527.324219 144.878906 527.707031 153.210938 528.074219 C 169.925781 528.84375 176.269531 529.65625 176.269531 530.386719 C 176.269531 531.15625 169.925781 531.734375 153.210938 531.992188 C 144.878906 532.097656 133.949219 532.140625 119.871094 532.054688 C 113.015625 531.949219 105.257812 532.761719 96.449219 532.761719 C 92.035156 532.71875 87.429688 532.570312 82.5 531.800781 C 79.414062 531.308594 76.074219 530.601562 72.878906 529.015625 C 73.03125 532.054688 73.09375 535.140625 73.179688 538.203125 C 82.09375 538.460938 91.09375 538.054688 100.09375 537.902344 C 104.164062 537.796875 105.449219 542.167969 103.863281 544.863281 C 103.800781 545.25 103.714844 545.613281 103.566406 545.9375 C 102.109375 549.46875 100.15625 552.769531 99.238281 556.539062 C 98.613281 559 96.664062 559.964844 94.714844 559.773438 C 94.542969 559.835938 94.328125 559.878906 94.09375 559.921875 C 89.914062 560.285156 85.695312 560.394531 81.515625 560.371094 C 81.515625 562.085938 81.835938 563.691406 82.308594 565.234375 C 82.84375 565.0625 83.378906 564.957031 84.042969 564.957031 C 137.871094 565.125 192.894531 559.558594 246.464844 565.167969 C 246.636719 565.210938 246.785156 565.234375 246.980469 565.277344 Z M 250.171875 624.542969 C 250.792969 622.742188 251.351562 620.945312 251.90625 619.125 C 248.285156 618.523438 244.664062 618.117188 241.109375 617.28125 C 240.703125 619.488281 240.335938 621.714844 239.929688 623.964844 C 243.335938 624.179688 246.765625 624.371094 250.171875 624.542969 Z M 253.964844 350.234375 C 249.699219 349.824219 245.394531 349.417969 241.128906 349.054688 C 239.523438 348.90625 238.34375 348.089844 237.617188 347.042969 C 236.953125 346.441406 236.414062 345.671875 236.074219 344.75 C 235.664062 343.550781 235.300781 342.328125 234.957031 341.128906 C 222.636719 347.554688 210.703125 354.300781 199.390625 362.484375 C 198.253906 363.296875 197.117188 363.46875 196.132812 363.210938 C 195.769531 374.199219 194.867188 385.167969 193.003906 396.132812 C 212.074219 398.851562 231.082031 401.464844 250.128906 403.992188 C 250.171875 403.90625 250.128906 403.84375 250.171875 403.78125 C 252.9375 386.046875 253.621094 368.183594 253.964844 350.234375 Z M 253.363281 613.832031 C 253.773438 612.207031 254.179688 610.640625 254.542969 609.058594 C 250.621094 608.414062 246.617188 607.621094 243.164062 605.695312 C 243.121094 605.824219 243.121094 605.972656 243.078125 606.121094 C 243.445312 607.109375 243.273438 608.285156 242.566406 609.058594 C 242.394531 609.976562 242.246094 610.921875 242.050781 611.839844 C 245.757812 612.761719 249.59375 613.210938 253.363281 613.832031 Z M 255.722656 603.746094 C 256.238281 601.28125 256.707031 598.777344 257.136719 596.3125 C 257.027344 596.292969 256.921875 596.292969 256.773438 596.207031 C 253.214844 594.597656 249.230469 594.449219 245.371094 593.722656 C 244.988281 595.734375 244.578125 597.789062 244.214844 599.804688 C 247.238281 602.460938 251.652344 603.144531 255.722656 603.746094 Z M 258.058594 590.851562 C 258.402344 588.730469 258.699219 586.609375 258.980469 584.46875 C 255.207031 583.78125 251.414062 583.074219 247.601562 582.390625 C 247.195312 584.402344 246.785156 586.375 246.402344 588.367188 C 250.324219 589.203125 254.285156 589.5 258.058594 590.851562 Z M 259.6875 579.007812 C 259.859375 577.378906 260.050781 575.773438 260.222656 574.164062 C 256.859375 573.867188 253.429688 573.542969 250.066406 572.878906 C 249.957031 573.03125 249.851562 573.203125 249.699219 573.308594 C 249.359375 574.574219 249.058594 575.816406 248.78125 577.015625 C 252.402344 577.679688 256.042969 578.34375 259.6875 579.007812 Z M 260.820312 568.726562 C 260.992188 566.925781 261.1875 565.125 261.359375 563.328125 C 258.699219 562.855469 255.980469 562.386719 253.300781 561.828125 C 252.699219 563.734375 252.078125 565.640625 251.457031 567.546875 C 254.585938 568.148438 257.695312 568.425781 260.820312 568.726562 Z M 261.894531 557.824219 C 262 556.730469 262.109375 555.636719 262.214844 554.480469 C 260.050781 554.011719 257.886719 553.582031 255.722656 553.195312 C 255.464844 554.308594 255.207031 555.402344 254.863281 556.539062 C 257.222656 557.03125 259.535156 557.417969 261.894531 557.824219 Z M 262.730469 548.976562 C 262.984375 546.449219 263.199219 543.964844 263.457031 541.417969 C 261.335938 541.652344 259.171875 541.929688 257.027344 542.1875 C 257.027344 544.074219 256.921875 545.9375 256.664062 547.820312 C 258.699219 548.140625 260.714844 548.546875 262.730469 548.976562 Z M 265.191406 145.296875 C 265.148438 145.277344 265.148438 145.277344 265.109375 145.234375 C 263.714844 143.800781 262.921875 142.300781 262.515625 140.800781 C 251.566406 142.105469 241.578125 145.449219 230.714844 148.726562 C 222.445312 151.210938 214.300781 153.050781 205.859375 151.144531 C 203.847656 162.328125 198.445312 172.414062 195.980469 183.507812 C 208.859375 186.488281 222.746094 189.058594 235.300781 183.765625 C 236.222656 183.402344 237.101562 182.953125 237.9375 182.546875 C 237.574219 182.375 237.207031 182.117188 236.84375 181.882812 C 236.78125 181.859375 236.78125 181.667969 236.695312 181.625 C 233.289062 182.910156 228.960938 184.28125 225.253906 184.28125 C 222.960938 184.28125 220.902344 183.765625 219.445312 182.375 C 217.796875 182.375 216.832031 181.238281 217.238281 180.0625 C 214.667969 178.925781 212.351562 177.640625 210.789062 175.027344 C 208.109375 170.699219 206.804688 165.773438 206.675781 160.675781 C 206.632812 158.878906 209.203125 158.191406 210.082031 159.757812 C 212.246094 163.695312 216.402344 165.882812 220.109375 168.214844 C 221.867188 169.308594 223.6875 170.359375 225.617188 171.128906 C 225.273438 169.996094 225.210938 168.753906 224.84375 167.316406 C 224.546875 167.253906 224.222656 167.144531 223.945312 166.804688 C 223.730469 166.546875 223.515625 166.265625 223.257812 166.011719 C 222.851562 165.519531 222.746094 164.960938 222.851562 164.46875 C 221.050781 158.984375 221.757812 151.917969 228.550781 150.480469 C 234.851562 149.089844 242.910156 150.523438 244.515625 157.742188 C 245.328125 161.554688 242.714844 164.339844 240.445312 166.929688 C 239.738281 167.679688 239.480469 168.539062 239.308594 169.375 C 244.453125 165.496094 248.949219 160.976562 251.992188 156.457031 C 253.214844 154.660156 255.679688 155.835938 255.359375 157.851562 C 254.285156 164.617188 251.863281 170.808594 247.300781 175.433594 C 248.007812 175.90625 248.695312 176.460938 249.316406 177.082031 C 254.285156 174.597656 259.277344 172.179688 264.636719 170.402344 C 264.484375 162.003906 264.335938 153.609375 265.191406 145.296875 Z M 269.84375 406.605469 C 271.171875 388.25 270.101562 369.851562 269.929688 351.476562 C 267.65625 351.367188 265.363281 351.21875 263.09375 351.046875 C 262.773438 369.167969 261.894531 387.222656 259.171875 405.191406 C 262.171875 405.578125 265.234375 406.007812 268.234375 406.414062 C 268.792969 406.476562 269.328125 406.519531 269.84375 406.605469 Z M 277.085938 148.726562 C 278.222656 145.75 278.84375 140.609375 276.078125 138.230469 C 275.605469 137.78125 274.984375 137.566406 274.320312 137.523438 C 273.957031 138.445312 273.269531 139.257812 272.308594 139.730469 C 272.414062 139.921875 272.5 140.09375 272.5625 140.285156 C 273.851562 140.929688 274.6875 142.214844 274.472656 144.121094 C 271.835938 166.929688 277.042969 190.511719 269.15625 212.488281 C 269.777344 212.617188 270.355469 212.746094 270.980469 212.875 C 273.164062 213.238281 275.285156 213.667969 277.449219 214.03125 C 274.835938 193.039062 276.464844 171.984375 276.613281 150.890625 C 276.613281 150.117188 276.785156 149.453125 277.042969 148.898438 C 277.042969 148.832031 277.085938 148.789062 277.085938 148.726562 Z M 283.578125 612.097656 C 283.578125 610.921875 283.578125 609.761719 283.578125 608.585938 C 275.714844 608.992188 267.894531 609.355469 260.09375 609.613281 C 259.859375 610.492188 259.6875 611.414062 259.472656 612.3125 C 268.191406 612.25 276.207031 612.183594 283.578125 612.097656 Z M 285.015625 625.871094 C 284.433594 623.085938 284.070312 620.28125 283.835938 617.453125 C 275.949219 617.558594 267.398438 617.6875 257.992188 617.816406 C 257.371094 620.171875 256.644531 622.527344 255.894531 624.84375 C 265.601562 625.355469 275.285156 625.675781 285.015625 625.871094 Z M 286.921875 575.921875 C 280.449219 575.878906 274.042969 575.859375 267.613281 575.964844 C 266.84375 575.964844 266.179688 575.859375 265.621094 575.601562 C 264.570312 585.132812 263.242188 594.597656 261.292969 604.066406 C 268.792969 603.808594 276.269531 603.507812 283.726562 603.1875 C 283.8125 601.839844 283.878906 600.46875 283.984375 599.117188 C 284.5 591.214844 284.5625 583.441406 286.921875 575.921875 Z M 290.84375 331.296875 C 290.886719 331.191406 290.96875 331.0625 290.992188 330.957031 C 290.113281 328.6875 288.871094 326.523438 287.347656 324.574219 C 285.226562 324.980469 283.0625 325.535156 280.898438 326.265625 C 268.191406 330.441406 255.636719 332.027344 243.421875 337.058594 C 243.679688 338.089844 243.980469 339.117188 244.300781 340.144531 C 258.507812 341.453125 272.628906 343.230469 286.921875 342.15625 C 288.207031 338.515625 289.597656 334.960938 290.84375 331.296875 Z M 322.703125 611.734375 C 322.746094 610.019531 322.832031 608.242188 322.898438 606.53125 C 311.414062 607.109375 299.925781 607.75 288.464844 608.328125 C 288.507812 609.613281 288.613281 610.8125 288.679688 612.054688 C 301.449219 611.925781 312.460938 611.839844 322.703125 611.734375 Z M 323.15625 625.828125 C 323.15625 625.785156 323.113281 625.761719 323.113281 625.71875 C 322.875 622.785156 322.746094 619.808594 322.703125 616.875 C 312.632812 617.023438 301.75 617.195312 289.191406 617.386719 C 289.578125 620.410156 290.050781 623.300781 290.671875 625.976562 C 295.511719 626.019531 300.335938 626.019531 305.132812 625.976562 C 311.15625 625.914062 317.132812 625.871094 323.15625 625.828125 Z M 323.347656 601.496094 C 324.140625 593.164062 325.769531 584.917969 328.082031 576.84375 C 316.296875 576.5 304.535156 576.179688 292.769531 575.984375 C 289.964844 583.632812 288.613281 593.355469 288.464844 603.015625 C 300.054688 602.480469 311.691406 601.96875 323.347656 601.496094 Z M 314.046875 543.152344 C 322.683594 542.808594 333.441406 542.1875 341.625 538.054688 C 319.191406 538.117188 300.140625 538.480469 279.699219 540.003906 C 288.761719 545.65625 304.171875 543.558594 314.046875 543.152344 Z M 361.765625 612.289062 C 361.640625 609.933594 361.511719 607.558594 361.488281 605.203125 C 350.496094 605.351562 339.484375 605.757812 328.449219 606.273438 C 328.339844 608.070312 328.253906 609.871094 328.210938 611.710938 C 329.113281 611.667969 330.03125 611.667969 330.910156 611.667969 C 342.441406 611.777344 352.746094 612.035156 361.765625 612.289062 Z M 361.554688 600.296875 C 361.703125 592.691406 362.410156 585.066406 363.351562 577.527344 C 353.519531 577.464844 343.640625 577.269531 333.761719 576.992188 C 331.382812 584.9375 329.734375 593.058594 328.875 601.28125 C 339.78125 600.832031 350.667969 600.511719 361.554688 600.296875 Z M 363.394531 625.71875 C 362.839844 622.742188 362.410156 619.765625 362.109375 616.808594 C 353.089844 616.765625 342.695312 616.703125 330.910156 616.765625 C 330.03125 616.765625 329.113281 616.765625 328.210938 616.808594 C 328.253906 619.765625 328.382812 622.742188 328.640625 625.71875 C 328.640625 625.761719 328.640625 625.785156 328.640625 625.828125 C 340.191406 625.785156 351.78125 625.785156 363.394531 625.71875 Z M 368.066406 359.230469 C 368.066406 358.523438 368.023438 357.859375 367.980469 357.171875 C 367.316406 356.679688 366.78125 356.015625 366.417969 355.136719 C 361.808594 344.019531 343.167969 337.339844 332.945312 332.90625 C 321.289062 327.851562 309.675781 323.738281 297.589844 323.628906 C 298.535156 325.300781 299.328125 327.035156 300.035156 328.878906 C 300.355469 329.777344 300.292969 330.742188 299.925781 331.664062 C 300.035156 332.285156 299.949219 332.96875 299.691406 333.742188 C 298.148438 338.261719 296.347656 342.671875 294.828125 347.210938 C 294.226562 348.863281 293.027344 349.824219 291.699219 350.191406 C 290.992188 350.703125 290.175781 351.066406 289.148438 351.175781 C 285.785156 351.519531 282.441406 351.625 279.101562 351.667969 C 279.3125 370.367188 280.386719 389.066406 278.949219 407.742188 C 289.8125 409.046875 300.675781 410.332031 311.476562 411.875 C 327.976562 414.273438 343.875 419.542969 360.523438 420.25 C 358.253906 402.195312 355.617188 384.179688 352.382812 366.296875 C 350.882812 366.082031 349.402344 365.933594 347.902344 365.71875 C 342.074219 364.796875 344.5625 355.996094 350.367188 356.828125 C 356.238281 357.75 362.152344 358.480469 368.066406 359.230469 Z M 371.730469 512.695312 C 372.394531 510.636719 372.953125 508.539062 373.167969 506.375 C 370.660156 506.160156 369.09375 504.210938 369.09375 502.007812 C 369.050781 501.855469 369.011719 501.75 369.011719 501.640625 C 367.1875 481.058594 365.238281 460.390625 362.882812 439.742188 C 362.472656 441.414062 362.046875 443.039062 361.511719 444.582031 C 360.460938 447.472656 359.390625 450.238281 358.445312 452.828125 C 357.226562 455.378906 356.089844 457.753906 355.019531 460.003906 C 350.433594 468.828125 346.273438 475.339844 343.105469 480.222656 C 336.675781 489.96875 333.910156 493.460938 333.226562 493.097656 C 332.5625 492.730469 334.167969 488.46875 339.761719 478.230469 C 342.503906 473.089844 346.253906 466.449219 350.476562 457.753906 C 354.03125 450.195312 357.933594 440.835938 359.347656 429.355469 C 344.304688 428.496094 330.269531 423.761719 315.375 421.644531 C 297.378906 419.074219 279.292969 417.015625 261.25 414.660156 C 233.4375 411.039062 205.667969 407.183594 177.917969 403.179688 C 182.804688 410.742188 188.933594 416.972656 194.375 423.035156 C 196.023438 424.878906 197.589844 426.675781 199.175781 428.433594 C 200.632812 430.296875 202.109375 432.136719 203.503906 433.9375 C 206.011719 437.644531 208.386719 441.175781 210.636719 444.496094 C 212.800781 447.816406 214.859375 450.878906 216.789062 453.792969 C 218.972656 456.578125 220.988281 459.210938 222.894531 461.675781 C 226.601562 466.664062 230.09375 470.863281 233.136719 474.484375 C 245.117188 489.132812 249.359375 495.042969 248.78125 495.515625 C 248.199219 495.988281 242.953125 491.082031 230.160156 477.054688 C 226.945312 473.539062 223.257812 469.492188 219.296875 464.542969 C 217.324219 462.082031 215.179688 459.46875 212.910156 456.683594 C 210.851562 453.75 208.6875 450.644531 206.375 447.300781 C 204.125 444.066406 201.789062 440.640625 199.28125 437.0625 C 197.933594 435.414062 196.539062 433.679688 195.101562 431.925781 C 193.5625 430.230469 191.976562 428.476562 190.367188 426.675781 C 184.519531 420.25 177.445312 413.3125 171.898438 403.90625 C 163.539062 424.878906 179.417969 450.410156 184.496094 470.714844 C 186.402344 478.339844 196.96875 540.625 204.015625 539.808594 C 223.257812 537.5625 242.609375 534.96875 261.914062 532.699219 C 255.378906 529.613281 249.808594 525.652344 244.964844 521.816406 C 237.722656 516.097656 231.746094 510.445312 226.453125 505.324219 C 221.308594 500.292969 216.253906 495.515625 212.910156 490.527344 C 209.460938 485.640625 206.996094 481.101562 205.089844 477.140625 C 201.230469 469.128906 199.109375 463.515625 197.675781 459.960938 C 196.238281 456.382812 195.789062 454.714844 196.152344 454.5625 C 196.496094 454.371094 197.566406 455.699219 199.582031 458.996094 C 201.597656 462.296875 204.359375 467.734375 208.539062 475.296875 C 210.636719 479.066406 213.210938 483.328125 216.574219 487.804688 C 219.875 492.367188 224.546875 496.5 229.988281 501.640625 C 235.300781 506.632812 241.28125 512.117188 248.265625 517.578125 C 255.207031 522.976562 263.457031 528.4375 273.292969 531.070312 L 273.226562 531.414062 C 275.179688 531.179688 277.105469 530.964844 279.101562 530.75 C 302.882812 528.242188 324.953125 528.886719 350.667969 528.886719 C 350.839844 528.886719 351.03125 528.90625 351.160156 528.949219 C 352.53125 526.378906 353.453125 523.339844 353.710938 519.699219 C 353.773438 518.882812 353.988281 518.242188 354.332031 517.640625 C 354.738281 515.734375 356.175781 514.042969 358.617188 513.871094 C 362.988281 513.570312 367.359375 513.164062 371.730469 512.695312 Z M 379.039062 279.828125 C 378.714844 279.507812 378.460938 279.101562 378.179688 278.566406 C 371.644531 263.464844 363.460938 245.753906 347.753906 238.492188 C 323.519531 232.535156 299.5625 227.183594 274.878906 222.8125 C 252.292969 218.808594 228.253906 213.132812 205.132812 211.097656 C 206.074219 237.078125 214.34375 261.644531 212.460938 288.03125 C 211.109375 307.375 207.722656 326.820312 203.4375 345.863281 C 204.722656 344.726562 206.011719 343.550781 207.296875 342.457031 C 209.160156 339.78125 211.046875 337.167969 212.675781 334.554688 C 214.925781 330.699219 217.089844 327.078125 219.101562 323.628906 C 220.988281 320.03125 222.789062 316.648438 224.480469 313.414062 C 231.082031 300.433594 236.074219 290.109375 240.445312 282.527344 C 242.652344 278.695312 244.453125 275.480469 246.144531 272.867188 C 247.902344 270.339844 249.316406 268.285156 250.492188 266.742188 C 252.765625 263.660156 253.964844 262.4375 254.285156 262.671875 C 254.609375 262.84375 254.03125 264.472656 252.292969 267.878906 C 251.457031 269.589844 250.28125 271.777344 248.824219 274.410156 C 247.386719 277.128906 245.867188 280.472656 243.894531 284.328125 C 240.039062 292.058594 235.453125 302.492188 229.023438 315.707031 C 227.375 319.003906 225.617188 322.453125 223.773438 326.117188 C 222.789062 327.808594 221.800781 329.519531 220.796875 331.296875 C 230.308594 323.800781 239.328125 317.527344 247.816406 312.535156 C 264.035156 303.003906 277.644531 297.113281 288.355469 293.902344 C 293.757812 292.359375 298.191406 290.730469 302.089844 290.003906 C 305.925781 289.273438 309.054688 288.761719 311.476562 288.355469 C 316.363281 287.625 318.460938 287.519531 318.527344 287.882812 C 318.613281 288.246094 316.621094 289.082031 311.96875 290.476562 C 309.613281 291.136719 306.589844 291.996094 302.863281 292.980469 C 299.113281 293.964844 294.828125 295.851562 289.640625 297.5625 C 279.292969 301.226562 266.222656 307.289062 250.472656 316.863281 C 242.308594 321.832031 233.609375 327.980469 224.351562 335.367188 C 232.707031 330.785156 241.28125 326.84375 249.871094 324.421875 C 266.371094 319.734375 284.648438 313.5 301.898438 314.269531 C 318.71875 315.042969 336.160156 323.738281 350.925781 331.257812 C 357.933594 334.898438 364.832031 338.710938 369.886719 344.363281 C 370.125 343.101562 370.296875 341.902344 370.507812 340.660156 C 369.246094 329.457031 366.738281 319.925781 364.210938 311.851562 C 360.78125 301.054688 357.632812 292.765625 355.359375 286.339844 C 350.730469 273.53125 349.46875 268.433594 350.21875 268.136719 C 350.925781 267.878906 353.410156 272.417969 358.980469 284.90625 C 361.746094 291.117188 365.304688 299.363281 369.050781 310.308594 C 370.273438 313.886719 371.472656 317.828125 372.566406 322.089844 C 373.125 306.496094 371.882812 295.25 370.550781 287.582031 C 369.996094 284.863281 369.675781 282.550781 369.265625 280.644531 C 368.796875 278.738281 368.472656 277.195312 368.21875 275.996094 C 367.722656 273.574219 367.722656 272.417969 368.089844 272.289062 C 368.472656 272.140625 369.117188 273.019531 370.273438 275.289062 C 370.808594 276.425781 371.472656 277.902344 372.246094 279.765625 C 372.953125 281.671875 373.574219 283.984375 374.367188 286.746094 C 375.265625 290.046875 376.101562 294.074219 376.722656 298.804688 C 377.558594 292.507812 378.332031 286.148438 379.039062 279.828125 Z M 408.628906 600.46875 C 408.394531 592.027344 408.566406 583.589844 410.066406 575.214844 C 402.136719 576.328125 394.082031 577.101562 385.980469 577.3125 C 380.28125 577.507812 374.601562 577.527344 368.859375 577.527344 C 367.917969 585.023438 367.210938 592.628906 367.039062 600.210938 C 378.222656 600.039062 389.429688 600.039062 400.617188 600.316406 C 403.230469 600.402344 405.90625 600.425781 408.628906 600.46875 Z M 408.929688 613.253906 C 408.886719 610.855469 408.84375 608.519531 408.78125 606.121094 C 406.015625 606.078125 403.292969 605.972656 400.617188 605.824219 C 389.472656 605.203125 378.222656 605.03125 366.996094 605.136719 C 367.039062 607.558594 367.101562 610.019531 367.273438 612.441406 C 371.882812 612.589844 376.125 612.699219 379.851562 612.761719 C 385.851562 612.847656 390.929688 613.105469 395.152344 613.105469 C 399.414062 613.0625 402.800781 613.0625 405.4375 613.125 C 406.785156 613.167969 407.921875 613.210938 408.929688 613.253906 Z M 408.695312 624.328125 C 408.886719 621.179688 408.949219 618.007812 408.929688 614.859375 C 407.964844 615.011719 406.785156 615.117188 405.4375 615.269531 C 402.800781 615.566406 399.265625 615.847656 395 616.167969 C 390.757812 616.46875 385.421875 616.511719 379.402344 616.660156 C 375.84375 616.765625 371.882812 616.765625 367.617188 616.808594 C 367.9375 619.746094 368.429688 622.699219 369.011719 625.65625 C 382.273438 625.464844 395.515625 625.097656 408.695312 624.328125 Z M 412.636719 533.535156 C 413.664062 527.988281 414.800781 521.96875 415.957031 515.519531 C 412.785156 515.929688 409.550781 516.398438 406.316406 516.914062 C 391.746094 519.398438 377.238281 521.5625 362.515625 522.71875 C 362.367188 523.703125 362.152344 524.644531 361.9375 525.609375 C 364.359375 525.460938 366.738281 525.351562 368.902344 525.246094 C 372.289062 524.882812 375.179688 524.539062 377.921875 524.261719 C 383.429688 523.597656 387.78125 523.039062 391.125 522.78125 C 397.828125 522.3125 400.445312 522.589844 400.507812 523.382812 C 400.617188 524.109375 398.238281 525.160156 391.789062 526.636719 C 388.550781 527.367188 384.289062 528.328125 378.738281 529.273438 C 375.910156 529.679688 372.910156 530.128906 369.460938 530.644531 C 366.589844 530.855469 363.246094 531.027344 360.097656 531.179688 C 358.660156 534.414062 356.667969 537.195312 354.375 539.597656 C 385.359375 539.808594 392.878906 540.945312 392.878906 542.316406 C 392.878906 543.773438 384.222656 544.992188 347.21875 545.058594 C 339.484375 549.578125 329.734375 551.699219 319.746094 552.105469 C 302.710938 552.8125 280.429688 556.945312 268.855469 542.59375 C 268.535156 546.042969 268.191406 549.535156 267.871094 552.984375 C 286 555.039062 301.492188 554.480469 314.242188 554.78125 C 327.527344 554.996094 337.726562 555.101562 345.441406 554.375 C 353.152344 553.605469 358.488281 552.683594 361.808594 551.953125 C 365.195312 551.226562 366.738281 551.160156 366.886719 551.484375 C 366.996094 551.847656 365.710938 552.660156 362.429688 554.011719 C 359.175781 555.402344 353.839844 556.988281 345.933594 558.273438 C 337.960938 559.558594 327.441406 559.816406 314.242188 559.835938 C 301.578125 559.835938 286.042969 560.585938 267.355469 558.445312 C 267.101562 561.273438 266.800781 564.097656 266.542969 566.90625 C 266.863281 566.820312 267.207031 566.777344 267.613281 566.777344 C 309.011719 566.089844 351.503906 572.003906 392.773438 567.738281 C 398.238281 567.140625 403.660156 566.410156 409.101562 565.621094 C 409.507812 564.699219 409.699219 562.492188 409.613281 560.242188 C 409.59375 559.109375 409.59375 557.542969 409.765625 556.132812 C 409.914062 554.824219 410.085938 553.453125 410.238281 552.0625 C 410.988281 546.535156 411.757812 540.367188 412.636719 533.535156 Z M 444.179688 366.402344 C 445.742188 357.195312 445.785156 347.8125 445.527344 338.472656 C 445.441406 338.453125 445.378906 338.410156 445.335938 338.367188 C 440.429688 334.898438 439.355469 329.414062 437.707031 323.953125 C 437.621094 323.695312 437.597656 323.4375 437.558594 323.179688 C 434.984375 322.882812 432.457031 322.625 429.886719 322.261719 C 427.828125 321.980469 426.84375 320.675781 426.605469 319.175781 C 426.542969 318.917969 426.4375 318.703125 426.394531 318.449219 C 425.773438 315.664062 425.300781 312.792969 424.851562 309.964844 C 419.792969 312.472656 415.101562 315.726562 410.859375 319.003906 C 398.496094 328.429688 387.480469 338.859375 377.152344 350.402344 C 377.023438 350.554688 376.894531 350.339844 376.765625 350.445312 C 376.765625 350.917969 376.789062 351.175781 376.832031 351.175781 L 376.574219 351.175781 C 376.875 354.859375 377.34375 356.980469 377.28125 359.59375 C 399.480469 362.011719 421.914062 364.21875 444.179688 366.402344 Z M 455.835938 122.957031 C 454.65625 122.875 453.5 122.914062 452.320312 123.023438 C 447.648438 143.433594 450.007812 164.617188 446.0625 185.160156 C 448.871094 185.609375 451.613281 186.144531 454.378906 186.699219 C 454.164062 165.453125 455.554688 144.207031 455.835938 122.957031 Z M 462.046875 368.351562 C 462.5625 359.035156 462.96875 349.675781 463.121094 340.316406 C 460.398438 340.765625 457.527344 341.066406 454.742188 340.980469 C 454.890625 349.824219 454.589844 358.628906 453.242188 367.367188 C 456.175781 367.6875 459.113281 368.03125 462.046875 368.351562 Z M 464.105469 499.222656 C 463.546875 497.828125 463.140625 497.980469 462.820312 494.316406 C 462.777344 494.316406 462.777344 494.316406 462.777344 494.316406 C 436.121094 501.019531 409.101562 501.0625 382.445312 505.089844 C 382.402344 507.253906 382.082031 509.351562 381.566406 511.453125 C 393.4375 509.78125 405.242188 507.765625 417.113281 505.796875 C 431.621094 503.375 446.40625 503.226562 460.785156 500.441406 C 461.339844 500.3125 461.8125 500.183594 462.304688 500.207031 C 462.820312 499.886719 463.398438 499.328125 464.105469 499.222656 Z M 465.457031 330.699219 C 466.675781 329.007812 467.8125 327.292969 468.839844 325.453125 C 461.597656 325.195312 454.378906 324.765625 447.175781 324.144531 C 447.691406 326.585938 448.421875 329.5625 449.964844 330.441406 C 454.398438 332.90625 460.613281 331.511719 465.457031 330.699219 Z M 478.054688 316.132812 C 478.867188 315.300781 479.640625 314.441406 480.433594 313.605469 C 473.492188 312 466.589844 310.203125 459.992188 307.289062 C 459.753906 307.375 459.5 307.394531 459.261719 307.4375 C 453.089844 308.167969 448.164062 307.480469 442.140625 306.601562 C 439.207031 306.152344 436.355469 306.304688 433.59375 306.882812 C 433.914062 309.171875 434.320312 311.445312 434.792969 313.714844 C 449.042969 315.554688 463.375 316.242188 477.710938 316.542969 C 477.839844 316.433594 477.90625 316.285156 478.054688 316.132812 Z M 525.003906 530.8125 C 524.125 524.003906 523.503906 517.128906 523.308594 510.273438 C 505.761719 507.082031 487.996094 508.429688 470.277344 508.882812 C 471.925781 511.085938 473.726562 513.058594 475.632812 514.8125 C 501.582031 515.328125 509.703125 516.65625 509.703125 518.15625 C 509.660156 519.484375 503.167969 520.511719 483.046875 520.40625 C 495.046875 527.730469 510.066406 530.042969 525.003906 530.8125 Z M 535.4375 593.785156 C 533.316406 593.933594 531.175781 594.148438 529.050781 594.386719 C 524.9375 599.03125 522.644531 603.253906 520.675781 605.542969 C 518.425781 608.476562 517.140625 609.355469 516.496094 608.992188 C 515.832031 608.628906 515.894531 607.042969 517.308594 603.59375 C 517.996094 601.859375 519.066406 599.652344 520.632812 596.914062 C 520.972656 596.355469 521.339844 595.820312 521.703125 595.21875 C 505.183594 597.511719 488.875 601.132812 472.183594 602.738281 C 453.671875 604.515625 433.398438 606.230469 414.199219 606.164062 C 414.394531 612.097656 414.542969 618.050781 414.242188 623.984375 C 415.828125 623.878906 417.4375 623.8125 419.023438 623.707031 C 453.414062 621.136719 487.589844 616.425781 521.960938 613.46875 C 522.003906 613.46875 522.003906 613.425781 522.003906 613.382812 C 526.289062 606.121094 530.636719 599.652344 535.4375 593.785156 Z M 553.652344 497.679688 C 553.609375 497.636719 553.566406 497.613281 553.5 497.53125 C 547.800781 489.753906 517.890625 487.632812 510.066406 488.277344 C 497.316406 489.347656 484.484375 491.617188 471.796875 493.929688 C 472.289062 495.816406 472.914062 497.636719 473.941406 499.328125 C 474.003906 499.4375 474.003906 499.519531 474.089844 499.628906 C 492.195312 499.15625 510.21875 498.128906 528.089844 501.792969 C 529.222656 502.046875 530.082031 502.605469 530.59375 503.292969 C 531.644531 504.019531 532.394531 505.199219 532.394531 506.847656 C 532.417969 509.394531 532.503906 511.964844 532.652344 514.492188 C 539.765625 509.03125 546.75 503.398438 553.652344 497.679688 Z M 554.164062 316.839844 C 554.316406 302.8125 553.050781 288.71875 549.195312 275.183594 C 542.125 250.550781 528.132812 232.429688 515.101562 211.074219 C 492.261719 206.621094 470.082031 198.886719 447.199219 194.582031 C 429.519531 191.242188 411.371094 190.300781 393.757812 186.808594 C 393.714844 232.214844 389.386719 277.34375 382.660156 322.152344 C 384.09375 319.539062 385.53125 316.96875 387.136719 314.636719 C 389.792969 310.84375 392.28125 307.179688 394.789062 303.796875 C 397.507812 300.605469 400.078125 297.5625 402.5 294.695312 C 404.878906 291.757812 407.644531 289.488281 409.980469 287.070312 C 412.402344 284.753906 414.542969 282.398438 416.921875 280.601562 C 419.234375 278.738281 421.398438 277.023438 423.414062 275.375 C 424.421875 274.558594 425.363281 273.746094 426.371094 273.039062 C 427.355469 272.398438 428.34375 271.734375 429.265625 271.113281 C 433.035156 268.691406 436.164062 266.550781 438.886719 265.007812 C 441.691406 263.59375 443.984375 262.480469 445.785156 261.667969 C 449.382812 260.058594 450.992188 259.546875 451.183594 259.910156 C 451.3125 260.253906 450.050781 261.386719 446.8125 263.550781 C 445.183594 264.644531 443.148438 266.015625 440.535156 267.621094 C 438.007812 269.378906 435.09375 271.691406 431.578125 274.261719 C 430.679688 274.925781 429.777344 275.589844 428.855469 276.273438 C 427.9375 277.046875 427.015625 277.859375 426.070312 278.695312 C 424.1875 280.34375 422.128906 282.164062 419.964844 284.070312 C 417.691406 285.871094 415.679688 288.203125 413.40625 290.515625 C 411.199219 292.894531 408.566406 295.1875 406.316406 298.078125 C 404 300.90625 401.535156 303.882812 398.964844 306.988281 C 396.652344 310.371094 394.230469 313.863281 391.660156 317.570312 C 389.324219 321.082031 387.375 325.085938 385.058594 329.09375 C 394.53125 319.839844 404.730469 311.25 416.042969 304.546875 C 420.929688 301.632812 427.207031 296.898438 433.292969 296.878906 C 441.585938 296.835938 449.597656 299 457.847656 298.378906 C 459.113281 297.714844 460.613281 297.519531 462.199219 298.292969 C 480.285156 307.117188 502.976562 304.761719 518.167969 319.519531 C 527.058594 328.066406 536.101562 335.925781 543.171875 345.390625 C 543.171875 345.285156 543.152344 345.199219 543.152344 345.09375 C 542.144531 340.980469 540.878906 336.910156 539.59375 333.355469 C 536.765625 325.601562 533.636719 319.390625 531.175781 312.984375 C 526.222656 300.175781 523.03125 290.152344 519.644531 282.914062 C 516.347656 275.695312 513.453125 271.027344 511.460938 268.136719 C 509.445312 265.242188 508.71875 263.828125 508.996094 263.550781 C 509.253906 263.292969 510.496094 264.128906 513.152344 266.65625 C 515.683594 269.269531 519.28125 273.746094 523.136719 281.050781 C 527.101562 288.3125 530.765625 298.269531 535.867188 310.738281 C 537.859375 315.578125 540.238281 320.566406 542.636719 326.308594 C 542.59375 325.859375 542.59375 325.386719 542.550781 324.980469 C 542.378906 320.761719 541.714844 317.097656 540.792969 313.265625 C 539.980469 309.496094 539.101562 305.960938 538.265625 302.597656 C 534.839844 289.167969 531.023438 279.101562 527.550781 271.734375 C 526.632812 269.890625 525.882812 268.136719 525.089844 266.636719 C 524.210938 265.09375 523.4375 263.722656 522.730469 262.480469 C 521.402344 259.890625 520.097656 257.960938 519.089844 256.460938 C 517.179688 253.378906 516.496094 251.878906 516.773438 251.621094 C 517.074219 251.40625 518.339844 252.433594 520.824219 255.132812 C 522.109375 256.503906 523.71875 258.304688 525.34375 260.789062 C 526.179688 262.03125 527.101562 263.402344 528.132812 264.859375 C 529.074219 266.378906 529.972656 268.136719 531.023438 269.976562 C 535.117188 277.386719 539.421875 287.667969 543.171875 301.269531 C 544.09375 304.675781 545.101562 308.273438 545.9375 312.109375 C 546.878906 315.8125 547.738281 320.246094 547.953125 324.617188 C 548.402344 330.550781 548.144531 336.761719 548.550781 343.101562 C 548.574219 343.25 548.617188 343.398438 548.660156 343.550781 C 551.488281 334.855469 554.078125 326.179688 554.164062 316.839844 Z M 558.921875 489.046875 C 569.765625 475.855469 561.644531 452.058594 559.179688 437.492188 C 557.058594 424.984375 555.816406 412.367188 554.421875 399.773438 C 553.757812 408.792969 552.109375 416.566406 549.902344 422.972656 C 546.921875 431.582031 543.6875 437.964844 540.902344 442.527344 C 538.179688 447.175781 535.953125 450.128906 534.453125 451.949219 C 532.929688 453.792969 532.09375 454.457031 531.753906 454.242188 C 531.472656 454.050781 531.6875 452.976562 532.609375 450.816406 C 533.53125 448.695312 535.246094 445.460938 537.453125 440.683594 C 539.765625 435.992188 542.445312 429.71875 545.058594 421.429688 C 546.988281 415.195312 548.101562 408.46875 548.980469 402 C 549.34375 399.304688 550.609375 394.742188 549.601562 392.0625 C 549.539062 391.804688 549.429688 391.59375 549.300781 391.355469 C 547.289062 387.332031 541.929688 388.316406 537.453125 387.800781 C 510.324219 384.652344 483.347656 380.539062 456.285156 376.769531 C 426.4375 372.53125 396.179688 371.394531 366.289062 368.054688 C 366.332031 369.210938 366.417969 370.300781 366.503906 371.4375 C 368.902344 379.210938 372.71875 385.359375 376.421875 390.007812 C 380.878906 395.554688 384.910156 399.515625 388.058594 402.410156 C 391.230469 405.34375 393.5 407.292969 394.894531 408.664062 C 396.289062 410.011719 396.757812 410.804688 396.542969 411.105469 C 396.328125 411.449219 395.453125 411.253906 393.671875 410.417969 C 391.875 409.605469 389.195312 408.0625 385.574219 405.429688 C 381.972656 402.773438 377.453125 398.960938 372.503906 393.199219 C 372.09375 392.726562 371.644531 392.214844 371.257812 391.699219 C 371.515625 392.363281 371.730469 392.984375 371.988281 393.605469 C 375.480469 402.152344 379.808594 409.242188 383.878906 415.839844 C 391.703125 429.246094 397.292969 439.613281 402.714844 446.808594 C 408.007812 454.09375 412.59375 458.183594 415.679688 460.625 C 418.765625 463.046875 420.308594 463.921875 420.113281 464.332031 C 420.007812 464.609375 418.144531 464.394531 414.5 462.425781 C 410.859375 460.433594 405.5 456.46875 399.628906 449.207031 C 393.609375 442.054688 387.4375 431.472656 379.550781 418.496094 C 375.4375 412.113281 370.703125 404.613281 366.996094 395.660156 C 366.652344 394.890625 366.375 394.078125 366.03125 393.285156 C 371.175781 427.769531 374.667969 462.550781 377.796875 497.273438 C 396.953125 494.339844 416.363281 494.273438 435.5 491.148438 C 453.96875 488.148438 472.441406 484.871094 490.910156 481.679688 C 505.996094 479.046875 519.6875 478.445312 534.667969 482.128906 C 541.417969 483.777344 548.058594 484.078125 553.695312 486.628906 C 553.972656 482.75 553.714844 479.109375 553.394531 475.960938 C 552.664062 470.261719 552.109375 465.828125 551.660156 462.445312 C 550.824219 455.546875 551.25 452.808594 551.957031 452.722656 C 552.792969 452.613281 553.695312 455.078125 555.472656 461.71875 C 556.371094 465.058594 557.488281 469.429688 558.429688 475.296875 C 558.964844 479.109375 559.523438 483.777344 558.921875 489.046875 Z M 558.921875 572.773438 C 569.828125 565.683594 581.078125 559.367188 592.605469 553.539062 C 561.964844 557.203125 531.214844 559.257812 500.554688 562.8125 C 499.160156 562.964844 498.132812 562.558594 497.402344 561.871094 C 469.570312 562.898438 442.914062 570.203125 415.722656 574.421875 C 415.722656 574.488281 415.742188 574.574219 415.722656 574.636719 C 415.527344 575.558594 415.421875 576.480469 415.273438 577.378906 C 424.59375 576.242188 433.226562 575.195312 441.15625 574.230469 C 450.007812 572.988281 458.042969 571.851562 465.242188 570.824219 C 479.746094 568.917969 491.039062 567.269531 499.761719 566.5625 C 517.140625 565.125 523.761719 565.105469 523.84375 565.875 C 523.84375 566.648438 517.332031 568.039062 500.230469 570.417969 C 491.640625 571.617188 480.433594 573.652344 466.011719 575.859375 C 458.8125 576.949219 450.777344 578.191406 441.886719 579.585938 C 433.550781 580.65625 424.421875 581.789062 414.5 583.054688 C 413.902344 588.835938 413.878906 594.640625 414.027344 600.46875 C 433.335938 600.511719 453.671875 599.589844 472.183594 597.234375 C 490.417969 594.898438 508.332031 590.957031 526.546875 589.007812 C 526.996094 588.539062 527.425781 588.066406 527.917969 587.550781 C 531.902344 582.003906 536.316406 578.128906 540.023438 575.300781 C 544.289062 572.066406 547.738281 569.945312 550.371094 568.316406 C 555.664062 565.210938 557.894531 564.335938 558.386719 564.957031 C 558.859375 565.535156 557.402344 567.546875 552.664062 571.507812 C 550.265625 573.457031 547.179688 575.984375 543.257812 579.21875 C 540.429688 581.640625 537.300781 584.554688 534.257812 588.324219 C 536.359375 588.171875 538.4375 588.109375 540.539062 588.023438 C 545.789062 582.496094 551.722656 577.421875 558.921875 572.773438 Z M 574.136719 504.917969 C 578.527344 497.570312 582.472656 490.011719 586.050781 482.300781 C 568.84375 496.992188 551.636719 511.664062 533.53125 525.308594 C 533.746094 527.257812 533.960938 529.207031 534.214844 531.113281 C 534.515625 531.15625 534.816406 531.15625 535.117188 531.15625 C 535.394531 530.148438 535.972656 529.25 537.128906 528.585938 C 549.601562 520.917969 561.644531 512.585938 574.136719 504.917969 Z M 617.054688 539.746094 C 615.664062 539.488281 613.628906 539.660156 612.085938 539.1875 C 580.800781 541.972656 546.34375 542.9375 515.382812 538.867188 C 491.53125 535.699219 472.503906 530.921875 459.90625 510.015625 C 457.3125 510.488281 454.699219 510.894531 452.105469 511.257812 C 455.257812 517.320312 459.433594 522.269531 463.914062 526.082031 C 468.992188 530.492188 474.261719 533.683594 479.277344 536.0625 C 489.238281 540.921875 497.832031 543.042969 504.304688 544.542969 C 517.375 547.371094 522.582031 547.476562 522.582031 548.441406 C 522.582031 548.804688 521.296875 549.128906 518.253906 549.320312 C 515.253906 549.425781 510.433594 549.382812 503.597656 548.398438 C 496.804688 547.304688 487.78125 545.527344 477.089844 540.644531 C 472.914062 538.78125 468.5 536.320312 464.105469 533.085938 C 457.632812 535.890625 452.597656 539.597656 448.3125 542.53125 C 443.640625 545.765625 439.871094 548.25 436.742188 549.832031 C 435.15625 550.605469 433.890625 551.269531 432.714844 551.65625 C 431.535156 552.0625 430.59375 552.320312 429.820312 552.511719 C 428.300781 552.832031 427.570312 552.769531 427.464844 552.402344 C 427.3125 552.0625 427.765625 551.441406 428.921875 550.519531 C 429.5625 550.089844 430.3125 549.535156 431.277344 548.957031 C 432.242188 548.25 433.378906 547.433594 434.726562 546.492188 C 437.40625 544.628906 440.792969 541.910156 445.3125 538.417969 C 448.933594 535.65625 453.347656 532.183594 459.285156 529.207031 C 457.078125 527.257812 454.933594 525.050781 452.898438 522.566406 C 450.992188 522.976562 449.234375 523.339844 447.628906 523.703125 C 445.785156 524.175781 444.136719 524.625 442.613281 524.988281 C 439.507812 525.714844 437.085938 526.292969 435.09375 526.445312 C 431.171875 526.679688 429.648438 526.273438 429.585938 525.503906 C 429.519531 524.730469 430.808594 523.765625 434.214844 522.632812 C 435.949219 522.054688 438.179688 521.089844 441.15625 520.148438 C 442.65625 519.632812 444.347656 519.078125 446.214844 518.457031 C 447.199219 518.199219 448.269531 517.941406 449.382812 517.683594 C 448.226562 515.929688 447.199219 514.042969 446.257812 512.03125 C 438.113281 513.058594 429.929688 513.828125 421.722656 514.792969 C 420.371094 521.816406 419.128906 528.394531 417.992188 534.390625 C 416.984375 541.136719 416.128906 547.222656 415.316406 552.726562 C 415.101562 554.117188 414.90625 555.445312 414.695312 556.730469 C 414.5 557.972656 414.5 558.9375 414.457031 560.285156 C 414.4375 561.527344 414.394531 562.8125 414.199219 564.140625 C 414.15625 564.355469 414.136719 564.589844 414.09375 564.804688 C 444.5 559.835938 473.898438 552.296875 505.289062 552.574219 C 505.996094 552.574219 506.574219 552.683594 507.089844 552.917969 C 509.917969 554.074219 517.4375 551.847656 520.566406 551.527344 C 525.410156 551.035156 530.296875 550.605469 535.136719 550.132812 C 544.5 549.234375 553.867188 548.441406 563.230469 547.519531 C 572.957031 546.558594 582.644531 545.570312 592.347656 544.394531 C 597.105469 543.816406 615.105469 543.773438 617.054688 539.746094 Z M 679.34375 456.941406 C 673.925781 452.058594 646.777344 452.550781 640.777344 452.058594 C 632.828125 451.480469 614.847656 448.609375 607.96875 455.742188 C 631.734375 458.3125 655.476562 458.269531 679.34375 456.941406 Z M 677.953125 470.734375 C 677.375 471.589844 676.730469 472.40625 676.089844 473.046875 C 673.988281 475.210938 671.78125 476.839844 669.765625 478.273438 C 665.695312 481.121094 661.882812 483.480469 658.453125 485.597656 C 655.003906 487.65625 651.917969 489.453125 649.132812 490.996094 C 646.304688 492.433594 643.839844 493.675781 641.675781 494.746094 C 632.976562 498.75 629.355469 499.542969 629.054688 498.898438 C 628.710938 498.152344 631.777344 496.09375 639.855469 491.296875 C 641.867188 490.074219 644.183594 488.683594 646.863281 487.035156 C 649.476562 485.34375 652.433594 483.480469 655.734375 481.316406 C 659.011719 479.109375 662.695312 476.730469 666.617188 473.90625 C 669.445312 471.761719 672.703125 469.320312 674.179688 466.40625 C 651.597656 467.4375 629.121094 467.285156 606.664062 464.757812 C 606.46875 464.972656 606.257812 465.207031 606 465.421875 C 604.648438 466.558594 603.320312 467.691406 601.992188 468.828125 C 596.59375 481.679688 590.914062 494.339844 583.929688 506.375 C 589.90625 503.269531 594.792969 499.542969 598.863281 496.394531 C 604.390625 492.023438 608.613281 488.40625 611.871094 485.683594 C 618.363281 480.222656 621.191406 478.445312 621.707031 479.003906 C 622.21875 479.558594 620.417969 482.300781 614.546875 488.535156 C 611.570312 491.617188 607.605469 495.625 602.054688 500.355469 C 600.664062 501.492188 599.164062 502.710938 597.597656 503.996094 C 595.972656 505.238281 594.171875 506.417969 592.347656 507.746094 C 592.308594 507.765625 592.265625 507.765625 592.222656 507.808594 C 599.507812 507.851562 606.769531 508.003906 613.96875 508.839844 C 623.589844 509.929688 634.15625 513.058594 643.734375 511.964844 C 665.4375 509.503906 673.925781 489.796875 677.953125 470.734375 Z M 702.335938 391.847656 C 705.488281 400.695312 684.746094 415.046875 679.710938 419.480469 C 670.472656 427.726562 660.769531 435.542969 651.445312 443.703125 C 667.28125 444.109375 692.394531 440.726562 689.203125 461.566406 C 689.074219 462.230469 688.859375 462.789062 688.558594 463.257812 C 688.558594 463.300781 688.558594 463.367188 688.558594 463.410156 C 685.34375 485.019531 677.886719 507.703125 657.359375 518.242188 C 647.632812 523.230469 635.398438 520.941406 625.15625 519.484375 C 608.421875 517.019531 591.792969 517.171875 574.90625 516.957031 C 574.15625 516.914062 573.492188 516.761719 572.957031 516.507812 C 565.242188 521.390625 557.617188 526.421875 549.921875 531.328125 C 571.566406 531.585938 593.59375 531.777344 615 529.785156 C 615.46875 529.722656 615.921875 529.785156 616.328125 529.871094 C 625.113281 528.351562 635.527344 531.308594 629.3125 542.167969 C 625.777344 548.355469 617.71875 551.546875 611.570312 554.375 C 600.898438 559.300781 590.292969 564.484375 580.15625 570.460938 C 570.195312 576.328125 560.699219 582.925781 552.214844 590.742188 C 547.910156 594.640625 543.902344 598.863281 540.214844 603.339844 C 537.921875 606.164062 530.382812 613.640625 530.382812 617.324219 C 530.382812 619.617188 528.902344 622.058594 525.96875 622.316406 C 487.890625 625.421875 450.050781 631.332031 411.863281 633.324219 C 376.402344 635.1875 340.683594 634.824219 305.132812 635.144531 C 233.972656 635.808594 163.710938 624.476562 92.742188 624.136719 C 90.429688 624.113281 89.035156 622.699219 88.523438 620.988281 C 87.6875 620 87.152344 618.714844 87.386719 617.089844 C 89.402344 603.550781 89.1875 590.464844 80.488281 579.304688 C 75.773438 573.246094 72.34375 560.371094 72.34375 560.371094 C 72.34375 560.285156 72.34375 560.222656 72.34375 560.113281 C 64.910156 559.773438 57.496094 559.152344 50.039062 558.742188 C 47.722656 558.636719 45.238281 556.773438 45.496094 554.160156 C 45.859375 549.875 45.347656 545.871094 44.511719 541.609375 C 44.253906 540.28125 44.511719 539.144531 45.089844 538.226562 C 45.902344 536.363281 47.765625 534.882812 50.382812 535.527344 C 54.902344 536.617188 59.402344 537.238281 63.964844 537.691406 C 63.667969 523.511719 62.125 509.394531 62.015625 495.214844 C 61.972656 493.910156 62.425781 492.902344 63.109375 492.175781 C 63.410156 491.230469 63.921875 490.332031 64.738281 489.691406 C 63.964844 486.371094 64.4375 482.816406 65.144531 479.558594 C 65.167969 479.429688 65.253906 479.324219 65.273438 479.195312 C 65.382812 477.546875 66.386719 476.066406 68.574219 475.660156 C 74.789062 474.527344 80.957031 474.78125 87.238281 474.824219 C 87.707031 474.824219 88.160156 474.890625 88.585938 474.996094 C 90.621094 475.296875 92.488281 476.773438 92.53125 479.410156 C 92.574219 481.9375 92.894531 484.398438 93.257812 486.882812 C 93.367188 487.65625 93.324219 488.363281 93.195312 489.089844 C 99.492188 489.691406 105.773438 490.269531 111.898438 490.375 C 112.242188 490.226562 112.605469 490.117188 112.929688 490.054688 C 117.941406 476.324219 114.941406 458.570312 117.644531 443.917969 C 120.578125 427.875 128.933594 411.554688 129.683594 395.449219 C 129.707031 394.933594 129.835938 394.484375 129.964844 394.035156 C 124.285156 385.382812 118.285156 376.898438 111.535156 369.082031 C 107.679688 364.648438 114.148438 358.15625 118.007812 362.632812 C 134.933594 382.125 147.234375 405.128906 161.398438 426.742188 C 159.855469 418.109375 159.917969 409.457031 163.132812 401.058594 C 162.726562 400.972656 162.320312 400.953125 161.871094 400.867188 C 156.039062 399.988281 158.527344 391.144531 164.332031 392.019531 C 170.867188 392.984375 177.445312 393.90625 183.984375 394.847656 C 189.8125 361.390625 186.105469 327.742188 186.359375 294.007812 C 186.402344 288.097656 195.574219 288.054688 195.53125 294.007812 C 195.425781 308.210938 195.9375 322.367188 196.195312 336.546875 C 200.246094 318.339844 203.394531 299.578125 203.546875 281.457031 C 203.71875 257.339844 196.710938 234.378906 195.9375 210.476562 C 190.261719 210.046875 190.28125 201.09375 196.152344 201.351562 C 217.238281 202.230469 239.007812 206.8125 260.050781 210.820312 C 263.757812 200.859375 264.59375 190.511719 264.679688 180.105469 C 252.121094 184.707031 241.171875 192.503906 227.738281 195.203125 C 215.074219 197.753906 201.53125 194.21875 189.253906 191.390625 C 186.039062 190.621094 185.375 187.472656 186.46875 185.117188 C 186.445312 184.707031 186.46875 184.324219 186.511719 183.917969 C 188.761719 170.699219 196.539062 159.136719 197.375 145.683594 C 197.589844 142 201.273438 140.609375 203.910156 141.527344 C 204.53125 141.441406 205.195312 141.484375 205.925781 141.699219 C 217.796875 145.425781 229.453125 139.066406 240.636719 135.765625 C 249.058594 133.261719 257.328125 131.804688 265.964844 131.246094 C 268.792969 128.933594 272.800781 127.714844 276.828125 128.632812 C 286.449219 130.839844 289.019531 142.984375 285.933594 151.167969 C 285.890625 151.296875 285.828125 151.359375 285.785156 151.46875 C 285.59375 172.605469 283.984375 193.746094 286.707031 214.78125 C 286.769531 215.144531 286.769531 215.464844 286.726562 215.808594 C 309.355469 220.09375 331.597656 225.019531 354.03125 230.546875 C 355.574219 230.929688 356.539062 231.871094 356.96875 233.007812 C 367.679688 239.734375 375.09375 251 380.835938 262.523438 C 383.300781 236.691406 384.652344 210.734375 384.609375 184.75 C 383.300781 184.429688 381.929688 184.128906 380.644531 183.722656 C 374.964844 182.074219 377.386719 173.230469 383.066406 174.878906 C 400.617188 179.996094 418.914062 181.304688 437.042969 183.808594 C 441.371094 162.410156 438.5 140.351562 443.75 119.0625 C 443.621094 117.113281 444.5625 115.207031 447.027344 114.625 C 451.65625 113.554688 456.132812 113.640625 460.785156 114.328125 C 461.597656 114.476562 462.304688 114.925781 462.839844 115.503906 C 464.148438 116.167969 465.089844 117.453125 465.089844 119.359375 C 464.898438 142.515625 463.183594 165.625 463.546875 188.757812 C 484.847656 193.898438 505.847656 200.792969 527.507812 203.941406 C 532.652344 204.691406 531.28125 211.695312 526.886719 212.726562 C 541.246094 235.578125 555.878906 256.246094 560.574219 284.070312 C 562.824219 297.308594 564.578125 311.035156 562.738281 324.464844 C 560.871094 338.152344 555.195312 350.597656 552.257812 363.984375 C 552.214844 364.242188 552.128906 364.433594 552.109375 364.648438 C 550.996094 369.980469 543.429688 368.289062 543.171875 363.511719 C 536.679688 346.785156 514.546875 322.558594 496.804688 317.570312 C 494.726562 316.96875 492.667969 316.476562 490.570312 315.941406 C 490.355469 316.347656 490.097656 316.753906 489.734375 317.121094 C 487.996094 318.898438 486.390625 320.71875 484.65625 322.472656 C 484.226562 324.316406 482.8125 325.859375 480.367188 325.792969 C 479.8125 325.792969 479.296875 325.75 478.742188 325.75 C 478.675781 326.328125 478.503906 326.929688 478.246094 327.507812 C 476.683594 330.804688 474.625 333.785156 472.398438 336.695312 C 472.289062 347.449219 471.796875 358.199219 471.175781 368.910156 C 471.175781 369.125 471.15625 369.316406 471.113281 369.488281 C 501.152344 373.429688 531.367188 378.441406 561.472656 381.160156 C 566.894531 381.632812 567.300781 389.6875 562.523438 390.308594 C 565.820312 414.1875 570.945312 438.457031 572.699219 462.425781 C 573.214844 469.492188 573.171875 476.367188 571.628906 482.601562 C 579.234375 476.132812 586.84375 469.683594 594.472656 463.214844 C 594.984375 462.015625 595.5 460.773438 596.015625 459.511719 C 595.800781 457.90625 596.292969 456.320312 597.511719 455.441406 C 601.328125 445.652344 611.464844 442.570312 622.371094 442.054688 C 622.925781 441.539062 623.589844 441.175781 624.46875 440.941406 C 639.984375 437.535156 651.339844 426.933594 662.933594 416.714844 C 672.808594 408.0625 683.136719 399.796875 693.378906 391.550781 C 694.539062 388.101562 700.707031 387.371094 702.335938 391.847656 " fill-opacity="1" fill-rule="nonzero"/></g><path fill="#000000" d="M 393.824219 582.453125 C 394.058594 586.011719 393.867188 589.714844 393.800781 593.3125 C 393.800781 593.421875 388.101562 593.398438 387.585938 593.355469 C 385.53125 593.269531 383.472656 593.3125 381.628906 592.328125 C 382.636719 588.429688 381.867188 584.359375 383.472656 580.546875 C 386.195312 582.132812 390.628906 582.605469 393.824219 582.453125 " fill-opacity="1" fill-rule="nonzero"/><path fill="#000000" d="M 349.769531 582.453125 C 350.003906 586.011719 349.8125 589.714844 349.726562 593.3125 C 349.726562 593.421875 344.046875 593.398438 343.53125 593.355469 C 341.476562 593.269531 339.417969 593.3125 337.597656 592.328125 C 338.582031 588.429688 337.8125 584.359375 339.417969 580.546875 C 342.140625 582.132812 346.574219 582.605469 349.769531 582.453125 " fill-opacity="1" fill-rule="nonzero"/><path fill="#000000" d="M 313.0625 582.453125 C 313.277344 586.011719 313.105469 589.714844 313.019531 593.3125 C 313.019531 593.421875 307.339844 593.398438 306.828125 593.355469 C 304.769531 593.269531 302.710938 593.3125 300.871094 592.328125 C 301.855469 588.429688 301.085938 584.359375 302.710938 580.546875 C 305.433594 582.132812 309.871094 582.605469 313.0625 582.453125 " fill-opacity="1" fill-rule="nonzero"/><path fill="#000000" d="M 280.019531 582.453125 C 280.234375 586.011719 280.0625 589.714844 279.976562 593.3125 C 279.976562 593.421875 274.300781 593.398438 273.785156 593.355469 C 271.730469 593.269531 269.671875 593.3125 267.828125 592.328125 C 268.8125 588.429688 268.042969 584.359375 269.671875 580.546875 C 272.371094 582.132812 276.828125 582.605469 280.019531 582.453125 " fill-opacity="1" fill-rule="nonzero"/><path fill="#000000" d="M 237.25 160.675781 C 237.402344 161.640625 236.996094 162.625 235.964844 162.925781 C 233.867188 163.503906 232.042969 161.554688 233.351562 159.992188 C 233.609375 159.285156 234.207031 158.769531 235.042969 158.726562 C 235.128906 158.726562 235.214844 158.726562 235.34375 158.726562 C 236.179688 158.664062 236.84375 159.371094 237.101562 160.097656 C 237.1875 160.269531 237.207031 160.464844 237.25 160.675781 " fill-opacity="1" fill-rule="nonzero"/><path fill="#000000" d="M 235.964844 582.453125 C 236.179688 586.011719 235.988281 589.714844 235.921875 593.3125 C 235.921875 593.421875 230.246094 593.398438 229.710938 593.355469 C 227.671875 593.269531 225.617188 593.3125 223.773438 592.328125 C 224.757812 588.429688 223.988281 584.359375 225.617188 580.546875 C 228.335938 582.132812 232.773438 582.605469 235.964844 582.453125 " fill-opacity="1" fill-rule="nonzero"/><path fill="#000000" d="M 232.300781 160.890625 C 232.324219 161.019531 232.300781 161.085938 232.300781 161.191406 C 232.300781 161.296875 232.300781 161.425781 232.257812 161.535156 C 232.214844 161.8125 232.066406 162.070312 231.851562 162.328125 C 231.746094 162.433594 231.679688 162.5625 231.550781 162.625 C 231.507812 162.667969 231.507812 162.691406 231.445312 162.734375 C 231.335938 162.820312 231.230469 162.839844 231.125 162.882812 C 231.082031 162.925781 231.039062 162.925781 231.015625 162.949219 C 229.539062 163.503906 227.523438 163.097656 227.628906 161.085938 C 227.738281 159.285156 229.429688 158.835938 230.824219 159.328125 C 230.886719 159.371094 230.972656 159.371094 231.015625 159.390625 C 231.039062 159.390625 231.082031 159.433594 231.082031 159.433594 C 231.230469 159.5 231.335938 159.5 231.445312 159.585938 C 232 159.90625 232.257812 160.378906 232.300781 160.890625 " fill-opacity="1" fill-rule="nonzero"/><path fill="#000000" d="M 206.589844 582.453125 C 206.804688 586.011719 206.632812 589.714844 206.546875 593.3125 C 206.546875 593.421875 200.867188 593.398438 200.351562 593.355469 C 198.296875 593.269531 196.238281 593.3125 194.394531 592.328125 C 195.402344 588.429688 194.632812 584.359375 196.238281 580.546875 C 198.960938 582.132812 203.394531 582.605469 206.589844 582.453125 " fill-opacity="1" fill-rule="nonzero"/><path fill="#000000" d="M 173.546875 582.453125 C 173.78125 586.011719 173.589844 589.714844 173.503906 593.3125 C 173.503906 593.421875 167.828125 593.398438 167.3125 593.355469 C 165.253906 593.269531 163.199219 593.3125 161.355469 592.328125 C 162.363281 588.429688 161.570312 584.359375 163.199219 580.546875 C 165.917969 582.132812 170.355469 582.605469 173.546875 582.453125 " fill-opacity="1" fill-rule="nonzero"/><path fill="#000000" d="M 143.335938 580.398438 C 144.191406 580.957031 144.726562 581.984375 144.363281 583.269531 C 143.632812 585.710938 144.46875 589.007812 142.199219 590.808594 C 140.226562 592.394531 137.527344 592.113281 135.214844 591.472656 C 134.550781 591.816406 133.757812 591.964844 133.09375 591.773438 C 131.507812 591.34375 130.929688 589.867188 131.140625 588.367188 C 131.507812 585.96875 131.65625 583.503906 132 581.105469 C 132.019531 580.957031 132.128906 580.804688 132.214844 580.613281 C 132.257812 580.460938 132.320312 580.355469 132.386719 580.207031 C 132.429688 580.183594 132.429688 580.140625 132.46875 580.097656 C 132.878906 579.371094 133.605469 578.769531 134.742188 578.769531 C 137.140625 578.8125 139.519531 579.007812 141.898438 579.476562 C 142.5625 579.628906 142.992188 579.992188 143.335938 580.398438 " fill-opacity="1" fill-rule="nonzero"/></svg>