  0
SECTION
  2
HEADER
  9
$ACADVER
  1
AC1024
  9
$ACADMAINTVER
 70
     6
  9
$DWGCODEPAGE
  3
ANSI_1252
  9
$INSBASE
 10
0.0
 20
0.0
 30
0.0
  9
$EXTMIN
 10
1.000000000000000E+20
 20
1.000000000000000E+20
 30
1.000000000000000E+20
  9
$EXTMAX
 10
-1.000000000000000E+20
 20
-1.000000000000000E+20
 30
-1.000000000000000E+20
  9
$LIMMIN
 10
0.0
 20
0.0
  9
$LIMMAX
 10
12.0
 20
9.0
  9
$ORTHOMODE
 70
     0
  9
$REGENMODE
 70
     1
  9
$FILLMODE
 70
     1
  9
$QTEXTMODE
 70
     0
  9
$MIRRTEXT
 70
     1
  9
$LTSCALE
 40
1.0
  9
$ATTMODE
 70
     1
  9
$TEXTSIZE
 40
0.2
  9
$TRACEWID
 40
0.05
  9
$TEXTSTYLE
  7
Standard
  9
$CLAYER
  8
0
  9
$CELTYPE
  6
ByLayer
  9
$CECOLOR
 62
   256
  9
$CELTSCALE
 40
1.0
  9
$DISPSILH
 70
     0
  9
$DIMSCALE
 40
1.0
  9
$DIMASZ
 40
0.18
  9
$DIMEXO
 40
0.0625
  9
$DIMDLI
 40
0.38
  9
$DIMRND
 40
0.0
  9
$DIMDLE
 40
0.0
  9
$DIMEXE
 40
0.18
  9
$DIMTP
 40
0.0
  9
$DIMTM
 40
0.0
  9
$DIMTXT
 40
0.18
  9
$DIMCEN
 40
0.09
  9
$DIMTSZ
 40
0.0
  9
$DIMTOL
 70
     0
  9
$DIMLIM
 70
     0
  9
$DIMTIH
 70
     1
  9
$DIMTOH
 70
     1
  9
$DIMSE1
 70
     0
  9
$DIMSE2
 70
     0
  9
$DIMTAD
 70
     0
  9
$DIMZIN
 70
     0
  9
$DIMBLK
  1

  9
$DIMASO
 70
     1
  9
$DIMSHO
 70
     1
  9
$DIMPOST
  1

  9
$DIMAPOST
  1

  9
$DIMALT
 70
     0
  9
$DIMALTD
 70
     2
  9
$DIMALTF
 40
25.4
  9
$DIMLFAC
 40
1.0
  9
$DIMTOFL
 70
     0
  9
$DIMTVP
 40
0.0
  9
$DIMTIX
 70
     0
  9
$DIMSOXD
 70
     0
  9
$DIMSAH
 70
     0
  9
$DIMBLK1
  1

  9
$DIMBLK2
  1

  9
$DIMSTYLE
  2
Standard
  9
$DIMCLRD
 70
     0
  9
$DIMCLRE
 70
     0
  9
$DIMCLRT
 70
     0
  9
$DIMTFAC
 40
1.0
  9
$DIMGAP
 40
0.09
  9
$DIMJUST
 70
     0
  9
$DIMSD1
 70
     0
  9
$DIMSD2
 70
     0
  9
$DIMTOLJ
 70
     1
  9
$DIMTZIN
 70
     0
  9
$DIMALTZ
 70
     0
  9
$DIMALTTZ
 70
     0
  9
$DIMUPT
 70
     0
  9
$DIMDEC
 70
     4
  9
$DIMTDEC
 70
     4
  9
$DIMALTU
 70
     2
  9
$DIMALTTD
 70
     2
  9
$DIMTXSTY
  7
Standard
  9
$DIMAUNIT
 70
     0
  9
$DIMADEC
 70
     0
  9
$DIMALTRND
 40
0.0
  9
$DIMAZIN
 70
     0
  9
$DIMDSEP
 70
    46
  9
$DIMATFIT
 70
     3
  9
$DIMFRAC
 70
     0
  9
$DIMLDRBLK
  1

  9
$DIMLUNIT
 70
     2
  9
$DIMLWD
 70
    -2
  9
$DIMLWE
 70
    -2
  9
$DIMTMOVE
 70
     0
  9
$DIMFXL
 40
1.0
  9
$DIMFXLON
 70
     0
  9
$DIMJOGANG
 40
0.7853981633974483
  9
$DIMTFILL
 70
     0
  9
$DIMTFILLCLR
 70
     0
  9
$DIMARCSYM
 70
     0
  9
$DIMLTYPE
  6

  9
$DIMLTEX1
  6

  9
$DIMLTEX2
  6

  9
$DIMTXTDIRECTION
 70
     0
  9
$LUNITS
 70
     2
  9
$LUPREC
 70
     4
  9
$SKETCHINC
 40
0.1
  9
$FILLETRAD
 40
0.5
  9
$AUNITS
 70
     0
  9
$AUPREC
 70
     0
  9
$MENU
  1
.
  9
$ELEVATION
 40
0.0
  9
$PELEVATION
 40
0.0
  9
$THICKNESS
 40
0.0
  9
$LIMCHECK
 70
     0
  9
$CHAMFERA
 40
0.5
  9
$CHAMFERB
 40
0.5
  9
$CHAMFERC
 40
1.0
  9
$CHAMFERD
 40
0.0
  9
$SKPOLY
 70
     0
  9
$TDCREATE
 40
2459022.900996736
  9
$TDUCREATE
 40
2459022.609330069
  9
$TDUPDATE
 40
2459022.900996863
  9
$TDUUPDATE
 40
2459022.609330197
  9
$TDINDWG
 40
0.0000000116
  9
$TDUSRTIMER
 40
0.0000000116
  9
$USRTIMER
 70
     1
  9
$ANGBASE
 50
0.0
  9
$ANGDIR
 70
     0
  9
$PDMODE
 70
     0
  9
$PDSIZE
 40
0.0
  9
$PLINEWID
 40
0.0
  9
$SPLFRAME
 70
     0
  9
$SPLINETYPE
 70
     6
  9
$SPLINESEGS
 70
     8
  9
$HANDSEED
  5
5B
  9
$SURFTAB1
 70
     6
  9
$SURFTAB2
 70
     6
  9
$SURFTYPE
 70
     6
  9
$SURFU
 70
     6
  9
$SURFV
 70
     6
  9
$UCSBASE
  2

  9
$UCSNAME
  2

  9
$UCSORG
 10
0.0
 20
0.0
 30
0.0
  9
$UCSXDIR
 10
1.0
 20
0.0
 30
0.0
  9
$UCSYDIR
 10
0.0
 20
1.0
 30
0.0
  9
$UCSORTHOREF
  2

  9
$UCSORTHOVIEW
 70
     0
  9
$UCSORGTOP
 10
0.0
 20
0.0
 30
0.0
  9
$UCSORGBOTTOM
 10
0.0
 20
0.0
 30
0.0
  9
$UCSORGLEFT
 10
0.0
 20
0.0
 30
0.0
  9
$UCSORGRIGHT
 10
0.0
 20
0.0
 30
0.0
  9
$UCSORGFRONT
 10
0.0
 20
0.0
 30
0.0
  9
$UCSORGBACK
 10
0.0
 20
0.0
 30
0.0
  9
$PUCSBASE
  2

  9
$PUCSNAME
  2

  9
$PUCSORG
 10
0.0
 20
0.0
 30
0.0
  9
$PUCSXDIR
 10
1.0
 20
0.0
 30
0.0
  9
$PUCSYDIR
 10
0.0
 20
1.0
 30
0.0
  9
$PUCSORTHOREF
  2

  9
$PUCSORTHOVIEW
 70
     0
  9
$PUCSORGTOP
 10
0.0
 20
0.0
 30
0.0
  9
$PUCSORGBOTTOM
 10
0.0
 20
0.0
 30
0.0
  9
$PUCSORGLEFT
 10
0.0
 20
0.0
 30
0.0
  9
$PUCSORGRIGHT
 10
0.0
 20
0.0
 30
0.0
  9
$PUCSORGFRONT
 10
0.0
 20
0.0
 30
0.0
  9
$PUCSORGBACK
 10
0.0
 20
0.0
 30
0.0
  9
$USERI1
 70
     0
  9
$USERI2
 70
     0
  9
$USERI3
 70
     0
  9
$USERI4
 70
     0
  9
$USERI5
 70
     0
  9
$USERR1
 40
0.0
  9
$USERR2
 40
0.0
  9
$USERR3
 40
0.0
  9
$USERR4
 40
0.0
  9
$USERR5
 40
0.0
  9
$WORLDVIEW
 70
     1
  9
$SHADEDGE
 70
     3
  9
$SHADEDIF
 70
    70
  9
$TILEMODE
 70
     1
  9
$MAXACTVP
 70
    64
  9
$PINSBASE
 10
0.0
 20
0.0
 30
0.0
  9
$PLIMCHECK
 70
     0
  9
$PEXTMIN
 10
1.000000000000000E+20
 20
1.000000000000000E+20
 30
1.000000000000000E+20
  9
$PEXTMAX
 10
-1.000000000000000E+20
 20
-1.000000000000000E+20
 30
-1.000000000000000E+20
  9
$PLIMMIN
 10
0.0
 20
0.0
  9
$PLIMMAX
 10
12.0
 20
9.0
  9
$UNITMODE
 70
     0
  9
$VISRETAIN
 70
     1
  9
$PLINEGEN
 70
     0
  9
$PSLTSCALE
 70
     1
  9
$TREEDEPTH
 70
  3020
  9
$CMLSTYLE
  2
Standard
  9
$CMLJUST
 70
     0
  9
$CMLSCALE
 40
1.0
  9
$PROXYGRAPHICS
 70
     1
  9
$MEASUREMENT
 70
     0
  9
$CELWEIGHT
370
    -1
  9
$ENDCAPS
280
     0
  9
$JOINSTYLE
280
     0
  9
$LWDISPLAY
290
     1
  9
$INSUNITS
 70
     1
  9
$HYPERLINKBASE
  1

  9
$STYLESHEET
  1

  9
$XEDIT
290
     1
  9
$CEPSNTYPE
380
     0
  9
$PSTYLEMODE
290
     1
  9
$FINGERPRINTGUID
  2
{056C501F-B9AC-4EC9-A1BB-92CC6D9EE36E}
  9
$VERSIONGUID
  2
{FAEB1C32-E019-11D5-929B-00C0DF256EC4}
  9
$EXTNAMES
290
     1
  9
$PSVPSCALE
 40
0.0
  9
$OLESTARTUP
290
     0
  9
$SORTENTS
280
   127
  9
$INDEXCTL
280
     0
  9
$HIDETEXT
280
     1
  9
$XCLIPFRAME
280
     2
  9
$HALOGAP
280
     0
  9
$OBSCOLOR
 70
   257
  9
$OBSLTYPE
280
     0
  9
$INTERSECTIONDISPLAY
280
     0
  9
$INTERSECTIONCOLOR
 70
   257
  9
$DIMASSOC
280
     2
  9
$PROJECTNAME
  1

  9
$CAMERADISPLAY
290
     0
  9
$LENSLENGTH
 40
50.0
  9
$CAMERAHEIGHT
 40
0.0
  9
$STEPSPERSEC
 40
2.0
  9
$STEPSIZE
 40
6.0
  9
$3DDWFPREC
 40
2.0
  9
$PSOLWIDTH
 40
0.25
  9
$PSOLHEIGHT
 40
4.0
  9
$LOFTANG1
 40
1.570796326794897
  9
$LOFTANG2
 40
1.570796326794897
  9
$LOFTMAG1
 40
0.0
  9
$LOFTMAG2
 40
0.0
  9
$LOFTPARAM
 70
     7
  9
$LOFTNORMALS
280
     1
  9
$LATITUDE
 40
37.795
  9
$LONGITUDE
 40
-122.394
  9
$NORTHDIRECTION
 40
0.0
  9
$TIMEZONE
 70
 -8000
  9
$LIGHTGLYPHDISPLAY
280
     1
  9
$TILEMODELIGHTSYNCH
280
     1
  9
$CMATERIAL
347
3C
  9
$SOLIDHIST
280
     1
  9
$SHOWHIST
280
     1
  9
$DWFFRAME
280
     2
  9
$DGNFRAME
280
     2
  9
$REALWORLDSCALE
290
     1
  9
$INTERFERECOLOR
 62
   256
  9
$CSHADOW
280
     0
  9
$SHADOWPLANELOCATION
 40
0.0
  0
ENDSEC
  0
SECTION
  2
CLASSES
  0
CLASS
  1
ACDBDICTIONARYWDFLT
  2
AcDbDictionaryWithDefault
  3
ObjectDBX Classes
 90
        0
 91
        4
280
     0
281
     0
  0
CLASS
  1
VISUALSTYLE
  2
AcDbVisualStyle
  3
ObjectDBX Classes
 90
     4095
 91
        4
280
     0
281
     0
  0
CLASS
  1
MATERIAL
  2
AcDbMaterial
  3
ObjectDBX Classes
 90
     1153
 91
        4
280
     0
281
     0
  0
CLASS
  1
SUN
  2
AcDbSun
  3
SCENEOE
 90
     1024
 91
        4
280
     0
281
     0
  0
ENDSEC
  0
SECTION
  2
TABLES
  0
TABLE
  2
VPORT
  5
8
330
0
100
AcDbSymbolTable
 70
     1
  0
VPORT
  5
29
330
8
100
AcDbSymbolTableRecord
100
AcDbViewportTableRecord
  2
*Active
 70
     0
 10
0.0
 20
0.0
 11
1.0
 21
1.0
 12
0.0
 22
0.0
 13
0.0
 23
0.0
 14
0.5
 24
0.5
 15
0.5
 25
0.5
 16
0.0
 26
0.0
 36
1.0
 17
1000.0
 27
-1000.0
 37
0.0
 40
2000.0
 41
1.0
 42
50.0
 43
0.0
 44
0.0
 50
0.0
 51
0.0
 71
     0
 72
   100
 73
     1
 74
     3
 75
     0
 76
     0
 77
     0
 78
     0
281
     0
 65
     1
110
0.0
120
0.0
130
0.0
111
1.0
121
0.0
131
0.0
112
0.0
122
1.0
132
0.0
 79
     0
146
0.0
 60
     3
 61
     5
292
     1
282
     1
141
0.0
142
0.0
 63
   250
361
3F
  0
ENDTAB
  0
TABLE
  2
LTYPE
  5
5
330
0
100
AcDbSymbolTable
 70
     1
  0
LTYPE
  5
14
330
5
100
AcDbSymbolTableRecord
100
AcDbLinetypeTableRecord
  2
ByBlock
 70
     0
  3

 72
    65
 73
     0
 40
0.0
  0
LTYPE
  5
15
330
5
100
AcDbSymbolTableRecord
100
AcDbLinetypeTableRecord
  2
ByLayer
 70
     0
  3

 72
    65
 73
     0
 40
0.0
  0
LTYPE
  5
16
330
5
100
AcDbSymbolTableRecord
100
AcDbLinetypeTableRecord
  2
Continuous
 70
     0
  3
Solid line
 72
    65
 73
     0
 40
0.0
  0
ENDTAB
  0
TABLE
  2
LAYER
  5
2
330
0
100
AcDbSymbolTable
 70
     2
  0
LAYER
  5
10
330
2
100
AcDbSymbolTableRecord
100
AcDbLayerTableRecord
  2
0
 70
     0
 62
     7
  6
Continuous
370
    -3
390
F
347
3E
  0
LAYER
  5
40
330
2
100
AcDbSymbolTableRecord
100
AcDbLayerTableRecord
  2
Layer 1
 70
     0
 62
     7
  6
Continuous
370
    -3
390
F
347
3E
  0
ENDTAB
  0
TABLE
  2
STYLE
  5
3
330
0
100
AcDbSymbolTable
 70
     1
  0
STYLE
  5
11
330
3
100
AcDbSymbolTableRecord
100
AcDbTextStyleTableRecord
  2
Standard
 70
     0
 40
0.0
 41
1.0
 50
0.0
 71
     0
 42
0.2
  3
txt
  4

  0
ENDTAB
  0
TABLE
  2
VIEW
  5
6
330
0
100
AcDbSymbolTable
 70
     0
  0
ENDTAB
  0
TABLE
  2
UCS
  5
7
330
0
100
AcDbSymbolTable
 70
     0
  0
ENDTAB
  0
TABLE
  2
APPID
  5
9
330
0
100
AcDbSymbolTable
 70
     1
  0
APPID
  5
12
330
9
100
AcDbSymbolTableRecord
100
AcDbRegAppTableRecord
  2
ACAD
 70
     0
  0
ENDTAB
  0
TABLE
  2
DIMSTYLE
  5
A
330
0
100
AcDbSymbolTable
 70
     1
100
AcDbDimStyleTable
  0
DIMSTYLE
105
27
330
A
100
AcDbSymbolTableRecord
100
AcDbDimStyleTableRecord
  2
Standard
 70
     0
178
     0
340
11
  0
ENDTAB
  0
TABLE
  2
BLOCK_RECORD
  5
1
330
0
100
AcDbSymbolTable
 70
     2
  0
BLOCK_RECORD
  5
1F
330
1
100
AcDbSymbolTableRecord
100
AcDbBlockTableRecord
  2
*Model_Space
340
22
 70
     0
280
     1
281
     0
  0
BLOCK_RECORD
  5
1B
330
1
100
AcDbSymbolTableRecord
100
AcDbBlockTableRecord
  2
*Paper_Space
340
1E
 70
     0
280
     1
281
     0
  0
BLOCK_RECORD
  5
23
330
1
100
AcDbSymbolTableRecord
100
AcDbBlockTableRecord
  2
*Paper_Space0
340
26
 70
     0
280
     1
281
     0
  0
BLOCK_RECORD
  5
41
330
1
100
AcDbSymbolTableRecord
100
AcDbBlockTableRecord
  2
block 2
340
0
102
{BLKREFS
331
42
102
}
 70
     0
280
     1
281
     0
  0
ENDTAB
  0
ENDSEC
  0
SECTION
  2
BLOCKS
  0
BLOCK
  5
20
330
1F
100
AcDbEntity
  8
0
100
AcDbBlockBegin
  2
*Model_Space
 70
     0
 10
0.0
 20
0.0
 30
0.0
  3
*Model_Space
  1

  0
ENDBLK
  5
21
330
1F
100
AcDbEntity
  8
0
100
AcDbBlockEnd
  0
BLOCK
  5
1C
330
1B
100
AcDbEntity
 67
     1
  8
0
100
AcDbBlockBegin
  2
*Paper_Space
 70
     0
 10
0.0
 20
0.0
 30
0.0
  3
*Paper_Space
  1

  0
ENDBLK
  5
1D
330
1B
100
AcDbEntity
 67
     1
  8
0
100
AcDbBlockEnd
  0
BLOCK
  5
24
330
23
100
AcDbEntity
  8
0
100
AcDbBlockBegin
  2
*Paper_Space0
 70
     0
 10
0.0
 20
0.0
 30
0.0
  3
*Paper_Space0
  1

  0
ENDBLK
  5
25
330
23
100
AcDbEntity
  8
0
100
AcDbBlockEnd
  0
BLOCK
  5
43
330
41
100
AcDbEntity
  8
0
100
AcDbBlockBegin
  2
block 2
 70
     0
 10
0.0
 20
0.0
 30
0.0
  3
block 2
  1

  0
SPLINE
  5
45
330
41
100
AcDbEntity
  8
Layer 1
370
     0
100
AcDbSpline
210
0.0
220
0.0
230
1.0
 70
    11
 71
     3
 72
    11
 73
     7
 74
     0
 42
0.0000000001
 43
0.0000000001
 12
1.0
 22
0.0
 32
0.0
 13
1.0
 23
0.0
 33
0.0
 40
0.0
 40
0.0
 40
0.0
 40
0.0
 40
1.0
 40
1.0
 40
1.0
 40
2.0
 40
2.0
 40
2.0
 40
2.0
 10
398.1183272681465
 20
-1050.198481907702
 30
0.0
 10
397.6182930432133
 20
-1050.198481907702
 30
0.0
 10
397.6173442117379
 20
-1050.975574944105
 30
0.0
 10
398.1183272681465
 20
-1050.975574944105
 30
0.0
 10
398.6188359087591
 20
-1050.975574944105
 30
0.0
 10
398.619310324555
 20
-1050.198481907702
 30
0.0
 10
398.1183272681465
 20
-1050.198481907702
 30
0.0
  0
HATCH
  5
46
330
41
100
AcDbEntity
  8
Layer 1
 62
     7
420
 16777215
100
AcDbHatch
 10
0.0
 20
0.0
 30
0.0
210
0.0
220
0.0
230
1.0
  2
SOLID
 70
     1
 71
     0
 91
        1
 92
        1
 93
        1
 72
     4
 94
        3
 73
     0
 74
     1
 95
       11
 96
        7
 40
0.0
 40
0.0
 40
0.0
 40
0.0
 40
1.0
 40
1.0
 40
1.0
 40
2.0
 40
2.0
 40
2.0
 40
2.0
 10
398.1183272681465
 20
-1050.198481907702
 10
397.6182930432133
 20
-1050.198481907702
 10
397.6173442117379
 20
-1050.975574944105
 10
398.1183272681465
 20
-1050.975574944105
 10
398.6188359087591
 20
-1050.975574944105
 10
398.619310324555
 20
-1050.198481907702
 10
398.1183272681465
 20
-1050.198481907702
 97
        0
 97
        0
 75
     2
 76
     1
 98
        0
  0
SPLINE
  5
47
330
41
100
AcDbEntity
  8
Layer 1
370
     0
100
AcDbSpline
210
0.0
220
0.0
230
1.0
 70
    11
 71
     3
 72
   260
 73
   256
 74
     0
 42
0.0000000001
 43
0.0000000001
 12
1.0
 22
0.0
 32
0.0
 13
1.0
 23
0.0
 33
0.0
 40
0.0
 40
0.0
 40
0.0
 40
0.0
 40
1.0
 40
1.0
 40
1.0
 40
2.0
 40
2.0
 40
2.0
 40
3.0
 40
3.0
 40
3.0
 40
4.0
 40
4.0
 40
4.0
 40
5.0
 40
5.0
 40
5.0
 40
6.0
 40
6.0
 40
6.0
 40
7.0
 40
7.0
 40
7.0
 40
8.0
 40
8.0
 40
8.0
 40
9.0
 40
9.0
 40
9.0
 40
10.0
 40
10.0
 40
10.0
 40
11.0
 40
11.0
 40
11.0
 40
12.0
 40
12.0
 40
12.0
 40
13.0
 40
13.0
 40
13.0
 40
14.0
 40
14.0
 40
14.0
 40
15.0
 40
15.0
 40
15.0
 40
16.0
 40
16.0
 40
16.0
 40
17.0
 40
17.0
 40
17.0
 40
18.0
 40
18.0
 40
18.0
 40
19.0
 40
19.0
 40
19.0
 40
20.0
 40
20.0
 40
20.0
 40
21.0
 40
21.0
 40
21.0
 40
22.0
 40
22.0
 40
22.0
 40
23.0
 40
23.0
 40
23.0
 40
24.0
 40
24.0
 40
24.0
 40
25.0
 40
25.0
 40
25.0
 40
26.0
 40
26.0
 40
26.0
 40
27.0
 40
27.0
 40
27.0
 40
28.0
 40
28.0
 40
28.0
 40
29.0
 40
29.0
 40
29.0
 40
30.0
 40
30.0
 40
30.0
 40
31.0
 40
31.0
 40
31.0
 40
32.0
 40
32.0
 40
32.0
 40
33.0
 40
33.0
 40
33.0
 40
34.0
 40
34.0
 40
34.0
 40
35.0
 40
35.0
 40
35.0
 40
36.0
 40
36.0
 40
36.0
 40
37.0
 40
37.0
 40
37.0
 40
38.0
 40
38.0
 40
38.0
 40
39.0
 40
39.0
 40
39.0
 40
40.0
 40
40.0
 40
40.0
 40
41.0
 40
41.0
 40
41.0
 40
42.0
 40
42.0
 40
42.0
 40
43.0
 40
43.0
 40
43.0
 40
44.0
 40
44.0
 40
44.0
 40
45.0
 40
45.0
 40
45.0
 40
46.0
 40
46.0
 40
46.0
 40
47.0
 40
47.0
 40
47.0
 40
48.0
 40
48.0
 40
48.0
 40
49.0
 40
49.0
 40
49.0
 40
50.0
 40
50.0
 40
50.0
 40
51.0
 40
51.0
 40
51.0
 40
52.0
 40
52.0
 40
52.0
 40
53.0
 40
53.0
 40
53.0
 40
54.0
 40
54.0
 40
54.0
 40
55.0
 40
55.0
 40
55.0
 40
56.0
 40
56.0
 40
56.0
 40
57.0
 40
57.0
 40
57.0
 40
58.0
 40
58.0
 40
58.0
 40
59.0
 40
59.0
 40
59.0
 40
60.0
 40
60.0
 40
60.0
 40
61.0
 40
61.0
 40
61.0
 40
62.0
 40
62.0
 40
62.0
 40
63.0
 40
63.0
 40
63.0
 40
64.0
 40
64.0
 40
64.0
 40
65.0
 40
65.0
 40
65.0
 40
66.0
 40
66.0
 40
66.0
 40
67.0
 40
67.0
 40
67.0
 40
68.0
 40
68.0
 40
68.0
 40
69.0
 40
69.0
 40
69.0
 40
70.0
 40
70.0
 40
70.0
 40
71.0
 40
71.0
 40
71.0
 40
72.0
 40
72.0
 40
72.0
 40
73.0
 40
73.0
 40
73.0
 40
74.0
 40
74.0
 40
74.0
 40
75.0
 40
75.0
 40
75.0
 40
76.0
 40
76.0
 40
76.0
 40
77.0
 40
77.0
 40
77.0
 40
78.0
 40
78.0
 40
78.0
 40
79.0
 40
79.0
 40
79.0
 40
80.0
 40
80.0
 40
80.0
 40
81.0
 40
81.0
 40
81.0
 40
82.0
 40
82.0
 40
82.0
 40
83.0
 40
83.0
 40
83.0
 40
84.0
 40
84.0
 40
84.0
 40
85.0
 40
85.0
 40
85.0
 40
85.0
 10
1957.113552757877
 20
-1327.471729349283
 30
0.0
 10
1952.362278789911
 20
-1328.948111235291
 30
0.0
 10
1947.596772348745
 20
-1330.380846870177
 30
0.0
 10
1942.844549549234
 20
-1331.854382261527
 30
0.0
 10
1941.962136211221
 20
-1331.838252125235
 30
0.0
 10
1941.093480930587
 20
-1331.792708211024
 30
0.0
 10
1940.147021463161
 20
-1331.917953975131
 30
0.0
 10
1920.699295674985
 20
-1334.496878117912
 30
0.0
 10
1904.376072168656
 20
-1340.2031510372
 30
0.0
 10
1887.7373621732
 20
-1348.779639383982
 30
0.0
 10
1807.888917812241
 20
-1373.338246296191
 30
0.0
 10
1727.951757701694
 20
-1397.60935724989
 30
0.0
 10
1647.823882450346
 20
-1421.240955741407
 30
0.0
 10
1575.21170187706
 20
-1442.65608374082
 30
0.0
 10
1501.815786446548
 20
-1464.052235109308
 30
0.0
 10
1427.049283847449
 20
-1476.946855823184
 30
0.0
 10
1437.658643782119
 20
-1448.202952960328
 30
0.0
 10
1447.014597244142
 20
-1418.988429650555
 30
0.0
 10
1455.73008941246
 20
-1389.612604977889
 30
0.0
 10
1514.869810860215
 20
-1389.923821725073
 30
0.0
 10
1574.006211397536
 20
-1387.029885508939
 30
0.0
 10
1632.860334549834
 20
-1381.096841850087
 30
0.0
 10
1648.497552848199
 20
-1379.520832651724
 30
0.0
 10
1658.123448885182
 20
-1369.973689633103
 30
0.0
 10
1659.734564850714
 20
-1354.222137133409
 30
0.0
 10
1667.276826812113
 20
-1280.490335335528
 30
0.0
 10
1667.978487740547
 20
-1206.891369954101
 30
0.0
 10
1659.412436540795
 20
-1133.198470249616
 30
0.0
 10
1651.687998922571
 20
-1066.744206411644
 30
0.0
 10
1644.554683357681
 20
-992.2571347029098
 30
0.0
 10
1620.319153586937
 20
-929.5128022108838
 30
0.0
 10
1599.186777388342
 20
-874.8050729158003
 30
0.0
 10
1551.848622713129
 20
-872.0762333887033
 30
0.0
 10
1500.190912423588
 20
-872.740415471093
 30
0.0
 10
1495.862817325262
 20
-872.7963965323252
 30
0.0
 10
1491.53519664273
 20
-872.8760983822103
 30
0.0
 10
1487.207575960128
 20
-872.9339771065315
 30
0.0
 10
1485.742580052638
 20
-841.0266698684227
 30
0.0
 10
1480.070939484807
 20
-808.7663972950832
 30
0.0
 10
1475.434948549715
 20
-777.2898595789848
 30
0.0
 10
1471.905295197565
 20
-753.326170046279
 30
0.0
 10
1471.985945879016
 20
-706.8172941425419
 30
0.0
 10
1452.990812738401
 20
-688.9621821047567
 30
0.0
 10
1437.315641178184
 20
-674.2277770226592
 30
0.0
 10
1400.035100893521
 20
-679.8809153753609
 30
0.0
 10
1380.690797743788
 20
-679.6721724351883
 30
0.0
 10
1339.704595855193
 20
-679.2300169346145
 30
0.0
 10
1298.718868382324
 20
-681.2889813900274
 30
0.0
 10
1257.864554078571
 20
-684.444795112955
 30
0.0
 10
1238.543971717605
 20
-670.1610850153284
 30
0.0
 10
1221.335488378532
 20
-653.4939100734609
 30
0.0
 10
1200.875359330521
 20
-640.7169444713436
 30
0.0
 10
1180.057046373666
 20
-627.7160546242867
 30
0.0
 10
1156.852896493754
 20
-619.396699626559
 30
0.0
 10
1135.502289039478
 20
-607.3797480929843
 30
0.0
 10
1091.074675132499
 20
-582.3732926909288
 30
0.0
 10
1055.771974206073
 20
-545.6876697857715
 30
0.0
 10
1018.582521749859
 20
-511.5031668366009
 30
0.0
 10
1007.376821188356
 20
-494.9403633648362
 30
0.0
 10
994.4546843596017
 20
-480.3302552152909
 30
0.0
 10
979.3915091467125
 20
-469.0050018789752
 30
0.0
 10
958.3051512781494
 20
-453.1519244038136
 30
0.0
 10
935.0478668316164
 20
-444.0886854737983
 30
0.0
 10
910.6624216765795
 20
-439.2857001865541
 30
0.0
 10
915.1873993207764
 20
-401.3760845867055
 30
0.0
 10
911.5348722833924
 20
-362.5593860286244
 30
0.0
 10
909.8677752566055
 20
-324.5178828438529
 30
0.0
 10
908.5289739448035
 20
-293.9645582222656
 30
0.0
 10
907.5331752369611
 20
-263.2015418289629
 30
0.0
 10
904.027717089235
 20
-232.7782071292095
 30
0.0
 10
916.6282000237716
 20
-237.9531343825965
 30
0.0
 10
926.9557569891676
 20
-218.4992411893327
 30
0.0
 10
914.3381950868643
 20
-213.1070315118541
 30
0.0
 10
909.6950879151827
 20
-211.1239735801446
 30
0.0
 10
905.0201948866697
 20
-209.3648398933528
 30
0.0
 10
900.3320182165717
 20
-207.7062823504584
 30
0.0
 10
899.9956574333355
 20
-207.2223782618639
 30
0.0
 10
899.4107027851142
 20
-207.0449467627041
 30
0.0
 10
898.8247993052773
 20
-207.1787320107287
 30
0.0
 10
806.3023375649864
 20
-175.1366906930489
 30
0.0
 10
705.3874607978423
 20
-203.4384380553165
 30
0.0
 10
609.1944442207641
 20
-200.276931343129
 30
0.0
 10
604.7320894586383
 20
-198.8119354356859
 30
0.0
 10
600.3176506896116
 20
-197.2805213200027
 30
0.0
 10
595.7703755040575
 20
-195.9255898719111
 30
0.0
 10
591.8578686230067
 20
-194.7585270699983
 30
0.0
 10
589.1048338915198
 20
-196.4284705914324
 30
0.0
 10
587.71764217087
 20
-198.9979064187519
 30
0.0
 10
586.4504776407957
 20
-198.8859442962876
 30
0.0
 10
585.1795177845634
 20
-198.8024471202243
 30
0.0
 10
583.9147253333749
 20
-198.6772013561167
 30
0.0
 10
580.1469152631189
 20
-198.3033617268829
 30
0.0
 10
580.2688401168307
 20
-204.0456902449423
 30
0.0
 10
583.9147253333749
 20
-204.506822376432
 30
0.0
 10
584.9546447081357
 20
-204.6377611298103
 30
0.0
 10
585.995987330145
 20
-204.7345419475296
 30
0.0
 10
587.0363811206325
 20
-204.8559923854573
 30
0.0
 10
587.5990382275668
 20
-207.1635507059946
 30
0.0
 10
589.0412621779033
 20
-209.3173983160377
 30
0.0
 10
591.7667807945581
 20
-210.4465078560988
 30
0.0
 10
613.891160374862
 20
-219.6122205931151
 30
0.0
 10
635.2275353559144
 20
-230.2666500262367
 30
0.0
 10
655.9889184199446
 20
-242.1944113944519
 30
0.0
 10
663.7403977371823
 20
-246.6482266726598
 30
0.0
 10
671.5915043668901
 20
-251.1324045603469
 30
0.0
 10
678.9107909148343
 20
-256.2807645304365
 30
0.0
 10
692.5730163496701
 20
-265.8905304310956
 30
0.0
 10
692.3467200258783
 20
-262.0306837008575
 30
0.0
 10
684.8139463799553
 20
-277.7262551393178
 30
0.0
 10
666.747244907363
 20
-315.3692490746598
 30
0.0
 10
631.9673501629059
 20
-349.8810989073172
 30
0.0
 10
602.5953208164319
 20
-378.6819316629262
 30
0.0
 10
597.2723758418533
 20
-383.9024028305157
 30
0.0
 10
598.2596350657204
 20
-393.7550696070393
 30
0.0
 10
605.0039296966424
 20
-397.3758107876274
 30
0.0
 10
640.786264969759
 20
-416.589649599684
 30
0.0
 10
682.7507121826357
 20
-401.5487719281282
 30
0.0
 10
720.4995008353753
 20
-397.1917374676395
 30
0.0
 10
775.567311702288
 20
-390.8345661076055
 30
0.0
 10
830.4757188693857
 20
-393.0984781770094
 30
0.0
 10
885.3656238213543
 20
-400.1862498276878
 30
0.0
 10
885.4121165671359
 20
-400.192891648514
 30
0.0
 10
885.4510186605094
 20
-400.1843521645969
 30
0.0
 10
885.4975114062663
 20
-400.1900451538677
 30
0.0
 10
885.5245531053724
 20
-412.1614527732181
 30
0.0
 10
886.0952752804405
 20
-424.091111804526
 30
0.0
 10
887.3605421474485
 20
-435.9477108067749
 30
0.0
 10
836.6967329025438
 20
-431.1997577492184
 30
0.0
 10
782.6949342778835
 20
-440.8958673205871
 30
0.0
 10
733.8794488851181
 20
-444.6285706236267
 30
0.0
 10
733.848137444129
 20
-444.6314171182748
 30
0.0
 10
733.8277375658618
 20
-444.648496086098
 30
0.0
 10
733.796426124849
 20
-444.6522914122779
 30
0.0
 10
731.0400704829544
 20
-443.2935646380301
 30
0.0
 10
728.1997432491762
 20
-442.0316186814762
 30
0.0
 10
725.2702258500158
 20
-440.8759418581176
 30
0.0
 10
717.3531754278983
 20
-437.7542860708836
 30
0.0
 10
714.1546642854164
 20
-450.3300993852008
 30
0.0
 10
721.7832699174896
 20
-453.5238663699565
 30
0.0
 10
752.088000673939
 20
-466.2097441436472
 30
0.0
 10
771.5537542615184
 20
-492.6584234960392
 30
0.0
 10
783.2300752699857
 20
-524.5752190496241
 30
0.0
 10
632.4522030830931
 20
-615.543494717138
 30
0.0
 10
470.7034661423249
 20
-675.88443690245
 30
0.0
 10
296.9368288364958
 20
-695.0214203592714
 30
0.0
 10
296.0041274264968
 20
-694.8914304374266
 30
0.0
 10
295.0794910847007
 20
-694.7775706518714
 30
0.0
 10
294.1458408431572
 20
-694.6466318984822
 30
0.0
 10
207.6095573283019
 20
-682.4864068014413
 30
0.0
 10
121.3560256142209
 20
-676.694739042965
 30
0.0
 10
51.56661889105999
 20
-737.7672303504678
 30
0.0
 10
45.62551016411089
 20
-742.965878392506
 30
0.0
 10
52.95950360100323
 20
-752.9826930265353
 30
0.0
 10
59.63453352908527
 20
-749.5270485349993
 30
0.0
 10
60.36418498810144
 20
-751.0575138191361
 30
0.0
 10
61.79692062303366
 20
-752.2853018400183
 30
0.0
 10
64.15666467860046
 20
-752.7388433191354
 30
0.0
 10
92.99023212253996
 20
-758.2790707178283
 30
0.0
 10
120.324645723389
 20
-763.5507787889346
 30
0.0
 10
101.9476763351449
 20
-801.8418246703768
 30
0.0
 10
92.75919164106926
 20
-820.9863987795597
 30
0.0
 10
73.81671865118551
 20
-843.2013917724798
 30
0.0
 10
60.71145733408321
 20
-859.2802911556482
 30
0.0
 10
51.8816309644144
 20
-870.1121520879187
 30
0.0
 10
60.16113503721226
 20
-884.5780378424188
 30
0.0
 10
74.03637315418473
 20
-882.1699033779678
 30
0.0
 10
128.9177386222473
 20
-872.6474299795664
 30
0.0
 10
181.77856731252
 20
-858.9576884299095
 30
0.0
 10
237.7510890587801
 20
-855.2382687685149
 30
0.0
 10
271.3762558114468
 20
-853.0037704770439
 30
0.0
 10
305.057403625322
 20
-853.0901141477552
 30
0.0
 10
338.6180498328267
 20
-855.287608008919
 30
0.0
 10
299.9024018344171
 20
-864.3128936770936
 30
0.0
 10
255.5208062573993
 20
-869.1101859750434
 30
0.0
 10
227.1346128875221
 20
-899.4671024665568
 30
0.0
 10
220.1270175025247
 20
-906.9609740190244
 30
0.0
 10
218.1591408755367
 20
-918.4816866538931
 30
0.0
 10
223.515294954288
 20
-927.5174094690647
 30
0.0
 10
225.2227173217898
 20
-930.3971132120114
 30
0.0
 10
226.9301396892915
 20
-933.2777657864917
 30
0.0
 10
228.6375620567933
 20
-936.1584183609848
 30
0.0
 10
230.4977463033392
 20
-939.2962042845102
 30
0.0
 10
232.8769414055578
 20
-941.5762464902164
 30
0.0
 10
235.4995117994513
 20
-943.2518830009321
 30
0.0
 10
232.2639962266858
 20
-1061.489577308372
 30
0.0
 10
214.8538861841116
 20
-1181.391522147975
 30
0.0
 10
200.4468279855137
 20
-1298.58550175452
 30
0.0
 10
199.0866779639
 20
-1309.650775247159
 30
0.0
 10
211.7066119450892
 20
-1321.812898007312
 30
0.0
 10
222.5508076874803
 20
-1320.689481456522
 30
0.0
 10
281.1606067166294
 20
-1314.624550212735
 30
0.0
 10
340.8255064252144
 20
-1307.934338979954
 30
0.0
 10
399.8964375858295
 20
-1298.694617382325
 30
0.0
 10
406.3698408102937
 20
-1329.673018536652
 30
0.0
 10
411.9503935497223
 20
-1360.595438629734
 30
0.0
 10
417.513392905521
 20
-1391.687699569604
 30
0.0
 10
365.3352485127798
 20
-1391.810098839065
 30
0.0
 10
313.3074939201742
 20
-1394.185973030933
 30
0.0
 10
260.4390745775163
 20
-1399.135078376303
 30
0.0
 10
254.5909513420829
 20
-1399.681605346957
 30
0.0
 10
254.4913240297283
 20
-1408.858704062528
 30
0.0
 10
260.4390745775163
 20
-1408.365311658457
 30
0.0
 10
263.2329090655376
 20
-1408.132847929621
 30
0.0
 10
265.9854693812749
 20
-1407.997165018505
 30
0.0
 10
268.7636481488007
 20
-1407.800756888431
 30
0.0
 10
268.5957049650578
 20
-1412.279241786848
 30
0.0
 10
271.3805255533998
 20
-1416.673280677644
 30
0.0
 10
277.3719223523576
 20
-1416.558472060531
 30
0.0
 10
329.6088943009654
 20
-1415.561250105406
 30
0.0
 10
342.5367241189206
 20
-1467.732752677308
 30
0.0
 10
350.8323583280089
 20
-1508.471783948142
 30
0.0
 10
357.5766529589309
 20
-1541.592646733945
 30
0.0
 10
364.6250481004154
 20
-1573.502800466691
 30
0.0
 10
375.7999116366555
 20
-1605.488860723151
 30
0.0
 10
391.311884170902
 20
-1649.886586436423
 30
0.0
 10
411.6306373186198
 20
-1720.712117208084
 30
0.0
 10
450.7229714409095
 20
-1749.974082095183
 30
0.0
 10
467.6387402478922
 20
-1762.636239080175
 30
0.0
 10
488.9670501608334
 20
-1761.294591273763
 30
0.0
 10
509.0713673790278
 20
-1761.319260893983
 30
0.0
 10
545.0059901153227
 20
-1761.362907145127
 30
0.0
 10
580.9444081777747
 20
-1761.084899502081
 30
0.0
 10
616.8776076667054
 20
-1760.786017564958
 30
0.0
 10
691.3129680561606
 20
-1760.168328228325
 30
0.0
 10
765.7435842879358
 20
-1759.028781541279
 30
0.0
 10
840.1628145410768
 20
-1757.372121661499
 30
0.0
 10
988.9979541370212
 20
-1754.060699564961
 30
0.0
 10
1137.785652155615
 20
-1748.662796898225
 30
0.0
 10
1286.469927535651
 20
-1741.194543797521
 30
0.0
 10
1322.358531941985
 20
-1739.391763859607
 30
0.0
 10
1358.240494527385
 20
-1737.469431146796
 30
0.0
 10
1394.116289707836
 20
-1735.424699164596
 30
0.0
 10
1419.178726171158
 20
-1733.996707687482
 30
0.0
 10
1450.126764715948
 20
-1736.711314741391
 30
0.0
 10
1472.997874723125
 20
-1724.135501427016
 30
0.0
 10
1494.172473925526
 20
-1712.492389522686
 30
0.0
 10
1509.130803252539
 20
-1688.327547702205
 30
0.0
 10
1524.757584403931
 20
-1670.68497393076
 30
0.0
 10
1546.295111672853
 20
-1646.367370231304
 30
0.0
 10
1568.538095196343
 20
-1622.669353531548
 30
0.0
 10
1591.441939891851
 20
-1599.634570082639
 30
0.0
 10
1642.738145362351
 20
-1548.046598911698
 30
0.0
 10
1699.497722876269
 20
-1487.270143046637
 30
0.0
 10
1764.019691270241
 20
-1452.366425785389
 30
0.0
 10
1792.448582059651
 20
-1436.987764083373
 30
0.0
 10
1825.160024033314
 20
-1434.313956785974
 30
0.0
 10
1854.103655936628
 20
-1420.146952968549
 30
0.0
 10
1877.902723196032
 20
-1408.498148074937
 30
0.0
 10
1897.382234841087
 20
-1390.40582815058
 30
0.0
 10
1920.752904657333
 20
-1379.288368922878
 30
0.0
 10
1936.309472274246
 20
-1374.484434804088
 30
0.0
 10
1951.897351332242
 20
-1369.778230334574
 30
0.0
 10
1967.444905049522
 20
-1364.946780100941
 30
0.0
 10
1991.25298620863
 20
-1357.549689366191
 30
0.0
 10
1981.092898011111
 20
-1320.01960638486
 30
0.0
 10
1957.113552757877
 20
-1327.471729349283
 30
0.0
  0
SPLINE
  5
48
330
41
100
AcDbEntity
  8
Layer 1
370
     0
100
AcDbSpline
210
0.0
220
0.0
230
1.0
 70
    11
 71
     3
 72
    38
 73
    34
 74
     0
 42
0.0000000001
 43
0.0000000001
 12
1.0
 22
0.0
 32
0.0
 13
1.0
 23
0.0
 33
0.0
 40
0.0
 40
0.0
 40
0.0
 40
0.0
 40
1.0
 40
1.0
 40
1.0
 40
2.0
 40
2.0
 40
2.0
 40
3.0
 40
3.0
 40
3.0
 40
4.0
 40
4.0
 40
4.0
 40
5.0
 40
5.0
 40
5.0
 40
6.0
 40
6.0
 40
6.0
 40
7.0
 40
7.0
 40
7.0
 40
8.0
 40
8.0
 40
8.0
 40
9.0
 40
9.0
 40
9.0
 40
10.0
 40
10.0
 40
10.0
 40
11.0
 40
11.0
 40
11.0
 40
11.0
 10
749.0436746577261
 20
-362.7757196211805
 30
0.0
 10
731.0405448986803
 20
-364.9732134823571
 30
0.0
 10
713.0877032116423
 20
-367.5739607506875
 30
0.0
 10
695.2710188514466
 20
-370.9907031488274
 30
0.0
 10
676.1245470791973
 20
-374.6626812329105
 30
0.0
 10
653.558011998377
 20
-383.9441514185601
 30
0.0
 10
633.2397332664787
 20
-381.6735975283264
 30
0.0
 10
653.6861042571318
 20
-360.97199085172
 30
0.0
 10
673.5024511011006
 20
-339.3936638263349
 30
0.0
 10
691.5928733623678
 20
-316.7279758489331
 30
0.0
 10
700.7709209094473
 20
-305.2290863396374
 30
0.0
 10
722.5347445021143
 20
-283.5663133066428
 30
0.0
 10
720.7590062633162
 20
-266.89439420706
 30
0.0
 10
718.8575478445573
 20
-249.0440263270011
 30
0.0
 10
698.8770531430955
 20
-241.4657087669002
 30
0.0
 10
684.5776873249633
 20
-233.2659065439984
 30
0.0
 10
666.7880446638264
 20
-223.0640697584586
 30
0.0
 10
648.5918276851617
 20
-214.7826680225717
 30
0.0
 10
629.8277350260169
 20
-207.61139919583
 30
0.0
 10
719.8452814842431
 20
-209.2946263589311
 30
0.0
 10
810.3528994359922
 20
-189.5124374506559
 30
0.0
 10
894.8771856569874
 20
-228.4676654144896
 30
0.0
 10
890.9471253923521
 20
-260.2924243080815
 30
0.0
 10
889.9171687488615
 20
-292.526129598109
 30
0.0
 10
888.5152701391926
 20
-324.5178828438529
 30
0.0
 10
888.0546124234988
 20
-335.0261922188383
 30
0.0
 10
887.4426160761714
 20
-345.5942779812376
 30
0.0
 10
886.8842287111902
 20
-356.1813403745618
 30
0.0
 10
886.3637946080371
 20
-356.1338987972595
 30
0.0
 10
885.9074066343192
 20
-355.9953693915086
 30
0.0
 10
885.3656238213543
 20
-355.9782904236727
 30
0.0
 10
839.6343153698135
 20
-354.5844568821831
 30
0.0
 10
794.448110641576
 20
-357.2345433909322
 30
0.0
 10
749.0436746577261
 20
-362.7757196211805
 30
0.0
  0
SPLINE
  5
49
330
41
100
AcDbEntity
  8
Layer 1
370
     0
100
AcDbSpline
210
0.0
220
0.0
230
1.0
 70
    11
 71
     3
 72
    41
 73
    37
 74
     0
 42
0.0000000001
 43
0.0000000001
 12
1.0
 22
0.0
 32
0.0
 13
1.0
 23
0.0
 33
0.0
 40
0.0
 40
0.0
 40
0.0
 40
0.0
 40
1.0
 40
1.0
 40
1.0
 40
2.0
 40
2.0
 40
2.0
 40
3.0
 40
3.0
 40
3.0
 40
4.0
 40
4.0
 40
4.0
 40
5.0
 40
5.0
 40
5.0
 40
6.0
 40
6.0
 40
6.0
 40
7.0
 40
7.0
 40
7.0
 40
8.0
 40
8.0
 40
8.0
 40
9.0
 40
9.0
 40
9.0
 40
10.0
 40
10.0
 40
10.0
 40
11.0
 40
11.0
 40
11.0
 40
12.0
 40
12.0
 40
12.0
 40
12.0
 10
1341.421980953965
 20
-1487.503555607029
 30
0.0
 10
1312.73975214159
 20
-1489.461943918543
 30
0.0
 10
1263.390549004085
 20
-1478.85780255737
 30
0.0
 10
1239.621369938399
 20
-1499.620134452947
 30
0.0
 10
1235.680872526696
 20
-1503.062495302829
 30
0.0
 10
1234.201169730259
 20
-1507.981238038717
 30
0.0
 10
1230.673888456993
 20
-1511.551691147355
 30
0.0
 10
1216.889263752721
 20
-1525.506156698404
 30
0.0
 10
1206.313587337972
 20
-1528.853634393668
 30
0.0
 10
1187.065116174483
 20
-1531.491386092306
 30
0.0
 10
1171.66225926802
 20
-1533.603485114316
 30
0.0
 10
1155.132190484619
 20
-1533.241031463636
 30
0.0
 10
1138.809915809788
 20
-1532.724867102459
 30
0.0
 10
1162.484211720917
 20
-1515.810995958567
 30
0.0
 10
1184.579651938977
 20
-1497.081061235118
 30
0.0
 10
1203.516431939544
 20
-1474.451428856477
 30
0.0
 10
1213.722538467047
 20
-1462.255148160664
 30
0.0
 10
1222.445621287727
 20
-1449.062594341258
 30
0.0
 10
1230.238374777269
 20
-1435.213449091847
 30
0.0
 10
1237.684804752424
 20
-1421.979146684398
 30
0.0
 10
1251.009720572547
 20
-1381.963125051834
 30
0.0
 10
1266.953411460361
 20
-1373.774708807485
 30
0.0
 10
1271.935251494095
 20
-1376.177150282652
 30
0.0
 10
1277.554706326851
 20
-1377.877456413577
 30
0.0
 10
1283.725906703819
 20
-1379.17545796888
 30
0.0
 10
1319.005361257437
 20
-1386.599115986926
 30
0.0
 10
1357.879464124069
 20
-1386.545032588785
 30
0.0
 10
1393.810291534137
 20
-1388.117246460966
 30
0.0
 10
1407.009012758575
 20
-1388.694136041102
 30
0.0
 10
1420.212952556532
 20
-1389.047101376307
 30
0.0
 10
1433.417841186083
 20
-1389.29854173608
 30
0.0
 10
1422.658565867096
 20
-1419.410659688647
 30
0.0
 10
1412.651713964304
 20
-1449.816915420553
 30
0.0
 10
1404.13357875765
 20
-1480.626424559627
 30
0.0
 10
1383.342781915628
 20
-1483.690201622549
 30
0.0
 10
1362.446664772071
 20
-1486.067024645963
 30
0.0
 10
1341.421980953965
 20
-1487.503555607029
 30
0.0
  0
SPLINE
  5
4A
330
41
100
AcDbEntity
  8
Layer 1
370
     0
100
AcDbSpline
210
0.0
220
0.0
230
1.0
 70
    11
 71
     3
 72
    29
 73
    25
 74
     0
 42
0.0000000001
 43
0.0000000001
 12
1.0
 22
0.0
 32
0.0
 13
1.0
 23
0.0
 33
0.0
 40
0.0
 40
0.0
 40
0.0
 40
0.0
 40
1.0
 40
1.0
 40
1.0
 40
2.0
 40
2.0
 40
2.0
 40
3.0
 40
3.0
 40
3.0
 40
4.0
 40
4.0
 40
4.0
 40
5.0
 40
5.0
 40
5.0
 40
6.0
 40
6.0
 40
6.0
 40
7.0
 40
7.0
 40
7.0
 40
8.0
 40
8.0
 40
8.0
 40
8.0
 10
802.8799021775294
 20
-1534.681357750882
 30
0.0
 10
802.0435071695001
 20
-1524.237568921024
 30
0.0
 10
801.2075865772431
 20
-1513.792831259654
 30
0.0
 10
800.3711915692147
 20
-1503.349042429805
 30
0.0
 10
799.7530278167733
 20
-1495.627451306216
 30
0.0
 10
795.3101241013701
 20
-1488.262620844049
 30
0.0
 10
787.3532227543337
 20
-1486.250149134405
 30
0.0
 10
767.7551071660464
 20
-1481.294401968196
 30
0.0
 10
747.9577369530034
 20
-1477.315951294679
 30
0.0
 10
728.0128234345766
 20
-1474.407782605344
 30
0.0
 10
749.9123299383127
 20
-1458.359245831665
 30
0.0
 10
771.3421648266758
 20
-1441.680684911244
 30
0.0
 10
793.1126302401817
 20
-1425.377861283157
 30
0.0
 10
799.5689544967863
 20
-1420.542615723356
 30
0.0
 10
807.8902071576395
 20
-1415.772839540225
 30
0.0
 10
816.3855704072093
 20
-1410.674767642085
 30
0.0
 10
846.1859971968424
 20
-1419.623197955012
 30
0.0
 10
876.2487759090054
 20
-1427.846720966565
 30
0.0
 10
906.5250417190782
 20
-1435.22673273349
 30
0.0
 10
881.6096741454357
 20
-1465.500152048928
 30
0.0
 10
860.9588299565985
 20
-1501.490281430659
 30
0.0
 10
839.7666773705214
 20
-1534.374885161435
 30
0.0
 10
827.4707693623423
 20
-1534.47641013688
 30
0.0
 10
815.1758101857085
 20
-1534.57888394387
 30
0.0
 10
802.8799021775294
 20
-1534.681357750882
 30
0.0
  0
SPLINE
  5
4B
330
41
100
AcDbEntity
  8
Layer 1
370
     0
100
AcDbSpline
210
0.0
220
0.0
230
1.0
 70
    11
 71
     3
 72
   119
 73
   115
 74
     0
 42
0.0000000001
 43
0.0000000001
 12
1.0
 22
0.0
 32
0.0
 13
1.0
 23
0.0
 33
0.0
 40
0.0
 40
0.0
 40
0.0
 40
0.0
 40
1.0
 40
1.0
 40
1.0
 40
2.0
 40
2.0
 40
2.0
 40
3.0
 40
3.0
 40
3.0
 40
4.0
 40
4.0
 40
4.0
 40
5.0
 40
5.0
 40
5.0
 40
6.0
 40
6.0
 40
6.0
 40
7.0
 40
7.0
 40
7.0
 40
8.0
 40
8.0
 40
8.0
 40
9.0
 40
9.0
 40
9.0
 40
10.0
 40
10.0
 40
10.0
 40
11.0
 40
11.0
 40
11.0
 40
12.0
 40
12.0
 40
12.0
 40
13.0
 40
13.0
 40
13.0
 40
14.0
 40
14.0
 40
14.0
 40
15.0
 40
15.0
 40
15.0
 40
16.0
 40
16.0
 40
16.0
 40
17.0
 40
17.0
 40
17.0
 40
18.0
 40
18.0
 40
18.0
 40
19.0
 40
19.0
 40
19.0
 40
20.0
 40
20.0
 40
20.0
 40
21.0
 40
21.0
 40
21.0
 40
22.0
 40
22.0
 40
22.0
 40
23.0
 40
23.0
 40
23.0
 40
24.0
 40
24.0
 40
24.0
 40
25.0
 40
25.0
 40
25.0
 40
26.0
 40
26.0
 40
26.0
 40
27.0
 40
27.0
 40
27.0
 40
28.0
 40
28.0
 40
28.0
 40
29.0
 40
29.0
 40
29.0
 40
30.0
 40
30.0
 40
30.0
 40
31.0
 40
31.0
 40
31.0
 40
32.0
 40
32.0
 40
32.0
 40
33.0
 40
33.0
 40
33.0
 40
34.0
 40
34.0
 40
34.0
 40
35.0
 40
35.0
 40
35.0
 40
36.0
 40
36.0
 40
36.0
 40
37.0
 40
37.0
 40
37.0
 40
38.0
 40
38.0
 40
38.0
 40
38.0
 10
657.8547956556458
 20
-841.3625562358047
 30
0.0
 10
672.5303731819095
 20
-842.4242987360794
 30
0.0
 10
687.1366860052622
 20
-844.7460895298191
 30
0.0
 10
702.0722433751462
 20
-844.4158961517187
 30
0.0
 10
724.209432181262
 20
-843.9262990738407
 30
0.0
 10
746.453838952164
 20
-841.3426307733334
 30
0.0
 10
768.4790656358382
 20
-839.2390712352408
 30
0.0
 10
809.8689953474204
 20
-835.2862390134651
 30
0.0
 10
851.142693194538
 20
-830.2688177967648
 30
0.0
 10
892.3139172347355
 20
-824.4771500383013
 30
0.0
 10
971.7344385682845
 20
-813.3046585809352
 30
0.0
 10
1051.2080944685
 20
-802.1995341633319
 30
0.0
 10
1129.327293336351
 20
-783.9829173064009
 30
0.0
 10
1171.263275602851
 20
-905.514954742508
 30
0.0
 10
1173.484015836848
 20
-1034.20307970061
 30
0.0
 10
1148.995622459071
 20
-1160.53240943468
 30
0.0
 10
1137.822182170174
 20
-1218.173925870853
 30
0.0
 10
1125.27388497064
 20
-1281.144080270898
 30
0.0
 10
1097.394367646488
 20
-1333.47024238483
 30
0.0
 10
1093.380810205788
 20
-1341.002067199161
 30
0.0
 10
1088.573555176568
 20
-1349.356528964117
 30
0.0
 10
1083.045188172191
 20
-1357.516480262066
 30
0.0
 10
1130.675108547808
 20
-1224.236959451537
 30
0.0
 10
1126.521598453994
 20
-1078.460378345029
 30
0.0
 10
1123.15609295936
 20
-938.2040991747435
 30
0.0
 10
1122.968698728964
 20
-930.3952155489096
 30
0.0
 10
1111.155745977883
 20
-930.372443591803
 30
0.0
 10
1111.011049167089
 20
-938.2040991747435
 30
0.0
 10
1108.522264021176
 20
-1072.924895104064
 30
0.0
 10
1090.169964253151
 20
-1205.605703208897
 30
0.0
 10
1033.480125857892
 20
-1326.939434851829
 30
0.0
 10
1064.817185336717
 20
-1220.640887891159
 30
0.0
 10
1073.375171468335
 20
-1105.553314317354
 30
0.0
 10
1068.68462271928
 20
-997.0107807497498
 30
0.0
 10
1068.348736351934
 20
-989.2351062280304
 30
0.0
 10
1056.318975592512
 20
-989.1639438620532
 30
0.0
 10
1056.53957892701
 20
-997.0107807497498
 30
0.0
 10
1058.588580651176
 20
-1069.843090241771
 30
0.0
 10
1051.052960510688
 20
-1136.898913280074
 30
0.0
 10
1028.587950405265
 20
-1206.323019857884
 30
0.0
 10
1021.435658209519
 20
-1228.425101896795
 30
0.0
 10
1013.258153527915
 20
-1249.642872934579
 30
0.0
 10
1004.361908950041
 20
-1270.402358335532
 30
0.0
 10
1006.239646580103
 20
-1257.63393221731
 30
0.0
 10
1008.003998840451
 20
-1244.986956537015
 30
0.0
 10
1009.770248763798
 20
-1232.735643611526
 30
0.0
 10
1018.345313863274
 20
-1173.24864981785
 30
0.0
 10
1015.513051697606
 20
-1113.830920727049
 30
0.0
 10
1013.873470785675
 20
-1053.944468852409
 30
0.0
 10
1013.821759466418
 20
-1052.050601086023
 30
0.0
 10
1011.10051059167
 20
-1052.088554347885
 30
0.0
 10
1010.958660275488
 20
-1053.944468852409
 30
0.0
 10
1006.369162086199
 20
-1114.022584699398
 30
0.0
 10
991.2352989231267
 20
-1172.568337599168
 30
0.0
 10
976.1341704484093
 20
-1230.728864891154
 30
0.0
 10
970.5104458736068
 20
-1252.389740261046
 30
0.0
 10
962.8704542629912
 20
-1273.204257891686
 30
0.0
 10
954.7337493379446
 20
-1293.785362961911
 30
0.0
 10
959.4446979651957
 20
-1242.34256301755
 30
0.0
 10
955.9017609714374
 20
-1188.80758951365
 30
0.0
 10
946.2739672713396
 20
-1142.049170913253
 30
0.0
 10
945.3502797610663
 20
-1137.561197699386
 30
0.0
 10
937.6552559207639
 20
-1138.484410793899
 30
0.0
 10
938.1628807980351
 20
-1143.14696901229
 30
0.0
 10
942.6404168649287
 20
-1184.272174722468
 30
0.0
 10
939.2829764384287
 20
-1225.247465048329
 30
0.0
 10
927.2242763168333
 20
-1264.977888385472
 30
0.0
 10
916.3340622444102
 20
-1300.858902139387
 30
0.0
 10
899.0790861596506
 20
-1335.100334981345
 30
0.0
 10
891.2056819886784
 20
-1371.809678675143
 30
0.0
 10
891.158714827171
 20
-1372.028858762334
 30
0.0
 10
891.1705752214621
 20
-1372.224318060864
 30
0.0
 10
891.1288266334532
 20
-1372.441600484965
 30
0.0
 10
889.7364163392358
 20
-1372.095276970564
 30
0.0
 10
888.3539687763587
 20
-1371.708153699687
 30
0.0
 10
886.9625073137559
 20
-1371.358983690674
 30
0.0
 10
897.2540086803901
 20
-1311.844473782154
 30
0.0
 10
907.3913249207781
 20
-1251.221728627588
 30
0.0
 10
887.3999186565707
 20
-1192.813556302035
 30
0.0
 10
884.0865988970127
 20
-1183.133576866932
 30
0.0
 10
869.3265753631395
 20
-1186.984884113264
 30
0.0
 10
871.9410806889218
 20
-1197.074758776349
 30
0.0
 10
885.68395680514
 20
-1250.113493381543
 30
0.0
 10
862.9769946554779
 20
-1297.492447813209
 30
0.0
 10
844.3220176241857
 20
-1345.78987118166
 30
0.0
 10
846.0749839059235
 20
-1319.531906970071
 30
0.0
 10
838.8724036381236
 20
-1288.474752797418
 30
0.0
 10
837.1920229697271
 20
-1268.259896704032
 30
0.0
 10
836.4509855321003
 20
-1259.347521989877
 30
0.0
 10
822.6862862902271
 20
-1259.104621114035
 30
0.0
 10
823.1037721706416
 20
-1268.259896704032
 30
0.0
 10
824.1028917888461
 20
-1290.178854254513
 30
0.0
 10
819.2723903867691
 20
-1309.472394916465
 30
0.0
 10
810.0592360724504
 20
-1329.350415810914
 30
0.0
 10
806.7554046282967
 20
-1336.47803838652
 30
0.0
 10
803.4909496933114
 20
-1342.397798403728
 30
0.0
 10
800.9798670061336
 20
-1348.296684126919
 30
0.0
 10
781.7261772691227
 20
-1342.867470019135
 30
0.0
 10
762.4985803996724
 20
-1337.360451724559
 30
0.0
 10
743.3098856235492
 20
-1331.778475737823
 30
0.0
 10
727.378529545892
 20
-1327.145331297377
 30
0.0
 10
700.8425576912441
 20
-1324.630927699745
 30
0.0
 10
687.0218773881388
 20
-1315.96430035607
 30
0.0
 10
683.7963245466208
 20
-1316.781244317412
 30
0.0
 10
680.5707717050327
 20
-1317.598188278766
 30
0.0
 10
677.3452188635147
 20
-1318.414183408551
 30
0.0
 10
677.3058423543225
 20
-1308.443861520303
 30
0.0
 10
677.5458967355416
 20
-1298.481130284415
 30
0.0
 10
678.0658564228752
 20
-1288.524092037811
 30
0.0
 10
679.4241087813989
 20
-1253.70197428955
 30
0.0
 10
682.271077835946
 20
-1218.911167982311
 30
0.0
 10
685.4311613008513
 20
-1184.2133471666
 30
0.0
 10
696.0191725257328
 20
-1067.955864296224
 30
0.0
 10
705.0567930039706
 20
-949.4477529980977
 30
0.0
 10
657.8547956556458
 20
-841.3625562358047
 30
0.0
  0
SPLINE
  5
4C
330
41
100
AcDbEntity
  8
Layer 1
370
     0
100
AcDbSpline
210
0.0
220
0.0
230
1.0
 70
    11
 71
     3
 72
    50
 73
    46
 74
     0
 42
0.0000000001
 43
0.0000000001
 12
1.0
 22
0.0
 32
0.0
 13
1.0
 23
0.0
 33
0.0
 40
0.0
 40
0.0
 40
0.0
 40
0.0
 40
1.0
 40
1.0
 40
1.0
 40
2.0
 40
2.0
 40
2.0
 40
3.0
 40
3.0
 40
3.0
 40
4.0
 40
4.0
 40
4.0
 40
5.0
 40
5.0
 40
5.0
 40
6.0
 40
6.0
 40
6.0
 40
7.0
 40
7.0
 40
7.0
 40
8.0
 40
8.0
 40
8.0
 40
9.0
 40
9.0
 40
9.0
 40
10.0
 40
10.0
 40
10.0
 40
11.0
 40
11.0
 40
11.0
 40
12.0
 40
12.0
 40
12.0
 40
13.0
 40
13.0
 40
13.0
 40
14.0
 40
14.0
 40
14.0
 40
15.0
 40
15.0
 40
15.0
 40
15.0
 10
933.1715524488263
 20
-1441.595290072089
 30
0.0
 10
949.6968770745934
 20
-1445.322300385858
 30
0.0
 10
966.2634758725271
 20
-1448.821591128517
 30
0.0
 10
982.8784650793086
 20
-1451.975507188332
 30
0.0
 10
1031.108046992191
 20
-1461.127936283692
 30
0.0
 10
1066.395566613919
 20
-1457.289912679016
 30
0.0
 10
1103.889119580741
 20
-1423.184162748174
 30
0.0
 10
1165.909493602987
 20
-1366.766639006702
 30
0.0
 10
1190.130316484712
 20
-1272.452783307015
 30
0.0
 10
1204.03307071647
 20
-1187.275226566422
 30
0.0
 10
1226.263245014125
 20
-1165.334445890379
 30
0.0
 10
1247.51944372959
 20
-1142.534023833396
 30
0.0
 10
1267.589603012113
 20
-1118.579822616164
 30
0.0
 10
1266.980927575194
 20
-1126.435198987767
 30
0.0
 10
1266.30915484043
 20
-1134.283933538542
 30
0.0
 10
1265.543922198378
 20
-1142.110844963756
 30
0.0
 10
1261.723451977297
 20
-1181.19511401789
 30
0.0
 10
1256.764383900718
 20
-1220.191141738234
 30
0.0
 10
1252.42632607112
 20
-1259.221327394225
 30
0.0
 10
1249.378679144475
 20
-1286.640661418467
 30
0.0
 10
1238.432958426685
 20
-1324.596769764084
 30
0.0
 10
1247.350551714302
 20
-1351.414544587984
 30
0.0
 10
1247.872883480544
 20
-1352.98580962861
 30
0.0
 10
1248.522358673976
 20
-1354.369206023068
 30
0.0
 10
1249.160447888864
 20
-1355.769681385371
 30
0.0
 10
1249.229238175978
 20
-1357.339048762919
 30
0.0
 10
1249.364446671321
 20
-1358.999503968889
 30
0.0
 10
1249.639133403938
 20
-1360.844032494861
 30
0.0
 10
1251.540591822697
 20
-1373.609612118424
 30
0.0
 10
1232.757048116831
 20
-1399.047785874047
 30
0.0
 10
1227.076868065094
 20
-1410.340778937805
 30
0.0
 10
1217.240331424837
 20
-1429.896197106516
 30
0.0
 10
1206.940290574272
 20
-1448.218134265084
 30
0.0
 10
1193.077861683229
 20
-1465.293306771822
 30
0.0
 10
1172.669443954404
 20
-1490.431649758824
 30
0.0
 10
1147.541538114398
 20
-1511.304046113775
 30
0.0
 10
1122.838234391395
 20
-1532.264683802516
 30
0.0
 10
1118.525320597812
 20
-1532.16695415325
 30
0.0
 10
1114.242294997925
 20
-1532.096740618819
 30
0.0
 10
1110.048459563372
 20
-1532.130898554489
 30
0.0
 10
1029.651590568701
 20
-1532.798875963073
 30
0.0
 10
949.254721574006
 20
-1533.466853371656
 30
0.0
 10
868.8578525792655
 20
-1534.132933117126
 30
0.0
 10
891.5686100551311
 20
-1504.406040772355
 30
0.0
 10
915.935078579243
 20
-1473.895413570359
 30
0.0
 10
933.1715524488263
 20
-1441.595290072089
 30
0.0
  0
SPLINE
  5
4D
330
41
100
AcDbEntity
  8
Layer 1
370
     0
100
AcDbSpline
210
0.0
220
0.0
230
1.0
 70
    11
 71
     3
 72
    14
 73
    10
 74
     0
 42
0.0000000001
 43
0.0000000001
 12
1.0
 22
0.0
 32
0.0
 13
1.0
 23
0.0
 33
0.0
 40
0.0
 40
0.0
 40
0.0
 40
0.0
 40
1.0
 40
1.0
 40
1.0
 40
2.0
 40
2.0
 40
2.0
 40
3.0
 40
3.0
 40
3.0
 40
3.0
 10
1540.604968889775
 20
-1337.527446076721
 30
0.0
 10
1540.669015019188
 20
-1337.795016572762
 30
0.0
 10
1540.723572833078
 20
-1338.068280058071
 30
0.0
 10
1540.796158446397
 20
-1338.331106396397
 30
0.0
 10
1540.748242453299
 20
-1338.335850554135
 30
0.0
 10
1540.700800875995
 20
-1338.33869704877
 30
0.0
 10
1540.653359298693
 20
-1338.343441206496
 30
0.0
 10
1540.637703578199
 20
-1338.070177721185
 30
0.0
 10
1540.620624610339
 20
-1337.798811898941
 30
0.0
 10
1540.604968889775
 20
-1337.527446076721
 30
0.0
  0
SPLINE
  5
4E
330
41
100
AcDbEntity
  8
Layer 1
370
     0
100
AcDbSpline
210
0.0
220
0.0
230
1.0
 70
    11
 71
     3
 72
    80
 73
    76
 74
     0
 42
0.0000000001
 43
0.0000000001
 12
1.0
 22
0.0
 32
0.0
 13
1.0
 23
0.0
 33
0.0
 40
0.0
 40
0.0
 40
0.0
 40
0.0
 40
1.0
 40
1.0
 40
1.0
 40
2.0
 40
2.0
 40
2.0
 40
3.0
 40
3.0
 40
3.0
 40
4.0
 40
4.0
 40
4.0
 40
5.0
 40
5.0
 40
5.0
 40
6.0
 40
6.0
 40
6.0
 40
7.0
 40
7.0
 40
7.0
 40
8.0
 40
8.0
 40
8.0
 40
9.0
 40
9.0
 40
9.0
 40
10.0
 40
10.0
 40
10.0
 40
11.0
 40
11.0
 40
11.0
 40
12.0
 40
12.0
 40
12.0
 40
13.0
 40
13.0
 40
13.0
 40
14.0
 40
14.0
 40
14.0
 40
15.0
 40
15.0
 40
15.0
 40
16.0
 40
16.0
 40
16.0
 40
17.0
 40
17.0
 40
17.0
 40
18.0
 40
18.0
 40
18.0
 40
19.0
 40
19.0
 40
19.0
 40
20.0
 40
20.0
 40
20.0
 40
21.0
 40
21.0
 40
21.0
 40
22.0
 40
22.0
 40
22.0
 40
23.0
 40
23.0
 40
23.0
 40
24.0
 40
24.0
 40
24.0
 40
25.0
 40
25.0
 40
25.0
 40
25.0
 10
1533.875381147895
 20
-922.1195068023153
 30
0.0
 10
1574.294181771853
 20
-924.1462109851473
 30
0.0
 10
1585.485649860133
 20
-948.8319613245785
 30
0.0
 10
1592.50036148172
 20
-985.4435753691232
 30
0.0
 10
1614.12802774752
 20
-1098.316576113917
 30
0.0
 10
1614.819725944755
 20
-1216.077008153588
 30
0.0
 10
1607.57160176272
 20
-1330.809718729086
 30
0.0
 10
1604.492168979337
 20
-1331.224358114794
 30
0.0
 10
1601.416531522134
 20
-1331.678848425468
 30
0.0
 10
1598.334726659796
 20
-1332.07546001182
 30
0.0
 10
1598.492232696473
 20
-1330.802128076713
 30
0.0
 10
1598.74414747196
 20
-1329.593316686769
 30
0.0
 10
1598.748417213912
 20
-1328.216562113115
 30
0.0
 10
1599.089996570647
 20
-1220.752850013623
 30
0.0
 10
1591.043905058228
 20
-1101.984758871818
 30
0.0
 10
1557.726634142282
 20
-999.2917717869896
 30
0.0
 10
1554.934222901695
 20
-990.6858696622858
 30
0.0
 10
1542.058104402904
 20
-994.1709279317438
 30
0.0
 10
1544.141264062764
 20
-1003.037758731685
 30
0.0
 10
1557.135986504767
 20
-1058.34514956402
 30
0.0
 10
1562.20179813036
 20
-1113.528243463794
 30
0.0
 10
1559.747645335867
 20
-1170.242751479249
 30
0.0
 10
1557.453845072803
 20
-1223.24827698033
 30
0.0
 10
1546.080675743353
 20
-1275.027912123605
 30
0.0
 10
1540.043735030182
 20
-1327.600770439583
 30
0.0
 10
1535.015402250667
 20
-1236.6125693096
 30
0.0
 10
1532.382394709755
 20
-1141.426737418895
 30
0.0
 10
1506.434698413828
 20
-1054.462530876664
 30
0.0
 10
1504.720159809693
 20
-1048.714509369334
 30
0.0
 10
1496.406972217019
 20
-1051.129285654601
 30
0.0
 10
1497.534184093978
 20
-1056.916209255327
 30
0.0
 10
1507.065671392083
 20
-1105.834168455049
 30
0.0
 10
1513.806170696847
 20
-1158.698318055729
 30
0.0
 10
1508.951948506119
 20
-1208.528104371422
 30
0.0
 10
1506.734529182484
 20
-1231.288675503452
 30
0.0
 10
1503.167396984232
 20
-1253.777880813253
 30
0.0
 10
1498.963124402706
 20
-1276.157021663677
 30
0.0
 10
1494.8414001657
 20
-1227.702092258525
 30
0.0
 10
1488.07480799342
 20
-1179.215851412373
 30
0.0
 10
1481.116077433067
 20
-1131.581661294755
 30
0.0
 10
1480.321905428818
 20
-1126.144856534598
 30
0.0
 10
1471.375372778959
 20
-1127.465630047018
 30
0.0
 10
1471.573678572171
 20
-1132.873021029241
 30
0.0
 10
1474.219969754691
 20
-1205.019325313298
 30
0.0
 10
1466.071878851102
 20
-1272.593210375881
 30
0.0
 10
1454.257502852681
 20
-1343.404508674328
 30
0.0
 10
1453.377936009301
 20
-1343.429178294537
 30
0.0
 10
1452.498369165853
 20
-1343.445308430815
 30
0.0
 10
1451.618327906725
 20
-1343.468080387922
 30
0.0
 10
1451.374952615097
 20
-1297.754325319966
 30
0.0
 10
1441.971557575747
 20
-1249.37720010163
 30
0.0
 10
1433.269823464811
 20
-1205.303974777175
 30
0.0
 10
1431.912994353675
 20
-1198.432536719065
 30
0.0
 10
1422.037555620043
 20
-1201.516239244447
 30
0.0
 10
1422.963615209203
 20
-1208.14572525827
 30
0.0
 10
1429.944643310915
 20
-1258.11688747436
 30
0.0
 10
1421.551753868334
 20
-1297.716372058127
 30
0.0
 10
1407.829277630382
 20
-1343.964319286628
 30
0.0
 10
1374.823223461633
 20
-1343.816301565414
 30
0.0
 10
1336.622790992878
 20
-1346.336398152316
 30
0.0
 10
1304.137170927281
 20
-1339.70975863314
 30
0.0
 10
1281.048778496035
 20
-1334.999758837435
 30
0.0
 10
1281.564468441487
 20
-1334.994065848152
 30
0.0
 10
1281.772262550079
 20
-1310.561653531597
 30
0.0
 10
1281.917908192419
 20
-1293.463709067717
 30
0.0
 10
1282.627159773238
 20
-1276.265188459951
 30
0.0
 10
1284.003439931141
 20
-1259.221327394225
 30
0.0
 10
1293.091348481317
 20
-1146.654799238868
 30
0.0
 10
1315.407866449741
 20
-1036.230732714999
 30
0.0
 10
1283.440782824207
 20
-927.740384882436
 30
0.0
 10
1338.04556389654
 20
-926.28203079581
 30
0.0
 10
1392.653191463436
 20
-924.907173885269
 30
0.0
 10
1447.265563188153
 20
-923.7391622518007
 30
0.0
 10
1475.884220286913
 20
-923.1271659044614
 30
0.0
 10
1505.292305232148
 20
-920.6867711674295
 30
0.0
 10
1533.875381147895
 20
-922.1195068023153
 30
0.0
  0
SPLINE
  5
4F
330
41
100
AcDbEntity
  8
Layer 1
370
     0
100
AcDbSpline
210
0.0
220
0.0
230
1.0
 70
    11
 71
     3
 72
    23
 73
    19
 74
     0
 42
0.0000000001
 43
0.0000000001
 12
1.0
 22
0.0
 32
0.0
 13
1.0
 23
0.0
 33
0.0
 40
0.0
 40
0.0
 40
0.0
 40
0.0
 40
1.0
 40
1.0
 40
1.0
 40
2.0
 40
2.0
 40
2.0
 40
3.0
 40
3.0
 40
3.0
 40
4.0
 40
4.0
 40
4.0
 40
5.0
 40
5.0
 40
5.0
 40
6.0
 40
6.0
 40
6.0
 40
6.0
 10
1343.344313666646
 20
-700.6641215649543
 30
0.0
 10
1363.56818365976
 20
-701.0446030150142
 30
0.0
 10
1422.919020126512
 20
-693.1171154459007
 30
0.0
 10
1437.189446582519
 20
-709.6182448671498
 30
0.0
 10
1445.77020467122
 20
-719.5401763465397
 30
0.0
 10
1439.168234772229
 20
-772.5599343208069
 30
0.0
 10
1437.763015252269
 20
-792.6153867144039
 30
0.0
 10
1381.931394990577
 20
-793.5803483969721
 30
0.0
 10
1325.400011463516
 20
-801.1074290535653
 30
0.0
 10
1269.489163767783
 20
-806.5214618566042
 30
0.0
 10
1284.128685695214
 20
-784.2419483185331
 30
0.0
 10
1299.748825025814
 20
-758.8199046992013
 30
0.0
 10
1298.439911907684
 20
-736.4388661856847
 30
0.0
 10
1297.533303365246
 20
-720.936856382652
 30
0.0
 10
1289.101511829293
 20
-709.7710067461012
 30
0.0
 10
1277.951317913203
 20
-701.1062770655171
 30
0.0
 10
1299.743606452246
 20
-700.5502617793991
 30
0.0
 10
1321.536843822905
 20
-700.2523286738797
 30
0.0
 10
1343.344313666646
 20
-700.6641215649543
 30
0.0
  0
SPLINE
  5
50
330
41
100
AcDbEntity
  8
Layer 1
370
     0
100
AcDbSpline
210
0.0
220
0.0
230
1.0
 70
    11
 71
     3
 72
    71
 73
    67
 74
     0
 42
0.0000000001
 43
0.0000000001
 12
1.0
 22
0.0
 32
0.0
 13
1.0
 23
0.0
 33
0.0
 40
0.0
 40
0.0
 40
0.0
 40
0.0
 40
1.0
 40
1.0
 40
1.0
 40
2.0
 40
2.0
 40
2.0
 40
3.0
 40
3.0
 40
3.0
 40
4.0
 40
4.0
 40
4.0
 40
5.0
 40
5.0
 40
5.0
 40
6.0
 40
6.0
 40
6.0
 40
7.0
 40
7.0
 40
7.0
 40
8.0
 40
8.0
 40
8.0
 40
9.0
 40
9.0
 40
9.0
 40
10.0
 40
10.0
 40
10.0
 40
11.0
 40
11.0
 40
11.0
 40
12.0
 40
12.0
 40
12.0
 40
13.0
 40
13.0
 40
13.0
 40
14.0
 40
14.0
 40
14.0
 40
15.0
 40
15.0
 40
15.0
 40
16.0
 40
16.0
 40
16.0
 40
17.0
 40
17.0
 40
17.0
 40
18.0
 40
18.0
 40
18.0
 40
19.0
 40
19.0
 40
19.0
 40
20.0
 40
20.0
 40
20.0
 40
21.0
 40
21.0
 40
21.0
 40
22.0
 40
22.0
 40
22.0
 40
22.0
 10
1107.467163341738
 20
-616.6450881423661
 30
0.0
 10
1153.408637980758
 20
-648.1178305322737
 30
0.0
 10
1202.934323785888
 20
-665.1246871677031
 30
0.0
 10
1241.464475217039
 20
-707.702553975214
 30
0.0
 10
1243.853633050505
 20
-710.3422033369534
 30
0.0
 10
1246.513682290522
 20
-711.6800558171981
 30
0.0
 10
1249.166140878111
 20
-712.088053382091
 30
0.0
 10
1287.05203568933
 20
-740.6934268391724
 30
0.0
 10
1242.807546270793
 20
-788.6359872093399
 30
0.0
 10
1225.04067556681
 20
-817.1161149023137
 30
0.0
 10
1218.711020321549
 20
-827.2629194581641
 30
0.0
 10
1226.896115655514
 20
-841.311319332297
 30
0.0
 10
1238.767421546714
 20
-841.0380558469751
 30
0.0
 10
1303.47393767647
 20
-839.547441487779
 30
0.0
 10
1369.836164854401
 20
-843.0211137786973
 30
0.0
 10
1434.436411851031
 20
-837.9790229417886
 30
0.0
 10
1433.207674998535
 20
-849.8916030052715
 30
0.0
 10
1432.013096081802
 20
-861.8098760580142
 30
0.0
 10
1431.084664413756
 20
-873.7698976988122
 30
0.0
 10
1375.994556005557
 20
-874.6105624488064
 30
0.0
 10
1320.905870844581
 20
-875.5489568480643
 30
0.0
 10
1265.820506594086
 20
-876.675219893501
 30
0.0
 10
1259.770282239282
 20
-876.7995168260641
 30
0.0
 10
1254.850590671895
 20
-878.6554313305751
 30
0.0
 10
1251.007822909458
 20
-881.556958199084
 30
0.0
 10
1244.246923726449
 20
-884.8190410551706
 30
0.0
 10
1238.960983182153
 20
-892.5558134834937
 30
0.0
 10
1241.103919229448
 20
-901.283166046127
 30
0.0
 10
1240.642787097961
 20
-909.1717515218443
 30
0.0
 10
1243.2895526963
 20
-917.1106250695229
 30
0.0
 10
1249.037099787811
 20
-922.3187614270246
 30
0.0
 10
1268.924134581961
 20
-978.3311340982491
 30
0.0
 10
1272.211835889802
 20
-1037.546762069684
 30
0.0
 10
1269.061240740441
 20
-1096.621962972275
 30
0.0
 10
1250.060414610509
 20
-1117.011404070163
 30
0.0
 10
1230.151556690775
 20
-1136.506097019916
 30
0.0
 10
1208.993087624665
 20
-1154.535794062223
 30
0.0
 10
1210.120773917373
 20
-1146.614948313925
 30
0.0
 10
1211.209558116756
 20
-1138.786139225609
 30
0.0
 10
1212.236668265565
 20
-1131.192640360776
 30
0.0
 10
1229.883037363177
 20
-1000.707428454029
 30
0.0
 10
1222.992622674119
 20
-865.8500007820585
 30
0.0
 10
1175.36981853509
 20
-742.1546274204356
 30
0.0
 10
1169.624169106646
 20
-727.2314048606368
 30
0.0
 10
1156.249914046151
 20
-717.9157767393062
 30
0.0
 10
1139.777249571254
 20
-721.9464131478871
 30
0.0
 10
1079.097100108105
 20
-736.7937291839935
 30
0.0
 10
1018.518475620445
 20
-752.7464339715079
 30
0.0
 10
957.296068928652
 20
-765.416181608909
 30
0.0
 10
957.1252792503665
 20
-738.4750586839928
 30
0.0
 10
947.2697659791829
 20
-711.2018447178743
 30
0.0
 10
946.3930456304397
 20
-684.5330364467445
 30
0.0
 10
988.738923124829
 20
-683.4646521256418
 30
0.0
 10
1031.252269387236
 20
-688.3729577145241
 30
0.0
 10
1073.332474048735
 20
-700.0739483431644
 30
0.0
 10
1094.448245695312
 20
-705.9453179515112
 30
0.0
 10
1103.521921772312
 20
-672.9383149512742
 30
0.0
 10
1082.372941021607
 20
-667.282330103937
 30
0.0
 10
1081.270398764867
 20
-666.9872434930312
 30
0.0
 10
1080.163586766153
 20
-666.7528821011056
 30
0.0
 10
1079.060095677869
 20
-666.4663349741404
 30
0.0
 10
1071.404448346759
 20
-635.3636368872521
 30
0.0
 10
1061.527586365786
 20
-599.8393837947478
 30
0.0
 10
1047.526153653173
 20
-566.361760347545
 30
0.0
 10
1066.011289837701
 20
-584.832664058873
 30
0.0
 10
1085.896426968715
 20
-601.8679856406816
 30
0.0
 10
1107.467163341738
 20
-616.6450881423661
 30
0.0
  0
SPLINE
  5
51
330
41
100
AcDbEntity
  8
Layer 1
370
     0
100
AcDbSpline
210
0.0
220
0.0
230
1.0
 70
    11
 71
     3
 72
    29
 73
    25
 74
     0
 42
0.0000000001
 43
0.0000000001
 12
1.0
 22
0.0
 32
0.0
 13
1.0
 23
0.0
 33
0.0
 40
0.0
 40
0.0
 40
0.0
 40
0.0
 40
1.0
 40
1.0
 40
1.0
 40
2.0
 40
2.0
 40
2.0
 40
3.0
 40
3.0
 40
3.0
 40
4.0
 40
4.0
 40
4.0
 40
5.0
 40
5.0
 40
5.0
 40
6.0
 40
6.0
 40
6.0
 40
7.0
 40
7.0
 40
7.0
 40
8.0
 40
8.0
 40
8.0
 40
8.0
 10
748.5953517521193
 20
-453.465038814089
 30
0.0
 10
796.0236454241649
 20
-450.1839793270647
 30
0.0
 10
847.1704099260978
 20
-442.9918362063072
 30
0.0
 10
894.5839967091715
 20
-450.8576497249178
 30
0.0
 10
896.1116154987321
 20
-451.4079720217669
 30
0.0
 10
897.7260523746954
 20
-451.7419607260454
 30
0.0
 10
899.3917261541883
 20
-451.7191887689405
 30
0.0
 10
919.4144438594085
 20
-455.505026638577
 30
0.0
 10
938.7383471308513
 20
-462.0405783293154
 30
0.0
 10
956.7367327321253
 20
-472.9976850256935
 30
0.0
 10
1015.802919735015
 20
-508.9527076402082
 30
0.0
 10
1040.97874156812
 20
-591.8805847845979
 30
0.0
 10
1049.086981546789
 20
-659.7087567015751
 30
0.0
 10
969.6935019122993
 20
-644.5445309290135
 30
0.0
 10
889.4441762230344
 20
-650.870390848022
 30
0.0
 10
813.9802824374301
 20
-681.0878291022273
 30
0.0
 10
817.6560558477158
 20
-640.1286689126446
 30
0.0
 10
816.9937714283806
 20
-589.8889873689695
 30
0.0
 10
805.3425944558821
 20
-545.2569002637592
 30
0.0
 10
809.6659453965303
 20
-537.582750717509
 30
0.0
 10
805.7624524151124
 20
-527.4606157818416
 30
0.0
 10
798.5138538173496
 20
-523.4584443196618
 30
0.0
 10
788.0496651092699
 20
-494.8891264613412
 30
0.0
 10
772.1054998057307
 20
-470.0183539703903
 30
0.0
 10
748.5953517521193
 20
-453.465038814089
 30
0.0
  0
SPLINE
  5
52
330
41
100
AcDbEntity
  8
Layer 1
370
     0
100
AcDbSpline
210
0.0
220
0.0
230
1.0
 70
    11
 71
     3
 72
    47
 73
    43
 74
     0
 42
0.0000000001
 43
0.0000000001
 12
1.0
 22
0.0
 32
0.0
 13
1.0
 23
0.0
 33
0.0
 40
0.0
 40
0.0
 40
0.0
 40
0.0
 40
1.0
 40
1.0
 40
1.0
 40
2.0
 40
2.0
 40
2.0
 40
3.0
 40
3.0
 40
3.0
 40
4.0
 40
4.0
 40
4.0
 40
5.0
 40
5.0
 40
5.0
 40
6.0
 40
6.0
 40
6.0
 40
7.0
 40
7.0
 40
7.0
 40
8.0
 40
8.0
 40
8.0
 40
9.0
 40
9.0
 40
9.0
 40
10.0
 40
10.0
 40
10.0
 40
11.0
 40
11.0
 40
11.0
 40
12.0
 40
12.0
 40
12.0
 40
13.0
 40
13.0
 40
13.0
 40
14.0
 40
14.0
 40
14.0
 40
14.0
 10
789.1996489433823
 20
-696.3421938716692
 30
0.0
 10
787.218963090535
 20
-704.4651407393358
 30
0.0
 10
794.7631227149295
 20
-713.5853095621151
 30
0.0
 10
803.4805125463154
 20
-710.6230574746478
 30
0.0
 10
839.7201846247635
 20
-698.3091216671128
 30
0.0
 10
876.6287829432476
 20
-690.1833283048109
 30
0.0
 10
913.7845518796321
 20
-686.5417128302088
 30
0.0
 10
915.0479210834801
 20
-701.6271855844188
 30
0.0
 10
919.3167142101674
 20
-716.9185547841789
 30
0.0
 10
920.8357935157283
 20
-731.6567551924563
 30
0.0
 10
922.2016365266363
 20
-744.9081365677303
 30
0.0
 10
921.6128865521177
 20
-758.7250215445729
 30
0.0
 10
922.6086852599838
 20
-772.1756575445652
 30
0.0
 10
913.2536806295057
 20
-773.890196148679
 30
0.0
 10
903.885866773122
 20
-775.5402142076546
 30
0.0
 10
894.4919600491776
 20
-777.048856366242
 30
0.0
 10
852.6731584787103
 20
-783.7665837138557
 30
0.0
 10
810.601967716867
 20
-789.0544219212406
 30
0.0
 10
768.4790656358382
 20
-793.4475119805029
 30
0.0
 10
746.3689185287349
 20
-795.7541214694847
 30
0.0
 10
724.1382698153548
 20
-797.1337225377611
 30
0.0
 10
702.0722433751462
 20
-799.7809625518748
 30
0.0
 10
682.0400373544753
 20
-802.1853016901314
 30
0.0
 10
662.8736401196857
 20
-808.9495217835247
 30
0.0
 10
642.8945686655652
 20
-810.6782928608391
 30
0.0
 10
639.3668129765756
 20
-804.5934361545696
 30
0.0
 10
633.561387160672
 20
-803.0639197019882
 30
0.0
 10
628.2711768743529
 20
-804.3989256875866
 30
0.0
 10
632.939902497893
 20
-799.7781160572395
 30
0.0
 10
637.5275030240919
 20
-795.0500884621524
 30
0.0
 10
641.9310302303029
 20
-790.0895971382306
 30
0.0
 10
700.0777994648715
 20
-724.5898578358192
 30
0.0
 10
735.1186228846109
 20
-641.936193008296
 30
0.0
 10
786.7521379697282
 20
-571.5376364324784
 30
0.0
 10
790.2903308058076
 20
-566.7137768512184
 30
0.0
 10
790.2998191212591
 20
-561.7684668320289
 30
0.0
 10
788.3642027668984
 20
-557.5347804725589
 30
0.0
 10
789.5393306369097
 20
-556.8459287699588
 30
0.0
 10
790.7267933170779
 20
-556.1798490244782
 30
0.0
 10
791.8990746925238
 20
-555.4853043325966
 30
0.0
 10
801.9837307821108
 20
-604.3368453240892
 30
0.0
 10
798.2889807408992
 20
-659.0682954078347
 30
0.0
 10
789.1996489433823
 20
-696.3421938716692
 30
0.0
  0
SPLINE
  5
53
330
41
100
AcDbEntity
  8
Layer 1
370
     0
100
AcDbSpline
210
0.0
220
0.0
230
1.0
 70
    11
 71
     3
 72
    29
 73
    25
 74
     0
 42
0.0000000001
 43
0.0000000001
 12
1.0
 22
0.0
 32
0.0
 13
1.0
 23
0.0
 33
0.0
 40
0.0
 40
0.0
 40
0.0
 40
0.0
 40
1.0
 40
1.0
 40
1.0
 40
2.0
 40
2.0
 40
2.0
 40
3.0
 40
3.0
 40
3.0
 40
4.0
 40
4.0
 40
4.0
 40
5.0
 40
5.0
 40
5.0
 40
6.0
 40
6.0
 40
6.0
 40
7.0
 40
7.0
 40
7.0
 40
8.0
 40
8.0
 40
8.0
 40
8.0
 10
743.7525155399326
 20
-582.2556375791828
 30
0.0
 10
713.5924815942781
 20
-643.1459532297977
 30
0.0
 10
687.0664724708304
 20
-705.2033316823399
 30
0.0
 10
645.0901648636627
 20
-759.8750053786607
 30
0.0
 10
598.8156503518858
 20
-820.1447851980083
 30
0.0
 10
542.446517019227
 20
-849.9229144462843
 30
0.0
 10
473.8526380444146
 20
-869.7411589533203
 30
0.0
 10
468.6938409273516
 20
-863.5139775151201
 30
0.0
 10
463.4022073937622
 20
-857.513566816484
 30
0.0
 10
457.9378865187964
 20
-851.8357588435847
 30
0.0
 10
461.9466998017942
 20
-848.9019717024967
 30
0.0
 10
464.4781823672611
 20
-844.140735003295
 30
0.0
 10
463.6821126998766
 20
-837.4324959711339
 30
0.0
 10
459.6158951083762
 20
-803.1777794875434
 30
0.0
 10
459.3914964476517
 20
-740.3025082421154
 30
0.0
 10
433.1790761502871
 20
-714.7865302997106
 30
0.0
 10
421.7565675804435
 20
-703.6662245773623
 30
0.0
 10
406.5116911264522
 20
-704.7592785186735
 30
0.0
 10
392.0249310779482
 20
-704.2639884515247
 30
0.0
 10
380.0577932005972
 20
-703.8559908866191
 30
0.0
 10
368.2196964135001
 20
-702.9906565164183
 30
0.0
 10
356.411013404324
 20
-701.9535836363502
 30
0.0
 10
491.0881630825224
 20
-684.1905082585363
 30
0.0
 10
623.5559585051951
 20
-644.9288077052533
 30
0.0
 10
743.7525155399326
 20
-582.2556375791828
 30
0.0
  0
SPLINE
  5
54
330
41
100
AcDbEntity
  8
Layer 1
370
     0
100
AcDbSpline
210
0.0
220
0.0
230
1.0
 70
    11
 71
     3
 72
    32
 73
    28
 74
     0
 42
0.0000000001
 43
0.0000000001
 12
1.0
 22
0.0
 32
0.0
 13
1.0
 23
0.0
 33
0.0
 40
0.0
 40
0.0
 40
0.0
 40
0.0
 40
1.0
 40
1.0
 40
1.0
 40
2.0
 40
2.0
 40
2.0
 40
3.0
 40
3.0
 40
3.0
 40
4.0
 40
4.0
 40
4.0
 40
5.0
 40
5.0
 40
5.0
 40
6.0
 40
6.0
 40
6.0
 40
7.0
 40
7.0
 40
7.0
 40
8.0
 40
8.0
 40
8.0
 40
9.0
 40
9.0
 40
9.0
 40
9.0
 10
104.892849454799
 20
-841.9887850563427
 30
0.0
 10
120.0703588690167
 20
-820.6400752651698
 30
0.0
 10
135.4404810870801
 20
-797.1631363157067
 30
0.0
 10
133.2325500788957
 20
-776.5213060265014
 30
0.0
 10
130.4856827524527
 20
-750.8402313950355
 30
0.0
 10
97.9085004426579
 20
-743.6006466969757
 30
0.0
 10
75.3595187454921
 20
-740.216164571415
 30
0.0
 10
136.5131351501714
 20
-707.2376265175444
 30
0.0
 10
211.6145752850953
 20
-715.6215020604213
 30
0.0
 10
278.0375276820314
 20
-725.5472288660021
 30
0.0
 10
313.5214554338327
 20
-730.8502483781231
 30
0.0
 10
349.2468608141717
 20
-733.4861024136808
 30
0.0
 10
384.6776539993534
 20
-738.3270409627658
 30
0.0
 10
411.2098305278441
 20
-741.9515774695337
 30
0.0
 10
410.7358891704725
 20
-744.296140220391
 30
0.0
 10
416.5047849718421
 20
-771.1471241483923
 30
0.0
 10
421.1597525378147
 20
-792.8117948444888
 30
0.0
 10
424.1348138511867
 20
-814.6491528819952
 30
0.0
 10
426.1989968801208
 20
-836.701895680515
 30
0.0
 10
425.5215311561105
 20
-836.641170461533
 30
0.0
 10
424.8597211525239
 20
-836.5320548337149
 30
0.0
 10
424.1751391919242
 20
-836.4912550772278
 30
0.0
 10
421.7670047274623
 20
-830.9747484672007
 30
0.0
 10
416.4625619680373
 20
-826.4488219914692
 30
0.0
 10
407.8514412697987
 20
-825.3310984299496
 30
0.0
 10
311.548360233347
 20
-812.8330893024267
 30
0.0
 10
200.6451337786548
 20
-812.3377992352653
 30
0.0
 10
104.892849454799
 20
-841.9887850563427
 30
0.0
  0
SPLINE
  5
55
330
41
100
AcDbEntity
  8
Layer 1
370
     0
100
AcDbSpline
210
0.0
220
0.0
230
1.0
 70
    11
 71
     3
 72
    92
 73
    88
 74
     0
 42
0.0000000001
 43
0.0000000001
 12
1.0
 22
0.0
 32
0.0
 13
1.0
 23
0.0
 33
0.0
 40
0.0
 40
0.0
 40
0.0
 40
0.0
 40
1.0
 40
1.0
 40
1.0
 40
2.0
 40
2.0
 40
2.0
 40
3.0
 40
3.0
 40
3.0
 40
4.0
 40
4.0
 40
4.0
 40
5.0
 40
5.0
 40
5.0
 40
6.0
 40
6.0
 40
6.0
 40
7.0
 40
7.0
 40
7.0
 40
8.0
 40
8.0
 40
8.0
 40
9.0
 40
9.0
 40
9.0
 40
10.0
 40
10.0
 40
10.0
 40
11.0
 40
11.0
 40
11.0
 40
12.0
 40
12.0
 40
12.0
 40
13.0
 40
13.0
 40
13.0
 40
14.0
 40
14.0
 40
14.0
 40
15.0
 40
15.0
 40
15.0
 40
16.0
 40
16.0
 40
16.0
 40
17.0
 40
17.0
 40
17.0
 40
18.0
 40
18.0
 40
18.0
 40
19.0
 40
19.0
 40
19.0
 40
20.0
 40
20.0
 40
20.0
 40
21.0
 40
21.0
 40
21.0
 40
22.0
 40
22.0
 40
22.0
 40
23.0
 40
23.0
 40
23.0
 40
24.0
 40
24.0
 40
24.0
 40
25.0
 40
25.0
 40
25.0
 40
26.0
 40
26.0
 40
26.0
 40
27.0
 40
27.0
 40
27.0
 40
28.0
 40
28.0
 40
28.0
 40
29.0
 40
29.0
 40
29.0
 40
29.0
 10
420.7081087218457
 20
-891.2521189389081
 30
0.0
 10
460.641582009891
 20
-929.6494339535457
 30
0.0
 10
488.4077139642377
 20
-992.2410045666202
 30
0.0
 10
506.7211116389353
 20
-1042.000577347902
 30
0.0
 10
517.0268454787929
 20
-1070.002493941551
 30
0.0
 10
525.2233267912525
 20
-1098.875437894683
 30
0.0
 10
531.646916359573
 20
-1128.005515196846
 30
0.0
 10
537.2972082176157
 20
-1153.629659935523
 30
0.0
 10
546.1047370459046
 20
-1185.750454271554
 30
0.0
 10
544.9514323014309
 20
-1213.278903923614
 30
0.0
 10
539.4463116699326
 20
-1216.058031522662
 30
0.0
 10
533.6745693739276
 20
-1218.559151478639
 30
0.0
 10
527.6490146392989
 20
-1220.780366128467
 30
0.0
 10
517.0999055078601
 20
-1139.117281435267
 30
0.0
 10
488.1809432247192
 20
-1061.70970622711
 30
0.0
 10
435.1905990283967
 20
-997.7565623451155
 30
0.0
 10
433.8892765626515
 20
-996.1852973044897
 30
0.0
 10
431.7249918056132
 20
-998.1854342040351
 30
0.0
 10
432.5201126413822
 20
-999.8174244636302
 30
0.0
 10
466.3184411512202
 20
-1069.146647886811
 30
0.0
 10
484.2342784079747
 20
-1141.173399396055
 30
0.0
 10
480.7107924608681
 20
-1217.699510097707
 30
0.0
 10
476.7024535936434
 20
-1201.903362515324
 30
0.0
 10
469.8490433348925
 20
-1186.139475205522
 30
0.0
 10
464.4596801520847
 20
-1171.081518566154
 30
0.0
 10
451.3871535233129
 20
-1134.55814585541
 30
0.0
 10
432.7046603771651
 20
-1101.850024792247
 30
0.0
 10
415.3989218046718
 20
-1067.281245066837
 30
0.0
 10
414.2721843434383
 20
-1065.030616639064
 30
0.0
 10
410.9887527775509
 20
-1067.002288592221
 30
0.0
 10
412.0433790412617
 20
-1069.243428704531
 30
0.0
 10
429.1014725801515
 20
-1105.488793772203
 30
0.0
 10
436.6257067421684
 20
-1147.964186772735
 30
0.0
 10
437.7154397730255
 20
-1187.829344189462
 30
0.0
 10
425.6244793788264
 20
-1153.095467774978
 30
0.0
 10
406.1141307085791
 20
-1123.588704348946
 30
0.0
 10
385.820996012626
 20
-1093.253610983005
 30
0.0
 10
383.7534920732833
 20
-1090.163266636784
 30
0.0
 10
378.8285819323737
 20
-1092.950933719738
 30
0.0
 10
380.787444659637
 20
-1096.195937608001
 30
0.0
 10
401.6076552795585
 20
-1130.685964315073
 30
0.0
 10
406.7451036868324
 20
-1170.679213990532
 30
0.0
 10
406.1478142284541
 20
-1210.127834358447
 30
0.0
 10
405.9727548081928
 20
-1221.682704928975
 30
0.0
 10
404.1491005762264
 20
-1233.325816833305
 30
0.0
 10
404.2074537163217
 20
-1244.173807901854
 30
0.0
 10
404.0186362386557
 20
-1244.201324016696
 30
0.0
 10
403.8241257716718
 20
-1244.226942468451
 30
0.0
 10
403.6357827097318
 20
-1244.253509751748
 30
0.0
 10
394.7461799526964
 20
-1201.499160276624
 30
0.0
 10
382.1656224806075
 20
-1159.693642347776
 30
0.0
 10
355.0707888451816
 20
-1124.49958263336
 30
0.0
 10
352.0136536031332
 20
-1120.529671443759
 30
0.0
 10
346.3543478453885
 20
-1123.782265984371
 30
0.0
 10
348.3592289026592
 20
-1128.423001077203
 30
0.0
 10
363.5044780442722
 20
-1163.477582554311
 30
0.0
 10
365.3361973443016
 20
-1200.357715926453
 30
0.0
 10
364.6416526524554
 20
-1237.600302949275
 30
0.0
 10
363.5827566468379
 20
-1233.951096822311
 30
0.0
 10
362.4768934796211
 20
-1230.366411240473
 30
0.0
 10
361.4507321623569
 20
-1226.979082620279
 30
0.0
 10
355.5172140876984
 20
-1207.389506515898
 30
0.0
 10
346.9331350885668
 20
-1188.319890098874
 30
0.0
 10
337.4737589880087
 20
-1170.202900554295
 30
0.0
 10
333.5949356268329
 20
-1162.775447210081
 30
0.0
 10
320.6761197085107
 20
-1167.927602506339
 30
0.0
 10
323.7109574092729
 20
-1176.005954291313
 30
0.0
 10
330.4144522837314
 20
-1193.849680350557
 30
0.0
 10
334.4180469932544
 20
-1211.391677978079
 30
0.0
 10
335.3839575073089
 20
-1230.506838309328
 30
0.0
 10
335.806187545425
 20
-1238.864146568907
 30
0.0
 10
334.9754855266201
 20
-1247.215761839227
 30
0.0
 10
334.490158190707
 20
-1255.519935532198
 30
0.0
 10
305.1726866581939
 20
-1260.421599300264
 30
0.0
 10
275.8998102083024
 20
-1265.589884732824
 30
0.0
 10
246.7341517231498
 20
-1271.279078684276
 30
0.0
 10
254.7541503680068
 20
-1162.358910161258
 30
0.0
 10
252.3445926562508
 20
-1054.849654147542
 30
0.0
 10
252.5400519547793
 20
-945.798546871134
 30
0.0
 10
260.8774347519466
 20
-943.7016291538584
 30
0.0
 10
268.0880800878567
 20
-937.2154167035478
 30
0.0
 10
269.2992635566297
 20
-928.2413679388792
 30
0.0
 10
289.0397038768951
 20
-919.0604738971178
 30
0.0
 10
309.9695045403496
 20
-915.1133346646129
 30
0.0
 10
331.8799226069477
 20
-910.4374928045781
 30
0.0
 10
360.1555771017011
 20
-904.4029241702701
 30
0.0
 10
391.3545815905018
 20
-894.1204367033024
 30
0.0
 10
420.7081087218457
 20
-891.2521189389081
 30
0.0
  0
SPLINE
  5
56
330
41
100
AcDbEntity
  8
Layer 1
370
     0
100
AcDbSpline
210
0.0
220
0.0
230
1.0
 70
    11
 71
     3
 72
    71
 73
    67
 74
     0
 42
0.0000000001
 43
0.0000000001
 12
1.0
 22
0.0
 32
0.0
 13
1.0
 23
0.0
 33
0.0
 40
0.0
 40
0.0
 40
0.0
 40
0.0
 40
1.0
 40
1.0
 40
1.0
 40
2.0
 40
2.0
 40
2.0
 40
3.0
 40
3.0
 40
3.0
 40
4.0
 40
4.0
 40
4.0
 40
5.0
 40
5.0
 40
5.0
 40
6.0
 40
6.0
 40
6.0
 40
7.0
 40
7.0
 40
7.0
 40
8.0
 40
8.0
 40
8.0
 40
9.0
 40
9.0
 40
9.0
 40
10.0
 40
10.0
 40
10.0
 40
11.0
 40
11.0
 40
11.0
 40
12.0
 40
12.0
 40
12.0
 40
13.0
 40
13.0
 40
13.0
 40
14.0
 40
14.0
 40
14.0
 40
15.0
 40
15.0
 40
15.0
 40
16.0
 40
16.0
 40
16.0
 40
17.0
 40
17.0
 40
17.0
 40
18.0
 40
18.0
 40
18.0
 40
19.0
 40
19.0
 40
19.0
 40
20.0
 40
20.0
 40
20.0
 40
21.0
 40
21.0
 40
21.0
 40
22.0
 40
22.0
 40
22.0
 40
22.0
 10
530.8351909716939
 20
-1272.710865487616
 30
0.0
 10
567.6190179419009
 20
-1263.465450900705
 30
0.0
 10
599.9770201644924
 20
-1258.847487765004
 30
0.0
 10
600.7949129574145
 20
-1215.445086343767
 30
0.0
 10
601.6189731553104
 20
-1171.698259071241
 30
0.0
 10
590.6969732261496
 20
-1123.554546413274
 30
0.0
 10
578.62404063133
 20
-1081.860041775335
 30
0.0
 10
559.5700799348706
 20
-1016.056676378112
 30
0.0
 10
527.7884928765952
 20
-940.4756018965327
 30
0.0
 10
484.0345493674931
 20
-882.6025705630691
 30
0.0
 10
533.6911739259667
 20
-872.0724380625215
 30
0.0
 10
579.0994052360438
 20
-848.8402976519938
 30
0.0
 10
617.0265742195234
 20
-814.9670114499968
 30
0.0
 10
616.1289795767634
 20
-818.1446482984629
 30
0.0
 10
616.3353504380375
 20
-821.7388221957517
 30
0.0
 10
618.3549383842583
 20
-825.4497023732292
 30
0.0
 10
619.5922147206147
 20
-827.722153926552
 30
0.0
 10
620.7464682967038
 20
-830.0164286054587
 30
0.0
 10
621.9258659086681
 20
-832.303112631982
 30
0.0
 10
622.3941142767462
 20
-833.7026391627296
 30
0.0
 10
623.089133384412
 20
-834.9788175924714
 30
0.0
 10
623.928374887123
 20
-836.147778057486
 30
0.0
 10
681.6965603347207
 20
-951.727795203793
 30
0.0
 10
667.7008206113542
 20
-1085.556689479625
 30
0.0
 10
648.2417088445673
 20
-1209.311839228649
 30
0.0
 10
643.7043963902843
 20
-1238.169601877036
 30
0.0
 10
639.2458369543856
 20
-1267.01408088378
 30
0.0
 10
635.5392265188366
 20
-1295.993293970094
 30
0.0
 10
633.3697231882998
 20
-1312.951760196653
 30
0.0
 10
628.3940505596102
 20
-1331.842996282972
 30
0.0
 10
640.6842655785649
 20
-1346.155171326987
 30
0.0
 10
655.5239909622751
 20
-1363.436240279274
 30
0.0
 10
687.8725048693923
 20
-1369.047630043942
 30
0.0
 10
708.377703415913
 20
-1375.975049163284
 30
0.0
 10
733.1322440424465
 20
-1384.337101580601
 30
0.0
 10
757.9736027554754
 20
-1392.476178584546
 30
0.0
 10
782.8861238344352
 20
-1400.370457049557
 30
0.0
 10
781.4258720847183
 20
-1401.579268439502
 30
0.0
 10
779.9888667079031
 20
-1402.744433578337
 30
0.0
 10
778.592186671779
 20
-1403.821357383356
 30
0.0
 10
750.320327503252
 20
-1425.611273843539
 30
0.0
 10
722.006245330851
 20
-1447.387906662099
 30
0.0
 10
694.9507882045946
 20
-1470.652307345184
 30
0.0
 10
682.7711120608328
 20
-1469.671215526338
 30
0.0
 10
670.547789665995
 20
-1469.090530620024
 30
0.0
 10
658.2798721883737
 20
-1469.050679695081
 30
0.0
 10
638.3102890497739
 20
-1468.985210318398
 30
0.0
 10
616.7167807196201
 20
-1474.401140784516
 30
0.0
 10
597.1267301995131
 20
-1472.586974868047
 30
0.0
 10
564.541482821538
 20
-1469.568741719348
 30
0.0
 10
554.8202292142232
 20
-1432.973257811082
 30
0.0
 10
547.0431314451507
 20
-1405.921121595256
 30
0.0
 10
545.1459427683449
 20
-1399.322947022471
 30
0.0
 10
539.3604424149817
 20
-1395.427044693472
 30
0.0
 10
532.7328540642966
 20
-1395.025688949394
 30
0.0
 10
501.8023689030224
 20
-1393.153644308592
 30
0.0
 10
471.1845237362859
 20
-1392.106134281494
 30
0.0
 10
440.6601384768837
 20
-1391.775940903406
 30
0.0
 10
441.9866049785987
 20
-1376.241670827791
 30
0.0
 10
437.4592552555159
 20
-1360.752944666412
 30
0.0
 10
434.3513575256857
 20
-1345.287939293685
 30
0.0
 10
430.9668754001495
 20
-1328.447128178859
 30
0.0
 10
427.7370528166084
 20
-1311.572159128376
 30
0.0
 10
424.4986907492075
 20
-1294.700985404063
 30
0.0
 10
460.3801789188828
 20
-1288.596203235335
 30
0.0
 10
495.9675293091959
 20
-1281.473324817453
 30
0.0
 10
530.8351909716939
 20
-1272.710865487616
 30
0.0
  0
SPLINE
  5
57
330
41
100
AcDbEntity
  8
Layer 1
370
     0
100
AcDbSpline
210
0.0
220
0.0
230
1.0
 70
    11
 71
     3
 72
   185
 73
   181
 74
     0
 42
0.0000000001
 43
0.0000000001
 12
1.0
 22
0.0
 32
0.0
 13
1.0
 23
0.0
 33
0.0
 40
0.0
 40
0.0
 40
0.0
 40
0.0
 40
1.0
 40
1.0
 40
1.0
 40
2.0
 40
2.0
 40
2.0
 40
3.0
 40
3.0
 40
3.0
 40
4.0
 40
4.0
 40
4.0
 40
5.0
 40
5.0
 40
5.0
 40
6.0
 40
6.0
 40
6.0
 40
7.0
 40
7.0
 40
7.0
 40
8.0
 40
8.0
 40
8.0
 40
9.0
 40
9.0
 40
9.0
 40
10.0
 40
10.0
 40
10.0
 40
11.0
 40
11.0
 40
11.0
 40
12.0
 40
12.0
 40
12.0
 40
13.0
 40
13.0
 40
13.0
 40
14.0
 40
14.0
 40
14.0
 40
15.0
 40
15.0
 40
15.0
 40
16.0
 40
16.0
 40
16.0
 40
17.0
 40
17.0
 40
17.0
 40
18.0
 40
18.0
 40
18.0
 40
19.0
 40
19.0
 40
19.0
 40
20.0
 40
20.0
 40
20.0
 40
21.0
 40
21.0
 40
21.0
 40
22.0
 40
22.0
 40
22.0
 40
23.0
 40
23.0
 40
23.0
 40
24.0
 40
24.0
 40
24.0
 40
25.0
 40
25.0
 40
25.0
 40
26.0
 40
26.0
 40
26.0
 40
27.0
 40
27.0
 40
27.0
 40
28.0
 40
28.0
 40
28.0
 40
29.0
 40
29.0
 40
29.0
 40
30.0
 40
30.0
 40
30.0
 40
31.0
 40
31.0
 40
31.0
 40
32.0
 40
32.0
 40
32.0
 40
33.0
 40
33.0
 40
33.0
 40
34.0
 40
34.0
 40
34.0
 40
35.0
 40
35.0
 40
35.0
 40
36.0
 40
36.0
 40
36.0
 40
37.0
 40
37.0
 40
37.0
 40
38.0
 40
38.0
 40
38.0
 40
39.0
 40
39.0
 40
39.0
 40
40.0
 40
40.0
 40
40.0
 40
41.0
 40
41.0
 40
41.0
 40
42.0
 40
42.0
 40
42.0
 40
43.0
 40
43.0
 40
43.0
 40
44.0
 40
44.0
 40
44.0
 40
45.0
 40
45.0
 40
45.0
 40
46.0
 40
46.0
 40
46.0
 40
47.0
 40
47.0
 40
47.0
 40
48.0
 40
48.0
 40
48.0
 40
49.0
 40
49.0
 40
49.0
 40
50.0
 40
50.0
 40
50.0
 40
51.0
 40
51.0
 40
51.0
 40
52.0
 40
52.0
 40
52.0
 40
53.0
 40
53.0
 40
53.0
 40
54.0
 40
54.0
 40
54.0
 40
55.0
 40
55.0
 40
55.0
 40
56.0
 40
56.0
 40
56.0
 40
57.0
 40
57.0
 40
57.0
 40
58.0
 40
58.0
 40
58.0
 40
59.0
 40
59.0
 40
59.0
 40
60.0
 40
60.0
 40
60.0
 40
60.0
 10
1650.024222806145
 20
-1481.161565551729
 30
0.0
 10
1623.299907889626
 20
-1504.335827237936
 30
0.0
 10
1597.368341729922
 20
-1528.415274219285
 30
0.0
 10
1572.141757409083
 20
-1553.212037849624
 30
0.0
 10
1490.543667676817
 20
-1555.026203766092
 30
0.0
 10
1408.967875485907
 20
-1558.085236671277
 30
0.0
 10
1327.519701137933
 20
-1563.402488656609
 30
0.0
 10
1321.954804119045
 20
-1563.765891138833
 30
0.0
 10
1321.851855896259
 20
-1572.346174811786
 30
0.0
 10
1327.519701137933
 20
-1572.146920187077
 30
0.0
 10
1403.358383384328
 20
-1569.485447699764
 30
0.0
 10
1479.14487989567
 20
-1568.744410262136
 30
0.0
 10
1554.983087726268
 20
-1570.393479489556
 30
0.0
 10
1552.058314484882
 20
-1573.351936250841
 30
0.0
 10
1549.067123035265
 20
-1576.243974803887
 30
0.0
 10
1546.164172919416
 20
-1579.225203522279
 30
0.0
 10
1435.010929352258
 20
-1587.394643135704
 30
0.0
 10
1322.973374783924
 20
-1586.561569038071
 30
0.0
 10
1211.523146942769
 20
-1588.823583444384
 30
0.0
 10
1204.656453042409
 20
-1588.963061681692
 30
0.0
 10
1204.627988096032
 20
-1599.587128505324
 30
0.0
 10
1211.523146942769
 20
-1599.511221981633
 30
0.0
 10
1316.977708243014
 20
-1598.347005674343
 30
0.0
 10
1422.966936119612
 20
-1594.482414786367
 30
0.0
 10
1528.300995813486
 20
-1598.03768659026
 30
0.0
 10
1524.992894627425
 20
-1601.539823827567
 30
0.0
 10
1521.665816810393
 20
-1605.02393326548
 30
0.0
 10
1518.388078233798
 20
-1608.555484280709
 30
0.0
 10
1517.72199848833
 20
-1608.532712323591
 30
0.0
 10
1517.07726745258
 20
-1608.47293593619
 30
0.0
 10
1516.356629893218
 20
-1608.547893628336
 30
0.0
 10
1369.741756115591
 20
-1623.854444132841
 30
0.0
 10
1219.199194152145
 20
-1624.960781715796
 30
0.0
 10
1072.061988608251
 20
-1618.592224377209
 30
0.0
 10
1065.787365592749
 20
-1618.320858554978
 30
0.0
 10
1065.859002374522
 20
-1627.916391982448
 30
0.0
 10
1072.061988608251
 20
-1628.308259411049
 30
0.0
 10
1213.013286886227
 20
-1637.213992304376
 30
0.0
 10
1352.860145244304
 20
-1638.323176381977
 30
0.0
 10
1493.817610927254
 20
-1637.775700579788
 30
0.0
 10
1485.65006897692
 20
-1648.624640479882
 30
0.0
 10
1476.937423303212
 20
-1660.230747953916
 30
0.0
 10
1467.543042163612
 20
-1669.555864390699
 30
0.0
 10
1466.883604238912
 20
-1669.402153680203
 30
0.0
 10
1466.199971109858
 20
-1669.282600905366
 30
0.0
 10
1465.458459256435
 20
-1669.246545306605
 30
0.0
 10
1297.350178876804
 20
-1661.11600778659
 30
0.0
 10
1128.936374739294
 20
-1662.464297413842
 30
0.0
 10
960.979432991322
 20
-1673.279079378264
 30
0.0
 10
950.4350680175157
 20
-1673.957493933833
 30
0.0
 10
950.3306965474585
 20
-1690.419721261709
 30
0.0
 10
960.979432991322
 20
-1689.796338935839
 30
0.0
 10
1117.414713272892
 20
-1680.628728535745
 30
0.0
 10
1273.93965813557
 20
-1680.207447329174
 30
0.0
 10
1430.376361664483
 20
-1688.293389766523
 30
0.0
 10
1418.172015900476
 20
-1689.378853055485
 30
0.0
 10
1404.313856751411
 20
-1688.42243085681
 30
0.0
 10
1394.116289707836
 20
-1689.03063187798
 30
0.0
 10
1373.615835319017
 20
-1690.251778078036
 30
0.0
 10
1353.113483267131
 20
-1691.434022184694
 30
0.0
 10
1332.608759136359
 20
-1692.576415366433
 30
0.0
 10
1183.952474286882
 20
-1700.861612428444
 30
0.0
 10
1035.18138082035
 20
-1707.066970741107
 30
0.0
 10
886.3524086294956
 20
-1711.210518103651
 30
0.0
 10
811.9398201971235
 20
-1713.281817369219
 30
0.0
 10
737.5125248758495
 20
-1714.836003442009
 30
0.0
 10
663.0785877336657
 20
-1715.870229827453
 30
0.0
 10
627.1453882447349
 20
-1716.369315220794
 30
0.0
 10
591.2102910927142
 20
-1716.747899007754
 30
0.0
 10
555.274719524874
 20
-1717.005032356808
 30
0.0
 10
527.350132702235
 20
-1717.204286981494
 30
0.0
 10
486.5499017966467
 20
-1727.760037933818
 30
0.0
 10
468.6241018086921
 20
-1703.826711010557
 30
0.0
 10
462.6327050097343
 20
-1695.827112243909
 30
0.0
 10
457.0592685069396
 20
-1687.393897460672
 30
0.0
 10
451.7956255039317
 20
-1678.666544898017
 30
0.0
 10
562.7543586041993
 20
-1686.523818932745
 30
0.0
 10
674.624918820311
 20
-1690.280243024412
 30
0.0
 10
785.8592874846709
 20
-1685.977291962043
 30
0.0
 10
787.7265879678062
 20
-1685.904231932975
 30
0.0
 10
787.7436669356412
 20
-1683.034016505537
 30
0.0
 10
785.8592874846709
 20
-1683.062481451914
 30
0.0
 10
668.1002786923409
 20
-1684.835847611907
 30
0.0
 10
552.004571600618
 20
-1675.94150069711
 30
0.0
 10
437.0161509234067
 20
-1651.666594417231
 30
0.0
 10
430.9811078733728
 20
-1639.583224675429
 30
0.0
 10
425.4105178651207
 20
-1627.12032231511
 30
0.0
 10
420.2417580168576
 20
-1614.418314405151
 30
0.0
 10
518.4975343755059
 20
-1619.295308552997
 30
0.0
 10
615.5369086918372
 20
-1633.932932817363
 30
0.0
 10
714.3501235839449
 20
-1634.866583058894
 30
0.0
 10
718.4229829963779
 20
-1634.905485152292
 30
0.0
 10
718.4073272758133
 20
-1628.679252545637
 30
0.0
 10
714.3501235839449
 20
-1628.551160286892
 30
0.0
 10
614.7275553828904
 20
-1625.41906735265
 30
0.0
 10
509.9979013839829
 20
-1617.585514106597
 30
0.0
 10
416.3102745048582
 20
-1581.986303321935
 30
0.0
 10
413.1259958355531
 20
-1580.775594268889
 30
0.0
 10
410.2685896339162
 20
-1580.747129322499
 30
0.0
 10
407.7266699214751
 20
-1581.405618415609
 30
0.0
 10
403.4389001638619
 20
-1569.355457777941
 30
0.0
 10
399.3793243931077
 20
-1557.26734387839
 30
0.0
 10
395.4938592110939
 20
-1545.268420144208
 30
0.0
 10
422.2120067226388
 20
-1556.179982926362
 30
0.0
 10
453.035273919174
 20
-1557.39638496869
 30
0.0
 10
481.4693832821504
 20
-1559.104281751976
 30
0.0
 10
525.745184141746
 20
-1561.762907744642
 30
0.0
 10
570.1044821773366
 20
-1563.525836757615
 30
0.0
 10
614.4063759044466
 20
-1565.716688797964
 30
0.0
 10
616.6228463965372
 20
-1565.825804425793
 30
0.0
 10
616.5445677939706
 20
-1562.531461297136
 30
0.0
 10
614.4063759044466
 20
-1562.316076536114
 30
0.0
 10
538.1995470181246
 20
-1554.620103864288
 30
0.0
 10
466.6818436334925
 20
-1542.809048776262
 30
0.0
 10
393.6412656170478
 20
-1521.07985753504
 30
0.0
 10
391.5253712688573
 20
-1520.450782219865
 30
0.0
 10
389.5470574948267
 20
-1520.530484069748
 30
0.0
 10
387.7883982237945
 20
-1521.099782997511
 30
0.0
 10
384.8726388821324
 20
-1511.843931263604
 30
0.0
 10
382.0128606016324
 20
-1502.709529967611
 30
0.0
 10
379.1715845363797
 20
-1493.776280959442
 30
0.0
 10
377.4608412583993
 20
-1488.397354923607
 30
0.0
 10
375.5517921873261
 20
-1482.960550163463
 30
0.0
 10
373.478595258689
 20
-1477.550312686604
 30
0.0
 10
394.1607508885863
 20
-1481.248858053974
 30
0.0
 10
414.3433467094392
 20
-1485.964550838973
 30
0.0
 10
435.5079831805906
 20
-1487.337510086423
 30
0.0
 10
438.2097810086643
 20
-1487.513043922479
 30
0.0
 10
438.8568841231618
 20
-1483.074409949006
 30
0.0
 10
436.1536630478631
 20
-1482.565836240214
 30
0.0
 10
414.5444989972621
 20
-1478.502939559063
 30
0.0
 10
391.6439752120914
 20
-1473.017744390057
 30
0.0
 10
372.840980459574
 20
-1461.193405660377
 30
0.0
 10
370.3379628405064
 20
-1459.619294125105
 30
0.0
 10
368.0304045200146
 20
-1459.552875916865
 30
0.0
 10
366.0962114129252
 20
-1460.344201426466
 30
0.0
 10
355.0314123360595
 20
-1437.230664959228
 30
0.0
 10
339.7395687204917
 20
-1416.606862469403
 30
0.0
 10
318.3548033305915
 20
-1405.9344052369
 30
0.0
 10
354.4540483401524
 20
-1405.747485422289
 30
0.0
 10
390.0916868023805
 20
-1407.842505476465
 30
0.0
 10
427.0766660604331
 20
-1410.773446122917
 30
0.0
 10
448.8623127786377
 20
-1412.500319537119
 30
0.0
 10
497.3324234884885
 20
-1408.593031229566
 30
0.0
 10
514.0484632550124
 20
-1421.104323998745
 30
0.0
 10
527.6841214065153
 20
-1431.309956110475
 30
0.0
 10
530.7298706700922
 20
-1458.95606087427
 30
0.0
 10
539.0682022987112
 20
-1474.436247551732
 30
0.0
 10
557.4722133860614
 20
-1508.602722701533
 30
0.0
 10
580.4287182323942
 20
-1509.033492223531
 30
0.0
 10
616.3903826677251
 20
-1506.186048753165
 30
0.0
 10
666.9972620198523
 20
-1502.180081964791
 30
0.0
 10
716.7895694894187
 20
-1506.390996367156
 30
0.0
 10
766.055275450859
 20
-1517.682091767825
 30
0.0
 10
766.9860791977671
 20
-1529.304329378139
 30
0.0
 10
767.9164085288803
 20
-1540.926566988464
 30
0.0
 10
768.8472122757894
 20
-1552.547855767221
 30
0.0
 10
769.6077007600916
 20
-1562.043761882336
 30
0.0
 10
776.3543674698776
 20
-1570.365014543166
 30
0.0
 10
786.5789762125569
 20
-1570.279619704012
 30
0.0
 10
896.9693592165031
 20
-1569.363997261848
 30
0.0
 10
1007.359742220497
 20
-1568.447425988152
 30
0.0
 10
1117.750125224513
 20
-1567.530854714443
 30
0.0
 10
1153.120667606509
 20
-1567.237665766639
 30
0.0
 10
1210.225145387501
 20
-1578.152075043439
 30
0.0
 10
1242.100192352995
 20
-1558.276900643627
 30
0.0
 10
1254.194473657602
 20
-1550.735587513844
 30
0.0
 10
1256.795695341707
 20
-1536.758350005677
 30
0.0
 10
1268.007563308276
 20
-1530.303448996367
 30
0.0
 10
1285.853187030621
 20
-1520.031398676396
 30
0.0
 10
1327.488864112671
 20
-1527.505344766392
 30
0.0
 10
1348.791081158099
 20
-1525.861019696711
 30
0.0
 10
1449.489149916855
 20
-1518.090089332729
 30
0.0
 10
1547.376305219805
 20
-1491.238156573159
 30
0.0
 10
1643.906631411593
 20
-1462.915534916874
 30
0.0
 10
1658.149541752675
 20
-1458.736880787066
 30
0.0
 10
1672.344536100725
 20
-1454.395027631324
 30
0.0
 10
1686.576534879063
 20
-1450.180317902777
 30
0.0
 10
1674.176729816621
 20
-1460.207569683804
 30
0.0
 10
1662.080076433129
 20
-1470.707339574872
 30
0.0
 10
1650.024222806145
 20
-1481.161565551729
 30
0.0
  0
HATCH
  5
58
330
41
100
AcDbEntity
  8
Layer 1
 62
     7
420
 16777215
100
AcDbHatch
 10
0.0
 20
0.0
 30
0.0
210
0.0
220
0.0
230
1.0
  2
SOLID
 70
     1
 71
     0
 91
       17
 92
        1
 93
        1
 72
     4
 94
        3
 73
     0
 74
     1
 95
      260
 96
      256
 40
0.0
 40
0.0
 40
0.0
 40
0.0
 40
1.0
 40
1.0
 40
1.0
 40
2.0
 40
2.0
 40
2.0
 40
3.0
 40
3.0
 40
3.0
 40
4.0
 40
4.0
 40
4.0
 40
5.0
 40
5.0
 40
5.0
 40
6.0
 40
6.0
 40
6.0
 40
7.0
 40
7.0
 40
7.0
 40
8.0
 40
8.0
 40
8.0
 40
9.0
 40
9.0
 40
9.0
 40
10.0
 40
10.0
 40
10.0
 40
11.0
 40
11.0
 40
11.0
 40
12.0
 40
12.0
 40
12.0
 40
13.0
 40
13.0
 40
13.0
 40
14.0
 40
14.0
 40
14.0
 40
15.0
 40
15.0
 40
15.0
 40
16.0
 40
16.0
 40
16.0
 40
17.0
 40
17.0
 40
17.0
 40
18.0
 40
18.0
 40
18.0
 40
19.0
 40
19.0
 40
19.0
 40
20.0
 40
20.0
 40
20.0
 40
21.0
 40
21.0
 40
21.0
 40
22.0
 40
22.0
 40
22.0
 40
23.0
 40
23.0
 40
23.0
 40
24.0
 40
24.0
 40
24.0
 40
25.0
 40
25.0
 40
25.0
 40
26.0
 40
26.0
 40
26.0
 40
27.0
 40
27.0
 40
27.0
 40
28.0
 40
28.0
 40
28.0
 40
29.0
 40
29.0
 40
29.0
 40
30.0
 40
30.0
 40
30.0
 40
31.0
 40
31.0
 40
31.0
 40
32.0
 40
32.0
 40
32.0
 40
33.0
 40
33.0
 40
33.0
 40
34.0
 40
34.0
 40
34.0
 40
35.0
 40
35.0
 40
35.0
 40
36.0
 40
36.0
 40
36.0
 40
37.0
 40
37.0
 40
37.0
 40
38.0
 40
38.0
 40
38.0
 40
39.0
 40
39.0
 40
39.0
 40
40.0
 40
40.0
 40
40.0
 40
41.0
 40
41.0
 40
41.0
 40
42.0
 40
42.0
 40
42.0
 40
43.0
 40
43.0
 40
43.0
 40
44.0
 40
44.0
 40
44.0
 40
45.0
 40
45.0
 40
45.0
 40
46.0
 40
46.0
 40
46.0
 40
47.0
 40
47.0
 40
47.0
 40
48.0
 40
48.0
 40
48.0
 40
49.0
 40
49.0
 40
49.0
 40
50.0
 40
50.0
 40
50.0
 40
51.0
 40
51.0
 40
51.0
 40
52.0
 40
52.0
 40
52.0
 40
53.0
 40
53.0
 40
53.0
 40
54.0
 40
54.0
 40
54.0
 40
55.0
 40
55.0
 40
55.0
 40
56.0
 40
56.0
 40
56.0
 40
57.0
 40
57.0
 40
57.0
 40
58.0
 40
58.0
 40
58.0
 40
59.0
 40
59.0
 40
59.0
 40
60.0
 40
60.0
 40
60.0
 40
61.0
 40
61.0
 40
61.0
 40
62.0
 40
62.0
 40
62.0
 40
63.0
 40
63.0
 40
63.0
 40
64.0
 40
64.0
 40
64.0
 40
65.0
 40
65.0
 40
65.0
 40
66.0
 40
66.0
 40
66.0
 40
67.0
 40
67.0
 40
67.0
 40
68.0
 40
68.0
 40
68.0
 40
69.0
 40
69.0
 40
69.0
 40
70.0
 40
70.0
 40
70.0
 40
71.0
 40
71.0
 40
71.0
 40
72.0
 40
72.0
 40
72.0
 40
73.0
 40
73.0
 40
73.0
 40
74.0
 40
74.0
 40
74.0
 40
75.0
 40
75.0
 40
75.0
 40
76.0
 40
76.0
 40
76.0
 40
77.0
 40
77.0
 40
77.0
 40
78.0
 40
78.0
 40
78.0
 40
79.0
 40
79.0
 40
79.0
 40
80.0
 40
80.0
 40
80.0
 40
81.0
 40
81.0
 40
81.0
 40
82.0
 40
82.0
 40
82.0
 40
83.0
 40
83.0
 40
83.0
 40
84.0
 40
84.0
 40
84.0
 40
85.0
 40
85.0
 40
85.0
 40
85.0
 10
1957.113552757877
 20
-1327.471729349283
 10
1952.362278789911
 20
-1328.948111235291
 10
1947.596772348745
 20
-1330.380846870177
 10
1942.844549549234
 20
-1331.854382261527
 10
1941.962136211221
 20
-1331.838252125235
 10
1941.093480930587
 20
-1331.792708211024
 10
1940.147021463161
 20
-1331.917953975131
 10
1920.699295674985
 20
-1334.496878117912
 10
1904.376072168656
 20
-1340.2031510372
 10
1887.7373621732
 20
-1348.779639383982
 10
1807.888917812241
 20
-1373.338246296191
 10
1727.951757701694
 20
-1397.60935724989
 10
1647.823882450346
 20
-1421.240955741407
 10
1575.21170187706
 20
-1442.65608374082
 10
1501.815786446548
 20
-1464.052235109308
 10
1427.049283847449
 20
-1476.946855823184
 10
1437.658643782119
 20
-1448.202952960328
 10
1447.014597244142
 20
-1418.988429650555
 10
1455.73008941246
 20
-1389.612604977889
 10
1514.869810860215
 20
-1389.923821725073
 10
1574.006211397536
 20
-1387.029885508939
 10
1632.860334549834
 20
-1381.096841850087
 10
1648.497552848199
 20
-1379.520832651724
 10
1658.123448885182
 20
-1369.973689633103
 10
1659.734564850714
 20
-1354.222137133409
 10
1667.276826812113
 20
-1280.490335335528
 10
1667.978487740547
 20
-1206.891369954101
 10
1659.412436540795
 20
-1133.198470249616
 10
1651.687998922571
 20
-1066.744206411644
 10
1644.554683357681
 20
-992.2571347029098
 10
1620.319153586937
 20
-929.5128022108838
 10
1599.186777388342
 20
-874.8050729158003
 10
1551.848622713129
 20
-872.0762333887033
 10
1500.190912423588
 20
-872.740415471093
 10
1495.862817325262
 20
-872.7963965323252
 10
1491.53519664273
 20
-872.8760983822103
 10
1487.207575960128
 20
-872.9339771065315
 10
1485.742580052638
 20
-841.0266698684227
 10
1480.070939484807
 20
-808.7663972950832
 10
1475.434948549715
 20
-777.2898595789848
 10
1471.905295197565
 20
-753.326170046279
 10
1471.985945879016
 20
-706.8172941425419
 10
1452.990812738401
 20
-688.9621821047567
 10
1437.315641178184
 20
-674.2277770226592
 10
1400.035100893521
 20
-679.8809153753609
 10
1380.690797743788
 20
-679.6721724351883
 10
1339.704595855193
 20
-679.2300169346145
 10
1298.718868382324
 20
-681.2889813900274
 10
1257.864554078571
 20
-684.444795112955
 10
1238.543971717605
 20
-670.1610850153284
 10
1221.335488378532
 20
-653.4939100734609
 10
1200.875359330521
 20
-640.7169444713436
 10
1180.057046373666
 20
-627.7160546242867
 10
1156.852896493754
 20
-619.396699626559
 10
1135.502289039478
 20
-607.3797480929843
 10
1091.074675132499
 20
-582.3732926909288
 10
1055.771974206073
 20
-545.6876697857715
 10
1018.582521749859
 20
-511.5031668366009
 10
1007.376821188356
 20
-494.9403633648362
 10
994.4546843596017
 20
-480.3302552152909
 10
979.3915091467125
 20
-469.0050018789752
 10
958.3051512781494
 20
-453.1519244038136
 10
935.0478668316164
 20
-444.0886854737983
 10
910.6624216765795
 20
-439.2857001865541
 10
915.1873993207764
 20
-401.3760845867055
 10
911.5348722833924
 20
-362.5593860286244
 10
909.8677752566055
 20
-324.5178828438529
 10
908.5289739448035
 20
-293.9645582222656
 10
907.5331752369611
 20
-263.2015418289629
 10
904.027717089235
 20
-232.7782071292095
 10
916.6282000237716
 20
-237.9531343825965
 10
926.9557569891676
 20
-218.4992411893327
 10
914.3381950868643
 20
-213.1070315118541
 10
909.6950879151827
 20
-211.1239735801446
 10
905.0201948866697
 20
-209.3648398933528
 10
900.3320182165717
 20
-207.7062823504584
 10
899.9956574333355
 20
-207.2223782618639
 10
899.4107027851142
 20
-207.0449467627041
 10
898.8247993052773
 20
-207.1787320107287
 10
806.3023375649864
 20
-175.1366906930489
 10
705.3874607978423
 20
-203.4384380553165
 10
609.1944442207641
 20
-200.276931343129
 10
604.7320894586383
 20
-198.8119354356859
 10
600.3176506896116
 20
-197.2805213200027
 10
595.7703755040575
 20
-195.9255898719111
 10
591.8578686230067
 20
-194.7585270699983
 10
589.1048338915198
 20
-196.4284705914324
 10
587.71764217087
 20
-198.9979064187519
 10
586.4504776407957
 20
-198.8859442962876
 10
585.1795177845634
 20
-198.8024471202243
 10
583.9147253333749
 20
-198.6772013561167
 10
580.1469152631189
 20
-198.3033617268829
 10
580.2688401168307
 20
-204.0456902449423
 10
583.9147253333749
 20
-204.506822376432
 10
584.9546447081357
 20
-204.6377611298103
 10
585.995987330145
 20
-204.7345419475296
 10
587.0363811206325
 20
-204.8559923854573
 10
587.5990382275668
 20
-207.1635507059946
 10
589.0412621779033
 20
-209.3173983160377
 10
591.7667807945581
 20
-210.4465078560988
 10
613.891160374862
 20
-219.6122205931151
 10
635.2275353559144
 20
-230.2666500262367
 10
655.9889184199446
 20
-242.1944113944519
 10
663.7403977371823
 20
-246.6482266726598
 10
671.5915043668901
 20
-251.1324045603469
 10
678.9107909148343
 20
-256.2807645304365
 10
692.5730163496701
 20
-265.8905304310956
 10
692.3467200258783
 20
-262.0306837008575
 10
684.8139463799553
 20
-277.7262551393178
 10
666.747244907363
 20
-315.3692490746598
 10
631.9673501629059
 20
-349.8810989073172
 10
602.5953208164319
 20
-378.6819316629262
 10
597.2723758418533
 20
-383.9024028305157
 10
598.2596350657204
 20
-393.7550696070393
 10
605.0039296966424
 20
-397.3758107876274
 10
640.786264969759
 20
-416.589649599684
 10
682.7507121826357
 20
-401.5487719281282
 10
720.4995008353753
 20
-397.1917374676395
 10
775.567311702288
 20
-390.8345661076055
 10
830.4757188693857
 20
-393.0984781770094
 10
885.3656238213543
 20
-400.1862498276878
 10
885.4121165671359
 20
-400.192891648514
 10
885.4510186605094
 20
-400.1843521645969
 10
885.4975114062663
 20
-400.1900451538677
 10
885.5245531053724
 20
-412.1614527732181
 10
886.0952752804405
 20
-424.091111804526
 10
887.3605421474485
 20
-435.9477108067749
 10
836.6967329025438
 20
-431.1997577492184
 10
782.6949342778835
 20
-440.8958673205871
 10
733.8794488851181
 20
-444.6285706236267
 10
733.848137444129
 20
-444.6314171182748
 10
733.8277375658618
 20
-444.648496086098
 10
733.796426124849
 20
-444.6522914122779
 10
731.0400704829544
 20
-443.2935646380301
 10
728.1997432491762
 20
-442.0316186814762
 10
725.2702258500158
 20
-440.8759418581176
 10
717.3531754278983
 20
-437.7542860708836
 10
714.1546642854164
 20
-450.3300993852008
 10
721.7832699174896
 20
-453.5238663699565
 10
752.088000673939
 20
-466.2097441436472
 10
771.5537542615184
 20
-492.6584234960392
 10
783.2300752699857
 20
-524.5752190496241
 10
632.4522030830931
 20
-615.543494717138
 10
470.7034661423249
 20
-675.88443690245
 10
296.9368288364958
 20
-695.0214203592714
 10
296.0041274264968
 20
-694.8914304374266
 10
295.0794910847007
 20
-694.7775706518714
 10
294.1458408431572
 20
-694.6466318984822
 10
207.6095573283019
 20
-682.4864068014413
 10
121.3560256142209
 20
-676.694739042965
 10
51.56661889105999
 20
-737.7672303504678
 10
45.62551016411089
 20
-742.965878392506
 10
52.95950360100323
 20
-752.9826930265353
 10
59.63453352908527
 20
-749.5270485349993
 10
60.36418498810144
 20
-751.0575138191361
 10
61.79692062303366
 20
-752.2853018400183
 10
64.15666467860046
 20
-752.7388433191354
 10
92.99023212253996
 20
-758.2790707178283
 10
120.324645723389
 20
-763.5507787889346
 10
101.9476763351449
 20
-801.8418246703768
 10
92.75919164106926
 20
-820.9863987795597
 10
73.81671865118551
 20
-843.2013917724798
 10
60.71145733408321
 20
-859.2802911556482
 10
51.8816309644144
 20
-870.1121520879187
 10
60.16113503721226
 20
-884.5780378424188
 10
74.03637315418473
 20
-882.1699033779678
 10
128.9177386222473
 20
-872.6474299795664
 10
181.77856731252
 20
-858.9576884299095
 10
237.7510890587801
 20
-855.2382687685149
 10
271.3762558114468
 20
-853.0037704770439
 10
305.057403625322
 20
-853.0901141477552
 10
338.6180498328267
 20
-855.287608008919
 10
299.9024018344171
 20
-864.3128936770936
 10
255.5208062573993
 20
-869.1101859750434
 10
227.1346128875221
 20
-899.4671024665568
 10
220.1270175025247
 20
-906.9609740190244
 10
218.1591408755367
 20
-918.4816866538931
 10
223.515294954288
 20
-927.5174094690647
 10
225.2227173217898
 20
-930.3971132120114
 10
226.9301396892915
 20
-933.2777657864917
 10
228.6375620567933
 20
-936.1584183609848
 10
230.4977463033392
 20
-939.2962042845102
 10
232.8769414055578
 20
-941.5762464902164
 10
235.4995117994513
 20
-943.2518830009321
 10
232.2639962266858
 20
-1061.489577308372
 10
214.8538861841116
 20
-1181.391522147975
 10
200.4468279855137
 20
-1298.58550175452
 10
199.0866779639
 20
-1309.650775247159
 10
211.7066119450892
 20
-1321.812898007312
 10
222.5508076874803
 20
-1320.689481456522
 10
281.1606067166294
 20
-1314.624550212735
 10
340.8255064252144
 20
-1307.934338979954
 10
399.8964375858295
 20
-1298.694617382325
 10
406.3698408102937
 20
-1329.673018536652
 10
411.9503935497223
 20
-1360.595438629734
 10
417.513392905521
 20
-1391.687699569604
 10
365.3352485127798
 20
-1391.810098839065
 10
313.3074939201742
 20
-1394.185973030933
 10
260.4390745775163
 20
-1399.135078376303
 10
254.5909513420829
 20
-1399.681605346957
 10
254.4913240297283
 20
-1408.858704062528
 10
260.4390745775163
 20
-1408.365311658457
 10
263.2329090655376
 20
-1408.132847929621
 10
265.9854693812749
 20
-1407.997165018505
 10
268.7636481488007
 20
-1407.800756888431
 10
268.5957049650578
 20
-1412.279241786848
 10
271.3805255533998
 20
-1416.673280677644
 10
277.3719223523576
 20
-1416.558472060531
 10
329.6088943009654
 20
-1415.561250105406
 10
342.5367241189206
 20
-1467.732752677308
 10
350.8323583280089
 20
-1508.471783948142
 10
357.5766529589309
 20
-1541.592646733945
 10
364.6250481004154
 20
-1573.502800466691
 10
375.7999116366555
 20
-1605.488860723151
 10
391.311884170902
 20
-1649.886586436423
 10
411.6306373186198
 20
-1720.712117208084
 10
450.7229714409095
 20
-1749.974082095183
 10
467.6387402478922
 20
-1762.636239080175
 10
488.9670501608334
 20
-1761.294591273763
 10
509.0713673790278
 20
-1761.319260893983
 10
545.0059901153227
 20
-1761.362907145127
 10
580.9444081777747
 20
-1761.084899502081
 10
616.8776076667054
 20
-1760.786017564958
 10
691.3129680561606
 20
-1760.168328228325
 10
765.7435842879358
 20
-1759.028781541279
 10
840.1628145410768
 20
-1757.372121661499
 10
988.9979541370212
 20
-1754.060699564961
 10
1137.785652155615
 20
-1748.662796898225
 10
1286.469927535651
 20
-1741.194543797521
 10
1322.358531941985
 20
-1739.391763859607
 10
1358.240494527385
 20
-1737.469431146796
 10
1394.116289707836
 20
-1735.424699164596
 10
1419.178726171158
 20
-1733.996707687482
 10
1450.126764715948
 20
-1736.711314741391
 10
1472.997874723125
 20
-1724.135501427016
 10
1494.172473925526
 20
-1712.492389522686
 10
1509.130803252539
 20
-1688.327547702205
 10
1524.757584403931
 20
-1670.68497393076
 10
1546.295111672853
 20
-1646.367370231304
 10
1568.538095196343
 20
-1622.669353531548
 10
1591.441939891851
 20
-1599.634570082639
 10
1642.738145362351
 20
-1548.046598911698
 10
1699.497722876269
 20
-1487.270143046637
 10
1764.019691270241
 20
-1452.366425785389
 10
1792.448582059651
 20
-1436.987764083373
 10
1825.160024033314
 20
-1434.313956785974
 10
1854.103655936628
 20
-1420.146952968549
 10
1877.902723196032
 20
-1408.498148074937
 10
1897.382234841087
 20
-1390.40582815058
 10
1920.752904657333
 20
-1379.288368922878
 10
1936.309472274246
 20
-1374.484434804088
 10
1951.897351332242
 20
-1369.778230334574
 10
1967.444905049522
 20
-1364.946780100941
 10
1991.25298620863
 20
-1357.549689366191
 10
1981.092898011111
 20
-1320.01960638486
 10
1957.113552757877
 20
-1327.471729349283
 97
        0
 97
        0
 92
        1
 93
        1
 72
     4
 94
        3
 73
     0
 74
     1
 95
       38
 96
       34
 40
0.0
 40
0.0
 40
0.0
 40
0.0
 40
1.0
 40
1.0
 40
1.0
 40
2.0
 40
2.0
 40
2.0
 40
3.0
 40
3.0
 40
3.0
 40
4.0
 40
4.0
 40
4.0
 40
5.0
 40
5.0
 40
5.0
 40
6.0
 40
6.0
 40
6.0
 40
7.0
 40
7.0
 40
7.0
 40
8.0
 40
8.0
 40
8.0
 40
9.0
 40
9.0
 40
9.0
 40
10.0
 40
10.0
 40
10.0
 40
11.0
 40
11.0
 40
11.0
 40
11.0
 10
749.0436746577261
 20
-362.7757196211805
 10
731.0405448986803
 20
-364.9732134823571
 10
713.0877032116423
 20
-367.5739607506875
 10
695.2710188514466
 20
-370.9907031488274
 10
676.1245470791973
 20
-374.6626812329105
 10
653.558011998377
 20
-383.9441514185601
 10
633.2397332664787
 20
-381.6735975283264
 10
653.6861042571318
 20
-360.97199085172
 10
673.5024511011006
 20
-339.3936638263349
 10
691.5928733623678
 20
-316.7279758489331
 10
700.7709209094473
 20
-305.2290863396374
 10
722.5347445021143
 20
-283.5663133066428
 10
720.7590062633162
 20
-266.89439420706
 10
718.8575478445573
 20
-249.0440263270011
 10
698.8770531430955
 20
-241.4657087669002
 10
684.5776873249633
 20
-233.2659065439984
 10
666.7880446638264
 20
-223.0640697584586
 10
648.5918276851617
 20
-214.7826680225717
 10
629.8277350260169
 20
-207.61139919583
 10
719.8452814842431
 20
-209.2946263589311
 10
810.3528994359922
 20
-189.5124374506559
 10
894.8771856569874
 20
-228.4676654144896
 10
890.9471253923521
 20
-260.2924243080815
 10
889.9171687488615
 20
-292.526129598109
 10
888.5152701391926
 20
-324.5178828438529
 10
888.0546124234988
 20
-335.0261922188383
 10
887.4426160761714
 20
-345.5942779812376
 10
886.8842287111902
 20
-356.1813403745618
 10
886.3637946080371
 20
-356.1338987972595
 10
885.9074066343192
 20
-355.9953693915086
 10
885.3656238213543
 20
-355.9782904236727
 10
839.6343153698135
 20
-354.5844568821831
 10
794.448110641576
 20
-357.2345433909322
 10
749.0436746577261
 20
-362.7757196211805
 97
        0
 97
        0
 92
        1
 93
        1
 72
     4
 94
        3
 73
     0
 74
     1
 95
       41
 96
       37
 40
0.0
 40
0.0
 40
0.0
 40
0.0
 40
1.0
 40
1.0
 40
1.0
 40
2.0
 40
2.0
 40
2.0
 40
3.0
 40
3.0
 40
3.0
 40
4.0
 40
4.0
 40
4.0
 40
5.0
 40
5.0
 40
5.0
 40
6.0
 40
6.0
 40
6.0
 40
7.0
 40
7.0
 40
7.0
 40
8.0
 40
8.0
 40
8.0
 40
9.0
 40
9.0
 40
9.0
 40
10.0
 40
10.0
 40
10.0
 40
11.0
 40
11.0
 40
11.0
 40
12.0
 40
12.0
 40
12.0
 40
12.0
 10
1341.421980953965
 20
-1487.503555607029
 10
1312.73975214159
 20
-1489.461943918543
 10
1263.390549004085
 20
-1478.85780255737
 10
1239.621369938399
 20
-1499.620134452947
 10
1235.680872526696
 20
-1503.062495302829
 10
1234.201169730259
 20
-1507.981238038717
 10
1230.673888456993
 20
-1511.551691147355
 10
1216.889263752721
 20
-1525.506156698404
 10
1206.313587337972
 20
-1528.853634393668
 10
1187.065116174483
 20
-1531.491386092306
 10
1171.66225926802
 20
-1533.603485114316
 10
1155.132190484619
 20
-1533.241031463636
 10
1138.809915809788
 20
-1532.724867102459
 10
1162.484211720917
 20
-1515.810995958567
 10
1184.579651938977
 20
-1497.081061235118
 10
1203.516431939544
 20
-1474.451428856477
 10
1213.722538467047
 20
-1462.255148160664
 10
1222.445621287727
 20
-1449.062594341258
 10
1230.238374777269
 20
-1435.213449091847
 10
1237.684804752424
 20
-1421.979146684398
 10
1251.009720572547
 20
-1381.963125051834
 10
1266.953411460361
 20
-1373.774708807485
 10
1271.935251494095
 20
-1376.177150282652
 10
1277.554706326851
 20
-1377.877456413577
 10
1283.725906703819
 20
-1379.17545796888
 10
1319.005361257437
 20
-1386.599115986926
 10
1357.879464124069
 20
-1386.545032588785
 10
1393.810291534137
 20
-1388.117246460966
 10
1407.009012758575
 20
-1388.694136041102
 10
1420.212952556532
 20
-1389.047101376307
 10
1433.417841186083
 20
-1389.29854173608
 10
1422.658565867096
 20
-1419.410659688647
 10
1412.651713964304
 20
-1449.816915420553
 10
1404.13357875765
 20
-1480.626424559627
 10
1383.342781915628
 20
-1483.690201622549
 10
1362.446664772071
 20
-1486.067024645963
 10
1341.421980953965
 20
-1487.503555607029
 97
        0
 97
        0
 92
        1
 93
        1
 72
     4
 94
        3
 73
     0
 74
     1
 95
       29
 96
       25
 40
0.0
 40
0.0
 40
0.0
 40
0.0
 40
1.0
 40
1.0
 40
1.0
 40
2.0
 40
2.0
 40
2.0
 40
3.0
 40
3.0
 40
3.0
 40
4.0
 40
4.0
 40
4.0
 40
5.0
 40
5.0
 40
5.0
 40
6.0
 40
6.0
 40
6.0
 40
7.0
 40
7.0
 40
7.0
 40
8.0
 40
8.0
 40
8.0
 40
8.0
 10
802.8799021775294
 20
-1534.681357750882
 10
802.0435071695001
 20
-1524.237568921024
 10
801.2075865772431
 20
-1513.792831259654
 10
800.3711915692147
 20
-1503.349042429805
 10
799.7530278167733
 20
-1495.627451306216
 10
795.3101241013701
 20
-1488.262620844049
 10
787.3532227543337
 20
-1486.250149134405
 10
767.7551071660464
 20
-1481.294401968196
 10
747.9577369530034
 20
-1477.315951294679
 10
728.0128234345766
 20
-1474.407782605344
 10
749.9123299383127
 20
-1458.359245831665
 10
771.3421648266758
 20
-1441.680684911244
 10
793.1126302401817
 20
-1425.377861283157
 10
799.5689544967863
 20
-1420.542615723356
 10
807.8902071576395
 20
-1415.772839540225
 10
816.3855704072093
 20
-1410.674767642085
 10
846.1859971968424
 20
-1419.623197955012
 10
876.2487759090054
 20
-1427.846720966565
 10
906.5250417190782
 20
-1435.22673273349
 10
881.6096741454357
 20
-1465.500152048928
 10
860.9588299565985
 20
-1501.490281430659
 10
839.7666773705214
 20
-1534.374885161435
 10
827.4707693623423
 20
-1534.47641013688
 10
815.1758101857085
 20
-1534.57888394387
 10
802.8799021775294
 20
-1534.681357750882
 97
        0
 97
        0
 92
        1
 93
        1
 72
     4
 94
        3
 73
     0
 74
     1
 95
      119
 96
      115
 40
0.0
 40
0.0
 40
0.0
 40
0.0
 40
1.0
 40
1.0
 40
1.0
 40
2.0
 40
2.0
 40
2.0
 40
3.0
 40
3.0
 40
3.0
 40
4.0
 40
4.0
 40
4.0
 40
5.0
 40
5.0
 40
5.0
 40
6.0
 40
6.0
 40
6.0
 40
7.0
 40
7.0
 40
7.0
 40
8.0
 40
8.0
 40
8.0
 40
9.0
 40
9.0
 40
9.0
 40
10.0
 40
10.0
 40
10.0
 40
11.0
 40
11.0
 40
11.0
 40
12.0
 40
12.0
 40
12.0
 40
13.0
 40
13.0
 40
13.0
 40
14.0
 40
14.0
 40
14.0
 40
15.0
 40
15.0
 40
15.0
 40
16.0
 40
16.0
 40
16.0
 40
17.0
 40
17.0
 40
17.0
 40
18.0
 40
18.0
 40
18.0
 40
19.0
 40
19.0
 40
19.0
 40
20.0
 40
20.0
 40
20.0
 40
21.0
 40
21.0
 40
21.0
 40
22.0
 40
22.0
 40
22.0
 40
23.0
 40
23.0
 40
23.0
 40
24.0
 40
24.0
 40
24.0
 40
25.0
 40
25.0
 40
25.0
 40
26.0
 40
26.0
 40
26.0
 40
27.0
 40
27.0
 40
27.0
 40
28.0
 40
28.0
 40
28.0
 40
29.0
 40
29.0
 40
29.0
 40
30.0
 40
30.0
 40
30.0
 40
31.0
 40
31.0
 40
31.0
 40
32.0
 40
32.0
 40
32.0
 40
33.0
 40
33.0
 40
33.0
 40
34.0
 40
34.0
 40
34.0
 40
35.0
 40
35.0
 40
35.0
 40
36.0
 40
36.0
 40
36.0
 40
37.0
 40
37.0
 40
37.0
 40
38.0
 40
38.0
 40
38.0
 40
38.0
 10
657.8547956556458
 20
-841.3625562358047
 10
672.5303731819095
 20
-842.4242987360794
 10
687.1366860052622
 20
-844.7460895298191
 10
702.0722433751462
 20
-844.4158961517187
 10
724.209432181262
 20
-843.9262990738407
 10
746.453838952164
 20
-841.3426307733334
 10
768.4790656358382
 20
-839.2390712352408
 10
809.8689953474204
 20
-835.2862390134651
 10
851.142693194538
 20
-830.2688177967648
 10
892.3139172347355
 20
-824.4771500383013
 10
971.7344385682845
 20
-813.3046585809352
 10
1051.2080944685
 20
-802.1995341633319
 10
1129.327293336351
 20
-783.9829173064009
 10
1171.263275602851
 20
-905.514954742508
 10
1173.484015836848
 20
-1034.20307970061
 10
1148.995622459071
 20
-1160.53240943468
 10
1137.822182170174
 20
-1218.173925870853
 10
1125.27388497064
 20
-1281.144080270898
 10
1097.394367646488
 20
-1333.47024238483
 10
1093.380810205788
 20
-1341.002067199161
 10
1088.573555176568
 20
-1349.356528964117
 10
1083.045188172191
 20
-1357.516480262066
 10
1130.675108547808
 20
-1224.236959451537
 10
1126.521598453994
 20
-1078.460378345029
 10
1123.15609295936
 20
-938.2040991747435
 10
1122.968698728964
 20
-930.3952155489096
 10
1111.155745977883
 20
-930.372443591803
 10
1111.011049167089
 20
-938.2040991747435
 10
1108.522264021176
 20
-1072.924895104064
 10
1090.169964253151
 20
-1205.605703208897
 10
1033.480125857892
 20
-1326.939434851829
 10
1064.817185336717
 20
-1220.640887891159
 10
1073.375171468335
 20
-1105.553314317354
 10
1068.68462271928
 20
-997.0107807497498
 10
1068.348736351934
 20
-989.2351062280304
 10
1056.318975592512
 20
-989.1639438620532
 10
1056.53957892701
 20
-997.0107807497498
 10
1058.588580651176
 20
-1069.843090241771
 10
1051.052960510688
 20
-1136.898913280074
 10
1028.587950405265
 20
-1206.323019857884
 10
1021.435658209519
 20
-1228.425101896795
 10
1013.258153527915
 20
-1249.642872934579
 10
1004.361908950041
 20
-1270.402358335532
 10
1006.239646580103
 20
-1257.63393221731
 10
1008.003998840451
 20
-1244.986956537015
 10
1009.770248763798
 20
-1232.735643611526
 10
1018.345313863274
 20
-1173.24864981785
 10
1015.513051697606
 20
-1113.830920727049
 10
1013.873470785675
 20
-1053.944468852409
 10
1013.821759466418
 20
-1052.050601086023
 10
1011.10051059167
 20
-1052.088554347885
 10
1010.958660275488
 20
-1053.944468852409
 10
1006.369162086199
 20
-1114.022584699398
 10
991.2352989231267
 20
-1172.568337599168
 10
976.1341704484093
 20
-1230.728864891154
 10
970.5104458736068
 20
-1252.389740261046
 10
962.8704542629912
 20
-1273.204257891686
 10
954.7337493379446
 20
-1293.785362961911
 10
959.4446979651957
 20
-1242.34256301755
 10
955.9017609714374
 20
-1188.80758951365
 10
946.2739672713396
 20
-1142.049170913253
 10
945.3502797610663
 20
-1137.561197699386
 10
937.6552559207639
 20
-1138.484410793899
 10
938.1628807980351
 20
-1143.14696901229
 10
942.6404168649287
 20
-1184.272174722468
 10
939.2829764384287
 20
-1225.247465048329
 10
927.2242763168333
 20
-1264.977888385472
 10
916.3340622444102
 20
-1300.858902139387
 10
899.0790861596506
 20
-1335.100334981345
 10
891.2056819886784
 20
-1371.809678675143
 10
891.158714827171
 20
-1372.028858762334
 10
891.1705752214621
 20
-1372.224318060864
 10
891.1288266334532
 20
-1372.441600484965
 10
889.7364163392358
 20
-1372.095276970564
 10
888.3539687763587
 20
-1371.708153699687
 10
886.9625073137559
 20
-1371.358983690674
 10
897.2540086803901
 20
-1311.844473782154
 10
907.3913249207781
 20
-1251.221728627588
 10
887.3999186565707
 20
-1192.813556302035
 10
884.0865988970127
 20
-1183.133576866932
 10
869.3265753631395
 20
-1186.984884113264
 10
871.9410806889218
 20
-1197.074758776349
 10
885.68395680514
 20
-1250.113493381543
 10
862.9769946554779
 20
-1297.492447813209
 10
844.3220176241857
 20
-1345.78987118166
 10
846.0749839059235
 20
-1319.531906970071
 10
838.8724036381236
 20
-1288.474752797418
 10
837.1920229697271
 20
-1268.259896704032
 10
836.4509855321003
 20
-1259.347521989877
 10
822.6862862902271
 20
-1259.104621114035
 10
823.1037721706416
 20
-1268.259896704032
 10
824.1028917888461
 20
-1290.178854254513
 10
819.2723903867691
 20
-1309.472394916465
 10
810.0592360724504
 20
-1329.350415810914
 10
806.7554046282967
 20
-1336.47803838652
 10
803.4909496933114
 20
-1342.397798403728
 10
800.9798670061336
 20
-1348.296684126919
 10
781.7261772691227
 20
-1342.867470019135
 10
762.4985803996724
 20
-1337.360451724559
 10
743.3098856235492
 20
-1331.778475737823
 10
727.378529545892
 20
-1327.145331297377
 10
700.8425576912441
 20
-1324.630927699745
 10
687.0218773881388
 20
-1315.96430035607
 10
683.7963245466208
 20
-1316.781244317412
 10
680.5707717050327
 20
-1317.598188278766
 10
677.3452188635147
 20
-1318.414183408551
 10
677.3058423543225
 20
-1308.443861520303
 10
677.5458967355416
 20
-1298.481130284415
 10
678.0658564228752
 20
-1288.524092037811
 10
679.4241087813989
 20
-1253.70197428955
 10
682.271077835946
 20
-1218.911167982311
 10
685.4311613008513
 20
-1184.2133471666
 10
696.0191725257328
 20
-1067.955864296224
 10
705.0567930039706
 20
-949.4477529980977
 10
657.8547956556458
 20
-841.3625562358047
 97
        0
 97
        0
 92
        1
 93
        1
 72
     4
 94
        3
 73
     0
 74
     1
 95
       50
 96
       46
 40
0.0
 40
0.0
 40
0.0
 40
0.0
 40
1.0
 40
1.0
 40
1.0
 40
2.0
 40
2.0
 40
2.0
 40
3.0
 40
3.0
 40
3.0
 40
4.0
 40
4.0
 40
4.0
 40
5.0
 40
5.0
 40
5.0
 40
6.0
 40
6.0
 40
6.0
 40
7.0
 40
7.0
 40
7.0
 40
8.0
 40
8.0
 40
8.0
 40
9.0
 40
9.0
 40
9.0
 40
10.0
 40
10.0
 40
10.0
 40
11.0
 40
11.0
 40
11.0
 40
12.0
 40
12.0
 40
12.0
 40
13.0
 40
13.0
 40
13.0
 40
14.0
 40
14.0
 40
14.0
 40
15.0
 40
15.0
 40
15.0
 40
15.0
 10
933.1715524488263
 20
-1441.595290072089
 10
949.6968770745934
 20
-1445.322300385858
 10
966.2634758725271
 20
-1448.821591128517
 10
982.8784650793086
 20
-1451.975507188332
 10
1031.108046992191
 20
-1461.127936283692
 10
1066.395566613919
 20
-1457.289912679016
 10
1103.889119580741
 20
-1423.184162748174
 10
1165.909493602987
 20
-1366.766639006702
 10
1190.130316484712
 20
-1272.452783307015
 10
1204.03307071647
 20
-1187.275226566422
 10
1226.263245014125
 20
-1165.334445890379
 10
1247.51944372959
 20
-1142.534023833396
 10
1267.589603012113
 20
-1118.579822616164
 10
1266.980927575194
 20
-1126.435198987767
 10
1266.30915484043
 20
-1134.283933538542
 10
1265.543922198378
 20
-1142.110844963756
 10
1261.723451977297
 20
-1181.19511401789
 10
1256.764383900718
 20
-1220.191141738234
 10
1252.42632607112
 20
-1259.221327394225
 10
1249.378679144475
 20
-1286.640661418467
 10
1238.432958426685
 20
-1324.596769764084
 10
1247.350551714302
 20
-1351.414544587984
 10
1247.872883480544
 20
-1352.98580962861
 10
1248.522358673976
 20
-1354.369206023068
 10
1249.160447888864
 20
-1355.769681385371
 10
1249.229238175978
 20
-1357.339048762919
 10
1249.364446671321
 20
-1358.999503968889
 10
1249.639133403938
 20
-1360.844032494861
 10
1251.540591822697
 20
-1373.609612118424
 10
1232.757048116831
 20
-1399.047785874047
 10
1227.076868065094
 20
-1410.340778937805
 10
1217.240331424837
 20
-1429.896197106516
 10
1206.940290574272
 20
-1448.218134265084
 10
1193.077861683229
 20
-1465.293306771822
 10
1172.669443954404
 20
-1490.431649758824
 10
1147.541538114398
 20
-1511.304046113775
 10
1122.838234391395
 20
-1532.264683802516
 10
1118.525320597812
 20
-1532.16695415325
 10
1114.242294997925
 20
-1532.096740618819
 10
1110.048459563372
 20
-1532.130898554489
 10
1029.651590568701
 20
-1532.798875963073
 10
949.254721574006
 20
-1533.466853371656
 10
868.8578525792655
 20
-1534.132933117126
 10
891.5686100551311
 20
-1504.406040772355
 10
915.935078579243
 20
-1473.895413570359
 10
933.1715524488263
 20
-1441.595290072089
 97
        0
 97
        0
 92
        1
 93
        1
 72
     4
 94
        3
 73
     0
 74
     1
 95
       14
 96
       10
 40
0.0
 40
0.0
 40
0.0
 40
0.0
 40
1.0
 40
1.0
 40
1.0
 40
2.0
 40
2.0
 40
2.0
 40
3.0
 40
3.0
 40
3.0
 40
3.0
 10
1540.604968889775
 20
-1337.527446076721
 10
1540.669015019188
 20
-1337.795016572762
 10
1540.723572833078
 20
-1338.068280058071
 10
1540.796158446397
 20
-1338.331106396397
 10
1540.748242453299
 20
-1338.335850554135
 10
1540.700800875995
 20
-1338.33869704877
 10
1540.653359298693
 20
-1338.343441206496
 10
1540.637703578199
 20
-1338.070177721185
 10
1540.620624610339
 20
-1337.798811898941
 10
1540.604968889775
 20
-1337.527446076721
 97
        0
 97
        0
 92
        1
 93
        1
 72
     4
 94
        3
 73
     0
 74
     1
 95
       80
 96
       76
 40
0.0
 40
0.0
 40
0.0
 40
0.0
 40
1.0
 40
1.0
 40
1.0
 40
2.0
 40
2.0
 40
2.0
 40
3.0
 40
3.0
 40
3.0
 40
4.0
 40
4.0
 40
4.0
 40
5.0
 40
5.0
 40
5.0
 40
6.0
 40
6.0
 40
6.0
 40
7.0
 40
7.0
 40
7.0
 40
8.0
 40
8.0
 40
8.0
 40
9.0
 40
9.0
 40
9.0
 40
10.0
 40
10.0
 40
10.0
 40
11.0
 40
11.0
 40
11.0
 40
12.0
 40
12.0
 40
12.0
 40
13.0
 40
13.0
 40
13.0
 40
14.0
 40
14.0
 40
14.0
 40
15.0
 40
15.0
 40
15.0
 40
16.0
 40
16.0
 40
16.0
 40
17.0
 40
17.0
 40
17.0
 40
18.0
 40
18.0
 40
18.0
 40
19.0
 40
19.0
 40
19.0
 40
20.0
 40
20.0
 40
20.0
 40
21.0
 40
21.0
 40
21.0
 40
22.0
 40
22.0
 40
22.0
 40
23.0
 40
23.0
 40
23.0
 40
24.0
 40
24.0
 40
24.0
 40
25.0
 40
25.0
 40
25.0
 40
25.0
 10
1533.875381147895
 20
-922.1195068023153
 10
1574.294181771853
 20
-924.1462109851473
 10
1585.485649860133
 20
-948.8319613245785
 10
1592.50036148172
 20
-985.4435753691232
 10
1614.12802774752
 20
-1098.316576113917
 10
1614.819725944755
 20
-1216.077008153588
 10
1607.57160176272
 20
-1330.809718729086
 10
1604.492168979337
 20
-1331.224358114794
 10
1601.416531522134
 20
-1331.678848425468
 10
1598.334726659796
 20
-1332.07546001182
 10
1598.492232696473
 20
-1330.802128076713
 10
1598.74414747196
 20
-1329.593316686769
 10
1598.748417213912
 20
-1328.216562113115
 10
1599.089996570647
 20
-1220.752850013623
 10
1591.043905058228
 20
-1101.984758871818
 10
1557.726634142282
 20
-999.2917717869896
 10
1554.934222901695
 20
-990.6858696622858
 10
1542.058104402904
 20
-994.1709279317438
 10
1544.141264062764
 20
-1003.037758731685
 10
1557.135986504767
 20
-1058.34514956402
 10
1562.20179813036
 20
-1113.528243463794
 10
1559.747645335867
 20
-1170.242751479249
 10
1557.453845072803
 20
-1223.24827698033
 10
1546.080675743353
 20
-1275.027912123605
 10
1540.043735030182
 20
-1327.600770439583
 10
1535.015402250667
 20
-1236.6125693096
 10
1532.382394709755
 20
-1141.426737418895
 10
1506.434698413828
 20
-1054.462530876664
 10
1504.720159809693
 20
-1048.714509369334
 10
1496.406972217019
 20
-1051.129285654601
 10
1497.534184093978
 20
-1056.916209255327
 10
1507.065671392083
 20
-1105.834168455049
 10
1513.806170696847
 20
-1158.698318055729
 10
1508.951948506119
 20
-1208.528104371422
 10
1506.734529182484
 20
-1231.288675503452
 10
1503.167396984232
 20
-1253.777880813253
 10
1498.963124402706
 20
-1276.157021663677
 10
1494.8414001657
 20
-1227.702092258525
 10
1488.07480799342
 20
-1179.215851412373
 10
1481.116077433067
 20
-1131.581661294755
 10
1480.321905428818
 20
-1126.144856534598
 10
1471.375372778959
 20
-1127.465630047018
 10
1471.573678572171
 20
-1132.873021029241
 10
1474.219969754691
 20
-1205.019325313298
 10
1466.071878851102
 20
-1272.593210375881
 10
1454.257502852681
 20
-1343.404508674328
 10
1453.377936009301
 20
-1343.429178294537
 10
1452.498369165853
 20
-1343.445308430815
 10
1451.618327906725
 20
-1343.468080387922
 10
1451.374952615097
 20
-1297.754325319966
 10
1441.971557575747
 20
-1249.37720010163
 10
1433.269823464811
 20
-1205.303974777175
 10
1431.912994353675
 20
-1198.432536719065
 10
1422.037555620043
 20
-1201.516239244447
 10
1422.963615209203
 20
-1208.14572525827
 10
1429.944643310915
 20
-1258.11688747436
 10
1421.551753868334
 20
-1297.716372058127
 10
1407.829277630382
 20
-1343.964319286628
 10
1374.823223461633
 20
-1343.816301565414
 10
1336.622790992878
 20
-1346.336398152316
 10
1304.137170927281
 20
-1339.70975863314
 10
1281.048778496035
 20
-1334.999758837435
 10
1281.564468441487
 20
-1334.994065848152
 10
1281.772262550079
 20
-1310.561653531597
 10
1281.917908192419
 20
-1293.463709067717
 10
1282.627159773238
 20
-1276.265188459951
 10
1284.003439931141
 20
-1259.221327394225
 10
1293.091348481317
 20
-1146.654799238868
 10
1315.407866449741
 20
-1036.230732714999
 10
1283.440782824207
 20
-927.740384882436
 10
1338.04556389654
 20
-926.28203079581
 10
1392.653191463436
 20
-924.907173885269
 10
1447.265563188153
 20
-923.7391622518007
 10
1475.884220286913
 20
-923.1271659044614
 10
1505.292305232148
 20
-920.6867711674295
 10
1533.875381147895
 20
-922.1195068023153
 97
        0
 97
        0
 92
        1
 93
        1
 72
     4
 94
        3
 73
     0
 74
     1
 95
       23
 96
       19
 40
0.0
 40
0.0
 40
0.0
 40
0.0
 40
1.0
 40
1.0
 40
1.0
 40
2.0
 40
2.0
 40
2.0
 40
3.0
 40
3.0
 40
3.0
 40
4.0
 40
4.0
 40
4.0
 40
5.0
 40
5.0
 40
5.0
 40
6.0
 40
6.0
 40
6.0
 40
6.0
 10
1343.344313666646
 20
-700.6641215649543
 10
1363.56818365976
 20
-701.0446030150142
 10
1422.919020126512
 20
-693.1171154459007
 10
1437.189446582519
 20
-709.6182448671498
 10
1445.77020467122
 20
-719.5401763465397
 10
1439.168234772229
 20
-772.5599343208069
 10
1437.763015252269
 20
-792.6153867144039
 10
1381.931394990577
 20
-793.5803483969721
 10
1325.400011463516
 20
-801.1074290535653
 10
1269.489163767783
 20
-806.5214618566042
 10
1284.128685695214
 20
-784.2419483185331
 10
1299.748825025814
 20
-758.8199046992013
 10
1298.439911907684
 20
-736.4388661856847
 10
1297.533303365246
 20
-720.936856382652
 10
1289.101511829293
 20
-709.7710067461012
 10
1277.951317913203
 20
-701.1062770655171
 10
1299.743606452246
 20
-700.5502617793991
 10
1321.536843822905
 20
-700.2523286738797
 10
1343.344313666646
 20
-700.6641215649543
 97
        0
 97
        0
 92
        1
 93
        1
 72
     4
 94
        3
 73
     0
 74
     1
 95
       71
 96
       67
 40
0.0
 40
0.0
 40
0.0
 40
0.0
 40
1.0
 40
1.0
 40
1.0
 40
2.0
 40
2.0
 40
2.0
 40
3.0
 40
3.0
 40
3.0
 40
4.0
 40
4.0
 40
4.0
 40
5.0
 40
5.0
 40
5.0
 40
6.0
 40
6.0
 40
6.0
 40
7.0
 40
7.0
 40
7.0
 40
8.0
 40
8.0
 40
8.0
 40
9.0
 40
9.0
 40
9.0
 40
10.0
 40
10.0
 40
10.0
 40
11.0
 40
11.0
 40
11.0
 40
12.0
 40
12.0
 40
12.0
 40
13.0
 40
13.0
 40
13.0
 40
14.0
 40
14.0
 40
14.0
 40
15.0
 40
15.0
 40
15.0
 40
16.0
 40
16.0
 40
16.0
 40
17.0
 40
17.0
 40
17.0
 40
18.0
 40
18.0
 40
18.0
 40
19.0
 40
19.0
 40
19.0
 40
20.0
 40
20.0
 40
20.0
 40
21.0
 40
21.0
 40
21.0
 40
22.0
 40
22.0
 40
22.0
 40
22.0
 10
1107.467163341738
 20
-616.6450881423661
 10
1153.408637980758
 20
-648.1178305322737
 10
1202.934323785888
 20
-665.1246871677031
 10
1241.464475217039
 20
-707.702553975214
 10
1243.853633050505
 20
-710.3422033369534
 10
1246.513682290522
 20
-711.6800558171981
 10
1249.166140878111
 20
-712.088053382091
 10
1287.05203568933
 20
-740.6934268391724
 10
1242.807546270793
 20
-788.6359872093399
 10
1225.04067556681
 20
-817.1161149023137
 10
1218.711020321549
 20
-827.2629194581641
 10
1226.896115655514
 20
-841.311319332297
 10
1238.767421546714
 20
-841.0380558469751
 10
1303.47393767647
 20
-839.547441487779
 10
1369.836164854401
 20
-843.0211137786973
 10
1434.436411851031
 20
-837.9790229417886
 10
1433.207674998535
 20
-849.8916030052715
 10
1432.013096081802
 20
-861.8098760580142
 10
1431.084664413756
 20
-873.7698976988122
 10
1375.994556005557
 20
-874.6105624488064
 10
1320.905870844581
 20
-875.5489568480643
 10
1265.820506594086
 20
-876.675219893501
 10
1259.770282239282
 20
-876.7995168260641
 10
1254.850590671895
 20
-878.6554313305751
 10
1251.007822909458
 20
-881.556958199084
 10
1244.246923726449
 20
-884.8190410551706
 10
1238.960983182153
 20
-892.5558134834937
 10
1241.103919229448
 20
-901.283166046127
 10
1240.642787097961
 20
-909.1717515218443
 10
1243.2895526963
 20
-917.1106250695229
 10
1249.037099787811
 20
-922.3187614270246
 10
1268.924134581961
 20
-978.3311340982491
 10
1272.211835889802
 20
-1037.546762069684
 10
1269.061240740441
 20
-1096.621962972275
 10
1250.060414610509
 20
-1117.011404070163
 10
1230.151556690775
 20
-1136.506097019916
 10
1208.993087624665
 20
-1154.535794062223
 10
1210.120773917373
 20
-1146.614948313925
 10
1211.209558116756
 20
-1138.786139225609
 10
1212.236668265565
 20
-1131.192640360776
 10
1229.883037363177
 20
-1000.707428454029
 10
1222.992622674119
 20
-865.8500007820585
 10
1175.36981853509
 20
-742.1546274204356
 10
1169.624169106646
 20
-727.2314048606368
 10
1156.249914046151
 20
-717.9157767393062
 10
1139.777249571254
 20
-721.9464131478871
 10
1079.097100108105
 20
-736.7937291839935
 10
1018.518475620445
 20
-752.7464339715079
 10
957.296068928652
 20
-765.416181608909
 10
957.1252792503665
 20
-738.4750586839928
 10
947.2697659791829
 20
-711.2018447178743
 10
946.3930456304397
 20
-684.5330364467445
 10
988.738923124829
 20
-683.4646521256418
 10
1031.252269387236
 20
-688.3729577145241
 10
1073.332474048735
 20
-700.0739483431644
 10
1094.448245695312
 20
-705.9453179515112
 10
1103.521921772312
 20
-672.9383149512742
 10
1082.372941021607
 20
-667.282330103937
 10
1081.270398764867
 20
-666.9872434930312
 10
1080.163586766153
 20
-666.7528821011056
 10
1079.060095677869
 20
-666.4663349741404
 10
1071.404448346759
 20
-635.3636368872521
 10
1061.527586365786
 20
-599.8393837947478
 10
1047.526153653173
 20
-566.361760347545
 10
1066.011289837701
 20
-584.832664058873
 10
1085.896426968715
 20
-601.8679856406816
 10
1107.467163341738
 20
-616.6450881423661
 97
        0
 97
        0
 92
        1
 93
        1
 72
     4
 94
        3
 73
     0
 74
     1
 95
       29
 96
       25
 40
0.0
 40
0.0
 40
0.0
 40
0.0
 40
1.0
 40
1.0
 40
1.0
 40
2.0
 40
2.0
 40
2.0
 40
3.0
 40
3.0
 40
3.0
 40
4.0
 40
4.0
 40
4.0
 40
5.0
 40
5.0
 40
5.0
 40
6.0
 40
6.0
 40
6.0
 40
7.0
 40
7.0
 40
7.0
 40
8.0
 40
8.0
 40
8.0
 40
8.0
 10
748.5953517521193
 20
-453.465038814089
 10
796.0236454241649
 20
-450.1839793270647
 10
847.1704099260978
 20
-442.9918362063072
 10
894.5839967091715
 20
-450.8576497249178
 10
896.1116154987321
 20
-451.4079720217669
 10
897.7260523746954
 20
-451.7419607260454
 10
899.3917261541883
 20
-451.7191887689405
 10
919.4144438594085
 20
-455.505026638577
 10
938.7383471308513
 20
-462.0405783293154
 10
956.7367327321253
 20
-472.9976850256935
 10
1015.802919735015
 20
-508.9527076402082
 10
1040.97874156812
 20
-591.8805847845979
 10
1049.086981546789
 20
-659.7087567015751
 10
969.6935019122993
 20
-644.5445309290135
 10
889.4441762230344
 20
-650.870390848022
 10
813.9802824374301
 20
-681.0878291022273
 10
817.6560558477158
 20
-640.1286689126446
 10
816.9937714283806
 20
-589.8889873689695
 10
805.3425944558821
 20
-545.2569002637592
 10
809.6659453965303
 20
-537.582750717509
 10
805.7624524151124
 20
-527.4606157818416
 10
798.5138538173496
 20
-523.4584443196618
 10
788.0496651092699
 20
-494.8891264613412
 10
772.1054998057307
 20
-470.0183539703903
 10
748.5953517521193
 20
-453.465038814089
 97
        0
 97
        0
 92
        1
 93
        1
 72
     4
 94
        3
 73
     0
 74
     1
 95
       47
 96
       43
 40
0.0
 40
0.0
 40
0.0
 40
0.0
 40
1.0
 40
1.0
 40
1.0
 40
2.0
 40
2.0
 40
2.0
 40
3.0
 40
3.0
 40
3.0
 40
4.0
 40
4.0
 40
4.0
 40
5.0
 40
5.0
 40
5.0
 40
6.0
 40
6.0
 40
6.0
 40
7.0
 40
7.0
 40
7.0
 40
8.0
 40
8.0
 40
8.0
 40
9.0
 40
9.0
 40
9.0
 40
10.0
 40
10.0
 40
10.0
 40
11.0
 40
11.0
 40
11.0
 40
12.0
 40
12.0
 40
12.0
 40
13.0
 40
13.0
 40
13.0
 40
14.0
 40
14.0
 40
14.0
 40
14.0
 10
789.1996489433823
 20
-696.3421938716692
 10
787.218963090535
 20
-704.4651407393358
 10
794.7631227149295
 20
-713.5853095621151
 10
803.4805125463154
 20
-710.6230574746478
 10
839.7201846247635
 20
-698.3091216671128
 10
876.6287829432476
 20
-690.1833283048109
 10
913.7845518796321
 20
-686.5417128302088
 10
915.0479210834801
 20
-701.6271855844188
 10
919.3167142101674
 20
-716.9185547841789
 10
920.8357935157283
 20
-731.6567551924563
 10
922.2016365266363
 20
-744.9081365677303
 10
921.6128865521177
 20
-758.7250215445729
 10
922.6086852599838
 20
-772.1756575445652
 10
913.2536806295057
 20
-773.890196148679
 10
903.885866773122
 20
-775.5402142076546
 10
894.4919600491776
 20
-777.048856366242
 10
852.6731584787103
 20
-783.7665837138557
 10
810.601967716867
 20
-789.0544219212406
 10
768.4790656358382
 20
-793.4475119805029
 10
746.3689185287349
 20
-795.7541214694847
 10
724.1382698153548
 20
-797.1337225377611
 10
702.0722433751462
 20
-799.7809625518748
 10
682.0400373544753
 20
-802.1853016901314
 10
662.8736401196857
 20
-808.9495217835247
 10
642.8945686655652
 20
-810.6782928608391
 10
639.3668129765756
 20
-804.5934361545696
 10
633.561387160672
 20
-803.0639197019882
 10
628.2711768743529
 20
-804.3989256875866
 10
632.939902497893
 20
-799.7781160572395
 10
637.5275030240919
 20
-795.0500884621524
 10
641.9310302303029
 20
-790.0895971382306
 10
700.0777994648715
 20
-724.5898578358192
 10
735.1186228846109
 20
-641.936193008296
 10
786.7521379697282
 20
-571.5376364324784
 10
790.2903308058076
 20
-566.7137768512184
 10
790.2998191212591
 20
-561.7684668320289
 10
788.3642027668984
 20
-557.5347804725589
 10
789.5393306369097
 20
-556.8459287699588
 10
790.7267933170779
 20
-556.1798490244782
 10
791.8990746925238
 20
-555.4853043325966
 10
801.9837307821108
 20
-604.3368453240892
 10
798.2889807408992
 20
-659.0682954078347
 10
789.1996489433823
 20
-696.3421938716692
 97
        0
 97
        0
 92
        1
 93
        1
 72
     4
 94
        3
 73
     0
 74
     1
 95
       29
 96
       25
 40
0.0
 40
0.0
 40
0.0
 40
0.0
 40
1.0
 40
1.0
 40
1.0
 40
2.0
 40
2.0
 40
2.0
 40
3.0
 40
3.0
 40
3.0
 40
4.0
 40
4.0
 40
4.0
 40
5.0
 40
5.0
 40
5.0
 40
6.0
 40
6.0
 40
6.0
 40
7.0
 40
7.0
 40
7.0
 40
8.0
 40
8.0
 40
8.0
 40
8.0
 10
743.7525155399326
 20
-582.2556375791828
 10
713.5924815942781
 20
-643.1459532297977
 10
687.0664724708304
 20
-705.2033316823399
 10
645.0901648636627
 20
-759.8750053786607
 10
598.8156503518858
 20
-820.1447851980083
 10
542.446517019227
 20
-849.9229144462843
 10
473.8526380444146
 20
-869.7411589533203
 10
468.6938409273516
 20
-863.5139775151201
 10
463.4022073937622
 20
-857.513566816484
 10
457.9378865187964
 20
-851.8357588435847
 10
461.9466998017942
 20
-848.9019717024967
 10
464.4781823672611
 20
-844.140735003295
 10
463.6821126998766
 20
-837.4324959711339
 10
459.6158951083762
 20
-803.1777794875434
 10
459.3914964476517
 20
-740.3025082421154
 10
433.1790761502871
 20
-714.7865302997106
 10
421.7565675804435
 20
-703.6662245773623
 10
406.5116911264522
 20
-704.7592785186735
 10
392.0249310779482
 20
-704.2639884515247
 10
380.0577932005972
 20
-703.8559908866191
 10
368.2196964135001
 20
-702.9906565164183
 10
356.411013404324
 20
-701.9535836363502
 10
491.0881630825224
 20
-684.1905082585363
 10
623.5559585051951
 20
-644.9288077052533
 10
743.7525155399326
 20
-582.2556375791828
 97
        0
 97
        0
 92
        1
 93
        1
 72
     4
 94
        3
 73
     0
 74
     1
 95
       32
 96
       28
 40
0.0
 40
0.0
 40
0.0
 40
0.0
 40
1.0
 40
1.0
 40
1.0
 40
2.0
 40
2.0
 40
2.0
 40
3.0
 40
3.0
 40
3.0
 40
4.0
 40
4.0
 40
4.0
 40
5.0
 40
5.0
 40
5.0
 40
6.0
 40
6.0
 40
6.0
 40
7.0
 40
7.0
 40
7.0
 40
8.0
 40
8.0
 40
8.0
 40
9.0
 40
9.0
 40
9.0
 40
9.0
 10
104.892849454799
 20
-841.9887850563427
 10
120.0703588690167
 20
-820.6400752651698
 10
135.4404810870801
 20
-797.1631363157067
 10
133.2325500788957
 20
-776.5213060265014
 10
130.4856827524527
 20
-750.8402313950355
 10
97.9085004426579
 20
-743.6006466969757
 10
75.3595187454921
 20
-740.216164571415
 10
136.5131351501714
 20
-707.2376265175444
 10
211.6145752850953
 20
-715.6215020604213
 10
278.0375276820314
 20
-725.5472288660021
 10
313.5214554338327
 20
-730.8502483781231
 10
349.2468608141717
 20
-733.4861024136808
 10
384.6776539993534
 20
-738.3270409627658
 10
411.2098305278441
 20
-741.9515774695337
 10
410.7358891704725
 20
-744.296140220391
 10
416.5047849718421
 20
-771.1471241483923
 10
421.1597525378147
 20
-792.8117948444888
 10
424.1348138511867
 20
-814.6491528819952
 10
426.1989968801208
 20
-836.701895680515
 10
425.5215311561105
 20
-836.641170461533
 10
424.8597211525239
 20
-836.5320548337149
 10
424.1751391919242
 20
-836.4912550772278
 10
421.7670047274623
 20
-830.9747484672007
 10
416.4625619680373
 20
-826.4488219914692
 10
407.8514412697987
 20
-825.3310984299496
 10
311.548360233347
 20
-812.8330893024267
 10
200.6451337786548
 20
-812.3377992352653
 10
104.892849454799
 20
-841.9887850563427
 97
        0
 97
        0
 92
        1
 93
        1
 72
     4
 94
        3
 73
     0
 74
     1
 95
       92
 96
       88
 40
0.0
 40
0.0
 40
0.0
 40
0.0
 40
1.0
 40
1.0
 40
1.0
 40
2.0
 40
2.0
 40
2.0
 40
3.0
 40
3.0
 40
3.0
 40
4.0
 40
4.0
 40
4.0
 40
5.0
 40
5.0
 40
5.0
 40
6.0
 40
6.0
 40
6.0
 40
7.0
 40
7.0
 40
7.0
 40
8.0
 40
8.0
 40
8.0
 40
9.0
 40
9.0
 40
9.0
 40
10.0
 40
10.0
 40
10.0
 40
11.0
 40
11.0
 40
11.0
 40
12.0
 40
12.0
 40
12.0
 40
13.0
 40
13.0
 40
13.0
 40
14.0
 40
14.0
 40
14.0
 40
15.0
 40
15.0
 40
15.0
 40
16.0
 40
16.0
 40
16.0
 40
17.0
 40
17.0
 40
17.0
 40
18.0
 40
18.0
 40
18.0
 40
19.0
 40
19.0
 40
19.0
 40
20.0
 40
20.0
 40
20.0
 40
21.0
 40
21.0
 40
21.0
 40
22.0
 40
22.0
 40
22.0
 40
23.0
 40
23.0
 40
23.0
 40
24.0
 40
24.0
 40
24.0
 40
25.0
 40
25.0
 40
25.0
 40
26.0
 40
26.0
 40
26.0
 40
27.0
 40
27.0
 40
27.0
 40
28.0
 40
28.0
 40
28.0
 40
29.0
 40
29.0
 40
29.0
 40
29.0
 10
420.7081087218457
 20
-891.2521189389081
 10
460.641582009891
 20
-929.6494339535457
 10
488.4077139642377
 20
-992.2410045666202
 10
506.7211116389353
 20
-1042.000577347902
 10
517.0268454787929
 20
-1070.002493941551
 10
525.2233267912525
 20
-1098.875437894683
 10
531.646916359573
 20
-1128.005515196846
 10
537.2972082176157
 20
-1153.629659935523
 10
546.1047370459046
 20
-1185.750454271554
 10
544.9514323014309
 20
-1213.278903923614
 10
539.4463116699326
 20
-1216.058031522662
 10
533.6745693739276
 20
-1218.559151478639
 10
527.6490146392989
 20
-1220.780366128467
 10
517.0999055078601
 20
-1139.117281435267
 10
488.1809432247192
 20
-1061.70970622711
 10
435.1905990283967
 20
-997.7565623451155
 10
433.8892765626515
 20
-996.1852973044897
 10
431.7249918056132
 20
-998.1854342040351
 10
432.5201126413822
 20
-999.8174244636302
 10
466.3184411512202
 20
-1069.146647886811
 10
484.2342784079747
 20
-1141.173399396055
 10
480.7107924608681
 20
-1217.699510097707
 10
476.7024535936434
 20
-1201.903362515324
 10
469.8490433348925
 20
-1186.139475205522
 10
464.4596801520847
 20
-1171.081518566154
 10
451.3871535233129
 20
-1134.55814585541
 10
432.7046603771651
 20
-1101.850024792247
 10
415.3989218046718
 20
-1067.281245066837
 10
414.2721843434383
 20
-1065.030616639064
 10
410.9887527775509
 20
-1067.002288592221
 10
412.0433790412617
 20
-1069.243428704531
 10
429.1014725801515
 20
-1105.488793772203
 10
436.6257067421684
 20
-1147.964186772735
 10
437.7154397730255
 20
-1187.829344189462
 10
425.6244793788264
 20
-1153.095467774978
 10
406.1141307085791
 20
-1123.588704348946
 10
385.820996012626
 20
-1093.253610983005
 10
383.7534920732833
 20
-1090.163266636784
 10
378.8285819323737
 20
-1092.950933719738
 10
380.787444659637
 20
-1096.195937608001
 10
401.6076552795585
 20
-1130.685964315073
 10
406.7451036868324
 20
-1170.679213990532
 10
406.1478142284541
 20
-1210.127834358447
 10
405.9727548081928
 20
-1221.682704928975
 10
404.1491005762264
 20
-1233.325816833305
 10
404.2074537163217
 20
-1244.173807901854
 10
404.0186362386557
 20
-1244.201324016696
 10
403.8241257716718
 20
-1244.226942468451
 10
403.6357827097318
 20
-1244.253509751748
 10
394.7461799526964
 20
-1201.499160276624
 10
382.1656224806075
 20
-1159.693642347776
 10
355.0707888451816
 20
-1124.49958263336
 10
352.0136536031332
 20
-1120.529671443759
 10
346.3543478453885
 20
-1123.782265984371
 10
348.3592289026592
 20
-1128.423001077203
 10
363.5044780442722
 20
-1163.477582554311
 10
365.3361973443016
 20
-1200.357715926453
 10
364.6416526524554
 20
-1237.600302949275
 10
363.5827566468379
 20
-1233.951096822311
 10
362.4768934796211
 20
-1230.366411240473
 10
361.4507321623569
 20
-1226.979082620279
 10
355.5172140876984
 20
-1207.389506515898
 10
346.9331350885668
 20
-1188.319890098874
 10
337.4737589880087
 20
-1170.202900554295
 10
333.5949356268329
 20
-1162.775447210081
 10
320.6761197085107
 20
-1167.927602506339
 10
323.7109574092729
 20
-1176.005954291313
 10
330.4144522837314
 20
-1193.849680350557
 10
334.4180469932544
 20
-1211.391677978079
 10
335.3839575073089
 20
-1230.506838309328
 10
335.806187545425
 20
-1238.864146568907
 10
334.9754855266201
 20
-1247.215761839227
 10
334.490158190707
 20
-1255.519935532198
 10
305.1726866581939
 20
-1260.421599300264
 10
275.8998102083024
 20
-1265.589884732824
 10
246.7341517231498
 20
-1271.279078684276
 10
254.7541503680068
 20
-1162.358910161258
 10
252.3445926562508
 20
-1054.849654147542
 10
252.5400519547793
 20
-945.798546871134
 10
260.8774347519466
 20
-943.7016291538584
 10
268.0880800878567
 20
-937.2154167035478
 10
269.2992635566297
 20
-928.2413679388792
 10
289.0397038768951
 20
-919.0604738971178
 10
309.9695045403496
 20
-915.1133346646129
 10
331.8799226069477
 20
-910.4374928045781
 10
360.1555771017011
 20
-904.4029241702701
 10
391.3545815905018
 20
-894.1204367033024
 10
420.7081087218457
 20
-891.2521189389081
 97
        0
 97
        0
 92
        1
 93
        1
 72
     4
 94
        3
 73
     0
 74
     1
 95
       71
 96
       67
 40
0.0
 40
0.0
 40
0.0
 40
0.0
 40
1.0
 40
1.0
 40
1.0
 40
2.0
 40
2.0
 40
2.0
 40
3.0
 40
3.0
 40
3.0
 40
4.0
 40
4.0
 40
4.0
 40
5.0
 40
5.0
 40
5.0
 40
6.0
 40
6.0
 40
6.0
 40
7.0
 40
7.0
 40
7.0
 40
8.0
 40
8.0
 40
8.0
 40
9.0
 40
9.0
 40
9.0
 40
10.0
 40
10.0
 40
10.0
 40
11.0
 40
11.0
 40
11.0
 40
12.0
 40
12.0
 40
12.0
 40
13.0
 40
13.0
 40
13.0
 40
14.0
 40
14.0
 40
14.0
 40
15.0
 40
15.0
 40
15.0
 40
16.0
 40
16.0
 40
16.0
 40
17.0
 40
17.0
 40
17.0
 40
18.0
 40
18.0
 40
18.0
 40
19.0
 40
19.0
 40
19.0
 40
20.0
 40
20.0
 40
20.0
 40
21.0
 40
21.0
 40
21.0
 40
22.0
 40
22.0
 40
22.0
 40
22.0
 10
530.8351909716939
 20
-1272.710865487616
 10
567.6190179419009
 20
-1263.465450900705
 10
599.9770201644924
 20
-1258.847487765004
 10
600.7949129574145
 20
-1215.445086343767
 10
601.6189731553104
 20
-1171.698259071241
 10
590.6969732261496
 20
-1123.554546413274
 10
578.62404063133
 20
-1081.860041775335
 10
559.5700799348706
 20
-1016.056676378112
 10
527.7884928765952
 20
-940.4756018965327
 10
484.0345493674931
 20
-882.6025705630691
 10
533.6911739259667
 20
-872.0724380625215
 10
579.0994052360438
 20
-848.8402976519938
 10
617.0265742195234
 20
-814.9670114499968
 10
616.1289795767634
 20
-818.1446482984629
 10
616.3353504380375
 20
-821.7388221957517
 10
618.3549383842583
 20
-825.4497023732292
 10
619.5922147206147
 20
-827.722153926552
 10
620.7464682967038
 20
-830.0164286054587
 10
621.9258659086681
 20
-832.303112631982
 10
622.3941142767462
 20
-833.7026391627296
 10
623.089133384412
 20
-834.9788175924714
 10
623.928374887123
 20
-836.147778057486
 10
681.6965603347207
 20
-951.727795203793
 10
667.7008206113542
 20
-1085.556689479625
 10
648.2417088445673
 20
-1209.311839228649
 10
643.7043963902843
 20
-1238.169601877036
 10
639.2458369543856
 20
-1267.01408088378
 10
635.5392265188366
 20
-1295.993293970094
 10
633.3697231882998
 20
-1312.951760196653
 10
628.3940505596102
 20
-1331.842996282972
 10
640.6842655785649
 20
-1346.155171326987
 10
655.5239909622751
 20
-1363.436240279274
 10
687.8725048693923
 20
-1369.047630043942
 10
708.377703415913
 20
-1375.975049163284
 10
733.1322440424465
 20
-1384.337101580601
 10
757.9736027554754
 20
-1392.476178584546
 10
782.8861238344352
 20
-1400.370457049557
 10
781.4258720847183
 20
-1401.579268439502
 10
779.9888667079031
 20
-1402.744433578337
 10
778.592186671779
 20
-1403.821357383356
 10
750.320327503252
 20
-1425.611273843539
 10
722.006245330851
 20
-1447.387906662099
 10
694.9507882045946
 20
-1470.652307345184
 10
682.7711120608328
 20
-1469.671215526338
 10
670.547789665995
 20
-1469.090530620024
 10
658.2798721883737
 20
-1469.050679695081
 10
638.3102890497739
 20
-1468.985210318398
 10
616.7167807196201
 20
-1474.401140784516
 10
597.1267301995131
 20
-1472.586974868047
 10
564.541482821538
 20
-1469.568741719348
 10
554.8202292142232
 20
-1432.973257811082
 10
547.0431314451507
 20
-1405.921121595256
 10
545.1459427683449
 20
-1399.322947022471
 10
539.3604424149817
 20
-1395.427044693472
 10
532.7328540642966
 20
-1395.025688949394
 10
501.8023689030224
 20
-1393.153644308592
 10
471.1845237362859
 20
-1392.106134281494
 10
440.6601384768837
 20
-1391.775940903406
 10
441.9866049785987
 20
-1376.241670827791
 10
437.4592552555159
 20
-1360.752944666412
 10
434.3513575256857
 20
-1345.287939293685
 10
430.9668754001495
 20
-1328.447128178859
 10
427.7370528166084
 20
-1311.572159128376
 10
424.4986907492075
 20
-1294.700985404063
 10
460.3801789188828
 20
-1288.596203235335
 10
495.9675293091959
 20
-1281.473324817453
 10
530.8351909716939
 20
-1272.710865487616
 97
        0
 97
        0
 92
        1
 93
        1
 72
     4
 94
        3
 73
     0
 74
     1
 95
      185
 96
      181
 40
0.0
 40
0.0
 40
0.0
 40
0.0
 40
1.0
 40
1.0
 40
1.0
 40
2.0
 40
2.0
 40
2.0
 40
3.0
 40
3.0
 40
3.0
 40
4.0
 40
4.0
 40
4.0
 40
5.0
 40
5.0
 40
5.0
 40
6.0
 40
6.0
 40
6.0
 40
7.0
 40
7.0
 40
7.0
 40
8.0
 40
8.0
 40
8.0
 40
9.0
 40
9.0
 40
9.0
 40
10.0
 40
10.0
 40
10.0
 40
11.0
 40
11.0
 40
11.0
 40
12.0
 40
12.0
 40
12.0
 40
13.0
 40
13.0
 40
13.0
 40
14.0
 40
14.0
 40
14.0
 40
15.0
 40
15.0
 40
15.0
 40
16.0
 40
16.0
 40
16.0
 40
17.0
 40
17.0
 40
17.0
 40
18.0
 40
18.0
 40
18.0
 40
19.0
 40
19.0
 40
19.0
 40
20.0
 40
20.0
 40
20.0
 40
21.0
 40
21.0
 40
21.0
 40
22.0
 40
22.0
 40
22.0
 40
23.0
 40
23.0
 40
23.0
 40
24.0
 40
24.0
 40
24.0
 40
25.0
 40
25.0
 40
25.0
 40
26.0
 40
26.0
 40
26.0
 40
27.0
 40
27.0
 40
27.0
 40
28.0
 40
28.0
 40
28.0
 40
29.0
 40
29.0
 40
29.0
 40
30.0
 40
30.0
 40
30.0
 40
31.0
 40
31.0
 40
31.0
 40
32.0
 40
32.0
 40
32.0
 40
33.0
 40
33.0
 40
33.0
 40
34.0
 40
34.0
 40
34.0
 40
35.0
 40
35.0
 40
35.0
 40
36.0
 40
36.0
 40
36.0
 40
37.0
 40
37.0
 40
37.0
 40
38.0
 40
38.0
 40
38.0
 40
39.0
 40
39.0
 40
39.0
 40
40.0
 40
40.0
 40
40.0
 40
41.0
 40
41.0
 40
41.0
 40
42.0
 40
42.0
 40
42.0
 40
43.0
 40
43.0
 40
43.0
 40
44.0
 40
44.0
 40
44.0
 40
45.0
 40
45.0
 40
45.0
 40
46.0
 40
46.0
 40
46.0
 40
47.0
 40
47.0
 40
47.0
 40
48.0
 40
48.0
 40
48.0
 40
49.0
 40
49.0
 40
49.0
 40
50.0
 40
50.0
 40
50.0
 40
51.0
 40
51.0
 40
51.0
 40
52.0
 40
52.0
 40
52.0
 40
53.0
 40
53.0
 40
53.0
 40
54.0
 40
54.0
 40
54.0
 40
55.0
 40
55.0
 40
55.0
 40
56.0
 40
56.0
 40
56.0
 40
57.0
 40
57.0
 40
57.0
 40
58.0
 40
58.0
 40
58.0
 40
59.0
 40
59.0
 40
59.0
 40
60.0
 40
60.0
 40
60.0
 40
60.0
 10
1650.024222806145
 20
-1481.161565551729
 10
1623.299907889626
 20
-1504.335827237936
 10
1597.368341729922
 20
-1528.415274219285
 10
1572.141757409083
 20
-1553.212037849624
 10
1490.543667676817
 20
-1555.026203766092
 10
1408.967875485907
 20
-1558.085236671277
 10
1327.519701137933
 20
-1563.402488656609
 10
1321.954804119045
 20
-1563.765891138833
 10
1321.851855896259
 20
-1572.346174811786
 10
1327.519701137933
 20
-1572.146920187077
 10
1403.358383384328
 20
-1569.485447699764
 10
1479.14487989567
 20
-1568.744410262136
 10
1554.983087726268
 20
-1570.393479489556
 10
1552.058314484882
 20
-1573.351936250841
 10
1549.067123035265
 20
-1576.243974803887
 10
1546.164172919416
 20
-1579.225203522279
 10
1435.010929352258
 20
-1587.394643135704
 10
1322.973374783924
 20
-1586.561569038071
 10
1211.523146942769
 20
-1588.823583444384
 10
1204.656453042409
 20
-1588.963061681692
 10
1204.627988096032
 20
-1599.587128505324
 10
1211.523146942769
 20
-1599.511221981633
 10
1316.977708243014
 20
-1598.347005674343
 10
1422.966936119612
 20
-1594.482414786367
 10
1528.300995813486
 20
-1598.03768659026
 10
1524.992894627425
 20
-1601.539823827567
 10
1521.665816810393
 20
-1605.02393326548
 10
1518.388078233798
 20
-1608.555484280709
 10
1517.72199848833
 20
-1608.532712323591
 10
1517.07726745258
 20
-1608.47293593619
 10
1516.356629893218
 20
-1608.547893628336
 10
1369.741756115591
 20
-1623.854444132841
 10
1219.199194152145
 20
-1624.960781715796
 10
1072.061988608251
 20
-1618.592224377209
 10
1065.787365592749
 20
-1618.320858554978
 10
1065.859002374522
 20
-1627.916391982448
 10
1072.061988608251
 20
-1628.308259411049
 10
1213.013286886227
 20
-1637.213992304376
 10
1352.860145244304
 20
-1638.323176381977
 10
1493.817610927254
 20
-1637.775700579788
 10
1485.65006897692
 20
-1648.624640479882
 10
1476.937423303212
 20
-1660.230747953916
 10
1467.543042163612
 20
-1669.555864390699
 10
1466.883604238912
 20
-1669.402153680203
 10
1466.199971109858
 20
-1669.282600905366
 10
1465.458459256435
 20
-1669.246545306605
 10
1297.350178876804
 20
-1661.11600778659
 10
1128.936374739294
 20
-1662.464297413842
 10
960.979432991322
 20
-1673.279079378264
 10
950.4350680175157
 20
-1673.957493933833
 10
950.3306965474585
 20
-1690.419721261709
 10
960.979432991322
 20
-1689.796338935839
 10
1117.414713272892
 20
-1680.628728535745
 10
1273.93965813557
 20
-1680.207447329174
 10
1430.376361664483
 20
-1688.293389766523
 10
1418.172015900476
 20
-1689.378853055485
 10
1404.313856751411
 20
-1688.42243085681
 10
1394.116289707836
 20
-1689.03063187798
 10
1373.615835319017
 20
-1690.251778078036
 10
1353.113483267131
 20
-1691.434022184694
 10
1332.608759136359
 20
-1692.576415366433
 10
1183.952474286882
 20
-1700.861612428444
 10
1035.18138082035
 20
-1707.066970741107
 10
886.3524086294956
 20
-1711.210518103651
 10
811.9398201971235
 20
-1713.281817369219
 10
737.5125248758495
 20
-1714.836003442009
 10
663.0785877336657
 20
-1715.870229827453
 10
627.1453882447349
 20
-1716.369315220794
 10
591.2102910927142
 20
-1716.747899007754
 10
555.274719524874
 20
-1717.005032356808
 10
527.350132702235
 20
-1717.204286981494
 10
486.5499017966467
 20
-1727.760037933818
 10
468.6241018086921
 20
-1703.826711010557
 10
462.6327050097343
 20
-1695.827112243909
 10
457.0592685069396
 20
-1687.393897460672
 10
451.7956255039317
 20
-1678.666544898017
 10
562.7543586041993
 20
-1686.523818932745
 10
674.624918820311
 20
-1690.280243024412
 10
785.8592874846709
 20
-1685.977291962043
 10
787.7265879678062
 20
-1685.904231932975
 10
787.7436669356412
 20
-1683.034016505537
 10
785.8592874846709
 20
-1683.062481451914
 10
668.1002786923409
 20
-1684.835847611907
 10
552.004571600618
 20
-1675.94150069711
 10
437.0161509234067
 20
-1651.666594417231
 10
430.9811078733728
 20
-1639.583224675429
 10
425.4105178651207
 20
-1627.12032231511
 10
420.2417580168576
 20
-1614.418314405151
 10
518.4975343755059
 20
-1619.295308552997
 10
615.5369086918372
 20
-1633.932932817363
 10
714.3501235839449
 20
-1634.866583058894
 10
718.4229829963779
 20
-1634.905485152292
 10
718.4073272758133
 20
-1628.679252545637
 10
714.3501235839449
 20
-1628.551160286892
 10
614.7275553828904
 20
-1625.41906735265
 10
509.9979013839829
 20
-1617.585514106597
 10
416.3102745048582
 20
-1581.986303321935
 10
413.1259958355531
 20
-1580.775594268889
 10
410.2685896339162
 20
-1580.747129322499
 10
407.7266699214751
 20
-1581.405618415609
 10
403.4389001638619
 20
-1569.355457777941
 10
399.3793243931077
 20
-1557.26734387839
 10
395.4938592110939
 20
-1545.268420144208
 10
422.2120067226388
 20
-1556.179982926362
 10
453.035273919174
 20
-1557.39638496869
 10
481.4693832821504
 20
-1559.104281751976
 10
525.745184141746
 20
-1561.762907744642
 10
570.1044821773366
 20
-1563.525836757615
 10
614.4063759044466
 20
-1565.716688797964
 10
616.6228463965372
 20
-1565.825804425793
 10
616.5445677939706
 20
-1562.531461297136
 10
614.4063759044466
 20
-1562.316076536114
 10
538.1995470181246
 20
-1554.620103864288
 10
466.6818436334925
 20
-1542.809048776262
 10
393.6412656170478
 20
-1521.07985753504
 10
391.5253712688573
 20
-1520.450782219865
 10
389.5470574948267
 20
-1520.530484069748
 10
387.7883982237945
 20
-1521.099782997511
 10
384.8726388821324
 20
-1511.843931263604
 10
382.0128606016324
 20
-1502.709529967611
 10
379.1715845363797
 20
-1493.776280959442
 10
377.4608412583993
 20
-1488.397354923607
 10
375.5517921873261
 20
-1482.960550163463
 10
373.478595258689
 20
-1477.550312686604
 10
394.1607508885863
 20
-1481.248858053974
 10
414.3433467094392
 20
-1485.964550838973
 10
435.5079831805906
 20
-1487.337510086423
 10
438.2097810086643
 20
-1487.513043922479
 10
438.8568841231618
 20
-1483.074409949006
 10
436.1536630478631
 20
-1482.565836240214
 10
414.5444989972621
 20
-1478.502939559063
 10
391.6439752120914
 20
-1473.017744390057
 10
372.840980459574
 20
-1461.193405660377
 10
370.3379628405064
 20
-1459.619294125105
 10
368.0304045200146
 20
-1459.552875916865
 10
366.0962114129252
 20
-1460.344201426466
 10
355.0314123360595
 20
-1437.230664959228
 10
339.7395687204917
 20
-1416.606862469403
 10
318.3548033305915
 20
-1405.9344052369
 10
354.4540483401524
 20
-1405.747485422289
 10
390.0916868023805
 20
-1407.842505476465
 10
427.0766660604331
 20
-1410.773446122917
 10
448.8623127786377
 20
-1412.500319537119
 10
497.3324234884885
 20
-1408.593031229566
 10
514.0484632550124
 20
-1421.104323998745
 10
527.6841214065153
 20
-1431.309956110475
 10
530.7298706700922
 20
-1458.95606087427
 10
539.0682022987112
 20
-1474.436247551732
 10
557.4722133860614
 20
-1508.602722701533
 10
580.4287182323942
 20
-1509.033492223531
 10
616.3903826677251
 20
-1506.186048753165
 10
666.9972620198523
 20
-1502.180081964791
 10
716.7895694894187
 20
-1506.390996367156
 10
766.055275450859
 20
-1517.682091767825
 10
766.9860791977671
 20
-1529.304329378139
 10
767.9164085288803
 20
-1540.926566988464
 10
768.8472122757894
 20
-1552.547855767221
 10
769.6077007600916
 20
-1562.043761882336
 10
776.3543674698776
 20
-1570.365014543166
 10
786.5789762125569
 20
-1570.279619704012
 10
896.9693592165031
 20
-1569.363997261848
 10
1007.359742220497
 20
-1568.447425988152
 10
1117.750125224513
 20
-1567.530854714443
 10
1153.120667606509
 20
-1567.237665766639
 10
1210.225145387501
 20
-1578.152075043439
 10
1242.100192352995
 20
-1558.276900643627
 10
1254.194473657602
 20
-1550.735587513844
 10
1256.795695341707
 20
-1536.758350005677
 10
1268.007563308276
 20
-1530.303448996367
 10
1285.853187030621
 20
-1520.031398676396
 10
1327.488864112671
 20
-1527.505344766392
 10
1348.791081158099
 20
-1525.861019696711
 10
1449.489149916855
 20
-1518.090089332729
 10
1547.376305219805
 20
-1491.238156573159
 10
1643.906631411593
 20
-1462.915534916874
 10
1658.149541752675
 20
-1458.736880787066
 10
1672.344536100725
 20
-1454.395027631324
 10
1686.576534879063
 20
-1450.180317902777
 10
1674.176729816621
 20
-1460.207569683804
 10
1662.080076433129
 20
-1470.707339574872
 10
1650.024222806145
 20
-1481.161565551729
 97
        0
 97
        0
 75
     2
 76
     1
 98
        0
  0
ENDBLK
  5
44
330
41
100
AcDbEntity
  8
0
100
AcDbBlockEnd
  0
ENDSEC
  0
SECTION
  2
ENTITIES
  0
INSERT
  5
42
330
1F
100
AcDbEntity
  8
Layer 1
100
AcDbBlockReference
  2
block 2
 10
0.0
 20
0.0
 30
0.0
  0
ENDSEC
  0
SECTION
  2
OBJECTS
  0
DICTIONARY
  5
C
330
0
100
AcDbDictionary
281
     1
  3
ACAD_GROUP
350
D
  3
ACAD_LAYOUT
350
1A
  3
ACAD_MATERIAL
350
3B
  3
ACAD_MLEADERSTYLE
350
5A
  3
ACAD_MLINESTYLE
350
17
  3
ACAD_PLOTSETTINGS
350
19
  3
ACAD_PLOTSTYLENAME
350
E
  3
ACAD_TABLESTYLE
350
59
  3
ACAD_VISUALSTYLE
350
2A
  0
SUN
  5
3F
330
29
100
AcDbSun
 90
        1
290
     0
 63
     7
421
 16777215
 40
1.0
291
     1
 91
  2455826
 92
 54000000
292
     0
 70
     2
 71
   256
280
     1
  0
DICTIONARY
  5
D
102
{ACAD_REACTORS
330
C
102
}
330
C
100
AcDbDictionary
281
     1
  0
DICTIONARY
  5
1A
102
{ACAD_REACTORS
330
C
102
}
330
C
100
AcDbDictionary
281
     1
  3
Layout1
350
1E
  3
Layout2
350
26
  3
Model
350
22
  0
DICTIONARY
  5
3B
102
{ACAD_REACTORS
330
C
102
}
330
C
100
AcDbDictionary
281
     1
  3
ByBlock
350
3D
  3
ByLayer
350
3C
  3
Global
350
3E
  0
DICTIONARY
  5
5A
102
{ACAD_REACTORS
330
C
102
}
330
C
100
AcDbDictionary
281
     1
  0
DICTIONARY
  5
17
102
{ACAD_REACTORS
330
C
102
}
330
C
100
AcDbDictionary
281
     1
  3
Standard
350
18
  0
DICTIONARY
  5
19
102
{ACAD_REACTORS
330
C
102
}
330
C
100
AcDbDictionary
281
     1
  0
ACDBDICTIONARYWDFLT
  5
E
102
{ACAD_REACTORS
330
C
102
}
330
C
100
AcDbDictionary
281
     1
  3
Normal
350
F
100
AcDbDictionaryWithDefault
340
F
  0
DICTIONARY
  5
59
102
{ACAD_REACTORS
330
C
102
}
330
C
100
AcDbDictionary
281
     1
  0
DICTIONARY
  5
2A
102
{ACAD_REACTORS
330
C
102
}
330
C
100
AcDbDictionary
281
     1
  3
2dWireframe
350
2F
  3
3D Hidden
350
31
  3
3dWireframe
350
30
  3
Basic
350
32
  3
Brighten
350
36
  3
ColorChange
350
3A
  3
Conceptual
350
34
  3
Dim
350
35
  3
Facepattern
350
39
  3
Flat
350
2B
  3
FlatWithEdges
350
2C
  3
Gouraud
350
2D
  3
GouraudWithEdges
350
2E
  3
Linepattern
350
38
  3
Realistic
350
33
  3
Thicken
350
37
  0
LAYOUT
  5
1E
102
{ACAD_REACTORS
330
1A
102
}
330
1A
100
AcDbPlotSettings
  1

  2
none_device
  4

  6

 40
0.0
 41
0.0
 42
0.0
 43
0.0
 44
0.0
 45
0.0
 46
0.0
 47
0.0
 48
0.0
 49
0.0
140
0.0
141
0.0
142
1.0
143
1.0
 70
   688
 72
     0
 73
     0
 74
     5
  7

 75
    16
 76
     0
 77
     2
 78
   300
147
1.0
148
0.0
149
0.0
100
AcDbLayout
  1
Layout1
 70
     1
 71
     1
 10
0.0
 20
0.0
 11
12.0
 21
9.0
 12
0.0
 22
0.0
 32
0.0
 14
1.000000000000000E+20
 24
1.000000000000000E+20
 34
1.000000000000000E+20
 15
-1.000000000000000E+20
 25
-1.000000000000000E+20
 35
-1.000000000000000E+20
146
0.0
 13
0.0
 23
0.0
 33
0.0
 16
1.0
 26
0.0
 36
0.0
 17
0.0
 27
1.0
 37
0.0
 76
     0
330
1B
  0
LAYOUT
  5
26
102
{ACAD_REACTORS
330
1A
102
}
330
1A
100
AcDbPlotSettings
  1

  2
none_device
  4

  6

 40
0.0
 41
0.0
 42
0.0
 43
0.0
 44
0.0
 45
0.0
 46
0.0
 47
0.0
 48
0.0
 49
0.0
140
0.0
141
0.0
142
1.0
143
1.0
 70
   688
 72
     0
 73
     0
 74
     5
  7

 75
    16
 76
     0
 77
     2
 78
   300
147
1.0
148
0.0
149
0.0
100
AcDbLayout
  1
Layout2
 70
     1
 71
     2
 10
0.0
 20
0.0
 11
0.0
 21
0.0
 12
0.0
 22
0.0
 32
0.0
 14
0.0
 24
0.0
 34
0.0
 15
0.0
 25
0.0
 35
0.0
146
0.0
 13
0.0
 23
0.0
 33
0.0
 16
1.0
 26
0.0
 36
0.0
 17
0.0
 27
1.0
 37
0.0
 76
     0
330
23
  0
LAYOUT
  5
22
102
{ACAD_REACTORS
330
1A
102
}
330
1A
100
AcDbPlotSettings
  1

  2
none_device
  4

  6

 40
0.0
 41
0.0
 42
0.0
 43
0.0
 44
0.0
 45
0.0
 46
0.0
 47
0.0
 48
0.0
 49
0.0
140
0.0
141
0.0
142
1.0
143
1.0
 70
  1712
 72
     0
 73
     0
 74
     0
  7

 75
     0
 76
     0
 77
     2
 78
   300
147
1.0
148
0.0
149
0.0
100
AcDbLayout
  1
Model
 70
     1
 71
     0
 10
0.0
 20
0.0
 11
12.0
 21
9.0
 12
0.0
 22
0.0
 32
0.0
 14
1.000000000000000E+20
 24
1.000000000000000E+20
 34
1.000000000000000E+20
 15
-1.000000000000000E+20
 25
-1.000000000000000E+20
 35
-1.000000000000000E+20
146
0.0
 13
0.0
 23
0.0
 33
0.0
 16
1.0
 26
0.0
 36
0.0
 17
0.0
 27
1.0
 37
0.0
 76
     0
330
1F
331
29
  0
MATERIAL
  5
3D
102
{ACAD_REACTORS
330
3B
102
}
330
3B
100
AcDbMaterial
  1
ByBlock
 72
     1
 94
      127
  0
MATERIAL
  5
3C
102
{ACAD_REACTORS
330
3B
102
}
330
3B
100
AcDbMaterial
  1
ByLayer
 72
     1
 94
      127
  0
MATERIAL
  5
3E
102
{ACAD_REACTORS
330
3B
102
}
330
3B
100
AcDbMaterial
  1
Global
 72
     1
 94
      127
  0
MLINESTYLE
  5
18
102
{ACAD_REACTORS
330
17
102
}
330
17
100
AcDbMlineStyle
  2
Standard
 70
     0
  3

 62
   256
 51
90.0
 52
90.0
 71
     2
 49
0.5
 62
   256
  6
BYLAYER
 49
-0.5
 62
   256
  6
BYLAYER
  0
ACDBPLACEHOLDER
  5
F
102
{ACAD_REACTORS
330
E
102
}
330
E
  0
VISUALSTYLE
  5
2F
102
{ACAD_REACTORS
330
2A
102
}
330
2A
100
AcDbVisualStyle
  2
2dWireframe
 70
     4
177
     2
291
     0
 71
     0
176
     1
 72
     2
176
     1
 73
     0
176
     1
 90
        0
176
     1
 40
-0.6
176
     1
 41
-30.0
176
     1
 62
     5
 63
     7
421
 16777215
176
     1
 74
     1
176
     1
 91
        4
176
     1
 64
     7
176
     1
 65
   257
176
     1
 75
     1
176
     1
175
     1
176
     1
 42
1.0
176
     1
 92
        0
176
     1
 66
   257
176
     1
 43
1.0
176
     1
 76
     1
176
     1
 77
     6
176
     1
 78
     2
176
     1
 67
     7
176
     1
 79
     5
176
     1
170
     0
176
     1
171
     0
176
     1
290
     0
176
     1
 93
        1
176
     1
 44
0.0
176
     1
173
     0
176
     1
  0
VISUALSTYLE
  5
31
102
{ACAD_REACTORS
330
2A
102
}
330
2A
100
AcDbVisualStyle
  2
3D Hidden
 70
     6
177
     2
291
     0
 71
     1
176
     1
 72
     2
176
     1
 73
     2
176
     1
 90
        0
176
     1
 40
-0.6
176
     1
 41
-30.0
176
     1
 62
     5
 63
     7
421
 16777215
176
     1
 74
     2
176
     1
 91
        2
176
     1
 64
     7
176
     1
 65
   257
176
     1
 75
     2
176
     1
175
     1
176
     1
 42
40.0
176
     1
 92
        0
176
     1
 66
   257
176
     1
 43
1.0
176
     1
 76
     1
176
     1
 77
     6
176
     1
 78
     2
176
     1
 67
     7
176
     1
 79
     3
176
     1
170
     0
176
     1
171
     0
176
     1
290
     0
176
     1
 93
        1
176
     1
 44
0.0
176
     1
173
     0
176
     1
  0
VISUALSTYLE
  5
30
102
{ACAD_REACTORS
330
2A
102
}
330
2A
100
AcDbVisualStyle
  2
3dWireframe
 70
     5
177
     2
291
     0
 71
     0
176
     1
 72
     2
176
     1
 73
     0
176
     1
 90
        0
176
     1
 40
-0.6
176
     1
 41
-30.0
176
     1
 62
     5
 63
     7
421
 16777215
176
     1
 74
     1
176
     1
 91
        4
176
     1
 64
     7
176
     1
 65
   257
176
     1
 75
     1
176
     1
175
     1
176
     1
 42
1.0
176
     1
 92
        0
176
     1
 66
   257
176
     1
 43
1.0
176
     1
 76
     1
176
     1
 77
     6
176
     1
 78
     2
176
     1
 67
     7
176
     1
 79
     5
176
     1
170
     0
176
     1
171
     0
176
     1
290
     0
176
     1
 93
        1
176
     1
 44
0.0
176
     1
173
     0
176
     1
  0
VISUALSTYLE
  5
32
102
{ACAD_REACTORS
330
2A
102
}
330
2A
100
AcDbVisualStyle
  2
Basic
 70
     7
177
     2
291
     1
 71
     1
176
     1
 72
     0
176
     1
 73
     1
176
     1
 90
        0
176
     1
 40
-0.6
176
     1
 41
-30.0
176
     1
 62
     5
 63
     7
421
 16777215
176
     1
 74
     0
176
     1
 91
        4
176
     1
 64
     7
176
     1
 65
   257
176
     1
 75
     1
176
     1
175
     1
176
     1
 42
1.0
176
     1
 92
        8
176
     1
 66
     7
176
     1
 43
1.0
176
     1
 76
     1
176
     1
 77
     6
176
     1
 78
     2
176
     1
 67
     7
176
     1
 79
     5
176
     1
170
     0
176
     1
171
     0
176
     1
290
     0
176
     1
 93
        1
176
     1
 44
0.0
176
     1
173
     0
176
     1
  0
VISUALSTYLE
  5
36
102
{ACAD_REACTORS
330
2A
102
}
330
2A
100
AcDbVisualStyle
  2
Brighten
 70
    12
177
     2
291
     1
 71
     2
176
     1
 72
     2
176
     1
 73
     0
176
     1
 90
        0
176
     1
 40
-0.6
176
     1
 41
-30.0
176
     1
 62
     5
 63
     7
421
 16777215
176
     1
 74
     1
176
     1
 91
        4
176
     1
 64
     7
176
     1
 65
   257
176
     1
 75
     1
176
     1
175
     1
176
     1
 42
1.0
176
     1
 92
        8
176
     1
 66
     7
176
     1
 43
1.0
176
     1
 76
     1
176
     1
 77
     6
176
     1
 78
     2
176
     1
 67
     7
176
     1
 79
     5
176
     1
170
     0
176
     1
171
     0
176
     1
290
     0
176
     1
 93
        1
176
     1
 44
50.0
176
     1
173
     0
176
     1
  0
VISUALSTYLE
  5
3A
102
{ACAD_REACTORS
330
2A
102
}
330
2A
100
AcDbVisualStyle
  2
ColorChange
 70
    16
177
     2
291
     1
 71
     2
176
     1
 72
     2
176
     1
 73
     3
176
     1
 90
        0
176
     1
 40
-0.6
176
     1
 41
-30.0
176
     1
 62
     5
 63
     8
421
  8421504
176
     1
 74
     1
176
     1
 91
        4
176
     1
 64
     7
176
     1
 65
   257
176
     1
 75
     1
176
     1
175
     1
176
     1
 42
1.0
176
     1
 92
        8
176
     1
 66
     8
424
  8421504
176
     1
 43
1.0
176
     1
 76
     1
176
     1
 77
     6
176
     1
 78
     2
176
     1
 67
     7
176
     1
 79
     5
176
     1
170
     0
176
     1
171
     0
176
     1
290
     0
176
     1
 93
        1
176
     1
 44
0.0
176
     1
173
     0
176
     1
  0
VISUALSTYLE
  5
34
102
{ACAD_REACTORS
330
2A
102
}
330
2A
100
AcDbVisualStyle
  2
Conceptual
 70
     9
177
     2
291
     0
 71
     3
176
     1
 72
     2
176
     1
 73
     0
176
     1
 90
        0
176
     1
 40
-0.6
176
     1
 41
-30.0
176
     1
 62
     5
 63
     7
421
 16777215
176
     1
 74
     2
176
     1
 91
        2
176
     1
 64
     7
176
     1
 65
   257
176
     1
 75
     1
176
     1
175
     1
176
     1
 42
40.0
176
     1
 92
        8
176
     1
 66
     7
176
     1
 43
1.0
176
     1
 76
     1
176
     1
 77
     6
176
     1
 78
     2
176
     1
 67
     7
176
     1
 79
     3
176
     1
170
     0
176
     1
171
     0
176
     1
290
     0
176
     1
 93
        1
176
     1
 44
0.0
176
     1
173
     0
176
     1
  0
VISUALSTYLE
  5
35
102
{ACAD_REACTORS
330
2A
102
}
330
2A
100
AcDbVisualStyle
  2
Dim
 70
    11
177
     2
291
     1
 71
     2
176
     1
 72
     2
176
     1
 73
     0
176
     1
 90
        0
176
     1
 40
-0.6
176
     1
 41
-30.0
176
     1
 62
     5
 63
     7
421
 16777215
176
     1
 74
     1
176
     1
 91
        4
176
     1
 64
     7
176
     1
 65
   257
176
     1
 75
     1
176
     1
175
     1
176
     1
 42
1.0
176
     1
 92
        8
176
     1
 66
     7
176
     1
 43
1.0
176
     1
 76
     1
176
     1
 77
     6
176
     1
 78
     2
176
     1
 67
     7
176
     1
 79
     5
176
     1
170
     0
176
     1
171
     0
176
     1
290
     0
176
     1
 93
        1
176
     1
 44
-50.0
176
     1
173
     0
176
     1
  0
VISUALSTYLE
  5
39
102
{ACAD_REACTORS
330
2A
102
}
330
2A
100
AcDbVisualStyle
  2
Facepattern
 70
    15
177
     2
291
     1
 71
     2
176
     1
 72
     2
176
     1
 73
     0
176
     1
 90
        0
176
     1
 40
-0.6
176
     1
 41
-30.0
176
     1
 62
     5
 63
     7
421
 16777215
176
     1
 74
     1
176
     1
 91
        4
176
     1
 64
     7
176
     1
 65
   257
176
     1
 75
     1
176
     1
175
     1
176
     1
 42
1.0
176
     1
 92
        8
176
     1
 66
     7
176
     1
 43
1.0
176
     1
 76
     1
176
     1
 77
     6
176
     1
 78
     2
176
     1
 67
     7
176
     1
 79
     5
176
     1
170
     0
176
     1
171
     0
176
     1
290
     0
176
     1
 93
        1
176
     1
 44
0.0
176
     1
173
     0
176
     1
  0
VISUALSTYLE
  5
2B
102
{ACAD_REACTORS
330
2A
102
}
330
2A
100
AcDbVisualStyle
  2
Flat
 70
     0
177
     2
291
     1
 71
     2
176
     1
 72
     1
176
     1
 73
     1
176
     1
 90
        2
176
     1
 40
-0.6
176
     1
 41
30.0
176
     1
 62
     5
 63
     7
421
 16777215
176
     1
 74
     0
176
     1
 91
        4
176
     1
 64
     7
176
     1
 65
   257
176
     1
 75
     1
176
     1
175
     1
176
     1
 42
1.0
176
     1
 92
        8
176
     1
 66
     7
176
     1
 43
1.0
176
     1
 76
     1
176
     1
 77
     6
176
     1
 78
     2
176
     1
 67
     7
176
     1
 79
     5
176
     1
170
     0
176
     1
171
     0
176
     1
290
     0
176
     1
 93
       13
176
     1
 44
0.0
176
     1
173
     0
176
     1
  0
VISUALSTYLE
  5
2C
102
{ACAD_REACTORS
330
2A
102
}
330
2A
100
AcDbVisualStyle
  2
FlatWithEdges
 70
     1
177
     2
291
     1
 71
     2
176
     1
 72
     1
176
     1
 73
     1
176
     1
 90
        2
176
     1
 40
-0.6
176
     1
 41
30.0
176
     1
 62
     5
 63
     7
421
 16777215
176
     1
 74
     1
176
     1
 91
        4
176
     1
 64
     7
176
     1
 65
   257
176
     1
 75
     1
176
     1
175
     1
176
     1
 42
1.0
176
     1
 92
        0
176
     1
 66
   257
176
     1
 43
1.0
176
     1
 76
     1
176
     1
 77
     6
176
     1
 78
     2
176
     1
 67
     7
176
     1
 79
     5
176
     1
170
     0
176
     1
171
     0
176
     1
290
     0
176
     1
 93
       13
176
     1
 44
0.0
176
     1
173
     0
176
     1
  0
VISUALSTYLE
  5
2D
102
{ACAD_REACTORS
330
2A
102
}
330
2A
100
AcDbVisualStyle
  2
Gouraud
 70
     2
177
     2
291
     1
 71
     2
176
     1
 72
     2
176
     1
 73
     1
176
     1
 90
        2
176
     1
 40
-0.6
176
     1
 41
30.0
176
     1
 62
     5
 63
     7
421
 16777215
176
     1
 74
     0
176
     1
 91
        4
176
     1
 64
     7
176
     1
 65
   257
176
     1
 75
     1
176
     1
175
     1
176
     1
 42
1.0
176
     1
 92
        0
176
     1
 66
     7
176
     1
 43
1.0
176
     1
 76
     1
176
     1
 77
     6
176
     1
 78
     2
176
     1
 67
     7
176
     1
 79
     5
176
     1
170
     0
176
     1
171
     0
176
     1
290
     0
176
     1
 93
       13
176
     1
 44
0.0
176
     1
173
     0
176
     1
  0
VISUALSTYLE
  5
2E
102
{ACAD_REACTORS
330
2A
102
}
330
2A
100
AcDbVisualStyle
  2
GouraudWithEdges
 70
     3
177
     2
291
     1
 71
     2
176
     1
 72
     2
176
     1
 73
     1
176
     1
 90
        2
176
     1
 40
-0.6
176
     1
 41
30.0
176
     1
 62
     5
 63
     7
421
 16777215
176
     1
 74
     1
176
     1
 91
        4
176
     1
 64
     7
176
     1
 65
   257
176
     1
 75
     1
176
     1
175
     1
176
     1
 42
1.0
176
     1
 92
        0
176
     1
 66
   257
176
     1
 43
1.0
176
     1
 76
     1
176
     1
 77
     6
176
     1
 78
     2
176
     1
 67
     7
176
     1
 79
     5
176
     1
170
     0
176
     1
171
     0
176
     1
290
     0
176
     1
 93
       13
176
     1
 44
0.0
176
     1
173
     0
176
     1
  0
VISUALSTYLE
  5
38
102
{ACAD_REACTORS
330
2A
102
}
330
2A
100
AcDbVisualStyle
  2
Linepattern
 70
    14
177
     2
291
     1
 71
     2
176
     1
 72
     2
176
     1
 73
     0
176
     1
 90
        0
176
     1
 40
-0.6
176
     1
 41
-30.0
176
     1
 62
     5
 63
     7
421
 16777215
176
     1
 74
     1
176
     1
 91
        4
176
     1
 64
     7
176
     1
 65
   257
176
     1
 75
     7
176
     1
175
     7
176
     1
 42
1.0
176
     1
 92
        8
176
     1
 66
     7
176
     1
 43
1.0
176
     1
 76
     1
176
     1
 77
     6
176
     1
 78
     2
176
     1
 67
     7
176
     1
 79
     5
176
     1
170
     0
176
     1
171
     0
176
     1
290
     0
176
     1
 93
        1
176
     1
 44
0.0
176
     1
173
     0
176
     1
  0
VISUALSTYLE
  5
33
102
{ACAD_REACTORS
330
2A
102
}
330
2A
100
AcDbVisualStyle
  2
Realistic
 70
     8
177
     2
291
     0
 71
     2
176
     1
 72
     2
176
     1
 73
     0
176
     1
 90
        0
176
     1
 40
-0.6
176
     1
 41
-30.0
176
     1
 62
     5
 63
     7
421
 16777215
176
     1
 74
     1
176
     1
 91
        0
176
     1
 64
     7
176
     1
 65
   257
176
     1
 75
     1
176
     1
175
     1
176
     1
 42
1.0
176
     1
 92
        8
176
     1
 66
     8
424
  7895160
176
     1
 43
1.0
176
     1
 76
     1
176
     1
 77
     6
176
     1
 78
     2
176
     1
 67
     7
176
     1
 79
     5
176
     1
170
     0
176
     1
171
     0
176
     1
290
     0
176
     1
 93
       13
176
     1
 44
0.0
176
     1
173
     0
176
     1
  0
VISUALSTYLE
  5
37
102
{ACAD_REACTORS
330
2A
102
}
330
2A
100
AcDbVisualStyle
  2
Thicken
 70
    13
177
     2
291
     1
 71
     2
176
     1
 72
     2
176
     1
 73
     0
176
     1
 90
        0
176
     1
 40
-0.6
176
     1
 41
-30.0
176
     1
 62
     5
 63
     7
421
 16777215
176
     1
 74
     1
176
     1
 91
        4
176
     1
 64
     7
176
     1
 65
   257
176
     1
 75
     1
176
     1
175
     1
176
     1
 42
1.0
176
     1
 92
       12
176
     1
 66
     7
176
     1
 43
1.0
176
     1
 76
     1
176
     1
 77
     6
176
     1
 78
     2
176
     1
 67
     7
176
     1
 79
     5
176
     1
170
     0
176
     1
171
     0
176
     1
290
     0
176
     1
 93
        1
176
     1
 44
0.0
176
     1
173
     0
176
     1
  0
ENDSEC
  0
EOF
