<?xml version="1.0" encoding="utf-8"?>
<!-- Generator: Adobe Illustrator 22.0.1, SVG Export Plug-In . SVG Version: 6.00 Build 0)  -->
<svg version="1.1" id="Layer_1" xmlns="http://www.w3.org/2000/svg" xmlns:xlink="http://www.w3.org/1999/xlink" x="0px" y="0px"
	 viewBox="0 0 2000 2000" style="enable-background:new 0 0 2000 2000;" xml:space="preserve">
<g>
	<path d="M866.7,566.1c0.3,11.2-0.2,22.1,5.7,32.1c0.4,0.6,0.8,1.1,1.2,1.5c-0.6,3.7-1,7.5-1.1,11.3c-0.2,9-0.4,19.6,2.6,28.2
		c5.6,16.3,24.7,21.3,40.1,22c5.3,0.2,11.6-2,16.7-0.8c4.9,1.1,9,7,10.5,11.6c2.4,7-2.9,15.9,3.4,21.5c0,0,0,0,0,0
		c-0.5,1-1,2.2-1.2,3c-0.8,2.7-1.2,5.6-1,8.4c0.2,2.9,0.6,3.6,3.3,4.9c1.9,1,3.2,0.3,4.1-1.1c-0.3,3.5,0.1,6.8,4,8.4
		c1.4,0.6,2.5,0.6,3.3,0.3c0.1,0.6,0.3,1.2,0.6,1.7c1,1.7,5.1,3.8,7.1,3.9c0.9,0,1.5-0.2,2-0.8c0.7,1.8,2,3.3,4.3,4.5
		c2.8,1.4,4.1,0.9,4.9-0.4c0.3,2.4,1.2,4.4,3,5.4c4.7,2.6,7.7,1.2,9.2-2.1c0.4,0.7,1,1.3,1.7,1.7c3.1,1.9,12.5,4.4,15,0.4
		c2.4,3.8,10.4,1.8,13.6-0.4c0.6-0.4,1.1-1,1.6-1.6c1.5,3.3,4.5,4.6,9.2,2c1.8-1,2.7-3,3-5.3c0.8,1.3,2.1,1.8,4.9,0.4
		c2.3-1.2,3.6-2.7,4.3-4.5c0.5,0.5,1.2,0.8,2,0.8c1.9-0.1,5.6-2,6.7-3.5c0.5-0.6,0.8-1.3,0.9-2.1c0.8,0.3,1.9,0.2,3.3-0.3
		c3.9-1.5,4.3-4.9,4-8.4c0.9,1.3,2.2,2,4.1,1c2.3-1.2,3-1.7,3.2-4.4c0.2-2.8-0.1-5.7-0.8-8.4c-0.3-0.9-0.7-2.3-1.4-3.6c0,0,0,0,0,0
		c5.3-4.7,2.3-11.2,2.6-17.3c0.2-4.5,2.7-8.7,5.6-12c4.3-4.9,8.8-3.8,14.6-3.1c15,1.6,36.3-2.3,45.1-16c4.7-7.3,4.9-16.8,5.2-25.2
		c0.3-6.7,0.3-13.6-0.8-20.3c0.4-0.4,0.8-0.9,1.1-1.4c5.1-8.7,5.6-18.3,5.6-28.1c0.1-11.6,2.8-22.7,4.7-34.1
		c3.2-18.6,2.2-37.5-2.9-55.7c-5-17.6-13.8-34.1-26.8-47.2c-13.6-13.7-30.8-22.8-49-28.9c-10.9-3.7-22.1-6.3-33.4-8.6
		c-10.3-2.1-20.7-4.1-31.1-2c-9-1.8-18.1-0.5-27.1,1.2c-10,1.9-19.9,4.1-29.6,6.9c-18.5,5.4-36.2,13.4-50.9,26
		c-28.4,24.3-41,64.4-36.6,101C862.5,541.3,866.4,553.5,866.7,566.1z M950,700.4c-0.1,1.1-0.4,6-1.7,6.5c-3,1.1-1.6-8.9,0.1-12.4
		c0.2,0,0.4,0,0.5-0.1C950,696.2,950.2,698,950,700.4z M957.6,713.9c-0.9,0.1-1.8,0.2-2.7,0.3c-1.2-0.9-1.7-2.1-1.6-3.4
		c-0.2-1.2,0-2.5,0-3.7c0.1-1.8,0.1-8.5,2.3-10.3c2.5,2.2,2,5.5,2,8.5c0,1.3,0,2.6,0,3.9C957.6,709.7,957.9,713.5,957.6,713.9z
		 M965.4,719.2c-3.2,1.7-4.6-4.4-4.4-10.3c0.1-0.9,0.2-1.8,0.2-2.8c0.5-3.6,1.6-6.6,3.4-6.6c2.4,1.3,1.4,9.3,1.4,11
		C966,712.2,966.8,718.5,965.4,719.2z M975.5,716.3c-0.2,1.2-0.4,8-1.2,8.6c-0.3-0.4-0.5-0.8-0.8-1.3c-1.5-0.5-2.3-1.5-2.3-3
		c-0.7-1.7-0.5-3.6-0.6-5.4c0-3.1-0.8-10.2,3-11.1c0,0,0,0,0.1,0.1C977.3,707.2,976.1,712.2,975.5,716.3z M982.6,729.5
		c-3.4-1-2.7-8.3-2.5-10.9c0.2-3.9,0.6-12.6,5.3-14.5c0.1,0.3,0.4,0.6,0.8,0.8c2,0.9,1.2,10,1.2,11.8
		C987.4,719.1,988.2,731.1,982.6,729.5z M1001,729.8c-1.1,0-2.2-0.1-3.3-0.4c-6.4-1.1-6-6.9-5.5-12.1c0.2-2.3,0.6-5.5,1.6-7.8
		c1.5-3.5,3.3-4.8,6-4.3c0,0.3,0,0.6,0.2,0.9c3.3,5,2.7,9.9,2.6,15.6c0,1.8,0.3,4.6-0.1,6.3C1003.3,730.1,1002.8,730.7,1001,729.8z
		 M1010.8,729.8c-0.5,0.1-1,0.2-1.6,0.3c0-1.4,0-2.8-0.1-4.2c0-2.1-0.1-4.2-0.1-6.3c-0.1-4.9-0.3-9,2.3-13.5
		c0.2-0.3,0.2-0.5,0.2-0.8c6.1-0.6,6.5,10.2,6.7,14.1C1018.6,724.2,1017.6,731.1,1010.8,729.8z M1027.9,729.5
		c-1.5-1.1-2.9-2.3-4.4-3.4c-0.1-1-0.2-2.1-0.2-3.1c-0.1-1.7-0.2-3.5-0.2-5.2c0-2.1-0.8-11.9,1.2-12.9c0.4-0.2,0.6-0.4,0.8-0.7
		C1032.6,707.6,1031.6,729.6,1027.9,729.5z M1037.9,722.9c-0.8,0.4-1.4,1-1.7,1.9c-0.3-0.1-1-7.1-1.1-7.8c-0.6-4.3-2.1-9.7,1.7-12.9
		c0,0,0,0,0.1-0.1c3.5,0.9,2.9,7.2,3,10.2c0,1.5,0.1,3.1-0.1,4.5C1040,720.8,1039.4,722.2,1037.9,722.9z M1045.1,719.2
		c-1.5-0.8-0.6-7.1-0.6-8.7c0-1.7-0.9-9.7,1.4-11c1.7,0,2.9,2.8,3.3,6.3c0.1,1.1,0.2,2.3,0.3,3.3
		C1049.7,714.9,1048.3,720.8,1045.1,719.2z M1057.2,710c-0.2,1.3-1.4,6.7-4.3,3.9c-0.8-0.8-0.1-6.6-0.1-7.8c0-3.3-0.8-6.9,2-9.3
		c2.2,1.7,2.2,7.9,2.3,9.6C1057.1,707.5,1057.3,708.8,1057.2,710z M1062.2,706.8c-1.4-0.7-1.6-5.1-1.7-6.5c-0.2-2.4-0.1-4.1,1-6
		c0.2,0.1,0.5,0.1,0.7,0.1C1063.9,698,1064.7,708.1,1062.2,706.8z M871.2,484.1c8.4-37,36.4-62,70.9-74.9c9.2-3.4,18.6-6.2,28.2-8.3
		c10.2-2.3,21.1-5,31.6-3.6c0.4,0.7,1.2,1.1,2.2,0.9c0.4-0.1,0.7-0.2,1.1-0.3c0.4,0.1,0.8,0.2,1.1,0.3c1,0.3,1.8-0.2,2.2-0.8
		c8.9-1.2,17.9,0.7,26.7,2.5c9,1.8,17.8,4.1,26.5,7c17.5,5.8,34.7,14.1,48.4,26.6c26.3,23.9,36.6,61.5,30,96
		c-2.1,10.8-5.7,21.2-7.3,32.1c-1,6.7-0.8,14.1-2.2,20.9c-2.6-4.6-5.5-9.1-7.5-14c-4.3-10.1-2.2-20.6,1.3-30.7
		c5.8-16.9,14.8-36.4,3.4-53.1c-1.1-1.6-3.6-0.1-2.6,1.5c13.1,20.9-6.1,44.2-10.4,64.8c-2.2,10.6-0.6,19.6,4.1,29.3
		c5.4,11.1,8.4,20.7,8,33.2c-0.3,10.4,0.7,24.5-9.2,30.8c-9.3,5.9-21.8,6.5-32.5,5.9c-9.7-0.5-17.7,3.1-22.4,12.1
		c-2,3.8-2.7,8.2-2.9,12.4c-0.1,3.6,2.7,11.5-0.3,14.1c-1.4,1.2-1.4,2.8-0.6,4c-1,1.3-1.5,2.9-1.7,4.6c-0.4-0.9-1-1.6-1.9-2
		c-0.2-1-1.4-1.9-2.5-1.2c-2.1,1.3-3.1,3.1-3.5,5.3c-0.4-0.6-0.9-1-1.6-1.3c0.1-0.5-0.1-1-0.7-1.2c-5.2-2.5-6,3.4-6.1,7.4
		c-0.8-1.5-2.1-2.4-4-2.3c-0.6-0.9-2-1.5-3-0.5c-1.9,1.8-2.8,4.2-3,6.8c-1.1-3.3-3.1-6.2-6.7-6.5c-0.6-0.5-1.5-0.6-2.4,0.2
		c-1.7,1.6-2,4-2.1,6.4c-2-6.2-5.7-8.2-11.8-3.8c-0.5,0.4-0.5,1-0.3,1.4c-0.9,1.3-1.5,2.7-1.9,4.1c-0.4-1.4-1-2.8-2-4.1
		c0.3-0.4,0.4-1-0.2-1.4c-5.5-3.6-10.4-3.5-12.7,3.2c-0.1,0.3-0.3,0.7-0.4,1.2c0-2.5-0.3-5.2-2.1-6.9c-0.8-0.8-1.7-0.7-2.4-0.2
		c-3.6,0.3-5.6,3.2-6.7,6.5c-0.3-2.6-1.1-5-3-6.8c-1-1-2.4-0.5-3,0.5c-1.9-0.2-3.2,0.8-4.1,2.3c-0.1-4.3-0.9-10-6.1-7.4
		c-0.6,0.3-0.7,0.8-0.7,1.3c-0.6,0.3-1.2,0.7-1.6,1.3c-0.5-2.2-1.5-4-3.6-5.3c-1-0.6-2.3,0.2-2.5,1.2c-0.8,0.4-1.4,1.1-1.9,2
		c-0.2-1.7-0.7-3.3-1.7-4.6c0.8-1.2,0.8-2.8-0.6-4c-3-2.6-0.1-10.5-0.3-14.1c-0.2-4.2-0.9-8.6-2.9-12.4
		c-4.3-8.4-12.1-12.6-21.3-12.2c-11.1,0.5-23.9,0.3-33.6-5.9c-9.9-6.3-8.9-20.4-9.2-30.8c-0.4-12.5,2.6-22.1,8-33.2
		c4.5-9.2,6.3-18,4.3-28.2c-4.1-20.9-23.8-44.7-10.6-65.8c1-1.6-1.5-3.1-2.6-1.5c-9.7,14.2-4.6,31.2,0.8,46c3.5,9.4,7.3,19,6.1,29.2
		c-0.9,8.4-5.8,15.2-9.8,22.4c-1-5.2-1.1-10.7-1.6-16c-1.1-10-3.8-19.5-6.2-29.2C867.8,519.6,867.2,501.6,871.2,484.1z"/>
	<path d="M982.1,568.9c-2.6-7.6-14.7-9.2-21.5-9.6c-11.5-0.8-23.2,0.8-34.1,4.6c-3.7,1.3-7.3,2.8-10.5,4.9c-1.9,1.2-3.8,2.7-5,4.6
		c-0.8,1.3-1.3,2.8-1.7,4.3c-2,7.1-2.2,14.6-0.8,21.8c0.3,1.6,0.7,3.2,1.5,4.7c1,1.9,2.7,3.4,4.5,4.6c6.7,4.5,15.3,5,23.3,4.7
		c8.2-0.3,16.4-1.2,24.4-2.8c3.2-0.6,6.4-1.3,9.1-3c2.5-1.5,4.5-3.7,6.9-5.5c1.1-0.8,2.3-1.6,3.2-2.6c1.1-1.2,1.8-2.8,2.4-4.4
		C986.7,586.5,985,577.4,982.1,568.9z"/>
	<path d="M1009.6,498.4c0.9-6.8,0.2-14,0.2-20.9c-0.1-7-0.1-13.9-0.2-20.9c-0.2-13.9-0.3-27.8-0.5-41.8c0-1-1.5-1-1.5,0
		c-0.1,13.9-0.3,27.8-0.5,41.8c-0.1,6.6-0.1,13.1-0.2,19.7c-0.1,7.3-0.8,14.9,0.1,22.1C1007.3,500,1009.4,500,1009.6,498.4z"/>
	<path d="M929.7,539.5c9,1.4,18,0.1,27-0.1c4.9-0.1,9.7,0.2,14.5,1.1c4.4,0.9,12.2,2.3,15.2,5.7c1.6,1.8,4.2-0.9,2.6-2.6
		c-4-4.3-12.5-5.6-18-6.5c-7.9-1.2-15.7-0.5-23.6,0.1c-8.5,0.7-17.5,1.5-25.7-1.3c-8.7-3-14.8-10.1-18-18.6
		c-0.1-0.2-0.4-0.1-0.3,0.1C906.5,530.1,917.1,537.6,929.7,539.5z"/>
	<path d="M1099.6,573.3c-1.2-1.9-3.1-3.4-5-4.6c-3.3-2.1-6.9-3.6-10.5-4.9c-10.9-3.8-22.6-5.3-34.1-4.6c-6.8,0.5-18.9,2-21.5,9.6
		c-2.9,8.5-4.6,17.6-1.6,26.3c0.5,1.6,1.2,3.1,2.4,4.4c0.9,1,2.1,1.7,3.2,2.6c2.4,1.8,4.4,4,6.9,5.5c2.8,1.7,6,2.4,9.1,3
		c8.1,1.5,16.2,2.5,24.4,2.8c8.1,0.3,16.6-0.2,23.3-4.7c1.8-1.2,3.4-2.7,4.5-4.6c0.8-1.4,1.2-3.1,1.5-4.7c1.4-7.2,1.1-14.7-0.8-21.8
		C1100.9,576.1,1100.4,574.6,1099.6,573.3z"/>
	<path d="M985,662.4c0.7,0.7,1.5,1.4,2.5,1.7c2.6,0.7,5-1.4,7.4-2.7c3.1-1.7,6.9-2.2,10.3-1.2c3.4-1,7.2-0.6,10.3,1.2
		c2.4,1.3,4.8,3.4,7.4,2.7c1-0.3,1.8-0.9,2.5-1.7c3.3-3.6,3.5-8.9,3-13.7c-1.3-11.7-5.9-22.7-11.2-33.2c-1.2-2.4-2.4-4.8-4.3-6.7
		c-1.9-1.9-4.5-3.2-7.2-2.8h-1.2c-2.6-0.4-5.3,0.9-7.2,2.8c-1.9,1.9-3.1,4.3-4.3,6.7c-5.2,10.5-9.9,21.5-11.2,33.2
		C981.5,653.5,981.7,658.9,985,662.4z"/>
	<path d="M1024.2,546.2c2.9-3.1,10-4.6,14.1-5.4c5.1-1.1,10.3-1.5,15.6-1.3c9,0.2,18,1.5,27,0.1c12.6-1.9,23.2-9.4,26.3-22.1
		c0.1-0.2-0.3-0.3-0.3-0.1c-3.2,8.5-9.3,15.6-18,18.6c-8.2,2.8-17.2,2-25.7,1.3c-7.9-0.7-15.7-1.3-23.6-0.1c-5.5,0.8-14,2.2-18,6.5
		C1019.9,545.3,1022.5,548,1024.2,546.2z"/>
	<path d="M799.7,944.6c3.1,2.4,6.4,4.8,10.3,5.5c1.3,0.2,2.7,0.4,3.9,0.1c0.2,0,0.7,0,1.2-0.1c0.2,0.8,0.7,2,0.9,2.4
		c2.6,8.2,6,16.9,11.6,23.7c4.7,5.6,11.1,9.5,18.6,8.7c7.9-0.8,13.9-6.6,20.2-10.7c6.9-4.4,13.7-8.3,18.6-15.1
		c4.7-6.5,7.4-14.2,9.6-21.8c1.3-4.4,2-9.9,4.3-13.9c2.5-4.2,7.4-7.6,11.1-10.8c8.5-7.4,17.4-14.5,26.5-21
		c16.9-12,37.4-20.8,51.5-36.2c0.5-0.5,0.8-1.1,1.1-1.7c15.9,12.7,31.6,25.5,47.5,38.2c27.6,22.2,59.7,44.4,70,80.2
		c2.7,9.6,5.9,18.1,14.1,24.4c7.5,5.8,17.2,8.9,26.7,8c16.1-1.6,29.3-16.8,25.6-32.8c0.9-0.6,1.6-1.4,2-2.5
		c11.5-2.9,21.3-15.5,22.1-27.1c1.1-16.5-14.5-27.9-29.4-28.3c-10.2-0.2-19.3,1.2-28.9-3.4c-8.1-3.9-15.1-9.7-22-15.3
		c-14.9-12-31.4-20.1-47.8-29.7c-15.2-8.9-26.5-21.9-39.7-33.1c15.2-9.8,29.5-21.4,44.4-31.7c15-10.4,30.6-22.2,47.4-29.5
		c15.8-6.9,33.8-2.7,49.9-8.6c13.3-4.9,23.1-16.7,25.5-30.9c2.5-14.2-12.6-26-25.3-27.7c-5.1-0.7-4.7-2.6-5.1-7.1
		c-0.3-3.1-0.7-6.2-1.7-9.1c-1.8-5.6-5.7-10.9-11.6-12.6c-6.7-1.9-14.3,0.6-20.6,2.8c-6.6,2.2-13.4,4.9-18.2,10.2
		c-4.7,5.1-6.9,11.8-9.2,18.2c-3.1,8.8-7,16.9-13.3,23.8c-7.2,7.9-16.3,12.9-25.4,18.2c-9.4,5.4-18.6,11.1-27.7,17
		c-17.3,11.4-34.3,23.3-50.9,35.7c-3.8-3.9-7.3-8.1-10.8-12.5c-6-7.6-12.2-14.8-19.8-20.9c-7.4-5.8-15.5-10.9-21.8-18.1
		c-6.7-7.6-10.4-17.2-15.8-25.7c-4.7-7.3-10.8-13.2-16.8-19.4c-7.4-7.6-12.6-15-15.6-25.1c-2-6.7-4-14.4-10.1-18.5
		c-14.2-9.7-34.2,4.7-41.2,17.4c-13.4,8.2-27.9,18.4-29.7,35.4c-2,18.9,14.1,25.5,28.4,32.6c36.7,18.3,69.9,41.7,102.6,66.3
		c4.2,3.2,8.4,6.4,12.6,9.6c-24.1,22.7-57.6,31-82.5,52.5c-0.9,0.8-1.9,1.6-2.8,2.3c-0.8-0.1-1.6,0.1-2.5,0.6
		c-1.2,0.7-2.2,1.5-3.1,2.4c-1,0.4-2.1,0.6-3.3,0.8c-4.9,0.7-10,0.1-15,0c-9.5-0.1-19.1,0.7-28.5,2.5c-14.4,2.8-29.4,9.7-33.6,25
		C773.2,926,787.8,935.3,799.7,944.6z M1075.1,750.5c12.6-7.5,23.4-16.9,30-30.2c2.9-5.8,4.4-11.9,6.5-18c3.6-10.2,10-15.1,20-18.6
		c6.6-2.3,15.7-5.7,21.8-1c-0.9,0.8-1.6,1.9-1.8,3.3c-0.8,7.1,2,12.4-4,18.1c-5.1,4.9-11.9,8.6-18.6,10.4c-2,0.5-1.1,3.5,0.8,3.1
		c8.5-2,17.9-4.7,24.5-10.7c1.9-1.7,3.4-3.9,4.5-6.3c0,1,0.1,2,0.2,3c0.6,5.6,4.1,7,9.1,7.6c0.7,0.1,1.3,0.2,2,0.3
		c-0.9,5.7-2.3,10.8-6.2,15.4c-3.7,4.3-10,9.2-15.5,10.8c-1,0.3-0.8,1.9,0.2,1.8c4.2-0.1,7.2,0.3,11.2-1.5c3.4-1.5,6.5-3.6,9-6.3
		c4.5-4.7,7.9-11.3,8.6-17.9c1.9,0.9,3.7,2,5.2,3.4c-1.2,2.3-1.6,5.2-2.8,7.4c-1.8,3.4-5,7.1-7.6,9.9c-1.6,1.7,0.8,4.1,2.6,2.6
		c3.7-3.1,7.6-5.1,10.2-9.5c0.8-1.4,1.7-3,2.3-4.8c0.6,1.1,1,2.2,1.3,3.4c1.8,6.9-4,17-8.6,21.9c-5.3,5.6-12.7,8.2-20.1,9.6
		c-14.5,2.8-29.3,0.8-43.2,7c-16.9,7.4-33.1,17.5-48.7,27.2c-16.2,10.1-33.4,20.9-47.2,34.1c0,0,0,0,0,0
		c-7.5-5.5-15.6-10.1-23.1-15.6c-3-2.2-5.7-4.6-8.3-7.1C1017.3,784.5,1046.2,767.7,1075.1,750.5z M876.4,763.9
		c0.9-1.3,1.1-2.9,0-4.4c-4-5.4-6.7-11.6-10-17.4c-3.2-5.6-5.8-11.6-11.9-14.6c-6-2.9-12-4.4-17.3-8.7c-3.5-2.8-6.8-5.9-7.8-10.3
		c-1.1-5.1,1.7-9.8,4.9-13.8c1.2-1.6-0.9-3.8-2.2-2.2c-3.5,4.3-7.9,10.9-6.9,16.8c1,6.3,8.5,12.6,13.3,16c3.4,2.4,7,4,10.7,5.7
		c3.6,1.7,5.6,4,7.1,6.9c-1.9-0.4-3.9-0.8-5.9-1.2c-4.7-1.1-9.1-2.8-13.3-5c-9.5-4.8-21.8-13.5-15-25.8c1.2-2.1-2-4-3.2-1.9
		c-5.1,9.1-1.8,21,5.8,27.3c4.6,3.9,9.7,7.1,15.2,9.7c6.1,2.9,12.3,4.9,17.8,8.9c1.2,0.9,2.4,1.1,3.5,0.9c0.6,1.8,1.3,3.6,2,5.3
		c-7-4-14.1-7.9-21.3-11.6c-8.2-4.2-19-7.5-25.5-14.3c-7.2-7.4-6.1-18.5-1.1-26.8c5.3-9,14.8-15,23.2-20.6c1-0.7,1.3-1.7,1.1-2.7
		c8.9-12.5,32-25.9,39.5-5.9c2.3,6,3.3,12.3,6.2,18c1.5,3,3.3,5.7,5.4,8.3c-5.4-0.3-11.2,0.7-15.8,1.1c-5.4,0.4-10.6,0.3-15.5-2.4
		c-5-2.8-12.3-9.7-11.6-15.8c0.1-1.3-2.1-1.7-2.4-0.3c-1.6,9.5,9.3,19,17.1,22.5c4.8,2.2,10.3,3,15.5,3.3c3.5,0.2,7,0,10.5,0.3
		c3.4,0.3,6.7,1.2,10.2,1.1c0.2,0,0.4,0,0.5-0.1c0.1,0.1,0.1,0.1,0.2,0.2c5.7,5.9,11.2,11.7,15.4,18.8c4.6,7.7,8,16.1,13.6,23.2
		c10.2,13.1,25.8,20.7,36.4,33.5c5.3,6.4,10,13.3,15.6,19.5c6,6.6,13,11.9,20.4,16.8c6.9,4.6,13.9,9,20.3,14.3
		c7.1,6,13.5,12.9,20.3,19.3c12.9,12.1,28,19.9,43.4,28.3c14.6,8,26.4,18.9,40,28.3c6.7,4.6,14.2,8.5,22.3,9.9
		c9.5,1.6,20-2.7,29.1,0.9c9.1,3.5,14.2,13.2,13.9,22.7c-0.3,10.5-11.1,15.4-20.2,16.6c0,0,0,0-0.1,0c-6.1-2.5-6.1-13.2-7.3-18.7
		c-1.3-6.2-3.6-11.6-7.9-16.3c-1.4-1.6-3.7,0.7-2.4,2.4c3.4,4,4.7,7.9,5.2,11.9c-0.9-1.1-1.9-2-2.8-2.8c-3.1-2.7-5.9-3.9-10.1-4
		c-0.9,0-0.8,1.3,0,1.3c1.9,0.1,4.1,0.4,5.8,1.4c2.4,1.4,2.7,3.4,3.2,5.8c0.7,3.4,1.5,7.6,3.9,10.2c0,1.9,0,3.8,0.3,5.8
		c0.3,2.5,1,5,2.2,7.1c-3.1,2.2-6.3,4.1-10.3,2.8c-4.7-1.5-9.4-8.1-10.4-12.7c-0.1-0.6-1.1-0.5-1.1,0.1c0,11.6,8.7,19.3,18.4,19.2
		c-1.8,2.6-3.9,4.8-7.3,5.8c-7.9,2.3-15.8-1.5-19.8-8.1c-4.2-6.9-5.3-13.9-7.7-21.4c-1.8-5.5-5.2-9.4-10.6-11.6
		c-1.7-0.7-3.2,1.8-1.5,2.5c7.2,3.2,9,8.7,9,16.1c0,4.6,0.3,8.7,1.8,13c2.8,8.2,6.3,15,14.6,18.5c5.5,2.3,12.1,3.3,18,1.8
		c-6.4,2.9-14.3,2.1-20.6-0.9c-15.6-7.3-15.7-26.5-22.8-40.3c-14.3-27.7-40.9-47.2-65.2-65.6C989.6,843.8,935.7,799.8,876.4,763.9z
		 M784.9,909.8c5.7-17.8,28.8-20.1,44.4-20.7c7-0.3,14.1,0.5,21.2,0.4c-0.5,0.5-1,0.9-1.6,1.3c-5.1,3.6-11,6.1-16.3,9.4
		c-2.1,1.3-0.7,4.5,1.6,3.9c6-1.5,11.9-3.8,17.2-7.1c5.3-3.2,9.3-8.1,14.6-11.1c0.8-0.4,1.4-1,1.7-1.7c1.3-0.9,2.6-1.9,3.8-3
		c13.1-11.1,27.1-20.1,41.8-28.7c13.9-8.2,27.7-15.9,39.2-27.3c9.6,7.4,19.1,14.9,28.6,22.5c-0.2,0.2-0.4,0.4-0.6,0.6
		c-11.6,12.6-27.9,20-42,29.5c-14.2,9.6-27.7,20.1-40.3,31.6c-3,2.7-5.3,5.2-7.2,7.9c-4.3,3.1-7.8,7.2-11,11.4
		c-1.6,2.1-3.2,4.2-4.7,6.3c-2.1,3-2.9,5.7-4.6,8.8c-0.8,1.5,1.3,2.7,2.2,1.3c1.5-2.3,4.2-4.2,6-6.2c1.6-1.8,3.2-3.5,4.9-5.3
		c0.4-0.4,0.9-0.9,1.3-1.3c-1.6,5.9-3.3,11.8-6.2,17.2c-3.9,7.1-9.7,10.8-16.2,15.2c-0.2,0.1-0.4,0.3-0.7,0.5
		c-0.2,0-0.4-0.1-0.6-0.1c-5-0.3-10.1-0.1-15.1-0.6c-2.9-0.3-5.4-0.7-7.4-3c-0.2-0.2-1-1.3-1.9-2.5c5.2,0.7,9.9,1.2,15.5-1.4
		c6-2.8,11.1-8.2,14.5-13.8c1.2-2-1.8-3.7-3.1-1.8c-3.9,6-9,9-15.9,10.4c-6.1,1.2-10.6-0.9-16.4-1.6c-1.7-0.2-3.1,1.3-3.6,2.7
		c-1.7,5.1,4.3,12.9,8.2,15.6c3.8,2.6,9,4,14.2,4.7c-2.8,1.6-5.8,2.6-8.9,2c-7.5-1.5-12.2-10.3-15.2-16.5
		c-2.7-5.6-3.3-16.7-10.9-17.1c-4.2-0.3-6.6,0.3-10.4-2.3c-1.7-1.2-3.4-2.5-5-3.8c1.5-0.2,3.3-0.1,4.1-0.2c2.4-0.3,4.6-0.9,6.9-1.7
		c3.5-1.3,6.8-3.3,9.3-6.2c5.5-6.6,4.2-15,2.4-22.7c-0.5-2.3-3.8-1.3-3.4,0.9c1.5,8.9,1.1,18.3-9.1,21.2c-6,1.7-12.8-1.7-17.9,2.6
		C786.2,924.6,782.1,918.8,784.9,909.8z"/>
	<path d="M1834.2,1605.4c-40.4,22-81.9,28.3-126,15.7c-35.5-10.1-69.8-23-105.1-33.8c-31.8-9.8-65.5-16.3-98.8-11.6
		c-5.4,0.8-10.6,2-15.8,3.4c2.4-2.9,4.8-5.9,7.1-8.9c13.3-17.7,25.8-36,37.9-54.6c26.1-40.2,49.1-81.7,68-125.8
		c0.3-0.6,0.3-1.2,0.4-1.7c9.8-11.1,7.5-23.8,7.9-38.1c0.6-20.6,0.8-41.1,0.5-61.7c-0.1-9-11-11-15.8-6
		c-50.6,4.3-105.2,12.9-154.5-0.1c-47.7-12.7-90.9-37.4-134.2-60.2c-38-20.1-76.2-39.8-114.3-59.7c23.2-0.2,46.4-0.3,69.6-0.4
		c49.1-0.3,98.1-1.6,147.2-3.3c101.8-3.5,203.9-6,305.8-7.4c0.8,0,1.3-0.4,1.7-0.9c1-0.1,1.9-0.7,2.5-1.9
		c13.3-23.5,21.7-55.2-1.6-75.1c-0.8-0.7-1.7-0.8-2.5-0.5c0,0-0.1,0-0.1,0c-47.3-0.5-94.6-1.3-142-2.2c1.7-2.6,2.7-5.9,2.6-9.9
		c-1.2-42.2,5.6-76.6,28.9-112.2c20.4-31.2,30-67,49.3-98.6c17.3-28.3,34.9-54.4,43.6-86.9c9.2-34,10.9-69.9,10-104.9
		c-1.8-70.4-19-133.5-62.3-189.8c-19.4-25.2-41.9-47.3-63.9-70.1c-16.9-17.5-33-33.6-52.7-45.9c62.2-1.3,124.3-2.3,186.5-3
		c0.8,0,1.3-0.4,1.7-0.9c1-0.1,1.9-0.7,2.5-1.9c13.3-23.5,21.7-55.2-1.6-75.1c-0.8-0.7-1.7-0.8-2.5-0.5c0,0-0.1,0-0.1,0
		c-120.1-1.4-240.3-3.9-360.4-7.4c-60.1-1.7-120.1-3-180.2-3.3c-29.4-0.1-58.9-0.2-88.3-0.4c2.9-34.2,10.9-69.8,0-103.2
		c-4.4-13.4-11.2-25.7-22.6-34.2c-17-12.6-39.8-16-46.2-38.7c0.5-2.1,0.9-4.2,1.2-6.5c0.6-5.8-4.4-8-8.9-7c-4.4-1.1-9.5,1.1-8.9,7
		c0.2,2.3,0.7,4.5,1.2,6.6c-6.4,23.1-29.1,26-46.2,38.7c-11.4,8.5-18.2,20.8-22.6,34.2c-11,33.3-2.9,69.1,0,103.2
		c-29.4,0.3-58.9,0.3-88.3,0.4c-60.1,0.3-120.1,1.6-180.2,3.3c-120.1,3.5-240.3,6-360.4,7.4c0,0-0.1,0-0.1,0
		c-0.8-0.2-1.7-0.2-2.5,0.5c-23.3,19.8-14.9,51.6-1.6,75.1c0.6,1.1,1.6,1.7,2.5,1.8c0.3,0.5,0.9,0.9,1.7,0.9
		c62.1,0.7,124.3,1.7,186.5,3c-18.5,11.4-33.9,26.2-49.7,42.7c-22.9,24-46.7,47-67,73.3c-43.3,56.3-60.5,119.4-62.3,189.8
		c-0.9,33.5,0.7,67.5,8.8,100.2c8.6,34.4,26.6,61.8,44.8,91.6c18.6,30.4,27.6,65.1,47,95.1c24.1,37.3,32.5,71.2,31.2,115.7
		c-0.1,4,0.9,7.2,2.6,9.9c-47.3,0.9-94.7,1.6-142,2.2c0,0-0.1,0-0.1,0c-0.8-0.2-1.7-0.2-2.5,0.5c-23.3,19.8-14.9,51.6-1.6,75.1
		c0.6,1.1,1.6,1.7,2.5,1.8c0.3,0.5,0.9,0.9,1.7,0.9c101.9,1.4,203.9,3.9,305.8,7.4c49.1,1.7,98.1,3,147.2,3.3
		c23.2,0.1,46.4,0.2,69.5,0.4c-38.1,19.9-76.2,39.7-114.3,59.7c-43.3,22.8-86.5,47.7-134.2,60.2c-49.5,13-103.8,4.4-154.6,0.1
		c-4.8-5-15.6-3-15.8,6c-0.3,20.6-0.1,41.1,0.5,61.7c0.4,14.2-1.8,27,7.9,38.1c0.1,0.6,0.1,1.1,0.4,1.7c18.9,44,42,85.6,68,125.8
		c12,18.5,24.6,36.9,37.9,54.6c2.2,2.9,4.5,5.8,6.8,8.6c-3.4-0.9-6.9-1.7-10.4-2.3c-33.2-5.6-66.8-0.2-98.8,9.2
		c-37.1,10.9-72.9,25.2-110.2,35.4c-44.4,12.2-85.3,6.5-126-15.7c-1.1-0.6-2.5,1-1.5,1.9c53.6,46.1,121.1,50.9,187.1,33
		c38.5-10.5,77.3-26.3,118-24.9c41.2,1.4,73.6,28.2,113.5,35c30.5,5.2,62.7,2.4,90-13c15.8-8.9,27.2-22.3,41.5-32.9
		c19.9-14.9,47.2-15.8,71-14.7c27.6,1.3,41.9,11.5,61.6,27.9c11.9,9.9,26,17.7,40,24.2c32,14.9,65.4,23.3,100.2,27.9
		c1.4,0.2,2.7,0.2,3.9,0.1c0.1,0,0.2,0,0.2,0c0.1,0,0.1,0,0.2,0c1.2,0.1,2.5,0.1,3.9-0.1c33.4-4.4,65.1-12.4,95.9-26
		c14.2-6.3,28.3-13.7,40.7-23.2c7-5.3,12-11.8,18.7-17.3c14-11.5,29.5-12.5,46.5-13.5c22.5-1.2,47.4-0.3,66.9,12.3
		c14.6,9.4,26.4,23.5,41.5,32.9c27.9,17.4,62.3,20.8,94.1,15.3c38-6.6,69.3-32.3,108.3-34.8c42.5-2.7,82.9,13.7,123.2,24.7
		c66,18,133.5,13.1,187.1-33C1836.7,1606.3,1835.3,1604.7,1834.2,1605.4z M1397.8,1609.1c4.6-31.8-0.6-67.6-1.2-99
		c-0.7-37.3-0.1-74.8-1.5-112c15,1.8,30.1,3.1,45.2,3.9c-2.2,34.6-2.1,69.7-3.2,104.3c-0.9,29.2-3.4,59.7-0.9,89
		c-4.3,2.9-8.7,5.6-13.1,7.9c-0.9,0.5-1.8,1-2.6,1.6C1413.2,1606.9,1405.6,1608.5,1397.8,1609.1z M1288.4,1345.3
		c-48.3-16.7-94-39-137.9-65c-44.8-26.5-84.3-61.4-130.4-85.7c-4-2.1-7.9-2.7-11.4-2.2c-3.6-0.4-7.5,0.1-11.5,2.2
		c-46.1,24.2-85.6,59.1-130.4,85.7c-43.9,26-89.6,48.3-137.9,65c-58.4,20.2-117.5,32.5-177.6,37.9c19.3-2.6,38.4-6.3,57.2-10.2
		c31-6.4,61.5-14.8,90.7-27.2c31.8-13.6,60.9-32.5,91.8-47.9c0.7-0.3,0.2-1.4-0.5-1.2c-28.4,7.5-53,24.4-80.1,35.3
		c-28.9,11.6-59.4,19.7-89.8,26c-63.2,13.1-131.7,26-194,3.2c-0.6-2.3-1-4.7-1.4-7.2c59.2,20.8,123.3,10.4,183.4-2.1
		c31-6.4,61.5-14.8,90.7-27.2c31.8-13.6,60.9-32.5,91.8-47.9c0.7-0.3,0.2-1.4-0.5-1.2c-28.4,7.5-53,24.4-80.1,35.3
		c-28.9,11.6-59.4,19.7-89.8,26c-64.1,13.3-133.8,26.5-196.8,2.2c-0.1-2.2-0.1-4.5-0.1-6.7c59.6,21.5,124.3,11.1,185-1.5
		c31-6.4,61.5-14.8,90.7-27.2c31.8-13.6,60.9-32.5,91.8-47.9c0.7-0.3,0.2-1.4-0.5-1.2c-28.4,7.5-53,24.4-80.1,35.3
		c-28.9,11.6-59.4,19.7-89.8,26c-64.1,13.3-133.7,26.4-196.7,2.2c0.1-2.2,0.2-4.4,0.3-6.6c59.5,21.3,124,10.9,184.4-1.7
		c31-6.4,61.5-14.8,90.7-27.2c31.8-13.6,60.9-32.5,91.8-47.9c0.7-0.3,0.2-1.4-0.5-1.2c-2.7,0.7-5.4,1.6-8,2.5
		c77.3-36.1,152.4-78.1,226.4-119.7c74,41.5,149.2,83.6,226.4,119.7c-2.7-0.9-5.3-1.8-8.1-2.5c-0.7-0.2-1.2,0.9-0.5,1.2
		c29.3,14.6,57,32.5,87,45.8c30.6,13.6,62.8,22.5,95.5,29.3c60.5,12.6,124.9,23,184.4,1.7c0.1,2.2,0.2,4.4,0.3,6.6
		c-63,24.2-132.6,11.1-196.7-2.2c-28.8-6-57.5-13.6-85-24.1c-28.9-11.1-54.9-29.3-85-37.2c-0.7-0.2-1.2,0.9-0.5,1.2
		c29.3,14.6,57,32.5,87,45.8c30.6,13.6,62.8,22.5,95.5,29.3c60.6,12.6,125.4,23,185,1.5c0,2.3-0.1,4.5-0.1,6.7
		c-63,24.3-132.7,11.2-196.8-2.2c-28.8-6-57.5-13.6-85-24.1c-28.9-11.1-54.9-29.3-85-37.2c-0.7-0.2-1.2,0.9-0.5,1.2
		c29.3,14.6,57,32.5,87,45.8c30.6,13.6,62.8,22.5,95.5,29.3c60.1,12.5,124.2,22.9,183.4,2.1c-0.4,2.4-0.8,4.8-1.4,7.2
		c-62.3,22.8-130.8,10-194-3.2c-28.8-6-57.5-13.6-85-24.1c-28.9-11.1-54.9-29.3-85-37.2c-0.7-0.2-1.2,0.9-0.5,1.2
		c29.3,14.6,57,32.5,87,45.8c30.6,13.6,62.8,22.5,95.5,29.3c18.8,3.9,37.9,7.6,57.2,10.2C1405.9,1377.8,1346.8,1365.5,1288.4,1345.3
		z M1240.2,1460.1c-0.4-33.2-1.3-66.6-4.4-99.8c15,5.4,30.2,10.3,45.5,14.7c-5.7,32.1-3.6,65.8-3.8,98.2
		c-0.2,34.6-3.1,70.6-0.5,105.2c-12.8-4.2-25.7-6.9-38.8-8.1C1242.7,1534.4,1240.7,1496.3,1240.2,1460.1z M1050.6,1439.1
		c-0.3,32-0.3,64.1-0.4,96.1c-0.1,28.3-4.2,60.4,1,88.7c-12.6,3.2-25.4,5.6-38.5,7.1c-1.5,0.2-2.9,0.5-4.1,0.9
		c-1.3-0.4-2.7-0.7-4.2-0.9c-13.1-1.5-25.9-3.9-38.5-7.1c4.8-26.6,1.1-56.6,1-83.1c-0.1-33.9-0.1-67.9-0.5-101.8
		c-0.6-58.5,3.2-119.6-2.9-178.1c14.6-9.9,29.5-19.4,45-27.9c15.5,8.5,30.4,18,45,27.9C1047.4,1319.5,1051.2,1380.6,1050.6,1439.1z
		 M779,1570.1c-13.2,1.1-26.2,3.5-38.8,7.7c2.6-34.4-0.3-70.1-0.5-104.5c-0.2-32.5,1.9-66.1-3.8-98.2c15.3-4.4,30.4-9.3,45.5-14.7
		c-3.1,33.1-4,66.5-4.4,99.8C776.5,1496.2,774.4,1534.3,779,1570.1z M596.5,1604.7c-0.8-0.5-1.6-1-2.5-1.5c-4.4-2.3-8.7-5-13.1-7.9
		c2.5-29.4,0-59.8-0.9-89c-1.1-34.7-1-69.7-3.2-104.3c15.1-0.8,30.2-2.1,45.2-3.9c-1.4,37.3-0.8,74.7-1.5,112
		c-0.6,31.3-5.8,67.2-1.2,99C611.5,1608.5,603.9,1606.9,596.5,1604.7z M535.3,1474.1c-0.5-23.6,0.6-47.7-2.2-71.2
		c13.1,0.1,26.1-0.1,39.2-0.8c-2.2,34.6-2.1,69.5-3.2,104.1c-0.8,25.9-2.8,52.8-1.5,79c-11.7-9.7-22.9-21.1-33.5-33.1
		c0.1-0.2,0.2-0.4,0.3-0.7C537.9,1526,535.8,1499.7,535.3,1474.1z M482,1484.4c-19.3-28.5-35.9-58.9-50.6-90.1
		c18,2.9,36.3,5.1,54.6,6.6C484.2,1428.7,483.2,1456.5,482,1484.4z M432.4,1385.1c1-2.2,1.3-4.8,0.4-7.4c16.4,5,33,7.7,49.9,8.7
		C466,1386.5,449.2,1386,432.4,1385.1z M628.1,1510.1c-0.7-37.5-0.1-75.1-1.5-112.6c16.9-2.1,33.8-4.8,50.5-8.1
		c-0.4,0.5-0.7,1.2-0.7,2c-3.3,40.5-3.3,81.5-5.1,122.2c-1.2,28.3-9.5,62.3-3.5,90.9c-12.5,3.1-25.2,5-38.5,5
		C634,1577.5,628.7,1541.6,628.1,1510.1z M688.6,1513.5c-1.8-40.7-1.8-81.7-5.1-122.2c-0.1-1.5-0.9-2.4-1.8-2.9
		c15.6-3.2,31.1-6.9,46.3-11.2c-5.2,31.4-3.3,64.3-3.5,96c-0.3,36.4-3.5,74.5-0.1,110.7c-10.4,4.4-20.7,8.7-31.1,12.5
		C696.7,1569.7,689.7,1539.4,688.6,1513.5z M1482.8,1551.5c0,0.3,0.2,0.5,0.3,0.7c-10.6,12-21.8,23.4-33.5,33.1
		c1.3-26.2-0.7-53.1-1.5-79c-1.1-34.6-1-69.6-3.2-104.1c13.1,0.6,26.1,0.9,39.2,0.8c-2.9,23.5-1.8,47.6-2.2,71.2
		C1481.3,1499.7,1479.2,1526,1482.8,1551.5z M1584.8,1385.1c-16.8,0.9-33.6,1.4-50.3,1.3c16.8-1.1,33.5-3.7,49.9-8.7
		C1583.5,1380.3,1583.8,1382.8,1584.8,1385.1z M1524.6,1499.4c-9.3,12.7-20,27.1-31.8,41.3c1.8-22.1,0.3-44.6-0.2-66.6
		c-0.5-23.6,0.6-47.8-2.2-71.3c32.1-0.6,64-3.4,95.3-8.5C1568.4,1431,1548.6,1466.7,1524.6,1499.4z M1592.5,1295.3
		c0,0.7,0.1,1.4,0.1,2.1c-36.8,13.9-75.8,15.1-114.6,11.1C1516.1,1307.2,1555.1,1299.9,1592.5,1295.3z M1332.5,1278
		c-6.9-2.3-13.8-4.7-20.6-7.3c-10.2-3.9-20-8.7-29.7-13.6c5.6,2.4,11.2,4.9,16.8,7.2C1310.1,1268.9,1321.3,1273.6,1332.5,1278z
		 M1722.5,1090.9c-49.7-4-104.1-1.8-153.7,1.4c-0.6,0-0.6,0.9,0,0.9c50.1,3.2,105,5.4,155,1.3c0.8,2.7,1.4,5.4,1.5,8.3
		c-0.1,0-0.1-0.1-0.2-0.1c-50.4-4.3-105.8-2.1-156.3,1.2c-0.6,0-0.6,0.9,0,0.9c50.5,3.3,106,5.5,156.3,1.2c0.1,0,0.1-0.1,0.1-0.1
		c-0.1,2.3-0.3,4.6-0.9,6.9c-0.1,0.4-0.2,0.9-0.3,1.4c-50.1-4.2-105.1-2-155.3,1.3c-0.6,0-0.6,0.9,0,0.9
		c49.9,3.2,104.5,5.4,154.4,1.3c-0.7,2.5-1.4,5.1-2.3,7.9c-49.2-3.8-103-1.7-152,1.5c-0.6,0-0.6,0.9,0,0.9
		c48.6,3.2,101.8,5.3,150.6,1.6c-1,2.8-2.1,5.5-3.3,7.9c-50.3-4.3-105.7-2.1-156.1,1.2c-0.6,0-0.6,0.9,0,0.9
		c49.8,3.2,104.4,5.4,154.2,1.3c-0.7,1.1-1.4,2.1-2.2,3c-0.9,1-1.1,2-1,3c-100.9-1.4-202-3.9-302.9-7.3c-49.1-1.7-98.1-3-147.2-3.3
		c-26.4-0.2-52.8-0.2-79.3-0.5c-7-0.1-14-0.4-21-0.7c37-0.8,74-2.2,110.6-2.6c77-1,154.6,2.5,231.4-1.6c1.2-0.1,1.2-1.8,0-1.9
		c-76.8-4.2-154.4-0.7-231.4-1.6c-50.2-0.6-101.3-3-152-3.1c-0.1,0-0.1-0.1-0.2-0.1c50.8,0,101.9-2.4,152.2-3.1
		c77-1,154.6,2.5,231.4-1.6c1.2-0.1,1.2-1.8,0-1.9c-76.8-4.2-154.4-0.7-231.4-1.6c-57.2-0.7-115.4-3.8-173-3
		c-0.2-0.1-0.4-0.2-0.5-0.3c57.8,0.9,116.2-2.2,173.5-3c77-1,154.6,2.5,231.4-1.6c1.2-0.1,1.2-1.8,0-1.9
		c-76.8-4.2-154.4-0.7-231.4-1.6c-63.7-0.8-128.8-4.5-192.9-2.4c-0.9-0.5-1.7-0.9-2.6-1.4c64.9,2.2,130.9-1.5,195.5-2.4
		c77-1,154.6,2.5,231.4-1.6c1.2-0.1,1.2-1.8,0-1.9c-76.8-4.2-154.4-0.7-231.4-1.6c-70.1-0.9-141.9-5.2-212.2-1.6
		c-1.3-0.7-2.7-1.5-4-2.2c9.4-0.3,18.8-0.7,28.2-0.8c30-0.3,60.1-0.3,90.1-0.5c60.1-0.3,120.1-1.6,180.2-3.3
		c119.8-3.5,239.7-6,359.5-7.3C1717.2,1081.5,1720.4,1086,1722.5,1090.9z M968.3,143.8c10.5-18.8,29.1-28.4,40.3-43.7
		c11.2,15.4,29.9,25.2,40.3,43.7c20.1,35.7,6.9,76.9,3.2,115.3c-14.5-0.5-29-0.6-43.4,1c-14.4-1.6-28.9-1.5-43.4-1
		C961.4,220.5,948.3,179.7,968.3,143.8z M292.7,311c-3.1-13.8,1.6-25.8,11.4-35.4c119.8,1.4,239.7,3.9,359.5,7.3
		c60.1,1.7,120.1,3,180.2,3.3c30,0.2,60.1,0.2,90.1,0.5c24.9,0.2,50,2.7,74.7,0c24.8,2.7,49.8,0.3,74.7,0c30-0.3,60.1-0.3,90.1-0.5
		c60.1-0.3,120.1-1.6,180.2-3.3c119.8-3.5,239.7-6,359.5-7.3c9.8,9.6,14.5,21.5,11.4,35.4c-1.9,8.4-6.7,24.7-12.3,31.1
		c-0.9,1-1.1,2-1,3c-68.3-0.8-136.6-2-204.9-3.5c-1.9-0.7-3.6-0.7-5.1-0.1c-49.2-1.1-98.4-2.3-147.5-3.7
		c-60.1-1.7-120.1-3-180.2-3.3c-30-0.2-60.1-0.2-90.1-0.5c-24.9-0.2-50-2.7-74.7,0c-24.8-2.7-49.8-0.3-74.7,0
		c-30,0.3-60.1,0.3-90.1,0.5c-60.1,0.3-120.1,1.6-180.2,3.3c-49.1,1.4-98.3,2.6-147.5,3.7c-1.5-0.6-3.2-0.6-5.1,0.1
		c-68.3,1.5-136.6,2.7-204.9,3.5c0.1-1-0.1-2-1-3C299.3,335.6,294.6,319.1,292.7,311z M464.1,971.1c-12-28.6-35.4-49.3-49.2-76.9
		c-14.7-29.5-30.8-55.2-49.4-82.4c-22.2-32.6-31.6-70.3-34.9-109.2c-6-70.3,1.8-143,40.5-203.4c36.1-56.3,88.4-108.1,146.4-141.5
		c1.9-1.1,3-2.7,3.6-4.5c47.5,1.1,95,2.2,142.5,3.6c60.1,1.7,120.1,3,180.2,3.3c30,0.2,60.1,0.2,90.1,0.5c24.9,0.2,50,2.7,74.7,0
		c24.8,2.7,49.8,0.3,74.7,0c30-0.3,60.1-0.3,90.1-0.5c60.1-0.3,120.1-1.6,180.2-3.3c47.5-1.4,95-2.6,142.5-3.6
		c0.6,1.8,1.7,3.4,3.6,4.5c56.8,32.8,107.7,83,143.8,137.7c40.7,61.6,48.9,135,43,207.3c-3,37.1-11.9,73.8-32.2,105.4
		c-17.8,27.5-35.3,52.2-49.8,81.7c-14,28.6-37.8,50.3-50.5,79.4c-12.7,29-15.7,60.5-16,91.8c0,3.7,0.9,6.8,2.4,9.3
		c-62.3-1.3-124.5-2.8-186.7-4.6c-60.1-1.7-120.1-3-180.2-3.3c-30-0.2-60.1-0.2-90.1-0.5c-24.9-0.2-50-2.7-74.7,0
		c-24.8-2.7-49.8-0.3-74.7,0c-30,0.3-60.1,0.3-90.1,0.5c-60.1,0.3-120.1,1.6-180.2,3.3c-62.2,1.8-124.4,3.3-186.7,4.6
		c1.5-2.5,2.5-5.6,2.4-9.3C479,1030.3,476,999.6,464.1,971.1z M608.9,1139.5c-100.9,3.5-201.9,6-302.9,7.3c0.1-0.9-0.1-2-1-3
		c-0.7-0.8-1.5-1.8-2.2-3c49.8,4.1,104.4,1.9,154.2-1.3c0.6,0,0.6-0.9,0-0.9c-50.4-3.3-105.8-5.5-156.1-1.2
		c-1.2-2.4-2.3-5.1-3.3-7.9c48.8,3.7,102,1.6,150.6-1.6c0.6,0,0.6-0.9,0-0.9c-49.1-3.2-102.8-5.3-152-1.5c-0.9-2.8-1.7-5.4-2.3-7.9
		c49.8,4.1,104.5,1.9,154.4-1.3c0.6,0,0.6-0.9,0-0.9c-50.2-3.3-105.2-5.4-155.3-1.3c-0.1-0.5-0.2-1-0.3-1.4
		c-0.5-2.4-0.8-4.7-0.9-6.9c0.1,0,0.1,0.1,0.1,0.1c50.4,4.3,105.8,2.1,156.3-1.2c0.6,0,0.6-0.9,0-0.9c-50.5-3.3-106-5.5-156.3-1.2
		c-0.1,0-0.1,0.1-0.2,0.1c0.1-2.9,0.7-5.6,1.5-8.3c50,4.1,105,2,155-1.3c0.6,0,0.6-0.9,0-0.9c-49.6-3.2-104-5.4-153.7-1.4
		c2.1-4.9,5.3-9.4,9.5-13.5c119.8,1.4,239.7,3.9,359.5,7.3c60.1,1.7,120.1,3,180.2,3.3c30,0.2,60.1,0.2,90.1,0.5
		c9.4,0.1,18.8,0.5,28.2,0.8c-1.3,0.7-2.6,1.5-4,2.2c-70.3-3.6-142,0.7-212.2,1.6c-77,1-154.6-2.5-231.4,1.6c-1.2,0.1-1.2,1.8,0,1.9
		c76.8,4.2,154.4,0.7,231.4,1.6c64.6,0.8,130.5,4.6,195.5,2.4c-0.9,0.5-1.7,0.9-2.6,1.4c-64.1-2-129.1,1.6-192.9,2.4
		c-77,1-154.6-2.5-231.4,1.6c-1.2,0.1-1.2,1.8,0,1.9c76.8,4.2,154.4,0.7,231.4,1.6c57.3,0.7,115.7,3.8,173.5,3
		c-0.2,0.1-0.4,0.2-0.5,0.3c-57.6-0.8-115.8,2.2-173,3c-77,1-154.6-2.5-231.4,1.6c-1.2,0.1-1.2,1.8,0,1.9
		c76.8,4.2,154.4,0.7,231.4,1.6c50.3,0.6,101.4,3,152.1,3.1c-0.1,0-0.1,0.1-0.2,0.1c-50.7,0-101.8,2.4-152,3.1
		c-77,1-154.6-2.5-231.4,1.6c-1.2,0.1-1.2,1.8,0,1.9c76.8,4.2,154.4,0.7,231.4,1.6c36.5,0.5,73.4,1.9,110.4,2.6
		c-7,0.3-13.9,0.6-20.8,0.7c-26.4,0.3-52.8,0.3-79.3,0.5C707,1136.5,658,1137.8,608.9,1139.5z M718.1,1264.4
		c6.7-2.8,13.3-5.7,20-8.6c-9.2,4.7-18.4,9.3-28,13.1c-8.5,3.4-17.1,6.5-25.8,9.3C695.6,1273.7,706.9,1269,718.1,1264.4z
		 M539.2,1308.6c-38.8,4-77.8,2.8-114.6-11.1c0-0.7,0.1-1.4,0.1-2.1C462,1299.9,501,1307.2,539.2,1308.6z M493.3,1500.4
		c0.9-1,1.6-2.5,1.5-4.3c-0.7-31.6-0.9-63.2-2.1-94.8c11.3,0.8,22.7,1.3,34,1.5c-2.9,23.5-1.8,47.6-2.2,71.3
		c-0.4,22.1-2,44.6-0.2,66.6C512.8,1526.9,502.4,1512.9,493.3,1500.4z M792.4,1569.5c4.5-35.7,2.4-73.5,2-109.4
		c-0.4-34.3-1.4-68.7-4.7-102.9c14.9-5.6,29.7-11.6,44.2-18.2c-2.3,40.5-1.8,81.1-2.2,121.7c-0.3,36.2-5.5,75.7-0.9,112
		c-4.2-0.8-8.4-1.6-12.7-2C809.6,1569.8,801,1569.4,792.4,1569.5z M844,1576c5.3-37.3-0.2-77.9-0.5-115.3
		c-0.3-41.6,0.2-83.4-2.4-124.9c10.8-5,21.5-10.3,32-16c5.4-2.9,10.8-6,16-9.1c-1.9,50.4-0.1,100.9-2.6,151.3
		c-1.3,25.9-3.1,51.5-3.2,77.4c-0.1,16.9-1.7,34.5-0.6,51.7C870.2,1585.1,857.3,1579.8,844,1576z M899.2,1599
		c2.1-17.8,0.3-36.3,0.2-54.1c-0.2-27.8-1.9-55.2-3.3-82.9c-2.6-51.2-0.7-102.5-2.7-153.8c20.7-12.6,40.4-26.7,60.3-40.4
		c-5.2,56.4-1.6,115.1-2.1,171.3c-0.3,32-0.3,64.1-0.4,96.1c-0.1,27-3.9,57.4,0.3,84.7C933.6,1614.4,916.2,1607.3,899.2,1599z
		 M1065.7,1619.9c3.8-25.5,0.4-53.9,0.3-79.1c-0.1-33.9-0.1-67.9-0.5-101.8c-0.6-56.2,3-114.9-2.1-171.2
		c19.9,13.8,39.6,27.9,60.3,40.4c-2,51.2-0.1,102.5-2.7,153.7c-1.3,25.9-3.1,51.5-3.2,77.4c-0.1,19.5-2.3,40.1,0.1,59.6
		C1100.9,1607.4,1083.5,1614.4,1065.7,1619.9z M1134.3,1591c0.9-15.3-0.4-31-0.5-46.2c-0.2-27.8-1.9-55.2-3.3-82.9
		c-2.6-50.3-0.7-100.8-2.6-151.2c3.9,2.3,7.8,4.7,11.8,6.9c11.8,6.5,23.9,12.6,36.2,18.3c-2.5,41.5-2,83.2-2.3,124.8
		c-0.3,37.3-5.8,78-0.5,115.3C1159.8,1579.8,1146.9,1585.1,1134.3,1591z M1204.1,1570.2c-6.1,0.5-12,1.4-17.9,2.6
		c4.6-36.4-0.6-75.8-0.9-112.1c-0.3-40.5,0.2-81.1-2.1-121.6c14.5,6.5,29.2,12.6,44.2,18.2c-3.3,34.1-4.3,68.5-4.7,102.8
		c-0.4,35.9-2.4,73.9,2.1,109.5C1218,1569.5,1211.1,1569.7,1204.1,1570.2z M1292.6,1584.3c3.5-36.4,0.2-74.4-0.1-111
		c-0.2-31.7,1.7-64.6-3.5-96c15.3,4.2,30.7,8,46.3,11.2c-0.9,0.5-1.7,1.5-1.8,2.9c-3.3,40.5-3.3,81.5-5.1,122.2
		c-1.1,25.9-8.1,56.4-4.7,83.3C1313.3,1593,1302.9,1588.7,1292.6,1584.3z M1349.3,1604.6c6.1-28.7-2.2-62.6-3.5-91
		c-1.8-40.7-1.8-81.7-5.1-122.2c-0.1-0.8-0.4-1.4-0.7-2c16.7,3.3,33.5,6,50.5,8.1c-1.4,37.5-0.8,75.1-1.5,112.6
		c-0.6,31.4-5.8,67.5-1.1,99.3C1374.7,1609.4,1361.9,1607.6,1349.3,1604.6z"/>
</g>
</svg>
