<?xml version="1.0" encoding="utf-8"?>
<!-- Generator: Adobe Illustrator 22.0.1, SVG Export Plug-In . SVG Version: 6.00 Build 0)  -->
<svg version="1.1" id="Layer_1" xmlns="http://www.w3.org/2000/svg" xmlns:xlink="http://www.w3.org/1999/xlink" x="0px" y="0px"
	 viewBox="0 0 2000 2000" style="enable-background:new 0 0 2000 2000;" xml:space="preserve">
<g>
	<path d="M611.3,563.1c1,32.5-0.5,64.3,16.5,93.4c1,1.7,2.2,3.2,3.4,4.4c-1.9,10.8-2.9,21.8-3.1,33c-0.5,26.2-1,57,7.6,82.1
		c16.2,47.3,71.8,61.8,116.6,63.9c15.5,0.7,33.8-5.6,48.6-2.2c14.2,3.3,26,20.4,30.5,33.6c6.8,20.4-8.4,46.2,10,62.4c0,0,0,0,0,0
		c-1.6,3.1-2.8,6.3-3.5,8.7c-2.5,7.8-3.5,16.3-3,24.5c0.5,8.5,1.8,10.4,9.5,14.4c5.5,2.8,9.2,0.8,11.8-3.1
		c-0.9,10.2,0.2,19.9,11.6,24.4c4.1,1.6,7.1,1.8,9.5,1c0.3,1.8,0.9,3.4,1.7,4.8c3,5.1,14.9,11.1,20.7,11.4c2.5,0.1,4.4-0.7,5.9-2.3
		c2.1,5.2,5.9,9.7,12.4,13c8,4,12,2.7,14.2-1.2c0.9,6.9,3.4,12.7,8.7,15.6c13.6,7.5,22.5,3.6,26.7-6.1c1.3,2,2.9,3.7,5,5
		c9.1,5.6,36.3,12.8,43.6,1.1c7.1,11.1,30.1,5.2,39.7-1.1c1.9-1.2,3.3-2.9,4.5-4.7c4.3,9.5,13.1,13.3,26.6,5.9
		c5.3-2.9,7.7-8.7,8.7-15.5c2.2,3.9,6.2,5.2,14.2,1.2c6.7-3.4,10.4-7.8,12.5-13c1.5,1.6,3.4,2.4,5.9,2.3c5.6-0.3,16.2-5.9,19.6-10.2
		c1.4-1.7,2.2-3.9,2.7-6.1c2.4,0.8,5.4,0.7,9.6-0.9c11.4-4.5,12.6-14.1,11.6-24.3c2.6,3.8,6.4,5.8,11.8,3c6.8-3.5,8.7-5,9.3-12.7
		c0.7-8.2-0.1-16.6-2.4-24.6c-0.8-2.7-2.1-6.7-4-10.4c0,0,0,0,0,0c15.5-13.7,6.7-32.5,7.6-50.2c0.7-13,7.9-25.4,16.4-34.9
		c12.6-14.2,25.5-11,42.5-9.3c43.6,4.4,105.5-6.6,131.2-46.3c13.8-21.3,14.2-48.7,15.2-73.3c0.8-19.5,1-39.7-2.3-59.1
		c1.1-1.1,2.2-2.5,3.1-4.1c14.7-25.2,16.2-53.2,16.4-81.7c0.2-33.9,8.2-65.9,13.8-99.1c9.2-54,6.5-109.2-8.5-162
		c-14.6-51.3-40.1-99.3-77.9-137.3c-39.5-39.8-89.7-66.3-142.4-84.1c-31.7-10.7-64.4-18.4-97.1-24.9c-29.9-6-60.3-12-90.5-5.8
		c-26.3-5.4-52.6-1.4-78.9,3.6c-29,5.4-57.9,11.9-86.2,20.1c-53.7,15.7-105.2,39-148,75.5c-82.7,70.7-119.1,187.3-106.4,293.7
		C598.9,490.8,610.3,526.3,611.3,563.1z M853.3,953.5c-0.3,3.3-1.1,17.4-4.9,18.8c-8.6,3.1-4.6-25.8,0.4-36c0.5,0,1.1-0.1,1.6-0.2
		C853.4,941.4,853.9,946.7,853.3,953.5z M875.4,992.7c-2.6,0.2-5.2,0.5-7.7,0.7c-3.4-2.8-4.9-6-4.6-9.8c-0.5-3.4-0.1-7.2,0.1-10.7
		c0.3-5.3,0.3-24.7,6.8-30c7.3,6.4,5.9,15.9,5.8,24.8c-0.1,3.8-0.1,7.6-0.1,11.4C875.6,980.7,876.4,991.5,875.4,992.7z
		 M898.1,1008.3c-9.4,4.8-13.5-12.9-12.9-29.9c0.2-2.6,0.5-5.4,0.7-8.2c1.4-10.6,4.7-19.2,9.9-19.3c7.1,3.7,4,26.9,4.1,32
		C900,987.7,902.3,1006.1,898.1,1008.3z M927.5,999.6c-0.5,3.4-1.1,23.3-3.6,24.9c-0.8-1.2-1.5-2.5-2.3-3.7
		c-4.4-1.4-6.6-4.3-6.6-8.7c-2-5.1-1.6-10.4-1.6-15.7c0-9.1-2.4-29.6,8.7-32.2c0.1,0,0.1,0.1,0.1,0.2
		C932.7,973.2,929.3,987.8,927.5,999.6z M948.1,1038.1c-10-2.9-7.8-24.1-7.4-31.6c0.7-11.5,1.6-36.7,15.4-42.2
		c0.4,0.9,1.2,1.7,2.4,2.3c5.8,2.8,3.6,29.1,3.6,34.5C962.1,1008,964.5,1042.9,948.1,1038.1z M1001.8,1039c-3.2,0-6.4-0.3-9.5-1.1
		c-18.6-3.2-17.6-20.1-16-35.4c0.7-6.7,1.7-16,4.6-22.6c4.5-10.1,9.6-14,17.6-12.7c-0.1,0.9,0.1,1.8,0.7,2.6
		c9.6,14.4,7.9,28.9,7.7,45.4c-0.1,5.1,1,13.5-0.3,18.4C1008.4,1039.8,1006.9,1041.5,1001.8,1039z M1030.3,1039
		c-1.5,0.3-3,0.6-4.5,0.9c-0.1-4.1-0.1-8.2-0.2-12.3c-0.1-6.1-0.2-12.3-0.2-18.4c-0.2-14.3-1-26.2,6.8-39.2c0.4-0.7,0.6-1.5,0.6-2.3
		c17.8-1.9,19,29.6,19.5,40.9C1052.9,1022.7,1049.9,1042.8,1030.3,1039z M1079.9,1038.1c-4.2-3.3-8.5-6.6-12.7-9.8
		c-0.2-3-0.4-6-0.6-9.1c-0.3-5-0.5-10.1-0.6-15.1c-0.1-6-2.5-34.6,3.6-37.5c1.1-0.5,1.8-1.3,2.2-2.1
		C1093.6,974.3,1090.7,1038.4,1079.9,1038.1z M1109,1019.1c-2.4,1.1-4,2.9-4.9,5.5c-1-0.2-3-20.6-3.3-22.7
		c-1.9-12.4-6.1-28.2,5-37.5c0.1,0,0.1-0.1,0.2-0.2c10.3,2.5,8.6,20.8,8.7,29.5c0,4.3,0.4,8.9-0.2,13.1
		C1115.3,1012.8,1113.5,1016.9,1109,1019.1z M1129.9,1008.3c-4.3-2.2-1.9-20.5-1.8-25.3c0.1-4.8-2.6-28.3,4.2-32
		c5,0.1,8.3,8.1,9.7,18.2c0.2,3.3,0.5,6.6,0.8,9.7C1143.3,995.6,1139.1,1013,1129.9,1008.3z M1165,981.5
		c-0.5,3.9-4.1,19.5-12.4,11.2c-2.3-2.3-0.2-19.2-0.2-22.7c-0.1-9.6-2.3-20.1,5.8-27.1c6.3,5,6.3,23,6.6,27.9
		C1165,974.2,1165.5,978,1165,981.5z M1179.6,972.2c-4.1-2-4.5-14.9-4.9-18.8c-0.6-7.1-0.3-12.1,2.9-17.5c0.7,0.1,1.3,0.2,2,0.2
		C1184.5,946.6,1187.1,976,1179.6,972.2z M624.1,324.4c24.3-107.7,105.8-180.3,206.3-217.8c26.7-10,54.2-17.9,82.1-24.1
		c29.8-6.6,61.3-14.6,91.9-10.5c1.2,2,3.5,3.3,6.4,2.5c1.1-0.3,2.2-0.5,3.2-0.7c1.1,0.2,2.2,0.5,3.3,0.7c2.9,0.7,5.1-0.5,6.3-2.5
		c25.9-3.4,52,2.1,77.5,7.3c26.1,5.4,51.8,12,77,20.4c50.8,16.9,100.9,41.1,140.8,77.3c76.6,69.6,106.5,178.9,87.3,279.3
		c-5.9,31-16.4,60.9-20.9,92.1c-2.9,20-2.3,41.9-6.6,62c-7.6-13.5-16-26.6-22.1-41c-12.4-29.5-6.3-60,3.7-89.2
		c16.9-49.3,43.1-105.8,9.9-154.4c-3.1-4.5-10.4-0.4-7.4,4.3c38,60.8-17.7,128.5-30.1,188.4c-6.4,30.8-1.7,57.1,11.9,85.1
		c15.6,32.2,24.4,60.2,23.3,96.4c-0.9,30.3,2.1,71.2-26.7,89.6c-27.1,17.3-63.5,18.9-94.6,17.3c-28.2-1.5-51.6,8.9-65.1,35.2
		c-5.7,11-7.9,23.7-8.4,36c-0.4,10.5,7.9,33.3-0.8,41c-4.1,3.6-3.9,8.1-1.7,11.6c-2.9,3.9-4.3,8.5-4.8,13.5c-1.3-2.6-3-4.8-5.4-5.9
		c-0.6-2.9-4.1-5.4-7.2-3.6c-6,3.7-9,9.1-10.3,15.4c-1.2-1.7-2.7-3.1-4.6-3.8c0.2-1.4-0.4-2.8-1.9-3.6c-15.2-7.4-17.4,9.7-17.7,21.6
		c-2.4-4.3-6.1-7.1-11.8-6.6c-1.8-2.7-5.7-4.2-8.7-1.3c-5.6,5.3-8.1,12.3-8.9,19.8c-3.3-9.7-9-17.9-19.5-18.9
		c-1.9-1.4-4.4-1.7-6.9,0.5c-5,4.6-6,11.6-6.2,18.5c-5.8-18-16.5-23.7-34.4-11.2c-1.6,1.1-1.6,2.9-0.8,4c-2.5,3.8-4.4,7.8-5.5,12
		c-1.2-4.2-3-8.1-5.7-11.9c1-1.2,1.1-3-0.6-4.1c-16-10.5-30.2-10.1-36.9,9.3c-0.4,1-0.7,2.1-1.1,3.4c-0.1-7.4-0.8-15.1-6.2-20
		c-2.4-2.2-5-1.9-6.8-0.5c-10.5,0.9-16.2,9.1-19.5,18.9c-0.8-7.5-3.3-14.4-8.9-19.7c-3-2.8-6.9-1.3-8.7,1.3
		c-5.6-0.5-9.4,2.3-11.8,6.6c-0.2-12.4-2.5-29-17.6-21.6c-1.6,0.8-2.1,2.2-1.9,3.7c-1.8,0.7-3.4,2.1-4.6,3.8
		c-1.3-6.3-4.3-11.7-10.3-15.4c-3.1-1.9-6.6,0.7-7.2,3.6c-2.4,1.2-4.1,3.3-5.4,5.9c-0.5-4.9-1.9-9.6-4.8-13.4
		c2.2-3.5,2.3-8-1.7-11.6c-8.7-7.7-0.4-30.5-0.8-41c-0.5-12.3-2.7-25-8.4-36c-12.6-24.5-35.1-36.5-61.9-35.4
		c-32.3,1.4-69.5,1-97.8-17.1c-28.8-18.4-25.8-59.3-26.7-89.6c-1.1-36.3,7.7-64.2,23.3-96.4c13-26.8,18.4-52.4,12.5-82.1
		c-11.9-60.7-69.1-130.1-30.8-191.5c3-4.8-4.3-8.9-7.4-4.3c-28.2,41.2-13.4,90.7,2.3,133.7c10,27.3,21.1,55.4,17.8,85
		c-2.8,24.5-17,44.2-28.6,65.2c-3-15.2-3.1-31.3-4.8-46.8c-3.2-29-11-56.7-17.9-85C614.3,427.6,612.6,375.3,624.1,324.4z"/>
	<path d="M946.8,571.1c-7.6-22.2-42.8-26.6-62.6-28c-33.5-2.2-67.5,2.3-99.3,13.3c-10.7,3.7-21.1,8.1-30.6,14.1
		c-5.6,3.6-11,7.8-14.6,13.4c-2.4,3.9-3.9,8.2-5.1,12.6c-5.7,20.6-6.5,42.5-2.4,63.5c0.9,4.7,2.1,9.4,4.4,13.6
		c3,5.5,7.8,9.8,13,13.3c19.5,13,44.4,14.4,67.9,13.6c23.8-0.8,47.6-3.5,71-8c9.2-1.8,18.5-3.9,26.5-8.7c7.3-4.4,13.2-10.9,20-16
		c3.2-2.4,6.6-4.6,9.4-7.5c3.3-3.6,5.3-8.1,6.9-12.7C960.1,622.4,955.3,595.7,946.8,571.1z"/>
	<path d="M1026.7,366c2.6-19.9,0.7-40.7,0.5-60.7c-0.3-20.2-0.3-40.5-0.5-60.7c-0.5-40.5-0.9-81-1.3-121.4c0-2.8-4.3-2.8-4.3,0
		c-0.4,40.5-0.8,81-1.3,121.4c-0.2,19-0.3,38.1-0.5,57.2c-0.3,21.2-2.4,43.3,0.4,64.3C1020.1,370.6,1026.1,370.6,1026.7,366z"/>
	<path d="M794.3,485.7c26.1,4,52.3,0.2,78.5-0.3c14.2-0.3,28.1,0.5,42,3.2c12.7,2.5,35.3,6.8,44.2,16.5c4.7,5.1,12.3-2.5,7.6-7.6
		c-11.7-12.6-36.4-16.4-52.4-18.9c-22.9-3.5-45.6-1.6-68.5,0.4c-24.7,2.1-50.9,4.4-74.7-3.9c-25.3-8.8-43.1-29.4-52.3-54
		c-0.2-0.6-1.1-0.4-1,0.3C726.8,458.3,757.7,480.1,794.3,485.7z"/>
	<path d="M1288.3,584c-3.5-5.6-8.9-9.9-14.6-13.4c-9.5-6-20-10.4-30.6-14.1c-31.8-11-65.8-15.5-99.3-13.3c-19.8,1.3-55,5.8-62.6,28
		c-8.4,24.6-13.3,51.3-4.5,76.5c1.6,4.6,3.6,9.1,6.9,12.7c2.7,2.9,6.2,5.1,9.4,7.5c6.8,5.1,12.7,11.6,20,16c8,4.8,17.3,6.9,26.5,8.7
		c23.4,4.5,47.2,7.2,71,8c23.5,0.8,48.4-0.6,67.9-13.6c5.2-3.5,10-7.8,13-13.3c2.3-4.2,3.5-8.9,4.4-13.6c4.1-21,3.3-42.9-2.4-63.5
		C1292.2,592.2,1290.7,587.8,1288.3,584z"/>
	<path d="M955.2,843.1c2,2.2,4.4,4.1,7.3,4.8c7.6,2,14.6-4.1,21.4-7.9c9-5.1,20.1-6.3,30.1-3.4c10-2.9,21-1.6,30.1,3.4
		c6.8,3.8,13.8,10,21.4,7.9c2.9-0.8,5.3-2.7,7.3-4.8c9.6-10.3,10.3-26,8.8-40c-3.7-34-17.3-66-32.5-96.6
		c-3.4-6.9-7.1-13.9-12.5-19.4c-5.5-5.5-13.1-9.2-20.8-8.2h-3.5c-7.7-1-15.3,2.7-20.8,8.2c-5.5,5.5-9.1,12.4-12.5,19.4
		c-15.2,30.6-28.8,62.7-32.5,96.6C944.9,817.1,945.7,832.8,955.2,843.1z"/>
	<path d="M1069,505.1c8.3-9.1,29.1-13.2,40.9-15.8c14.9-3.2,30-4.2,45.3-3.9c26.2,0.6,52.4,4.3,78.5,0.3
		c36.5-5.6,67.5-27.5,76.6-64.4c0.2-0.6-0.8-0.9-1-0.3c-9.2,24.6-27,45.3-52.3,54c-23.9,8.3-50,5.9-74.7,3.9
		c-22.9-1.9-45.6-3.9-68.5-0.4c-16,2.5-40.8,6.3-52.4,18.9C1056.8,502.6,1064.4,510.2,1069,505.1z"/>
	<path d="M1485.8,1574.9c-29.6-0.7-56.2,3.4-83.9-10c-23.5-11.3-43.8-28.2-64-44.4c-43.4-34.9-91.4-58.4-139.1-86.4
		c-44.1-26-77.2-63.6-115.5-96.3c44.3-28.4,85.7-62.3,129.1-92.1c43.7-30.1,89-64.4,137.8-85.8c45.9-20.1,98.3-7.9,145.2-25.1
		c38.7-14.2,67.1-48.6,74.3-89.7c7.2-41.4-36.7-75.5-73.5-80.7c-14.9-2.1-13.8-7.6-14.9-20.7c-0.8-8.9-2.1-17.9-4.9-26.5
		c-5.3-16.2-16.5-31.7-33.6-36.6c-19.6-5.6-41.5,1.9-59.9,8.2c-19.2,6.5-39,14.3-53,29.5c-13.7,14.9-20.1,34.3-26.6,53
		c-8.9,25.6-20.5,49-38.8,69.3c-20.8,23-47.4,37.6-74,52.9c-27.3,15.8-54.2,32.2-80.5,49.6c-50.3,33.3-99.8,67.8-148.1,103.9
		c-11.1-11.4-21.2-23.7-31.3-36.4c-17.6-22.1-35.4-43.1-57.6-60.7c-21.4-17-45.2-31.8-63.4-52.5c-19.5-22.2-30.2-50-46-74.6
		c-13.6-21.2-31.5-38.4-49-56.3c-21.4-22-36.6-43.6-45.4-73.1c-5.8-19.4-11.5-41.7-29.2-53.8c-41.4-28.3-99.5,13.6-119.8,50.7
		c-39,24-81.1,53.6-86.3,103.1c-5.8,55,41.1,74.3,82.5,94.9c106.6,53.2,203.4,121.2,298.3,192.8c12.2,9.2,24.4,18.5,36.6,27.9
		c-70,66.1-167.4,90.1-239.9,152.8c-2.7,2.4-5.5,4.6-8.2,6.6c-2.3-0.1-4.8,0.3-7.3,1.8c-3.4,2-6.3,4.4-9,7.1c-3,1.1-6.2,1.8-9.5,2.3
		c-14.3,2.1-29.2,0.2-43.6,0.1c-27.7-0.2-55.6,2-82.8,7.2c-41.9,8-85.5,28.2-97.9,72.7c-14,50.2,28.5,77.3,63.1,104.3
		c8.9,7,18.5,13.9,29.8,16.1c3.7,0.7,7.8,1,11.4,0.3c0.5-0.1,2.1-0.1,3.4-0.3c0.5,2.2,2.1,5.8,2.5,7.1c7.6,23.9,17.4,49.3,33.6,68.8
		c13.5,16.3,32.4,27.6,54.2,25.4c23-2.3,40.3-19.2,58.8-31.3c19.9-12.9,39.9-24.3,54.1-43.8c13.7-18.8,21.4-41.2,27.8-63.4
		c3.7-12.9,5.8-28.7,12.7-40.3c7.3-12.2,21.6-22,32.2-31.3c24.7-21.6,50.5-42.1,77.2-61.2c49.1-35,108.7-60.6,149.9-105.4
		c1.4-1.6,2.4-3.2,3.1-4.9c46.2,36.9,92.1,74.2,138.2,111.2c80.3,64.6,173.7,129.2,203.5,233.4c8,27.9,17.3,52.6,41.1,70.8
		c21.9,16.8,49.9,25.9,77.5,23.1c46.4-4.6,84.8-48.4,74.4-94.6c3.2-1.6,5.3-4.5,6.1-7.8c33.2-8.7,61.5-45.1,63.7-78.8
		C1574.6,1609.2,1529.4,1575.9,1485.8,1574.9z M1217.2,1099.2c36.7-21.8,67.9-49.1,87.2-87.8c8.4-16.8,12.9-34.7,19-52.3
		c10.4-29.6,29-44.1,58-54.1c19.3-6.6,45.5-16.6,63.4-3.1c-2.7,2.4-4.7,5.6-5.1,9.6c-1.8,20.6,5.7,36.1-11.5,52.6
		c-14.7,14.1-34.6,25.1-54.2,30.1c-5.8,1.5-3.3,10.3,2.5,8.9c24.7-5.9,52-13.7,71.4-31.3c5.5-5,9.9-11.4,13.1-18.4
		c0.1,3,0.3,5.9,0.6,8.8c1.7,16.3,11.8,20.5,26.5,22.1c1.9,0.2,3.9,0.5,5.8,0.9c-2.7,16.5-6.6,31.5-18,44.8
		c-10.7,12.5-29.2,26.7-45.1,31.5c-2.8,0.9-2.4,5.4,0.7,5.3c12.1-0.3,20.9,0.9,32.5-4.3c9.8-4.4,18.8-10.4,26.3-18.2
		c13.1-13.8,22.9-32.8,25-52.1c5.5,2.7,10.6,5.9,15.2,9.8c-3.5,6.7-4.5,15-8.1,21.6c-5.4,9.9-14.4,20.6-22,28.9
		c-4.6,5.1,2.3,11.9,7.5,7.5c10.7-9.1,22.2-14.9,29.6-27.6c2.3-4,4.8-8.8,6.7-13.9c1.6,3.1,2.9,6.3,3.9,9.8
		c5.4,19.9-11.8,49.6-25.1,63.8c-15.3,16.4-37.1,23.8-58.5,28c-42.3,8.3-85.1,2.5-125.5,20.2c-49.1,21.5-96.3,50.9-141.6,79.3
		c-47,29.3-97.2,60.9-137.4,99.3c0,0-0.1,0.1-0.1,0.1c-21.9-16-45.5-29.3-67.4-45.3c-8.7-6.3-16.7-13.3-24.2-20.6
		C1049,1198.2,1133.1,1149.1,1217.2,1099.2z M942.6,1383.5c-33.7,36.7-81.2,58.1-122.1,85.7c-41.2,27.8-80.4,58.6-117.2,91.9
		c-8.5,7.7-15.2,14.8-20.6,22.8c-12.8,9-22.9,21.1-32.4,33.4c-4.7,6.1-9.3,12.2-13.7,18.4c-6.1,8.6-8.5,16.5-13.3,25.6
		c-2.2,4.2,3.8,7.8,6.4,3.8c4.3-6.7,12.1-12.3,17.5-18.1c4.7-5.1,9.3-10.3,14.1-15.3c1.3-1.4,2.7-2.6,4-3.9
		c-4.6,17.2-9.5,34.5-18.1,50.1c-11.2,20.6-28.1,31.4-47.2,44.2c-0.6,0.4-1.2,0.9-1.9,1.3c-0.6-0.1-1.1-0.2-1.8-0.3
		c-14.6-1-29.3-0.3-43.9-1.9c-8.5-0.9-15.6-2-21.5-8.6c-0.6-0.6-3-3.7-5.4-7.2c15,2.2,28.9,3.5,44.9-4c17.4-8.1,32.3-23.9,42.1-40.1
		c3.5-5.7-5.3-10.8-8.9-5.2c-11.2,17.3-26.1,26.2-46.2,30.2c-17.8,3.5-30.7-2.6-47.7-4.6c-4.8-0.6-9.1,3.8-10.4,7.9
		c-4.9,14.9,12.5,37.6,23.9,45.5c10.9,7.5,26.2,11.8,41.4,13.6c-8.3,4.8-16.9,7.6-25.8,5.9c-21.8-4.2-35.4-29.9-44.1-48.1
		c-7.9-16.4-9.5-48.4-31.8-49.8c-12.1-0.8-19.2,0.9-30.3-6.7c-5-3.5-9.9-7.2-14.7-11c4.2-0.5,9.7-0.2,12-0.6c6.9-1,13.5-2.5,20-5
		c10.3-3.8,19.8-9.7,26.9-18.1c16-19.1,12.3-43.6,7-66.1c-1.6-6.6-11.1-3.7-10,2.8c4.3,26,3.3,53.2-26.3,61.7
		c-17.5,5-37.2-5-51.9,7.6c-18.8-15.6-30.9-32.6-22.6-58.7c16.5-51.7,83.6-58.4,129-60.3c20.5-0.9,41.1,1.5,61.6,1
		c-1.5,1.4-3,2.7-4.7,3.8c-14.9,10.6-31.9,17.8-47.4,27.3c-6,3.7-2.1,13,4.8,11.3c17.6-4.3,34.5-11.1,50-20.5
		c15.3-9.4,26.9-23.6,42.6-32.2c2.4-1.3,3.9-3,5-4.9c3.7-2.6,7.4-5.4,11.2-8.6c38-32.3,78.7-58.3,121.7-83.6
		c40.4-23.7,80.7-46.3,114.1-79.4c27.9,21.6,55.7,43.4,83.3,65.4C943.8,1382.3,943.2,1382.8,942.6,1383.5z M1493.6,1715.3
		c-0.6,0.1-1,0.2-1.6,0.4c-16.7-5.5-17.6-45-20.5-57.7c-3.9-17-10.6-31.6-22.4-44.6c-4.2-4.7-10.9,2.2-6.8,6.8
		c10,11.6,13.8,23,15,34.7c-2.7-3.1-5.6-6-8.2-8.2c-9-7.8-17.3-11.2-29.3-11.7c-2.5-0.1-2.4,3.7,0,3.8c5.6,0.3,11.9,1.1,16.9,3.9
		c6.9,4,7.9,9.9,9.2,16.8c2,10,4.3,22.2,11.4,29.8c0,5.5,0.1,11.1,0.8,16.9c0.9,7.5,3,14.5,6.5,20.5c-8.9,6.4-18.4,12-30.1,8.3
		c-13.6-4.4-27.4-23.5-30.3-36.8c-0.4-1.8-3.1-1.3-3.1,0.4c0,33.7,25.4,56.2,53.6,55.9c-5.1,7.6-11.3,14.1-21.3,17
		c-23.1,6.6-45.9-4.3-57.7-23.7c-12.1-19.9-15.4-40.5-22.4-62.3c-5.1-16-15.3-27.3-30.7-33.8c-5-2.1-9.4,5.1-4.3,7.4
		c21,9.4,26.3,25.3,26.3,46.7c0,13.4,0.7,25.2,5.2,37.9c8.3,23.7,18.4,43.5,42.4,53.6c16.4,6.9,35.9,9.7,53.4,5
		c-18.9,9-42.4,6.7-61.1-2c-45.5-21.2-45.6-77.2-66.3-117.3c-41.7-80.7-119-137.1-189.6-190.8c-160.1-121.7-316.9-249.6-489.1-354
		c2.5-3.8,3.1-8.6,0-12.8c-11.5-15.6-19.4-33.7-29.1-50.6c-9.4-16.3-16.9-33.8-34.5-42.5c-17.3-8.5-34.8-12.9-50.2-25.3
		c-10-8.2-19.7-17.1-22.6-29.9c-3.3-14.8,5.1-28.5,14.1-40.1c3.6-4.6-2.7-11.2-6.5-6.5c-10.2,12.5-23.1,31.7-20.2,48.8
		c3.1,18.2,24.8,36.6,38.7,46.6c9.8,7.1,20.2,11.5,31.1,16.7c10.4,4.9,16.3,11.7,20.8,20.2c-5.6-1.3-11.4-2.3-17.3-3.6
		c-13.6-3.1-26.4-8.2-38.8-14.5c-27.5-14.1-63.4-39.1-43.7-75c3.4-6.1-5.9-11.5-9.3-5.5c-14.9,26.3-5.1,61,17,79.3
		c13.5,11.2,28.3,20.7,44.2,28.1c17.8,8.4,35.9,14.1,51.9,25.8c3.5,2.5,7,3.2,10.2,2.6c1.8,5.2,3.7,10.5,5.9,15.5
		c-20.4-11.7-41.1-23-62-33.8c-23.9-12.3-55.2-22-74.3-41.5c-21-21.4-17.7-53.9-3.3-78c15.5-26.1,42.9-43.5,67.5-60
		c3-2,3.8-5.1,3.2-7.8c25.8-36.4,93.1-75.3,115-17.2c6.5,17.4,9.6,35.7,18,52.5c4.3,8.6,9.7,16.5,15.7,24.1
		c-15.6-0.8-32.5,2.1-45.9,3.1c-15.8,1.2-31,0.9-45.1-7.1c-14.5-8.3-35.7-28.1-33.7-46c0.4-3.9-6.2-4.8-6.9-0.9
		c-4.7,27.6,27,55.2,49.7,65.5c14,6.3,29.9,8.7,45.1,9.5c10.2,0.5,20.5,0.1,30.7,0.9c10,0.8,19.6,3.5,29.6,3.2
		c0.6,0,1.1-0.1,1.6-0.2c0.2,0.2,0.4,0.4,0.6,0.6c16.5,17.1,32.6,34,44.8,54.6c13.3,22.5,23.4,46.8,39.6,67.5
		c29.8,38.1,74.9,60.2,105.9,97.5c15.5,18.6,29.2,38.6,45.4,56.6c17.3,19.2,37.9,34.6,59.3,49c20,13.4,40.5,26.1,58.9,41.7
		c20.8,17.6,39.3,37.5,59.1,56.1c37.6,35.1,81.5,57.8,126.1,82.3c42.4,23.3,76.8,55.1,116.4,82.3c19.6,13.5,41.3,24.8,64.9,28.8
		c27.7,4.7,58.2-7.8,84.7,2.5c26.5,10.3,41.2,38.5,40.5,66C1551.3,1697.5,1519.9,1711.9,1493.6,1715.3z"/>
</g>
</svg>
