<?xml version="1.0" encoding="utf-8"?>
<!-- Generator: Adobe Illustrator 22.0.1, SVG Export Plug-In . SVG Version: 6.00 Build 0)  -->
<svg version="1.1" id="Layer_1" xmlns="http://www.w3.org/2000/svg" xmlns:xlink="http://www.w3.org/1999/xlink" x="0px" y="0px"
	 viewBox="0 0 2000 2000" style="enable-background:new 0 0 2000 2000;" xml:space="preserve">
<g>
	<path d="M468.4,598.5c16.8-1.1,36.4-6.4,51.2,4.8c4.4,3.3,7.8,7.8,10.7,12.5c8.3,13.1,13.9,28,16.2,43.3
		c11.6-28.9,23.4-59.4,19.9-90.4c-1.5-12.8-5.6-25.2-5.8-38.1s4.6-27,16-32.9c19.3-9.9,45.4,8.4,63.5-3.4
		c9.6-6.3,12.8-18.7,15.3-29.9c5.2-24.2,10.5-48.4,15.7-72.5c2.8-13,5.7-26.2,12.7-37.5c7-11.3,18.8-20.5,32.1-20.5
		c4.9,0,10.8,0.9,13.9-2.9c1.6-2,1.9-4.7,2.1-7.2c3.2-39.7-3.7-80.2-19.9-116.6c3.9,13.3-9.5,24.6-20.7,32.7
		c-14.3,10.3-27.9,22.1-37.6,36.8c-11.2,17.1-16.7,37.1-24.2,56.1c-7.5,19-18.1,38-35.8,48.3c-15.3,8.9-33.8,10-51.2,13.3
		c-17.4,3.3-36,10.3-44.4,26c-6.4,12-5.4,26.6-2.4,39.8c2.9,13.3,7.6,26.3,8,39.9c0.6,20.5-9.2,40.5-25.6,52.8
		c-8.8,6.6-55.5,20.4-52.6,33.3C428.6,599.2,459.1,599.1,468.4,598.5z"/>
	<path d="M1743.1,1789.8c-15.4-1.4-37.9,2.6-52.4-4.3c-15.2-7.2-18.2-26.5-23.8-40.4c-8.8-21.6-22.2-38-41.6-51
		c-8.1-5.4-17.6-11.1-28.1-16.4c0.2-0.2,0.4-0.4,0.5-0.7c21.3-30.1-5.7-76.2-41.9-76.4c-3.3,0-3.3,2.6-3,4.3c-0.2-0.5-0.5-1.2-0.9-2
		c-1.8-3.9-0.8-10-1.7-14.3c-1.7-8.6-4.3-16.8-8.5-24.5c-8.9-16.4-24-29.4-41.8-35.5c-18.1-6.2-36.4,1.4-49-11.8
		c-12.6-13.2-21.8-22.7-41.1-25.3c-36.3-4.9-73.3,15.5-92.1,46c0.9-12.9,0.1-26.3,0.6-37.7c1.2-28.3-0.5-60.7,3.8-89.9
		c65.5,6.6,131.1,12.7,196.6,6.8c10.1,8.4,21.1,14.2,32.9,14.2c15.7,0,23.1-23,8.3-30.6c-0.6-0.3-1.2-0.7-1.8-1
		c1.4-12.5-8.6-27.9-25.1-24.4c-1.2,0.3-2.4,0.4-3.6,0.7c-15.7-17.3-29-38.6-39.3-55.7c-18.6-30.8-32.6-63.9-42.6-98.4
		c-21.6-74.7-24.7-154-18.2-231.2c6.2-73.5,23.2-146.1,49-215.1c12.8-34.1,28-67.3,45.1-99.5c8.4-15.9,17.4-31.4,26.8-46.7
		c9.3-15,24.2-47,41.6-52.7c12.2-4,7.1-23-5.3-19.3c-15.5,4.6-28.3,18-39.2,33.3c-95,71.9-163.2,168.6-232.8,265.4
		c-9.4,13.1-18.9,26.2-28.5,39.2c0.7-13.1,1.3-26.1,1.9-39.1c16.9-7.2,30.9-22.6,28.8-41c-1.6-13.3-11-29.2-23.1-37.9
		c3.3-27.5,8.6-54.7,18-81.6c23.5-67.1,52.8-141.2,97-197.5c6.7-8.5-4.7-20.7-12.2-12.2c-48.9,55.7-80.2,125-108.3,192.9
		c-13,31.4-22.5,64.3-29.9,97.9c-16.3,3.6-32,14.5-37,29.9c-6.1,18.7,6.7,37.6,23.4,47.3c-3.3,23.7-6.1,47.4-8.7,70.8
		c-1.2,10.8,4.2,17.7,11.7,20.9c-21.8,27.2-44.7,53.4-69.8,77.5c-35.1,33.7-76.6,61.2-107.3,98.6c-11.5-62.7-12.3-127.4-7-190.7
		c12.8-152.1,67.1-298.6,154.3-423.4c6.1-7.2,11.8-14.6,17.1-22.2c0.8-1.1,1.2-2.2,1.4-3.2c0.3-0.4,0.6-0.9,1-1.3
		c2.5-3.3-2.2-7.6-5.4-6c-2.9-1.3-6.7-1.3-9.5,0.9c-26.1,20.2-48.9,45.8-73.8,67.7c-6.7,5.8-13.4,11.5-20.2,17.3
		c-4.3-13.3-25.5-19.7-32.5-4.3c-0.3,0.6-0.6,1.2-0.9,1.8c-28.7,3.2-59.4,8.1-79.1-18.4c-13.8-18.5-24.3-45.3-30.2-67.2
		c-14.4-53,10.5-112.7,39.3-157.1c0.4-0.5,0.9-1,1.4-1.5c0.6-0.7,0.9-1.5,1-2.2c5.3-8.8-8.4-16.3-14.4-7.9
		c-6.9,9.5-13.4,19.6-19.3,30c-93.6,85.2-211.8,142.2-292.9,241.5C659.4,625.2,633,685.3,614,747.4c-9.7,31.7-16,63.5-11.5,96.8
		c4.6,34.2,19.2,64.9,34.2,95.6c5.1,10.4,16,11.2,24.4,6.6c5-2,9.2-5.9,11.1-11.8c0.8-2.4,1.4-4.8,2-7.2
		c20.5-52.5,45.3-96,87.5-134.9c40.6-37.4,84.9-70.7,132.5-98.7c46.1-27.1,95-48.9,146.3-64c1.9-0.6,3.8-1.1,5.7-1.7
		c-46.5,37.4-93.5,74.2-140.5,111.1c-53.1,41.6-111.2,79.5-159.5,126.9c-20.8,20.3-38.9,43-56.6,66C676,949.7,660.5,967,646.7,985
		c-50.9-9.7-107.4-56-120.6-103.9c-7.1-25.7-5.4-54-4.5-80.3c1.1-33.8,4.9-66.4,20.8-96.6c3.5-6.6-6.4-12.4-10-5.9
		c-0.8,1.4-1.5,2.9-2.2,4.4c-24.3,25.7-49,51.3-72.5,77.9c-22.6-35.5-40.4-73.9-56.4-112.8c-6-14.5-12.4-29.1-18.7-43.7
		c0.5-6.2-2.3-11.8-6.8-15.7c-8.1-18.8-15.8-37.8-22.1-56.8c-1.4-4.4-8.1-2.6-7,1.9c4,16.2,7.9,32.7,11.8,49.3
		c-25.4,0.9-27.5,25.4-37.1,45c-12.8,26.2-40.5,43.6-54.3,70.1c-12.6,24.2-19.3,51-11.8,77.8c7.7,27.4,38.8,74.3,11.5,100.1
		c-1.1,1.1,0.4,3.1,1.7,2.2c47-32.5,22.1-80.1,31-127.1c6.1-32.2,30.5-52.6,50.9-76.1c10.1-11.6,16.4-24.7,21.6-38.4
		c13.6,51,30.5,101.2,57.3,146c1.4,2.4,3.1,4.1,5,5.5c-32.1,39-60.7,80.6-81.2,127.5c-16.7,38.5-28.3,78.6-17,120.1
		c2.1,7.8,4.5,15.7,6.9,23.5c-4.2,36.4-8.3,72.8-13.1,109.1c-5.1,38.7-14.3,78.5-14.1,117.6c-0.7-1-1.4-2-2.3-2.9
		c-24.6-25.6-63.3-42.6-94.6-59.1c-32.4-17-55.9-44.7-87-63.6c-2.9-1.8-6.1,2.4-3.6,4.7c26.5,25.2,46.8,55.3,75.7,78.3
		c13.7,10.9,27.6,21.5,39.9,34c12.3,12.5,21.9,25.1,35.7,35.1c-24.3,18.6-39.5,43.1-48.3,78.9c-9.8,39.8-9.3,83.9,17.6,117
		c24.6,30.2,76.9,78.7,118.1,78.5c12.9-0.1,15.1-15.6,6.1-22.4c-5.5-4.1-11.3-7.7-17.2-11.1c-12.4-17.5-23.6-38.5-21.3-58.2
		c4.2-36.2,39.8-34.3,67.6-25.8c34.9,10.7,65.7,28.7,99.4,40.6c-28.9,29.2-41,71.2-45.9,113.1c-2.8,23.8-3.8,54.7,2.5,82.5
		c-20.5-21.6-40.8-41.3-74.7-31.7c-32.6,9.3-73.3,32.6-78.4,69.6c-4.7,33.9,28.9,49.8,57.9,49.4c1.6,0,2.8-0.6,3.7-1.4
		c7.9,3.6,18.2,2.5,27.7-0.1c0.2-0.1,0.4-0.2,0.7-0.3c5.3,7.1,12.2,13.3,19.8,17.9c19.8,12.1,43,14.6,65.7,15
		c9.7,0.2,15.1-6,16.5-13.1c19.6,6.4,40.2,6.6,58.8-3.4c23.1,8.9,47.7,14.4,72.6,16.8c0.2,0,0.4,0,0.7,0c18.9,2.6,38.4-0.1,57.9-1.9
		c25.3-2.4,50.7-4.2,75.8-8c52.4-8,119.4-19.3,164.6-48.4c4.9,10.4,10.9,19.7,19.7,27.3c23,20,57.3,25.4,86.2,30.3
		c14.3,2.4,22.3-7.7,22.2-17.9c5.3,0.7,10.6,1.2,15.6,1.8c8.1,0.9,14.4,1.8,20.3-0.6c26.6,10.8,55.9,17.4,83.5,18.7
		c16.1,0.7,23.7-12.4,22.9-25.1c4.8,2.6,10,4.9,15.8,6.7c42.8,13.7,101.2,22.8,145.2,13.3c0.3-0.1,0.5-0.2,0.8-0.3
		c25,15.9,55.7,22.7,89.3,16.1c18.7-3.6,14.7-34.8-4.5-33.5c-0.9,0.1-1.7,0.1-2.6,0.1c-6.1-3.6-12.4-6.5-18.1-11
		c-9.8-7.9-16.8-19.1-23.8-29.5c-13.8-20.7-22.4-43.4-32.2-66.2c-15.5-36.2-37.3-64.6-65.2-92.2c-2.7-2.7-6.8,1.4-4.2,4.2
		c23.2,25.2,39.4,50,48.9,83.2c6.7,23.3,11.2,47.1,20.7,69.6c4.4,10.3,9.7,22.8,16.5,34.7c-14.6-5.5-28.1-14.2-40.3-27.1
		c-26.4-27.9-27.3-63.8-38.8-98.3c-16.3-49.1-61.2-86.6-115-80.2c-47.3,5.7-65.2,44.1-49,86.5c-4.9-3.8-9.3-8.9-14.2-14.7
		c-12.8-15.2-19.4-29.2-15.6-49.4c5.2-27.6,24.4-35.5,46.2-46.7c3.1-1.6,0.7-5.5-2.2-5.1c-83.5,11.9-74.9,122.6-21.5,153.2
		c-2.7-0.7-5.3-1.5-7.9-2.5c-16.9-6.5-28.6-18.9-36.4-34.3c1.5-7-0.4-14.9-7.3-18.9c-2.7-9.6-4.3-19.6-4.5-29.5
		c1-4,1.2-8.3,0.5-12.3c2.3-23.5,12.9-45.4,34.7-59.2c16.1-10.3,34.5-15.8,53.8-17.6c8.3,5.6,19.6,6.1,26.3-0.3
		c43.1,2.7,87.6,20.5,119.2,42.2c56.7,39,70.8,98.6,104.4,154.2c31.3,51.9,90.1,84,150,62c25.5-9.4,20.7-44.2-1-48.8
		c5.8-8.4,8.7-19.6,6.8-32.7c-0.7-5-7.9-3.3-8.3,1.1c-3.3,41.3-52.3,10.6-59.3-10.3c-3.1-9.4-7.4-25.8,2.4-33.2
		c7.7-5.8,27.3-1.7,35,0c30.1,6.6,75.3,26.8,88.4,56.8c3.8,8.8,6.2,17.8,8.8,26.5c-2.3-0.5-4.6-1.3-7.1-2.8
		c-10.7-6.1-15.3-18.2-14.8-30.1c0.4-7.9-11.5-7.7-12.2,0c-1.5,16.1,5.3,31.8,18.2,41.7c1.8,1.4,3.9,2.7,6.1,3.8
		c-2.5,0.4-5,0.5-7.6,0.2c-22.2-2.8-31.6-30.1-37.5-48.5c-0.6-1.9-3.6-1.1-3,0.8c3.9,13.5,8.4,27.3,13.6,40.3
		c3.5,8.8,8,17,16.7,21.6c9.5,4.9,27.3,6.6,40.9,2.6c2.9,3.7,6.3,7.2,10.6,10.3c22.5,16.6,58.2,16.6,84.5,12.7
		C1772.3,1825.5,1763.9,1791.6,1743.1,1789.8z M1251.7,808.5c0.1-0.4,0.3-0.7,0.4-1c-0.1,0.7-0.3,1.5-0.4,2.2
		C1251.7,809.3,1251.6,808.9,1251.7,808.5z M1285.8,1499.9c0.3,17.4-2,39.7,3.5,57.6c-28.1-12.7-58.2-20.9-88.8-22.8
		c6-44.7,9-89.6,16.6-134.1c2.9,0.2,5.9,0.4,8.9,0.6c4.2,1.5,8.8,1.9,13,0.9c16.2,1.2,32.3,2.7,48.5,4.3
		C1289.7,1436.9,1285.4,1470.2,1285.8,1499.9z M1145.6,1538.3c-0.2,0-0.4,0.1-0.6,0.1c-35.6-55.9-68.5-113.6-100.7-171.6
		c7.7,0.9,15.4,2,23.1,3.2c27.2,56.8,57.7,111.9,89.4,166.4C1153.1,1537,1149.3,1537.5,1145.6,1538.3z M1121.2,1545.9
		c-37.9-59.3-72.9-120.5-107-182c7.7,0.6,15.4,1.3,23,2.1c29.3,60,62,118.1,96.2,175.4C1129.2,1542.7,1125.1,1544.3,1121.2,1545.9z
		 M1100.2,1557.7c-41.2-63.5-78.8-129.3-115.5-195.5c7.6,0.3,15.2,0.7,22.8,1.3c31.4,64.2,66.6,126.3,103.3,187.6
		C1107.2,1553.1,1103.6,1555.3,1100.2,1557.7C1100.2,1557.7,1100.2,1557.7,1100.2,1557.7z M1150.3,1391.3
		c6.6,12.6,14.6,21.9,29.6,25.6c3.5,0.9,6.6,0.8,9.5,0.2c-10.8,34.2-21.8,68.7-29,103.6c-30-48.9-58-99.1-85.4-149.5
		C1100.8,1375.7,1126.2,1382.1,1150.3,1391.3z M1199.7,1037.3c45.5-47.8,85.5-99.9,123.7-153.6c62.9-88.3,123.8-182.8,202.4-258.6
		c-1.9,3.2-3.7,6.2-5.4,9c-22.6,36-42.1,73.7-58.7,112.7c-32.9,77.5-54,159.6-62.6,243.4c-9.2,89.6-5,183.3,24.6,269
		c12.4,35.8,29,70.3,50.4,101.5c4.3,6.3,9.3,13.9,14.8,21.7c-45.9,6.1-90.9,6.8-138.8,4.5c-1.7-0.1-3.5-0.1-5.2-0.2
		c1.2-2.4,2.5-4.8,3.9-7.1c4-6.4,9.3-12,14.1-17.7c4-4.7-2.3-11.2-6.8-6.8c-5.1,4.9-10.3,10.1-16.4,13.8c-0.6,0.3-1.2,0.6-1.8,0.9
		c1.7-4.9,3.1-9.9,4.3-14.4c3.4-12.4,2.3-24.6,3.2-37.3c0.4-5-7-6.7-9.3-2.5c-3.6,6.5-8.2,12.3-12.8,18.1
		c3.4-12.5,6.1-25.2,8.6-37.6c0.9-4.4-5.5-7.8-7.7-3.2c-7.8,16.3-17.4,31.2-28.7,45.3c-0.3,0.3-0.5,0.7-0.8,1
		c16-41.9,31.9-84,38.9-128.4c0.9-5.9-6.7-8-8.9-2.5c-16.7,43.6-31.9,88.1-55.8,128c18.1-58.8,37.1-117.3,54.2-176.4
		c1.3-4.5-5.7-7.7-7.7-3.2c-20.3,44.6-40.4,89.8-61.5,134.3c18.8-60.1,38.1-119.8,61.7-178.6c2.3-5.7-7.1-9.6-9.9-4.2
		c-30.2,58.5-61.4,117.1-89.8,176.8c11.7-45.7,28.4-90.6,45-132.9c28.5-72.8,60.5-143.8,94.8-214c2-4.1-3.9-7.7-6.2-3.6
		c-40,69.7-82.3,138.6-116,211.6c-7.1,15.4-13.6,30.9-19.7,46.5c12.4-55.9,30.4-110.5,54.8-163.5c2.3-5.1-4.7-9.5-7.6-4.5
		c-36.2,63-64.3,130.4-82.8,200.3c0-0.3,0.1-0.6,0.1-0.9c6.4-41.6,14.2-83.2,29.9-122.4c0.5-1.3-1.6-2.1-2.2-0.9
		c-20.9,41.4-42.8,86-58,132.2c2.3-25.9,6.3-51.9,12.2-77.1c1.4-6.1-7.1-8.3-9.3-2.6c-10.2,27.1-19.1,54-25.8,81.9
		c0.7-13.5,1.9-26.9,4.7-40.1c1.4-6.8-8.2-9.5-10.4-2.9c-4.4,13.1-9.8,26.9-14.3,41c-8.6-19.1-15.8-38.8-21.7-58.9
		c0-0.1-0.1-0.3-0.1-0.4C1109.1,1118.7,1158.4,1080.7,1199.7,1037.3z M968.2,615.2c-48.2,19.6-94,44.5-136.9,73.9
		c-32.2,22.1-63.7,46.3-92.5,73c1.3-1.9,2.6-3.9,4-5.8c33.5-46.7,78.4-86.1,128.2-114.4c2.3-1.3,0.3-4.4-2-3.5
		c-57.1,24.2-104.9,61.1-143,110.1c-4.3,5.6-8.7,11.3-13.1,17.3c1.9-4.4,3.8-8.7,5.9-13c26.1-52.8,66.8-94.9,114.3-129
		c6-4.3,0.4-14.3-5.9-10c-49,32.9-92.9,74.6-125.8,123.7c-8.9,13.3-17.3,27.8-25,43c2.5-9.5,5.5-18.9,9-28.4
		c19-50.9,50.2-98.8,86.3-139.2c2.8-3.1-1.4-7.1-4.5-4.5c-44.5,35.4-82.1,85.4-106.8,140.8c9.9-43.9,28.8-85,56.9-120.6
		c1.1-1.4-0.6-3.2-2-2c-25.8,22-45,49-59.2,78.9c18.7-57.5,48.5-107.1,91.5-151.4c70.6-72.9,157.9-125.3,232.2-193.4
		c-18.8,42.8-26.3,90.1-10,135.2c9.6,26.7,20.6,58.4,43.5,76.6c9.8,7.8,21.3,12.9,33.4,16.3c-1.2,0.4-2.5,0.7-3.7,1.1
		C1017.6,597.2,992.7,605.2,968.2,615.2z M770.1,882.5c49.5-48.6,108.8-88,162.9-131.4c53.6-43,106.1-87.3,158.9-131.1
		c26.5-22,55.8-44.5,82.9-69c-78.5,118.9-128.3,256-142.4,398.4c-8.6,87.5-4.6,178.4,22.6,262.5c13.4,41.6,33.2,79.5,58,115.4
		c5.4,7.9,10.6,15.7,15.5,23.6c0.1,1.6,0,3.3,0.1,4.9c0,0.9,0.2,1.7,0.4,2.5c-22.4-3.8-44.6-7.7-66.8-10.9c-0.3-0.5-0.5-1-0.8-1.4
		c-1.1-2.1-3.7-1.1-4.2,0.7c-29.2-4.2-58.6-7.3-88.5-8.1c14.6-6.7,28.5-14.5,42.3-23.6c4.1-2.7,3-10.7-2.7-10.1
		c-14.5,1.5-28.8,3.3-43.1,5.3c10.1-11.2,18.4-23.8,24-37.6c1.8-4.5-4.9-6.5-7.3-3.1c-14.4,20-32.9,30-53.1,36.9
		c22.5-23.1,36.5-50.8,44.6-81.8c0.7-2.6-3-4.2-4.4-1.9c-15.4,26.1-36.2,48.6-60.6,66.4c6-11.2,11.5-22.3,16.5-32.4
		c16-32.3,29-66.7,39.4-101.2c1.3-4.2-5.1-5.9-6.6-1.8c-13.2,37-30.7,70.3-54.1,101.8c-3.5,4.7-7.4,9.2-11.5,13.7
		c23.6-63.5,47.4-127,71.5-190.4c1.4-3.8-4.9-6.5-6.6-2.8c-27.5,62-55.4,123.8-83.3,185.6c5.8-22.9,11.8-45.7,18.1-68.5
		c17-60.6,40.2-119.9,67-176.8c2-4.1-3.8-7.7-6.2-3.6c-28,47.2-50.9,96.7-71.6,147.4c2.3-10.1,4.5-20.2,6.8-30.3
		c15.7-68.9,29.8-141.4,70.9-200.3c2.2-3.1-2.9-7.1-5.4-4.1c-43.7,53.6-63.4,117-81,182.7c-15.2,56.8-30.9,113.6-46.7,170.2
		c8.1-141.7,49.3-280.5,122.3-403c3.3-5.6-5.3-10.5-8.7-5.1C872,978.9,825,1097.2,800.2,1221c6-101.9,18.9-202.4,76.6-290.7
		c1.4-2.2-2-4.1-3.5-2c-40.4,56.4-72.2,120.9-86.9,188.9c-9.6,44.4-13,89.6-17.6,134.8c-0.4-4.7-0.7-9.4-0.8-14.1
		c-1.1-31.6-0.1-63.3,2.8-94.8c5.8-63.4,21.8-125.7,44.5-185c0.7-1.9-2.3-3.1-3.3-1.4c-32.8,56.9-51.5,118.9-61.8,183.6
		c-3.7,23.3-7.5,48.3-10,73.7c-10-80.7,5.8-167.4,41.4-237.4c1.2-2.3-1.9-5.1-3.8-2.9c-34.6,42.1-50.3,92.4-59.5,145.5
		c-0.8,4.9-1.6,9.9-2.4,14.8c-1.1-7.3-1.9-14.5-2-21.8c-0.3-30.1,3-60.8,11.3-89.7c1.3-4.6-5.2-6.1-7-1.9
		c-12.4,29.8-21.4,59.3-23.3,91.7c-0.6,9.7-1.1,20.6-0.8,31.6c-2.7-12.9-4.9-25.9-6.3-39c-1.2-11.2-2.6-85.4,4.6-113.4
		c1.6-1.8,3.2-3.6,4.7-5.5c1.4-1.6,2-3.4,2.2-5.1c0.2,0,0.3-0.1,0.4-0.1c2.4,0.2,4.3-3.2,1.7-4.4c-1.2-0.6-2.4-0.9-3.5-1.1
		c-0.4-0.7-0.9-1.4-1.5-1.9c3.4-4.8,6.8-9.6,10.2-14.2C726.6,932.4,746.4,905.8,770.1,882.5z M590,1724c-5.5-15-11-30.1-15.5-45.2
		c32.7-1.7,66.3,2.5,98.6,5.6c39.3,3.8,89.8,3.6,127.2,19c-2.3,6.1-3.9,12.4-4.3,18.9c0,0.2,0,0.4,0,0.5
		c-37.9-0.5-75.6-4.9-112.4-14.2c-0.6-0.2-0.8,0.7-0.2,0.9c37.2,15.4,74.6,26,114.1,31.6c0.3,1.3,0.5,2.6,0.9,3.8
		c-32.1-7.2-67.4-8.5-99.4-11.7C663.5,1729.7,626,1724.2,590,1724z M476.3,1245.4c2.1-1.9,2-4.3,1-6.1c0.2-0.8,0.4-1.6,0.7-2.4
		c1.9-6.3-7.4-8.6-9.7-2.7c-0.6,1.7-1.2,3.5-1.8,5.2c-16.7,13.8-35.3,24.3-54.7,33.2c41.8-39.6,78.6-84,122.5-121.7
		c43.8-37.5,83.9-76.7,122.2-118.7c2.3-2,4.3-4.3,6.2-6.8c2.7-3,5.3-6,8-9c2.2-1.3,3.8-3.3,4.9-5.5c0.6-0.7,1.3-1.4,1.9-2.1
		c-2.3,11.8-3.3,23.2-3.9,27.3c-7.4,53.2-2.1,107.6,11.4,159.4c12.9,49.8,33.3,97.4,56.3,143.2c17.1,34,34.3,69.3,62.5,94.9
		c-57.7,16.1-123.2-22.6-180.5-29.6c-4.1-0.5-8.6-0.9-13.2-1.1c1.9-1.2,3.7-2.4,5.4-3.5c6.5-3.8,12.9-7.2,19.8-10.2
		c6.3-2.7,17.9-9.4,24.8-8.8c3.6,0.3,4.3-5.5,0.9-6.3c-8.8-2.1-12.6-4.8-21.7-3.6c-10,1.3-20.2,4.8-29.8,7.6
		c-6.4,1.9-14.4,4.4-21.5,8.1c1-1.4,2-2.9,3.1-4.3c12.3-16,27.5-38.1,44.6-48.9c4.6-2.9,0.4-10-4.2-7.3
		c-19.9,11.8-37,19.9-52.9,37.4c-5.7,6.3-13,13.8-19.6,21.8c12.4-37.5,34.3-74.4,58-102.7c2.9-3.5-2-8.6-5.1-5.1
		c-20.7,23.4-44.1,46-61.7,71.9c-1.2,1.8-2.5,3.7-3.8,5.7c10.2-44.1,24.8-86.1,52.6-125.1c3-4.2-4-9.7-7.2-5.6
		c-30.5,38.4-56.3,82.9-74.3,129.8c5.1-54.1,23.6-106.8,55.9-150.8c1.9-2.6-2.3-5.8-4.4-3.4c-28.1,31.7-50.6,66.6-66.3,104.2
		c5.7-41.5,19.4-81.3,43.5-119.6c2-3.2-2.8-7.1-5.4-4.1c-39.4,44.9-66.7,103.3-72.9,163.5c-3.2-32.7-0.4-67.3,7.5-97.4
		C475.6,1245.9,475.9,1245.7,476.3,1245.4z M622.3,1043.8c-7.7,7.8-15.6,15.3-23.8,22.5c-32,28.1-67.9,50.9-101.4,76.9
		c-26.8,20.8-47.8,46.2-71.6,69.8c8.8-28.9,13.1-61,27.2-87.9c15-28.7,43.3-46.4,71.2-61c31.9-16.7,59.8-20.8,95-20.3
		C620,1043.9,621.2,1043.8,622.3,1043.8z M719.4,1624.7c13.7,4.1,27.6,7.5,41.5,10.7c-17-1.5-34-2.7-50.5-4.2
		c-48.8-4.3-97.8-7.1-146.8-8.6c-0.6-7.1-1.1-14.2-1.3-21.2c99.2-4.4,197.7,10,293.7,35.2c-45.4-3.7-91.9-3.1-135.8-15.2
		C718.1,1620.8,717.2,1624.1,719.4,1624.7z M520.1,1775.8c-0.3-0.2-0.7-0.4-1-0.6c-0.1-1.7-0.6-3.4-1.6-4.9
		c-5.8-8.9-12.1-16.4-17.7-24.3c8.6-18.4,24.7-34,40.9-47.1c2,8.8,4,17.6,6,26.5c0.5,2.4,1,4.9,1.4,7.4
		c-5.9,8.1-11.8,16.1-17.4,24.4C526.5,1763.2,522.3,1769,520.1,1775.8z M480.1,1650c4.1-4.2,6.7-9.3,10.5-13.9
		c4.9-5.8,10.5-11.1,16.8-15.3c6.9-4.7,14.8-8,22.7-11.4c0,5.8,0.1,11.5,0.3,17.1c-12.4,6.2-23,18.8-32.1,27.9
		c-7.3,7.3-13.8,14.9-18.8,23.3C479.2,1668.4,479.5,1659.2,480.1,1650z M485.5,1718.1c-0.8-2.6-1.5-5.3-2.1-8
		c2.5-0.8,4.5-2.8,5.3-6.2c5.3-23,24.7-40,43.4-55.3c0.4,3.5,0.7,7.1,1.1,10.5c1.2,8.7,2.8,17.2,4.6,25.7
		c-19,12-33.2,27.9-47.7,44.8C488.3,1726.2,486.7,1722.4,485.5,1718.1z M564.3,1529.4c1.1-1.8,1.8-3.8,2.3-5.8
		c2.4-1.2,4.4-3.1,6-5.4c76.3-14,165.3,14.8,235.6,37.3c27.2,8.7,54.6,21.3,82.3,33.7c-28.9-9.1-58.5-16.2-88.1-21.9
		c-41.7-8-83.8-13.3-126-18.1c-35.7-4.1-76.7-12.1-113-4.9C563.7,1539.3,564,1534.3,564.3,1529.4z M976,1577.6
		c-28.2-6.6-62.3-8.2-84.3-28.7c-0.4-0.4-1.1,0.2-0.7,0.7c16.1,16.4,40.7,25.4,63,34.2c-58.6-18.1-115-47.9-174.6-62.2
		c-64-15.4-138.4-34.8-203.5-15.9c-0.4-4.4-2.5-8.7-6.8-12c-9.8-7.4-19.6-14.8-29.1-22.5c36.3-14.5,77.2-13.4,115.8-10.1
		c52.4,4.5,97.6,21.5,147.9,34.3c23.1,5.9,46.1,9.4,67.9,19.8c19.9,9.5,38.9,21,58.6,30.8c23.1,11.5,50.1,26.4,77.4,36.9
		C997.1,1581.7,986.5,1580,976,1577.6z M519.3,1453.1c20.1-24.8,75.1-27.9,101.2-25.2c8.8,0.9,17.4,2.5,26,4.6
		c-44.2-2.7-87.9,2.8-123.3,24.2C521.8,1455.5,520.5,1454.3,519.3,1453.1z M821.5,1383.9c3.9-2.8,8.1-5.2,12.5-7.3
		c-0.7,11.4-0.6,22.9-0.5,34.3c0,0.3,0,0.6,0,0.9c-8.1-5.7-15.2-12.5-21.6-19.9c0.4-0.4,0.8-0.8,1.2-1.2
		C816.4,1389.2,819.4,1387,821.5,1383.9z M872.8,1482.3c-0.1-0.4-0.2-0.7-0.3-1.1c-8.1-19.4-6.1-49.2-8.7-70.2
		c-1.7-13.3-5.2-28.2-7-42.8c4.6-1.3,9.3-2.4,14-3.3c8.7,0.9,17.8,0,26.9-1.9c2.9,23.3,6.4,46.5,10.1,69.6
		c3.8,23.5,5.9,48.2,13.4,71c-0.4-0.2-0.8-0.4-1.1-0.5C904.5,1495.3,889.1,1487.7,872.8,1482.3z M832.2,1461.5
		c0.1,3.7,0.4,7.4,0.8,11c-6.7-1.4-13.5-2.8-20.2-4.2C820,1467.2,826.6,1465.1,832.2,1461.5z M999.9,1537.8
		c-14.9-5.5-29.5-11.6-44-18c2.6-4.3,3-9.6-0.5-15c-14.4-22.2-19.4-52.9-24.9-78.5c-4.7-21.7-8.3-43.6-11.5-65.6c0.5,0,1.1,0,1.6,0
		c30.7,63.2,65.2,124.2,101.2,184.4C1014.4,1542.8,1007,1540.4,999.9,1537.8z M710.1,1200.3C710.1,1200.3,710.1,1200.3,710.1,1200.3
		C710.1,1200.3,710.1,1200.3,710.1,1200.3C710.1,1200.3,710.1,1200.3,710.1,1200.3z M530.8,1586.6c-12.8,2.5-22.1,14.6-32.6,22.5
		c-4.4,3.2-9.6,6.7-14.7,10.5c0.9-5.2,1.9-10.3,3.1-15.4c4.6-4.5,8.8-10.2,13.4-13.6c9.4-6.9,20.3-13.8,31.8-16.6
		C531.4,1578.2,531,1582.4,530.8,1586.6z M535,1783.8c3.4-8.6,4.6-16.6,10-24.7c2-3,4.1-6,6.1-9.1c2.3,14.4,4.4,28.9,8.1,42.9
		c-1.2-0.2-2.5-0.3-3.8-0.2C548.5,1790.1,541.7,1787.1,535,1783.8z M819.2,1674.5c-7.7-0.1-15.5,0.8-23,0.8
		c-12.7,0.1-25.1,0.2-37.7-1c-0.5,0-0.6,0.8-0.1,0.9c9.4,2.4,18.7,5.1,28.1,7.5c-33.8-2-69.8-11.3-102.3-14.5
		c-37.3-3.6-76.4-8.5-114-5.7c-1.9-7.9-3.4-15.7-4.5-23.6c44.6,2.5,89.2,6,133.7,10.8c42,4.5,86.9,6.8,128.7,16.5
		C824.8,1668.8,821.9,1671.6,819.2,1674.5z M562.1,1583.6c0-6.6,0.2-13.2,0.4-19.9c40.8-9.7,92.8,1.4,132.7,7.4
		c40.9,6.2,81.2,15.9,121.4,25.6c39.2,9.5,78.4,20,117.4,30.6c19.2,5.3,38.2,10.9,57.6,15.7c20.9,5.2,39.3,14.3,59.8,20.7
		c2.1,0.6,4,1,5.9,1.2c0.3,1.6,0.5,3.2,0.9,4.8C895.4,1620.7,734.1,1561.8,562.1,1583.6z M1038.7,1550.7
		c-39.8-61.8-76.2-125.7-111.8-190c7.7,0,15.2,0.2,22.5,0.4c33,67.8,70.3,133.2,109.2,197.8
		C1052.2,1555.7,1045.5,1553.1,1038.7,1550.7z M379.1,928.4C399,885.7,425,846,453.6,808.1c4.5-2.6,7.8-6.7,8.9-11.6
		c18.4-23.6,37.6-46.4,57-68.8c-7.2,21.9-10.4,44.7-11.9,68.3c-2.2,35-5.7,73.4,5.3,107.4c14.4,44.8,55.4,84.4,101,103.4
		c-11.4,0-24.2-1.5-27.7-1.2c-14.2,1.2-28.3,4.3-41.8,8.9c-28.8,9.8-56.7,25.1-81,43.4c-4,3-7.6,6.1-11,9.3
		c7-23.4,14.9-46.1,26.4-67.9c2.4-4.6-4-8.2-6.9-4c-17.8,25-35.7,50.4-47.7,78.8c-0.3,0.7-0.6,1.4-0.9,2.1c0.3-2.8,0.6-5.7,1-8.5
		c5.6-37.2,18.1-78.5,41.5-108.8c1.1-1.4-0.7-3.4-2-2c-26.4,29.2-46.3,57.1-59.7,94.8c-1.6,4.4-3.1,9.1-4.6,13.9
		c3.9-42.7,17.9-83.2,39.2-123.8c2.4-4.6-4.2-8.5-6.9-4c-13.7,22.8-27.5,46.8-38.6,71.9c2.2-35.9,10.4-70.3,35.8-102.9
		c3.2-4.1-2.1-10-6-6c-38.1,40.1-56.9,97.2-58.1,153.1C351.8,1010.2,359,971.6,379.1,928.4z M391.6,1213.7
		c3.2,9,11.8,13.3,19.7,12.3c-19.9,15.5-46.5,26.9-48.6,54.2c-0.4,4.7,1.2,8.4,3.9,11c-6,2.3-12.1,4.6-18.1,6.9
		c-2.4-36.3,3-74,5.6-110c1.5-20.7,3.2-41.5,5-62.2C369.7,1155.3,381.2,1184.5,391.6,1213.7z M333.1,1462.6
		c-2.4,1.5-4.6,3.2-6.7,5.1c1.8-14.6,6.2-28.3,16.9-36.7c3-2.4-0.3-6.8-3.5-6c-15.3,3.6-25.7,16.2-32.3,31.4
		c0.9-19.4,6.4-39.4,16.6-54.6c3.8-5.7-5.1-10.5-9-5.3c-21.8,28.9-31.4,61.2-30.1,93.9c-3.1-8.8-5.1-18.1-5.3-29.8
		c-0.5-24.6,4-56.9,20.7-75.9c3.7-4.3-2-10.1-6.2-6.2c-17.3,15.8-36.4,65.3-36.5,104.8c-10.3-34.1-1.2-76.8,14.4-105.8
		c22.1-41,69.8-55,109.7-72.7c27.9-12.4,54.8-27.2,78.7-46c-12.3,45.8-13.8,97.6-2.7,142.4c9.5,38.6,32.9,67.8,61.1,93.1
		c-31.4-5.1-59.8-15.6-90.8-27.3C399,1456,361.8,1444.5,333.1,1462.6z M524.9,1536.6c4,0.9,8,1.8,12,2.5c-1.3,6.7-2.5,13.4-3.4,20.3
		c-13.5,1.6-25.5,7.4-36.7,15C503.5,1560,512.5,1547.1,524.9,1536.6z M485.5,1801.2c-25.1-4.7-41.7-18.5-54.4-40.6
		c-3.6-6.3-13.1-0.7-9.7,5.7c7.5,14.2,19.4,28.6,33.8,40.5c-19.8-2.6-36.7-9.2-46.9-31.1c-6.5-14-19.1-25.4-35.6-18.8
		c-15.1,6-22.2,25.3-17.5,40.1c0.3,0.8,0.6,1.6,0.9,2.4c-29-5.2-39.8-35.1-15.1-59.6c12.4-12.3,31.5-22,48.1-26.6
		c38.6-10.6,66,41.3,89.4,64.6c9.1,9.1,19,17.1,29.4,24.3C500.7,1802.7,493.5,1802.7,485.5,1801.2z M616.2,1805.2
		c-1.1-0.1-2.2-0.1-3.3,0c0,0,0,0,0,0c-3.2-24.4-11.1-48.3-19.7-72c72.9,6.3,144.8,36.9,218.1,35.3c5.2,5.8,11.4,10.5,18.4,14.1
		c-53.2,5-107.7,8-159.1-4c-1.2-0.3-1.7,1.5-0.5,1.8c40.3,10.7,80,16.6,120.2,19.6c-8.9,1.4-17.9,2.6-26.9,3.6
		C713.7,1808.8,665.7,1811.2,616.2,1805.2z M935.2,1752.9c-7.1-17.8-13.3-39.4-36.9-38.8c-23.7,0.5-31.5,25.8-23.4,39.1
		c-2.7-0.7-5.4-1.8-8.1-3.5c-20.2-13.4-5.4-39.5,11.3-47.5c3.6-1.7,1.1-7.9-2.8-6.6c-24.2,8.8-37.4,34.3-26.2,58.7
		c4.1,8.9,10.8,15.1,18.9,19c-0.9,0.2-1.9,0.3-2.9,0.4c-25.2-5-44.9-27.8-37.7-55.3c6-22.7,34.6-41.1,56.1-46.9
		c50.6-13.7,85.2,36.3,110.7,71.1c14.7,20,29.9,40.1,48.9,56c-9.7-0.8-19.4-2.1-28.6-5.9c-26.5-11.1-42.5-39.8-58.6-62.4
		c-1.3-1.8-3.8-0.3-3,1.7c9.6,22.6,22.2,50.3,41.2,68.8C968.6,1794.7,947.2,1782.9,935.2,1752.9z M1169.1,1635.9
		c21.2-14.6,54.1-9.1,75.1,3.2c42,24.6,46.3,72,56.6,114.8c4.3,17.9,11.5,34.4,21.1,48.7c-9.5-6.2-16.1-13.3-21.6-24.1
		c-9.2-18-15.5-37.3-23.8-55.7c-13.2-29.4-29.6-58.6-59-74c-3.5-1.9-6.7,3.4-3.1,5.4c50.7,28.1,44.2,81.3,58.5,128.7
		c-1-0.8-1.9-1.6-2.8-2.4c-12.6-12-19.6-29.8-26.2-45.6c-0.8-2-4.6-2.1-4.3,0.6c2.5,20.1,5.8,39.1,18.5,55.5c1.5,1.9,3.2,3.9,5.1,6
		c-2.4-0.4-4.7-1-7-1.8c-13.6-5-25.8-12.6-33.5-24.9c-0.8-1.3-3-0.5-2.6,1.1c3.1,11,7.1,21.7,13.9,30.6c-15.3-0.6-29.6-2-42.2-13.3
		c-9.7-8.8-16-22.9-21.3-35.3c25-5.1,45.6-22,40-50.9c-0.2-0.9-0.4-1.6-0.8-2.3c1.7-6,2.7-12.2,3.4-17.8c1.5-12.5-19.8-15.4-22-3
		c-2.9,15.7-12.7,20.6-25.9,8.2C1150.7,1674,1153.9,1646.4,1169.1,1635.9z M1149.8,1754.9c0.1,0.2,0.1,0.5,0.2,0.7
		c4,10.5,8.2,20.2,13.2,28.9c-5.4-1.6-10.7-3.7-16-6.8c-13.8-8-25.6-18.9-37.4-29.6c-4.6-4.2-11,2.2-6.8,6.8
		c9,10,19.5,21.5,31.2,31.1c-18.9-5.5-36.8-14.1-52.9-26.2c-3.4-2.5-7.7,3.1-4.5,5.9c9.7,8.5,19.7,15.9,30.1,22.4
		c-8.1-2.2-16-4.7-23.3-7.5c-33-12.8-52.2-41.8-72.5-69.1c-9.4-12.6-19.9-25.4-31.5-36.7c30.4,10.7,60.4,22.3,90,34.3
		c1.4,0.6,2.8,0.9,4.2,1.1C1090.2,1738.2,1117.7,1753.8,1149.8,1754.9z M1078,1579.4c-0.1-5.4-2.6-10.8-7.6-14.1
		c-0.1-0.1-0.2-0.1-0.3-0.2c2.3-1.6,3.5-4.5,1.6-7.5c-41.4-63.8-79.1-129.9-116-196.5c3.7,0.1,7.3,0.2,10.7,0.3
		c3.9,0.1,7.9,0.2,11.9,0.4c33.7,69.2,71.9,135.9,111.7,201.7c0.4,0.6,0.8,1,1.2,1.4C1086.3,1569.5,1081.9,1574.3,1078,1579.4z
		 M1514.1,1658.2c-0.1-0.2-0.2-0.3-0.4-0.5c-12.1-15-35.6-7.4-52.5-12.7c-16.6-5.2-32.7-27-41.4-41c-2.8-4.5-9.5-1.5-8.4,3.6
		c4.3,19.8,8.7,42.5,23.4,57.7c9.7,10.1,23.2,16.3,37.2,20c-9.1,22.3,1,55.8,16.3,76.8c-20.2-11.8-36-32.4-50-56.6
		c-20.8-35.8-40.3-69.2-71.5-97.2c-17.1-15.3-36.3-29-56.8-40.3c2.4-4.1,4.1-8.6,5.3-13.4c1.3,0.2,2.7-0.3,3.6-2
		c10.3-18.8,30.6-29.2,50.7-34.7c27.4-7.5,45.1-3.9,63.2,17.8c5.1,6.1,8,12.6,16.4,15.2c13.9,4.3,27.7-2.8,42.3,2.7
		c24.2,9.1,31.9,27.6,32.7,51.9c0,1.2,0,2.4,0,3.6c-1,0.3-2,0.7-3,0.9c-13.3,2.9-28.9-1.2-34.4-15c-0.5-1.3-2.4-0.8-2.1,0.6
		c2.7,12.8,11.7,22.1,24.2,25.9c4.9,1.5,11.5,2.4,18.2,2.2c0.2,0.2,0.3,0.5,0.5,0.7c4.7,5.9,11.1,6.8,17.6,8.1
		c-11.1,3.7-22.3,5.7-35.5,2.6c-20.6-4.8-37.3-18.8-48.7-36.2c-1.3-2-4.9-0.8-4,1.7c14.2,39.2,62.3,65.3,101.7,51.3
		c-0.7,3.3-1.6,6.7-2,10.3C1542.2,1658.2,1527.7,1656.5,1514.1,1658.2z"/>
</g>
</svg>
