<?xml version="1.0" encoding="utf-8"?>
<!-- Generator: Adobe Illustrator 22.0.1, SVG Export Plug-In . SVG Version: 6.00 Build 0)  -->
<svg version="1.1" id="Layer_1" xmlns="http://www.w3.org/2000/svg" xmlns:xlink="http://www.w3.org/1999/xlink" x="0px" y="0px"
	 viewBox="0 0 2000 2000" style="enable-background:new 0 0 2000 2000;" xml:space="preserve">
<path d="M1943.2,1744.1c-2.7-13.1-9.3-21.6-19-30.6c-17.1-15.9-36.4-27.6-56-40c-19.4-12.3-38.4-25.2-57.6-37.8
	c-37.4-24.6-74.6-49.4-111.6-74.6c-38-25.9-75.7-52-114.6-76.5c-38-23.8-76.1-47.3-113.5-72.1c-13.2-8.8-26.3-17.8-39.6-26.6
	c12.7-15.9,25.3-31.8,38-47.7c9.3-11.6,18.5-23.3,27.8-34.9c4.3-5.4,8.7-10.7,12.8-16.1c0.8-1.1,1.3-1.7,1.5-2.1
	c0.3-0.2,0.8-0.6,1.7-1.4c3.2-3,6.4-6.1,9.6-9.2c16.8-16.1,18.6-43.2-1.6-57.7c-20.1-14.4-45.3-4.2-55.2,16.9
	c-1.6,3.5-3.3,7-4.9,10.5c-0.5,1-0.9,2-1.4,3c-0.3,0.4-0.8,1.3-1.6,2.6c-3.9,5.7-7.5,11.6-11.2,17.3c-8.1,12.5-16.1,25-24.2,37.5
	c-3,4.6-6,9.3-9,13.9c-3-3.4-6.3-6.6-10-9.6c-26.6-21.2-128.1-83.9-258.6-163.4C1389.2,993,1649.5,832.9,1657,828
	c60.7-39.7,120.7-81.2,171.7-133.3c23.4-23.9,46-51.3,61.8-80.9c7.7-14.5,14.9-29.7,19.6-45.4c4.5-15.2,8-30.5,11-46.1
	c4.4-14.2-19.3-117.5-19.3-117.5s-74,133.5-203.4,241.7c-83.7,70-405.4,265.1-672,426.8C759.7,911.7,438,716.6,354.3,646.6
	C224.9,538.3,150.9,404.8,150.9,404.8s-23.7,103.3-19.3,117.5c3,15.6,6.4,30.9,11,46.1c4.7,15.7,11.9,30.9,19.6,45.4
	c15.8,29.6,38.4,57,61.8,80.9c51,52.1,110.9,93.5,171.7,133.3c7.5,4.9,267.8,165,512,317.5c-130.6,79.5-232,142.2-258.6,163.4
	c-3.7,3-7,6.2-10,9.6c-3-4.6-6-9.3-9-13.9c-8.1-12.5-16.1-25-24.2-37.5c-3.7-5.8-7.3-11.7-11.2-17.3c-0.8-1.3-1.4-2.2-1.6-2.6
	c-0.5-1-0.9-2-1.4-3c-1.6-3.5-3.3-7-4.9-10.5c-9.9-21.1-35.1-31.3-55.2-16.9c-20.2,14.5-18.5,41.6-1.6,57.7c3.2,3.1,6.3,6.2,9.6,9.2
	c0.9,0.8,1.4,1.2,1.7,1.4c0.2,0.4,0.7,1,1.5,2.1c4.1,5.5,8.6,10.8,12.8,16.1c9.3,11.6,18.5,23.3,27.8,34.9
	c12.7,15.9,25.3,31.8,38,47.7c-13.2,8.8-26.3,17.9-39.6,26.6c-37.4,24.8-75.5,48.2-113.5,72.1c-38.9,24.4-76.6,50.6-114.6,76.5
	c-37,25.2-74.2,50-111.6,74.6c-19.2,12.6-38.2,25.5-57.6,37.8c-19.6,12.5-38.9,24.1-56,40c-9.7,9-16.3,17.5-19,30.6
	c-2.6,12.3,1.6,24.9,8.2,35.1c6.4,9.8,19.2,17.1,30.6,19c13.4,2.2,23.6-2,35.1-8.2c23.6-12.8,42.9-30.2,64-46.6
	c19.9-15.5,39.8-31.1,59.7-46.6c71.5-55.8,145.1-108.9,215.3-166.2c34.7-28.3,69.4-56.6,104.8-84.1c8.6-6.7,17.5-13.2,26.2-19.9
	c31.1,39.9,60.9,80.6,91,121.2c15.4,20.9,47.5-2.2,32.7-23.5c-23.1-33.2-46.3-66.3-69-99.8c6.5-2,12.6-5,17.4-9
	c24.8-20.4,149.9-100.6,300.9-195.6c151,94.9,276.1,175.2,300.9,195.6c4.8,4,10.9,6.9,17.4,9c-22.6,33.5-45.8,66.6-69,99.8
	c-14.8,21.2,17.3,44.3,32.7,23.5c30.1-40.7,59.9-81.4,91-121.2c8.7,6.7,17.6,13.2,26.2,19.9c35.4,27.5,70.1,55.8,104.8,84.1
	c70.3,57.3,143.8,110.4,215.3,166.2c19.9,15.5,39.8,31.1,59.7,46.6c21,16.4,40.4,33.9,64,46.6c11.5,6.2,21.7,10.4,35.1,8.2
	c11.4-1.9,24.2-9.2,30.6-19C1941.7,1769,1945.8,1756.4,1943.2,1744.1z"/>
</svg>
