<?xml version="1.0" encoding="utf-8"?>
<!-- Generator: Adobe Illustrator 22.0.1, SVG Export Plug-In . SVG Version: 6.00 Build 0)  -->
<svg version="1.1" id="Layer_1" xmlns="http://www.w3.org/2000/svg" xmlns:xlink="http://www.w3.org/1999/xlink" x="0px" y="0px"
	 viewBox="0 0 2000 2000" style="enable-background:new 0 0 2000 2000;" xml:space="preserve">
<path d="M1823.7,1028.1c-12.5,3.3-24.2,9.6-35.6,16.7c-1.6-4.3-5.3-7.8-11.6-8.9c-16.1-3-30.1-4.8-44.5-13.1
	c-10.2-5.9-18.8-14.7-29.9-18.8c-8.3-3-18.2-4.5-26.7-1.3c-11.1,4.1-17.4,17-29.1,19.3c-3.2,0.6-2.5,6,0.8,5.7
	c10.2-1,14.1-2.8,23.1-7.4c21.8-11.2,24.8,8,35.7,21c11.1,13.3,28.1,23.6,45.8,27.5c-23.4,14.4-46.8,28-70.9,41.1
	c-16.6-34.2-39-70.6-67-95.1c-8.1-7-19-13.4-30-9.8c-14.9,4.8-15.9,22.4-21.4,34.5c-11.5,25.2-35.9,43.1-55.8,61.5
	c-19.9,18.3-39.6,36.9-59.8,54.8c-17,15-35.7,28.2-55.6,38.9c5.2-19.9,4.2-44.3,3.3-58.7c-1.8-29.1-8.1-66.7-33.4-85
	c-27.9-20.2-70.1-20.1-102.9-22.8c-15-1.3-30.1-2.2-45.3-2.8c0.1-0.6,0.3-1.2,0.3-1.9c0.3-7.2,0.7-14.4,1-21.6
	c0.2-3.3,0-7.1,0.3-10.8c19.1,0.4,38.1,1.5,57.1,3.3c19.5,1.8,39,4.1,58.5,6.6c16,2.1,34.9,7.6,51,4.8c28.8-5,38.9-38.7,42.3-63.6
	c5-35.8,5.9-72.7,1.4-108.6c-3.7-29.5-19.4-40.8-46-51.1c-35.3-13.7-72.1-22.2-109.4-27.8c-11.5-1.7-23.1-3.7-34.8-5.2
	c-2.1-13.6-2.4-27.4-3.1-41.2c20.5-3.6,41.2-6.2,62-7.1c14.2-0.6,32.7,3.3,41.6-10.5c9.2-14.3,3.8-40.7,1.7-56.4
	c-2-15.1-4.1-32.2-17.1-42.1c-15.6-11.9-42.1-17-60.6-22.2c-3.9-1.1-8.5-2.5-13.7-3.9c0.2-7.2-0.8-14.9-1-21.1
	c-0.2-4.6-0.3-9.1-0.5-13.7c6.5-6.2,10.4-14.2,9.3-24.6c-1.3-11.8-11.6-23.3-24.8-18.9c-7.2,2.4-10.9,6.2-16.8,10.3
	c-7,4.9-15.6,6.9-23.5,9.7c-13.4,4.8-24.4,13.3-37.3,16.7c0.9-14.6-0.9-28.9-4.7-39.1c-14.9-40-55.7-67.4-97.4-72.7
	c-10.8-1.4-21.5-0.8-32.2,0.6c-0.6-19.3-0.9-38.6-0.8-57.9c14.2-8.5,24.2-21.3,24.7-39.8c0.7-23.3-28.5-26.9-40.3-10.9
	c-21.9,29.8-66.2,29.6-100.6,27.1c-13.8-1-28.3-4-41.9,0c-22,6.4-29,31-55.9,26.3c-2.8-0.5-4.1,3.8-1.2,4.4c9,2,17.2,3.4,26.4,2.1
	c9.9-1.5,16.1-6.8,25.3-10.3c23.1-8.7,57.9,11.4,82,14.6c18.8,2.5,45.4,1.4,67.3-6.6c-1.7,17.4-3.2,34.9-4.2,52.4c0,0.7,0,1.4,0.1,2
	c-7.7,1.6-15.3,3.3-22.9,4.8c-23.8,4.9-49.3,3.5-71.7,13.7c-7.3,3.3-1,14.5,6.4,10.9c1.3-0.6,2.6-1.2,3.9-1.7
	c19.6,3.6,33,25.8,37.9,43.8c2.2,8.4,3.2,16.9,3,25.3c-1.5,3-1.7,6.6-0.8,10c-1.3,10.1-4.1,20-8.3,29.4c-2,4.5,0.2,11.6,6.3,11
	c13.6-1.3,26.8-2.3,39.9-2.4c-2,14.9-3.9,29.8-5.5,44.8c-75.4-23.2-154-28.8-232.4-25.2c-2.2-5.8-11.7-8.4-16.7-1.8
	c-9,12.1-8.7,25.8-3.8,39.6c8.3,22.9,14.9,42,13.1,67c-3.1,43.1-18.6,85.5-40.2,122.9c-4.7-8.9-12-15.8-24.8-20.3
	c-17.1-6.1-35-9.1-53-11.7c0.6-2.9-0.2-5.6-1.8-7.8c1-38.7,0.8-77.5,2.6-116.2c0.3-6.7-9.4-6.3-10.2,0c-1.5,12.5-3.2,24.9-5,37.4
	c-6.5-5-15.4-6.6-24.3-1.2c-14.9,9.1-22.9,16.3-41.7,12.7c-12.9-2.4-25.1-7.3-38.3-8c-23.3-1.3-47.1,8.5-63.7,24.8
	c-3.2,3.1,0,9.1,4.4,7.6c13.7-4.5,26-13.1,40.1-16c24.5-4.9,37.3,12.7,55.7,23.9c20.5,12.5,43,11.7,61.5-1.1
	c-2,13.3-3.9,26.6-5.7,39.9c-4.1-0.6-8.1-1.3-12.1-2.1c-28.9-5.4-55.9-14.3-85.6-9.8c-14.8,2.3-56.9,4.2-54.1,26.8
	c0.6,4.5,2.6,7.2,6.8,8.9c4.9,1.9,7.6,2,11.2,0.4c12.6,14.1,17.4,38.1,21.7,55.5c-22.8-1.4-45.4-3.7-68-6.6c0.7-1.2,1.3-2.5,1.5-3.9
	c3-20.1-1.7-43-2-63.4c-0.3-25.1-0.6-50.1-0.7-75.2c-0.1-7.8-11.2-7.5-11.9,0c-2,20.5-4,41-6.2,61.4c-1.4-0.4-3-0.7-4.6-0.8
	c-19.1-1.1-27.7-10.1-42.8-20.7c-10.2-7.2-22.1-13.3-34.9-13.2c-35.3,0.4-44.2,40.3-74.6,48.1c-1.5,0.4-1.3,2.4,0,2.8
	c13.2,4.5,23,3.6,35.2-3.4c16.5-9.5,30.3-26.7,49.9-12.5c12.9,9.3,19.6,24.5,34.1,32.4c10.6,5.8,22.5,8.3,33.4,4.9
	c-1.3,10.2-2.7,20.4-4.2,30.6c-0.5,3.1-0.3,6.4,0.7,9.3c-21.2-3.1-42.4-6.5-63.5-10.1c-46.7-8-90.7-21.9-138.7-17.1
	c-6,0.6-6.1,8.9,0,9.5c0.5,0,0.9,0.1,1.4,0.1c20.9,38.4,23.2,87.7,14.8,129.9c-7.6,38.5-30.3,71.4-38.4,109.6
	c-1.4,6.4,2.9,13,9.9,13c56.8-0.3,113.6-3.7,170.4-3.8c10,0,20,0,30,0c-0.6,3.1-1.1,6.3-1.8,9.2c-1.2,5.2-2.7,10.1-2.5,15
	c-29.4-0.2-58.4,1.8-85.9,5.9c-4.2,0.6-5.4,5.8-3.7,9.2c-5.8,30.2-11.5,60.8-16.2,91.5c-3.2,4.5-4.1,10.5-2.2,15.3
	c-1.9,13.8-3.7,27.7-5.1,41.5c-0.1,0.6-0.1,1.2-0.2,1.8c-2.4,24.9-3.8,49.8-3.7,74.7c-1.4,3.6-1.5,7.6,0.2,10.9
	c1.4,55.3,10.7,110.1,33.5,163.1c0.3,0.7,0.6,1.4,1,2.1c-0.2,4.9,1.5,9.6,5.8,12.5c23.1,47.8,56.7,89.5,100.6,120
	c52.8,36.7,116.6,55.6,179.5,65.8c71.9,11.6,144.8,12.4,217,21.5c77.4,9.7,153.1,29.3,230.4,39.4c64,8.4,129.5,10.1,192.7-5.1
	c62.6-15,115.8-47.9,161.4-92.7c60.1-59.1,114-125,170.4-187.6c13-14.4,28-36.7,46.7-44c16.3-6.4,34.2-8.2,50.6-15
	c31.7-13,59.4-32.1,83.3-56.5c6.4-6.5,2.3-21.3-8.3-20c-14.9,1.9-27.8,5.9-42.9,2c-8.1-2.1-16-4.7-23.9-7.3c3.7-2.4,7.3-5,10.7-7.7
	c18.5-14.9,30.5-33.8,37.4-54.8c3.7-3.3,4.7-8.3,3.5-12.6c10.2-44.4,0.5-95.7-16-136.9c1.2-0.6,2.4-1.3,3.6-2.2
	c22.2-17.7,44.7-34.6,67.8-51.1c20.5-14.6,41.5-32.8,64.5-43.2C1834,1035.8,1829.7,1026.5,1823.7,1028.1z M1320.8,1058.6
	c16.4,3.8,30.2,10,39,24.4c-3.1,0.1-6.3,0.4-9.8,0.5c-10.6,0.3-19.8,3.2-30.1,5.1c-2.8,0.5-1.8,4.3,0.6,4.6c9.6,1,19.7,3.8,29.4,5.6
	c0.4,0.1,0.7,0.2,1.1,0.2c-19.3,1.3-38.7,3.3-57.6,7c-2.8,0.6-2.9,5.2,0,5.7c13.7,2.3,27.7,3.4,41.4,5.9c5.8,1.1,11.4,2.9,16.9,4.5
	c-9.9-0.2-20-0.8-29.7,0.2c-17.9,1.7-35.8,3.4-53.8,3.9c-3.8,0.1-3.8,5.6,0,5.9c24.7,1.9,49.3,5.3,73.6,9.9
	c-58.1,1.5-115.7,3.3-173.7,11.3c-4.8,0.7-3.7,9.1,1.2,8.6c57.2-6.4,117-9.1,174.7-1.9c-31.2,2.3-62,5.8-93.1,10.8
	c-1.1,0.2-0.8,1.8,0.2,1.8c32.5,1.1,65.5,3.6,98.1,7.4c-21.1-0.1-42.8,6.3-63,9.1c-1.9,0.3-1.4,3.4,0.5,3.4
	c20.4-0.6,41.9,4.9,62.7,5.9c-12.9,4.8-30.6,3.7-43.4,4.5c-32.1,2.1-64.2,3.5-96.2,6.3c-30.2,2.7-60.5,6.6-90,13.6
	c-26.7,6.4-52.6,20.4-79.3,27.6c0.2-0.7,0.5-1.4,0.7-2.1c0.5-1,0.8-2.1,1.1-3.2c5.7-17.5,10.7-35.5,13.6-53.6
	c9.9,0.1,20.6-6.2,29.9-9.2c11.6-3.7,25.8-9.9,38.1-9.2c8.2,0.5,9.1-11.4,1.9-13.8c-12.1-4-21-6-33.8-4.4
	c-11.4,1.4-22.2,1.6-33.5,2.2c-0.2-9.1-1.2-18.2-3.1-27.2c-4.5-20.8-13.7-41-24.7-59.1c-2.6-4.3-5.3-8.6-8.3-12.2
	c64.4-8.3,129.2-13,194.2-10.4C1250.6,1049.7,1287.2,1050.8,1320.8,1058.6z M1350.2,797.5c9.7,3.1,22.4,5.8,32.7,10.5
	c-8.2-0.1-16.8-0.9-24.3-0.4c-13.9,0.9-27.2,1.5-41-0.5c-1.9-0.3-2.8,2.6-0.8,3c10.9,2.3,21.7,3.1,32.9,3.5
	c12.1,0.5,35.2-2.1,44.8,5.8c1.7,1.4,3.2,2.1,4.6,2.3c0.1,0.2,0.2,0.3,0.2,0.5c-10.5-0.1-20.9-0.2-31.3,0.5c-19.1,1.4-36.7,8.3-56,5
	c-1.2-0.2-1.7,1.6-0.5,1.8c30.6,6.2,61.6,5.9,92.3,10.4c-7.6,2.7-20.3,1.3-27.4,2.1c-8.4,0.9-16.8,2.1-25.2,3.3
	c-0.6,0.1-0.4,0.9,0.1,0.9c8.4,0.7,16.8,1.6,25.1,2.6c7.8,1,21.7,0.5,28.8,4.6c0,0.6,0,1.1,0,1.7c-18.2,1.9-36.5,2.9-54.8,4.1
	c-1.2,0.1-1.2,1.7,0,1.9c18.4,2.2,36.8,4.1,55.1,7.1c0,1.1,0.1,2.2,0.1,3.4c-28.9,0.1-59.9,4.5-88,9.7c-0.4,0.1-0.2,0.6,0.1,0.6
	c29.7,2.5,58.7,7.4,88.1,11.2c0,2.7-0.1,5.5-0.2,8.2c-0.1,0-0.2-0.1-0.3-0.1c-43.8-5.5-86.9,2.4-130.6-6c-1.6-0.3-2.2,1.9-0.7,2.4
	c41,13.4,85.5,20.8,128.2,26.8c0.5,0.1,1,0,1.5,0.1c-0.2,1.4-0.5,2.8-0.7,4.2c-56.2-9.8-114-11.4-170.8-14.8c-3.3-0.2-3.1,4.6,0,5
	c49.1,5.9,96.5,13.6,141.9,31.9c-34.8-4.6-70.9-7.5-105.1-4.1c-2.3,0.2-3.1,3.6-0.6,4.3c35.6,9,71,19.5,107.1,26.7
	c-8.6,3.1-15.3,1.3-25,0c-15-2-30-4.1-45.1-5.9c-30.5-3.7-61.3-6.3-92-6.7c-27.5-0.3-55,1.2-82.2,5.3c-21.4,3.2-42.8,10.5-64.4,14.2
	c17.9-18.4,36.5-38.3,53-59.5c1.6,1.9,3.8,3.4,6.3,4.2c12,3.9,23.3-2,35.3-3.7c6.1-0.9,12.3-1.1,18.3-2.2c6.7-1.2,6.6-3.4,12.7-6
	c1.4-0.6,1-2.5,0-3.2c-4.2-2.9-5.5-5.9-10.5-7.6c-6.4-2.2-13.8-2.7-20.5-3.6c-7.9-1.1-15.9-2.9-23.7-2.8c25.4-39,41-81.9,31.4-128.1
	c30.8-6.8,63.7,0.3,94.3,5.1C1292.9,781.8,1321.8,788.5,1350.2,797.5z M1300,609.6c12,6.8,17.5,23.6,18.8,39.6c-8.2,0-16,2-24.3,4
	c-13.5,3.2-25.8,6-39.9,6.7c-3,0.1-3,4.7,0,4.7c14,0,26.3,2.2,39.9,5.1c7.8,1.6,15.2,3.4,22.8,3.6c-2.4,8.9-6.8,6.6-19.3,7.1
	c-11.2,0.5-22.3,1.4-33.4,2.7c-20.2,2.4-40.6,5.7-60.1,11.3c-2.6,0.7-21.7,9-23.8,8.1c-1.4-0.6,0.3-16.1,0.6-21.1
	c1.8,0.7,3.9,0.7,6.3-0.1c5.4-2,10.8-4.1,16-6.7c5-2.5,9-6.8,14.1-9.3c0.3-0.2,0.1-0.6-0.2-0.6c-5.6-0.6-10.7-3.3-16.3-3.6
	c-5.4-0.3-10.9-0.1-16.3,0.4c-1.3,0.1-2.4,0.5-3.5,0.9c-0.8-27.1-6.3-53.1-17-78.3c0.7-0.4,1.4-0.9,2.1-1.5
	c7.1-7.3,29.8,0.1,37.9,1.4c10.9,1.7,21.6,3.7,32.3,6.4C1256.2,595.1,1282.4,599.6,1300,609.6z M1225,543.4
	c-0.7,5.7-1.3,11.3-1.9,17c-11.3-2.4-23.3-4.1-34.4-3.9c3.8-1.6,7.7-3.2,11.7-4.5C1207.8,549.8,1216.6,547.1,1225,543.4z
	 M1165.3,561.4c-5,2.5-9.2,5.9-12.2,10.7c-1.1,1.7-1.4,3.5-1.2,5.2c-0.3,1.1-0.2,2.2,0.3,3.5c10.1,22.2,16.6,45.4,18.4,69.8
	c1.4,20.1-4.3,38.6-4.8,58.2c-0.1,2.6,1.5,5,3.6,6.3c13.5,8.2,34.2-1.4,48.3-4.3c1-0.2,2.1-0.4,3.1-0.6c-1.3,12.4-2.4,24.9-4.8,37.1
	c-18.6-1.4-37.2-1-55.2,4c-9.2,2.6-9.6,12.8-4.7,18.2c27.5,87.7-70.8,170.6-129.9,220.5c-9.2,7.7-0.9,20.6,8.9,21.5
	c38.8,3.6,77.5-14,115.9-18.1c14.1-1.5,28.2-2.3,42.4-2.5c-0.1,1.2-0.2,2.4-0.3,3.6c-0.7,9.6-1.4,19.2-2.1,28.8c0,0.5,0,0.9,0,1.3
	c-62.7-1.1-125.5,3.8-186.9,16.3c-4,0.8-6.1,3.1-6.9,5.8c-6.7,1.7-6.2,13.2,1.8,13.1c14.9-0.1,25.5,25.9,30.9,37.1
	c8.8,18.4,13.8,37.9,13.4,58.4c-0.1,4.1-0.4,8.1-0.8,12c-1,2.1-1.7,4.5-2,7.2c-0.1,0.8-0.2,1.5-0.3,2.3c-0.2,1.4,0,2.7,0.3,3.9
	c-0.5,2.4-1,4.9-1.6,7.3c-0.2,0-0.3-0.1-0.4-0.1c-23.9-3.7-47.9-6.7-71.9-9.3c7.1-50.5,6.5-103.1,10.1-153.9
	c3.4-48.1,6.8-96.1,10.1-144.2c13.2,5.9,26.6,11.1,40.5,15.2c21.8,6.3,60.1,19.3,78.5-0.3c13.3-14.2,19.4-37.4,22.5-58.7
	c0.4-1.7,0.7-3.4,0.7-5.1c0.7-5.7,1.3-11.1,1.7-16.1c2.6-31.4-2.6-64.1-13.4-93.6c-10.4-28.2-26.3-56.4-49.2-76.4
	c-17.7-15.4-40-25-62.4-32.6c1.2-1.6,1.9-3.7,1.7-6.3c-0.9-14.9-1-29.6-0.4-44.5c10.8,0.7,21.6,2.3,32.6,5.3
	c22,6,48.2,21.6,71.5,18.2c16.7-2.4,27.5-14.6,33.8-30.3c1.1-0.2,2-0.5,3-0.9c5,3.5,10.5,6,16.8,6.9
	C1164.7,561.4,1165,561.4,1165.3,561.4z M534.4,1160.7c0.1-1.3,0.3-2.7,0.5-4.1c1.8,0.2,3.7,0.1,5.9-0.4
	c27.6-6.8,55.3-12.2,82.7-19.8c5.7-1.6,4.3-9.8-1.4-10.1c-28.4-1.6-56.8-0.4-85.3,0.2c-0.3,0-0.5,0.1-0.7,0.1
	c-0.1-5.6-0.2-11.2-0.4-16.8c-0.9-20-2.9-40.1-7.5-59.6c-4.3-18-11.2-40-23.8-54.9c66.1-1.9,131.3,9.6,195.8,24.1
	c33.5,7.5,64.2,17.8,88.6,43.2c2.7,2.8,5.5,5.8,8.2,8.9c-21.7,1-43,3.3-65,5.3c-4,0.4-4,5.9,0,6.2c20.9,1.6,42.2,5,63.2,8.3
	c-25.6,2.6-51.2,5.7-76.7,6.2c-4.8,0.1-4.8,7.3,0,7.5c33.9,1.3,67.7,7.4,101.6,10.4c0,0.4,0.1,0.8,0.1,1.2c-1.1-0.1-2.2-0.1-3.5,0
	c-26.9,2.2-54.7-1.8-81.9-1.1c-28.1,0.7-54.4,6.9-82.1,10.4c-4.4,0.6-4.7,7.3,0,7.2c25.8-0.8,52,3.4,77.8,5.5
	c26.8,2.1,56.2,3,81.6,12.1c1.4,0.5,2.7,0.8,4,1c-0.2,0.8-0.4,1.6-0.6,2.4c-45.8-1-91.3,0.8-137,4.9c-21.9,1.9-43.7,4.5-65.5,7.4
	c-14,1.9-28.1,3.8-42.2,5.2c-4.6,0.5-34.6,5.3-36.8,1.9c-0.1-0.1-0.1-0.3-0.2-0.6C535.8,1169.2,536.2,1164.5,534.4,1160.7z
	 M561.5,965c0-0.1,0-0.1,0-0.2c0.5-0.3,1-0.6,1.5-0.9C562.5,964.2,562,964.6,561.5,965z M829.5,1065.5c-21.2-30-48.8-53.8-83.9-65.8
	c-39.5-13.6-84.7-15-125.9-20.1c-12.5-1.5-25.1-2.9-37.6-4.1c0-1.4-0.2-2.8-0.5-4.1c0-0.3,0-0.7,0.1-1.2c0.2-1.4,0.3-2.8,0.3-4.2
	c0-2.9-0.4-5.8-0.7-8.7c-0.3-2.2-0.6-4.4-1-6.5c5.1,0.3,10.3,0.6,15.5,1.2c32.6,3.6,66,16.7,99,14.8c23.5-1.4,31.1-26.1,34.3-46.9
	c4.5-29.3-10.1-52.4-14.8-80.6c-0.7-3.9-1.3-7.7-2.1-11.3c74-31.9,152-11.1,219.9,25.1c13.8,7.4,27.8,14.8,41.9,21.6
	c-8.2,47-15.1,94.1-20.7,141.4c-6.2,52-15.6,107.1-14.9,159.7c-1.9-0.2-3.9-0.4-5.8-0.6c-28.7-2.8-61.2-8-90.7-4.2
	C853.4,1132.4,853.5,1099.6,829.5,1065.5z M929.1,440.7c13.6-1.6,28.2-0.5,40.8-2.2c20.6-2.7,41.2-6.9,62-5.6
	c36.6,2.3,77.7,26.3,88.5,63c2.5,8.4,3.3,17.6,2.4,26.5c-15.1-1.7-30.2-3.3-45.3-4.7c-18.2-1.7-36.2-6-54-0.1c-3.7,1.2-3.3,7.1,1,7
	c17.9-0.4,41.8,8.8,58.9,13.6c10.5,3,21,6.1,31.5,9.3c-12.8,22-43,5.3-61.7,0.3c-29.6-8-62.2-10.5-92-2.2c0.8-3.9,1.5-7.7,2-11.6
	c2,0.5,4.2,0.6,6.7-0.1c3.3-0.9,6.1-2,8.7-3.7c8.2-1.8,17.9-2.1,24.7-7.3c1.4-1.1,2.4-2.7,1.9-4.6c-2.9-9.8-19.5-10.2-29-10.5
	c-3.8-1.3-7.4-1.3-11.6-0.7c-0.6-10.8-2.8-21.6-7.4-32.1C951.5,461.9,941.8,448.2,929.1,440.7z M994.9,622.7
	c43.4,15.1,76.3,35.8,96.2,78.9c10.7,23.3,16.8,48.6,18,74.1c-32.6-11.8-64.3-21.7-93.6-41.8c-4.1-2.8-8.9,3.5-5.3,6.9
	c13.1,12.2,27.5,24.4,43,34.8c-28.9-11.6-56.3-26.7-85.3-39c-4.7-2-8.4,3.9-4.1,7c28.5,20.1,58.2,40.9,90,56.6
	c-17.3-4.6-34.3-9.8-51.2-15.9c-36.3-13-72.3-29.6-110.4-36.8c-4.6-0.9-6.2,5.3-1.9,6.9c38,14.2,72.8,39.4,109.3,57.4
	c26.8,13.2,53.5,25.6,81.7,34.8c-25-3.8-50.2-8.3-74.3-16c-33.1-10.6-64.5-33.6-94.7-50.8c-2.8-1.6-5.3,2.6-2.5,4.3
	c32.2,19.4,64,39.7,96.2,58.9c5.6,3.3,11.6,6.6,17.8,9.7c-12.9-3.2-25.5-7.3-37.2-12.1c-4.1-1.7-6.2,4.6-2.9,6.8
	c8.5,5.6,16.6,11.1,24.5,16.3c-32.9-13.2-63.6-31.8-96.1-46c-32.6-14.3-66.6-24-102.3-25.1c-30.4-0.9-58.9,5.9-86.8,16.3
	c6.2-9.8,11.8-19.9,16.8-30.3c0.6-0.1,1.2-0.1,1.8-0.3c4.2-1.4,8.1-3.7,12.4-4.9c4.8-1.3,9.4-0.8,14.2-0.2c3.1,0.4,3.4-4.4,0.7-5.2
	c-4.1-1.3-8.1-2.2-12.1-3.6c4.5-0.8,9.1-1.4,13.8-1.4c3.4,0,3.5-4.4,0.7-5.5c-3.8-1.6-7.7-2.9-11.8-4c14.3-2.8,27.2-5.9,42.3-4.2
	c3.6,0.4,4-5.1,0.8-6.1c-7.8-2.5-15.6-5-23.4-7.5c26.8-2.3,53.3-3.1,79.7,4.4c1.6,0.4,2.2-1.9,0.7-2.4
	c-32.9-11.7-60.3-32.6-95.8-32.8c0.1-0.4,0.1-0.9,0.2-1.3c3.5-1.1,6-3.1,9.6-4.9c5.1-2.5,10.2-3.9,15.9-4.2c0.2,0,0.2-0.2,0-0.3
	c-6.1-2.3-12.8-5.6-19.5-7c2.5-1.1,5-2.2,7.9-2.8c8.7-1.9,19.6-5.5,28.5-4.1c3.1,0.5,5.9-4.1,2.4-5.7c-7.3-3.3-14-6.8-21.2-9.3
	c3.2-0.5,6.5-0.9,9.7-1.7c4.6-1.2,8.5-3.4,13.2-4.3c3.2-0.6,2.4-4.8,0-5.7c-5.9-2.3-10.2-6.2-16.6-7.4c-5.7-1.2-11.8-0.8-17.6,0
	c-4,0.5-8,1.3-11.6,2.5c-1.3-7.1-3.2-14-5.9-20.8c-4.8-12.2-15.5-25.6-6.9-39.2c0.2-0.3,0.2-0.5,0.4-0.7
	C834.3,588.9,917.3,595.7,994.9,622.7z M536.9,781.8c23.5,3.3,46.3,10.4,69.8,13.9c20.4,3,46,3.5,64.8,12.4
	c25.6,12.2,20.5,41.4,28.4,64.7c3.6,10.7,8.3,20.2,7.7,31.5c-23.2-5.1-48.8-6.2-72.3-9.2c-22.7-2.9-45.2,1-67.4-1.3
	c-0.8-0.1-0.8,1.2,0,1.2c22.1,0.7,45.9,12.7,66.6,19.4c21.5,6.9,43.4,12,63.5,22.5c-1.4,2.9-2.9,5-4.2,5.6c-1.5,0.7-15.1-2.7-18.1-3
	c-6.4-0.8-12.7-1.9-19-3.2c-11-2.2-21.8-4.7-32.9-6.5c-37.5-6.3-81.7-11-120.2-3.2c0.3-5.7,0.8-11.3,1.2-16.9
	c2.6,1.1,5.5,1.4,8.5,0.7c9.4-2.1,17.7-8.5,27.1-10.2c5.1-0.9,3.5-8.3-1.2-8.6c-4.8-0.3-9.8-2.5-14.5-3.7c-5.1-1.3-9.6-2.7-15-3.2
	c-2-0.2-3.8,0.2-5.5,1c-0.7-5.8-1.6-11.6-2.8-17.3c1.8-4.4,1-10-3-13c-0.9-3.4-1.8-6.7-2.8-10.1c-5.1-17.2-9.8-38.1-22.1-52
	c1.4-1.6,2.3-3.7,2.2-5.8c0-0.5-0.1-0.9-0.1-1.4C492.3,783.6,531.5,781.1,536.9,781.8z M358.6,1048.6c-55.3,0.9-111.5,1.6-166.6,7.1
	c2-9.6,4.6-19.1,7.3-28.5c1.2,0.1,2.4,0,3.8-0.4c14.1-4,26.7-9.3,41.5-11.1c13.1-1.5,26.5-2.3,39.2-5.8c2.7-0.7,2.6-4.6,0-5.4
	c-23.9-7.2-52.6-10.8-76.9-2.9c5.9-20,11.3-40.2,12.8-61.4c2.7-39-3.1-81.4-24.1-115.1c23.6,1.8,46.9,1.1,70.4,6
	c24.7,5.2,48.8,11.6,73.8,15.6c50.2,8.1,100,15.2,149.4,27.6c1.8,0.5,3.5,0.5,5,0.2c3.5,20.5,4.2,44.6-9.3,58.1
	c-6.8,6.8-1.6,18.1,7.6,18.4c22.3,0.8,44.3-0.7,66.5-0.9c0.9,5.2,1.6,10.5,1.4,15.7c-0.3,0.3-0.6,0.6-0.8,1c-1,1.4-1.9,2.9-2.3,4.7
	c-0.2,0.7-0.2,1.3-0.2,1.9c-26.3-1.6-52.7-1.8-79.3,0.5c-3.7,0.3-6.4,2-8.2,4.4c-0.3,0-0.6,0-0.9,0c-11.7,0.2-11.7,18.4,0,18.2
	c15-0.3,24.8,11.3,31.4,25.5c-57.5-18.5-120.8-11.3-180.3-15c-0.2,0-0.2,0.3,0,0.3c32.1,6.1,63.4,15.3,95.4,21.9
	c30.4,6.3,57.5,17.2,86.7,26.9c3.4,1.1,6.4,1.1,9,0.4c0.2,0.7,0.3,1.5,0.5,2.2c0.3,1.4,0.5,2.8,0.8,4.1c-22.5-5.4-44.4-12.2-67.6-14
	C416,1046.8,387.1,1048.2,358.6,1048.6z M402.3,1086.1c-0.2-3.8,0-8.1-0.2-12.3c9.3,0.1,18.6,0.4,27.8,0.8
	c27.4,1.4,50.7,12.3,76.9,18.8c3.5,0.9,6.6,0.6,9.2-0.5c0.7,8.3,1.1,16.7,1.3,25c-36.1-10.9-75.3-17.2-114.7-19.4
	c0-0.3,0.1-0.5,0.1-0.7C403,1094.1,402.4,1090,402.3,1086.1z M398.6,1121.9c40.9,3.7,79.7,12.3,118.9,23.9c0,2.9-0.1,5.8-0.1,8.7
	c-6,0.2-11.8,0.9-17.9,1.7c-11.1,1.5-23.2-1.6-34.2-3.6c-3.1-0.5-4.5,3.9-1.3,4.8c4.8,1.4,9.7,2.5,14.6,3.9
	c-23.4-1.4-46.8-3.1-69.9-4.8c-1.4-0.1-1.7,2.1-0.3,2.4c17.9,4.8,35.2,11.1,53.2,15.6c18,4.4,36.4,6.8,54.4,11.1
	c1.5,0.4,2.9,0.4,4.3,0.3c5.8,7.6,16.6,6.2,25.9,5.9c45.6-1.3,90.8-9.1,136.4-11.2c48-2.2,96.3-0.5,144.1,3.5
	c2.7,0.2,5.3-0.6,7.6-2.1c28.1,8.9,60.7,9.1,89.6,13c35.9,4.8,71.5,11.3,107,18.1c-1.9,5.1-4,10.1-6.2,15.1c-7-1.2-14-1.4-21.3-1.9
	c-13.5-1-26.7-4.1-40.1-5.6c-23.1-2.5-44.2,2.2-66.9-5.8c-0.3-0.1-0.6,0.4-0.2,0.6c18.7,8.3,39.9,12,59.6,17.3
	c19.1,5.1,38,14.8,57.1,20.4c-0.4,0.8-0.8,1.7-1.2,2.5c-54.4-6.8-109.1-10.9-163.4-19.1c-0.6-0.1-0.8,0.7-0.2,0.9
	c51.1,20.6,107.3,36.7,162.9,39.6c2.2,2.5,5.4,4.1,9.5,3.9c40.5-1.9,78.4-25.3,118.1-33.7c20.2-4.3,40.6-7,61.2-9.1
	c3.6,12.6,9.3,23.1,16.5,32c-25.5-1.1-51-1.8-76.5-2.7c-1.4-0.1-1.7,2.1-0.3,2.4c36.2,9.1,71.6,20.1,107.3,31.1
	c2.8,0.9,5.2,0.9,7.5,0.4c0.2,0.1,0.3,0.2,0.5,0.3c-26.2,0.1-52.5,0.8-78.1-2.6c-3.6-0.5-4.5,5.7-0.9,6.4
	c45.7,9.6,92.4,29.2,139.8,29.5c17.2,8.8,34.8,16.9,52.8,24c-80.7-11.1-160.9-28.4-241-42.2c-185.5-32-370.7-65.2-554.5-105.6
	c-49.8-11-99.6-22-150.1-29.7c-45-6.8-95.2-15.3-140.2-5.3c2.9-20.4,6.1-40.6,9.6-60.4C327,1121.4,363.3,1118.7,398.6,1121.9z
	 M1565.2,1437c-4.5,4.5-8.9,9.1-13.3,13.7c-2.1-2.9-5.3-5.1-9.8-6.3c-80.3-21.1-163.4-28.2-245.7-36.8c-86.1-9-171.8-18.5-257-34.4
	c-171.5-32-340.8-74.8-512.1-107.9c-2.5-0.5-3.6,3.2-1.1,3.9c167.5,46.8,336.5,91.2,506.5,128.1c163.1,35.4,330.1,44.3,492.9,81
	c-9.3,10-18.6,20.1-27.9,30.2c-2.6-2.1-5.9-3.6-9.9-4c-165.4-17.4-330.1-31.1-493.5-63.4c-158.4-31.3-311.6-76.3-465-126.2
	c-1.3-0.4-2.3,1.7-1,2.3c296.8,130.8,621.3,188.5,942.3,221.1c-8.6,9.5-17.2,19-25.8,28.4c-0.6-0.3-1.2-0.6-1.9-0.9
	c-35.3-12.8-80.5-9.6-117.8-13c-37.6-3.4-75.1-7.6-112.6-12.4c-78-10.1-155.5-22.9-233.1-34.8c-74-11.3-143.8-26.7-213.1-55.5
	c-32.8-13.7-65.5-24-100.3-31.1c-36.8-7.5-73.6-13.9-108.8-27.6c-4.2-1.6-5.8,4.9-1.8,6.6c34.8,14.5,71.4,22,107.9,30.7
	c36.8,8.8,71,21.1,105.5,36.4c68.4,30.4,139.1,50.4,212.1,66.3c76.6,16.7,154.1,30,231.5,42.3c38.7,6.1,77.5,12.1,116.3,17.5
	c26.3,3.7,55.3,10.3,83.2,11.2c-14.6,15.7-29.3,31.6-44.7,46.6c-0.1,0-0.1,0-0.1-0.1c-271.3-73.1-554.3-92.7-824-171.1
	c-6.4-1.9-9.1,8-2.7,9.9c262.2,78.2,534.2,114.5,797.3,188.2c-14.9,12.5-30.6,23.9-47.5,33.6c-2.6-1.5-5.8-2.2-9.7-1.7
	c-58.2,7.4-117.4-15.4-174.4-24.2c-59.8-9.2-120.2-14.7-179.7-25.8c-115.6-21.7-226.5-64-342.8-82.5c-4.3-0.7-6.2,5.8-1.8,6.6
	c118.6,22.2,230,70.8,348.3,94.2c59.3,11.7,119.4,18.1,178.9,28.7c30,5.3,60.9,10.8,89.7,21c9.8,3.4,19.1,7,28.2,10
	c-44,12.4-90.9,15.5-136.3,13.8c-71.1-2.7-140.8-18.4-210.6-30.9c-68.3-12.3-136.6-17.8-205.7-23c-117.2-8.7-243-27.9-321.2-121.6
	c5.6,1,11.2,1.9,16.8,2.6c16.7,2.1,32.1,6.7,48.5,10.3c0.6,0.1,0.8-0.8,0.2-0.9c-28.9-7.3-55.9-20.4-81.3-35.9c-1-0.6-1.9-1-2.8-1.2
	c-3.5-5.3-6.8-10.6-9.9-16c22.4,4.8,44.8,9.1,67.2,14.6c29.2,7.2,58.5,14.1,87.8,21c5.9,1.4,8.3-7.3,2.5-9
	c-28.8-8.6-57.5-17.8-86-27.4c-28.9-9.7-56.2-21.7-84.5-33c-1.6-0.6-3.2-0.9-4.6-0.9c-3-6.7-5.7-13.5-8.2-20.4
	c34.6,3.2,68.9,12.9,102.4,22c2.3,0.6,3.3-2.9,1-3.6c-35.1-11.1-71.2-22.1-103.5-39.9c-0.4-0.2-0.7-0.3-1.1-0.4
	c61.3,8.9,123.2,14.7,184.6,24c3.3,0.5,4.8-4.4,1.4-5.1c-32-6.8-63.9-14.5-95.8-22c-32-7.6-62.7-18.9-94.4-27.2
	c-3.7-1-6.9-0.5-9.6,0.7c-1.8-8.2-3.4-16.5-4.8-24.8c9.4,3.5,18.1,7.4,28.4,9.1c13.1,2.2,26.5,3.1,39.7,4.9
	c25.6,3.6,51.1,5.2,76.8,7.6c3.8,0.3,4.3-5.4,0.9-6.4c-25.5-7.4-50.5-15.4-76.3-21.5c-23.9-5.7-44.2-16.6-67.1-24.2
	c-2.3-0.8-4.5-1-6.4-0.7c-0.4-4.1-0.8-8.2-1.1-12.3c29.1,11,62.8,13.3,93.2,17.2c41.2,5.3,82.5,10.1,123.9,13.8
	c1.2,0.1,1.5-1.9,0.3-2.1c-70.2-14.9-147.4-23.5-211.1-58.3c-2.7-1.5-5.4-2-7.9-1.8c-0.1-4.7-0.2-9.3-0.2-14c0,0,0,0,0,0
	c34.9,5.5,70.9,6.8,105.4,14.2c3.1,0.7,4.5-4,1.3-4.8c-34-8.7-66.4-23.5-100-34c-2.4-0.8-4.5-0.7-6.5-0.2c0.1-3.8,0.2-7.6,0.4-11.5
	c0.8,0.2,1.6,0.3,2.5,0.4c25.1,1.6,47.3,11.2,71.9,15.2c29.6,4.8,59.4,8,89,12.4c4.6,0.7,6.8-5.9,2-7.2c-30-8.2-59.8-17.2-89.9-25.3
	c-23.9-6.5-44.9-17.3-69.4-22c-1.6-0.3-3.1-0.3-4.5-0.2c0.6-7.7,1.3-15.4,2-23c0.2,0,0.4,0.1,0.7,0.2c18.8,2.9,37.9,5.4,56.9,6.2
	c20.8,0.8,40.4-1.4,61.3,0.7c1.7,0.2,2.1-2.7,0.4-3.1c-37.5-8-72.9-24.1-110.7-32.4c-1.9-0.4-3.7-0.4-5.3-0.2c0.6-5,1.3-10,1.9-15
	c42.1,7.7,85.8,7.4,128.2,13.8c43.4,6.5,86.3,15.8,129.1,25.5c89.5,20.1,179.1,39.1,269.2,56.6c176.3,34.3,352.3,71.1,529.2,102.6
	c45.4,8.1,90.8,13.8,136.9,16.8c37.1,2.4,76.8,5.4,108.4,25.9C1576.4,1427.5,1570.5,1431.5,1565.2,1437z M1635.1,1366
	c14.7-0.6,29.5-2.6,44.2-2.8c8.2-0.1,15.4,1.8,22.4,4.4c-19,15.8-40.2,28.9-63.3,37.9c-7.3,2.8-14.6,4.9-21.9,7
	c-0.1-0.1-0.1-0.1-0.2-0.2c-17.8-15.4-37.9-25.1-59.1-31.4c22.8-3.5,47-9.1,69.1-18.2C1628.2,1364.8,1631.1,1366.2,1635.1,1366z
	 M1690.7,1252c-4.9,2.2-10.9,2-16.1,1.8c-12.2-0.3-24.3-1.8-36.3-4c-3.6-0.7-4.8,4.1-1.5,5.4c11.6,4.6,23.7,10.2,36.2,12.1
	c-34.8,5.5-74.7,0.3-104.7-15.9c-3.4-1.8-6.1,3-3,5.1c18,12.3,43.7,26.5,69.9,33.7c-1.1,0.1-2.2,0.2-3.2,0.3
	c-14.5,0.8-29.1,0-43.5-1.3c-26.6-2.4-61.9-2.1-85.4-15.1c-4.3-2.3-7.7,3.8-3.8,6.5c26.4,17.8,55.1,25.9,86,32.2
	c2.9,0.6,6,1.2,9.2,1.8c-16.2,0.1-32.9-1.7-48.8-3.4c-36.1-3.8-78-9.2-108.3-30.5c-2.2-1.5-4.7,1.9-2.8,3.7
	c28.7,27,59.1,43.1,97.2,50.8c-11.5-0.2-22.9-1-34.3-2.4c-40.8-5-80.6-17.3-117.1-36c-2-1-3.5,1.7-1.7,3
	c35.2,24.1,73.4,42.3,114.9,52.5c2.9,0.7,6,1.4,9,2.1c-14.1-0.3-28.1-1.4-42-3.6c-43.5-6.8-84.5-22.5-123.6-42.5
	c-20.2-10.3-39.9-21.6-59.6-33c-18.2-10.6-34-20.5-41.7-39.8c8.6-0.6,17.3-1.1,25.9-1.6c7.1-0.4,14.2-0.8,21.4-1.2
	c0.6,0.4,1.4,0.7,2.3,0.7c11.1-0.2,22.1-1.3,32.9-2.9c2.5-0.2,5.1-0.3,7.6-0.5c14.3-1.1,31.4-0.3,44.7-5.9c6.1-2.5,10.6-7.2,14.2-13
	c31.7-13.8,61-33.4,87.1-56.8c29.6-26.5,62.8-51.8,89.2-81.6c9.3-10.5,14-22.1,20.9-34c4.5-7.7-1.8-5.8,10.8-8.9
	c10.4-2.6,8.9-2.3,15.2,4.8c8,8.9,15.4,18.5,22.4,28.2C1667.8,1115,1701,1185.8,1690.7,1252z"/>
</svg>
