<?xml version="1.0" encoding="utf-8"?>
<!-- Generator: Adobe Illustrator 22.0.1, SVG Export Plug-In . SVG Version: 6.00 Build 0)  -->
<svg version="1.1" id="Layer_1" xmlns="http://www.w3.org/2000/svg" xmlns:xlink="http://www.w3.org/1999/xlink" x="0px" y="0px"
	 viewBox="0 0 2000 2000" style="enable-background:new 0 0 2000 2000;" xml:space="preserve">
<style type="text/css">
	.st0{fill:none;}
</style>
<g>
	<path class="st0" d="M1003.6,1416.6c0.1,4.4,0.3,8.7,0.6,13.1c0.3,4.9,0.2,10.5,1.1,15.6c10.9,0.5,21.8,0.9,32.7,1
		c0.2-9.5,1.2-19,2.3-28.4C1027.9,1417.7,1015.7,1417.3,1003.6,1416.6z"/>
	<path class="st0" d="M1082.9,1418.5c-10.4,0-20.8,0-31.1-0.2c1,9.4,2.1,18.8,2.8,28.3c8.9,0,17.9-0.1,26.8-0.3
		c0.2-2.7,0.5-5.4,0.6-7.9C1082.3,1431.8,1082.6,1425.1,1082.9,1418.5z"/>
	<path class="st0" d="M1266.7,1408.3c-7.7,0.8-15.4,1.5-23.1,2.2c0.7,8,2.3,16.2,5.5,23c6.2-0.8,12.3-1.5,18.5-2.3
		C1266.9,1423.6,1266.6,1415.9,1266.7,1408.3z"/>
	<path class="st0" d="M1179.3,1415.4c-9.5,0.6-18.9,1.1-28.4,1.5c0.5,2.9,0.9,5.5,1,6.7c0.4,3.6,0.7,7.2,1,10.9
		c0.1,1.6-0.2,5.4,0.3,6.8c0.4,0.5,0.6,1.1,0.9,1.7c9.1-0.7,18.1-1.4,27.2-2.2c-0.6-2.7-1-5.5-1.3-8.2
		C1179.4,1426.8,1179.3,1421.1,1179.3,1415.4z"/>
	<path class="st0" d="M1231.5,1411.6c-12.9,1.1-25.9,2.1-38.9,2.9c0.3,2.8,0.6,5.7,1.1,8.5c0.6,3.5,1.4,6.9,2.4,10.3
		c0.3,1,0.6,1.9,0.9,2.9c0.4,1,0.6,1.6,0.8,2.1c0.4,0.2,0.7,0.4,1,0.7c11.5-1.1,23-2.3,34.5-3.7c-1.1-3.7-1.4-7.6-1.7-11.5
		C1231.4,1419.8,1231.4,1415.7,1231.5,1411.6z"/>
	<path class="st0" d="M990.6,1415.9c-7.7-0.5-15.4-1-23.1-1.7c-5.1-0.4-10.1-1-15.1-1.7c0.2,9.6,0.1,19.3-0.1,28.9
		c7.5,0.8,14.9,1.5,22.4,2.1c4.9,0.4,9.8,0.7,14.7,1C988.5,1435.3,989.6,1425.1,990.6,1415.9z"/>
	<path class="st0" d="M1457,1241.8c-1.4,12.9-3,25.8-5.1,38.8c-0.1,0.6-0.3,1-0.4,1.5c0.6,22.7,12.3,41.9,22.8,61.6
		c7.5-10.5,13.5-21.8,18.4-34c-0.1-0.2-0.3-0.4-0.4-0.6C1481.4,1286.2,1468,1264.6,1457,1241.8z"/>
	<path class="st0" d="M913.2,1401.4c-1.5-0.8-3-1.6-4.5-2.4c-0.2,12.3,0.2,24.6,0.2,36.9c8.9,1.4,17.9,2.6,26.8,3.7
		c0.8-9.8,1.7-19.7,3-29.5C930,1408.2,921.4,1405.4,913.2,1401.4z"/>
	<path class="st0" d="M718,1295.8c-9-7.2-18.2-14.2-27.6-20.9c1.8,32.2-10.5,66.4-15.8,97.8c-0.2,1-0.5,1.8-0.9,2.6
		c8.5,5.9,18,10.8,28,14.8c0-0.4,0-0.8,0.1-1.2C706.6,1357.8,711.5,1326.6,718,1295.8z"/>
	<path class="st0" d="M782.2,1343.3c-5.1-2.1-9.7-4.6-14.2-7.3c-2.7,22.8-4.8,48.1-12.3,69.6c13.4,2.8,26.7,5.3,39.2,7.8
		c5.2-20.6,5.5-42,10.3-62.7C797.4,1348.7,789.7,1346.4,782.2,1343.3z"/>
	<path class="st0" d="M729.2,1305c-0.4-0.3-0.8-0.6-1.2-0.9c-3.5,28.9-7.4,57.8-10.8,86.8c0.1,1.8-0.4,3.3-1.3,4.5
		c8,2.6,16.2,4.9,24.5,6.9c2.4-24,11.7-49.3,18.7-72.1C748.8,1322.6,739.4,1313.8,729.2,1305z"/>
	<path class="st0" d="M864.6,1371.4c-1.3,18.6-3.7,37.1-7,55.4c12.1,2.4,24.2,4.6,36.3,6.6c0.1-13.6,2-27.1,4.4-40.5
		C886.8,1385.9,876.1,1378.1,864.6,1371.4z"/>
	<path class="st0" d="M853.1,1365.3c-4.5-2.1-9.1-4.1-14.1-5.7c-7.6-2.4-15.3-4.3-23-6.2c-3.5,21-2.1,42.3-6,63.2
		c10.9,2.5,21.9,4.8,32.8,7.1c4.5-19,7.9-38.1,10-57.6C852.9,1365.9,853.1,1365.6,853.1,1365.3z"/>
	<path class="st0" d="M596.8,1027.8c-2.6-4.5,3.4-9,7.1-5.5c13.3,12.8,29.5,24.6,47.3,30.3c0.5,0.1,0.9,0.2,1.4,0.4
		c-5.9-5.3-11.1-10.6-15.4-14.7c-17.9-17-31.6-37.8-40.9-60.7c-2.2-5.5,6.6-8.8,9.4-3.9c9.1,16.1,20.9,29.7,34.4,41.8
		c-15.5-28.9-27.1-59.3-37.8-90.9c-1.8-5.3,6.4-8.7,9-3.8c14.2,27.2,28.3,57,46.8,82.4c-1.3-2.8-2.5-5.7-3.6-8.6
		c-18.5-47.1-36-90.1-41.2-140.9c-0.4-3.5,5.2-4.1,6-0.8c11.9,45.1,33.7,97.9,60,136.5c10.6,15.5,24.3,28.6,39,40.8
		c-18.2-30.3-34.1-61.9-47.8-94.5c-19.9-47.2-39-101.3-30.1-153.3c6.4-37.8,32.7-59.7,62.3-78.9c-75.3,11.6-147.3,31.6-221.1,52
		c-0.8,1-2,1.6-3.5,1.4c-0.3,0-0.7-0.1-1-0.1c-0.1,0-0.2,0.1-0.3,0.1c-1.3,0.4-2.4,0.1-3.2-0.5c-44.9-5.4-91.3-2.1-127,28.8
		c-30.8,26.7-48.3,64-54.4,103.9c-11.2,73.1,11.3,150.8,50.8,213.4c1.1-6.3,2.8-12.5,5.2-18.3c-3-0.6-5.8-2.3-7.5-5.4
		c-29.7-53-41.4-124.1-27.9-183.3c0-0.1,0.2-0.1,0.2,0c-4.2,32.2,0.7,64.2,11.9,94.6c9.5,25.8,24.4,48.4,35.5,73.1
		c0.9-1.2,1.9-2.4,2.9-3.5c0,0-0.1-0.1-0.1-0.1c-22.8-40.7-33.8-90.9-29.4-137.2c0.1-1.3,1.9-1.3,2,0c2.7,28.8,8.5,55.9,23.3,81.2
		c8,13.5,17.9,25.4,23.4,39.9c0.9-0.6,1.9-1.2,2.8-1.7c-16-25.4-15.5-56.5-23.5-84.7c-0.5-1.8,2.3-3.1,3.1-1.3
		c11,25.7,18.7,52.8,36.8,74.7c0.9,1,1.4,2.1,1.9,3.2c2.3-0.8,4.5-1.4,6.9-2.1c-4.4-6.6-7.1-14.4-9.4-22
		c-4.5-14.8-8.7-29.8-12.6-44.7c-0.8-3,3.5-4.1,4.6-1.3c4.9,12.7,10.2,24.9,17,36.7c5.5,9.5,10.4,20.2,18.5,27.7
		c3.1-0.4,6.2-0.7,9.3-0.9c-2.5-3.6-4.5-7.9-6.4-10.8c-5.4-7.9-8.9-16.3-10.5-25.8c-0.3-1.6,1.8-2.2,2.4-0.7
		c3.7,9.2,11.1,16.6,17.4,24.1c2.8,3.4,8,7.9,9.3,12.7c5.8,0,11.6,0.1,17.4,0.5c0,0-0.1-0.1-0.1-0.1c-4.7-5.6-9.9-11-13.5-17.4
		c-0.9-1.5,1.4-2.8,2.4-1.4c4.2,6.4,9.5,10.7,15.5,15.3c1.7,1.3,3.3,2.8,4.9,4.3c21.6,2.1,43.1,6.2,63,9.7
		c26.2,4.6,52.2,10.3,77.9,17C609.6,1046.5,602.6,1037.8,596.8,1027.8z"/>
	<path class="st0" d="M1039.4,1287.8c1.8-40.2,3.9-80.4,5.2-120.7c-33.8,1.2-67.6,4.1-101.1,9c-56.1,8.1-116.2,24.3-150.7,69.3
		c-28.6-36.1-48.6-78.9-58.4-123.9c-37.5-17-76.4-31.1-115.9-42.6c-13.3-3.9-31.6-9.2-52.1-14.3c1.9,37.6,5,75.5,4.1,113.1
		c42.9,27.7,85.7,55.5,128.1,84c36.2,24.3,65.4,59.5,108.1,71.9c19.1,5.5,38.7,8.2,57.1,16c18.4,7.9,33,21.2,50.2,31
		c37,21,84.8,14.2,126.9,10.6C1031.7,1358.5,1037.9,1321.4,1039.4,1287.8z"/>
	<path class="st0" d="M1657,1009.2c-2.6,30.9-8.3,61.9-10.1,92.9c0.3-0.1,0.6-0.1,0.9-0.1c7.2-35.5,15.1-70.9,22.8-106.3
		C1666.2,1000.3,1661.6,1004.8,1657,1009.2z"/>
	<path class="st0" d="M684.6,1270.9c-10.3-7.1-20.7-14.1-31.2-20.8c-3.9,31.3-8.2,62.3-13.6,93.5c5.7,6.4,11.7,12.6,18,18.5
		c4.5-30.6,15.6-62.3,26.6-90.7C684.4,1271.1,684.5,1271,684.6,1270.9z"/>
	<path class="st0" d="M1309.4,916.6c10.5,6.7,22.1,13.9,34.9,10.8c0.4-0.1,0.8-0.3,1.2-0.4c-8.9-6.9-15.5-16.5-18.2-30
		c-1.1-5.4,6.7-9.4,9.4-3.9c6.5,13.5,20.4,19.2,35,21.6c-5.7-8.9-8.5-19.3-11.2-29.5c-0.8-3.1,3.5-6.2,5.8-3.4
		c6.2,7.7,12.7,16.4,20.4,22.7c1.4,1.1,2.8,2,4.2,2.8c-15-21.5-17.8-46.9-13.8-72.6c0.6-3.8,6.4-2.7,6.4,0.9
		c0.4,24.2,8.9,49.1,30.9,61.8c3.8,2.2,7.8,3.7,11.9,5c-3.2-3.8-6-7.7-8.4-11.5c-20.4-32-17.8-70-13-105.8
		c0.8-5.8,10.2-4.3,10.1,1.4c-0.8,27.1,5.2,54,20.9,76.5c4.1,5.8,13.7,17.2,24,25.4c-7.7-10.4-13.8-21.9-17.5-33.7
		c-11.1-36.2-0.9-87.1,7.9-123.4c0.4-1.6,2.6-0.9,2.4,0.7c-5.6,35.4-2.9,80.3,15,112.1c6.4,11.3,15,19.8,24.6,27.2
		c-17.9-35.9-19.3-79.5-9.9-118.9c0.6-2.6,4.3-1.5,3.9,1.1c-5.9,37.4,6,69.8,26.8,97.4c-2.3-37.6,3.4-78.1,5.2-115.8
		c0.2-4.2,6.6-4.2,6.5,0c-0.7,32.9,1.1,61.8,12,93.2c3.1,9,6.1,19.1,10.5,28.1c0.1-2.2,0.1-4.3,0-6.4c-0.9-26-4.8-51.7-5.3-77.7
		c-1-52.2,17.4-101.7,31.6-151.3c0.3-1.2,0.8-2.2,1.3-3.3c-42.5-17.5-96.4,2.7-132.2,26.7c-36.5,24.5-69.1,56.2-95.6,91.2
		c-53,69.9-93.8,165.1-71.2,253c17.5-18.2,37.3-31.8,58.7-42.1c-12.6-3.4-22.9-11.3-32.5-20.2C1297.3,921.3,1303.7,913,1309.4,916.6
		z"/>
	<path class="st0" d="M1430.5,1156.8c0.5-3.1,1.3-5.9,2.4-8.6c0.1-64.7,5.3-129.4,7.9-193.9c-61.2,11.2-119.5,32.2-154.5,83.6
		c-2.2,3.3-5,5.6-8,7.2c31,56.2,62,112.4,93,168.5c-94.8-31.3-194.7-47.2-294.6-47.2c1.3,40.5,3.4,80.9,5.2,121.3
		c1.5,32.7,7.4,68.6-0.7,100.6c40.1-2.5,80.2-5.2,120.2-8.7c46.3-4.1,96.1-6.1,140.7-19.7c42.2-12.9,67.1-44.6,75.2-86.2
		c0-0.9,0-1.7,0.2-2.6C1424.2,1233.2,1424.7,1194.6,1430.5,1156.8z"/>
	<path class="st0" d="M1646.7,1018.7c-8.6,7.7-17.5,15.1-26.5,22.3c-1,22.9-0.9,45.8,0.1,68.7c3.6-1.3,7.2-2.6,10.9-3.7
		c0.5-12.1,3.7-24.3,5.7-36.3C1639.9,1052.7,1643,1035.6,1646.7,1018.7z"/>
	<path class="st0" d="M1396.1,1376.4c-6.9,4.6-14.2,8.5-21.7,11.7c0.7,2,1.3,3.9,2.1,5.8c1.2,2.8,2.5,5.5,3.8,8.2
		c0.3,0.5,2,3.8,2.8,5.7c6.2-2.2,12.2-4.6,18.2-7.2c-0.5-1.9-1-3.8-1.5-5.7C1398.1,1388.8,1397,1382.6,1396.1,1376.4z"/>
	<path class="st0" d="M1311.8,1403.3c-5.3,0.7-10.6,1.3-15.9,1.9c-4.7,0.5-9.5,1-14.3,1.5c0.3,7.4,1.3,14.8,2.7,22.2
		c2.8-0.4,5.6-0.7,8.4-1.1c7.2-1,14.4-2.1,21.6-3.3C1312.6,1417.4,1311.6,1410.4,1311.8,1403.3z"/>
	<path class="st0" d="M1362,1392.7c-12.3,4.1-25.1,6.8-38.1,8.8c0.5,3.3,1.3,6.6,2.3,10c1,3.2,1.9,6.9,3.2,10.4
		c12.8-2.4,25.4-5.3,37.9-9c-1.2-3.5-2-7.2-2.8-10.1C1363.5,1399.5,1362.7,1396.1,1362,1392.7z"/>
	<path class="st0" d="M1430.4,1341.7c-5.2,8-11.6,15.5-18.9,22.5c-1.6,1.5-3.2,2.9-4.8,4.3c1.2,4.3,2.5,8.6,4,12.7
		c0.9,2.4,2.5,7.9,4.4,12.7c6.3-3.4,12.5-7,18.5-11.1c4-2.7,7.7-5.5,11.4-8.4c-5.8-7.9-10-16.6-12.7-26.1
		C1431.7,1346.2,1431,1344,1430.4,1341.7z"/>
	<path class="st0" d="M1438.6,1326.9c0.5,6.2,5.8,15.8,7.9,20.5c2.5,5.8,5.5,11.2,9.3,16.1c0.3,0.1,0.7,0.3,1,0.4c2-2,4-4,5.9-6
		c-7.9-13.1-15-27.8-19.4-42.9C1441.9,1319.1,1440.3,1323,1438.6,1326.9z"/>
	<path class="st0" d="M1124.8,231.4c-78.9,18-162.7,67.4-220.9,123.2c-45.2,43.3-77.8,101.5-78.5,161.9
		c35.1-79.3,89.5-162.8,169.6-200.4c8-3.8,15.1,7.9,7,12c-38.5,19.8-73,47.3-94.4,85.3c-9.6,17.2-17.9,35.1-25.3,53.3
		c12-16.9,24.4-33.4,36.9-49.8c22.3-29.2,48.5-59.7,82.6-75.2c3-1.3,6.5,2.3,3.7,4.8c-31.1,27.5-57,55.6-78.1,91.8
		c-5.8,9.9-11,20.1-16.1,30.4c26.3-36,56.4-71.4,96.3-88.4c4.1-1.7,7.3,3.4,3.5,6c-31.3,21.3-50,50.7-68.1,81.1
		c7.8-9.3,18.1-17.5,25.7-24.7c14.4-13.8,28.9-28.8,46.6-38.3c3.5-1.9,8.6,2.2,5.9,5.9c-11.1,15.3-25.1,28.1-36.9,42.9
		c6-5.1,12.4-9.8,17.7-14.2c11.1-9.4,20.3-17.5,35.2-19.5c5.8-0.8,9.5,6.3,4.1,9.7c-11.3,7.3-21.6,18.3-31.6,27.4
		c-0.1,0.1-0.3,0.3-0.4,0.4c18-1.8,35.7-2,52.7-0.6c13.5,1.1,28,2.9,41,6.6c16,4.7,13.5,8.9,30.6,1.7c10.3-4.4,15.6-6.6,16-18.5
		c0.6-17.4-13.7-34.1-19.9-49.4c-4.5-11.2-6.6-23-8.1-34.9c-3-23.9-8.4-55.5-0.5-78.9c2.9-8.6,8.3-15.7,15-21.6
		c6.6-5.8,19.7-10,26.4-16.9c-11.3-5.4-22.2-9.1-35-10.3C1125.5,234.1,1124.7,232.7,1124.8,231.4z"/>
	<path class="st0" d="M1137.5,1423.6c0-1.8-0.1-3.9-0.3-6.2c-13.3,0.5-26.6,0.8-39.8,1c0.2,4.8,0.3,9.5,0.5,14.3
		c0.3,4.4,0.5,8.8,0.8,13.2c13-0.4,25.9-1.1,38.8-1.8C1136.3,1437.4,1137.4,1429.4,1137.5,1423.6z"/>
	<path class="st0" d="M1460.2,1194.3c-0.2,7.7-0.6,15.3-1.1,22.9c10.5,26,26.3,49.3,39.9,73.8c1.9-6.7,3.6-13.6,5.1-20.8
		c0.7-3.3,1.3-6.6,2-9.9c-12.7-21.6-27.1-43.3-36.7-66.6C1466.5,1194.5,1463.4,1194.7,1460.2,1194.3z"/>
	<path class="st0" d="M1540,1136.2c-3.5-10.6-6.3-21.2-7.2-32.1c-2.3,1.6-4.6,3.2-6.8,4.7c-6.6,4.6-13.2,9.2-19.9,13.9
		c0,0.1,0,0.1,0,0.2c0.6,15.9,6.5,30.3,13.4,44.5c3.1,6.3,7.5,12.5,10.9,19c5.4-10,11.8-19.5,19.7-28.6
		C1544.5,1152.5,1542.4,1143.5,1540,1136.2z"/>
	<path class="st0" d="M644.6,1244.4c-11.5-7.3-22.9-14.5-34.3-21.7c-3.3,14.3-6.9,28.6-10.7,42.8c-1.8,6.7-2.8,15.6-5.2,23.3
		c10.7,12.6,20.9,25.6,31.4,38.4c6-27.4,12.3-54.8,18.5-82.2C644.4,1244.8,644.6,1244.6,644.6,1244.4z"/>
	<path class="st0" d="M1570.6,1077.8c-8.1,5.7-16.3,11.4-24.5,17c0.1,9.9,1.9,19.2,4.9,28.7c1.6,5.1,3.4,10.3,5.3,15.3
		c0.6,1.7,4.5,8,2.4,8c0.6,0,1.1,0.1,1.6,0.2c4.4-4.2,9.1-8.1,13.9-11.9c-1.9-5.9-2.7-12.4-3.4-17.7
		C1569.2,1104.3,1569.8,1091,1570.6,1077.8z"/>
	<path class="st0" d="M1494.1,1131.4c-2.5,1.8-5,3.5-7.4,5.3c-0.2,10.9-0.5,21.8-1.2,32.7c-0.4,7-2.2,12.3-4.8,16.2
		c7.8,18.6,19.2,36.2,30.4,53.1c3.3-12.9,7.2-25.3,12.2-37.3c-9-8.9-14.1-23.1-18.9-34.3C1499.4,1155.4,1495.5,1143.8,1494.1,1131.4
		z"/>
	<path class="st0" d="M1607.3,1051.1c-8.4,6.4-16.9,12.6-25.5,18.7c0.4,0.7,0.6,1.6,0.6,2.6c0.5,16.4,0.1,36.6,5.5,53.3
		c5.9-3.7,11.9-7.1,18.2-10.1C1605.4,1094.1,1605.9,1072.6,1607.3,1051.1z"/>
	<path class="st0" d="M450.9,1118.2c-3.6,16.3-7.3,32.6-10.6,48.9c6.9,4.5,13.7,9,20.5,13.5c1.6-16.9,5.1-33.9,8.1-50.6
		C462.9,1126.1,456.9,1122.2,450.9,1118.2z"/>
	<path class="st0" d="M499,1149.8c-6.8-4.5-13.6-8.9-20.4-13.4c-1.2,17.4-1.8,35.1-4.5,52.3c0,0.3-0.2,0.4-0.3,0.7
		c4.8,3.2,9.5,6.4,14.3,9.7c1-8.3,3.5-16.7,5-24.5C494.7,1166.2,496.2,1157.8,499,1149.8z"/>
	<path class="st0" d="M509.1,1156.5c-3.9,16.9-2.4,35.4-7.9,51.7c5.3,3.7,10.5,7.5,15.7,11.3c4.2-16.4,9.5-32.6,13.4-49.1
		C523.3,1165.8,516.2,1161.2,509.1,1156.5z"/>
	<path class="st0" d="M537.6,1204.2c-1.5,9-3.3,18-5.6,26.7c6.9,5.3,13.7,10.8,20.4,16.4c3.3-15.5,9.4-30.8,13.8-46.2
		C559.7,1210.3,545.8,1211.3,537.6,1204.2z"/>
	<path class="st0" d="M587.6,1252.4c3.9-12.2,7.8-24.4,12.1-36.5c-4.4-2.8-8.9-5.7-13.2-8.5c-2.9-1.9-5.7-3.8-8.6-5.6
		c-1.7,19.4-7.1,37.4-11.1,56.8c-0.1,0.4-0.2,0.7-0.3,1c5.1,4.6,10,9.5,14.7,14.4c0.3-1.4,0.6-2.6,0.8-3.5
		C583.8,1264.4,585.7,1258.4,587.6,1252.4z"/>
	<path class="st0" d="M607.7,629.7c-1-21.6-2.7-39.7,5.8-61.7c9.2-23.7,23.1-45.2,25.4-70.8c-20.3-18.9-58.8-20.1-85.5-18.3
		c-29.8,2.1-62.2,14-84.7,33.9c-21.9,19.3-33.6,46.7-34.9,75.5c-0.5,11,0.5,24.5,3.2,38c0.6-26.3,10.3-52,28.1-72.1
		c2.2-2.5,6.3,0.1,5.5,3.2c-5.4,18.8-10,29.7-5.3,50c0,0.1,0.1,0.3,0.1,0.4c2.8-9.3,8-17.9,11.9-26.8c1.1-2.6,5.3-0.7,4.5,1.9
		c-4.5,14.5,2.5,29.1,9.1,42.9c0.1-2.6,0.2-5.1,0.1-7.7c-0.2-7.3,1.9-13.4,3.3-20.5c0.6-3.1,5.1-2.7,5.9,0c1.7,5.3,4.7,9.5,6.7,14.6
		c1.7,4.3,3.8,8,6.7,11.6c1.3,1.6,2.3,3.4,2.9,5.3C548.2,619.1,576.8,623.7,607.7,629.7z"/>
	<path class="st0" d="M441.2,1243.2c10,8.9,25.9,13.5,37,22c10.3,7.9,19.6,16.9,27.9,26.9c28.9,34.8,38.1,76.5,42.6,119.5
		c3.4,0.8,6.9,2.3,10.4,5c58.3,45.6,122.7,74.1,194.1,92.3c75,19.1,149,36.7,226.6,41.9c3.9,0.3,4,6.3,0,6.1
		c-79-3.9-159-16.9-236.9-30.2c-67.1-11.5-132.1-27.7-190-62.6c0.7,13,1.3,26.2,2.2,39.4c2.3,0.8,4.5,2.3,6.4,4.7
		c18.1,22.7,55.3,40.7,81,53.7c29.7,15.1,62.4,24.2,94,34.5c64.2,21,131.6,25.9,198.8,27.8c2.9,0.1,2.9,4.6,0,4.5
		c-70.5-1.8-142.6-8.2-212-21.4c-36.6-7-72.1-20-107-32.8c-17.9-6.6-38.4-14.4-56-25.1c3.3,18.4,8.3,36.3,16.5,53.2
		c25.8,53.3,81.1,78.5,136.3,90.1c66.3,13.9,135.4,12.3,202.7,9.3c66.3-3,132.6-7.6,198.7-13.1c131.4-10.9,264.9-28.9,385.7-84.9
		c27.9-12.9,48.4-30.8,63.9-51.9c-67.3,40.6-147.7,55.9-225.3,69.4c-52.5,9.2-104.6,16.6-158,14.7c-57.6-2.1-115.3-11.6-172.9-9.2
		c-3.7,0.2-3.7-5.5,0-5.7c50.5-3.2,100.3,6.3,150.7,4.7c54-1.8,109.7-15.9,162.1-28.2c95.4-22.4,202.1-40.6,273.6-113.4
		c0.8-0.8,1.6-1.4,2.4-2c0.7-2.4,1.4-4.9,2-7.4c-21.8,10.6-46.1,17.8-67.5,24.8c-45.4,14.8-90.9,28.2-138.2,35.2
		c-92.7,13.7-191.9,20.3-285.3,11.2c-2.6-0.3-2.6-4.3,0-4.1c89.5,6.6,181.9-4.6,269.9-21.2c44.2-8.3,87.5-20.5,128.2-39.8
		c19.5-9.3,38.5-19.7,58-29c16.6-7.9,32.5-14.8,45.1-28.1c1-6.6,1.9-13.2,2.7-19.8c-68.1,45.5-148.1,61.8-228,85.7
		c-3.6,1.1-5-4.4-1.5-5.5c86.3-28,167-58,234.1-119.3c1.2-10.4,2.4-20.8,3.7-31c-23.2,17.1-52.1,29.1-78.3,37.1
		c-4.4,1.3-5.9-5.1-1.8-6.7c17.4-6.9,32.8-15.5,46.7-28.1c11.8-10.7,20.6-24.9,30.1-37.7c1-1.4,2.1-2.4,3.2-3.3
		c4.9-14.1,11.5-27.6,15.5-41.9c-8,5.8-16.7,10.9-23.9,15.7c-7.9,5.4-15.7,11.8-24.1,16.4c-7.1,3.9-15.2,4.3-22.5,7.6
		c-9.3,4.2-17.4-9.4-8.1-13.8c7.2-3.4,15.3-4.2,22.4-7.8c7.9-4,14.4-11.3,20.6-17.5c11.8-11.8,22.2-29.7,36.8-37.6
		c0.3-0.2,0.6-0.3,0.9-0.4c-1.9-17-3.9-32.4-1.1-50.3c1.3-8,2.7-16.1,4.1-24.1c-48.7,15.7-81.9,53.8-94.4,104.7
		c-11.8,48.2-17.3,93.5-51.7,131.9c-62,69.1-165,77.5-251.5,86.9c-108.9,11.8-218.8,16.7-327.5,0.7c-53.8-7.9-106.7-20.4-159.4-33.4
		c-42.9-10.6-85.4-19.3-117.5-51.9c-31.8-32.3-55.2-71-89.1-101.8c-35.3-32-74.8-58.8-114.4-85.1
		C430.9,1211.3,428,1231.5,441.2,1243.2z"/>
	<g>
		<path d="M888.7,872.9c12.1,3.2,24.8,4.2,37.2,2.8c12.8-1.4,25.2-8.5,29.9-21.1c3.1-8.5,1.5-19.3-7.3-23.7
			c-22.7-11.3-53.9,14.3-63.2,33.1v0c-1.1,2.1-2,4.8-0.6,6.8C885.6,872,887.2,872.5,888.7,872.9z"/>
		<path d="M1029,874.7c5.8,3.5,13,4.8,19.8,4.2c12.1-1,36.4-8,27.2-24.3c-6.3-11.2-21.9-18.8-34.4-19c-8.8-0.2-18,3.8-22.1,12
			c-3.8,7.8-1.1,17.8,5.2,23.7C1026.1,872.7,1027.5,873.8,1029,874.7z"/>
		<path d="M957,931.7c1.8,1.5,4.4,0.2,6.4-1.1c6.5-4.4,13-8.7,19.5-13.1c0.7-0.4,1.3-0.9,2.1-1c1.2-0.1,2.3,0.7,3.4,1.4
			c4.3,3,9.4,4.7,14.6,5c1.2,0,2.5,0,3.5-0.6c2.7-1.7,1.5-5.9,0-8.8c-4.7-9-9.5-18-14.2-26.9c-2.3-4.3-4.5-8.7-6.8-13
			c-2.9-5.4-3.8-5.6-6.7,0c-8.7,16.7-13.8,35.2-22.2,51.9C955.8,927.6,955.2,930.3,957,931.7z"/>
		<path d="M1679.7,975.7c-2.9-4.1-8.9-6.1-13.4-1.3c-27.5,29.4-57.8,55.4-91.5,77.5c-28.5,18.7-59.4,33.3-88.3,51.3
			c-1.2-51.5-6.6-102.9-12.3-154.1c34.4-4.6,68.6-7.4,99.1-11.8c10.9-1.6,18.3-16.4,14.9-26.2c-3.6-10.2,2-30,2.3-40.7
			c0.3-10.3-0.3-20.7-0.9-31c-1.5-22.5-4.6-44.9-5.2-67.4c-1.2-48.2,16.5-94.4,29.6-140.2c2.9-10.2-1.6-18-8.6-22.3
			c0-4.1-1.9-8.3-6.6-11c-42.9-24.6-86.7-11-127.9,8.9c0.8-9.7,1.1-19.7,0.8-29.8c11.4-11,15.7-30.4,1.9-43.3
			c-1.9-1.8-3.8-3.7-5.5-5.7c-2.1-19.5-4.7-38.7-6.2-56.8c-0.5-5.3-7.7-5.3-8.2,0c-0.9,10.3-2.1,21-3.4,31.9
			c-15.1-24.4-28.6-50.8-56.5-60.2c-40.5-13.7-87,6.5-109.1,40.8c-7.2,11.2,10.2,20.9,17.7,10.3c13.8-19.4,38.5-43,64.3-41.1
			c29.6,2.1,32,26.7,35,49.3c4.1,31.7,7.7,58.9,35.8,78.4c2.1,1.4,4.2,2.5,6.2,3.3c0,12.2,0.7,24.2,2.5,35.7
			c-43.1,23.8-80.4,53-112.2,91.5c-13.6,16.4-26.6,34.2-38.4,52.9c16-44.7,40.2-86.5,71.3-122.4c8.6-10,17.8-19.5,26.9-29l3.3-3.7
			c-103-23-210.1-45.9-313.1-25c-0.9-29.4-5.4-58.7-7.3-88.1c20.7,0.4,42.3,0.4,61.4-6.3c45.7-16.2,18.9-62,11.1-94.4
			c-7.2-30.3-16.1-75.2-4-104.9c8.8-21.6,34.7-25.7,37.5-49.8c0.4-3.1-1-5.3-3-6.7c-1-3.3-3.8-6.1-9-6.4c-14.3-1-29,0.1-43.2,1.2
			c-0.4,0-0.7,0.1-1,0.3c-0.1-0.1-0.3-0.2-0.5-0.2c-14.6,1.4-29.6,3.9-44.7,7.3c1.7-3.1,2.8-6.8,2.9-11.1c0.3-19.6-1.4-39-3.4-58.4
			c7.1-10.3,4.4-23.9-3.2-32.7c-0.5-5.7-0.9-11.3-1.2-17c-1.1-20-30-20-31.1,0c-0.2,4.2-0.5,8.5-0.9,12.7
			c-22.3,13.4-41.9,22.6-68.6,24.5c-21.2,1.5-42.5,0.2-63.7,1.8c-41.7,3.1-84.2,11.8-118.2,37.5c-29.8,22.5-40.8,54.2-46,90
			c-3,20.6-3,43-14.7,61c-13.4,20.8-43.9,54-69.4,52c-4.8-0.4-5.3,6.7-1.1,8c33.9,11,72.9-17.1,93.8-42c11.2-13.3,18.6-29,23.5-45.6
			c5.9-20.1,5.9-43.9,17.6-61.8c27.5-42,91.1-47.7,136.1-48.5c39.6-0.8,71.8-2.9,105-15.6c-0.9,11.4-1.4,22.8-1.2,34.2
			c0.2,9.8,5.2,16.4,11.8,19.8c-154.9,48.8-306.8,194.7-241.6,362.4c5.4,13.8,27.1,20.9,35,4.6c24.6-50.8,61.7-86.7,116.7-103.4
			c28-8.5,56.6-11.7,85.6-12.3c-2.2,33.6-7.7,67.1-7.5,100.8c-38.8,13.1-75.7,31.7-110.9,52.8c-54.1,32.4-105.1,71-145.7,119.2
			c-40.4,47.9-70.2,105.9-78.9,168c-18.9-38.9-36.3-81.3-39.2-124.5c-1.6-24.4,0.6-51.2,18.8-69.5c17.7-17.8,42.9-31,63.2-45.7
			c8.1-5.8,3-16.8-6.5-15.5c-48.6,6.8-96.9,15.5-144.6,27c-6.7,1.6-13.7,3.1-20.8,4.7c2.1-7.3,1-15.1,0.3-24
			c-1-13.8-2.2-27.4-2.5-41.3c0-1-0.2-1.9-0.4-2.8c14.4,0.2,29,2.4,44.8,4.6c5.8,0.8,12-2.3,11.9-9c-0.3-15.8-4.2-31.9-1-47.6
			c2.9-14.7,10.4-28.3,16.9-41.7c9.1-19,16.3-37.1,17.5-58.3c0.6-9.8-10.6-12.5-16.9-7.8c-22.2-17.7-49-15.9-76.5-12.7
			c1.5-1.4,2.8-3.1,3.5-5.4c6.9-22.9,3.2-48.7,2.2-72.5c-1.1-26.9-1.7-53.8-2-80.8c-0.2-15.3-23.6-15.3-23.7,0
			c-0.2,16.2-0.5,32.3-1,48.4c-22.5-2-44.8,0.5-63.2,15.6c-31.9,26.2-41.4,72.4-93.9,58.7c-4.6-1.2-6.6,6-2,7.1
			c62.8,15.1,94.8-60.2,157.8-45.7c-1.1,22.9-4.3,47.1,2.4,69.1c1,3.4,3.2,5.6,5.8,7c-32.2,3.9-64.1,9.1-90.4,30
			c-23.3,18.4-36.6,45.6-40.8,74.6c-2.3,16.3-1.7,32.8,1.4,49c4.3,22.8,18.7,43.5,21.9,66.1c1.4,9.5,14.7,11.4,20.7,5.5
			c18.3-18.2,33.8-35.2,58.2-45.5c7.9-3.3,15.6-5.5,23.1-6.9c0,0.3-0.1,0.6-0.1,1c-0.3,13.8-1.4,27.5-2.5,41.3
			c-0.9,11.3-2.5,20.8,2.7,29.9c-24.8,6.1-49.6,14-69.1,27.4c-43.2-6.5-88.1-6-126.1,18.2c-32.6,20.7-55.3,54.4-66.9,90.9
			c-30.3,95.3,6.1,201.6,59,281.4c4.8,7.3,18.7,5.3,17.9-4.8c-8.1-94.3,90.9-91.6,173.4-75c-1.5,31.4-4,63-4.5,94.5
			c-27.3-17.6-54.6-35.2-81.8-52.8c-2.6-1.7-5.1-1.5-7.1-0.2c-2.7,0.6-5.2,2.5-6.5,6.1c-10,28.6-16.9,58.6-21.7,88.6
			c-37.1-26.4-82.9-36.1-118.5-65.4c-16.8-13.9-32.4-29.2-51.4-40.2c-23-13.4-49.3-19.4-71.5-34.3c-4.7-3.1-8.6,4.2-4.3,7.4
			c20.1,15.3,43.2,24.2,64.1,37.9c19.5,12.8,36.1,29.7,52.8,45.8c13.8,13.3,27.4,25.4,43.2,36.3c20.9,14.4,44.8,24.8,57.9,47.6
			c6.5,11.3,16.6,13.2,25.5,10.2c3.1,11.2,11,18.8,24.9,26.7c59,33.1,84.4,88.5,92,152.1c-7.9,8.2-9.5,21.9,2.5,31.7
			c1,22.4,1.2,45.1,2.6,67.5c-0.7,3-0.6,6.2,0.6,9.4c2,26.8,6.2,53.2,16,78.6c19.7,50.7,59.3,84.6,109.3,104
			c60.5,23.5,129.2,27.6,193.3,30.2c76.6,3.1,153.4-0.5,229.9-4.3c143.2-7.1,294.7-20.1,428.2-76.7c64-27.1,106.3-70.5,127.4-137.2
			c10.5-33,15.7-68.2,18.7-102.7c3.4-39.4,6-82.3-0.3-121.6c5.9-22.9,2.2-46.8-1-70.7c0-0.2,0-0.3-0.1-0.5
			c-2.1-15.9-4-31.9-2.7-47.7c1.2-13.7,3-27.4,5.1-41.1c13.3-4.6,13.2-20.8,5-29.4c7.7-41,17.6-81.9,25.5-122.1
			C1689.6,979.1,1684.3,975.3,1679.7,975.7z M1637,1069.7c-2.1,12-5.3,24.1-5.7,36.3c-3.7,1.1-7.3,2.3-10.9,3.7
			c-1-22.9-1.1-45.8-0.1-68.7c9-7.2,17.9-14.6,26.5-22.3C1643,1035.6,1639.9,1052.7,1637,1069.7z M1607.3,1051.1
			c-1.5,21.5-1.9,43-1.1,64.5c-6.3,3-12.3,6.4-18.2,10.1c-5.4-16.7-5-36.9-5.5-53.3c0-1-0.3-1.9-0.6-2.6
			C1590.5,1063.6,1599,1057.4,1607.3,1051.1z M1570.6,1077.8c-0.8,13.2-1.4,26.5,0.3,39.7c0.7,5.4,1.5,11.9,3.4,17.7
			c-4.8,3.7-9.5,7.6-13.9,11.9c-0.5-0.1-1-0.2-1.6-0.2c2.1,0-1.7-6.3-2.4-8c-1.9-5-3.7-10.2-5.3-15.3c-3-9.5-4.8-18.8-4.9-28.7
			C1554.4,1089.2,1562.5,1083.5,1570.6,1077.8z M1526,1108.8c2.3-1.6,4.6-3.2,6.8-4.7c0.9,10.9,3.7,21.5,7.2,32.1
			c2.4,7.3,4.5,16.3,10.2,21.5c-7.9,9.1-14.4,18.7-19.7,28.6c-3.4-6.5-7.9-12.7-10.9-19c-6.9-14.1-12.8-28.6-13.4-44.5
			c0-0.1,0-0.1,0-0.2C1512.7,1118,1519.4,1113.4,1526,1108.8z M537.6,1204.2c8.2,7.1,22.1,6,28.7-3.1c-4.4,15.4-10.6,30.7-13.8,46.2
			c-6.7-5.6-13.5-11.1-20.4-16.4C534.4,1222.2,536.1,1213.3,537.6,1204.2z M566.7,1258.5c3.9-19.4,9.4-37.4,11.1-56.8
			c2.9,1.9,5.7,3.8,8.6,5.6c4.4,2.9,8.8,5.7,13.2,8.5c-4.3,12.1-8.2,24.3-12.1,36.5c-1.9,6-3.7,12-5.6,18c-0.3,0.9-0.6,2.2-0.8,3.5
			c-4.7-5-9.6-9.8-14.7-14.4C566.5,1259.2,566.7,1258.9,566.7,1258.5z M599.7,1265.5c3.7-14.2,7.4-28.5,10.7-42.8
			c11.4,7.2,22.9,14.4,34.3,21.7c-0.1,0.2-0.2,0.4-0.3,0.6c-6.2,27.4-12.5,54.8-18.5,82.2c-10.5-12.7-20.7-25.8-31.4-38.4
			C596.9,1281.1,597.9,1272.2,599.7,1265.5z M653.4,1250c10.5,6.8,21,13.7,31.2,20.8c-0.1,0.1-0.2,0.3-0.3,0.4
			c-11,28.4-22.1,60.1-26.6,90.7c-6.3-5.9-12.3-12.1-18-18.5C645.2,1312.4,649.5,1281.4,653.4,1250z M674.6,1372.7
			c5.3-31.4,17.7-65.6,15.8-97.8c9.5,6.7,18.7,13.7,27.6,20.9c-6.6,30.8-11.5,62-16.4,93.1c-0.1,0.4-0.1,0.8-0.1,1.2
			c-10-4.1-19.4-8.9-28-14.8C674,1374.5,674.4,1373.7,674.6,1372.7z M717.2,1390.8c3.3-29,7.3-57.8,10.8-86.8
			c0.4,0.3,0.8,0.6,1.2,0.9c10.2,8.8,19.6,17.6,30,25.1c-7,22.8-16.3,48.1-18.7,72.1c-8.3-2-16.5-4.3-24.5-6.9
			C716.9,1394.1,717.4,1392.6,717.2,1390.8z M768,1336c4.4,2.7,9.1,5.2,14.2,7.3c7.5,3.1,15.2,5.4,23.1,7.5
			c-4.8,20.7-5.1,42.1-10.3,62.7c-12.5-2.6-25.8-5-39.2-7.8C763.2,1384.1,765.3,1358.8,768,1336z M816,1353.5
			c7.7,1.9,15.4,3.8,23,6.2c5,1.6,9.6,3.5,14.1,5.7c-0.1,0.3-0.3,0.6-0.3,0.9c-2.2,19.4-5.6,38.6-10,57.6c-11-2.3-21.9-4.6-32.8-7.1
			C813.9,1395.8,812.5,1374.5,816,1353.5z M864.6,1371.4c11.5,6.7,22.2,14.5,33.7,21.6c-2.4,13.3-4.3,26.9-4.4,40.5
			c-12.1-2-24.2-4.3-36.3-6.6C860.9,1408.5,863.3,1390,864.6,1371.4z M908.7,1399c1.5,0.8,3,1.7,4.5,2.4c8.2,4,16.7,6.7,25.5,8.7
			c-1.2,9.8-2.2,19.6-3,29.5c-9-1.1-17.9-2.4-26.8-3.7C908.9,1423.6,908.5,1411.3,908.7,1399z M952.4,1412.6
			c5,0.7,10.1,1.2,15.1,1.7c7.7,0.6,15.4,1.2,23.1,1.7c-1.1,9.2-2.1,19.4-1.2,28.7c-4.9-0.3-9.8-0.6-14.7-1
			c-7.5-0.6-14.9-1.3-22.4-2.1C952.5,1431.9,952.6,1422.2,952.4,1412.6z M1005.2,1445.4c-0.9-5.1-0.7-10.7-1.1-15.6
			c-0.3-4.4-0.5-8.7-0.6-13.1c12.2,0.6,24.4,1.1,36.6,1.4c-1.1,9.4-2.1,18.9-2.3,28.4C1027,1446.3,1016.1,1445.9,1005.2,1445.4z
			 M889.2,1113.2c-4.8,2.6-10.9,3.2-15.9,1c-5-2.2-8.8-7.5-8.6-13c-6.6,3.2-15-0.1-19.5-5.8c-4.6-5.7-6.2-13.3-6.9-20.6
			c-0.1-1.2-0.2-2.4,0.4-3.5c0.5-0.9,1.4-1.5,2.3-1.9c5.5-2.7,11.9-2.4,18-2.3c1.6,0,3.3,0,4.9-0.5c2-0.7,3.5-2.3,5-3.8
			c13.7-13.7,32.8-22.5,51.7-26.2c5-1,13.6-2.7,17.5,1.8c6.2,7.1-3.2,15.1-7.9,19.4c-10.1,9.4-21.1,17.9-32.7,25.4
			C903.4,1093.2,899.4,1107.7,889.2,1113.2z M927.7,1013.6c-5.8-9.7-16.9-30.7-4.7-39.9c10.6-8.1,23.3,13.4,31.9,18.6
			c5.3,3.2,11.1,5,17,6.7c6.1,1.8,12.6,3.5,18.8,2.1c4.1-0.9,7.9-3.1,11.7-5.3c14-8.3,28-16.5,42.1-24.8c6.1-3.6,13.2-7.3,19.7-4.8
			c3.1,1.2,5.7,3.7,7.8,6.5c7.6,10.7,7.8,26.1,3.2,38.7c-4.6,12.6-13.2,22.9-22.2,32.1c-4.7,4.9-9.7,9.7-15.7,12.7
			c-7.8,3.9-16.6,4.5-25.1,5c-14.4,0.9-29.4,1.6-42.7-4.5c-7.9-3.6-14.7-9.5-20.9-15.9C940.6,1032.8,933.6,1023.6,927.7,1013.6z
			 M1170.5,1103.4c-3.6,3.4-9,4.6-13.7,3.1c-4.3-1.4-7.5-4.7-10.7-7.9c-8.2-8.5-16.5-17.1-24.7-25.6c-3.2-3.3-6.5-6.7-10.6-8.8
			c-8-4.2-19.6-4.2-21.5-15.1c-1.3-7.5,3.4-12.5,10.4-13.9c20.1-4.1,38.9,14.5,58.9,15.8c6.1,0.4,12.5-0.3,17.9,2.5
			c5.9,3,9,9.5,11.2,15.7c1.9,5.5,3.2,11.6,0.8,16.9c-2.4,5.2-10.2,8.1-14.2,4C1175.6,1094.6,1174.1,1100,1170.5,1103.4z
			 M1371.3,1213.7c-31-56.2-62-112.4-93-168.5c3-1.5,5.7-3.9,8-7.2c35-51.4,93.3-72.4,154.5-83.6c-2.6,64.5-7.7,129.2-7.9,193.9
			c-1.1,2.7-1.9,5.6-2.4,8.6c-5.8,37.8-6.3,76.4-13,114.3c-0.2,0.9-0.2,1.8-0.2,2.6c-8.1,41.5-33,73.2-75.2,86.2
			c-44.6,13.7-94.4,15.7-140.7,19.7c-40,3.5-80.1,6.2-120.2,8.7c8.1-32,2.2-67.9,0.7-100.6c-1.8-40.5-3.9-80.8-5.2-121.3
			C1176.6,1166.5,1276.5,1182.3,1371.3,1213.7z M1054.6,1446.6c-0.7-9.4-1.9-18.9-2.8-28.3c10.3,0.2,20.7,0.2,31.1,0.2
			c-0.3,6.6-0.6,13.3-0.9,19.9c-0.1,2.5-0.4,5.2-0.6,7.9C1072.5,1446.5,1063.5,1446.6,1054.6,1446.6z M1098.7,1445.8
			c-0.3-4.4-0.6-8.8-0.8-13.2c-0.3-4.8-0.4-9.5-0.5-14.3c13.3-0.2,26.5-0.5,39.8-1c0.1,2.3,0.3,4.4,0.3,6.2c0,5.8-1.1,13.9,0.1,20.4
			C1124.6,1444.8,1111.7,1445.4,1098.7,1445.8z M1154.2,1442.9c-0.3-0.6-0.5-1.1-0.9-1.7c-0.5-1.4-0.2-5.2-0.3-6.8
			c-0.3-3.6-0.7-7.3-1-10.9c-0.1-1.2-0.6-3.9-1-6.7c9.5-0.4,19-0.9,28.4-1.5c-0.1,5.7,0.1,11.5,0.8,17.2c0.3,2.7,0.7,5.5,1.3,8.2
			C1172.3,1441.5,1163.2,1442.3,1154.2,1442.9z M1198.9,1439.1c-0.3-0.2-0.7-0.5-1-0.7c-0.2-0.5-0.4-1.1-0.8-2.1
			c-0.3-1-0.6-1.9-0.9-2.9c-1-3.4-1.8-6.8-2.4-10.3c-0.5-2.8-0.8-5.6-1.1-8.5c13-0.9,26-1.8,38.9-2.9c-0.1,4.1-0.1,8.2,0.2,12.3
			c0.3,3.9,0.6,7.8,1.7,11.5C1222,1436.7,1210.5,1437.9,1198.9,1439.1z M1249.2,1433.5c-3.2-6.8-4.8-15-5.5-23
			c7.7-0.7,15.4-1.4,23.1-2.2c-0.1,7.6,0.2,15.2,1,22.8C1261.5,1432,1255.4,1432.7,1249.2,1433.5z M1284.4,1428.9
			c-1.5-7.4-2.4-14.7-2.7-22.2c4.8-0.5,9.5-1,14.3-1.5c5.3-0.6,10.6-1.2,15.9-1.9c-0.2,7.1,0.8,14.1,2.5,21.2
			c-7.2,1.2-14.4,2.3-21.6,3.3C1289.9,1428.2,1287.1,1428.6,1284.4,1428.9z M1329.4,1421.9c-1.3-3.4-2.2-7.1-3.2-10.4
			c-1.1-3.4-1.9-6.7-2.3-10c13-2.1,25.8-4.8,38.1-8.8c0.8,3.4,1.5,6.8,2.5,10.2c0.8,2.9,1.6,6.5,2.8,10.1
			C1354.8,1416.6,1342.2,1419.5,1329.4,1421.9z M1383,1407.9c-0.8-2-2.5-5.2-2.8-5.7c-1.3-2.7-2.6-5.4-3.8-8.2
			c-0.8-1.9-1.4-3.9-2.1-5.8c7.5-3.2,14.8-7.1,21.7-11.7c0.9,6.2,2.1,12.4,3.6,18.5c0.5,1.9,1,3.8,1.5,5.7
			C1395.3,1403.3,1389.2,1405.7,1383,1407.9z M1415,1393.8c-2-4.8-3.5-10.3-4.4-12.7c-1.5-4.2-2.8-8.4-4-12.7
			c1.6-1.4,3.3-2.8,4.8-4.3c7.4-7,13.7-14.5,18.9-22.5c0.6,2.3,1.3,4.5,1.9,6.5c2.6,9.6,6.9,18.2,12.7,26.1
			c-3.6,2.9-7.3,5.7-11.4,8.4C1427.5,1386.8,1421.3,1390.5,1415,1393.8z M1456.8,1364c-0.3-0.2-0.7-0.3-1-0.4
			c-3.8-4.9-6.8-10.3-9.3-16.1c-2-4.7-7.4-14.3-7.9-20.5c1.8-3.9,3.4-7.8,4.7-11.8c4.4,15.1,11.5,29.8,19.4,42.9
			C1460.7,1360,1458.8,1362,1456.8,1364z M1474.3,1343.7c-10.4-19.7-22.1-38.9-22.8-61.6c0.1-0.5,0.3-1,0.4-1.5
			c2.1-13,3.8-25.9,5.1-38.8c11,22.8,24.4,44.4,35.3,67.3c0.1,0.2,0.2,0.4,0.4,0.6C1487.8,1322,1481.8,1333.3,1474.3,1343.7z
			 M1504.1,1270.2c-1.5,7.2-3.2,14.1-5.1,20.8c-13.6-24.5-29.4-47.8-39.9-73.8c0.5-7.6,0.9-15.3,1.1-22.9c3.2,0.4,6.3,0.2,9.2-0.6
			c9.6,23.3,24,45,36.7,66.6C1505.4,1263.6,1504.7,1266.9,1504.1,1270.2z M1494.1,1131.4c1.4,12.4,5.4,24.1,10.4,35.7
			c4.8,11.2,9.8,25.4,18.9,34.3c-5.1,12-9,24.5-12.2,37.3c-11.1-16.9-22.6-34.5-30.4-53.1c2.6-3.9,4.4-9.2,4.8-16.2
			c0.7-10.9,1-21.8,1.2-32.7C1489.1,1134.9,1491.6,1133.1,1494.1,1131.4z M1347.2,735.3c26.5-35,59.2-66.6,95.6-91.2
			c35.8-24.1,89.7-44.2,132.2-26.7c-0.5,1-1,2.1-1.3,3.3c-14.2,49.6-32.6,99.1-31.6,151.3c0.5,26,4.4,51.8,5.3,77.7
			c0.1,2.1,0,4.2,0,6.4c-4.3-9-7.3-19.1-10.5-28.1c-11-31.4-12.8-60.2-12-93.2c0.1-4.2-6.3-4.2-6.5,0c-1.8,37.6-7.5,78.1-5.2,115.8
			c-20.8-27.6-32.7-60-26.8-97.4c0.4-2.5-3.3-3.7-3.9-1.1c-9.4,39.4-7.9,83.1,9.9,118.9c-9.5-7.5-18.2-16-24.6-27.2
			c-17.9-31.8-20.6-76.7-15-112.1c0.2-1.5-2-2.2-2.4-0.7c-8.8,36.3-19,87.2-7.9,123.4c3.6,11.9,9.7,23.3,17.5,33.7
			c-10.3-8.3-19.9-19.6-24-25.4c-15.8-22.5-21.7-49.4-20.9-76.5c0.2-5.6-9.3-7.2-10.1-1.4c-4.9,35.8-7.4,73.8,13,105.8
			c2.4,3.7,5.2,7.6,8.4,11.5c-4.1-1.3-8.1-2.8-11.9-5c-22.1-12.6-30.5-37.6-30.9-61.8c-0.1-3.5-5.8-4.6-6.4-0.9
			c-4,25.7-1.1,51.2,13.8,72.6c-1.4-0.8-2.9-1.6-4.2-2.8c-7.7-6.3-14.2-15-20.4-22.7c-2.3-2.8-6.6,0.3-5.8,3.4
			c2.7,10.3,5.5,20.7,11.2,29.5c-14.5-2.4-28.4-8.1-35-21.6c-2.7-5.5-10.4-1.4-9.4,3.9c2.7,13.5,9.3,23.1,18.2,30
			c-0.4,0.1-0.8,0.3-1.2,0.4c-12.8,3.1-24.4-4.1-34.9-10.8c-5.7-3.6-12.1,4.7-7.2,9.3c9.6,9,20,16.8,32.5,20.2
			c-21.4,10.4-41.3,23.9-58.7,42.1C1253.4,900.4,1294.2,805.2,1347.2,735.3z M1177.9,865.9c7.6,5.8,10.1,18,4,25.4
			c3.3,0.2,6.7-0.3,9.9,0.1c10.5,1.5,17.4,13.2,16.3,23.8c-1,10.6-8.1,19.7-16.2,26.5c-8.6,7.2-18.8,12.5-29.6,15.5
			c-5.2,1.4-10.5,2.3-15.6,4.1c-4.5,1.5-8.7,3.7-12.9,5.9c-10.7,5.6-21.6,12.8-32.9,17.1c-9.4,3.6-17-7.5-17.4-16.5
			c-0.5-10.3,8.5-16.4,16-21.7c10.1-7.1,20.5-13.9,31.1-20.3l0,0c-4-1.3-4.2-6.7-3.7-10.9c1.2-9.5,2.6-19,6.1-27.9
			c3.5-8.9,9.3-17.2,17.7-21.8C1159.2,860.4,1170.3,860.1,1177.9,865.9z M1009.2,457.1c0.1-0.1,0.3-0.3,0.4-0.4
			c10-9.1,20.3-20.1,31.6-27.4c5.4-3.5,1.7-10.5-4.1-9.7c-14.9,2-24.1,10.1-35.2,19.5c-5.2,4.4-11.6,9.1-17.7,14.2
			c11.8-14.8,25.8-27.6,36.9-42.9c2.7-3.7-2.4-7.7-5.9-5.9c-17.7,9.5-32.2,24.5-46.6,38.3c-7.5,7.2-17.8,15.4-25.7,24.7
			c18.2-30.4,36.8-59.8,68.1-81.1c3.8-2.6,0.5-7.7-3.5-6c-39.8,17-70,52.5-96.3,88.4c5.1-10.3,10.4-20.5,16.1-30.4
			c21.1-36.3,46.9-64.3,78.1-91.8c2.8-2.5-0.8-6.2-3.7-4.8c-34.1,15.5-60.3,46-82.6,75.2c-12.5,16.4-25,32.9-36.9,49.8
			c7.4-18.2,15.7-36.1,25.3-53.3c21.4-38.1,55.9-65.5,94.4-85.3c8-4.1,1-15.8-7-12c-80.1,37.6-134.5,121.1-169.6,200.4
			c0.8-60.4,33.4-118.6,78.5-161.9c58.3-55.8,142-105.3,220.9-123.2c-0.1,1.3,0.7,2.7,2.5,2.9c12.8,1.2,23.7,4.9,35,10.3
			c-6.7,6.9-19.8,11-26.4,16.9c-6.7,5.9-12.1,13-15,21.6c-7.9,23.5-2.5,55,0.5,78.9c1.5,11.9,3.6,23.7,8.1,34.9
			c6.2,15.4,20.5,32.1,19.9,49.4c-0.4,11.9-5.7,14.1-16,18.5c-17,7.2-14.5,3-30.6-1.7c-13-3.8-27.6-5.6-41-6.6
			C1044.9,455.1,1027.2,455.3,1009.2,457.1z M860,775.3c20.4-42.5,60.3-74.3,105.2-88.7c44.9-14.5,94.2-12.5,139.3,1.4
			c13.8,4.3,27.6,9.7,38.9,18.8l-0.9-1.3c5.9,3.6,8.3,10.8,10,17.5c6.5,25.5,9.9,51.7,9.9,78c0,21-4,45.3-22.2,55.7
			c-2.8,1.6-5.9,2.9-7.7,5.5c-1.5,2-1.9,4.6-2.3,7.1c-1.8,11.6-2.9,23.4-6.8,34.5c-3.8,11.1-10.9,21.7-21.5,26.7
			c-17.8,8.5-42.4,0.6-56.2,14.7c-4.6,4.7-7.2,11.3-12.8,14.6c-4.9,2.9-10.9,2.6-16.6,2.6c-21.6,0-43.2,5.1-64.7,2.5
			c-21.4-2.7-44-16.5-46.7-37.9c-0.3-2.4-0.4-4.9-1.9-6.8c-1.1-1.3-2.7-2-4.3-2.6c-6.9-2.4-14.4-3.3-21.7-2.4
			c-2.5,0.3-5.1,0.8-7.3-0.4c-1.7-0.9-2.9-2.6-3.9-4.2C840.4,870.9,839.6,817.8,860,775.3z M772.4,917.9c4.1-2.4,9-3.1,13.7-3.7
			c4.3-0.5,8.5-1.1,12.8-1.6c-2.5-4.7-4.6-9.7-6.2-14.8c-1.2-3.9-2.2-8.2-0.4-11.9c2-4,6.6-5.8,10.9-7.2c4.4-1.4,8.8-2.6,13.4-2.6
			c4.6,0,9.3,1.3,12.6,4.5c5.6,5.4,5.7,14.6,10.7,20.6c1.4,1.8,3.2,3.2,5,4.6c18.8,14.8,38.6,28.5,59,40.9
			c6.7,4.1,13.8,8.2,18.3,14.7c-4.6,4.6-7.6,10.8-12.9,14.6c-8,5.7-18.9,4.2-28.6,2.4c-1.6-0.3-3.2-0.6-4.7-1.4
			c-1.8-1-3.1-2.6-4.5-4.1c-8.4-9.7-20.4-22-32.4-27c-5.2-2.2-10.9-1.8-16.4-1.3c-9.4,0.8-18.8,1.3-28.2,0.3
			c-7.4-0.8-14.7-2.6-21.1-6.4c-3.3-2-6.5-4.9-7.3-8.8C765.1,925.1,768.3,920.4,772.4,917.9z M516.7,629.2c-0.6-1.8-1.6-3.6-2.9-5.3
			c-2.9-3.5-5-7.3-6.7-11.6c-2-5.1-5.1-9.4-6.7-14.6c-0.9-2.7-5.3-3.1-5.9,0c-1.4,7.1-3.5,13.1-3.3,20.5c0.1,2.5-0.1,5.1-0.1,7.7
			c-6.6-13.9-13.6-28.4-9.1-42.9c0.8-2.6-3.4-4.5-4.5-1.9c-3.9,8.9-9.1,17.5-11.9,26.8c0-0.1-0.1-0.3-0.1-0.4
			c-4.7-20.3-0.1-31.2,5.3-50c0.9-3-3.3-5.7-5.5-3.2c-17.8,20.1-27.6,45.8-28.1,72.1c-2.7-13.6-3.7-27.1-3.2-38
			c1.3-28.8,13-56.2,34.9-75.5c22.5-19.9,54.9-31.9,84.7-33.9c26.7-1.8,65.2-0.6,85.5,18.3c-2.3,25.7-16.2,47.2-25.4,70.8
			c-8.6,22-6.8,40.1-5.8,61.7C576.8,623.7,548.2,619.1,516.7,629.2z M476.6,1027.7c-1.6-1.5-3.2-3-4.9-4.3
			c-5.9-4.6-11.3-8.9-15.5-15.3c-1-1.5-3.2-0.2-2.4,1.4c3.6,6.4,8.8,11.8,13.5,17.4c0,0,0.1,0.1,0.1,0.1c-5.8-0.4-11.6-0.5-17.4-0.5
			c-1.3-4.8-6.5-9.3-9.3-12.7c-6.2-7.6-13.6-15-17.4-24.1c-0.6-1.5-2.7-0.9-2.4,0.7c1.6,9.5,5.1,17.9,10.5,25.8
			c2,2.9,3.9,7.2,6.4,10.8c-3.1,0.2-6.2,0.5-9.3,0.9c-8.1-7.5-13-18.3-18.5-27.7c-6.8-11.7-12.1-24-17-36.7
			c-1.1-2.8-5.4-1.8-4.6,1.3c4,14.9,8.1,29.9,12.6,44.7c2.3,7.6,5,15.4,9.4,22c-2.3,0.6-4.6,1.3-6.9,2.1c-0.4-1.1-1-2.1-1.9-3.2
			c-18.2-21.8-25.8-49-36.8-74.7c-0.8-1.8-3.6-0.5-3.1,1.3c8,28.2,7.5,59.3,23.5,84.7c-1,0.6-1.9,1.1-2.8,1.7
			c-5.5-14.5-15.4-26.3-23.4-39.9c-14.9-25.2-20.6-52.4-23.3-81.2c-0.1-1.3-1.9-1.3-2,0c-4.4,46.3,6.6,96.5,29.4,137.2
			c0,0,0.1,0.1,0.1,0.1c-1,1.1-2,2.3-2.9,3.5c-11-24.8-26-47.4-35.5-73.1c-11.2-30.4-16.1-62.4-11.9-94.6c0-0.1-0.2-0.2-0.2,0
			c-13.5,59.2-1.9,130.3,27.9,183.3c1.7,3.1,4.5,4.8,7.5,5.4c-2.4,5.9-4.1,12-5.2,18.3c-39.5-62.6-62-140.3-50.8-213.4
			c6.1-39.8,23.6-77.2,54.4-103.9c35.7-30.9,82.1-34.2,127-28.8c0.8,0.6,1.8,0.9,3.2,0.5c0.1,0,0.2-0.1,0.3-0.1c0.3,0,0.7,0.1,1,0.1
			c1.5,0.2,2.7-0.4,3.5-1.4c73.8-20.4,145.8-40.4,221.1-52c-29.6,19.1-55.8,41-62.3,78.9c-8.9,52,10.3,106.1,30.1,153.3
			c13.7,32.6,29.6,64.2,47.8,94.5c-14.7-12.3-28.4-25.3-39-40.8c-26.4-38.7-48.1-91.5-60-136.5c-0.9-3.2-6.4-2.7-6,0.8
			c5.2,50.8,22.7,93.8,41.2,140.9c1.1,2.9,2.4,5.8,3.6,8.6c-18.5-25.4-32.6-55.2-46.8-82.4c-2.6-4.9-10.8-1.5-9,3.8
			c10.7,31.7,22.2,62,37.8,90.9c-13.5-12.1-25.3-25.7-34.4-41.8c-2.8-4.9-11.6-1.5-9.4,3.9c9.3,22.8,23,43.6,40.9,60.7
			c4.3,4.1,9.6,9.4,15.4,14.7c-0.5-0.1-1-0.2-1.4-0.4c-17.8-5.7-34-17.5-47.3-30.3c-3.7-3.5-9.7,1-7.1,5.5
			c5.8,10,12.8,18.7,20.7,26.6c-25.7-6.7-51.7-12.4-77.9-17C519.7,1033.9,498.2,1029.7,476.6,1027.7z M566.3,1064.6
			c20.6,5.1,38.8,10.4,52.1,14.3c39.5,11.5,78.4,25.7,115.9,42.6c9.8,45,29.8,87.8,58.4,123.9c34.5-45,94.5-61.1,150.7-69.3
			c33.5-4.9,67.3-7.8,101.1-9c-1.3,40.3-3.4,80.4-5.2,120.7c-1.5,33.6-7.7,70.6,1.5,103.3c-42.1,3.7-90,10.4-126.9-10.6
			c-17.2-9.8-31.8-23.1-50.2-31c-18.4-7.8-38-10.5-57.1-16c-42.7-12.3-71.9-47.5-108.1-71.9c-42.4-28.5-85.2-56.3-128.1-84
			C571.3,1140.1,568.3,1102.2,566.3,1064.6z M516.9,1219.5c-5.2-3.8-10.4-7.6-15.7-11.3c5.5-16.3,4-34.8,7.9-51.7
			c7.1,4.7,14.2,9.3,21.3,14C526.4,1187,521.2,1203.1,516.9,1219.5z M493.1,1174.6c-1.5,7.8-4,16.2-5,24.5
			c-4.7-3.3-9.5-6.5-14.3-9.7c0.1-0.3,0.2-0.4,0.3-0.7c2.6-17.2,3.3-34.8,4.5-52.3c6.8,4.5,13.6,8.9,20.4,13.4
			C496.2,1157.8,494.7,1166.2,493.1,1174.6z M450.9,1118.2c6,3.9,12,7.9,18,11.8c-3,16.7-6.5,33.7-8.1,50.6
			c-6.8-4.5-13.7-9-20.5-13.5C443.5,1150.8,447.3,1134.5,450.9,1118.2z M1500.1,1603.9c-120.8,56-254.3,74-385.7,84.9
			c-66.1,5.5-132.4,10.1-198.7,13.1c-67.3,3-136.4,4.6-202.7-9.3c-55.2-11.6-110.5-36.7-136.3-90.1c-8.2-16.9-13.2-34.8-16.5-53.2
			c17.6,10.7,38,18.5,56,25.1c34.9,12.9,70.4,25.8,107,32.8c69.4,13.2,141.5,19.6,212,21.4c2.9,0.1,2.9-4.4,0-4.5
			c-67.2-1.9-134.6-6.8-198.8-27.8c-31.5-10.3-64.3-19.4-94-34.5c-25.7-13.1-62.9-31.1-81-53.7c-1.9-2.4-4.1-3.9-6.4-4.7
			c-0.9-13.2-1.5-26.4-2.2-39.4c58,35,122.9,51.2,190,62.6c77.9,13.3,158,26.3,236.9,30.2c4,0.2,3.9-5.9,0-6.1
			c-77.6-5.2-151.6-22.8-226.6-41.9c-71.4-18.2-135.8-46.7-194.1-92.3c-3.5-2.7-7-4.3-10.4-5c-4.6-43-13.8-84.6-42.6-119.5
			c-8.3-10-17.6-19-27.9-26.9c-11.1-8.5-27-13.1-37-22c-13.2-11.7-10.3-31.9-6.5-49.8c39.6,26.3,79.1,53.1,114.4,85.1
			c33.9,30.8,57.3,69.5,89.1,101.8c32.1,32.6,74.6,41.3,117.5,51.9c52.7,13.1,105.7,25.5,159.4,33.4c108.7,16,218.6,11.2,327.5-0.7
			c86.5-9.4,189.4-17.8,251.5-86.9c34.4-38.3,39.9-83.7,51.7-131.9c12.5-50.9,45.7-88.9,94.4-104.7c-1.4,8-2.8,16.1-4.1,24.1
			c-2.9,17.9-0.8,33.4,1.1,50.3c-0.3,0.1-0.6,0.2-0.9,0.4c-14.6,7.9-25,25.8-36.8,37.6c-6.2,6.2-12.7,13.5-20.6,17.5
			c-7.1,3.6-15.2,4.4-22.4,7.8c-9.3,4.4-1.2,18,8.1,13.8c7.3-3.3,15.4-3.7,22.5-7.6c8.4-4.6,16.2-11,24.1-16.4
			c7.2-4.8,15.9-9.9,23.9-15.7c-4,14.3-10.6,27.8-15.5,41.9c-1.1,0.9-2.2,2-3.2,3.3c-9.5,12.8-18.3,27-30.1,37.7
			c-13.9,12.6-29.4,21.2-46.7,28.1c-4.1,1.6-2.5,8,1.8,6.7c26.2-8,55.1-20.1,78.3-37.1c-1.3,10.2-2.5,20.6-3.7,31
			c-67.1,61.3-147.8,91.3-234.1,119.3c-3.5,1.1-2,6.6,1.5,5.5c79.8-23.9,159.9-40.2,228-85.7c-0.8,6.6-1.7,13.2-2.7,19.8
			c-12.6,13.3-28.5,20.2-45.1,28.1c-19.5,9.3-38.4,19.7-58,29c-40.7,19.4-84,31.5-128.2,39.8c-88,16.6-180.3,27.8-269.9,21.2
			c-2.6-0.2-2.6,3.8,0,4.1c93.4,9.1,192.6,2.5,285.3-11.2c47.3-7,92.8-20.4,138.2-35.2c21.4-7,45.7-14.1,67.5-24.8
			c-0.6,2.5-1.3,4.9-2,7.4c-0.8,0.6-1.7,1.2-2.4,2c-71.4,72.8-178.2,90.9-273.6,113.4c-52.4,12.3-108.1,26.4-162.1,28.2
			c-50.3,1.6-100.2-7.9-150.7-4.7c-3.7,0.2-3.7,5.9,0,5.7c57.6-2.4,115.3,7.2,172.9,9.2c53.4,1.9,105.5-5.5,158-14.7
			c77.5-13.5,158-28.8,225.3-69.4C1548.5,1573.1,1528,1591,1500.1,1603.9z M1647.8,1102c-0.3,0-0.6,0.1-0.9,0.1
			c1.8-31,7.6-62,10.1-92.9c4.6-4.4,9.1-8.9,13.6-13.5C1662.9,1031.1,1655,1066.5,1647.8,1102z"/>
	</g>
</g>
</svg>
