<?xml version="1.0" encoding="utf-8"?>
<!-- Generator: Adobe Illustrator 22.0.1, SVG Export Plug-In . SVG Version: 6.00 Build 0)  -->
<svg version="1.1" id="Layer_1" xmlns="http://www.w3.org/2000/svg" xmlns:xlink="http://www.w3.org/1999/xlink" x="0px" y="0px"
	 viewBox="0 0 2000 2000" style="enable-background:new 0 0 2000 2000;" xml:space="preserve">
<g>
	<path d="M1861.2,764.6c-85.5-33-163.8-83-229.7-146.8c-62.8-60.8-136.4-145.2-152-233.6c-0.3-1.7-1.3-2.8-2.5-3.4
		c-9.8-68.1-17.7-136.5-24.9-204.9c-0.3-3.3-5.5-3.4-5.2,0c0,0.5,0.1,1,0.1,1.5c-0.2,0.1-0.4,0.3-0.5,0.6
		c-2.5,16.4-4.4,32.9-6.1,49.4c-0.4,0.5-0.7,1.1-0.7,2c0.1,1.3,0.1,2.5,0.1,3.8c-1.3,13.5-2.4,26.9-3.5,40.4
		c-8.1-12.3-22-22.1-38.4-21.8c-27.7,0.5-54.2,11.8-70.8,34c-19.9,26.6-24.4,60.9-44.7,87.4c-5.1,6.6,4.9,16.2,11.4,11.4
		c37.8-27.5,84.3-37.9,123.4-62.5c6.5-0.7,11.7-2.5,15.7-5.1c-1,12-2,24-3.3,36c-3.3,31.5-10.4,60.8-19.1,91.1
		c-7.8,27.2-11.7,59.7-32.7,80.2c-0.5,0.5-1,1-1.4,1.6c-0.6-2.2-1.2-4.3-1.7-6.5c-2-7.1-14.2-6-13.3,1.8c0.1,0.7,0.2,1.4,0.3,2.2
		c0,0.1,0,0.3,0.1,0.4c4.2,35.2,15.6,71.6,44.3,94.6c12.5,10,26,14.8,40.1,16.7c-0.5,9.1-0.5,18.1-0.1,27.1
		c-1.2,0.6-2.4,1.4-3.4,2.4c-123-20.6-226.5-92.2-328.9-160.2c-95.6-63.6-212.1-128.1-268.9-231.8c0-0.6,0.1-1.1,0.1-1.7
		c-0.2-4-0.5-8-0.7-12.1c1.6-4.1,1.1-8.1-0.7-11.4c-2.7-43.2-6.4-86.3-8.6-129.5c-0.5-10.2-16.1-10.3-15.9,0
		c-22.5-19.1-69.4-16.5-92-6.9c-44.1-4.7-89.3,64.4-95.7,103.5c-8.4,50.6,42.8,46.3,74.1,30.2c28.6-14.7,57.7-29.9,84-48.3
		c9.2-6.4,21.1-14,29.9-23.5c-0.1,22.7-0.2,45.5-0.2,68.2c-1.3,1.2-2.4,2.6-3.3,4.5c-26.8,56.8-66.9,103.3-108,150.1
		c-41.4,47.2-83.6,93.9-129.2,137.1c-46.1,43.8-95.1,80-155.3,101.8c-58.1,21-121.9,37.4-182.1,15.7c-12.1-4.3-17.3,14.9-5.3,19.2
		c5.5,2,11,3.6,16.6,5.1c0,0.1,0,0.2,0,0.4c9.8,46.7,25.8,90.9,49.6,132.3c24.7,42.9,57.1,80.7,83.2,122.8c3.5,5.7,7,11.5,10.5,17.3
		c0,0,0,0,0,0.1c-15.7,34-56.8,56.1-90.9,66.9c-35.3,11.3-73.8,8.7-108.4,20c-6.5,2.1-14,7.6-15,15c-0.1,1-0.3,1.9-0.4,2.9
		c-2.4,1.5-4.3,4.1-5.3,6.9c-0.7,1-1.2,2.1-1.2,3.5c0,19,5.9,36,15.6,52.4c16.4,27.7,30.6,47.5,33.8,81c2.1,22.4,3.2,43.7,14.2,63.9
		c12.2,22.3,31.9,38.7,48.5,57.6c1.3,1.5,2.5,3.1,3.8,4.6c0.3,1.8,1,3.5,1.9,5.1c-2.3,2.3-3.7,5.6-3.5,10c1.4,30.4-2.4,58.9-5.2,89
		c-1.4,14.7-2,23.1,6.6,35.5c14.7,21.1,31.6,38.4,43.2,62c11,22.3,14.9,45.5,22.8,68.6c1.6,4.7,3.5,8.8,5.7,12.4
		c-18.9,12.9-39.5,18.8-64.8,12.6c-23.6-5.8-49.3-16.3-61.9-38.2c-5.1-8.9-19.1-0.7-13.8,8c30.8,50.6,103.5,59,151.1,29.6
		c16.1,13,39.3,14.4,62.6,15.7c46.4,2.7,106,15.6,150.6-0.6c5.9-2.1,9.9-5.5,12.5-9.5c48.2,6.1,97.1,7.2,145.4,8.8
		c9.5,0.3,18.9,0.5,28.4,0.7c-15.7,29.7-45.9,49.9-80.6,49.3c-23-0.4-40.1-18.1-62.3-11.2c-30,9.3-51,27.8-84.3,27.6
		c-32.4-0.2-61.4-15.6-83.5-38.6c-8.8-9.1-22.9-3.9-26.6,7c-12.8,37.2-87.8,28.4-108.6,7.3c-4.5-4.5-12.8,1.5-9.1,7
		c5.1,7.5,11.8,13.9,19.5,19.2c-21.5,16-50.3,14.1-75.8,12.8c-30.6-1.6-47.7-10.6-61.7-38.6c-6.9-13.8-25.6-5.7-26.7,7.2
		c-3.1,37.7,36.4,59,69,62c36,3.3,80.7-7.4,104.4-36.1c0.4-0.5,0.6-1,0.8-1.4c33.8,17.1,80.5,15,105.9-11.1
		c24.2,19.9,55,32.7,86.2,35.7c-10.1,13.9-20.5,29-35.7,36.8c-19.7,10.1-41.7,7.8-62,0.9c-11.9-4-16.2,13.9-5.1,18.4
		c23,9.4,49.5,13,73.6,5.2c25.7-8.3,43-29.4,61.3-48.1c2.6-2.7,4.5-6.5,5-10.4c18.5,30.7,49.9,49.8,85.7,55.9
		c38.9,6.6,103.1,0.9,130.5-30.7c69.1,67.9,186.8,55.5,262,3.8c39.8,29.2,87.3,10.5,123.2-19.5c18,24.7,46.9,38.2,76.6,46.9
		c35.8,10.6,103,28.6,136.3,5.9c5-3.4,6.4-12,0-15.1c-13.3-6.5-23.3-5.9-38.1-6.1c-23.2-0.3-46-2-68.7-6.7
		c-32.8-6.7-69.2-16.6-88.6-45.2c34.5,11.9,75.7,11,97.2-7.2c3.5-3,4.3-8.3,3.3-12.5c0-0.1-0.1-0.3-0.1-0.4
		c47.5,42.8,115.4,15.1,165-21c31.2,32,92.8,53.2,117.9,6.6c4.1-7.5-1-17-9.8-17.1c-36-0.1-66.3,14.4-90.3-22.1
		c-6.3-9.6-18.5-11.1-27.1-3.5c-40.8,36.3-113,80-159.4,26.1c-6.5-7.5-19.3,2.3-13.8,10.6c2.6,3.8,5.3,7.3,8,10.6
		c-1.1-0.1-2.2,0-3.2,0.3c-28.1,8.4-109.1,7.6-118.1-31.1c-4-16.8-27.6-10-26.2,6c-45.9,45.1-127.9,77-170,8.3c-1.5-2.4-4.2-4.1-7-4
		c-54.6,1.5-126.9,19.5-158.6-39c114,2.1,228.1-0.2,341.9-7.1c69.5-4.2,140.4-7.5,209.3-18.2c26.9-4.1,52.3-11.1,72.7-25
		c13.2,30,58.5,35.2,87.4,31.6c32.1-4,57.6-19,79.1-40.4c8.6,14.3,21.9,25.6,37.9,32.4c25,10.8,67.1,17.5,91.1,1.8
		c5.6-3.7,7-13.6,0-16.8c-19.2-9-40.5-3.3-61.1-6.6c-20.5-3.2-40.4-12.8-50.5-30.5c1.2-1.5,2.3-2.9,3.5-4.4
		c7.6-10.1-7.8-23.3-17-16.7c-6.7-0.8-14.5,5-13.3,13.9c0,0.3,0.1,0.5,0.2,0.8c-16.2,17.5-34.7,31.2-59,37.4
		c-22.6,5.8-69.5,9.7-88.7-9.9c0.3-0.2,0.5-0.4,0.8-0.7c2.6,0.2,5.4-0.2,8.2-1.7c25.2-12.3,34.9-51.2,45.7-75.6
		c13.3-29.7,25.1-60.1,38-89.9c27.1-62.2,59.6-122.5,106.3-172.4c1.3-1.4,2.2-2.9,2.6-4.5c0.2,0,0.4-0.1,0.6-0.1
		c30.7-3.7,25.3-47.6-5.7-42.2c-12.3,2.1-24.5,4.5-36.7,7.2c16-28.3,37.6-53.6,57.3-79.2c27-35,54.2-69.9,79.9-105.8
		c52.7-73.8,100.9-150.9,138.8-233.3C1875.8,769.1,1867.7,762,1861.2,764.6z M1333.4,307.3c10.7-18.8,24.4-30.7,45.9-35.9
		c6.3-1.5,16.2-4.3,22.5-3c10.7,8,17.7,14.7,21.1,20.1c-1.1-0.4-2.3-0.5-3.8-0.1c-18.3,5.1-36.4,12-53.4,20.3
		c-3.8,1.9-0.5,7.4,3.3,5.7c16.7-7.7,33.3-12.4,51.7-14.3c1.7-0.2,3-0.8,3.9-1.7c-1,1.8-2.9,3.3-5.9,4.4c-2.5,1.1-5.1,2.2-7.5,3.4
		c-3.9,1.8-4.9,6-3.8,9.7c-26.2,10.9-53.8,19.3-79.8,30.7c5.1-5.4,10.1-11,15.3-16.4c4.4-4.6-2.2-11-6.9-6.9
		c-5.8,5-11.6,10.2-17.1,15.6C1323.2,328.3,1327.5,317.6,1333.4,307.3z M1775.6,895.2c-31.7-22.3-44-56.9-56.1-93.6
		c-11.7-35.6-23.4-71.2-35.6-106.6c21.5,16.2,44,31.1,67.2,44.7c13.4,11.5,25.9,24.5,35.8,39.2c13.4,19.9,10.4,37.3,10.6,59.7
		c0.1,5.3,3.4,9.3,7.7,11.4C1795.5,865.1,1785.6,880.2,1775.6,895.2z M1745,940c-1.3-0.7-2.8-1.3-4.4-1.6
		c-38.6-8-77.7-20.4-81.4-65.8c-1.4-16.9-2.3-32.5-4-48.1c2-3.3,3.8-6.9,5.4-10.7c1.4-3.3,1.1-6.4-0.2-9c0.9-7.7-3.6-16.3-11.5-18.6
		c-1-4.2-2.1-8.5-3.3-12.8c-1.5-5.4-6.5-9.1-12.1-9.2c-18-0.5-35.4-17.5-51-25c-12.7-6-26.1-10.7-39-16.2
		c-31.8-13.5-55.3-31.4-78.7-56.5c-0.5-7.3-0.8-14.7-0.8-22.1c38.1,51.5,122,42.5,182.5,31.6c16.1,55.1,32.5,110.9,52.9,164.4
		c12.3,32.3,28.9,63.4,58.4,81C1753.6,927.6,1749.3,933.8,1745,940z M1502.7,1024.6c8.8,58.4,14.7,114.8,16.4,173.6
		c0.1,2.1,0.5,3.9,1,5.6c-10-4.3-20-8.8-29.9-13.7c3.4-79.8-1.3-161.3-8.9-241.2c3.3-4.3,6.6-8.7,9.8-13.2
		C1493.4,965.6,1498.3,995.5,1502.7,1024.6z M733.3,701.4c0.5-0.5,0.8-1,1.1-1.6c10.6-7.3,19.6-15.9,27.6-25.4
		c-10.1,25.7-19.4,53.4-21.6,78.7c-0.1,1.5,0.1,2.9,0.6,4.3c-36-1-72-3-107.5,3.1c14.5-7.5,29-15.1,43.3-23.1
		C695.9,726.7,717.8,716.7,733.3,701.4z M848.6,396.3c10.9,16.3,20.5,33.3,32,49.4c9.4,13.2,20.7,24.7,32.6,35.4
		c-20.4,1-40.7,1.7-61.1,2.2c1.5-2.6,2.4-5.9,2.1-9.7C852.6,447.9,850.7,422.1,848.6,396.3z M927,493.3c0.3,0.3,0.6,0.5,0.9,0.8
		c-31.3,14.6-68.1,22.6-101.7,25.9c-33.8,3.3-60.7-8.7-86.7-26.1C802,493.5,864.6,492,927,493.3z M1471.3,720.8
		c0-0.2-0.1-0.4-0.1-0.7c-0.2-1.4-0.4-2.7-0.6-4.1c19.2,15.3,39.9,27.2,64.5,37.2c21.6,8.8,44.5,13.8,65.9,22.2
		c8.6,3.3,14.5,8.5,18.7,14.8c-45.5,7.9-95.2,6.3-141.5,5.6c2.2-21-2-43-5.4-64.1C1473.3,727.9,1472.8,724.2,1471.3,720.8z
		 M1455.9,754.1c-0.2,14.5-4.9,27.4-6.5,41.6c-26.1-0.1-51.9-0.3-77.7-1.1c4.6-9.1,11.1-16.7,14.6-26.7c3.1-8.9,4.6-18.2,5.8-27.5
		c17.9,4.2,35.8,8.1,53.7,12c3.6,0.8,7,0.7,10,0C1455.9,753,1455.9,753.5,1455.9,754.1z M1363,759.6c-3.5,9-10.3,15.3-14.5,23.7
		c-1.9,3.7-1.9,7.4-0.7,10.5c-19.2-0.8-38.4-2-57.8-3.6c-3.6-0.3-4.6,5.5-1.3,6.5c0.2,0.8,0.7,1.6,1.7,2.2
		c33.5,19.6,66.1,42.6,101.9,57.8c8.6,3.7,17.4,6.4,26.4,8.5c-2.8,10.3-5.6,20.6-8.4,30.9c-30.3,24.9-66.9,40.5-104.6,55.3
		c-33.8,13.3-85.3,33.2-124.3,22.5c-21.5-19.3-42.7-38.9-63.7-58.8c-38.6-36.4-91.6-76.8-110.4-128.3c2.4-1.9,5-3.6,7.8-5.2
		c5.6-3.1,7.8-7.9,7.6-12.7c21-4.1,11.4-39.5-9-32.2c-0.9,0.3-1.8,0.5-2.7,0.8c-0.7-0.8-1.6-1.5-2.7-2.2
		c-15.8-10.1-30.9-22.6-48.1-29.9c-24.9-10.6-45.3-15.1-61.2-39.5c-24.5-37.3-43.1-82.9-57.4-124.9c36.4-4.6,73.7-13.7,106.1-30.2
		c45.1,38.5,89.2,78.4,138.7,111.2c86.1,57.1,183.2,88.6,282.5,112.8C1367.5,743.2,1366,751.7,1363,759.6z M1465.1,1053.2
		c-0.5,40.3-3.6,80.5-6.5,120.7c-23.6-12.9-46.7-26.7-68.8-40.4c-3.2-1.9-6.3-4-9.4-5.9c1.2-17.7,2.8-35.4,5.5-52.8
		c1.5-9.5,3.1-19,4.9-28.5c5.3-5.1,10.5-10.3,15.7-15.4c19.6-19.4,39.1-39.2,57.2-60.3C1464.9,998.1,1465.5,1025.7,1465.1,1053.2z
		 M773.1,816.4c5.7-0.2,11.3-0.4,16.8-0.6c0.8,21.6,1.3,43.1,1.7,64.6c-6.7-6.8-13.1-13.7-19.4-20.9
		C772.7,845.1,773,830.7,773.1,816.4z M754.6,837.9c-5.2-6.8-10.1-13.9-14.9-21.1c5.9,0.1,11.7,0.1,17.5,0
		C756.3,823.8,755.4,830.8,754.6,837.9z M814.4,614.2c-0.2,9.3-0.3,18.4-0.6,27.4c-1.2,36.3-3,72.4-2.3,108.7c0,2,0.5,3.8,1.2,5.3
		c-3.4,0.3-6.9,0.6-10.3,0.9c-12.7,1.1-25.4,1.4-38.1,1.3c15.4-22.1,19.6-50.4,27.6-75.9C798.6,661,805.2,636.4,814.4,614.2z
		 M832.7,641.6C832.7,641.6,832.7,641.6,832.7,641.6c3.6,15.3,8.3,30.4,13.6,45.2c11,30.5,25.2,44.3,47.2,63
		c-19.2,0.5-38.1,2-57.1,3.7c0.2-1,0.3-2,0.3-3.2C835.4,714.1,832.8,677.9,832.7,641.6z M915.7,738.6
		c-50.3-31.8-72.7-89.4-80.2-147.1c12.5,31.6,27.5,63.1,45.9,89.8c24.9,36.1,66,42,100.3,63.6c-19.9,3.6-39.9,4.5-60.6,4.6
		C921.8,745.7,920.4,741.6,915.7,738.6z M971.6,811.5c23.9,44.7,65.6,75.4,102.7,109.7c47.9,44.2,96.5,87.9,147.5,128.6
		c20.4,16.2,41.1,32.1,62.3,47.3c-3.2,2.6-6.3,5.2-9.6,7.6c-21.7,16.4-47.1,31.9-74.7,45c-46-17-90.4-37.4-133.2-62.3
		c-50.6-29.4-98.5-63.1-145-98.5c-8.9-57-15.9-114.3-21.7-171.7c11.8,0.3,23.5,0.5,35.2,0.1C947.1,816.9,959.9,815.5,971.6,811.5z
		 M1383.1,1000.6c-24.7,26.3-49.2,52.8-75.9,76.9c-21.6-15.9-42.8-32.5-63.5-49.6c-13.6-11.2-26.9-22.7-40.2-34.3
		c29.4,0.2,60.4-9.4,86.8-18.3c42.7-14.5,79.2-38.5,115.6-63.3C1398,941.4,1390.3,970.9,1383.1,1000.6z M1281.2,1175.9
		c-15.6-4.3-31-9-46.3-14c11.2-5.4,22.3-11.2,33-17.5c14.8-8.7,29-18.4,42.7-28.6c14,9.5,28.3,18.7,42.8,27.5
		c-2.7,15.6-5.5,31.3-8.7,46.8C1323.5,1186.2,1302.2,1181.7,1281.2,1175.9z M1358.7,1113.5c-8.1-5.4-16.2-10.8-24.2-16.4
		c11.2-9.3,22.1-18.8,32.9-28.7c-0.1,0.4-0.2,0.8-0.3,1.2C1364,1084.2,1361.3,1098.8,1358.7,1113.5z M878.7,816.4
		c2.5,50.3,7.2,100.4,14,150.2c-3.1-2.4-6.2-4.8-9.2-7.2c-4.3-3.4-8.5-6.7-12.7-10.1c-4.1-44.6-8-89.1-11.6-133.7
		C865.6,815.9,872.1,816.2,878.7,816.4z M845.5,815.2c2.2,40,4.6,80,7.3,119.9c-4-3.2-7.9-6.5-11.8-9.8
		c-2.4-36.8-4.8-73.6-7.5-110.4C837.5,815,841.5,815.1,845.5,815.2z M819.2,814.9c0.5,31.1,1.2,62.2,1.9,93.3
		c-6.3-5.6-12.6-11.4-18.7-17.2c-2-25.2-4.2-50.4-6.6-75.4c4.5-0.2,8.8-0.3,13.1-0.5C812.4,815,815.8,814.9,819.2,814.9z
		 M821.8,935.6c0.3,14.5,0.7,29,1,43.5c-5.1-4-10.1-8.2-15.1-12.3c-0.9-15.4-1.9-30.7-3-46.1C810.3,925.7,816,930.7,821.8,935.6z
		 M842.8,953c4,3.3,8,6.5,12,9.7c1,14.4,2.1,28.8,3.2,43.2c-4.1-3-8.3-6-12.4-9.1C844.7,982.2,843.8,967.6,842.8,953z M873.2,977.4
		c7.8,6.2,15.7,12.4,23.6,18.5c2.1,13.9,4.3,27.7,6.6,41.6c-8.8-5.8-17.5-11.7-26.1-17.8C875.9,1005.6,874.6,991.5,873.2,977.4z
		 M926.3,1018.6c38.6,29.1,78.1,56.9,119.5,81.9c36,21.8,73.5,40.9,112.1,57.4c-57.3-17.8-113.5-39.7-166.5-67.9
		c-19.7-10.5-39.1-21.7-58.3-33.5C930.7,1043.8,928.4,1031.2,926.3,1018.6z M960.2,1176.4c-7.5-27.7-14.1-55.5-19.9-83.6
		c8.8,5.5,17.7,10.8,26.7,16c48.1,27.7,99.5,50.6,152.6,69.9C1065.4,1192.4,1009.2,1194.3,960.2,1176.4z M1375.9,1195.3
		c1.1-12.5,1.9-25,2.6-37.5c26,14.4,52.1,26.4,78.7,36.9c-0.3,3.9-0.5,7.9-0.8,11.8C1429.5,1202.9,1402.7,1199.4,1375.9,1195.3z
		 M1405.8,976.4c6.2-26.1,13-52.1,19.9-78c9.7-6.6,19.5-13.1,29.6-19.5c1-0.6,1.8-1.4,2.5-2.1c0.9,11.3,1.8,22.5,2.5,33.8
		C1444.2,933.9,1425.5,955.3,1405.8,976.4z M1473.6,874.7c-0.1-0.9-0.4-1.7-0.7-2.4c3.4,0.2,6.8,0.4,10.2,0.5
		c-2.6,5.1-5.3,10.1-8.1,15C1474.6,883.4,1474.1,879,1473.6,874.7z M1432,875.2c0.6-2.3,1.2-4.6,1.8-6.8c0,0,0-0.1,0-0.1
		c1.2,0.2,2.4,0.4,3.5,0.6C1435.6,871,1433.8,873.1,1432,875.2z M721.6,769.9c35.1,2,69.1,1,104.1-0.9c46.9-2.5,94.1,4.8,140.9,4.6
		c-2.7,2.8-4.5,6.2-4.9,10.2c-13.4,7-27.5,8.5-43.5,9.1c-34.4,1.3-68.7-0.3-103.1,1.4c-35,1.7-70.1,4.8-105.1,1.9
		c-31.4-2.6-58.7-12.1-86.4-24.7C656,766.3,688.7,768.1,721.6,769.9z M721.8,816.2c8.2,17.5,18.3,33.4,29.7,48.3
		c-1.7,16.2-3.3,32.3-4.8,48.5c-37.6-35.6-72.6-73.5-104.7-113.4C666.3,810.4,693.9,814.8,721.8,816.2z M771.1,887.8
		c6.7,7.3,13.8,14.5,21,21.4c0.2,15,0.3,30,0.3,45c-7.9-6.8-15.8-13.6-23.5-20.6C769.7,918.2,770.5,903,771.1,887.8z M752,1182.5
		c14.3-20.6,7.6-50.9,8.6-75c1.4-33,2.9-66,4.4-99c0.7-14.6,1.4-29.3,2.2-43.9c8.3,7,16.7,13.9,25.2,20.8
		c-0.2,69.6-1.7,139.1-3.8,209c-14.3-2.6-28.7-4.7-43.1-6.6C748.1,1186.6,750.4,1184.8,752,1182.5z M809.4,999
		c4.7,3.7,9.4,7.4,14.1,11.1c1.4,66.7,2.4,133.4,1.8,200.2c-4.1-3.2-8.4-6-13-8.4C813.9,1134.7,812.7,1066.8,809.4,999z
		 M847.9,1028.9c4.3,3.2,8.5,6.5,12.9,9.7c0.7,7.9,1.3,15.8,1.9,23.7c6.2,71.6,8.1,147.2,20.2,218.8c-1.5-1.9-3-3.7-4.5-5.7
		c-7.4-9.6-14.4-20.1-21.9-30.4c5.3-3,8.9-8.4,8.1-16.2C857.6,1162,852.5,1095.5,847.9,1028.9z M908.2,1303.1
		c-1.5-39-9-78.4-13.5-117.2c-4.9-43.3-9.6-86.6-13.9-129.9c-0.1-1.1-0.2-2.1-0.3-3.2c9.6,6.9,19.4,13.6,29.2,20.2
		c7.7,41.5,16.6,82.8,25.5,124.1c8,37,14.5,77.3,27,113.6c-11.2-0.3-22.9,0.1-34-1.5C920.4,1308.1,913.9,1306,908.2,1303.1z
		 M1001.8,1311.1c-8.9-38.4-24.8-76.1-35.9-114c40,14.5,85.2,12.7,127.1,7.3c21.4-2.8,42.6-7.2,63.5-13
		c57.9,18.9,117.4,33.8,176.8,45.8c-2.9,10.3-6.2,20.5-9.9,30.6c-0.6,1.6-0.9,3-1.1,4.5c-93.7,22.8-189.6,35.8-286.1,38.4
		C1024.8,1311,1013.3,1311.1,1001.8,1311.1z M1369.5,1244.2c11.3,2.1,22.6,4.1,33.9,6c-12.5,3.7-25,7.4-37.5,10.9
		C1367.2,1255.5,1368.4,1249.9,1369.5,1244.2z M1515.2,1216.4c-1.9-1.3-4.2-2.2-7-2.6c-6.3-1-12.7-1.9-19-2.8c0.1-1.5,0.2-3,0.2-4.5
		c9.1,3.2,18.3,6.3,27.7,9.4C1516.4,1216.1,1515.8,1216.3,1515.2,1216.4z M1474.2,848.6c-61.2,3.9-112.6-23.2-166-49.2
		c51.9,7.3,103.4,14.3,155.9,16.2c33.1,1.2,66.3,1.2,99.3,3.7c15.2,1.1,30.3,2.5,45.3,2.5c-13.1,10.9-26.5,20.6-47.9,22.7
		C1532.1,847.3,1503.1,846.8,1474.2,848.6z M1805.1,768.3c13.3,6.4,26.9,12.3,40.7,17.9c-7.2,11.4-14.4,22.9-21.6,34.3
		C1822.9,800.7,1816.1,783.3,1805.1,768.3z M1632.7,652.5c-54.4,16-116,23.1-156.6-16.9c13.9-1.1,28-3.4,41.8-5.3
		c5.5,0.8,11.4-0.6,16-4.8c0.3-0.3,0.7-0.6,1-0.9c-0.1-0.2-0.2-0.3-0.3-0.5c6-6,6.9-15.6,0.3-23.9c-0.3-0.4-0.7-0.8-1-1.2
		c-3.4-4.3-8-6-12.5-5.8c-0.1-0.1-0.2-0.1-0.3-0.2c-1.5-1.2-3.3-1.9-5.2-2.2c3-5.6-16.4-85.2-18.5-94.8c-2-8.9-3.8-17.7-5.6-26.6
		c27.6,61.3,74,117.1,119,162.1C1618,638.7,1625.3,645.7,1632.7,652.5z M1466.6,409.5c3.8,34.7,7.9,69.4,13.7,103.7
		c3.5,20.6,5.8,51.5,14.4,75.2c-8.8-3.1-17.5-6.3-26.1-9.9c-6.9-57.6-2.3-117-6.9-175.1c-3-37.6-6.7-75.2-10.4-112.7
		c0.4-25.1-0.1-50.2-1.1-75C1455.3,280.4,1459.5,345.1,1466.6,409.5z M1420.2,495.9c9.8-34.3,19.4-69.4,24.2-104.8
		c0.4-3,0.7-6.1,1-9.1c0.4,9.2,0.8,18.4,1.2,27.6c1.4,27.5,3.7,55.1,2.8,82.6c-0.9,26.4-4.1,51.7-1.4,77.6
		c-3.9-1.8-7.9-3.5-11.8-5.4c-14.7-7.2-28.6-16.3-42.5-25.4C1409.5,530.1,1415.3,512.9,1420.2,495.9z M1381.6,544.6
		c28.2,26.6,58.5,47.1,92.9,63.5c-5.8,1.3-11.6,2.2-17.3,2.6c-1.9-2.8-5.8-2.1-7.3,0.3c-10.9-0.1-21.6-2.4-31.6-8.5
		C1397.6,589.9,1388.3,567.4,1381.6,544.6z M926.7,387.4c51.9,44.3,105.2,87.1,160.2,127.6c109,80.3,224.4,157.4,357.7,189.3
		c2,0.5,3.9,0.6,5.7,0.5c0.2,1.5,0.4,3.1,0.7,4.6c-124.3-23.7-244.1-50.2-353.3-117.9c-47.7-29.6-94-61.6-138.4-96
		c-0.2-0.9-0.5-1.7-0.9-2.5c5.4-3.5,4-14.6-4.1-14c-5.1,0.3-10.1,0.6-15.2,0.9c-24-19.3-43.5-39.7-60.6-65.5
		c-9.5-14.3-18.5-28.2-31.5-38.7c-2.5-30.8-5.1-61.6-7.7-92.4C861.2,323.5,890.7,356.6,926.7,387.4z M773.2,191.2
		c-25.5,16.5-52.8,30.4-81.4,40.5c-7.9,2.8-19.2,7.2-28.3,6c3.3-1.2,5.7-3.2,9-5.1c4.7-2.7,10-4.6,15-6.7
		c8.2-3.5,16.4-7.1,23.6-12.4c4.4-3.3,0.4-10.7-4.4-7.6c-8.7,5.7-18.1,8-28,10.5c-7.9,2-18.7,3.2-24.2,9.5c-1.4,1.5-1.9,3.3-2,5
		c-1.1-1.8-2.1-3.9-2.7-6.6c-3.1-12.6,12.7-34.5,19.3-44.8c16.5-25.9,42.4-40.4,59.7-64.6c17.1-5.8,37.9-5.8,55.1-0.4
		c13.8,4.3,23.3,15.5,25.6,28c-27,15.2-50,36.3-78.5,49c-2.4,1.1-0.7,5.4,1.8,4.4c26-10.9,50.1-25.8,75.6-37.8
		c-1.7,5-4.6,9.9-9.1,14.3C791.9,179.7,781.7,185.7,773.2,191.2z M719.6,416.1c35-38,69.6-76.5,99.5-118.6
		c-3.1,58.7-4.7,117.7-2.8,176.2c0.1,4.3,1.5,7.8,3.5,10.5c-30.5,0.7-61,1.2-91.4,2.1c-2.8-2-5.6-4-8.4-6.1
		c-11.7-8.7-23.1,11-11.5,19.6c33.9,25.2,66.9,44.8,109.1,43.5c-16.5,20.1-26,44.8-38.3,67.5c-16,29.4-36.4,53.8-57,79.7
		c-19.4,7.2-37.1,20.9-54.3,32.2c-20.4,13.4-40.4,27.5-60.1,41.9c-4.9-1.5-9.5,4.2-5.5,8.4c7.5,7.7,15.9,14,24.9,19.3
		c-2,1.6-3.3,4.1-2.3,6.7c23.3,58.5,70.9,104.9,118.6,145.9c-1.7,19.2-3.4,38.4-5.3,57.5c-3.2,33-6.4,66-9.7,99
		c-2.6,26.4-14,56.6-1.6,81.2c0.7,1.3,1.5,2.4,2.4,3.3c-16.7-2-33.5-3.7-50.2-5.7c-0.1-0.4-0.1-0.7-0.3-1
		c-15.7-39.7-40.4-73.8-59.4-111.7C598,1024,582.1,978,565.6,932.5c-17.2-47.5-33.7-95.2-50.1-142.9
		c-16.4-47.5-41.1-98.5-46.3-148.7c-0.1-0.9-0.3-1.8-0.5-2.6c37.5-19.3,71.9-43.2,100-67.8C622.8,523.1,670.8,469,719.6,416.1z
		 M419.2,903.9c-0.1-2.5-0.3-5-0.5-7.5c10.3-27.2,14.9-59,18.7-88.1c0.7,1.6,1.4,3.2,2.1,4.8c4.1,53.3,10.7,106.5,21.1,158.8
		c-0.9,6.3-2,12.7-3.4,19c-14.8-24.4-29.3-49.1-45-73.1C416.5,915,419.5,910.4,419.2,903.9z M515.9,1135.7c-2.6-0.7-5.2-1.3-7.8-1.9
		c-25.7-5.9-51.8-9.9-77.9-14c12.2-19.1,22.1-39.5,29.7-60.7C476.6,1086.2,494.6,1112.2,515.9,1135.7z M580.6,1141.8
		c-17.2-13-32.5-27.4-46.5-42.7c0-1.6-0.2-3.3-0.7-5c-33.3-129.8-66.9-258.1-79.5-391.6c8,26.1,18.1,51.9,26.5,77.3
		c16.5,49.9,33.3,99.6,49.1,149.7c14,44.4,27.4,89.1,45.1,132.2c15.5,37.9,40.5,73.1,55.2,111.3c-13.7-2.9-27-7-40-11.6
		C590.6,1154.8,588.2,1147.5,580.6,1141.8z M429.7,656.2c-1.4,44.1-5.6,87.9-13.9,131.4c-1.3,7-3,13.9-4.9,20.9
		c-1.2-10.8-2.5-21.5-3.9-32.2c-4.5-34.9-8.3-72.1-20-105.7C401.5,666.7,415.8,661.8,429.7,656.2z M272.1,678.9
		c30.8,5,62.9,3.3,94.6-3.4c2.7,35.7,11.2,71.2,14.7,106.8c3.2,32.6,4,64.4,3.5,96.8c-18.8-24.9-38.5-49.1-55.5-75.3
		C304.5,765.2,285.6,722.9,272.1,678.9z M337.7,1038.2c34.7-17.7,53.5-42,66.9-75.8c13.5,23.5,26.5,47.5,40.2,71.2
		c-9.4,25.5-22.2,50.2-38.2,73.5c-2,2.9-2.5,5.8-2.1,8.5c-17.8-2.9-35.5-6.2-53.1-10.4c-39.6-9.4-78.5-21.4-116.6-35.6
		c10.7-2.8,21.5-5.7,32-8C291.1,1056.4,315.4,1049.5,337.7,1038.2z M319.3,1449.8c-9.8-15.4-4-30.8-2.2-48.2
		c1.1-10,1.6-20.1,1.8-30.1c12.2,26,23.6,52.5,44.4,72c14.5,13.6,33.3,19.8,49.2,31.2c23.1,16.6,31.5,45.7,43.4,70.2
		c12,24.6,28.2,41,48.1,52.4c-15.8,0.6-31.6,1.2-47.4,1.7c-0.6-2.8-1.9-5.3-4.1-7.3c-3.8-16.8-7-33.8-14-49.7
		c-9.2-21-23.1-40.2-35.1-59.6c-4.8-7.7-15.9-1-12,7c16.5,34.1,42,71.1,29.6,110.3c-0.1,0.2-0.1,0.4-0.2,0.6
		c-9.7-0.3-19-2.1-26.5-7.6c-0.9-2.4-3-4.4-5.4-5.2c-1.8-2.1-3.4-4.5-4.8-7.3c-7.4-15-8.9-34.7-15.3-50.6
		C356.5,1498.8,336.7,1476.9,319.3,1449.8z M1161.9,1704.9c-0.7,0.5-1.3,1-1.9,1.7c-22,23.1-59.5,52.3-90,28.1
		c29-6.2,57-22,77.8-44.2C1151.6,1695.7,1156.4,1700.6,1161.9,1704.9z M958.4,1691c19.1,30.4,47.8,44.5,78.4,46.3
		c-72.1,52.8-158.5,41.8-236.2,5.9c-3.1-1.5-6.4-0.9-8.8,0.7c-1.1-0.6-2.3-1.1-3.7-1.2c-35.5-3.6-70.2,19.7-107.4,17.7
		c-31.2-1.7-60.7-14.5-79.6-38.7c12.9-5.3,25.1-12.9,35.9-23.2c10-9.5,4.1-9.3,19-5.8c7.6,1.8,14.8,5.4,22.6,6.9
		c19.2,3.9,39.4,2.6,57.9-3.9c22.4-7.9,39.3-22.8,51.7-41.5C822.4,1711.9,899.9,1721.1,958.4,1691z M1558.1,1291.7
		c-0.5,0.1-1,0.2-1.5,0.4c-109,39.7-225.6,46.6-340.4,55.9c-50.3,4.1-98.6,10.7-148.2,19.4c-56,9.7-113.4-2.2-168.2,15.3
		c-8.5,2.7-5,15.7,3.7,13.4c53.4-13.9,109.4-0.4,163.8-9c57.8-9.2,114.2-15.9,172.6-20.1c99.3-7.1,198.2-16.9,295.2-39.4
		c-10.5,17.6-20.5,35.6-30,54c-12.1,23.3-23.7,47-35.2,70.7c-30.4,2.4-60.6,16.3-90.5,22.3c-37.9,7.6-76.4,12.4-115,15.8
		c-71.1,6.2-143.7,7-215,5.1c-7-0.2-8.9,11.5-1.7,12.5c74.5,10.7,147.4,12.7,222.6,6.8c35-2.7,69.7-7.2,104.3-12.3
		c23.6-3.5,49.8-4.5,74.2-9.6c-4,6.9-8.2,14-12.1,21.3c-4,1.2-7.4,3.9-9.5,8.6c-0.2,0.5-0.5,0.8-0.7,1.3c-1.5,0.1-3.1,0.3-4.8,0.7
		c-87.5,22-173.8,36.4-264.4,38.4c-90.1,1.9-179.7-7.8-268.5-22.2c-8.4-1.4-12.2,10.9-3.6,13.1c87.7,21.6,179.4,32.3,271.4,33.8
		c-8.2,0.6-16.3,1.1-24.5,1.7c-114.7,7.1-229.6,9.7-344.4,7.7c-57.4-1-115.2-1.9-172.3-7.2c-28.5-2.6-59.6-5.7-86.5-16.5
		c-6.6-2.7-12.4-6-17.4-9.9c73.6,2.5,146.9,3,220.5,1.7c6.9-0.1,6.9-10.5,0-10.8c-81.7-2.8-163.9-11.4-244.3-25.5
		c-1.1-0.2-2.2-0.2-3.2-0.3c-1.4-2.7-2.8-5.5-4.1-8.3c-1.6-3.3-3.1-6.5-4.7-9.6c37,1.9,73.8,7.4,111,7.2c44.4-0.2,88.8-4.1,133-7.7
		c10.3-0.8,10.6-16.8,0-16.3c-40.3,1.8-80.6,3.5-121,3c-44.1-0.6-94.3,0.4-135.3-17.6c-2.7-1.2-5.2-1.7-7.5-1.8
		c-11.8-16-26.4-28.9-48.1-40.1c-42.2-21.6-54.3-58.3-75.1-95.9c29.3,6.6,57.9,16.8,87.6,21.9c34.9,5.9,70.2,9.7,105.3,14.2
		c73.1,9.4,150.9,26.9,224.3,19.5c7.5-0.8,7.8-12,0-11.9c-36.5,0.3-74.5-10.8-110.3-17c-38.8-6.8-77.5-13.5-116.3-20
		c-35.1-5.9-70.7-10.6-105.4-18.5c-35.7-8.1-69.4-22.7-105.6-28.4c-2.9-0.5-5.6-0.3-7.9,0.1c-6.7-7.5-13.8-14.7-20.7-22.1
		c-21-22.3-28.4-41.6-33-66.3c81.2,32.8,166.5,55.1,252,73.6c44,9.5,88.3,18,132.6,26.1c41.7,7.6,87.2,16.6,129.3,8.5
		c8.5-1.6,9-16.4,0-17.7c-170.2-23.9-350.5-58.8-503.2-141.6c-8-4.3-15.4-4.5-21.5-2.2c-11.9-29.7-35-52.9-47-82.3
		c87.7,36.3,176.9,57.6,270.6,73.2c48.3,8.1,89.4,29.3,135.9,42.2c14.3,4,29,6.9,43.9,9.3c6,4.6,14.3,5.3,21.5,3.1
		c30.5,3.9,61.4,6.3,91.2,10.5c33,4.6,53,12.5,72.9,41c12.5,18,25,36.6,39.4,53.2c29.3,33.6,72.2,30.6,113.4,31.4
		c103,2,206.1-7.7,306.9-28.7c88.6-18.5,173.9-47.5,261.7-66.9c7.2,1.4,14.9,0.2,21.1-4.5c10.7-2.2,21.5-4.1,32.4-5.9
		C1586.8,1253.1,1571.8,1272,1558.1,1291.7z M1607.7,1109c-18.9,19.8-37.2,39.6-53.5,61.1c-11-92.5-29.2-183.9-37.3-276.8
		c0.9-1.8,1.9-3.7,2.8-5.5c2.4-4.9,2.6-9.6,1.4-13.8c37.5,0.6,78.5-2,108-21.9c-1.2,31.8-6.7,58.4,17.3,84.8
		c19.8,21.8,46.5,31.7,74.5,36.5c-6.3,8.5-12.6,17-19.1,25.4C1672.4,1037.3,1641.1,1074,1607.7,1109z"/>
	<path d="M1431.2,1414.4c-0.1-9.9-5.8-34,7.8-37.8c12.4-3.4,9.5,23.6,9.8,30c0.6,12.6,19.3,10.5,17.3-2.3
		c-2.4-15.5-5-44.2-27.4-41.3c-25.5,3.3-20.9,33.6-20.4,51.5C1418.6,1422.6,1431.3,1422.7,1431.2,1414.4z"/>
	<path d="M1312,1428.5c0.4-6.7,0.8-13.3,1-20c0.1-2.7-0.6-9.2,1.7-11.3c3.6-3.4,8.3-0.3,10.7,2.6c8.2,9.6,3.4,25.2,7.5,36.4
		c3.1,8.5,14.8,6.9,15.5-2.1c0.9-10.3-2.5-23.9-6.6-33.5c-3.5-8.4-9.8-15.9-19.1-17.7c-8.7-1.7-17.6,2.5-21.1,10.7
		c-4.2,10.2-1.4,24.3-0.8,34.9C1301.5,1435.5,1311.5,1435.5,1312,1428.5z"/>
	<path d="M1170,1451.8c1.1-7.1,1.9-14.3,3.3-21.4c0.7-3.6,1.5-7.1,2.6-10.6c1.1-3.7,0.6-4.9,4.1-1.9c4.4,3.8,7.7,8.6,9.5,14.2
		c1.8,5.6,0.6,10.9,1.2,16.6c0.7,6.6,10.3,11.1,13.9,3.8c8.4-17.3-4.7-42.5-21.2-50.2c-24.8-11.6-25.7,34.6-24.1,48.1
		C1159.9,1455.8,1169,1458.5,1170,1451.8z"/>
	<path d="M1042.2,1460.3c-1.2-5.6-2.3-11.5-1.7-17.2c0.4-3.6,2.3-12.8,6.7-13.9c5.1-1.2,6.8,11.6,7.5,14.6
		c1.3,5.9,1.3,11.7,4.4,16.9c2.9,4.9,11,4.1,12.4-1.6c2.4-9.6-1.9-23.5-6-32.4c-3.8-8.2-11.6-14.7-21.2-12.5
		c-21.3,5-19.4,33.8-15.3,49.6C1031.3,1472.5,1044,1468.8,1042.2,1460.3z"/>
	<path d="M867,1441.1c-6.5,9.1-2.8,23.7,0.2,33.3c1.7,5.5,11.1,4.9,10.6-1.4c-0.4-4.4-0.5-8.9-0.6-13.3c0-2.7-1-7.1,0.2-9.4
		c1.4-2.7,4.9-3.7,7.6-4.2c5.2-1.1,8.4,0.7,10.1,5.5c4,11.8,0.1,26.8,7.9,36.7c2.6,3.3,9.3,2.4,11-1.4c4.7-10.4-0.9-25-3.9-35.6
		c-2.6-9.3-7.4-17.8-17.8-19.3C883.8,1430.7,872.2,1433.9,867,1441.1z"/>
	<path d="M715.5,1420.4c-8.2-0.9-16.6,3.5-19.3,11.6c-3.5,10.4,1.5,24.7,4,34.8c0.9,3.6,6.1,2,5.5-1.5c-1.4-7.8-6-40.3,11.4-32.3
		c13.6,6.2,5.9,21.6,10.3,32c1.8,4.3,8.3,6.5,10.9,1.4c4.6-9,1.6-23.7-3.1-32.3C731.1,1427,723.8,1421.3,715.5,1420.4z"/>
	<path d="M553.7,1411c-26.4-2.4-19.2,34.4-18.6,50.4c0.2,6.9,10.9,6.9,10.8,0c-0.2-6.9-0.3-13.9-0.3-20.8c0-5.9-1.9-20.2,7.8-18.2
		c15.3,3.2,10.9,23.6,9.9,34.2c-0.7,8.1,12.2,9.7,14.1,1.9C581.7,1440.2,576.5,1413.1,553.7,1411z"/>
</g>
</svg>
