<svg xmlns="http://www.w3.org/2000/svg" xmlns:xlink="http://www.w3.org/1999/xlink" width="1000" zoomAndPan="magnify" viewBox="0 0 750 749.999995" height="1000" preserveAspectRatio="xMidYMid meet" version="1.0"><defs><clipPath id="id1"><path d="M 364 82.546875 L 372 82.546875 L 372 506 L 364 506 Z M 364 82.546875 " clip-rule="nonzero"/></clipPath></defs><path fill="#000000" d="M 27.351562 466.496094 L 42.117188 513.472656 L 34.730469 513.472656 L 48.835938 561.808594 L 63.839844 561.808594 C 63.839844 561.808594 113.261719 655.785156 150.28125 655.785156 C 178.074219 655.785156 261 667.507812 329.023438 651.792969 C 422.699219 630.144531 508.523438 636.214844 541.8125 636.214844 C 575.363281 636.214844 612.277344 530.6875 637.328125 510.554688 C 662.382812 490.421875 703.019531 466.246094 703.019531 466.246094 L 722.804688 446.113281 L 603.019531 468.335938 L 547.257812 503.828125 C 547.257812 503.828125 279.25 506.511719 240.316406 505.179688 C 225.546875 479.660156 213.464844 482.964844 213.464844 482.964844 L 91.796875 482.964844 L 68.96875 466.496094 L 27.351562 466.496094 " fill-opacity="1" fill-rule="nonzero"/><path fill="#000000" d="M 305.789062 314.117188 C 305.789062 314.117188 388.328125 325.78125 429.824219 336.53125 C 455.542969 364.445312 448.390625 390.582031 438.078125 418.222656 C 360.5 379.449219 310.160156 411.941406 310.160156 411.941406 C 310.160156 411.941406 331.453125 348.765625 305.789062 314.117188 " fill-opacity="1" fill-rule="nonzero"/><path fill="#000000" d="M 318.203125 233.058594 C 318.203125 233.058594 334.242188 278.625 326.539062 310.054688 C 363.125 298.511719 387.519531 312.6875 413.828125 321.667969 C 422.253906 277.402344 405.214844 258.132812 405.214844 258.132812 C 405.214844 258.132812 371.339844 240.804688 318.203125 233.058594 " fill-opacity="1" fill-rule="nonzero"/><path fill="#000000" d="M 329.5625 221.847656 C 329.5625 221.847656 340.089844 186.042969 323.238281 160.757812 C 368.882812 171.292969 387.839844 182.523438 393.460938 190.25 C 399.070312 197.976562 408.59375 216.839844 403.992188 232.824219 C 374.503906 214.574219 329.5625 221.847656 329.5625 221.847656 " fill-opacity="1" fill-rule="nonzero"/><g clip-path="url(#id1)"><path fill="#000000" d="M 365.519531 82.472656 L 364.222656 122.390625 L 364.222656 505.449219 L 371.664062 505.449219 L 371.664062 122.390625 L 369.074219 82.472656 L 365.519531 82.472656 " fill-opacity="1" fill-rule="nonzero"/></g><path fill="#000000" d="M 196.28125 505.449219 L 188.851562 505.449219 L 188.851562 203.109375 L 196.28125 203.109375 L 196.28125 505.449219 " fill-opacity="1" fill-rule="nonzero"/><path fill="#000000" d="M 194.425781 319.8125 C 194.425781 319.8125 208.664062 413.277344 185.140625 456.59375 C 107.15625 407.082031 47.152344 420.0625 47.152344 420.0625 C 47.152344 420.0625 121.523438 318.019531 120.285156 286.246094 C 164.179688 304.140625 194.425781 319.8125 194.425781 319.8125 " fill-opacity="1" fill-rule="nonzero"/><path fill="#000000" d="M 194.425781 319.8125 C 194.425781 319.8125 222.4375 233.949219 193.652344 203.109375 C 145.359375 245.632812 120.285156 286.246094 120.285156 286.246094 C 120.285156 286.246094 178.640625 285.453125 194.425781 319.8125 " fill-opacity="1" fill-rule="nonzero"/><path fill="#000000" d="M 437.625 225.210938 L 646.011719 462.925781 C 646.011719 462.925781 534.207031 392.644531 497.902344 410.792969 C 487.996094 357.164062 437.625 225.210938 437.625 225.210938 " fill-opacity="1" fill-rule="nonzero"/><path fill="#000000" d="M 457.46875 240.804688 L 700.230469 451.058594 C 700.230469 451.058594 604.359375 390.992188 553.191406 390.164062 C 529.257812 313.925781 457.46875 240.804688 457.46875 240.804688 " fill-opacity="1" fill-rule="nonzero"/><path fill="#000000" d="M 392.277344 125.285156 L 343.609375 125.285156 L 355.988281 165.289062 L 379.894531 165.289062 L 392.277344 125.285156 " fill-opacity="1" fill-rule="nonzero"/><path fill="#000000" d="M 698.765625 452.75 L 366.496094 166.980469 L 369.398438 163.597656 L 701.675781 449.371094 L 698.765625 452.75 " fill-opacity="1" fill-rule="nonzero"/><path fill="#000000" d="M 196.8125 208.464844 L 195.75 204.128906 L 363.691406 163.128906 L 364.753906 167.457031 L 196.8125 208.464844 " fill-opacity="1" fill-rule="nonzero"/><path fill="#000000" d="M 437.25 435.132812 L 301.910156 427.300781 L 301.910156 421.9375 L 437.25 429.777344 L 437.25 435.132812 " fill-opacity="1" fill-rule="nonzero"/><path fill="#000000" d="M 301.910156 427.300781 C 301.910156 427.300781 336.996094 446.484375 364.222656 430.910156 C 351.421875 472.273438 309.753906 457.011719 301.910156 427.300781 " fill-opacity="1" fill-rule="nonzero"/><path fill="#000000" d="M 371.664062 431.335938 C 371.664062 431.335938 410.398438 449.585938 437.625 434.011719 C 424.816406 475.367188 379.503906 461.050781 371.664062 431.335938 " fill-opacity="1" fill-rule="nonzero"/><path fill="#000000" d="M 367.183594 93.039062 C 366.128906 91.636719 364.710938 90.574219 362.757812 90.269531 C 359.28125 89.722656 355.746094 91.75 352.964844 93.589844 C 349.453125 95.914062 346.363281 98.886719 343.425781 101.882812 C 342.398438 102.9375 341.421875 104.027344 340.472656 105.140625 C 337.875 108.183594 334.914062 108.496094 332.019531 107.1875 C 332.4375 106.867188 332.324219 105.941406 331.59375 105.917969 C 329.992188 106.046875 328.945312 105.195312 328.476562 103.355469 C 328.378906 102.9375 327.917969 102.824219 327.578125 102.988281 C 326.566406 103.46875 325.78125 103.390625 324.851562 103.277344 C 325.023438 101.753906 325.007812 100.261719 324.773438 98.710938 C 324.695312 98.222656 324.039062 98.15625 323.726562 98.441406 C 322.097656 99.964844 320.929688 101.832031 319.761719 103.730469 C 319.449219 104.226562 319.851562 104.976562 320.460938 104.941406 C 321.941406 104.863281 324.449219 105.246094 323.308594 107.328125 C 322.113281 109.496094 318.855469 107.570312 318.457031 105.976562 C 317.742188 103.207031 313.167969 103.625 311.679688 101.371094 C 311.460938 101.039062 310.867188 100.949219 310.675781 101.371094 C 309.761719 103.363281 308.429688 104.933594 306.554688 106.089844 C 305.136719 106.972656 303.453125 107.144531 301.910156 106.492188 C 301.527344 106.335938 301.171875 106.082031 300.917969 105.828125 C 300.988281 105.445312 301.207031 105.019531 301.632812 104.496094 C 301.972656 104.078125 301.648438 103.574219 301.136719 103.644531 C 300.421875 103.746094 299.777344 103.9375 299.15625 104.304688 C 298.921875 104.445312 298.800781 104.777344 298.964844 105.019531 C 299.253906 105.4375 299.558594 105.785156 299.882812 106.109375 C 299.890625 107.859375 302.164062 108.730469 304.550781 108.976562 C 306.546875 109.183594 308.558594 109.054688 310.554688 109.042969 C 313.839844 109.035156 316.382812 111.917969 317.382812 114.820312 C 317.453125 115.011719 317.601562 115.210938 317.820312 115.257812 C 319.476562 115.542969 321.339844 114.339844 322.0625 116.980469 L 322.203125 117.214844 C 320.765625 117.765625 319.160156 117.25 317.523438 116.867188 C 317.183594 116.789062 316.714844 117.035156 316.765625 117.441406 C 317.316406 121.703125 321.164062 122.84375 324.988281 122.242188 C 327.558594 121.84375 329.894531 120.996094 332.160156 119.75 C 334.015625 118.742188 335.757812 117.609375 337.746094 116.851562 C 340.078125 115.9375 342.164062 116.78125 344.417969 117.398438 C 350.585938 119.070312 352.53125 112.03125 356.6875 109.324219 C 359.902344 107.222656 363.578125 107.789062 365.511719 111.023438 C 366.171875 112.128906 366.6875 113.320312 367.183594 114.523438 L 367.183594 93.039062 " fill-opacity="1" fill-rule="nonzero"/><path fill="#000000" d="M 236.742188 512.539062 L 291.414062 512.539062 L 359.789062 211.636719 Z M 294.976562 517 L 230.09375 517 L 365.878906 184.953125 L 370.121094 186.285156 L 294.976562 517 " fill-opacity="1" fill-rule="nonzero"/><path fill="#000000" d="M 256.371094 512.539062 L 272.585938 512.539062 L 344.785156 258.976562 Z M 275.949219 517 L 250.089844 517 L 365.84375 185.058594 L 370.085938 186.398438 L 275.949219 517 " fill-opacity="1" fill-rule="nonzero"/><path fill="#000000" d="M 376.628906 468.335938 L 359.265625 468.335938 L 359.265625 507.96875 L 376.628906 507.96875 L 376.628906 468.335938 " fill-opacity="1" fill-rule="nonzero"/><path fill="#000000" d="M 370.859375 519.492188 L 368.132812 515.964844 L 512.347656 392.332031 L 515.25 395.722656 L 405.484375 489.820312 L 559.359375 382.15625 L 561.914062 385.816406 L 370.859375 519.492188 " fill-opacity="1" fill-rule="nonzero"/><path fill="#000000" d="M 198.121094 192.355469 C 197.957031 191.476562 196.839844 191.554688 196.414062 192.128906 C 193.679688 195.9375 186.691406 194.222656 182.875 193.707031 C 179.109375 193.210938 175.835938 193.238281 172.113281 194.101562 C 168.402344 194.972656 165.765625 197.496094 163.804688 200.625 C 161.546875 204.242188 158.558594 208.089844 153.671875 207.375 C 151.398438 207.046875 149.429688 204.964844 147.703125 203.605469 C 144.425781 201.015625 136.246094 197.234375 133.242188 202.445312 C 131.339844 205.703125 133.773438 208.667969 128.34375 207.890625 C 125.042969 207.421875 122.75 207.472656 120.503906 210.121094 C 119.902344 210.828125 120.667969 212.003906 121.539062 211.460938 C 127.074219 208.03125 130.355469 211.132812 134.066406 214.625 C 135.132812 215.628906 136.324219 215.886719 137.71875 215.914062 C 138.652344 215.933594 140 215.15625 140.550781 214.425781 C 140.996094 213.839844 141.371094 213.328125 141.597656 212.628906 C 142.171875 210.84375 145.804688 206.898438 146.796875 210.800781 C 147.128906 212.097656 148.148438 212.742188 149.191406 213.476562 C 152.269531 215.652344 155.34375 213.953125 157.679688 218.433594 C 159.1875 221.308594 162.921875 221.636719 165.214844 219.566406 C 166.417969 218.46875 166.582031 215.800781 167.167969 214.433594 C 167.976562 212.535156 174.257812 204.257812 176.21875 209.136719 C 176.863281 210.738281 176.621094 214.050781 178.972656 214.449219 C 183.457031 215.226562 189.09375 208.1875 192.964844 211.445312 C 195.4375 213.519531 196.25 213.136719 197.25 209.570312 L 197.257812 209.128906 C 197.894531 203.4375 199.15625 198.074219 198.121094 192.355469 " fill-opacity="1" fill-rule="nonzero"/><path fill="#000000" d="M 34.269531 633.777344 C 34.269531 633.777344 36.777344 634.414062 41.480469 635.46875 C 46.195312 636.539062 53.140625 637.90625 61.972656 639.554688 C 70.816406 641.164062 81.601562 642.847656 93.972656 644.570312 C 106.355469 646.242188 120.363281 647.75 135.644531 649.074219 C 150.933594 650.347656 167.523438 651.199219 185.0625 651.707031 C 202.597656 652.160156 221.085938 651.90625 240.175781 651.253906 C 259.273438 650.566406 278.953125 648.910156 298.871094 646.757812 C 308.820312 645.632812 318.832031 644.316406 328.859375 642.847656 C 333.886719 642.191406 338.886719 641.304688 343.894531 640.484375 L 359.140625 637.96875 C 364.1875 637.105469 369.371094 636.390625 374.570312 635.675781 C 379.765625 634.917969 384.921875 634.308594 390.0625 633.707031 C 395.210938 633.054688 400.351562 632.539062 405.484375 632.070312 C 410.613281 631.546875 415.738281 631.164062 420.835938 630.761719 C 441.238281 629.175781 461.347656 628.460938 480.785156 628.289062 C 500.230469 628.085938 519.003906 628.628906 536.777344 629.445312 C 545.664062 629.875 554.296875 630.308594 562.644531 630.9375 C 570.984375 631.5625 579.042969 632.253906 586.761719 632.984375 C 602.199219 634.378906 616.3125 636.101562 628.789062 637.800781 C 641.273438 639.429688 652.113281 641.214844 661.015625 642.734375 C 669.929688 644.214844 676.882812 645.652344 681.628906 646.59375 C 686.367188 647.558594 688.886719 648.152344 688.886719 648.152344 C 688.886719 648.152344 686.308594 647.960938 681.488281 647.601562 C 676.671875 647.289062 669.597656 646.835938 660.605469 646.261719 C 651.617188 645.710938 640.691406 645.207031 628.179688 644.605469 C 615.667969 644.066406 601.546875 643.621094 586.160156 643.21875 C 578.464844 643.027344 570.453125 642.914062 562.15625 642.878906 C 553.863281 642.8125 545.296875 642.714844 536.5 642.777344 C 518.882812 642.855469 500.335938 643.34375 481.183594 644.117188 C 462.035156 644.917969 442.285156 646.207031 422.289062 648.019531 C 417.289062 648.484375 412.269531 648.9375 407.261719 649.527344 C 402.234375 650.085938 397.199219 650.609375 392.171875 651.269531 C 387.136719 651.890625 382.089844 652.507812 377.117188 653.265625 C 372.125 653.960938 367.121094 654.703125 362.007812 655.566406 L 346.78125 658.003906 C 341.640625 658.816406 336.515625 659.703125 331.375 660.347656 C 321.105469 661.839844 310.824219 662.925781 300.621094 663.9375 C 280.21875 665.925781 260.039062 666.714844 240.542969 666.917969 C 221.035156 667.152344 202.191406 666.28125 184.390625 664.949219 C 166.574219 663.675781 149.820312 661.585938 134.441406 659.199219 C 119.058594 656.882812 105.074219 654.058594 92.761719 651.253906 C 80.445312 648.492188 69.832031 645.546875 61.15625 642.984375 C 52.46875 640.441406 45.761719 638.0625 41.203125 636.441406 C 36.648438 634.796875 34.269531 633.777344 34.269531 633.777344 " fill-opacity="1" fill-rule="nonzero"/></svg>