<svg xmlns="http://www.w3.org/2000/svg" xmlns:xlink="http://www.w3.org/1999/xlink" width="1000" zoomAndPan="magnify" viewBox="0 0 750 749.999995" height="1000" preserveAspectRatio="xMidYMid meet" version="1.0"><defs><clipPath id="id1"><path d="M 48 40.015625 L 669 40.015625 L 669 682.015625 L 48 682.015625 Z M 48 40.015625 " clip-rule="nonzero"/></clipPath></defs><g clip-path="url(#id1)"><path fill="#000000" d="M 273.238281 54.308594 C 268.507812 54.410156 261.71875 51.328125 264.082031 47.316406 C 293.09375 44.847656 322.003906 42.484375 351.015625 40.015625 C 351.941406 56.058594 352.867188 71.996094 353.894531 88.039062 C 388.050781 74.363281 428.066406 95.546875 448.746094 125.984375 C 456.976562 138.121094 463.25 152.621094 461.296875 167.117188 C 458.929688 184.910156 445.042969 198.6875 431.050781 209.898438 C 432.492188 201.363281 421.691406 196.324219 413.046875 195.296875 C 393.191406 192.929688 372.71875 195.5 354.101562 202.804688 C 354.511719 208.871094 355.027344 214.835938 355.4375 220.902344 C 352.558594 216.992188 351.015625 212.160156 351.117188 207.328125 C 348.441406 214.527344 348.03125 222.445312 349.777344 229.953125 C 378.6875 227.277344 407.59375 224.605469 436.402344 221.929688 C 453.789062 220.386719 470.96875 228.613281 483.828125 240.335938 C 496.6875 252.164062 506.046875 267.175781 515.203125 282.089844 C 519.011719 288.363281 525.082031 295.664062 532.28125 293.8125 C 539.6875 291.859375 541.128906 281.574219 538.453125 274.375 C 535.78125 267.175781 530.429688 260.800781 529.710938 253.191406 C 528.886719 245.582031 536.5 236.53125 543.1875 240.234375 C 542.878906 235.195312 544.730469 229.953125 548.332031 226.25 C 548.535156 230.566406 548.84375 234.886719 549.050781 239.207031 C 553.679688 241.160156 558.308594 243.21875 562.9375 245.171875 C 556.664062 261.007812 550.386719 276.84375 544.214844 292.679688 C 570.449219 287.949219 599.664062 283.734375 622.296875 297.925781 C 633.921875 305.226562 642.359375 316.847656 648.019531 329.394531 C 667.5625 373.507812 648.945312 430.992188 607.175781 455.160156 C 611.703125 440.867188 593.289062 430.273438 578.371094 428.421875 C 566.128906 426.984375 552.855469 427.394531 542.671875 434.386719 C 532.488281 441.378906 527.550781 456.804688 535.164062 466.574219 C 573.535156 467.707031 612.113281 461.226562 647.914062 447.652344 C 636.597656 456.804688 622.8125 462.871094 608.410156 465.136719 C 621.476562 465.855469 634.539062 466.574219 647.710938 467.292969 C 667.769531 480.355469 674.457031 510.382812 661.597656 530.640625 C 648.738281 550.898438 618.800781 557.894531 598.328125 545.242188 C 611.496094 547.300781 624.5625 549.355469 637.730469 551.414062 C 639.890625 544.214844 630.015625 540 622.605469 539.175781 C 610.980469 537.839844 598.945312 536.503906 587.835938 540 C 576.722656 543.597656 566.640625 553.367188 566.746094 564.988281 C 566.949219 607.355469 546.582031 649.3125 513.042969 675.332031 C 504.8125 681.707031 493.394531 682.015625 482.902344 682.015625 C 370.046875 681.910156 257.191406 681.808594 144.4375 681.707031 C 138.78125 681.707031 132.605469 681.5 128.390625 677.695312 C 124.171875 673.890625 123.347656 667.71875 123.039062 662.066406 C 121.804688 642.835938 122.421875 623.605469 125.097656 604.578125 C 126.539062 593.886719 128.59375 582.984375 126.023438 572.597656 C 123.554688 562.210938 114.707031 552.441406 104.007812 552.75 C 112.753906 538.972656 107.300781 518.199219 92.898438 510.382812 C 101.023438 503.183594 89.707031 490.226562 79.007812 488.582031 C 68.308594 487.039062 55.449219 488.789062 48.453125 480.457031 C 65.121094 481.484375 81.582031 484.367188 97.628906 489.097656 C 100.304688 475.523438 101.847656 461.742188 102.363281 447.859375 C 109.046875 445.183594 116.457031 444.464844 123.554688 445.597656 C 120.46875 440.96875 118.511719 435.519531 118.101562 429.964844 C 117.894531 426.367188 118.410156 422.355469 121.1875 420.09375 C 123.964844 417.832031 129.316406 419.269531 129.316406 422.871094 C 129.210938 418.757812 129.007812 414.644531 128.902344 410.53125 C 107.195312 416.699219 88.0625 431.40625 76.539062 450.839844 C 73.351562 456.394531 70.675781 462.566406 71.601562 468.835938 C 72.628906 475.109375 78.597656 480.972656 84.871094 479.53125 C 77.261719 478.09375 69.648438 476.753906 62.035156 475.316406 C 92.792969 439.835938 94.027344 388.007812 89.707031 341.320312 C 86.3125 303.992188 79.625 265.121094 56.789062 235.296875 C 82.816406 259.671875 107.300781 285.480469 130.242188 312.835938 C 129.210938 298.75 130.652344 284.558594 134.5625 270.984375 C 133.222656 291.242188 136.3125 311.808594 143.304688 330.832031 C 151.023438 260.082031 135.179688 186.964844 99.070312 125.574219 C 135.078125 162.695312 169.539062 201.261719 202.253906 241.261719 C 202.460938 230.363281 202.664062 219.460938 202.871094 208.664062 C 208.941406 213.496094 207.398438 222.855469 207.5 230.671875 C 207.605469 246.507812 216.964844 260.492188 225.917969 273.449219 C 245.566406 301.9375 265.316406 330.523438 284.96875 359.007812 C 283.835938 329.394531 278.175781 300.085938 268.09375 272.214844 C 263.464844 259.363281 254.925781 244.757812 241.246094 244.863281 C 274.578125 240.027344 307.910156 235.195312 341.136719 230.363281 C 343.195312 223.164062 342.167969 215.144531 338.460938 208.5625 C 319.84375 217.199219 301.222656 225.734375 282.601562 234.375 C 311.714844 225.839844 328.382812 188.921875 315.625 161.359375 C 328.792969 140.277344 324.265625 110.046875 305.542969 93.695312 C 319.328125 92.152344 333.214844 90.609375 347 89.066406 C 349.46875 77.035156 349.058594 64.488281 345.765625 52.664062 C 321.589844 53.175781 297.414062 53.691406 273.238281 54.308594 M 338.460938 547.507812 C 340.933594 545.964844 342.988281 543.496094 343.914062 540.617188 C 338.050781 539.691406 332.085938 538.664062 326.21875 537.738281 C 326.941406 540.101562 323.648438 543.496094 325.808594 544.523438 C 327.25 545.242188 329.101562 543.394531 330.4375 544.214844 C 330.953125 542.054688 332.90625 540.203125 335.171875 539.898438 C 336.300781 542.46875 337.332031 544.933594 338.460938 547.507812 M 468.292969 596.148438 C 466.648438 596.765625 464.792969 598 464.792969 599.746094 C 470.761719 599.128906 476.730469 598.617188 482.695312 598 C 483.621094 598 484.648438 597.894531 485.265625 598.511719 C 488.664062 602.007812 494.421875 602.730469 498.539062 600.15625 C 499.257812 599.027344 497.507812 598 496.273438 597.691406 C 492.570312 597.175781 488.972656 596.558594 485.371094 595.941406 C 479.710938 595.015625 473.746094 594.089844 468.292969 596.148438 M 322.515625 594.605469 C 327.867188 599.128906 336.609375 598.410156 341.242188 593.164062 C 374.265625 599.953125 408.316406 606.84375 441.441406 600.570312 C 439.179688 595.839844 432.390625 596.351562 427.140625 597.074219 C 412.84375 599.230469 398.335938 597.484375 383.933594 595.632812 C 326.632812 587.921875 269.84375 576.609375 213.054688 565.296875 C 236.410156 575.476562 260.894531 583.085938 285.894531 587.921875 C 288.980469 588.539062 292.066406 589.15625 295.050781 589.667969 C 298.03125 590.183594 301.015625 590.800781 303.894531 591.3125 C 310.480469 592.445312 317.375 593.679688 323.648438 591.417969 C 324.265625 589.976562 321.488281 589.359375 320.871094 590.800781 C 320.253906 592.136719 321.386719 593.679688 322.515625 594.605469 M 536.808594 639.234375 C 535.675781 639.03125 534.648438 638.824219 533.515625 638.617188 C 538.453125 637.488281 542.773438 633.992188 544.832031 629.464844 C 532.074219 635.839844 518.1875 640.058594 504.09375 642.113281 C 500.390625 642.730469 496.070312 643.554688 494.527344 646.949219 C 500.492188 646.535156 506.355469 646.125 512.324219 645.714844 C 514.277344 645.507812 516.234375 645.40625 517.980469 644.480469 C 518.496094 645.609375 518.085938 646.949219 517.054688 647.667969 C 523.433594 647.769531 529.8125 646.226562 535.367188 643.144531 C 534.75 641.703125 535.367188 639.851562 536.808594 639.234375 M 219.433594 279.414062 C 214.394531 272.523438 209.351562 265.53125 205.546875 257.921875 C 205.03125 300.90625 205.753906 343.789062 207.605469 386.671875 C 207.808594 390.683594 208.222656 395.207031 211.511719 397.574219 C 210.175781 354.484375 208.839844 311.398438 207.5 268.308594 C 233.425781 305.84375 259.554688 343.585938 290.726562 376.902344 C 266.964844 344.40625 243.199219 311.910156 219.433594 279.414062 M 455.84375 565.195312 C 456.566406 567.148438 457.183594 569.101562 457.800781 570.953125 C 459.238281 568.277344 459.445312 565.089844 458.417969 562.316406 C 460.371094 560.875 462.839844 560.257812 465.105469 560.566406 C 464.28125 567.867188 465.105469 575.273438 467.367188 582.160156 C 471.585938 582.160156 476.109375 581.957031 479.402344 579.28125 C 482.695312 576.710938 483.414062 570.644531 479.710938 568.691406 C 482.488281 568.277344 485.164062 567.96875 487.941406 567.660156 C 488.558594 572.390625 491.441406 576.8125 495.554688 579.179688 C 490.824219 579.179688 486.089844 581.441406 483.003906 585.042969 C 506.5625 585.964844 530.429688 580.722656 551.519531 570.027344 C 550.695312 568.792969 549.875 567.457031 549.050781 566.121094 C 541.746094 571.878906 532.488281 574.964844 523.230469 574.964844 C 524.976562 570.746094 529.195312 567.558594 533.824219 567.046875 C 538.453125 566.53125 542.15625 561.492188 541.230469 556.761719 C 540.304688 552.132812 534.957031 548.945312 530.429688 550.28125 C 528.476562 554.703125 525.183594 558.613281 521.066406 561.183594 C 522.613281 562.929688 525.492188 562.417969 527.34375 561.082031 C 529.296875 559.847656 530.839844 557.894531 533.105469 557.378906 C 535.265625 556.761719 538.25 558.507812 537.527344 560.667969 C 536.910156 562.929688 533.824219 562.726562 531.457031 562.929688 C 529.195312 563.136719 526.828125 566.324219 528.886719 567.25 C 524.773438 566.324219 520.347656 570.851562 521.375 574.964844 C 516.4375 576.09375 511.5 577.328125 506.5625 578.460938 C 505.019531 576.199219 504.09375 573.523438 503.886719 570.746094 C 501.625 573.832031 497.714844 575.476562 494.011719 575.066406 C 491.644531 571.570312 490.71875 567.148438 491.542969 562.929688 C 486.914062 561.183594 481.152344 562.417969 477.65625 566.015625 C 480.433594 568.074219 481.050781 572.390625 479.09375 575.066406 C 477.039062 577.738281 472.820312 578.460938 470.042969 576.503906 C 467.46875 572.90625 468.601562 567.765625 471.378906 564.472656 C 474.15625 561.183594 478.273438 559.230469 482.179688 557.378906 C 456.152344 560.976562 429.714844 561.59375 403.480469 559.433594 C 402.964844 557.277344 401.527344 555.21875 399.675781 553.984375 C 400.292969 557.378906 401.628906 560.667969 403.480469 563.445312 C 414.796875 563.855469 426.113281 564.269531 437.429688 564.578125 C 438.253906 564.679688 439.074219 564.679688 439.898438 564.679688 C 445.25 564.886719 450.496094 564.988281 455.84375 565.195312 M 546.992188 496.910156 C 541.539062 497.734375 535.984375 498.660156 530.53125 499.480469 C 531.046875 497.527344 531.457031 495.574219 531.871094 493.621094 C 544.9375 490.84375 558 487.964844 570.964844 485.1875 C 572.300781 483.851562 573.226562 482.207031 573.945312 480.457031 C 559.132812 484.367188 544.316406 488.273438 529.503906 492.179688 C 528.269531 494.445312 529.503906 497.425781 531.148438 499.585938 C 532.796875 501.746094 534.855469 503.699219 535.472656 506.269531 C 537.734375 517.273438 539.996094 528.171875 542.261719 539.074219 C 544.214844 537.738281 545.449219 535.371094 545.347656 532.902344 C 555.839844 527.246094 560.882812 513.363281 556.5625 502.363281 C 555.632812 499.996094 554.089844 497.632812 551.726562 496.910156 C 550.183594 496.398438 548.535156 496.601562 546.992188 496.910156 M 390.210938 525.191406 C 390.621094 532.902344 393.5 540.511719 398.234375 546.683594 C 405.125 546.167969 413.769531 544.320312 415.3125 537.632812 C 416.648438 532.390625 413.460938 524.882812 418.292969 522.515625 C 420.558594 528.996094 421.277344 535.988281 420.25 542.671875 C 424.777344 539.074219 429.199219 535.371094 433.625 531.667969 C 441.648438 525.191406 449.773438 518.402344 455.125 509.558594 C 461.089844 499.6875 463.148438 487.554688 460.679688 476.242188 C 445.25 467.398438 427.140625 463.902344 409.34375 463.695312 C 391.546875 463.488281 373.851562 466.472656 356.363281 469.96875 C 355.128906 470.175781 353.792969 470.484375 352.867188 471.410156 C 351.734375 472.640625 351.734375 474.492188 351.734375 476.140625 C 351.835938 487.964844 351.941406 499.789062 352.042969 511.617188 C 364.800781 513.261719 377.554688 515.011719 390.414062 516.65625 C 390.210938 519.535156 390.105469 522.3125 390.210938 525.191406 M 212.4375 399.320312 C 212.542969 417.007812 212.953125 434.800781 213.671875 452.488281 C 213.878906 455.570312 214.085938 458.964844 216.453125 461.023438 C 217.789062 462.359375 219.742188 462.871094 221.492188 463.285156 C 231.675781 465.957031 241.863281 468.632812 252.046875 471.304688 C 255.441406 472.128906 256.882812 476.140625 256.882812 479.53125 C 256.882812 483.027344 255.957031 486.523438 256.882812 489.816406 C 258.628906 489.507812 259.554688 487.757812 260.378906 486.113281 C 270.460938 464.929688 277.867188 442.511719 282.292969 419.578125 C 282.808594 417.007812 283.117188 414.128906 281.46875 412.277344 C 280.542969 411.148438 279 410.53125 277.664062 410.117188 C 256.675781 403.023438 234.558594 399.320312 212.4375 399.320312 M 134.460938 435.109375 C 134.355469 439.941406 138.058594 445.492188 142.792969 444.464844 C 151.125 442.71875 159.664062 445.082031 167.789062 447.449219 C 180.753906 451.148438 193.613281 454.953125 206.574219 458.65625 C 206.265625 439.324219 205.855469 419.992188 205.546875 400.554688 C 195.566406 403.230469 187.027344 393.664062 181.0625 385.335938 C 168.511719 367.75 155.34375 350.679688 141.351562 334.226562 C 139.910156 336.179688 141.453125 338.855469 142.996094 340.703125 C 155.546875 356.851562 168.203125 372.890625 180.753906 389.039062 C 184.25 393.460938 187.75 397.984375 192.171875 401.582031 C 197.109375 405.695312 203.902344 410.941406 201.535156 417.007812 C 198.652344 412.894531 194.4375 409.808594 189.804688 408.0625 C 180.238281 404.460938 169.4375 406.929688 159.765625 410.222656 C 153.800781 412.277344 147.832031 414.746094 142.996094 418.757812 C 138.058594 422.871094 134.460938 428.730469 134.460938 435.109375 M 556.355469 607.5625 C 535.984375 624.941406 507.589844 628.539062 480.84375 630.597656 C 392.78125 637.28125 300.914062 633.375 221.390625 595.015625 C 202.355469 585.863281 184.148438 574.757812 164.292969 567.558594 C 206.265625 596.765625 254.207031 617.332031 304.410156 627.410156 C 313.773438 629.261719 323.339844 630.804688 332.804688 632.140625 C 394.941406 640.570312 458.3125 639.339844 520.039062 628.644531 C 534.546875 626.074219 551.109375 621.238281 556.355469 607.5625 M 208.324219 663.8125 C 221.902344 669.984375 236.820312 673.066406 251.636719 674.507812 C 267.167969 676.050781 282.703125 676.050781 298.339844 676.050781 C 354.921875 675.84375 411.503906 675.742188 468.085938 675.535156 C 478.785156 675.535156 489.589844 675.535156 499.773438 672.554688 C 510.058594 669.675781 519.832031 663.503906 524.773438 654.042969 C 508.105469 669.160156 483.414062 670.1875 460.988281 670.496094 C 434.753906 670.804688 408.625 671.011719 382.492188 671.320312 C 324.367188 672.039062 265.832031 672.65625 208.324219 663.8125 M 298.339844 532.800781 C 262.335938 523.339844 226.429688 513.980469 190.421875 504.519531 C 177.667969 501.128906 164.5 497.835938 151.332031 499.378906 C 141.25 500.613281 131.269531 504.726562 121.289062 503.082031 C 117.382812 502.464844 113.574219 501.023438 109.664062 501.128906 C 105.757812 501.332031 101.4375 504.109375 101.4375 508.019531 C 113.371094 506.679688 125.304688 505.34375 137.238281 505.242188 C 193.511719 504.828125 246.285156 532.59375 302.148438 538.558594 C 300.089844 537.429688 298.648438 535.167969 298.339844 532.800781 M 299.265625 571.363281 C 295.5625 567.457031 293.503906 562.210938 293.503906 556.863281 C 283.21875 555.628906 272.929688 554.394531 262.539062 553.164062 C 271.386719 557.171875 280.542969 560.359375 290.007812 562.519531 C 269.535156 561.699219 249.0625 557.171875 230.132812 549.253906 C 217.6875 543.394531 203.902344 540.511719 190.113281 540.925781 C 227.871094 552.339844 265.523438 563.652344 303.175781 575.066406 C 304.820312 572.082031 309.039062 572.390625 312.332031 573.007812 C 337.742188 577.945312 363.152344 582.882812 388.5625 587.816406 C 392.0625 588.539062 395.867188 589.15625 398.953125 587.40625 C 401.9375 585.65625 402.964844 580.414062 399.878906 578.769531 C 399.46875 582.058594 398.027344 585.246094 395.765625 587.613281 C 394.941406 585.964844 394.015625 584.425781 393.089844 582.777344 C 364.902344 577.535156 336.609375 572.289062 308.320312 567.046875 C 304.410156 566.324219 298.445312 567.457031 299.265625 571.363281 M 337.535156 476.550781 C 336.609375 474.90625 334.246094 475.214844 332.496094 475.726562 C 312.433594 481.382812 292.785156 488.375 273.546875 496.5 C 295.050781 501.023438 316.445312 505.550781 337.949219 509.355469 C 337.949219 499.171875 337.949219 488.992188 337.949219 478.8125 C 337.949219 477.988281 337.949219 477.167969 337.535156 476.550781 M 386.917969 522.3125 C 311.507812 511.308594 237.128906 494.03125 164.5 470.792969 C 160.28125 469.453125 154.929688 468.324219 151.949219 471.714844 C 222.726562 494.445312 295.152344 512.027344 368.503906 524.058594 C 374.777344 525.089844 381.773438 526.015625 386.917969 522.3125 M 281.058594 549.253906 C 284.246094 549.972656 288.363281 550.386719 290.109375 547.710938 C 293.09375 548.328125 295.976562 548.636719 298.957031 548.742188 C 300.296875 546.476562 296.902344 544.320312 294.328125 543.804688 C 256.574219 535.886719 219.125 526.835938 181.886719 516.757812 C 185.691406 519.742188 188.777344 523.546875 192.378906 526.734375 C 199.886719 533.519531 209.660156 537.738281 219.640625 538.765625 C 228.078125 536.707031 236.820312 538.664062 245.257812 540.71875 C 257.191406 543.496094 269.125 546.375 281.058594 549.253906 M 555.324219 598.925781 C 559.648438 596.867188 560.160156 591.003906 560.058594 586.171875 C 559.957031 581.648438 559.957031 577.121094 559.851562 572.597656 C 554.296875 576.609375 548.84375 580.621094 543.289062 584.628906 C 541.539062 585.863281 539.6875 587.199219 537.527344 587.199219 C 536.292969 587.199219 534.957031 586.789062 533.929688 587.40625 C 524.773438 592.652344 514.074219 595.222656 503.476562 594.808594 C 504.710938 596.042969 505.84375 597.175781 507.078125 598.410156 C 507.589844 598.925781 508.515625 598.925781 509.339844 598.820312 C 521.375 597.585938 533.207031 594.605469 544.421875 589.976562 C 544.9375 593.472656 542.671875 596.96875 539.6875 599.027344 C 536.808594 601.082031 533.207031 602.007812 529.710938 602.832031 C 521.992188 604.683594 514.382812 606.535156 506.769531 608.382812 C 507.28125 610.957031 510.988281 611.058594 513.558594 610.542969 C 523.230469 608.488281 532.796875 606.429688 542.464844 604.375 C 541.746094 605.195312 542.671875 606.636719 543.804688 606.738281 C 544.9375 606.945312 545.964844 606.226562 546.890625 605.609375 C 548.023438 604.886719 549.152344 604.167969 550.183594 603.449219 C 548.84375 603.039062 547.40625 602.730469 545.964844 602.316406 C 547.917969 601.1875 549.769531 599.953125 551.621094 598.71875 C 551.929688 599.746094 551.929688 600.878906 551.621094 601.90625 C 552.855469 600.878906 554.089844 599.953125 555.324219 598.925781 M 184.765625 595.222656 C 232.808594 633.269531 297.210938 641.601562 358.113281 648.386719 C 363.667969 649.003906 369.632812 649.621094 374.574219 647.152344 C 308.527344 644.789062 242.890625 626.894531 184.765625 595.222656 M 548.640625 548.84375 C 547.300781 547.09375 546.683594 544.832031 546.890625 542.570312 C 545.757812 542.671875 544.730469 543.085938 543.804688 543.703125 C 546.171875 550.28125 547.816406 557.070312 548.742188 563.855469 C 551.726562 562.726562 554.195312 560.050781 555.015625 556.96875 C 554.089844 556.660156 553.0625 556.351562 552.136719 556.042969 C 553.679688 554.5 555.222656 552.957031 556.765625 551.414062 C 557.382812 552.648438 559.03125 553.367188 560.367188 552.957031 C 558.515625 555.011719 557.488281 557.789062 557.589844 560.667969 C 564.171875 555.320312 567.257812 545.964844 565.203125 537.839844 C 564.6875 535.886719 563.96875 533.726562 565.097656 532.082031 C 572.199219 520.976562 568.1875 504.316406 577.648438 495.058594 C 571.992188 494.445312 566.230469 495.574219 561.292969 498.351562 C 560.984375 499.789062 561.703125 501.332031 563.042969 502.054688 C 564.6875 499.585938 567.878906 498.042969 570.859375 498.453125 C 565.714844 504.933594 563.042969 513.363281 563.453125 521.59375 C 563.863281 528.378906 554.503906 532.082031 553.371094 538.765625 C 555.738281 540.617188 559.339844 540.617188 561.808594 538.867188 C 562.425781 540.71875 562.628906 542.777344 562.425781 544.730469 C 558.617188 547.816406 553.472656 549.355469 548.640625 548.84375 M 459.652344 621.035156 C 452.347656 624.015625 444.527344 625.660156 436.605469 625.867188 C 439.179688 628.027344 442.882812 627.820312 446.175781 627.511719 C 469.835938 625.351562 493.496094 622.265625 516.953125 618.359375 C 521.582031 617.535156 526.726562 616.40625 529.402344 612.601562 C 525.183594 610.441406 520.140625 611.675781 515.617188 612.910156 C 502.550781 616.199219 489.074219 618.152344 475.597656 618.769531 C 470.144531 618.976562 464.691406 619.078125 459.652344 621.035156 M 128.800781 165.679688 C 128.183594 168.148438 129.828125 170.511719 131.371094 172.464844 C 149.582031 195.5 167.894531 218.640625 186.101562 241.777344 C 190.9375 247.949219 195.875 254.21875 198.652344 261.625 C 200.8125 255.25 196.492188 248.769531 192.480469 243.527344 C 172.007812 216.890625 150.816406 190.976562 128.800781 165.679688 M 340.417969 610.339844 C 332.1875 611.777344 323.441406 610.648438 315.933594 607.046875 C 308.527344 605.917969 301.117188 604.683594 293.8125 603.550781 C 289.90625 602.933594 285.6875 602.421875 282.1875 604.167969 C 280.234375 605.300781 277.765625 604.269531 275.707031 603.242188 C 265.933594 598.71875 255.339844 595.324219 244.640625 596.558594 C 277.867188 606.84375 312.230469 613.21875 346.898438 615.480469 C 346.382812 614.347656 345.253906 613.628906 344.121094 613.421875 C 347 612.808594 349.777344 612.292969 352.660156 611.675781 C 348.339844 608.691406 342.785156 607.355469 337.640625 608.179688 C 338.566406 608.898438 339.492188 609.617188 340.417969 610.339844 M 131.988281 320.960938 C 131.269531 347.285156 131.0625 373.613281 131.371094 399.9375 C 131.371094 405.492188 132.914062 410.941406 135.796875 415.671875 C 135.796875 411.457031 135.796875 407.238281 135.796875 403.023438 C 135.589844 380.914062 135.488281 358.804688 135.28125 336.589844 C 135.28125 331.140625 135.179688 325.382812 131.988281 320.960938 M 291.859375 598.203125 C 291.34375 597.691406 290.933594 597.074219 290.417969 596.457031 C 275.503906 593.269531 260.585938 589.566406 245.875 585.554688 C 238.46875 583.394531 231.058594 581.234375 223.960938 578.152344 C 214.703125 574.039062 205.546875 568.175781 195.464844 568.792969 C 196.492188 569.820312 197.832031 570.542969 199.167969 571.160156 C 217.789062 581.03125 238.46875 586.480469 258.835938 591.929688 C 265.421875 593.78125 272.003906 595.53125 278.691406 597.277344 C 283.011719 598.410156 287.539062 599.539062 291.859375 598.203125 M 525.902344 464.105469 C 527.035156 455.675781 527.960938 447.242188 528.578125 438.914062 C 525.902344 439.835938 524.566406 443.027344 523.539062 445.699219 C 519.113281 456.1875 512.117188 465.648438 503.269531 472.847656 C 508.929688 472.949219 514.382812 471.714844 519.832031 470.585938 C 521.480469 470.175781 523.125 469.761719 524.257812 468.632812 C 525.390625 467.398438 525.699219 465.648438 525.902344 464.105469 M 483.828125 608.28125 C 481.359375 604.886719 476.316406 605.503906 472.203125 606.121094 C 463.664062 607.5625 455.023438 607.5625 446.484375 607.5625 C 434.652344 607.664062 422.925781 607.664062 411.195312 607.664062 C 410.683594 609 411.8125 610.648438 413.253906 610.75 C 436.710938 612.601562 460.472656 611.777344 483.828125 608.28125 M 440.722656 652.089844 C 446.894531 652.914062 453.683594 652.707031 458.621094 648.800781 C 432.800781 648.902344 406.976562 649.003906 381.257812 649.109375 C 387.945312 649.828125 394.632812 650.546875 401.320312 651.265625 C 411.195312 652.398438 421.175781 653.425781 430.640625 656.511719 C 430.433594 654.351562 432.285156 652.5 434.34375 651.988281 C 436.402344 651.371094 438.664062 651.78125 440.722656 652.089844 M 519.320312 525.191406 C 521.066406 524.164062 519.011719 521.695312 517.160156 520.871094 C 502.550781 515.011719 486.089844 513.980469 470.863281 518.09375 C 466.441406 519.328125 462.222656 520.871094 458.003906 522.621094 C 450.1875 525.910156 442.058594 529.921875 437.429688 537.015625 C 442.675781 534.445312 447.921875 531.875 453.167969 529.304688 C 457.183594 527.246094 461.296875 525.292969 465.414062 523.648438 C 473.949219 520.253906 482.902344 518.09375 492.058594 517.375 C 501.625 517.171875 510.675781 521.179688 519.320312 525.191406 M 404.097656 565.914062 C 404.816406 572.1875 405.539062 578.355469 406.359375 584.628906 C 406.464844 585.351562 406.566406 586.273438 407.082031 586.789062 C 407.902344 587.613281 409.140625 587.613281 410.167969 587.613281 C 413.5625 587.40625 416.855469 587.199219 420.25 586.996094 C 421.382812 580.824219 420.351562 574.242188 417.367188 568.691406 C 413.152344 571.363281 406.875 570.027344 404.097656 565.914062 M 326.117188 648.078125 C 325.5 649.210938 323.855469 649.109375 322.515625 648.902344 C 305.542969 645.816406 288.464844 642.730469 271.386719 639.648438 C 267.167969 638.925781 262.746094 638.105469 258.425781 638.617188 C 280.132812 646.535156 303.277344 650.546875 326.425781 650.445312 C 327.144531 649.828125 326.941406 648.492188 326.117188 648.078125 M 343.8125 129.480469 C 341.753906 134.929688 341.445312 140.894531 342.785156 146.449219 C 343.296875 148.917969 344.121094 151.589844 342.785156 153.648438 C 339.800781 157.964844 331.570312 153.339844 328.070312 157.246094 C 333.421875 158.582031 339.285156 158.273438 344.429688 156.425781 C 351.015625 157.964844 357.804688 158.789062 364.492188 158.996094 C 367.78125 159.097656 371.382812 159.199219 373.644531 161.464844 C 374.984375 161.257812 375.292969 159.097656 374.265625 158.070312 C 373.335938 157.042969 371.792969 156.835938 370.457031 156.734375 C 362.949219 155.808594 355.4375 154.984375 347.925781 154.160156 C 346.691406 151.796875 345.765625 149.226562 345.355469 146.65625 C 347.414062 146.550781 349.367188 145.523438 350.5 143.777344 C 349.058594 142.746094 347 142.4375 345.355469 143.054688 C 344.429688 138.632812 343.914062 134.109375 343.8125 129.480469 M 440.207031 586.378906 C 440.722656 585.65625 440.824219 584.734375 440.925781 583.808594 C 441.234375 578.355469 440 572.804688 437.429688 568.074219 C 437.121094 571.570312 436.914062 575.066406 436.710938 578.460938 C 435.269531 580.515625 431.875 579.695312 430.535156 577.636719 C 429.097656 575.683594 428.992188 573.113281 428.273438 570.746094 C 427.65625 568.382812 426.113281 565.914062 423.746094 565.707031 C 424.777344 572.289062 425.90625 578.972656 426.9375 585.65625 C 427.140625 586.480469 427.347656 587.40625 428.066406 587.921875 C 428.582031 588.230469 429.199219 588.230469 429.714844 588.230469 C 431.566406 588.230469 433.417969 588.125 435.269531 588.125 C 437.121094 588.125 439.179688 587.921875 440.207031 586.378906 M 417.984375 617.640625 C 416.546875 617.125 415.207031 616.507812 413.769531 615.890625 C 404.816406 612.191406 394.839844 611.574219 385.167969 611.058594 C 381.363281 610.851562 377.246094 610.648438 373.957031 612.703125 C 376.734375 615.273438 381.054688 615.480469 384.859375 615.6875 C 395.660156 616.199219 406.464844 617.949219 416.855469 621.035156 C 417.78125 620.210938 418.191406 618.875 417.984375 617.640625 M 498.742188 564.269531 C 502.242188 565.605469 506.152344 565.707031 509.75 564.472656 C 508.824219 568.585938 512.117188 573.113281 516.335938 573.523438 C 513.457031 570.644531 512.222656 566.015625 513.457031 562.109375 C 514.691406 558.203125 518.394531 555.117188 522.507812 554.808594 C 512.734375 552.648438 502.242188 553.472656 492.878906 557.070312 C 492.777344 558.203125 492.675781 559.433594 492.570312 560.566406 C 498.230469 558.714844 503.785156 556.761719 509.441406 554.808594 C 509.132812 555.835938 509.957031 557.070312 511.089844 557.171875 C 506.972656 559.539062 502.859375 561.902344 498.742188 564.269531 M 168.097656 596.867188 C 182.089844 609.925781 197.832031 620.929688 214.910156 629.570312 C 216.246094 630.289062 218.507812 630.496094 218.714844 629.054688 C 201.84375 618.257812 184.972656 607.5625 168.097656 596.867188 M 169.539062 467.089844 C 172.523438 460.917969 168.613281 452.488281 162.03125 450.738281 C 160.382812 450.328125 158.53125 450.222656 157.089844 451.046875 C 157.503906 458.246094 162.75 464.929688 169.539062 467.089844 M 348.339844 96.058594 C 348.542969 101.304688 348.75 106.550781 348.957031 111.792969 C 349.367188 121.972656 349.882812 132.257812 350.292969 142.4375 C 352.761719 139.660156 352.761719 135.546875 352.660156 131.847656 C 352.042969 118.476562 351.527344 105.109375 350.910156 91.742188 C 349.058594 91.328125 348.234375 94.105469 348.339844 96.058594 M 374.058594 547.609375 C 379.820312 546.582031 385.785156 546.992188 391.238281 548.945312 C 390.519531 550.386719 389.796875 552.03125 390.105469 553.574219 C 390.414062 555.21875 392.371094 556.554688 393.808594 555.734375 C 394.425781 555.320312 394.734375 554.601562 394.941406 553.882812 C 395.867188 550.488281 393.398438 546.890625 390.210938 545.347656 C 387.125 543.703125 383.417969 543.597656 379.921875 543.597656 C 376.320312 543.496094 372.71875 543.496094 369.222656 543.394531 C 370.457031 545.039062 369.53125 547.402344 369.53125 549.5625 C 369.53125 551.621094 372.207031 553.984375 373.441406 552.238281 C 373.644531 550.695312 373.851562 549.152344 374.058594 547.609375 M 541.539062 342.042969 C 543.496094 327.335938 544.214844 312.527344 543.699219 297.824219 C 539.792969 312.734375 538.351562 328.363281 539.585938 343.6875 C 540.304688 344.613281 541.4375 343.171875 541.539062 342.042969 M 406.667969 655.277344 C 393.605469 653.632812 380.539062 652.707031 367.371094 652.296875 C 363.875 652.191406 360.167969 652.191406 357.390625 654.144531 C 373.75 656.410156 390.3125 657.644531 406.667969 655.277344 M 445.351562 570.335938 C 445.558594 576.199219 446.070312 582.058594 446.792969 587.921875 C 450.496094 588.023438 454.507812 587.097656 457.183594 584.527344 C 459.855469 581.957031 460.886719 577.429688 458.828125 574.347656 C 456.875 576.199219 454.917969 577.945312 452.964844 579.796875 C 451.730469 579.695312 450.289062 579.589844 449.261719 578.769531 C 448.335938 577.84375 448.027344 576.09375 449.15625 575.375 C 447.203125 574.347656 445.761719 572.390625 445.351562 570.335938 M 317.683594 417.113281 C 318.917969 414.4375 317.066406 411.457031 315.316406 409.089844 C 307.496094 398.601562 299.574219 388.007812 291.652344 377.417969 C 290.214844 378.136719 290.933594 380.296875 291.960938 381.53125 C 300.5 393.460938 309.144531 405.285156 317.683594 417.113281 M 339.183594 181.722656 C 337.023438 182.441406 334.863281 183.265625 332.703125 183.984375 C 341.859375 185.21875 351.117188 185.730469 360.375 185.527344 C 362.226562 185.421875 364.285156 185.320312 365.828125 184.292969 C 367.472656 183.265625 368.398438 181 367.269531 179.460938 C 365.929688 179.664062 365.210938 181.308594 365.726562 182.542969 C 357.1875 182.03125 348.648438 181.617188 340.109375 181.105469 C 340.417969 179.046875 340.210938 176.992188 339.59375 175.039062 C 339.078125 177.195312 338.875 179.460938 339.183594 181.722656 M 146.597656 474.699219 C 135.898438 470.277344 123.453125 470.484375 112.957031 475.316406 C 111.722656 475.832031 110.589844 476.445312 109.460938 477.0625 C 121.804688 476.242188 134.253906 475.523438 146.597656 474.699219 M 198.652344 475.109375 C 200.195312 470.792969 198.960938 465.648438 195.566406 462.359375 C 194.128906 460.917969 192.171875 459.890625 190.011719 459.992188 C 189.601562 463.488281 189.085938 467.089844 190.421875 470.378906 C 191.660156 473.671875 195.257812 476.242188 198.652344 475.109375 M 174.992188 455.878906 C 175.402344 459.375 175.917969 462.871094 176.328125 466.371094 C 176.84375 470.175781 181.679688 471.511719 185.484375 472.023438 C 185.28125 466.882812 183.324219 461.84375 179.929688 458.039062 C 179.3125 456.085938 176.742188 454.953125 174.992188 455.878906 M 227.355469 483.441406 C 226.738281 478.296875 225.917969 472.746094 222.316406 469.144531 C 221.183594 468.015625 218.921875 467.398438 218.304688 468.835938 C 215.113281 475.007812 220.464844 483.542969 227.355469 483.441406 M 212.542969 466.371094 C 210.585938 464.003906 207.089844 463.179688 204.210938 464.3125 C 202.460938 467.398438 202.460938 471.511719 204.3125 474.597656 C 206.265625 477.679688 209.867188 479.53125 213.46875 479.328125 C 214.085938 477.0625 211.820312 475.007812 209.96875 473.464844 C 208.117188 471.921875 206.265625 469.351562 207.605469 467.398438 C 209.558594 467.191406 211.410156 469.25 210.894531 471.101562 C 211.308594 469.453125 211.820312 467.910156 212.542969 466.371094 M 528.988281 530.847656 C 527.550781 529.820312 526.109375 528.789062 524.566406 527.761719 C 523.539062 530.539062 525.902344 533.316406 526.933594 536.089844 C 528.269531 539.792969 526.625 544.421875 523.332031 546.582031 C 527.550781 545.449219 531.148438 542.054688 532.488281 537.839844 C 533.824219 533.625 532.796875 528.789062 530.019531 525.398438 C 530.121094 527.246094 529.8125 529.203125 528.988281 530.847656 M 100.511719 288.363281 C 108.019531 297.824219 115.425781 307.386719 122.832031 316.949219 C 123.863281 318.285156 125.097656 319.828125 126.847656 320.035156 C 127.257812 316.332031 124.480469 313.042969 121.804688 310.367188 C 114.707031 302.964844 107.609375 295.664062 100.511719 288.363281 M 240.421875 486.421875 C 238.878906 483.441406 239.394531 479.945312 238.570312 476.652344 C 237.851562 473.464844 234.25 470.277344 231.472656 472.023438 C 231.78125 476.035156 232.089844 480.046875 232.292969 483.953125 C 234.660156 485.597656 237.542969 486.523438 240.421875 486.421875 M 166.144531 489.917969 C 165.011719 490.433594 163.777344 491.050781 162.648438 491.5625 C 166.863281 492.59375 170.980469 493.621094 175.09375 494.75 C 176.226562 487.964844 168.71875 481.484375 162.234375 483.542969 C 162.339844 485.292969 164.085938 486.832031 165.835938 486.628906 C 166.453125 487.65625 166.554688 488.890625 166.144531 489.917969 M 349.265625 447.960938 C 349.367188 439.632812 349.367188 431.40625 349.46875 423.074219 C 349.46875 421.019531 348.542969 418.242188 346.589844 418.652344 C 346.796875 429.65625 347 440.660156 347.105469 451.664062 C 348.75 451.664062 349.265625 449.605469 349.265625 447.960938 M 517.363281 530.640625 C 508.207031 530.023438 499.050781 530.230469 490 531.257812 C 487.222656 531.667969 484.339844 532.082031 482.078125 533.828125 C 491.75 533.519531 501.417969 533.109375 510.988281 532.800781 C 513.351562 532.699219 515.925781 532.492188 517.363281 530.640625 M 540.613281 269.027344 C 542.980469 263.578125 543.597656 257.511719 542.363281 251.753906 C 542.054688 250.414062 539.792969 249.386719 539.996094 250.722656 C 540.921875 252.164062 537.632812 253.398438 537.324219 251.648438 C 536.601562 257.613281 537.734375 263.785156 540.613281 269.027344 M 274.886719 520.460938 C 276.738281 520.5625 278.691406 521.285156 280.132812 522.621094 C 280.132812 519.84375 280.234375 516.863281 278.898438 514.394531 C 277.558594 511.925781 274.371094 510.175781 271.902344 511.410156 C 270.152344 514.597656 271.59375 519.019531 274.886719 520.5625 M 251.839844 489.507812 C 252.5625 483.851562 249.679688 477.886719 244.742188 474.90625 C 245.050781 479.019531 245.359375 483.027344 245.667969 487.140625 C 247.417969 488.582031 249.578125 489.40625 251.839844 489.507812 M 188.46875 497.835938 C 190.320312 493.3125 186.207031 487.554688 181.371094 487.757812 C 178.796875 492.285156 183.429688 498.761719 188.46875 497.835938 M 547.300781 270.160156 C 550.800781 268.207031 551.417969 263.578125 551.621094 259.566406 C 551.726562 257.304688 551.828125 254.941406 551.929688 252.679688 C 550.902344 252.0625 549.667969 251.855469 548.535156 252.164062 C 547.097656 258.023438 546.683594 264.09375 547.300781 270.160156 M 211 504.109375 C 212.335938 504.519531 213.671875 504.828125 215.011719 505.242188 C 217.480469 500.714844 213.160156 494.339844 208.015625 494.957031 C 206.371094 498.144531 207.808594 502.566406 211.101562 504.109375 M 346.28125 349.34375 C 346.28125 355 346.28125 360.757812 346.179688 366.515625 C 346.179688 370.320312 346.179688 374.230469 347.308594 377.929688 C 348.542969 366.929688 348.851562 355.71875 348.03125 344.613281 C 346.488281 345.539062 346.28125 347.59375 346.28125 349.34375 M 240.832031 511.824219 C 243.199219 507.296875 238.46875 501.023438 233.527344 502.054688 C 231.882812 506.578125 236.101562 512.132812 240.832031 511.824219 M 257.292969 637.691406 C 249.578125 634.09375 241.65625 631.007812 233.527344 628.539062 C 232.089844 628.128906 230.648438 627.613281 229.105469 627.71875 C 237.4375 633.269531 247.210938 636.664062 257.292969 637.691406 M 498.433594 480.664062 C 494.320312 483.441406 490.71875 487.039062 487.941406 491.152344 C 491.644531 490.328125 495.347656 489.507812 499.050781 488.582031 C 500.289062 486.113281 499.980469 483.027344 498.433594 480.664062 M 462.015625 598.511719 C 456.050781 594.707031 447.410156 596.042969 442.882812 601.390625 C 449.363281 601.496094 455.84375 600.464844 462.015625 598.511719 M 194.847656 491.871094 C 193.203125 494.546875 194.230469 498.558594 197.007812 500.097656 C 198.449219 500.921875 200.195312 501.128906 201.84375 501.023438 C 203.796875 496.707031 199.476562 491.050781 194.847656 491.871094 M 284.96875 516.964844 C 285.171875 520.460938 287.746094 523.648438 291.140625 524.675781 C 293.609375 519.84375 289.492188 513.160156 284.042969 513.160156 C 283.527344 514.394531 283.835938 515.832031 284.660156 516.863281 M 220.875 498.042969 C 219.949219 500.714844 220.566406 503.902344 222.417969 506.0625 C 223.652344 507.402344 225.503906 508.324219 227.355469 508.121094 C 229.003906 506.269531 228.695312 503.289062 227.152344 501.4375 C 225.609375 499.585938 223.242188 498.558594 220.875 498.042969 M 128.390625 432.226562 C 128.390625 430.890625 128.390625 429.246094 127.257812 428.527344 C 126.433594 427.910156 125.304688 427.910156 124.789062 426.984375 C 122.832031 432.535156 124.070312 439.222656 127.976562 443.644531 C 128.082031 439.835938 128.285156 436.03125 128.390625 432.226562 M 388.152344 571.46875 C 385.167969 568.585938 384.140625 563.960938 385.582031 560.15625 C 384.34375 559.640625 383.109375 559.125 381.773438 558.613281 C 381.15625 562.210938 381.363281 566.015625 382.492188 569.511719 C 382.90625 570.851562 383.625 572.289062 384.859375 572.90625 C 386.09375 573.523438 388.050781 572.804688 388.152344 571.46875 M 259.453125 513.878906 C 260.277344 516.964844 263.773438 518.917969 266.757812 518.09375 C 267.582031 514.085938 265.214844 509.664062 261.511719 508.019531 C 259.96875 509.558594 259.453125 511.824219 260.070312 513.777344 M 465.414062 489.199219 C 465.515625 491.976562 469.117188 493.929688 471.585938 492.59375 C 472.203125 488.171875 470.042969 483.542969 466.234375 481.28125 C 465.617188 483.851562 465.414062 486.523438 465.722656 489.199219 M 148.039062 454.234375 C 146.90625 457.421875 147.832031 461.226562 150.40625 463.386719 C 153.59375 460.097656 153.59375 454.234375 150.40625 450.839844 C 148.757812 451.046875 147.523438 452.691406 147.730469 454.234375 M 250.195312 505.136719 C 249.167969 505.136719 248.136719 505.136719 247.109375 505.136719 C 245.152344 509.25 248.859375 514.804688 253.488281 514.597656 C 253.898438 511.101562 252.664062 507.503906 250.296875 505.035156 M 296.078125 520.050781 C 294.945312 523.75 299.265625 527.761719 302.867188 526.324219 C 302.96875 522.207031 300.296875 517.992188 296.386719 516.449219 C 295.871094 517.582031 295.667969 518.816406 295.976562 520.050781 M 320.769531 526.117188 C 321.796875 528.996094 324.367188 531.359375 327.453125 531.875 C 327.867188 529.511719 327.96875 527.042969 326.941406 524.984375 C 325.808594 522.929688 323.03125 521.59375 320.972656 522.722656 C 320.871094 523.855469 320.664062 524.984375 320.460938 526.21875 M 363.257812 548.226562 C 364.386719 546.992188 365.003906 545.242188 364.902344 543.597656 C 366.035156 543.394531 367.0625 543.394531 368.195312 543.394531 C 365.828125 541.953125 362.949219 541.542969 360.273438 542.261719 C 358.730469 544.832031 358.214844 547.917969 358.730469 550.796875 C 360.582031 551.105469 362.640625 550.078125 363.460938 548.328125 M 339.59375 562.625 C 342.988281 559.539062 341.035156 552.855469 336.507812 552.132812 C 335.992188 555.117188 335.789062 558.097656 336.097656 561.183594 C 337.226562 561.699219 338.460938 562.109375 339.59375 562.625 M 137.441406 455.367188 C 137.339844 457.835938 137.132812 460.300781 136.929688 462.667969 C 141.453125 462.257812 144.128906 455.984375 141.351562 452.488281 C 140.941406 451.355469 139.292969 451.355469 138.472656 452.179688 C 137.648438 453 137.546875 454.234375 137.441406 455.367188 M 334.039062 523.648438 C 332.703125 526.324219 333.523438 529.921875 335.789062 531.875 C 336.917969 532.800781 338.359375 533.417969 339.699219 533.933594 C 341.242188 529.714844 338.359375 524.574219 334.039062 523.648438 M 343.195312 311.808594 C 344.53125 311.601562 345.871094 311.398438 347.105469 311.191406 C 348.542969 308.824219 348.75 305.84375 347.722656 303.273438 C 345.972656 305.226562 344.222656 307.078125 342.476562 309.03125 C 342.476562 311.089844 341.753906 313.246094 340.316406 314.789062 C 341.445312 316.230469 344.222656 313.863281 342.886719 312.527344 M 156.0625 661.449219 C 156.371094 663.503906 159.148438 663.914062 161.207031 664.019531 C 166.144531 664.019531 171.082031 664.019531 176.019531 664.019531 C 176.945312 664.53125 176.226562 662.683594 175.300781 662.683594 C 168.921875 662.269531 162.441406 661.859375 156.0625 661.449219 M 317.578125 542.363281 C 318.609375 540.203125 320.460938 538.457031 322.722656 537.429688 C 320.460938 535.269531 316.960938 534.34375 313.875 535.0625 C 315.933594 536.914062 316.035156 540.410156 314.285156 542.46875 C 315.007812 543.289062 316.445312 543.085938 316.960938 542.160156 M 372.515625 535.886719 C 374.367188 533.007812 371.792969 528.480469 368.398438 528.6875 C 367.472656 530.539062 366.855469 532.800781 367.679688 534.753906 C 368.503906 536.605469 371.382812 537.632812 372.824219 536.089844 M 147.113281 353.355469 C 147.421875 359.007812 148.347656 364.664062 149.890625 370.117188 C 150.199219 371.144531 150.714844 372.378906 151.742188 372.582031 C 151.742188 365.898438 150.097656 359.316406 147.113281 353.355469 M 487.941406 657.4375 C 493.804688 658.054688 499.875 656.820312 505.121094 654.144531 C 499.257812 653.117188 492.984375 654.351562 487.941406 657.4375 M 524.464844 484.058594 C 524.257812 482.925781 524.15625 481.898438 523.949219 480.765625 C 522.40625 480.457031 520.757812 480.046875 519.214844 480.457031 C 517.671875 480.972656 516.335938 482.515625 516.746094 484.058594 C 517.46875 486.9375 521.890625 485.804688 524.257812 484.160156 M 373.851562 558.714844 C 370.972656 557.894531 369.738281 562.210938 370.046875 565.195312 C 370.25 567.867188 371.589844 571.363281 374.265625 570.851562 C 372.824219 566.941406 372.71875 562.625 373.851562 558.714844 M 346.382812 526.9375 C 345.046875 530.023438 346.589844 534.136719 349.675781 535.371094 C 350.394531 533.316406 351.015625 531.15625 350.5 529.097656 C 349.882812 527.042969 347.617188 525.292969 345.664062 526.21875 M 510.164062 480.046875 C 507.796875 481.589844 506.5625 484.777344 507.179688 487.554688 C 510.367188 489.097656 513.25 484.46875 513.042969 480.871094 C 512.117188 480.664062 511.296875 480.457031 510.472656 480.253906 M 477.039062 653.632812 C 471.6875 652.089844 465.824219 652.089844 460.578125 653.734375 C 461.398438 654.453125 462.222656 655.175781 463.046875 655.996094 C 467.675781 655.175781 472.40625 654.351562 477.039062 653.632812 M 360.992188 534.652344 C 363.460938 532.082031 360.582031 526.835938 357.082031 527.660156 C 356.570312 529.511719 356.464844 531.464844 356.671875 533.417969 C 358.214844 533.933594 359.757812 534.445312 361.300781 534.960938 M 347.722656 553.058594 C 345.972656 556.863281 346.074219 561.390625 347.824219 565.089844 C 348.339844 565.914062 349.367188 566.429688 350.394531 566.222656 C 350.191406 561.800781 349.367188 557.277344 347.722656 553.058594 M 380.640625 530.539062 C 377.761719 532.902344 378.996094 538.457031 382.597656 539.382812 C 384.34375 536.503906 383.726562 532.492188 381.15625 530.4375 M 348.648438 543.804688 C 347.617188 545.65625 349.058594 548.226562 351.117188 548.433594 C 352.453125 546.066406 354.304688 544.113281 356.570312 542.570312 C 353.792969 541.644531 350.703125 541.851562 348.03125 543.085938 M 304.308594 556.144531 C 307.496094 554.394531 308.730469 549.769531 306.878906 546.683594 C 306.367188 545.757812 305.441406 544.933594 304.511719 545.140625 C 304.101562 548.84375 304 552.441406 304.308594 556.144531 M 216.347656 656.71875 C 215.320312 656.410156 214.1875 656.203125 213.261719 656.511719 C 212.542969 656.71875 212.027344 657.128906 211.617188 657.746094 C 215.628906 660.214844 220.566406 661.140625 225.195312 660.214844 C 222.417969 658.671875 219.433594 657.539062 216.347656 656.71875 M 344.839844 285.378906 C 345.148438 286.40625 345.5625 287.332031 345.972656 288.363281 C 346.796875 285.585938 345.355469 282.292969 342.679688 281.058594 C 341.753906 285.070312 341.652344 289.289062 342.578125 293.402344 C 344.222656 291.136719 344.839844 288.257812 344.222656 285.585938 M 127.566406 457.628906 C 125.613281 459.789062 126.332031 463.796875 128.902344 465.03125 C 131.0625 462.050781 130.859375 457.628906 128.59375 454.75 C 128.082031 455.570312 127.566406 456.394531 127.050781 457.21875 M 312.949219 554.910156 C 314.492188 556.863281 318.09375 555.21875 318.195312 552.75 C 318.300781 550.28125 315.726562 548.328125 313.257812 548.433594 C 313.464844 550.488281 313.667969 552.441406 313.773438 554.5 M 311.097656 526.21875 C 311.613281 528.070312 314.699219 528.070312 315.210938 526.21875 C 314.390625 524.675781 314.082031 522.824219 314.492188 521.078125 C 313.15625 520.5625 311.921875 520.050781 310.582031 519.433594 C 310.6875 521.695312 310.996094 523.957031 311.613281 526.117188 M 346.691406 334.019531 C 345.765625 335.769531 344.945312 337.515625 344.121094 339.164062 C 345.355469 338.957031 346.488281 338.648438 347.722656 338.339844 C 349.46875 335.355469 348.75 331.242188 346.28125 328.777344 C 344.945312 330.214844 344.945312 332.582031 346.28125 333.917969 M 363.050781 560.976562 C 361.710938 559.847656 360.476562 558.816406 359.140625 557.6875 C 358.832031 559.332031 358.421875 561.082031 358.933594 562.625 C 359.449219 564.269531 361.199219 565.605469 362.84375 565.195312 C 364.386719 564.679688 364.695312 561.800781 363.050781 561.390625 M 557.589844 478.710938 C 560.160156 477.476562 561.394531 473.980469 560.160156 471.410156 C 557.074219 470.585938 554.707031 475.832031 557.382812 477.578125 M 533.621094 480.972656 C 533.621094 482.515625 533.722656 483.953125 533.824219 485.496094 C 537.015625 483.953125 538.042969 479.121094 535.78125 476.34375 C 533.929688 476.753906 532.898438 479.222656 533.824219 480.871094 M 144.746094 490.226562 C 144.335938 490.945312 145.261719 491.871094 146.085938 491.667969 C 146.90625 491.359375 147.320312 490.535156 147.628906 489.816406 C 148.449219 487.246094 147.9375 484.261719 146.289062 482.207031 C 144.644531 484.46875 144.128906 487.449219 144.847656 490.125 M 588.039062 355.410156 C 586.601562 357.878906 586.085938 360.757812 586.394531 363.535156 C 589.378906 361.066406 590.921875 357.054688 590.511719 353.25 C 589.273438 352.839844 587.835938 354.277344 588.144531 355.617188 M 260.070312 397.160156 C 265.214844 395.105469 269.84375 391.402344 273.035156 386.773438 C 268.09375 389.347656 263.570312 392.945312 260.070312 397.160156 M 346.691406 390.476562 C 346.796875 392.121094 346.898438 393.871094 346.898438 395.515625 C 348.851562 390.785156 349.160156 385.539062 347.824219 380.605469 C 346.28125 383.691406 345.871094 387.1875 346.382812 390.476562 M 199.785156 561.800781 C 201.535156 562.007812 203.285156 562.109375 205.03125 562.210938 C 200.8125 558.816406 195.054688 557.585938 189.804688 558.921875 C 193.203125 559.640625 196.492188 560.464844 199.785156 561.285156 M 348.957031 457.320312 C 348.957031 455.777344 348.851562 454.234375 348.851562 452.691406 C 345.871094 455.261719 345.457031 460.097656 347.722656 463.179688 C 349.367188 461.742188 349.984375 459.375 349.265625 457.320312 M 547.507812 481.484375 C 549.769531 479.636719 549.152344 475.316406 546.480469 474.183594 C 544.113281 476.035156 544.730469 480.355469 547.40625 481.589844 M 540.304688 476.34375 C 538.96875 478.710938 539.792969 482.101562 542.15625 483.644531 C 544.113281 481.175781 543.390625 477.0625 540.71875 475.523438 M 369.121094 418.550781 C 368.8125 422.664062 368.503906 426.777344 368.296875 430.890625 C 368.195312 432.433594 368.195312 434.285156 369.632812 435.109375 C 370.457031 429.65625 370.355469 424 369.121094 418.550781 M 218.714844 643.554688 C 220.773438 643.964844 222.828125 644.273438 224.886719 644.6875 C 222.109375 642.011719 218.40625 640.261719 214.601562 639.851562 C 214.496094 641.804688 216.65625 643.554688 218.613281 642.9375 M 345.457031 322.605469 C 344.839844 324.25 345.457031 326.101562 346.796875 327.234375 C 347.105469 323.015625 347.414062 318.800781 347.722656 314.585938 C 345.253906 316.230469 344.328125 319.726562 345.5625 322.503906 M 392.78125 559.332031 C 393.605469 559.125 392.574219 557.6875 391.855469 558.203125 C 391.238281 558.714844 391.339844 559.742188 391.648438 560.566406 C 392.574219 562.726562 394.222656 564.578125 396.277344 565.8125 C 397.617188 563.445312 395.867188 559.949219 393.191406 559.742188 M 325.292969 553.265625 C 327.144531 553.574219 329 553.984375 330.851562 554.292969 C 330.027344 553.367188 329.71875 552.03125 329.925781 550.796875 C 328.070312 550.28125 326.117188 550.179688 324.265625 550.386719 C 323.132812 551.3125 323.855469 553.472656 325.292969 553.472656 M 431.257812 617.230469 C 430.226562 617.230469 429.199219 617.230469 428.171875 617.230469 C 427.65625 618.152344 427.140625 619.183594 426.628906 620.109375 C 430.125 620.3125 433.726562 619.386719 436.710938 617.433594 C 434.960938 617.332031 433.109375 617.230469 431.257812 617.125 M 384.757812 549.5625 C 383.625 548.328125 381.257812 548.535156 380.332031 549.972656 C 379.511719 551.414062 380.332031 553.675781 381.875 554.191406 C 383.523438 553.472656 384.652344 551.621094 384.449219 549.871094 M 353.175781 613.320312 C 355.335938 614.246094 357.90625 614.347656 360.167969 613.730469 C 360.683594 612.910156 361.300781 612.191406 361.816406 611.367188 C 359.039062 610.851562 356.054688 611.265625 353.484375 612.5 M 497.304688 612.085938 C 497.40625 611.058594 497.507812 610.132812 497.714844 609.105469 C 495.144531 608.898438 492.570312 609.617188 490.410156 610.957031 C 491.953125 612.703125 494.9375 613.011719 496.789062 611.675781 M 134.148438 577.535156 C 134.871094 575.683594 135.589844 573.832031 136.3125 571.980469 C 132.710938 574.347656 131.167969 579.386719 132.914062 583.292969 C 133.53125 581.441406 134.148438 579.589844 134.769531 577.738281 M 331.980469 432.640625 C 331.980469 430.992188 329.925781 429.554688 328.792969 430.582031 C 329.617188 432.84375 330.4375 435.109375 331.261719 437.371094 C 333.320312 437.574219 333.113281 434.285156 332.085938 432.535156 M 321.695312 418.449219 C 320.253906 421.019531 321.589844 424.722656 324.472656 425.75 C 325.089844 423.488281 324.367188 420.8125 322.621094 419.269531 M 119.851562 491.5625 C 122.523438 490.535156 123.453125 486.421875 121.289062 484.367188 C 119.335938 485.597656 118.617188 488.480469 119.644531 490.636719 M 103.90625 381.015625 C 102.980469 379.164062 102.773438 376.902344 103.183594 374.949219 C 102.773438 374.023438 101.847656 373.507812 100.921875 373.507812 C 100.097656 376.386719 101.023438 379.578125 103.183594 381.632812 M 325.191406 558.613281 C 324.882812 557.171875 324.472656 555.835938 324.164062 554.394531 C 322.621094 556.246094 322.105469 558.816406 322.824219 561.183594 C 323.648438 561.902344 324.984375 561.902344 325.808594 561.183594 C 325.707031 560.257812 325.601562 559.433594 325.5 558.507812 " fill-opacity="1" fill-rule="nonzero"/></g><path fill="#000000" d="M 251.429688 462.257812 C 252.046875 461.433594 252.5625 460.609375 253.179688 459.789062 C 254.925781 461.226562 255.441406 464.003906 254.207031 466.0625 C 253.179688 466.164062 251.945312 466.0625 251.222656 465.238281 C 250.503906 464.414062 250.710938 462.769531 251.738281 462.566406 " fill-opacity="1" fill-rule="nonzero"/><path fill="#000000" d="M 554.195312 282.398438 C 553.472656 282.808594 553.578125 281.058594 554.398438 280.75 C 556.148438 280.136719 558.414062 281.058594 559.03125 282.808594 C 559.648438 284.558594 558.308594 286.820312 556.457031 286.921875 C 555.738281 285.378906 555.015625 283.941406 554.195312 282.398438 " fill-opacity="1" fill-rule="nonzero"/><path fill="#000000" d="M 389.59375 77.035156 C 391.136719 76.933594 392.78125 77.652344 393.707031 78.988281 C 390.519531 80.019531 386.816406 79.09375 384.34375 76.828125 C 385.992188 76.007812 387.945312 76.007812 389.59375 76.828125 " fill-opacity="1" fill-rule="nonzero"/><path fill="#000000" d="M 409.859375 582.367188 C 410.785156 581.851562 410.992188 580.414062 410.269531 579.695312 C 412.535156 578.046875 416.339844 580.003906 416.339844 582.777344 C 414.28125 582.984375 412.226562 583.085938 410.167969 583.191406 " fill-opacity="1" fill-rule="nonzero"/><path fill="#000000" d="M 563.453125 280.238281 C 560.777344 280.136719 558.207031 279.210938 556.046875 277.769531 C 558.308594 275.097656 563.660156 276.742188 563.96875 280.339844 " fill-opacity="1" fill-rule="nonzero"/><path fill="#000000" d="M 316.035156 86.597656 C 317.886719 85.160156 320.253906 84.132812 322.621094 83.71875 C 320.769531 86.804688 317.476562 89.171875 313.976562 89.890625 C 313.050781 88.554688 314.285156 86.394531 315.933594 86.597656 " fill-opacity="1" fill-rule="nonzero"/><path fill="#000000" d="M 363.769531 208.355469 C 365.519531 212.261719 365.3125 216.992188 363.152344 220.695312 C 362.433594 216.582031 362.640625 212.367188 363.769531 208.355469 " fill-opacity="1" fill-rule="nonzero"/><path fill="#000000" d="M 237.644531 453.824219 C 236.921875 452.488281 239.394531 451.253906 240.523438 452.28125 C 241.65625 453.414062 241.554688 455.160156 241.246094 456.703125 C 240.832031 459.375 238.980469 462.871094 236.304688 461.949219 C 236.410156 459.375 236.820312 456.804688 237.644531 454.335938 " fill-opacity="1" fill-rule="nonzero"/><path fill="#000000" d="M 318.609375 229.230469 C 317.578125 229.335938 316.652344 229.4375 315.625 229.539062 C 316.34375 225.632812 318.8125 222.03125 322.3125 219.976562 C 323.238281 223.371094 321.488281 227.175781 318.503906 228.820312 " fill-opacity="1" fill-rule="nonzero"/><path fill="#000000" d="M 359.140625 496.910156 C 360.273438 501.332031 359.550781 506.269531 357.1875 510.175781 C 355.644531 505.753906 356.464844 500.714844 359.140625 496.910156 " fill-opacity="1" fill-rule="nonzero"/><path fill="#000000" d="M 318.8125 493.105469 C 316.550781 490.535156 317.269531 486.113281 320.152344 484.367188 C 320.972656 488.789062 320.871094 493.414062 320.152344 497.941406 C 319.636719 496.398438 319.121094 494.855469 318.609375 493.3125 " fill-opacity="1" fill-rule="nonzero"/><path fill="#000000" d="M 309.039062 208.972656 C 309.347656 211.234375 307.085938 213.085938 304.925781 214.011719 C 303.382812 214.628906 301.632812 215.039062 299.882812 215.144531 C 302.148438 212.160156 305.441406 210 309.039062 208.972656 " fill-opacity="1" fill-rule="nonzero"/><path fill="#000000" d="M 370.664062 502.054688 C 370.664062 506.0625 367.78125 509.765625 363.976562 510.792969 C 364.078125 507.605469 364.800781 504.519531 366.035156 501.640625 C 367.578125 501.847656 369.121094 501.949219 370.664062 502.054688 " fill-opacity="1" fill-rule="nonzero"/><path fill="#000000" d="M 384.960938 501.746094 C 386.199219 504.417969 386.402344 507.503906 385.476562 510.28125 C 382.800781 505.753906 382.183594 499.996094 383.832031 494.957031 C 384.960938 496.910156 385.582031 499.171875 385.582031 501.539062 " fill-opacity="1" fill-rule="nonzero"/><path fill="#000000" d="M 380.128906 202.1875 C 385.269531 201.15625 390.929688 202.699219 394.839844 206.195312 C 389.695312 205.992188 384.652344 204.652344 380.128906 202.1875 " fill-opacity="1" fill-rule="nonzero"/><path fill="#000000" d="M 403.996094 529.921875 C 405.640625 530.230469 407.285156 529.820312 408.726562 528.894531 C 409.550781 529.613281 410.066406 530.539062 410.269531 531.566406 C 405.949219 533.417969 401.320312 534.550781 396.585938 534.960938 C 395.867188 531.773438 400.601562 530.4375 403.890625 530.746094 " fill-opacity="1" fill-rule="nonzero"/><path fill="#000000" d="M 365.621094 476.140625 C 364.386719 478.605469 364.386719 481.589844 365.726562 484.058594 C 364.59375 484.46875 363.460938 484.984375 362.328125 485.394531 C 360.785156 481.28125 361.300781 476.445312 363.769531 472.746094 C 364.492188 473.875 365.210938 475.007812 366.035156 476.242188 " fill-opacity="1" fill-rule="nonzero"/><path fill="#000000" d="M 533.414062 286.511719 C 532.488281 288.363281 529.914062 289.289062 527.960938 288.363281 C 530.019531 286.203125 530.429688 282.707031 528.988281 280.136719 C 530.429688 277.976562 533.929688 277.5625 535.675781 279.414062 C 534.339844 281.574219 533.515625 284.042969 533.515625 286.613281 " fill-opacity="1" fill-rule="nonzero"/><path fill="#000000" d="M 521.890625 642.21875 C 526.109375 641.804688 530.222656 640.570312 533.929688 638.617188 C 532.179688 643.039062 525.902344 644.890625 521.890625 642.21875 " fill-opacity="1" fill-rule="nonzero"/><path fill="#000000" d="M 244.535156 437.679688 C 244.742188 436.445312 244.949219 434.902344 246.078125 434.285156 C 246.695312 433.875 247.519531 433.875 248.136719 434.183594 C 249.679688 439.835938 247.519531 446.316406 242.890625 450.019531 C 243.40625 445.90625 244.023438 441.792969 244.535156 437.679688 " fill-opacity="1" fill-rule="nonzero"/><path fill="#000000" d="M 423.234375 527.554688 C 421.484375 526.015625 424.363281 523.648438 426.628906 523.132812 C 430.332031 522.414062 434.136719 521.59375 437.839844 520.871094 C 434.34375 523.648438 430.433594 525.910156 426.320312 527.554688 C 425.289062 527.96875 424.054688 528.277344 423.234375 527.554688 " fill-opacity="1" fill-rule="nonzero"/><path fill="#000000" d="M 550.078125 587.921875 C 549.875 587.097656 549.976562 586.273438 550.386719 585.453125 C 551.828125 586.582031 554.296875 585.863281 554.8125 584.117188 C 555.222656 586.171875 553.578125 588.433594 551.417969 588.640625 C 552.035156 591.828125 549.460938 595.222656 546.171875 595.53125 C 545.449219 592.753906 547.40625 589.464844 550.285156 588.949219 " fill-opacity="1" fill-rule="nonzero"/><path fill="#000000" d="M 337.433594 222.648438 C 337.125 224.191406 336.507812 225.839844 335.273438 226.761719 C 334.140625 227.585938 332.597656 227.792969 331.261719 227.277344 C 331.570312 221.3125 333.832031 215.453125 337.535156 210.722656 C 338.460938 214.628906 338.460938 218.742188 337.433594 222.648438 " fill-opacity="1" fill-rule="nonzero"/><path fill="#000000" d="M 398.75 218.023438 C 392.988281 216.480469 387.535156 214.21875 382.289062 211.234375 C 388.460938 210.925781 394.632812 213.496094 398.75 218.023438 " fill-opacity="1" fill-rule="nonzero"/><path fill="#000000" d="M 220.359375 420.609375 C 220.773438 416.390625 221.082031 412.277344 221.492188 408.164062 C 221.59375 406.109375 223.136719 403.332031 224.886719 404.460938 C 225.710938 408.78125 225.609375 413.203125 224.371094 417.417969 C 223.859375 419.375 222.109375 421.636719 220.359375 420.609375 " fill-opacity="1" fill-rule="nonzero"/><path fill="#000000" d="M 228.898438 449.605469 C 228.695312 452.589844 229.003906 455.675781 229.824219 458.554688 C 229.003906 459.273438 227.871094 458.140625 227.460938 457.113281 C 225.195312 451.765625 225.296875 445.492188 227.5625 440.144531 C 227.871094 443.335938 228.179688 446.417969 228.488281 449.605469 " fill-opacity="1" fill-rule="nonzero"/><path fill="#000000" d="M 180.136719 435.210938 C 179.003906 427.910156 179.722656 420.300781 182.195312 413.410156 C 183.53125 420.710938 182.8125 428.320312 180.136719 435.210938 " fill-opacity="1" fill-rule="nonzero"/><path fill="#000000" d="M 84.769531 475.726562 C 86.414062 470.996094 89.8125 466.882812 94.027344 464.210938 C 92.792969 467.089844 91.457031 469.867188 90.222656 472.746094 C 92.175781 473.363281 93.71875 475.214844 94.027344 477.269531 C 91.148438 475.933594 87.957031 475.417969 84.769531 475.726562 " fill-opacity="1" fill-rule="nonzero"/><path fill="#000000" d="M 540.511719 463.386719 C 538.96875 456.1875 539.378906 448.476562 541.746094 441.484375 C 542.15625 440.25 543.1875 438.808594 544.421875 439.324219 C 545.964844 447.449219 544.523438 456.1875 540.511719 463.386719 " fill-opacity="1" fill-rule="nonzero"/><path fill="#000000" d="M 185.792969 448.992188 C 187.75 444.980469 192.378906 443.128906 196.289062 440.96875 C 198.242188 439.835938 200.195312 438.398438 200.8125 436.238281 C 201.429688 438.296875 201.535156 440.558594 201.121094 442.71875 C 197.214844 446.832031 191.453125 449.09375 185.792969 448.992188 " fill-opacity="1" fill-rule="nonzero"/><path fill="#000000" d="M 330.953125 498.867188 C 330.953125 501.230469 329.820312 504.726562 327.453125 504.109375 C 326.632812 496.808594 326.425781 489.300781 326.941406 482 C 327.660156 481.074219 329.203125 481.28125 329.925781 482.207031 C 330.644531 483.132812 330.644531 484.367188 330.644531 485.496094 C 330.746094 489.917969 330.851562 494.445312 330.953125 498.867188 " fill-opacity="1" fill-rule="nonzero"/><path fill="#000000" d="M 258.835938 411.148438 C 257.601562 417.933594 255.234375 424.515625 252.046875 430.582031 C 251.53125 431.507812 250.503906 432.023438 249.476562 432.023438 C 251.636719 424.617188 254.824219 417.625 258.835938 411.148438 " fill-opacity="1" fill-rule="nonzero"/><path fill="#000000" d="M 205.957031 513.980469 C 205.238281 513.160156 205.855469 511.71875 206.882812 511.515625 C 213.777344 513.160156 220.566406 514.804688 227.460938 516.347656 C 228.386719 516.863281 227.972656 518.402344 227.152344 518.816406 C 226.226562 519.226562 225.09375 519.019531 224.167969 518.816406 C 218.097656 517.171875 212.027344 515.628906 205.957031 513.980469 " fill-opacity="1" fill-rule="nonzero"/><path fill="#000000" d="M 264.082031 275.507812 C 262.847656 280.445312 260.792969 285.277344 258.117188 289.597656 C 256.265625 292.476562 254.207031 295.148438 251.636719 297.410156 C 254 289.289062 258.320312 281.675781 264.082031 275.507812 " fill-opacity="1" fill-rule="nonzero"/><path fill="#000000" d="M 370.558594 202.804688 C 373.441406 205.785156 376.425781 208.5625 379.613281 211.132812 C 379.921875 215.144531 382.183594 219.050781 385.683594 221.3125 C 384.859375 223.265625 381.875 221.828125 380.539062 220.285156 C 377.246094 216.480469 374.058594 212.570312 370.867188 208.765625 C 369.324219 207.019531 368.195312 203.417969 370.558594 202.804688 " fill-opacity="1" fill-rule="nonzero"/><path fill="#000000" d="M 537.734375 504.726562 C 539.585938 503.699219 541.847656 504.519531 543.390625 505.859375 C 545.039062 507.296875 546.066406 509.046875 547.609375 510.484375 C 549.152344 511.925781 551.109375 512.851562 552.652344 514.289062 C 554.089844 515.832031 555.015625 518.300781 553.886719 520.050781 C 552.34375 520.359375 550.59375 519.742188 549.566406 518.507812 C 547.917969 518.917969 548.332031 521.386719 548.84375 522.929688 C 549.359375 524.574219 548.742188 527.144531 547.097656 526.734375 C 545.449219 518.917969 542.261719 511.308594 537.734375 504.726562 " fill-opacity="1" fill-rule="nonzero"/><path fill="#000000" d="M 182.605469 439.53125 C 185.589844 433.875 189.1875 428.421875 193.304688 423.589844 C 195.363281 426.777344 192.789062 430.789062 190.421875 433.769531 C 186.925781 437.882812 183.429688 442.101562 179.929688 446.316406 C 179.105469 446.726562 177.976562 446.523438 177.253906 445.90625 C 178.179688 442.820312 179.105469 439.734375 180.035156 436.753906 C 180.855469 437.679688 181.78125 438.605469 182.605469 439.53125 " fill-opacity="1" fill-rule="nonzero"/><path fill="#000000" d="M 251.328125 252.164062 C 251.121094 259.363281 247.828125 266.046875 244.640625 272.523438 C 242.890625 275.917969 241.246094 279.3125 239.496094 282.601562 C 237.644531 282.910156 236.921875 280.03125 237.953125 278.386719 C 238.980469 276.742188 240.832031 275.714844 241.449219 273.863281 C 244.125 266.355469 247.417969 259.054688 251.328125 252.164062 " fill-opacity="1" fill-rule="nonzero"/><path fill="#000000" d="M 260.070312 578.972656 C 259.246094 578.460938 259.554688 577.226562 260.378906 576.8125 C 261.101562 576.402344 262.027344 576.609375 262.847656 576.710938 C 269.125 578.046875 275.296875 579.386719 281.46875 580.722656 C 284.761719 581.441406 288.773438 582.984375 288.671875 586.273438 C 281.777344 586.378906 274.78125 584.21875 269.125 580.207031 C 267.785156 581.75 264.496094 579.898438 265.730469 578.355469 C 263.878906 578.5625 261.921875 578.769531 260.070312 578.972656 " fill-opacity="1" fill-rule="nonzero"/><path fill="#000000" d="M 62.546875 491.359375 C 69.851562 497.21875 77.054688 503.082031 84.359375 508.941406 C 85.902344 510.175781 87.546875 511.515625 88.0625 513.46875 C 78.1875 508.019531 69.339844 500.40625 62.546875 491.359375 " fill-opacity="1" fill-rule="nonzero"/><path fill="#000000" d="M 342.269531 84.234375 C 341.859375 85.671875 340.417969 87.523438 339.285156 86.496094 C 339.699219 84.335938 339.078125 81.972656 337.535156 80.324219 C 338.152344 81.664062 335.066406 81.457031 335.171875 80.019531 C 335.375 78.476562 336.917969 77.753906 338.257812 77.035156 C 339.59375 76.316406 340.828125 74.773438 340.007812 73.539062 C 336.816406 72.304688 333.9375 75.699219 332.085938 78.476562 C 330.128906 81.355469 326.425781 84.234375 323.75 82.175781 C 329.511719 76.007812 335.890625 69.527344 344.222656 67.882812 C 344.222656 73.332031 343.605469 78.886719 342.269531 84.234375 " fill-opacity="1" fill-rule="nonzero"/><path fill="#000000" d="M 425.085938 213.292969 C 429.300781 215.039062 433.625 216.789062 438.046875 217.917969 C 432.492188 217.816406 427.039062 217.714844 421.484375 217.609375 C 419.941406 217.507812 418.398438 217.507812 417.058594 216.582031 C 415.824219 215.761719 415.105469 213.910156 416.03125 212.675781 C 411.402344 211.441406 406.773438 210.207031 402.144531 208.871094 C 400.601562 208.457031 398.851562 207.945312 397.71875 206.710938 C 396.691406 205.476562 396.691406 203.113281 398.132812 202.390625 C 407.183594 205.992188 416.132812 209.691406 425.085938 213.292969 " fill-opacity="1" fill-rule="nonzero"/><path fill="#000000" d="M 361.300781 81.664062 C 360.273438 77.960938 360.375 74.054688 361.609375 70.453125 C 358.933594 68.808594 357.082031 65.828125 356.671875 62.742188 C 364.800781 66.238281 372.515625 70.453125 379.921875 75.289062 C 374.675781 73.640625 369.429688 72.097656 364.183594 70.453125 C 363.359375 72.714844 366.035156 74.566406 368.296875 75.390625 C 370.558594 76.316406 373.335938 77.859375 372.824219 80.222656 C 370.148438 79.8125 367.578125 78.785156 365.3125 77.242188 C 364.492188 79.09375 363.050781 80.632812 361.300781 81.664062 " fill-opacity="1" fill-rule="nonzero"/><path fill="#000000" d="M 70.882812 285.171875 C 70.160156 282.601562 69.339844 280.03125 69.03125 277.359375 C 68.617188 274.683594 68.722656 271.804688 69.339844 269.132812 C 75.097656 284.660156 79.214844 300.804688 81.582031 317.15625 C 77.773438 306.5625 74.171875 295.972656 70.882812 285.171875 " fill-opacity="1" fill-rule="nonzero"/><path fill="#000000" d="M 258.117188 453.824219 C 257.394531 455.878906 256.46875 458.140625 254.414062 458.757812 C 259.144531 443.746094 264.699219 429.039062 270.976562 414.539062 C 271.386719 417.316406 270.359375 420.09375 269.433594 422.664062 C 265.625 433.050781 261.921875 443.4375 258.117188 453.824219 " fill-opacity="1" fill-rule="nonzero"/><path fill="#000000" d="M 213.363281 227.277344 C 220.976562 242.601562 228.488281 258.023438 235.996094 273.347656 C 236.410156 274.066406 235.484375 274.992188 234.761719 274.683594 C 227.046875 260.800781 219.949219 246.507812 213.46875 232.007812 C 212.746094 230.464844 212.128906 228.410156 213.363281 227.277344 " fill-opacity="1" fill-rule="nonzero"/><path fill="#000000" d="M 263.054688 415.671875 C 263.773438 414.128906 264.699219 412.382812 266.449219 412.382812 C 259.867188 429.246094 253.382812 446.109375 246.800781 462.976562 C 244.640625 463.179688 244.640625 459.789062 245.460938 457.835938 C 251.328125 443.746094 257.191406 429.761719 263.054688 415.671875 " fill-opacity="1" fill-rule="nonzero"/><path fill="#000000" d="M 154.519531 421.328125 C 152.050781 429.554688 146.496094 436.855469 139.191406 441.378906 C 142.894531 430.992188 149.273438 421.636719 157.710938 414.4375 C 157.296875 416.804688 160.074219 419.066406 162.234375 418.140625 C 158.839844 421.019531 159.664062 426.46875 161.308594 430.6875 C 162.957031 434.800781 165.320312 439.324219 163.882812 443.539062 C 156.164062 440.144531 161.105469 426.46875 154.519531 421.328125 " fill-opacity="1" fill-rule="nonzero"/><path fill="#000000" d="M 370.558594 501.949219 C 372.824219 495.882812 374.46875 489.300781 372.824219 483.027344 C 372.308594 480.972656 370.972656 478.710938 368.8125 478.402344 C 367.371094 478.195312 364.902344 477.476562 365.929688 476.445312 C 367.886719 476.859375 369.839844 477.167969 371.792969 477.476562 C 371.589844 475.933594 373.132812 473.566406 373.957031 475.007812 C 375.910156 477.371094 374.777344 480.871094 374.46875 483.953125 C 374.265625 487.140625 376.117188 491.253906 379.097656 490.433594 C 378.378906 485.394531 381.773438 480.765625 384.859375 476.753906 C 385.785156 475.726562 386.609375 474.699219 387.433594 473.566406 C 389.285156 471.203125 392.0625 468.527344 394.941406 469.453125 C 391.339844 475.417969 387.636719 481.382812 384.035156 487.347656 C 382.800781 489.507812 381.054688 491.976562 378.480469 492.078125 C 377.246094 495.78125 376.011719 499.378906 374.777344 503.082031 C 373.644531 502.054688 372.101562 501.640625 370.558594 501.949219 " fill-opacity="1" fill-rule="nonzero"/><path fill="#000000" d="M 479.917969 192.519531 C 474.671875 187.890625 469.21875 183.160156 465.824219 176.886719 C 483.621094 192.621094 501.316406 208.355469 519.011719 223.988281 C 517.46875 224.808594 515.617188 223.574219 514.382812 222.445312 C 502.859375 212.46875 491.441406 202.496094 479.917969 192.519531 " fill-opacity="1" fill-rule="nonzero"/><path fill="#000000" d="M 296.078125 196.324219 C 276.015625 201.464844 255.542969 205.578125 235.175781 209.796875 C 227.972656 211.234375 220.875 212.675781 213.671875 214.113281 C 213.160156 212.878906 214.910156 211.957031 216.246094 211.648438 C 239.90625 206.710938 263.671875 201.671875 287.332031 196.734375 C 290.214844 196.117188 293.300781 195.5 296.078125 196.324219 " fill-opacity="1" fill-rule="nonzero"/><path fill="#000000" d="M 520.964844 231.390625 C 505.328125 232.417969 489.484375 230.875 474.257812 226.96875 C 483.414062 227.6875 492.570312 228.304688 501.726562 229.027344 C 507.796875 229.539062 514.074219 229.953125 519.9375 228.304688 C 521.582031 227.894531 523.949219 227.585938 524.566406 229.230469 C 524.667969 229.539062 524.667969 229.953125 524.667969 230.363281 C 524.464844 248.460938 524.359375 266.5625 524.15625 284.660156 C 519.421875 267.382812 524.875 248.769531 520.964844 231.390625 " fill-opacity="1" fill-rule="nonzero"/><path fill="#000000" d="M 279.101562 230.566406 C 276.839844 230.054688 274.78125 231.699219 272.828125 233.035156 C 268.507812 235.914062 263.15625 237.457031 257.910156 237.253906 C 266.859375 232.316406 275.8125 227.277344 284.761719 222.238281 C 287.640625 220.695312 290.523438 219.050781 292.476562 216.378906 C 293.8125 214.628906 294.535156 212.367188 295.253906 210.308594 C 296.386719 207.121094 297.519531 203.933594 298.546875 200.847656 C 299.164062 198.996094 298.957031 196.015625 297.003906 196.324219 C 300.398438 194.472656 302.042969 190.566406 303.382812 186.863281 C 306.058594 179.5625 308.730469 172.15625 311.304688 164.855469 C 313.359375 174.007812 309.144531 183.367188 304.925781 191.902344 C 305.953125 192.109375 306.878906 192.417969 307.804688 192.726562 C 302.765625 198.175781 299.371094 205.167969 298.136719 212.570312 C 297.929688 213.804688 298.753906 215.761719 299.78125 215.039062 C 297.414062 223.78125 280.75 221.621094 279.101562 230.566406 " fill-opacity="1" fill-rule="nonzero"/><path fill="#000000" d="M 237.128906 448.683594 C 234.144531 439.835938 232.808594 430.480469 233.117188 421.226562 C 231.78125 420.402344 230.03125 421.226562 229.105469 422.457031 C 228.28125 423.796875 228.078125 425.339844 227.871094 426.878906 C 226.636719 434.902344 223.445312 442.613281 218.613281 449.09375 C 220.359375 441.378906 222.109375 433.769531 223.859375 426.058594 C 224.269531 424.515625 224.679688 422.871094 225.710938 421.636719 C 226.636719 420.503906 228.078125 419.886719 229.003906 418.757812 C 232.292969 414.644531 227.871094 406.621094 232.5 404.050781 C 234.351562 407.34375 234.558594 411.457031 233.21875 414.847656 C 234.351562 416.496094 236.921875 415.054688 237.4375 413.304688 C 238.054688 411.457031 237.746094 409.398438 238.777344 407.855469 C 239.804688 406.210938 243.199219 406.621094 242.789062 408.472656 C 243.714844 407.238281 245.667969 407.035156 246.800781 408.0625 C 244.949219 410.632812 242.789062 413.101562 240.320312 415.15625 C 241.140625 415.363281 241.964844 415.570312 242.789062 415.773438 C 245.257812 421.636719 245.667969 428.320312 244.023438 434.386719 C 241.863281 428.9375 240.9375 422.972656 241.449219 417.113281 C 239.804688 416.90625 238.160156 416.699219 236.511719 416.496094 C 232.601562 426.675781 240.523438 438.398438 237.128906 448.683594 " fill-opacity="1" fill-rule="nonzero"/><path fill="#000000" d="M 104.007812 146.039062 C 110.488281 181.824219 116.867188 217.714844 123.347656 253.5 C 124.996094 262.652344 126.640625 272.011719 125.507812 281.265625 C 116.042969 236.636719 108.84375 191.386719 104.007812 146.039062 " fill-opacity="1" fill-rule="nonzero"/></svg>