<svg xmlns="http://www.w3.org/2000/svg" xmlns:xlink="http://www.w3.org/1999/xlink" width="1000" zoomAndPan="magnify" viewBox="0 0 750 749.999995" height="1000" preserveAspectRatio="xMidYMid meet" version="1.0"><defs><clipPath id="id1"><path d="M 373 95.457031 L 462 95.457031 L 462 138 L 373 138 Z M 373 95.457031 " clip-rule="nonzero"/></clipPath><clipPath id="id2"><path d="M 652 580 L 674.972656 580 L 674.972656 583 L 652 583 Z M 652 580 " clip-rule="nonzero"/></clipPath><clipPath id="id3"><path d="M 513 652 L 589 652 L 589 654.207031 L 513 654.207031 Z M 513 652 " clip-rule="nonzero"/></clipPath><clipPath id="id4"><path d="M 413 652 L 488 652 L 488 654.207031 L 413 654.207031 Z M 413 652 " clip-rule="nonzero"/></clipPath><clipPath id="id5"><path d="M 336 652 L 359 652 L 359 654.207031 L 336 654.207031 Z M 336 652 " clip-rule="nonzero"/></clipPath><clipPath id="id6"><path d="M 370 652 L 392 652 L 392 654.207031 L 370 654.207031 Z M 370 652 " clip-rule="nonzero"/></clipPath><clipPath id="id7"><path d="M 245 652 L 320 652 L 320 654.207031 L 245 654.207031 Z M 245 652 " clip-rule="nonzero"/></clipPath><clipPath id="id8"><path d="M 168 652 L 191 652 L 191 654.207031 L 168 654.207031 Z M 168 652 " clip-rule="nonzero"/></clipPath><clipPath id="id9"><path d="M 202 652 L 224 652 L 224 654.207031 L 202 654.207031 Z M 202 652 " clip-rule="nonzero"/></clipPath></defs><path fill="#000000" d="M 204.390625 416.667969 C 202.792969 418.910156 201.203125 421.128906 199.621094 423.320312 L 199.667969 426.757812 C 202.070312 423.457031 204.484375 420.09375 206.914062 416.667969 Z M 204.390625 416.667969 " fill-opacity="1" fill-rule="nonzero"/><path fill="#000000" d="M 316.871094 242.242188 C 316.539062 241.429688 316.21875 240.613281 315.917969 239.789062 C 289.570312 285.121094 256.378906 340.175781 223.917969 388.402344 C 224.242188 389.132812 224.582031 389.859375 224.933594 390.578125 C 257.308594 342.558594 290.453125 287.652344 316.871094 242.242188 Z M 316.871094 242.242188 " fill-opacity="1" fill-rule="nonzero"/><path fill="#000000" d="M 318.773438 246.410156 C 294.332031 293.683594 263.265625 352.191406 233.511719 403.761719 C 233.757812 404.054688 233.996094 404.359375 234.25 404.648438 L 235.371094 404.648438 C 264.855469 353.546875 295.609375 295.664062 319.9375 248.636719 C 319.535156 247.898438 319.144531 247.15625 318.773438 246.410156 Z M 318.773438 246.410156 " fill-opacity="1" fill-rule="nonzero"/><path fill="#000000" d="M 361.40625 166.949219 C 362.925781 163.890625 364.144531 161.433594 365.023438 159.652344 L 382.082031 159.652344 L 385.804688 139.976562 L 385.976562 139.074219 L 358.347656 139.074219 L 358.890625 141.929688 L 381.8125 141.929688 L 381.8125 143.398438 L 359.167969 143.398438 L 362 158.371094 C 360.628906 160.863281 359.046875 163.734375 357.265625 166.949219 Z M 361.40625 166.949219 " fill-opacity="1" fill-rule="nonzero"/><path fill="#000000" d="M 580.195312 369.199219 L 569.539062 369.199219 L 569.15625 396.164062 L 580.578125 396.164062 Z M 580.195312 369.199219 " fill-opacity="1" fill-rule="nonzero"/><path fill="#000000" d="M 578.363281 239.933594 L 575.800781 239.933594 L 575.800781 233.261719 C 580.480469 231.546875 600.292969 231.789062 610.484375 236.503906 C 621.660156 241.675781 632.0625 240.148438 633.25 235.675781 C 622.125 237.28125 616.898438 229.054688 627.042969 231.332031 C 643.613281 234.914062 637.390625 222.644531 637.390625 222.644531 C 637.390625 222.644531 636.253906 230.089844 616.488281 221.816406 C 600.558594 215.148438 583.292969 216.976562 577.1875 217.9375 C 577.261719 217.707031 577.3125 217.460938 577.3125 217.203125 C 577.3125 215.886719 576.242188 214.816406 574.925781 214.816406 C 573.605469 214.816406 572.535156 215.886719 572.535156 217.203125 C 572.535156 218.210938 573.164062 219.070312 574.046875 219.421875 L 574.046875 239.933594 L 571.375 239.933594 L 571.121094 257.828125 L 578.621094 257.828125 Z M 578.363281 239.933594 " fill-opacity="1" fill-rule="nonzero"/><path fill="#000000" d="M 619.441406 366.683594 C 620.175781 366.683594 620.773438 366.082031 620.773438 365.351562 L 620.773438 361.027344 C 620.773438 360.296875 620.175781 359.695312 619.441406 359.695312 L 616.304688 359.695312 C 592.585938 333.382812 593.15625 292.980469 617.984375 267.328125 L 619.441406 267.328125 C 620.175781 267.328125 620.773438 266.730469 620.773438 265.996094 L 620.773438 261.671875 C 620.773438 260.941406 620.175781 260.34375 619.441406 260.34375 L 521.917969 260.34375 C 521.1875 260.34375 520.589844 260.941406 520.589844 261.671875 L 520.589844 265.996094 C 520.589844 266.425781 520.796875 266.808594 521.117188 267.050781 L 562.691406 267.050781 L 562.691406 269.046875 L 520.546875 269.046875 C 497.796875 294.210938 497.28125 332.296875 519.023438 358.035156 L 562.691406 358.035156 L 562.691406 360.027344 L 520.769531 360.027344 C 520.816406 360.078125 520.855469 360.128906 520.902344 360.179688 C 520.710938 360.410156 520.589844 360.703125 520.589844 361.027344 L 520.589844 365.351562 C 520.589844 366.085938 521.1875 366.683594 521.917969 366.683594 Z M 576.839844 267.050781 L 584.410156 267.050781 L 584.410156 269.046875 L 576.839844 269.046875 Z M 565.6875 267.050781 L 573.261719 267.050781 L 573.261719 269.046875 L 565.6875 269.046875 Z M 536.988281 298.339844 C 539.8125 290.882812 551.558594 286.105469 559.5625 286.125 C 567.664062 286.105469 568.972656 290.882812 566.148438 298.339844 C 563.953125 303.933594 560.023438 309 554.761719 311.144531 C 554.761719 312.320312 554.800781 313.496094 554.914062 314.667969 C 555.019531 315.785156 554.324219 316.695312 553.289062 316.695312 C 553.214844 316.695312 553.140625 316.695312 553.070312 316.695312 C 552.03125 316.695312 551.039062 315.785156 550.933594 314.667969 C 550.851562 313.828125 550.8125 312.984375 550.789062 312.140625 C 550.257812 312.199219 549.714844 312.230469 549.164062 312.226562 C 548.621094 312.230469 548.082031 312.203125 547.550781 312.144531 C 547.570312 312.988281 547.613281 313.828125 547.695312 314.667969 C 547.800781 315.785156 547.101562 316.695312 546.066406 316.695312 C 545.996094 316.695312 545.921875 316.695312 545.847656 316.695312 C 544.816406 316.695312 543.820312 315.785156 543.714844 314.667969 C 543.601562 313.5 543.558594 312.328125 543.5625 311.15625 C 538.28125 309.019531 534.789062 303.945312 536.988281 298.339844 Z M 573.261719 360.027344 L 565.6875 360.027344 L 565.6875 358.035156 L 573.261719 358.035156 Z M 573.828125 336.203125 C 571.898438 335.726562 569.894531 334.335938 569.472656 333.027344 C 569.417969 332.859375 569.390625 332.703125 569.390625 332.554688 C 563.816406 330.964844 558.398438 329.296875 553.128906 327.570312 C 549.640625 329.300781 546.304688 330.96875 543.121094 332.5625 C 543.335938 332.707031 543.546875 332.863281 543.746094 333.027344 C 545.328125 334.335938 545.925781 335.726562 544.964844 336.203125 C 544.003906 336.675781 541.75 336.113281 540.054688 334.871094 C 538.878906 334.011719 538.339844 333.039062 538.464844 332.335938 C 537.390625 332.234375 536.054688 331.65625 535.03125 330.722656 C 533.550781 329.363281 533.394531 327.753906 534.558594 327.179688 C 535.726562 326.601562 537.675781 327.3125 539.039062 328.722656 C 539.214844 328.902344 539.371094 329.082031 539.511719 329.261719 C 541.945312 328.050781 544.453125 326.804688 547.042969 325.53125 C 542.363281 323.925781 537.816406 322.28125 533.386719 320.605469 C 533.410156 320.808594 533.414062 321.007812 533.398438 321.203125 C 533.269531 322.71875 531.917969 323.4375 530.257812 322.839844 C 528.601562 322.246094 527.351562 320.535156 527.601562 318.992188 C 527.769531 317.929688 528.5625 317.253906 529.542969 317.132812 C 528.761719 316.308594 528.375 315.140625 528.695312 314.058594 C 529.15625 312.496094 530.8125 311.730469 532.261719 312.359375 C 533.71875 312.984375 534.519531 314.761719 534.175781 316.316406 C 534.132812 316.511719 534.070312 316.695312 533.992188 316.863281 C 539.554688 319.097656 545.320312 321.304688 551.308594 323.449219 C 555.722656 321.304688 560.363281 319.101562 565.207031 316.871094 C 565.074219 316.699219 564.953125 316.515625 564.847656 316.316406 C 564.035156 314.761719 564.640625 312.984375 566.074219 312.359375 C 567.507812 311.730469 569.132812 312.496094 569.828125 314.058594 C 570.300781 315.140625 570.246094 316.308594 569.734375 317.132812 C 570.75 317.253906 571.773438 317.929688 572.402344 318.992188 C 573.3125 320.535156 573.152344 322.246094 571.917969 322.839844 C 570.695312 323.4375 568.765625 322.71875 567.738281 321.203125 C 567.609375 321.011719 567.503906 320.816406 567.414062 320.617188 C 563.90625 322.289062 560.519531 323.933594 557.257812 325.53125 C 560.953125 326.800781 564.730469 328.042969 568.582031 329.25 C 568.511719 329.074219 568.460938 328.898438 568.433594 328.722656 C 568.226562 327.316406 569.550781 326.601562 571.273438 327.179688 C 572.996094 327.753906 574.558594 329.363281 574.886719 330.722656 C 575.109375 331.660156 574.628906 332.234375 573.707031 332.335938 C 574.875 333.039062 575.863281 334.011719 576.238281 334.871094 C 576.777344 336.113281 575.757812 336.675781 573.828125 336.203125 Z M 576.839844 358.03125 L 584.410156 358.03125 L 584.410156 360.027344 L 576.839844 360.027344 Z M 576.839844 358.03125 " fill-opacity="1" fill-rule="nonzero"/><path fill="#000000" d="M 543.773438 305.570312 C 546.140625 305.582031 548.476562 302.15625 550.0625 298.171875 C 551.621094 294.175781 551.832031 291.261719 549.46875 291.261719 C 547.128906 291.261719 543.105469 294.175781 541.546875 298.171875 C 539.957031 302.15625 541.433594 305.582031 543.773438 305.570312 Z M 543.773438 305.570312 " fill-opacity="1" fill-rule="nonzero"/><path fill="#000000" d="M 555.4375 305.570312 C 557.800781 305.582031 560.140625 302.15625 561.726562 298.171875 C 563.285156 294.175781 563.5 291.261719 561.128906 291.261719 C 558.792969 291.261719 554.769531 294.175781 553.210938 298.171875 C 551.625 302.15625 553.101562 305.582031 555.4375 305.570312 Z M 555.4375 305.570312 " fill-opacity="1" fill-rule="nonzero"/><g clip-path="url(#id1)"><path fill="#000000" d="M 378.257812 119.808594 C 384.433594 117.539062 410.589844 117.863281 424.042969 124.085938 C 438.796875 130.914062 452.527344 128.898438 454.097656 122.992188 C 439.414062 125.109375 432.511719 114.253906 445.902344 117.257812 C 467.777344 121.984375 459.5625 105.789062 459.5625 105.789062 C 459.5625 105.789062 458.0625 115.621094 431.964844 104.695312 C 410.9375 95.894531 388.148438 98.308594 380.085938 99.574219 C 380.183594 99.269531 380.253906 98.949219 380.253906 98.609375 C 380.253906 96.867188 378.839844 95.457031 377.097656 95.457031 C 375.355469 95.457031 373.945312 96.867188 373.945312 98.609375 C 373.945312 99.9375 374.773438 101.070312 375.941406 101.535156 L 375.941406 137.390625 L 378.257812 137.390625 Z M 378.257812 119.808594 " fill-opacity="1" fill-rule="nonzero"/></g><path fill="#000000" d="M 364.820312 122.804688 C 367.171875 122.257812 368.632812 119.910156 368.085938 117.5625 C 367.539062 115.214844 365.191406 113.753906 362.839844 114.300781 C 360.492188 114.847656 359.03125 117.195312 359.578125 119.542969 C 360.125 121.890625 362.472656 123.351562 364.820312 122.804688 Z M 364.820312 122.804688 " fill-opacity="1" fill-rule="nonzero"/><path fill="#000000" d="M 373.074219 137.390625 C 373.078125 137.375 373.082031 137.363281 373.085938 137.347656 C 373.585938 133.035156 373.304688 130.488281 371.980469 126.574219 C 371.152344 124.15625 369.289062 123.15625 367.730469 123.160156 C 367.550781 123.117188 367.363281 123.109375 367.167969 123.144531 L 359.589844 124.429688 L 356.847656 119.601562 L 358.480469 119.601562 L 358.480469 119.714844 C 358.480469 119.832031 358.574219 119.929688 358.691406 119.929688 C 358.808594 119.929688 358.90625 119.832031 358.90625 119.714844 L 358.90625 118.136719 C 358.90625 118.019531 358.808594 117.921875 358.691406 117.921875 C 358.574219 117.921875 358.480469 118.019531 358.480469 118.136719 L 358.480469 118.25 L 356.035156 118.25 L 356.035156 118.125 L 352.289062 118.125 L 352.289062 118.25 L 352.046875 118.25 L 352.046875 117.957031 L 346.089844 117.957031 L 346.089844 117.769531 C 346.089844 117.652344 345.992188 117.554688 345.875 117.554688 C 345.757812 117.554688 345.664062 117.652344 345.664062 117.769531 L 345.664062 120.085938 C 345.664062 120.203125 345.757812 120.300781 345.875 120.300781 C 345.992188 120.300781 346.089844 120.203125 346.089844 120.085938 L 346.089844 119.898438 L 352.046875 119.898438 L 352.046875 119.601562 L 352.289062 119.601562 L 352.289062 119.730469 L 354.003906 119.730469 C 353.960938 120.03125 354.007812 120.347656 354.167969 120.632812 L 357.609375 126.699219 C 357.867188 127.148438 358.339844 127.417969 358.84375 127.417969 C 358.925781 127.417969 359.003906 127.410156 359.082031 127.398438 L 363.597656 126.628906 L 361.382812 128.867188 L 354.9375 128.25 C 354.210938 128.179688 353.542969 128.71875 353.472656 129.457031 C 353.402344 130.191406 353.941406 130.847656 354.679688 130.917969 L 361.757812 131.601562 C 361.800781 131.605469 361.84375 131.605469 361.886719 131.605469 C 362.242188 131.605469 362.585938 131.464844 362.839844 131.207031 L 365.285156 128.742188 C 365.792969 131.253906 366.460938 134.492188 366.179688 137.390625 Z M 373.074219 137.390625 " fill-opacity="1" fill-rule="nonzero"/><path fill="#000000" d="M 188.183594 287.402344 L 187.929688 305.296875 L 195.429688 305.296875 L 195.175781 287.402344 L 192.613281 287.402344 L 192.613281 280.734375 C 197.289062 279.015625 217.105469 279.257812 227.296875 283.972656 C 238.472656 289.144531 248.871094 287.617188 250.0625 283.144531 C 238.9375 284.75 233.710938 276.527344 243.855469 278.800781 C 260.425781 282.382812 254.203125 270.113281 254.203125 270.113281 C 254.203125 270.113281 253.0625 277.5625 233.296875 269.285156 C 217.371094 262.617188 200.105469 264.445312 194 265.40625 C 194.074219 265.175781 194.125 264.933594 194.125 264.675781 C 194.125 263.355469 193.054688 262.289062 191.738281 262.289062 C 190.417969 262.289062 189.347656 263.355469 189.347656 264.675781 C 189.347656 265.683594 189.976562 266.539062 190.859375 266.890625 L 190.859375 287.402344 Z M 188.183594 287.402344 " fill-opacity="1" fill-rule="nonzero"/><path fill="#000000" d="M 395.894531 463.511719 C 395.769531 462.316406 395.648438 461.132812 395.527344 459.945312 L 393.457031 459.945312 C 393.59375 461.265625 393.726562 462.578125 393.867188 463.902344 C 394.503906 463.671875 395.183594 463.535156 395.894531 463.511719 Z M 395.894531 463.511719 " fill-opacity="1" fill-rule="nonzero"/><path fill="#000000" d="M 384.402344 287.234375 L 386.460938 287.234375 C 386.460938 281.195312 386.488281 275.445312 386.546875 270.039062 C 386.558594 269.222656 386.566406 268.414062 386.578125 267.605469 L 384.515625 267.605469 C 384.507812 268.394531 384.5 269.183594 384.488281 269.980469 C 384.429688 275.40625 384.402344 281.175781 384.402344 287.234375 Z M 384.402344 287.234375 " fill-opacity="1" fill-rule="nonzero"/><path fill="#000000" d="M 415.945312 464.625 C 415.71875 463.058594 415.503906 461.5 415.285156 459.941406 L 413.207031 459.941406 C 413.507812 462.097656 413.8125 464.253906 414.125 466.425781 C 414.609375 465.714844 415.230469 465.105469 415.945312 464.625 Z M 415.945312 464.625 " fill-opacity="1" fill-rule="nonzero"/><path fill="#000000" d="M 406.085938 235.851562 C 405.421875 223.902344 405.015625 213.648438 404.761719 205.304688 C 402.53125 215.386719 402.960938 225.953125 406.085938 235.851562 Z M 406.085938 235.851562 " fill-opacity="1" fill-rule="nonzero"/><path fill="#000000" d="M 405.046875 204.027344 C 406.054688 213.824219 407.667969 227.90625 410.132812 245.546875 C 410.96875 247.125 411.882812 248.675781 412.871094 250.1875 C 409.519531 226.839844 407.597656 209.1875 406.59375 198.78125 C 405.996094 200.511719 405.480469 202.261719 405.046875 204.027344 Z M 405.046875 204.027344 " fill-opacity="1" fill-rule="nonzero"/><path fill="#000000" d="M 418.894531 256.511719 L 419.394531 256.511719 C 420.015625 256.511719 420.59375 256.6875 421.105469 256.964844 C 413.664062 223.609375 409.894531 201.011719 408.710938 193.519531 C 408.167969 194.707031 407.667969 195.910156 407.207031 197.125 C 408.789062 206.757812 412.445312 227.519531 418.894531 256.511719 Z M 418.894531 256.511719 " fill-opacity="1" fill-rule="nonzero"/><path fill="#000000" d="M 421.285156 267.058594 C 422.058594 270.421875 422.867188 273.878906 423.710938 277.429688 C 421.769531 278.503906 419.679688 279.453125 417.515625 280.277344 C 417.414062 279.65625 417.308594 279.019531 417.207031 278.40625 C 416.601562 274.710938 416.027344 271.113281 415.480469 267.605469 L 413.398438 267.605469 C 413.957031 271.207031 414.546875 274.90625 415.167969 278.707031 C 415.292969 279.453125 415.421875 280.226562 415.546875 280.988281 C 413.539062 281.679688 411.496094 282.273438 409.472656 282.792969 C 409.113281 278.726562 408.78125 274.789062 408.480469 271.027344 C 408.386719 269.878906 408.296875 268.738281 408.210938 267.609375 L 406.144531 267.609375 C 406.234375 268.785156 406.328125 269.964844 406.425781 271.160156 C 406.734375 275.03125 407.078125 279.089844 407.449219 283.285156 C 404.835938 283.886719 402.300781 284.363281 399.980469 284.730469 C 399.8125 279.722656 399.671875 274.917969 399.558594 270.359375 C 399.535156 269.4375 399.511719 268.519531 399.492188 267.609375 L 397.433594 267.609375 C 397.453125 268.527344 397.476562 269.449219 397.496094 270.375 C 397.613281 275.023438 397.757812 279.921875 397.933594 285.035156 C 392.535156 285.796875 388.730469 285.96875 388.636719 285.972656 L 388.6875 287.234375 L 397.226562 287.234375 C 397.484375 287.199219 397.742188 287.164062 398.003906 287.128906 C 398.007812 287.164062 398.007812 287.199219 398.011719 287.234375 L 400.070312 287.234375 C 400.066406 287.101562 400.058594 286.960938 400.054688 286.828125 C 402.402344 286.460938 404.96875 285.992188 407.632812 285.382812 C 407.691406 285.996094 407.746094 286.613281 407.800781 287.234375 L 409.871094 287.234375 C 409.796875 286.445312 409.730469 285.671875 409.660156 284.894531 C 411.722656 284.375 413.820312 283.765625 415.890625 283.0625 C 416.117188 284.429688 416.355469 285.828125 416.59375 287.234375 L 418.679688 287.234375 C 418.398438 285.582031 418.125 283.957031 417.859375 282.355469 C 420.058594 281.53125 422.199219 280.585938 424.210938 279.507812 C 424.285156 279.828125 424.363281 280.148438 424.4375 280.46875 C 424.96875 282.664062 425.519531 284.933594 426.082031 287.234375 L 428.203125 287.234375 C 427.597656 284.777344 427.007812 282.359375 426.449219 280.019531 C 425.1875 274.769531 424 269.707031 422.886719 264.84375 C 422.664062 265.777344 422.078125 266.566406 421.285156 267.058594 Z M 421.285156 267.058594 " fill-opacity="1" fill-rule="nonzero"/><path fill="#000000" d="M 441.714844 346.09375 C 439.972656 347.074219 438.144531 347.980469 436.265625 348.820312 C 436.039062 349.65625 435.832031 350.496094 435.628906 351.335938 C 437.933594 350.363281 440.171875 349.296875 442.292969 348.128906 C 444.277344 355.046875 446.375 362.191406 448.582031 369.523438 C 444.707031 371.683594 440.476562 373.523438 436.113281 375.097656 C 435.214844 371.128906 434.347656 367.226562 433.503906 363.367188 C 433.234375 365.695312 433.046875 368.027344 432.941406 370.363281 C 433.34375 372.164062 433.746094 373.964844 434.15625 375.789062 C 433.71875 375.933594 433.28125 376.082031 432.84375 376.226562 C 432.851562 376.9375 432.867188 377.652344 432.890625 378.367188 C 433.46875 378.179688 434.042969 377.992188 434.617188 377.796875 C 436.160156 384.578125 437.78125 391.511719 439.488281 398.59375 C 438.292969 398.996094 437.09375 399.378906 435.890625 399.742188 C 436.058594 400.402344 436.234375 401.066406 436.414062 401.726562 C 437.605469 401.367188 438.792969 400.992188 439.972656 400.597656 C 441.628906 407.421875 443.351562 414.375 445.160156 421.453125 C 444.867188 421.550781 444.574219 421.648438 444.277344 421.746094 C 444.601562 422.359375 444.925781 422.972656 445.261719 423.582031 C 445.398438 423.535156 445.535156 423.492188 445.675781 423.445312 C 445.808594 423.972656 445.945312 424.503906 446.082031 425.035156 C 447.226562 427.035156 448.449219 429.003906 449.746094 430.941406 C 449.027344 428.199219 448.324219 425.480469 447.628906 422.773438 C 453.101562 420.839844 458.414062 418.535156 463.234375 415.800781 C 465.554688 422.789062 467.964844 429.894531 470.46875 437.113281 C 467.828125 438.585938 465.058594 439.9375 462.203125 441.1875 C 463.039062 441.449219 463.789062 441.882812 464.429688 442.445312 C 466.738281 441.398438 468.988281 440.28125 471.15625 439.085938 C 473.335938 445.335938 475.574219 451.660156 477.890625 458.0625 C 474.433594 460.066406 470.75 461.875 466.933594 463.511719 C 468.058594 463.546875 469.113281 463.859375 470.035156 464.390625 C 473 463.046875 475.871094 461.59375 478.605469 460.023438 C 481.210938 467.203125 483.90625 474.464844 486.691406 481.8125 C 487.308594 481.492188 487.910156 481.148438 488.507812 480.792969 C 467.953125 426.578125 452.339844 376.683594 440.851562 335.464844 C 440.414062 336.503906 439.996094 337.546875 439.59375 338.59375 C 440.285156 341.0625 440.992188 343.5625 441.714844 346.09375 Z M 436.574219 377.117188 C 440.976562 375.539062 445.253906 373.695312 449.191406 371.535156 C 451.167969 378.078125 453.234375 384.773438 455.394531 391.609375 C 451.109375 394.089844 446.355469 396.171875 441.445312 397.917969 C 439.738281 390.835938 438.117188 383.898438 436.574219 377.117188 Z M 447.113281 420.773438 C 445.304688 413.699219 443.582031 406.75 441.929688 399.925781 C 446.878906 398.179688 451.679688 396.09375 456.03125 393.617188 C 458.125 400.222656 460.304688 406.953125 462.570312 413.808594 C 457.8125 416.542969 452.546875 418.84375 447.113281 420.773438 Z M 447.113281 420.773438 " fill-opacity="1" fill-rule="nonzero"/><path fill="#000000" d="M 449.863281 469.535156 C 449.882812 469.753906 449.894531 469.976562 449.894531 470.203125 C 449.894531 470.722656 449.832031 471.226562 449.71875 471.710938 C 452.515625 470.910156 455.308594 470.039062 458.078125 469.09375 C 458.625 470.996094 459.175781 472.90625 459.734375 474.820312 C 459.761719 474.785156 459.789062 474.738281 459.816406 474.703125 C 460.113281 474.257812 460.5 473.890625 460.9375 473.601562 C 460.347656 472.601562 460 471.445312 460 470.203125 C 460 469.734375 460.050781 469.273438 460.144531 468.828125 C 460.101562 468.691406 460.0625 468.550781 460.023438 468.414062 C 460.105469 468.382812 460.191406 468.351562 460.273438 468.320312 C 460.585938 467.261719 461.152344 466.304688 461.902344 465.535156 C 461.089844 465.839844 460.273438 466.140625 459.457031 466.433594 C 458.835938 464.261719 458.222656 462.097656 457.613281 459.945312 L 455.476562 459.945312 C 456.144531 462.324219 456.824219 464.71875 457.507812 467.117188 C 454.980469 467.988281 452.421875 468.789062 449.863281 469.535156 Z M 449.863281 469.535156 " fill-opacity="1" fill-rule="nonzero"/><path fill="#000000" d="M 405.140625 479.859375 C 406.835938 479.699219 408.734375 479.5 410.796875 479.257812 C 410.992188 478.4375 411.21875 477.726562 411.460938 477.109375 C 408.917969 477.414062 406.613281 477.65625 404.605469 477.847656 C 404.800781 478.441406 404.984375 479.105469 405.140625 479.859375 Z M 405.140625 479.859375 " fill-opacity="1" fill-rule="nonzero"/><path fill="#000000" d="M 426.667969 474.859375 C 427.027344 475.347656 427.390625 475.960938 427.726562 476.753906 C 430.328125 476.285156 433.015625 475.761719 435.757812 475.175781 C 435.773438 475.257812 435.789062 475.339844 435.808594 475.417969 C 435.96875 475.15625 436.132812 474.914062 436.292969 474.703125 C 436.589844 474.257812 436.976562 473.890625 437.414062 473.601562 C 436.824219 472.601562 436.476562 471.445312 436.476562 470.203125 C 436.476562 469.792969 436.519531 469.394531 436.589844 469.003906 C 435.976562 465.96875 435.371094 462.949219 434.777344 459.945312 L 432.679688 459.945312 C 433.542969 464.320312 434.425781 468.726562 435.339844 473.167969 C 432.375 473.800781 429.46875 474.363281 426.667969 474.859375 Z M 426.667969 474.859375 " fill-opacity="1" fill-rule="nonzero"/><path fill="#000000" d="M 251.144531 437.929688 C 250.15625 437.976562 249.351562 439.855469 247.46875 441.601562 C 245.585938 443.347656 244.109375 442.542969 244.109375 442.542969 C 244.109375 442.542969 244.421875 444.335938 245.8125 444.785156 C 246.488281 445 247.636719 445.226562 249.066406 445.40625 C 248.921875 445.902344 248.839844 446.429688 248.839844 446.976562 C 248.839844 450.03125 251.316406 452.503906 254.371094 452.503906 C 257.425781 452.503906 259.902344 450.03125 259.902344 446.976562 C 259.902344 446.429688 259.820312 445.902344 259.671875 445.40625 C 261.105469 445.226562 262.253906 445 262.929688 444.785156 C 264.316406 444.335938 264.632812 442.542969 264.632812 442.542969 C 264.632812 442.542969 263.152344 443.347656 261.269531 441.601562 C 259.390625 439.855469 258.582031 437.976562 257.597656 437.929688 C 256.609375 437.886719 255.804688 438.777344 254.371094 438.910156 C 252.9375 438.777344 252.128906 437.886719 251.144531 437.929688 Z M 251.144531 437.929688 " fill-opacity="1" fill-rule="nonzero"/><path fill="#000000" d="M 261.019531 457.484375 L 275.289062 443.769531 C 276.074219 443.015625 276.097656 441.769531 275.34375 440.988281 C 274.589844 440.207031 273.347656 440.183594 272.5625 440.933594 L 259.070312 453.902344 L 249.671875 453.902344 L 238.582031 443.246094 C 238.5625 442.855469 238.46875 442.414062 238.199219 441.992188 C 237.84375 441.425781 237.257812 441.023438 236.460938 440.777344 C 242.695312 431.144531 246.425781 426.964844 251.039062 424.078125 C 252.03125 420.3125 254.0625 417.769531 256.710938 416.742188 C 253.898438 416.414062 250.335938 416.429688 243.574219 425.238281 C 240.320312 429.46875 235.175781 438.492188 234.273438 440.433594 C 233.503906 440.292969 232.992188 440.019531 232.777344 439.636719 C 232.457031 439.0625 232.839844 438.320312 232.84375 438.3125 L 231.878906 437.796875 C 231.851562 437.847656 231.210938 439.058594 231.8125 440.15625 C 231.933594 440.371094 232.085938 440.5625 232.277344 440.734375 C 232.519531 440.945312 232.824219 441.117188 233.183594 441.257812 C 232.804688 441.820312 232.746094 442.53125 233.011719 443.136719 L 231.128906 446.40625 L 230.9375 446.292969 C 230.660156 446.136719 230.304688 446.230469 230.144531 446.503906 C 229.984375 446.78125 230.082031 447.136719 230.355469 447.292969 L 232.203125 448.359375 C 232.476562 448.519531 232.832031 448.425781 232.992188 448.152344 C 233.152344 447.875 233.058594 447.519531 232.78125 447.359375 L 232.5 447.199219 L 234.109375 444.402344 L 247.71875 457.484375 L 247.71875 469.996094 L 244.871094 481.488281 C 250.632812 482.34375 257.128906 483.128906 264.449219 483.824219 L 261.019531 470 Z M 261.019531 457.484375 " fill-opacity="1" fill-rule="nonzero"/><path fill="#000000" d="M 403.261719 486.925781 C 403.230469 479.847656 401.753906 477.105469 400.980469 476.167969 C 400.804688 475.871094 400.523438 475.648438 400.191406 475.535156 C 399.0625 476.394531 397.664062 476.910156 396.140625 476.910156 C 394.617188 476.910156 393.214844 476.394531 392.085938 475.535156 C 391.753906 475.648438 391.472656 475.871094 391.296875 476.167969 C 390.519531 477.113281 389.023438 479.894531 389.015625 487.117188 C 393.855469 487.0625 398.613281 486.996094 403.261719 486.925781 Z M 403.261719 486.925781 " fill-opacity="1" fill-rule="nonzero"/><path fill="#000000" d="M 396.140625 474.394531 C 398.453125 474.394531 400.332031 472.519531 400.332031 470.203125 C 400.332031 467.890625 398.457031 466.011719 396.140625 466.011719 C 393.824219 466.011719 391.945312 467.890625 391.945312 470.203125 C 391.945312 472.519531 393.824219 474.394531 396.140625 474.394531 Z M 396.140625 474.394531 " fill-opacity="1" fill-rule="nonzero"/><path fill="#000000" d="M 426.785156 486.53125 C 426.699219 479.742188 425.261719 477.089844 424.503906 476.167969 C 424.328125 475.871094 424.046875 475.648438 423.714844 475.535156 C 422.585938 476.394531 421.1875 476.910156 419.664062 476.910156 C 418.140625 476.910156 416.738281 476.394531 415.609375 475.535156 C 415.277344 475.648438 414.996094 475.871094 414.820312 476.167969 C 414.054688 477.101562 412.59375 479.808594 412.539062 486.777344 C 417.457031 486.695312 422.207031 486.613281 426.785156 486.53125 Z M 426.785156 486.53125 " fill-opacity="1" fill-rule="nonzero"/><path fill="#000000" d="M 419.664062 474.394531 C 421.980469 474.394531 423.855469 472.519531 423.855469 470.203125 C 423.855469 467.890625 421.980469 466.011719 419.664062 466.011719 C 417.347656 466.011719 415.46875 467.890625 415.46875 470.203125 C 415.46875 472.519531 417.347656 474.394531 419.664062 474.394531 Z M 419.664062 474.394531 " fill-opacity="1" fill-rule="nonzero"/><path fill="#000000" d="M 450.308594 486.136719 C 450.175781 479.628906 448.773438 477.070312 448.027344 476.167969 C 447.851562 475.871094 447.570312 475.648438 447.238281 475.535156 C 446.109375 476.394531 444.710938 476.910156 443.1875 476.910156 C 441.664062 476.910156 440.261719 476.394531 439.136719 475.535156 C 438.804688 475.648438 438.519531 475.871094 438.347656 476.167969 C 437.59375 477.082031 436.171875 479.695312 436.066406 486.363281 C 441.230469 486.273438 445.992188 486.191406 450.308594 486.136719 Z M 450.308594 486.136719 " fill-opacity="1" fill-rule="nonzero"/><path fill="#000000" d="M 443.1875 474.394531 C 445.503906 474.394531 447.378906 472.519531 447.378906 470.203125 C 447.378906 467.890625 445.503906 466.011719 443.1875 466.011719 C 440.871094 466.011719 438.996094 467.890625 438.996094 470.203125 C 438.996094 472.519531 440.871094 474.394531 443.1875 474.394531 Z M 443.1875 474.394531 " fill-opacity="1" fill-rule="nonzero"/><path fill="#000000" d="M 467.222656 486.078125 C 469.5 486.109375 471.695312 485.984375 473.816406 485.722656 C 473.632812 479.53125 472.28125 477.050781 471.550781 476.167969 C 471.378906 475.871094 471.09375 475.648438 470.761719 475.535156 C 469.636719 476.394531 468.234375 476.910156 466.710938 476.910156 C 465.1875 476.910156 463.789062 476.394531 462.660156 475.535156 C 462.328125 475.648438 462.042969 475.871094 461.871094 476.167969 C 461.128906 477.066406 459.738281 479.609375 459.59375 486.050781 C 462.449219 486.039062 465 486.042969 467.222656 486.078125 Z M 467.222656 486.078125 " fill-opacity="1" fill-rule="nonzero"/><path fill="#000000" d="M 470.863281 469.53125 C 470.90625 469.800781 470.921875 470.074219 470.914062 470.351562 C 470.902344 470.625 470.867188 470.894531 470.804688 471.164062 C 470.738281 471.433594 470.652344 471.691406 470.535156 471.941406 C 470.421875 472.191406 470.285156 472.429688 470.125 472.652344 C 469.964844 472.875 469.78125 473.078125 469.582031 473.269531 C 469.378906 473.457031 469.160156 473.621094 468.925781 473.765625 C 468.691406 473.910156 468.445312 474.03125 468.1875 474.128906 C 467.929688 474.222656 467.664062 474.292969 467.394531 474.335938 C 467.121094 474.382812 466.847656 474.398438 466.574219 474.390625 C 466.296875 474.378906 466.027344 474.34375 465.757812 474.28125 C 465.492188 474.214844 465.230469 474.128906 464.980469 474.011719 C 464.730469 473.898438 464.496094 473.761719 464.269531 473.601562 C 464.046875 473.4375 463.84375 473.257812 463.65625 473.058594 C 463.46875 472.855469 463.300781 472.636719 463.15625 472.402344 C 463.011719 472.167969 462.890625 471.921875 462.792969 471.664062 C 462.699219 471.410156 462.628906 471.144531 462.585938 470.871094 C 462.539062 470.601562 462.523438 470.328125 462.53125 470.050781 C 462.542969 469.777344 462.578125 469.503906 462.640625 469.238281 C 462.707031 468.96875 462.792969 468.710938 462.910156 468.460938 C 463.023438 468.210938 463.160156 467.972656 463.320312 467.75 C 463.484375 467.527344 463.664062 467.320312 463.863281 467.132812 C 464.066406 466.945312 464.285156 466.78125 464.519531 466.636719 C 464.753906 466.492188 465 466.371094 465.257812 466.273438 C 465.515625 466.179688 465.78125 466.109375 466.050781 466.0625 C 466.324219 466.019531 466.597656 466.003906 466.871094 466.011719 C 467.148438 466.023438 467.417969 466.058594 467.6875 466.121094 C 467.953125 466.1875 468.214844 466.273438 468.464844 466.390625 C 468.714844 466.503906 468.953125 466.640625 469.175781 466.800781 C 469.398438 466.960938 469.601562 467.144531 469.792969 467.34375 C 469.980469 467.546875 470.144531 467.765625 470.289062 468 C 470.433594 468.230469 470.554688 468.476562 470.652344 468.734375 C 470.746094 468.992188 470.816406 469.257812 470.863281 469.53125 Z M 470.863281 469.53125 " fill-opacity="1" fill-rule="nonzero"/><path fill="#000000" d="M 283.5 475.535156 C 282.371094 476.394531 280.972656 476.910156 279.449219 476.910156 C 277.925781 476.910156 276.523438 476.394531 275.394531 475.535156 C 275.0625 475.648438 274.78125 475.871094 274.605469 476.167969 C 273.925781 476.992188 272.703125 479.203125 272.390625 484.519531 C 276.835938 484.875 281.546875 485.203125 286.542969 485.492188 C 286.335938 479.472656 285.007812 477.039062 284.289062 476.167969 C 284.113281 475.871094 283.832031 475.648438 283.5 475.535156 Z M 283.5 475.535156 " fill-opacity="1" fill-rule="nonzero"/><path fill="#000000" d="M 283.640625 470.203125 C 283.640625 470.480469 283.613281 470.75 283.5625 471.019531 C 283.507812 471.292969 283.425781 471.554688 283.320312 471.808594 C 283.214844 472.0625 283.085938 472.304688 282.933594 472.53125 C 282.78125 472.761719 282.609375 472.972656 282.414062 473.167969 C 282.21875 473.363281 282.007812 473.535156 281.777344 473.6875 C 281.546875 473.839844 281.308594 473.96875 281.054688 474.074219 C 280.796875 474.179688 280.535156 474.261719 280.265625 474.3125 C 279.996094 474.367188 279.722656 474.394531 279.449219 474.394531 C 279.171875 474.394531 278.898438 474.367188 278.628906 474.3125 C 278.359375 474.261719 278.097656 474.179688 277.84375 474.074219 C 277.589844 473.96875 277.347656 473.839844 277.117188 473.6875 C 276.890625 473.535156 276.679688 473.363281 276.484375 473.167969 C 276.289062 472.972656 276.113281 472.761719 275.960938 472.53125 C 275.808594 472.304688 275.679688 472.0625 275.574219 471.808594 C 275.46875 471.554688 275.390625 471.292969 275.335938 471.019531 C 275.28125 470.75 275.253906 470.480469 275.253906 470.203125 C 275.253906 469.929688 275.28125 469.65625 275.335938 469.386719 C 275.390625 469.117188 275.46875 468.855469 275.574219 468.601562 C 275.679688 468.347656 275.808594 468.105469 275.960938 467.875 C 276.113281 467.648438 276.289062 467.433594 276.484375 467.242188 C 276.679688 467.046875 276.890625 466.871094 277.117188 466.71875 C 277.347656 466.566406 277.589844 466.4375 277.84375 466.332031 C 278.097656 466.226562 278.359375 466.148438 278.628906 466.09375 C 278.898438 466.039062 279.171875 466.011719 279.449219 466.011719 C 279.722656 466.011719 279.996094 466.039062 280.265625 466.09375 C 280.535156 466.148438 280.796875 466.226562 281.054688 466.332031 C 281.308594 466.4375 281.546875 466.566406 281.777344 466.71875 C 282.007812 466.871094 282.21875 467.046875 282.414062 467.242188 C 282.609375 467.433594 282.78125 467.648438 282.933594 467.875 C 283.085938 468.105469 283.214844 468.347656 283.320312 468.601562 C 283.425781 468.855469 283.507812 469.117188 283.5625 469.386719 C 283.613281 469.65625 283.640625 469.929688 283.640625 470.203125 Z M 283.640625 470.203125 " fill-opacity="1" fill-rule="nonzero"/><path fill="#000000" d="M 307.023438 475.535156 C 305.894531 476.394531 304.496094 476.910156 302.972656 476.910156 C 301.449219 476.910156 300.046875 476.394531 298.921875 475.535156 C 298.589844 475.648438 298.304688 475.867188 298.132812 476.167969 C 297.394531 477.0625 296.007812 479.59375 295.855469 485.984375 C 300.542969 486.207031 305.296875 486.394531 310.09375 486.550781 C 310.011719 479.746094 308.570312 477.089844 307.8125 476.167969 C 307.636719 475.871094 307.355469 475.648438 307.023438 475.535156 Z M 307.023438 475.535156 " fill-opacity="1" fill-rule="nonzero"/><path fill="#000000" d="M 307.164062 470.203125 C 307.164062 470.480469 307.136719 470.75 307.085938 471.019531 C 307.03125 471.292969 306.953125 471.554688 306.847656 471.808594 C 306.742188 472.0625 306.613281 472.304688 306.457031 472.53125 C 306.304688 472.761719 306.132812 472.972656 305.9375 473.167969 C 305.742188 473.363281 305.53125 473.535156 305.300781 473.6875 C 305.074219 473.839844 304.832031 473.96875 304.578125 474.074219 C 304.324219 474.179688 304.058594 474.261719 303.789062 474.3125 C 303.519531 474.367188 303.246094 474.394531 302.972656 474.394531 C 302.695312 474.394531 302.425781 474.367188 302.15625 474.3125 C 301.882812 474.261719 301.621094 474.179688 301.367188 474.074219 C 301.113281 473.96875 300.871094 473.839844 300.644531 473.6875 C 300.414062 473.535156 300.203125 473.363281 300.007812 473.167969 C 299.8125 472.972656 299.640625 472.761719 299.484375 472.53125 C 299.332031 472.304688 299.203125 472.0625 299.097656 471.808594 C 298.992188 471.554688 298.914062 471.292969 298.859375 471.019531 C 298.804688 470.75 298.78125 470.480469 298.78125 470.203125 C 298.78125 469.929688 298.804688 469.65625 298.859375 469.386719 C 298.914062 469.117188 298.992188 468.855469 299.097656 468.601562 C 299.203125 468.347656 299.332031 468.105469 299.484375 467.875 C 299.640625 467.648438 299.8125 467.433594 300.007812 467.242188 C 300.203125 467.046875 300.414062 466.871094 300.644531 466.71875 C 300.871094 466.566406 301.113281 466.4375 301.367188 466.332031 C 301.621094 466.226562 301.882812 466.148438 302.15625 466.09375 C 302.425781 466.039062 302.695312 466.011719 302.972656 466.011719 C 303.246094 466.011719 303.519531 466.039062 303.789062 466.09375 C 304.058594 466.148438 304.324219 466.226562 304.578125 466.332031 C 304.832031 466.4375 305.074219 466.566406 305.300781 466.71875 C 305.53125 466.871094 305.742188 467.046875 305.9375 467.242188 C 306.132812 467.433594 306.304688 467.648438 306.457031 467.875 C 306.613281 468.105469 306.742188 468.347656 306.847656 468.601562 C 306.953125 468.855469 307.03125 469.117188 307.085938 469.386719 C 307.136719 469.65625 307.164062 469.929688 307.164062 470.203125 Z M 307.164062 470.203125 " fill-opacity="1" fill-rule="nonzero"/><path fill="#000000" d="M 330.546875 475.535156 C 329.421875 476.394531 328.019531 476.910156 326.496094 476.910156 C 324.972656 476.910156 323.570312 476.394531 322.445312 475.535156 C 322.113281 475.648438 321.828125 475.867188 321.65625 476.167969 C 320.886719 477.101562 319.417969 479.820312 319.375 486.820312 C 324.101562 486.941406 328.855469 487.035156 333.621094 487.105469 C 333.613281 479.890625 332.117188 477.113281 331.339844 476.167969 C 331.160156 475.871094 330.878906 475.648438 330.546875 475.535156 Z M 330.546875 475.535156 " fill-opacity="1" fill-rule="nonzero"/><path fill="#000000" d="M 330.6875 470.203125 C 330.6875 470.480469 330.660156 470.75 330.609375 471.019531 C 330.554688 471.292969 330.476562 471.554688 330.371094 471.808594 C 330.265625 472.0625 330.136719 472.304688 329.980469 472.53125 C 329.828125 472.761719 329.65625 472.972656 329.460938 473.167969 C 329.265625 473.363281 329.054688 473.535156 328.824219 473.6875 C 328.597656 473.839844 328.355469 473.96875 328.101562 474.074219 C 327.847656 474.179688 327.582031 474.261719 327.3125 474.3125 C 327.042969 474.367188 326.769531 474.394531 326.496094 474.394531 C 326.21875 474.394531 325.949219 474.367188 325.679688 474.3125 C 325.40625 474.261719 325.144531 474.179688 324.890625 474.074219 C 324.636719 473.96875 324.394531 473.839844 324.167969 473.6875 C 323.9375 473.535156 323.726562 473.363281 323.53125 473.167969 C 323.335938 472.972656 323.164062 472.761719 323.007812 472.53125 C 322.855469 472.304688 322.726562 472.0625 322.621094 471.808594 C 322.515625 471.554688 322.4375 471.292969 322.382812 471.019531 C 322.328125 470.75 322.304688 470.480469 322.304688 470.203125 C 322.304688 469.929688 322.328125 469.65625 322.382812 469.386719 C 322.4375 469.117188 322.515625 468.855469 322.621094 468.601562 C 322.726562 468.347656 322.855469 468.105469 323.007812 467.875 C 323.164062 467.648438 323.335938 467.433594 323.53125 467.242188 C 323.726562 467.046875 323.9375 466.871094 324.167969 466.71875 C 324.394531 466.566406 324.636719 466.4375 324.890625 466.332031 C 325.144531 466.226562 325.40625 466.148438 325.679688 466.09375 C 325.949219 466.039062 326.21875 466.011719 326.496094 466.011719 C 326.769531 466.011719 327.042969 466.039062 327.3125 466.09375 C 327.582031 466.148438 327.847656 466.226562 328.101562 466.332031 C 328.355469 466.4375 328.597656 466.566406 328.824219 466.71875 C 329.054688 466.871094 329.265625 467.046875 329.460938 467.242188 C 329.65625 467.433594 329.828125 467.648438 329.980469 467.875 C 330.136719 468.105469 330.265625 468.347656 330.371094 468.601562 C 330.476562 468.855469 330.554688 469.117188 330.609375 469.386719 C 330.660156 469.65625 330.6875 469.929688 330.6875 470.203125 Z M 330.6875 470.203125 " fill-opacity="1" fill-rule="nonzero"/><path fill="#000000" d="M 354.070312 475.535156 C 352.945312 476.394531 351.542969 476.910156 350.019531 476.910156 C 348.496094 476.910156 347.097656 476.394531 345.96875 475.535156 C 345.636719 475.648438 345.355469 475.867188 345.179688 476.167969 C 344.398438 477.117188 342.886719 479.917969 342.894531 487.214844 C 347.660156 487.257812 352.414062 487.28125 357.144531 487.289062 C 357.164062 479.9375 355.648438 477.121094 354.859375 476.167969 C 354.6875 475.871094 354.402344 475.648438 354.070312 475.535156 Z M 354.070312 475.535156 " fill-opacity="1" fill-rule="nonzero"/><path fill="#000000" d="M 350.019531 474.394531 C 352.335938 474.394531 354.214844 472.519531 354.214844 470.203125 C 354.214844 467.890625 352.335938 466.011719 350.019531 466.011719 C 347.703125 466.011719 345.828125 467.890625 345.828125 470.203125 C 345.828125 472.519531 347.703125 474.394531 350.019531 474.394531 Z M 350.019531 474.394531 " fill-opacity="1" fill-rule="nonzero"/><path fill="#000000" d="M 381.535156 487.191406 L 381.027344 459.945312 L 363.207031 459.945312 L 362.699219 487.289062 C 369.058594 487.28125 375.351562 487.246094 381.535156 487.191406 Z M 381.535156 487.191406 " fill-opacity="1" fill-rule="nonzero"/><path fill="#000000" d="M 375.476562 161.199219 L 368.757812 161.199219 L 368.652344 166.949219 L 375.582031 166.949219 Z M 375.476562 161.199219 " fill-opacity="1" fill-rule="nonzero"/><path fill="#000000" d="M 377.816406 287.234375 L 377.453125 267.605469 L 366.78125 267.605469 L 366.414062 287.234375 Z M 377.816406 287.234375 " fill-opacity="1" fill-rule="nonzero"/><path fill="#000000" d="M 309.144531 549.335938 C 314.636719 549.335938 319.105469 544.867188 319.105469 539.375 C 319.105469 533.886719 314.636719 529.417969 309.144531 529.417969 C 303.648438 529.417969 299.179688 533.886719 299.179688 539.375 C 299.179688 544.867188 303.648438 549.335938 309.144531 549.335938 Z M 309.144531 549.335938 " fill-opacity="1" fill-rule="nonzero"/><path fill="#000000" d="M 246.164062 549.335938 C 251.660156 549.335938 256.128906 544.867188 256.128906 539.375 C 256.128906 533.886719 251.65625 529.417969 246.164062 529.417969 C 240.671875 529.417969 236.203125 533.886719 236.203125 539.375 C 236.203125 544.867188 240.671875 549.335938 246.164062 549.335938 Z M 246.164062 549.335938 " fill-opacity="1" fill-rule="nonzero"/><path fill="#000000" d="M 372.121094 549.335938 C 377.613281 549.335938 382.082031 544.867188 382.082031 539.375 C 382.082031 533.886719 377.613281 529.417969 372.121094 529.417969 C 366.628906 529.417969 362.15625 533.886719 362.15625 539.375 C 362.160156 544.867188 366.628906 549.335938 372.121094 549.335938 Z M 372.121094 549.335938 " fill-opacity="1" fill-rule="nonzero"/><path fill="#000000" d="M 435.097656 529.417969 C 429.605469 529.417969 425.136719 533.886719 425.136719 539.375 C 425.136719 544.867188 429.605469 549.335938 435.097656 549.335938 C 440.589844 549.335938 445.0625 544.867188 445.0625 539.375 C 445.0625 533.886719 440.59375 529.417969 435.097656 529.417969 Z M 435.097656 529.417969 " fill-opacity="1" fill-rule="nonzero"/><path fill="#000000" d="M 498.078125 549.335938 C 503.570312 549.335938 508.039062 544.867188 508.039062 539.375 C 508.039062 533.886719 503.570312 529.417969 498.078125 529.417969 C 492.582031 529.417969 488.113281 533.886719 488.113281 539.375 C 488.113281 544.867188 492.582031 549.335938 498.078125 549.335938 Z M 498.078125 549.335938 " fill-opacity="1" fill-rule="nonzero"/><path fill="#000000" d="M 236.253906 414.152344 C 236.988281 414.152344 237.585938 413.554688 237.585938 412.820312 L 237.585938 408.496094 C 237.585938 407.765625 236.988281 407.164062 236.253906 407.164062 L 233.117188 407.164062 C 209.402344 380.851562 209.96875 340.449219 234.796875 314.796875 L 236.253906 314.796875 C 236.988281 314.796875 237.585938 314.199219 237.585938 313.46875 L 237.585938 309.140625 C 237.585938 308.410156 236.988281 307.8125 236.253906 307.8125 L 138.730469 307.8125 C 138 307.8125 137.398438 308.410156 137.398438 309.140625 L 137.398438 313.46875 C 137.398438 313.898438 137.609375 314.277344 137.929688 314.519531 L 179.503906 314.519531 L 179.503906 316.515625 L 137.359375 316.515625 C 114.609375 341.679688 114.09375 379.765625 135.835938 405.503906 L 179.503906 405.503906 L 179.503906 407.496094 L 137.582031 407.496094 C 137.628906 407.546875 137.667969 407.597656 137.714844 407.648438 C 137.523438 407.878906 137.398438 408.171875 137.398438 408.496094 L 137.398438 412.820312 C 137.398438 413.554688 138 414.152344 138.730469 414.152344 Z M 193.652344 314.519531 L 201.222656 314.519531 L 201.222656 316.515625 L 193.652344 316.515625 Z M 193.652344 405.503906 L 201.222656 405.503906 L 201.222656 407.5 L 193.652344 407.5 Z M 182.5 314.519531 L 190.074219 314.519531 L 190.074219 316.515625 L 182.5 316.515625 Z M 153.804688 345.808594 C 156.628906 338.351562 168.371094 333.574219 176.375 333.59375 C 184.472656 333.574219 185.789062 338.351562 182.960938 345.808594 C 180.761719 351.402344 176.839844 356.472656 171.578125 358.613281 C 171.574219 359.789062 171.613281 360.964844 171.726562 362.136719 C 171.832031 363.253906 171.132812 364.164062 170.101562 364.164062 C 170.027344 364.164062 169.953125 364.164062 169.882812 364.164062 C 168.851562 364.164062 167.851562 363.257812 167.746094 362.136719 C 167.664062 361.296875 167.625 360.453125 167.605469 359.609375 C 167.070312 359.667969 166.527344 359.699219 165.976562 359.695312 C 165.433594 359.699219 164.894531 359.671875 164.363281 359.617188 C 164.386719 360.457031 164.425781 361.296875 164.507812 362.136719 C 164.617188 363.257812 163.914062 364.167969 162.878906 364.167969 C 162.808594 364.167969 162.734375 364.167969 162.660156 364.167969 C 161.625 364.167969 160.632812 363.257812 160.527344 362.136719 C 160.414062 360.972656 160.375 359.796875 160.375 358.628906 C 155.09375 356.488281 151.601562 351.414062 153.804688 345.808594 Z M 160.558594 380.496094 C 162.140625 381.804688 162.738281 383.195312 161.777344 383.671875 C 160.816406 384.144531 158.566406 383.582031 156.867188 382.339844 C 155.695312 381.480469 155.15625 380.507812 155.28125 379.804688 C 154.203125 379.703125 152.867188 379.128906 151.84375 378.1875 C 150.363281 376.832031 150.207031 375.222656 151.371094 374.648438 C 152.539062 374.070312 154.492188 374.78125 155.851562 376.191406 C 156.027344 376.367188 156.183594 376.550781 156.324219 376.730469 C 158.757812 375.519531 161.265625 374.273438 163.855469 373 C 159.175781 371.394531 154.628906 369.75 150.199219 368.074219 C 150.21875 368.277344 150.226562 368.476562 150.210938 368.671875 C 150.082031 370.1875 148.730469 370.90625 147.070312 370.308594 C 145.414062 369.714844 144.167969 368 144.414062 366.460938 C 144.582031 365.398438 145.375 364.71875 146.355469 364.601562 C 145.574219 363.773438 145.1875 362.609375 145.507812 361.527344 C 145.96875 359.964844 147.621094 359.199219 149.074219 359.824219 C 150.53125 360.449219 151.332031 362.230469 150.988281 363.78125 C 150.945312 363.980469 150.882812 364.160156 150.804688 364.332031 C 156.367188 366.5625 162.128906 368.773438 168.117188 370.917969 C 172.535156 368.773438 177.175781 366.570312 182.019531 364.339844 C 181.886719 364.167969 181.765625 363.980469 181.660156 363.78125 C 180.851562 362.230469 181.453125 360.453125 182.886719 359.824219 C 184.320312 359.199219 185.949219 359.964844 186.640625 361.527344 C 187.117188 362.609375 187.058594 363.773438 186.546875 364.601562 C 187.5625 364.722656 188.585938 365.398438 189.214844 366.460938 C 190.121094 368 189.964844 369.714844 188.730469 370.308594 C 187.507812 370.90625 185.582031 370.1875 184.550781 368.671875 C 184.421875 368.480469 184.3125 368.285156 184.226562 368.085938 C 180.71875 369.757812 177.332031 371.398438 174.070312 373 C 177.765625 374.269531 181.542969 375.507812 185.394531 376.71875 C 185.324219 376.542969 185.273438 376.363281 185.25 376.1875 C 185.039062 374.78125 186.363281 374.070312 188.085938 374.648438 C 189.808594 375.222656 191.367188 376.832031 191.695312 378.1875 C 191.921875 379.125 191.4375 379.703125 190.519531 379.804688 C 191.6875 380.507812 192.671875 381.480469 193.050781 382.339844 C 193.59375 383.582031 192.570312 384.144531 190.640625 383.667969 C 188.71875 383.195312 186.707031 381.804688 186.285156 380.496094 C 186.230469 380.328125 186.203125 380.167969 186.199219 380.019531 C 180.628906 378.429688 175.210938 376.765625 169.941406 375.039062 C 166.453125 376.769531 163.117188 378.4375 159.933594 380.03125 C 160.148438 380.175781 160.359375 380.332031 160.558594 380.496094 Z M 182.5 407.5 L 182.5 405.503906 L 190.074219 405.503906 L 190.074219 407.5 Z M 182.5 407.5 " fill-opacity="1" fill-rule="nonzero"/><path fill="#000000" d="M 160.585938 353.042969 C 162.953125 353.050781 165.289062 349.625 166.875 345.640625 C 168.433594 341.648438 168.644531 338.730469 166.277344 338.730469 C 163.941406 338.730469 159.917969 341.648438 158.355469 345.640625 C 156.773438 349.625 158.25 353.050781 160.585938 353.042969 Z M 160.585938 353.042969 " fill-opacity="1" fill-rule="nonzero"/><path fill="#000000" d="M 172.25 353.042969 C 174.613281 353.050781 176.953125 349.625 178.539062 345.640625 C 180.09375 341.648438 180.308594 338.730469 177.941406 338.730469 C 175.605469 338.730469 171.582031 341.648438 170.019531 345.640625 C 168.433594 349.625 169.910156 353.050781 172.25 353.042969 Z M 172.25 353.042969 " fill-opacity="1" fill-rule="nonzero"/><path fill="#000000" d="M 328.863281 257.410156 L 368.238281 257.410156 L 368.238281 259.210938 L 330.4375 259.210938 C 330.480469 259.257812 330.519531 259.304688 330.5625 259.351562 C 330.390625 259.558594 330.28125 259.820312 330.28125 260.109375 L 330.28125 264.007812 C 330.28125 264.667969 330.824219 265.207031 331.484375 265.207031 L 419.394531 265.207031 C 420.054688 265.207031 420.597656 264.667969 420.597656 264.007812 L 420.597656 260.109375 C 420.597656 259.449219 420.054688 258.910156 419.394531 258.910156 L 416.566406 258.910156 C 395.1875 235.191406 395.691406 198.769531 418.0625 175.644531 L 419.394531 175.644531 C 420.054688 175.644531 420.597656 175.105469 420.597656 174.445312 L 420.597656 170.546875 C 420.597656 169.886719 420.054688 169.347656 419.394531 169.347656 L 331.480469 169.347656 C 330.820312 169.347656 330.28125 169.886719 330.28125 170.546875 L 330.28125 174.445312 C 330.28125 174.832031 330.472656 175.175781 330.757812 175.394531 L 368.238281 175.394531 L 368.238281 177.195312 L 330.226562 177.195312 C 309.726562 199.878906 309.269531 234.214844 328.863281 257.410156 Z M 374.667969 217.769531 C 375.097656 218.746094 375.046875 219.796875 374.585938 220.542969 C 375.5 220.648438 376.421875 221.261719 376.988281 222.21875 C 377.808594 223.605469 377.664062 225.148438 376.554688 225.6875 C 375.445312 226.226562 373.710938 225.578125 372.785156 224.210938 C 372.667969 224.039062 372.574219 223.859375 372.492188 223.683594 C 369.332031 225.1875 366.277344 226.667969 363.339844 228.113281 C 366.667969 229.257812 370.074219 230.375 373.546875 231.464844 C 373.480469 231.304688 373.4375 231.144531 373.414062 230.988281 C 373.226562 229.71875 374.421875 229.078125 375.96875 229.597656 C 377.523438 230.117188 378.933594 231.566406 379.226562 232.789062 C 379.429688 233.636719 378.996094 234.15625 378.164062 234.246094 C 379.21875 234.878906 380.105469 235.757812 380.449219 236.53125 C 380.9375 237.652344 380.011719 238.15625 378.277344 237.730469 C 376.539062 237.304688 374.730469 236.046875 374.347656 234.871094 C 374.296875 234.71875 374.277344 234.574219 374.273438 234.441406 C 369.253906 233.007812 364.367188 231.507812 359.617188 229.953125 C 356.472656 231.511719 353.46875 233.015625 350.597656 234.449219 C 350.789062 234.578125 350.976562 234.71875 351.160156 234.871094 C 352.585938 236.046875 353.125 237.300781 352.257812 237.730469 C 351.390625 238.15625 349.363281 237.648438 347.832031 236.53125 C 346.769531 235.757812 346.285156 234.878906 346.398438 234.246094 C 345.425781 234.15625 344.222656 233.632812 343.304688 232.789062 C 341.96875 231.566406 341.824219 230.117188 342.875 229.597656 C 343.929688 229.078125 345.6875 229.71875 346.914062 230.988281 C 347.070312 231.148438 347.214844 231.3125 347.339844 231.476562 C 349.53125 230.382812 351.792969 229.261719 354.128906 228.113281 C 349.914062 226.667969 345.8125 225.179688 341.820312 223.671875 C 341.839844 223.855469 341.84375 224.035156 341.828125 224.210938 C 341.714844 225.578125 340.496094 226.222656 339 225.6875 C 337.503906 225.148438 336.382812 223.605469 336.605469 222.21875 C 336.753906 221.261719 337.472656 220.648438 338.355469 220.542969 C 337.652344 219.796875 337.300781 218.746094 337.589844 217.769531 C 338.007812 216.359375 339.496094 215.671875 340.804688 216.238281 C 342.117188 216.800781 342.839844 218.402344 342.53125 219.804688 C 342.492188 219.980469 342.4375 220.144531 342.367188 220.296875 C 347.378906 222.3125 352.574219 224.300781 357.972656 226.234375 C 361.957031 224.304688 366.136719 222.316406 370.503906 220.304688 C 370.382812 220.148438 370.273438 219.984375 370.179688 219.804688 C 369.449219 218.402344 369.996094 216.800781 371.285156 216.238281 C 372.578125 215.671875 374.042969 216.359375 374.667969 217.769531 Z M 371.351562 203.601562 C 369.371094 208.644531 365.832031 213.210938 361.089844 215.144531 C 361.085938 216.203125 361.125 217.265625 361.226562 218.320312 C 361.320312 219.328125 360.691406 220.148438 359.757812 220.148438 C 359.695312 220.148438 359.628906 220.148438 359.5625 220.148438 C 358.628906 220.148438 357.734375 219.328125 357.636719 218.320312 C 357.566406 217.5625 357.527344 216.800781 357.507812 216.042969 C 357.027344 216.09375 356.539062 216.121094 356.039062 216.121094 C 355.550781 216.121094 355.066406 216.09375 354.589844 216.046875 C 354.605469 216.804688 354.644531 217.5625 354.714844 218.320312 C 354.8125 219.328125 354.183594 220.148438 353.25 220.148438 C 353.183594 220.148438 353.117188 220.148438 353.054688 220.148438 C 352.121094 220.148438 351.226562 219.328125 351.128906 218.320312 C 351.027344 217.265625 350.988281 216.210938 350.992188 215.152344 C 346.230469 213.226562 343.082031 208.652344 345.066406 203.597656 C 347.613281 196.875 358.199219 192.570312 365.414062 192.585938 C 372.71875 192.570312 373.898438 196.875 371.351562 203.601562 Z M 371.351562 203.601562 " fill-opacity="1" fill-rule="nonzero"/><path fill="#000000" d="M 351.183594 210.121094 C 353.316406 210.128906 355.421875 207.039062 356.851562 203.449219 C 358.257812 199.847656 358.449219 197.21875 356.316406 197.222656 C 354.207031 197.21875 350.578125 199.847656 349.175781 203.449219 C 347.746094 207.039062 349.074219 210.128906 351.183594 210.121094 Z M 351.183594 210.121094 " fill-opacity="1" fill-rule="nonzero"/><path fill="#000000" d="M 361.695312 210.121094 C 363.828125 210.128906 365.933594 207.039062 367.367188 203.449219 C 368.769531 199.847656 368.960938 197.21875 366.828125 197.222656 C 364.71875 197.21875 361.09375 199.847656 359.6875 203.449219 C 358.257812 207.039062 359.585938 210.128906 361.695312 210.121094 Z M 361.695312 210.121094 " fill-opacity="1" fill-rule="nonzero"/><path fill="#000000" d="M 309.519531 291.347656 C 308.386719 291.347656 307.460938 292.277344 307.460938 293.40625 L 307.460938 300.097656 C 307.460938 300.761719 307.785156 301.347656 308.28125 301.726562 L 372.585938 301.726562 L 372.585938 304.8125 L 307.339844 304.8125 C 272.179688 343.734375 271.402344 402.648438 305.015625 442.449219 L 372.585938 442.449219 L 372.585938 445.535156 L 307.722656 445.535156 C 307.796875 445.617188 307.867188 445.699219 307.941406 445.777344 C 307.644531 446.136719 307.460938 446.585938 307.460938 447.082031 L 307.460938 453.769531 C 307.460938 454.902344 308.386719 455.828125 309.519531 455.828125 L 460.359375 455.828125 C 461.492188 455.828125 462.417969 454.902344 462.417969 453.769531 L 462.417969 447.082031 C 462.417969 445.949219 461.492188 445.023438 460.359375 445.023438 L 455.503906 445.023438 C 418.824219 404.328125 419.683594 341.832031 458.074219 302.15625 L 460.359375 302.15625 C 461.492188 302.15625 462.417969 301.226562 462.417969 300.097656 L 462.417969 293.40625 C 462.417969 292.273438 461.492188 291.347656 460.359375 291.347656 Z M 406.175781 445.535156 L 394.464844 445.535156 L 394.464844 442.449219 L 406.175781 442.449219 Z M 394.464844 301.726562 L 406.175781 301.726562 L 406.175781 304.8125 L 394.464844 304.8125 Z M 377.21875 301.726562 L 388.929688 301.726562 L 388.929688 304.8125 L 377.21875 304.8125 Z M 332.832031 350.121094 C 337.199219 338.582031 355.363281 331.195312 367.742188 331.226562 C 380.273438 331.195312 382.300781 338.582031 377.929688 350.121094 C 374.535156 358.773438 368.460938 366.613281 360.320312 369.929688 C 360.316406 371.746094 360.382812 373.5625 360.554688 375.375 C 360.71875 377.105469 359.640625 378.511719 358.039062 378.511719 C 357.925781 378.511719 357.816406 378.511719 357.703125 378.511719 C 356.101562 378.511719 354.566406 377.105469 354.398438 375.375 C 354.273438 374.078125 354.210938 372.777344 354.179688 371.472656 C 353.355469 371.558594 352.515625 371.605469 351.660156 371.601562 C 350.824219 371.605469 349.992188 371.558594 349.167969 371.476562 C 349.203125 372.777344 349.265625 374.078125 349.390625 375.375 C 349.554688 377.105469 348.476562 378.511719 346.875 378.511719 C 346.761719 378.511719 346.648438 378.511719 346.535156 378.511719 C 344.933594 378.511719 343.398438 377.105469 343.230469 375.375 C 343.058594 373.570312 342.992188 371.757812 343 369.945312 C 334.828125 366.640625 329.425781 358.789062 332.832031 350.121094 Z M 388.929688 445.535156 L 377.21875 445.535156 L 377.21875 442.449219 L 388.929688 442.449219 Z M 383.070312 403.773438 C 382.984375 403.511719 382.945312 403.265625 382.941406 403.039062 C 374.324219 400.578125 365.941406 398.003906 357.792969 395.332031 C 352.398438 398.007812 347.238281 400.589844 342.316406 403.050781 C 342.648438 403.273438 342.96875 403.515625 343.28125 403.773438 C 345.726562 405.792969 346.652344 407.945312 345.164062 408.679688 C 343.679688 409.414062 340.195312 408.542969 337.570312 406.625 C 335.757812 405.300781 334.898438 403.785156 335.085938 402.699219 C 333.425781 402.535156 331.371094 401.644531 329.800781 400.203125 C 327.511719 398.105469 327.269531 395.617188 329.070312 394.726562 C 330.875 393.835938 333.894531 394.933594 336 397.109375 C 336.269531 397.386719 336.511719 397.667969 336.726562 397.949219 C 340.492188 396.074219 344.371094 394.148438 348.378906 392.179688 C 341.140625 389.695312 334.105469 387.148438 327.257812 384.5625 C 327.289062 384.871094 327.296875 385.179688 327.273438 385.484375 C 327.074219 387.828125 324.984375 388.941406 322.417969 388.019531 C 319.851562 387.097656 317.929688 384.449219 318.308594 382.066406 C 318.566406 380.433594 319.773438 379.367188 321.273438 379.171875 C 320.082031 377.894531 319.507812 376.09375 320 374.433594 C 320.714844 372.015625 323.269531 370.832031 325.515625 371.800781 C 327.765625 372.769531 329.007812 375.519531 328.476562 377.921875 C 328.410156 378.226562 328.3125 378.507812 328.195312 378.769531 C 336.796875 382.226562 345.710938 385.640625 354.972656 388.960938 C 361.804688 385.644531 368.980469 382.234375 376.46875 378.78125 C 376.265625 378.515625 376.078125 378.230469 375.917969 377.921875 C 374.664062 375.519531 375.601562 372.769531 377.8125 371.800781 C 380.035156 370.832031 382.546875 372.015625 383.617188 374.433594 C 384.351562 376.097656 384.265625 377.890625 383.488281 379.167969 C 385.054688 379.359375 386.628906 380.425781 387.601562 382.066406 C 389.007812 384.449219 388.757812 387.097656 386.855469 388.019531 C 384.953125 388.941406 381.976562 387.828125 380.390625 385.484375 C 380.1875 385.1875 380.019531 384.882812 379.886719 384.582031 C 374.460938 387.164062 369.21875 389.703125 364.175781 392.179688 C 369.890625 394.144531 375.734375 396.058594 381.6875 397.929688 C 381.578125 397.65625 381.503906 397.382812 381.464844 397.113281 C 381.140625 394.933594 383.191406 393.835938 385.851562 394.726562 C 388.515625 395.617188 390.933594 398.109375 391.4375 400.203125 C 391.785156 401.652344 391.058594 402.5625 389.644531 402.71875 C 391.4375 403.804688 392.949219 405.304688 393.53125 406.625 C 394.375 408.546875 392.789062 409.414062 389.804688 408.683594 C 386.828125 407.945312 383.726562 405.792969 383.070312 403.773438 Z M 383.070312 403.773438 " fill-opacity="1" fill-rule="nonzero"/><path fill="#000000" d="M 343.320312 361.308594 C 346.980469 361.320312 350.59375 356.019531 353.050781 349.859375 C 355.460938 343.683594 355.785156 339.175781 352.128906 339.175781 C 348.511719 339.175781 342.285156 343.683594 339.878906 349.859375 C 337.425781 356.019531 339.703125 361.320312 343.320312 361.308594 Z M 343.320312 361.308594 " fill-opacity="1" fill-rule="nonzero"/><path fill="#000000" d="M 361.363281 361.308594 C 365.023438 361.320312 368.632812 356.019531 371.089844 349.859375 C 373.5 343.683594 373.828125 339.175781 370.167969 339.175781 C 366.550781 339.175781 360.332031 343.683594 357.917969 349.859375 C 355.464844 356.019531 357.742188 361.320312 361.363281 361.308594 Z M 361.363281 361.308594 " fill-opacity="1" fill-rule="nonzero"/><path fill="#000000" d="M 114.199219 454.148438 L 102.917969 454.148438 C 102.148438 454.148438 101.519531 454.78125 101.519531 455.550781 L 101.519531 464.476562 C 101.519531 465 101.816406 465.457031 102.246094 465.695312 L 143.339844 465.695312 L 143.339844 469.019531 L 111.894531 469.019531 C 113.316406 470.6875 114.710938 472.632812 115.828125 474.785156 L 158.625 474.785156 L 158.625 478.109375 L 117.238281 478.109375 C 117.433594 478.703125 117.609375 479.300781 117.746094 479.914062 C 118.511719 483.285156 119.28125 487.882812 120.175781 493.207031 C 125.28125 523.566406 134.785156 580.078125 171.613281 587.007812 C 225.355469 597.125 455.675781 594.902344 542.382812 594.066406 C 556.691406 593.929688 567.378906 593.824219 573.503906 593.808594 C 574.546875 558.375 607.953125 496.742188 625.746094 468.703125 C 632.488281 458.082031 635.636719 448.988281 637.003906 441.910156 L 603.796875 441.910156 L 603.796875 438.585938 L 637.539062 438.585938 C 637.882812 435.917969 637.972656 433.613281 637.925781 431.710938 L 546.296875 431.710938 L 546.296875 428.382812 L 646.597656 428.382812 C 647.136719 428.191406 647.527344 427.675781 647.527344 427.074219 L 647.527344 418.148438 C 647.527344 417.378906 646.894531 416.746094 646.125 416.746094 L 641.449219 416.746094 L 641.449219 402.683594 C 641.449219 402.625 641.4375 402.570312 641.429688 402.511719 L 647.515625 402.511719 C 648.648438 402.511719 649.574219 401.585938 649.574219 400.453125 L 649.574219 399.765625 C 649.574219 398.636719 648.648438 397.707031 647.515625 397.707031 L 504.964844 397.707031 C 503.832031 397.707031 502.90625 398.636719 502.90625 399.765625 L 502.90625 400.453125 C 502.90625 401.585938 503.832031 402.511719 504.964844 402.511719 L 511.046875 402.511719 C 511.042969 402.570312 511.03125 402.625 511.03125 402.683594 L 511.03125 416.746094 L 506.636719 416.746094 C 505.867188 416.746094 505.238281 417.375 505.238281 418.148438 L 505.238281 427.074219 C 505.238281 427.84375 505.867188 428.472656 506.636719 428.472656 L 515.515625 428.472656 C 515.1875 437.789062 512.882812 462.527344 497.988281 477.578125 C 490.027344 485.621094 479.6875 489.59375 467.171875 489.429688 C 458.695312 489.304688 445.328125 489.546875 428.40625 489.851562 C 321.839844 491.777344 207.972656 491.625 199.335938 465.875 L 201.859375 465.875 C 202.210938 465.875 202.53125 465.738281 202.78125 465.519531 C 203.074219 465.261719 203.261719 464.890625 203.261719 464.472656 L 203.261719 458.171875 C 211.34375 445.34375 219.785156 431.359375 228.390625 416.667969 L 226.003906 416.667969 C 218.144531 430.074219 210.421875 442.875 202.992188 454.730469 C 202.734375 454.378906 202.324219 454.148438 201.859375 454.148438 L 197.542969 454.148438 L 197.011719 416.667969 L 186.355469 416.667969 L 185.824219 454.148438 L 178.882812 454.148438 C 180.375 452.28125 181.875 450.378906 183.386719 448.4375 L 183.433594 445.019531 C 181.011719 448.152344 178.613281 451.199219 176.246094 454.148438 L 164.652344 454.148438 L 164.652344 447.152344 L 168.492188 447.222656 C 170.25 447.257812 171.695312 445.839844 171.695312 444.078125 L 171.695312 438.941406 C 171.695312 437.183594 170.25 435.765625 168.492188 435.796875 L 159.332031 435.96875 L 159.332031 432.183594 L 119.863281 424.980469 L 119.863281 436.707031 L 31.15625 438.367188 C 29.441406 438.398438 28.070312 439.796875 28.070312 441.511719 C 28.070312 443.226562 29.441406 444.625 31.15625 444.65625 L 114.199219 446.210938 Z M 577.210938 438.585938 L 586.878906 438.585938 L 586.878906 441.914062 L 577.210938 441.914062 Z M 599.207031 441.914062 L 591.472656 441.914062 L 591.472656 438.585938 L 599.207031 438.585938 Z M 636.660156 402.511719 C 636.65625 402.570312 636.644531 402.625 636.644531 402.683594 L 636.644531 416.746094 L 623.503906 416.746094 L 623.503906 402.683594 C 623.503906 402.625 623.492188 402.570312 623.484375 402.511719 Z M 618.714844 402.511719 C 618.710938 402.570312 618.699219 402.625 618.699219 402.683594 L 618.699219 416.746094 L 605.558594 416.746094 L 605.558594 402.683594 C 605.558594 402.625 605.546875 402.570312 605.542969 402.511719 Z M 600.769531 402.511719 C 600.765625 402.570312 600.753906 402.625 600.753906 402.683594 L 600.753906 416.746094 L 587.613281 416.746094 L 587.613281 402.683594 C 587.613281 402.625 587.601562 402.570312 587.597656 402.511719 Z M 582.828125 402.511719 C 582.820312 402.570312 582.808594 402.625 582.808594 402.683594 L 582.808594 416.746094 L 580.871094 416.746094 L 580.691406 404.054688 L 571.214844 404.054688 L 571.214844 416.746094 L 569.667969 416.746094 L 569.667969 402.683594 C 569.667969 402.625 569.65625 402.570312 569.652344 402.511719 Z M 564.882812 402.511719 C 564.878906 402.570312 564.863281 402.625 564.863281 402.683594 L 564.863281 416.746094 L 551.726562 416.746094 L 551.726562 402.683594 C 551.726562 402.625 551.710938 402.570312 551.707031 402.511719 Z M 546.9375 402.511719 C 546.933594 402.570312 546.917969 402.625 546.917969 402.683594 L 546.917969 416.746094 L 533.777344 416.746094 L 533.777344 402.683594 C 533.777344 402.625 533.765625 402.570312 533.761719 402.511719 Z M 515.816406 402.511719 L 528.992188 402.511719 C 528.988281 402.570312 528.972656 402.625 528.972656 402.683594 L 528.972656 416.746094 L 515.835938 416.746094 L 515.835938 402.683594 C 515.835938 402.625 515.820312 402.570312 515.816406 402.511719 Z M 435.097656 553.785156 C 427.136719 553.785156 420.683594 547.332031 420.683594 539.378906 C 420.683594 531.421875 427.140625 524.972656 435.097656 524.972656 C 443.0625 524.972656 449.515625 531.421875 449.515625 539.378906 C 449.515625 547.332031 443.058594 553.785156 435.097656 553.785156 Z M 498.078125 524.96875 C 506.039062 524.96875 512.492188 531.421875 512.492188 539.375 C 512.492188 547.332031 506.039062 553.78125 498.078125 553.78125 C 490.117188 553.78125 483.660156 547.332031 483.660156 539.375 C 483.660156 531.421875 490.117188 524.96875 498.078125 524.96875 Z M 372.121094 524.96875 C 380.082031 524.96875 386.535156 531.421875 386.535156 539.375 C 386.535156 547.332031 380.082031 553.78125 372.121094 553.78125 C 364.160156 553.78125 357.707031 547.332031 357.707031 539.375 C 357.707031 531.421875 364.160156 524.96875 372.121094 524.96875 Z M 309.144531 524.96875 C 317.105469 524.96875 323.558594 531.421875 323.558594 539.375 C 323.558594 547.332031 317.105469 553.78125 309.144531 553.78125 C 301.183594 553.78125 294.730469 547.332031 294.730469 539.375 C 294.726562 531.421875 301.183594 524.96875 309.144531 524.96875 Z M 246.164062 524.96875 C 254.128906 524.96875 260.578125 531.421875 260.578125 539.375 C 260.578125 547.332031 254.125 553.78125 246.164062 553.78125 C 238.203125 553.78125 231.75 547.332031 231.75 539.375 C 231.75 531.421875 238.203125 524.96875 246.164062 524.96875 Z M 162.445312 469.019531 L 162.445312 465.695312 L 173.367188 465.695312 L 173.367188 469.019531 Z M 188.652344 474.785156 L 188.652344 478.109375 L 177.734375 478.109375 L 177.734375 474.785156 Z M 148.527344 465.695312 L 157.261719 465.695312 L 157.261719 469.019531 L 148.527344 469.019531 Z M 152.875 501.988281 C 144.128906 503.296875 136.253906 501.96875 135.285156 499.023438 C 134.3125 496.074219 140.613281 492.625 149.355469 491.3125 C 158.097656 490.003906 165.972656 491.332031 166.945312 494.277344 C 167.917969 497.226562 161.617188 500.675781 152.875 501.988281 Z M 163.8125 478.109375 L 163.8125 474.785156 L 172.546875 474.785156 L 172.546875 478.109375 Z M 163.8125 478.109375 " fill-opacity="1" fill-rule="nonzero"/><path fill="#000000" d="M 489.445312 175.25 C 491.414062 171.894531 497.5625 163.722656 505.0625 165.347656 C 497.078125 156.367188 488.109375 170.078125 488.109375 170.078125 C 488.109375 170.078125 473.625 162.417969 470.988281 174.136719 C 476.761719 169.085938 486.101562 173.265625 489.445312 175.25 Z M 489.445312 175.25 " fill-opacity="1" fill-rule="nonzero"/><path fill="#000000" d="M 523.949219 190.078125 C 525.914062 186.722656 532.066406 178.550781 539.5625 180.175781 C 531.582031 171.195312 522.613281 184.902344 522.613281 184.902344 C 522.613281 184.902344 508.125 177.242188 505.488281 188.964844 C 511.265625 183.910156 520.605469 188.09375 523.949219 190.078125 Z M 523.949219 190.078125 " fill-opacity="1" fill-rule="nonzero"/><path fill="#000000" d="M 529.46875 150.425781 C 531.433594 147.066406 537.582031 138.894531 545.085938 140.523438 C 537.101562 131.539062 528.132812 145.25 528.132812 145.25 C 528.132812 145.25 513.648438 137.589844 511.011719 149.308594 C 516.785156 144.257812 526.125 148.4375 529.46875 150.425781 Z M 529.46875 150.425781 " fill-opacity="1" fill-rule="nonzero"/><path fill="#000000" d="M 101.304688 252.390625 C 103.273438 249.035156 109.421875 240.859375 116.921875 242.488281 C 108.9375 233.507812 99.96875 247.214844 99.96875 247.214844 C 99.96875 247.214844 85.484375 239.554688 82.847656 251.273438 C 88.621094 246.222656 97.960938 250.40625 101.304688 252.390625 Z M 101.304688 252.390625 " fill-opacity="1" fill-rule="nonzero"/><path fill="#000000" d="M 135.808594 267.21875 C 137.773438 263.863281 143.925781 255.6875 151.421875 257.3125 C 143.441406 248.332031 134.472656 262.042969 134.472656 262.042969 C 134.472656 262.042969 119.984375 254.382812 117.347656 266.101562 C 123.125 261.050781 132.460938 265.230469 135.808594 267.21875 Z M 135.808594 267.21875 " fill-opacity="1" fill-rule="nonzero"/><path fill="#000000" d="M 141.328125 227.5625 C 143.292969 224.207031 149.441406 216.03125 156.945312 217.660156 C 148.960938 208.675781 139.992188 222.386719 139.992188 222.386719 C 139.992188 222.386719 125.507812 214.726562 122.871094 226.449219 C 128.644531 221.394531 137.980469 225.578125 141.328125 227.5625 Z M 141.328125 227.5625 " fill-opacity="1" fill-rule="nonzero"/><path fill="#000000" d="M 227.410156 191.1875 C 243.570312 191.1875 256.675781 178.09375 256.675781 161.941406 C 256.675781 145.789062 243.570312 132.691406 227.410156 132.691406 C 211.246094 132.691406 198.144531 145.789062 198.144531 161.941406 C 198.144531 178.09375 211.246094 191.1875 227.410156 191.1875 Z M 227.410156 138.265625 C 240.46875 138.265625 251.09375 148.886719 251.09375 161.945312 C 251.09375 175 240.46875 185.613281 227.410156 185.613281 C 214.34375 185.613281 203.722656 174.996094 203.722656 161.945312 C 203.722656 148.886719 214.34375 138.265625 227.410156 138.265625 Z M 227.410156 138.265625 " fill-opacity="1" fill-rule="nonzero"/><path fill="#000000" d="M 79.503906 580.90625 L 101.214844 580.90625 L 101.214844 582.679688 L 79.503906 582.679688 Z M 79.503906 580.90625 " fill-opacity="1" fill-rule="nonzero"/><path fill="#000000" d="M 52.605469 580.90625 L 68.214844 580.90625 L 68.214844 582.679688 L 52.605469 582.679688 Z M 52.605469 580.90625 " fill-opacity="1" fill-rule="nonzero"/><path fill="#000000" d="M 110.492188 580.90625 L 142.96875 580.90625 L 142.96875 582.679688 L 110.492188 582.679688 Z M 110.492188 580.90625 " fill-opacity="1" fill-rule="nonzero"/><path fill="#000000" d="M 583.921875 580.90625 L 605.632812 580.90625 L 605.632812 582.679688 L 583.921875 582.679688 Z M 583.921875 580.90625 " fill-opacity="1" fill-rule="nonzero"/><g clip-path="url(#id2)"><path fill="#000000" d="M 652.925781 580.90625 L 674.636719 580.90625 L 674.636719 582.679688 L 652.925781 582.679688 Z M 652.925781 580.90625 " fill-opacity="1" fill-rule="nonzero"/></g><path fill="#000000" d="M 613.773438 580.90625 L 644.644531 580.90625 L 644.644531 582.679688 L 613.773438 582.679688 Z M 613.773438 580.90625 " fill-opacity="1" fill-rule="nonzero"/><path fill="#000000" d="M 406.144531 619.875 L 480.6875 619.875 L 480.6875 621.648438 L 406.144531 621.648438 Z M 406.144531 619.875 " fill-opacity="1" fill-rule="nonzero"/><path fill="#000000" d="M 499.773438 619.875 L 582.292969 619.875 L 582.292969 621.648438 L 499.773438 621.648438 Z M 499.773438 619.875 " fill-opacity="1" fill-rule="nonzero"/><path fill="#000000" d="M 313.027344 619.875 L 387.570312 619.875 L 387.570312 621.648438 L 313.027344 621.648438 Z M 313.027344 619.875 " fill-opacity="1" fill-rule="nonzero"/><path fill="#000000" d="M 221.871094 619.875 L 296.414062 619.875 L 296.414062 621.648438 L 221.871094 621.648438 Z M 221.871094 619.875 " fill-opacity="1" fill-rule="nonzero"/><path fill="#000000" d="M 117.132812 619.875 L 206.191406 619.875 L 206.191406 621.648438 L 117.132812 621.648438 Z M 117.132812 619.875 " fill-opacity="1" fill-rule="nonzero"/><path fill="#000000" d="M 127.910156 598.710938 L 177.121094 598.710938 L 177.121094 600.484375 L 127.910156 600.484375 Z M 127.910156 598.710938 " fill-opacity="1" fill-rule="nonzero"/><path fill="#000000" d="M 76.933594 598.710938 L 113.363281 598.710938 L 113.363281 600.484375 L 76.933594 600.484375 Z M 76.933594 598.710938 " fill-opacity="1" fill-rule="nonzero"/><path fill="#000000" d="M 641.53125 598.710938 L 660.335938 598.710938 L 660.335938 600.484375 L 641.53125 600.484375 Z M 641.53125 598.710938 " fill-opacity="1" fill-rule="nonzero"/><path fill="#000000" d="M 538.582031 609.011719 L 613.125 609.011719 L 613.125 610.785156 L 538.582031 610.785156 Z M 538.582031 609.011719 " fill-opacity="1" fill-rule="nonzero"/><path fill="#000000" d="M 437.988281 609.011719 L 512.53125 609.011719 L 512.53125 610.785156 L 437.988281 610.785156 Z M 437.988281 609.011719 " fill-opacity="1" fill-rule="nonzero"/><path fill="#000000" d="M 361.421875 609.011719 L 383.136719 609.011719 L 383.136719 610.785156 L 361.421875 610.785156 Z M 361.421875 609.011719 " fill-opacity="1" fill-rule="nonzero"/><path fill="#000000" d="M 394.714844 609.011719 L 416.425781 609.011719 L 416.425781 610.785156 L 394.714844 610.785156 Z M 394.714844 609.011719 " fill-opacity="1" fill-rule="nonzero"/><path fill="#000000" d="M 270.089844 609.011719 L 344.628906 609.011719 L 344.628906 610.785156 L 270.089844 610.785156 Z M 270.089844 609.011719 " fill-opacity="1" fill-rule="nonzero"/><path fill="#000000" d="M 193.523438 609.011719 L 215.234375 609.011719 L 215.234375 610.785156 L 193.523438 610.785156 Z M 193.523438 609.011719 " fill-opacity="1" fill-rule="nonzero"/><path fill="#000000" d="M 105.457031 609.011719 L 172.851562 609.011719 L 172.851562 610.785156 L 105.457031 610.785156 Z M 105.457031 609.011719 " fill-opacity="1" fill-rule="nonzero"/><path fill="#000000" d="M 226.816406 609.011719 L 248.527344 609.011719 L 248.527344 610.785156 L 226.816406 610.785156 Z M 226.816406 609.011719 " fill-opacity="1" fill-rule="nonzero"/><path fill="#000000" d="M 406.144531 641.605469 L 480.6875 641.605469 L 480.6875 643.378906 L 406.144531 643.378906 Z M 406.144531 641.605469 " fill-opacity="1" fill-rule="nonzero"/><path fill="#000000" d="M 499.773438 641.605469 L 565.027344 641.605469 L 565.027344 643.378906 L 499.773438 643.378906 Z M 499.773438 641.605469 " fill-opacity="1" fill-rule="nonzero"/><path fill="#000000" d="M 313.027344 641.605469 L 387.570312 641.605469 L 387.570312 643.378906 L 313.027344 643.378906 Z M 313.027344 641.605469 " fill-opacity="1" fill-rule="nonzero"/><path fill="#000000" d="M 221.871094 641.605469 L 296.414062 641.605469 L 296.414062 643.378906 L 221.871094 643.378906 Z M 221.871094 641.605469 " fill-opacity="1" fill-rule="nonzero"/><path fill="#000000" d="M 133.785156 641.605469 L 208.328125 641.605469 L 208.328125 643.378906 L 133.785156 643.378906 Z M 133.785156 641.605469 " fill-opacity="1" fill-rule="nonzero"/><path fill="#000000" d="M 538.582031 630.742188 L 613.125 630.742188 L 613.125 632.511719 L 538.582031 632.511719 Z M 538.582031 630.742188 " fill-opacity="1" fill-rule="nonzero"/><path fill="#000000" d="M 437.988281 630.742188 L 512.53125 630.742188 L 512.53125 632.511719 L 437.988281 632.511719 Z M 437.988281 630.742188 " fill-opacity="1" fill-rule="nonzero"/><path fill="#000000" d="M 361.421875 630.742188 L 383.136719 630.742188 L 383.136719 632.511719 L 361.421875 632.511719 Z M 361.421875 630.742188 " fill-opacity="1" fill-rule="nonzero"/><path fill="#000000" d="M 394.714844 630.742188 L 416.425781 630.742188 L 416.425781 632.511719 L 394.714844 632.511719 Z M 394.714844 630.742188 " fill-opacity="1" fill-rule="nonzero"/><path fill="#000000" d="M 270.089844 630.742188 L 344.628906 630.742188 L 344.628906 632.511719 L 270.089844 632.511719 Z M 270.089844 630.742188 " fill-opacity="1" fill-rule="nonzero"/><path fill="#000000" d="M 226.816406 630.742188 L 248.527344 630.742188 L 248.527344 632.511719 L 226.816406 632.511719 Z M 226.816406 630.742188 " fill-opacity="1" fill-rule="nonzero"/><path fill="#000000" d="M 190.183594 630.742188 L 211.894531 630.742188 L 211.894531 632.511719 L 190.183594 632.511719 Z M 190.183594 630.742188 " fill-opacity="1" fill-rule="nonzero"/><path fill="#000000" d="M 127.621094 630.742188 L 173.582031 630.742188 L 173.582031 632.511719 L 127.621094 632.511719 Z M 127.621094 630.742188 " fill-opacity="1" fill-rule="nonzero"/><g clip-path="url(#id3)"><path fill="#000000" d="M 513.921875 652.46875 L 588.464844 652.46875 L 588.464844 654.242188 L 513.921875 654.242188 Z M 513.921875 652.46875 " fill-opacity="1" fill-rule="nonzero"/></g><g clip-path="url(#id4)"><path fill="#000000" d="M 413.328125 652.46875 L 487.867188 652.46875 L 487.867188 654.242188 L 413.328125 654.242188 Z M 413.328125 652.46875 " fill-opacity="1" fill-rule="nonzero"/></g><g clip-path="url(#id5)"><path fill="#000000" d="M 336.761719 652.46875 L 358.472656 652.46875 L 358.472656 654.242188 L 336.761719 654.242188 Z M 336.761719 652.46875 " fill-opacity="1" fill-rule="nonzero"/></g><g clip-path="url(#id6)"><path fill="#000000" d="M 370.050781 652.46875 L 391.765625 652.46875 L 391.765625 654.242188 L 370.050781 654.242188 Z M 370.050781 652.46875 " fill-opacity="1" fill-rule="nonzero"/></g><g clip-path="url(#id7)"><path fill="#000000" d="M 245.425781 652.46875 L 319.96875 652.46875 L 319.96875 654.242188 L 245.425781 654.242188 Z M 245.425781 652.46875 " fill-opacity="1" fill-rule="nonzero"/></g><g clip-path="url(#id8)"><path fill="#000000" d="M 168.863281 652.46875 L 190.574219 652.46875 L 190.574219 654.242188 L 168.863281 654.242188 Z M 168.863281 652.46875 " fill-opacity="1" fill-rule="nonzero"/></g><g clip-path="url(#id9)"><path fill="#000000" d="M 202.152344 652.46875 L 223.867188 652.46875 L 223.867188 654.242188 L 202.152344 654.242188 Z M 202.152344 652.46875 " fill-opacity="1" fill-rule="nonzero"/></g><path fill="#000000" d="M 590.183594 598.710938 L 631.394531 598.710938 L 631.394531 600.484375 L 590.183594 600.484375 Z M 590.183594 598.710938 " fill-opacity="1" fill-rule="nonzero"/></svg>