  0
SECTION
  2
HEADER
  9
$ACADVER
  1
AC1024
  9
$ACADMAINTVER
 70
     6
  9
$DWGCODEPAGE
  3
ANSI_1252
  9
$INSBASE
 10
0.0
 20
0.0
 30
0.0
  9
$EXTMIN
 10
1.000000000000000E+20
 20
1.000000000000000E+20
 30
1.000000000000000E+20
  9
$EXTMAX
 10
-1.000000000000000E+20
 20
-1.000000000000000E+20
 30
-1.000000000000000E+20
  9
$LIMMIN
 10
0.0
 20
0.0
  9
$LIMMAX
 10
12.0
 20
9.0
  9
$ORTHOMODE
 70
     0
  9
$REGENMODE
 70
     1
  9
$FILLMODE
 70
     1
  9
$QTEXTMODE
 70
     0
  9
$MIRRTEXT
 70
     1
  9
$LTSCALE
 40
1.0
  9
$ATTMODE
 70
     1
  9
$TEXTSIZE
 40
0.2
  9
$TRACEWID
 40
0.05
  9
$TEXTSTYLE
  7
Standard
  9
$CLAYER
  8
0
  9
$CELTYPE
  6
ByLayer
  9
$CECOLOR
 62
   256
  9
$CELTSCALE
 40
1.0
  9
$DISPSILH
 70
     0
  9
$DIMSCALE
 40
1.0
  9
$DIMASZ
 40
0.18
  9
$DIMEXO
 40
0.0625
  9
$DIMDLI
 40
0.38
  9
$DIMRND
 40
0.0
  9
$DIMDLE
 40
0.0
  9
$DIMEXE
 40
0.18
  9
$DIMTP
 40
0.0
  9
$DIMTM
 40
0.0
  9
$DIMTXT
 40
0.18
  9
$DIMCEN
 40
0.09
  9
$DIMTSZ
 40
0.0
  9
$DIMTOL
 70
     0
  9
$DIMLIM
 70
     0
  9
$DIMTIH
 70
     1
  9
$DIMTOH
 70
     1
  9
$DIMSE1
 70
     0
  9
$DIMSE2
 70
     0
  9
$DIMTAD
 70
     0
  9
$DIMZIN
 70
     0
  9
$DIMBLK
  1

  9
$DIMASO
 70
     1
  9
$DIMSHO
 70
     1
  9
$DIMPOST
  1

  9
$DIMAPOST
  1

  9
$DIMALT
 70
     0
  9
$DIMALTD
 70
     2
  9
$DIMALTF
 40
25.4
  9
$DIMLFAC
 40
1.0
  9
$DIMTOFL
 70
     0
  9
$DIMTVP
 40
0.0
  9
$DIMTIX
 70
     0
  9
$DIMSOXD
 70
     0
  9
$DIMSAH
 70
     0
  9
$DIMBLK1
  1

  9
$DIMBLK2
  1

  9
$DIMSTYLE
  2
Standard
  9
$DIMCLRD
 70
     0
  9
$DIMCLRE
 70
     0
  9
$DIMCLRT
 70
     0
  9
$DIMTFAC
 40
1.0
  9
$DIMGAP
 40
0.09
  9
$DIMJUST
 70
     0
  9
$DIMSD1
 70
     0
  9
$DIMSD2
 70
     0
  9
$DIMTOLJ
 70
     1
  9
$DIMTZIN
 70
     0
  9
$DIMALTZ
 70
     0
  9
$DIMALTTZ
 70
     0
  9
$DIMUPT
 70
     0
  9
$DIMDEC
 70
     4
  9
$DIMTDEC
 70
     4
  9
$DIMALTU
 70
     2
  9
$DIMALTTD
 70
     2
  9
$DIMTXSTY
  7
Standard
  9
$DIMAUNIT
 70
     0
  9
$DIMADEC
 70
     0
  9
$DIMALTRND
 40
0.0
  9
$DIMAZIN
 70
     0
  9
$DIMDSEP
 70
    46
  9
$DIMATFIT
 70
     3
  9
$DIMFRAC
 70
     0
  9
$DIMLDRBLK
  1

  9
$DIMLUNIT
 70
     2
  9
$DIMLWD
 70
    -2
  9
$DIMLWE
 70
    -2
  9
$DIMTMOVE
 70
     0
  9
$DIMFXL
 40
1.0
  9
$DIMFXLON
 70
     0
  9
$DIMJOGANG
 40
0.7853981633974483
  9
$DIMTFILL
 70
     0
  9
$DIMTFILLCLR
 70
     0
  9
$DIMARCSYM
 70
     0
  9
$DIMLTYPE
  6

  9
$DIMLTEX1
  6

  9
$DIMLTEX2
  6

  9
$DIMTXTDIRECTION
 70
     0
  9
$LUNITS
 70
     2
  9
$LUPREC
 70
     4
  9
$SKETCHINC
 40
0.1
  9
$FILLETRAD
 40
0.5
  9
$AUNITS
 70
     0
  9
$AUPREC
 70
     0
  9
$MENU
  1
.
  9
$ELEVATION
 40
0.0
  9
$PELEVATION
 40
0.0
  9
$THICKNESS
 40
0.0
  9
$LIMCHECK
 70
     0
  9
$CHAMFERA
 40
0.5
  9
$CHAMFERB
 40
0.5
  9
$CHAMFERC
 40
1.0
  9
$CHAMFERD
 40
0.0
  9
$SKPOLY
 70
     0
  9
$TDCREATE
 40
2459022.901964687
  9
$TDUCREATE
 40
2459022.610298021
  9
$TDUPDATE
 40
2459022.901964734
  9
$TDUUPDATE
 40
2459022.610298067
  9
$TDINDWG
 40
0.0000000116
  9
$TDUSRTIMER
 40
0.0000000116
  9
$USRTIMER
 70
     1
  9
$ANGBASE
 50
0.0
  9
$ANGDIR
 70
     0
  9
$PDMODE
 70
     0
  9
$PDSIZE
 40
0.0
  9
$PLINEWID
 40
0.0
  9
$SPLFRAME
 70
     0
  9
$SPLINETYPE
 70
     6
  9
$SPLINESEGS
 70
     8
  9
$HANDSEED
  5
45
  9
$SURFTAB1
 70
     6
  9
$SURFTAB2
 70
     6
  9
$SURFTYPE
 70
     6
  9
$SURFU
 70
     6
  9
$SURFV
 70
     6
  9
$UCSBASE
  2

  9
$UCSNAME
  2

  9
$UCSORG
 10
0.0
 20
0.0
 30
0.0
  9
$UCSXDIR
 10
1.0
 20
0.0
 30
0.0
  9
$UCSYDIR
 10
0.0
 20
1.0
 30
0.0
  9
$UCSORTHOREF
  2

  9
$UCSORTHOVIEW
 70
     0
  9
$UCSORGTOP
 10
0.0
 20
0.0
 30
0.0
  9
$UCSORGBOTTOM
 10
0.0
 20
0.0
 30
0.0
  9
$UCSORGLEFT
 10
0.0
 20
0.0
 30
0.0
  9
$UCSORGRIGHT
 10
0.0
 20
0.0
 30
0.0
  9
$UCSORGFRONT
 10
0.0
 20
0.0
 30
0.0
  9
$UCSORGBACK
 10
0.0
 20
0.0
 30
0.0
  9
$PUCSBASE
  2

  9
$PUCSNAME
  2

  9
$PUCSORG
 10
0.0
 20
0.0
 30
0.0
  9
$PUCSXDIR
 10
1.0
 20
0.0
 30
0.0
  9
$PUCSYDIR
 10
0.0
 20
1.0
 30
0.0
  9
$PUCSORTHOREF
  2

  9
$PUCSORTHOVIEW
 70
     0
  9
$PUCSORGTOP
 10
0.0
 20
0.0
 30
0.0
  9
$PUCSORGBOTTOM
 10
0.0
 20
0.0
 30
0.0
  9
$PUCSORGLEFT
 10
0.0
 20
0.0
 30
0.0
  9
$PUCSORGRIGHT
 10
0.0
 20
0.0
 30
0.0
  9
$PUCSORGFRONT
 10
0.0
 20
0.0
 30
0.0
  9
$PUCSORGBACK
 10
0.0
 20
0.0
 30
0.0
  9
$USERI1
 70
     0
  9
$USERI2
 70
     0
  9
$USERI3
 70
     0
  9
$USERI4
 70
     0
  9
$USERI5
 70
     0
  9
$USERR1
 40
0.0
  9
$USERR2
 40
0.0
  9
$USERR3
 40
0.0
  9
$USERR4
 40
0.0
  9
$USERR5
 40
0.0
  9
$WORLDVIEW
 70
     1
  9
$SHADEDGE
 70
     3
  9
$SHADEDIF
 70
    70
  9
$TILEMODE
 70
     1
  9
$MAXACTVP
 70
    64
  9
$PINSBASE
 10
0.0
 20
0.0
 30
0.0
  9
$PLIMCHECK
 70
     0
  9
$PEXTMIN
 10
1.000000000000000E+20
 20
1.000000000000000E+20
 30
1.000000000000000E+20
  9
$PEXTMAX
 10
-1.000000000000000E+20
 20
-1.000000000000000E+20
 30
-1.000000000000000E+20
  9
$PLIMMIN
 10
0.0
 20
0.0
  9
$PLIMMAX
 10
12.0
 20
9.0
  9
$UNITMODE
 70
     0
  9
$VISRETAIN
 70
     1
  9
$PLINEGEN
 70
     0
  9
$PSLTSCALE
 70
     1
  9
$TREEDEPTH
 70
  3020
  9
$CMLSTYLE
  2
Standard
  9
$CMLJUST
 70
     0
  9
$CMLSCALE
 40
1.0
  9
$PROXYGRAPHICS
 70
     1
  9
$MEASUREMENT
 70
     0
  9
$CELWEIGHT
370
    -1
  9
$ENDCAPS
280
     0
  9
$JOINSTYLE
280
     0
  9
$LWDISPLAY
290
     1
  9
$INSUNITS
 70
     1
  9
$HYPERLINKBASE
  1

  9
$STYLESHEET
  1

  9
$XEDIT
290
     1
  9
$CEPSNTYPE
380
     0
  9
$PSTYLEMODE
290
     1
  9
$FINGERPRINTGUID
  2
{7C3E6035-140A-4501-A210-90C46C986EED}
  9
$VERSIONGUID
  2
{FAEB1C32-E019-11D5-929B-00C0DF256EC4}
  9
$EXTNAMES
290
     1
  9
$PSVPSCALE
 40
0.0
  9
$OLESTARTUP
290
     0
  9
$SORTENTS
280
   127
  9
$INDEXCTL
280
     0
  9
$HIDETEXT
280
     1
  9
$XCLIPFRAME
280
     2
  9
$HALOGAP
280
     0
  9
$OBSCOLOR
 70
   257
  9
$OBSLTYPE
280
     0
  9
$INTERSECTIONDISPLAY
280
     0
  9
$INTERSECTIONCOLOR
 70
   257
  9
$DIMASSOC
280
     2
  9
$PROJECTNAME
  1

  9
$CAMERADISPLAY
290
     0
  9
$LENSLENGTH
 40
50.0
  9
$CAMERAHEIGHT
 40
0.0
  9
$STEPSPERSEC
 40
2.0
  9
$STEPSIZE
 40
6.0
  9
$3DDWFPREC
 40
2.0
  9
$PSOLWIDTH
 40
0.25
  9
$PSOLHEIGHT
 40
4.0
  9
$LOFTANG1
 40
1.570796326794897
  9
$LOFTANG2
 40
1.570796326794897
  9
$LOFTMAG1
 40
0.0
  9
$LOFTMAG2
 40
0.0
  9
$LOFTPARAM
 70
     7
  9
$LOFTNORMALS
280
     1
  9
$LATITUDE
 40
37.795
  9
$LONGITUDE
 40
-122.394
  9
$NORTHDIRECTION
 40
0.0
  9
$TIMEZONE
 70
 -8000
  9
$LIGHTGLYPHDISPLAY
280
     1
  9
$TILEMODELIGHTSYNCH
280
     1
  9
$CMATERIAL
347
3C
  9
$SOLIDHIST
280
     1
  9
$SHOWHIST
280
     1
  9
$DWFFRAME
280
     2
  9
$DGNFRAME
280
     2
  9
$REALWORLDSCALE
290
     1
  9
$INTERFERECOLOR
 62
   256
  9
$CSHADOW
280
     0
  9
$SHADOWPLANELOCATION
 40
0.0
  0
ENDSEC
  0
SECTION
  2
CLASSES
  0
CLASS
  1
ACDBDICTIONARYWDFLT
  2
AcDbDictionaryWithDefault
  3
ObjectDBX Classes
 90
        0
 91
        4
280
     0
281
     0
  0
CLASS
  1
VISUALSTYLE
  2
AcDbVisualStyle
  3
ObjectDBX Classes
 90
     4095
 91
        4
280
     0
281
     0
  0
CLASS
  1
MATERIAL
  2
AcDbMaterial
  3
ObjectDBX Classes
 90
     1153
 91
        4
280
     0
281
     0
  0
CLASS
  1
SUN
  2
AcDbSun
  3
SCENEOE
 90
     1024
 91
        4
280
     0
281
     0
  0
ENDSEC
  0
SECTION
  2
TABLES
  0
TABLE
  2
VPORT
  5
8
330
0
100
AcDbSymbolTable
 70
     1
  0
VPORT
  5
29
330
8
100
AcDbSymbolTableRecord
100
AcDbViewportTableRecord
  2
*Active
 70
     0
 10
0.0
 20
0.0
 11
1.0
 21
1.0
 12
0.0
 22
0.0
 13
0.0
 23
0.0
 14
0.5
 24
0.5
 15
0.5
 25
0.5
 16
0.0
 26
0.0
 36
1.0
 17
1000.0
 27
-1000.0
 37
0.0
 40
2000.0
 41
1.0
 42
50.0
 43
0.0
 44
0.0
 50
0.0
 51
0.0
 71
     0
 72
   100
 73
     1
 74
     3
 75
     0
 76
     0
 77
     0
 78
     0
281
     0
 65
     1
110
0.0
120
0.0
130
0.0
111
1.0
121
0.0
131
0.0
112
0.0
122
1.0
132
0.0
 79
     0
146
0.0
 60
     3
 61
     5
292
     1
282
     1
141
0.0
142
0.0
 63
   250
361
3F
  0
ENDTAB
  0
TABLE
  2
LTYPE
  5
5
330
0
100
AcDbSymbolTable
 70
     1
  0
LTYPE
  5
14
330
5
100
AcDbSymbolTableRecord
100
AcDbLinetypeTableRecord
  2
ByBlock
 70
     0
  3

 72
    65
 73
     0
 40
0.0
  0
LTYPE
  5
15
330
5
100
AcDbSymbolTableRecord
100
AcDbLinetypeTableRecord
  2
ByLayer
 70
     0
  3

 72
    65
 73
     0
 40
0.0
  0
LTYPE
  5
16
330
5
100
AcDbSymbolTableRecord
100
AcDbLinetypeTableRecord
  2
Continuous
 70
     0
  3
Solid line
 72
    65
 73
     0
 40
0.0
  0
ENDTAB
  0
TABLE
  2
LAYER
  5
2
330
0
100
AcDbSymbolTable
 70
     2
  0
LAYER
  5
10
330
2
100
AcDbSymbolTableRecord
100
AcDbLayerTableRecord
  2
0
 70
     0
 62
     7
  6
Continuous
370
    -3
390
F
347
3E
  0
LAYER
  5
40
330
2
100
AcDbSymbolTableRecord
100
AcDbLayerTableRecord
  2
Layer 1
 70
     0
 62
     7
  6
Continuous
370
    -3
390
F
347
3E
  0
ENDTAB
  0
TABLE
  2
STYLE
  5
3
330
0
100
AcDbSymbolTable
 70
     1
  0
STYLE
  5
11
330
3
100
AcDbSymbolTableRecord
100
AcDbTextStyleTableRecord
  2
Standard
 70
     0
 40
0.0
 41
1.0
 50
0.0
 71
     0
 42
0.2
  3
txt
  4

  0
ENDTAB
  0
TABLE
  2
VIEW
  5
6
330
0
100
AcDbSymbolTable
 70
     0
  0
ENDTAB
  0
TABLE
  2
UCS
  5
7
330
0
100
AcDbSymbolTable
 70
     0
  0
ENDTAB
  0
TABLE
  2
APPID
  5
9
330
0
100
AcDbSymbolTable
 70
     1
  0
APPID
  5
12
330
9
100
AcDbSymbolTableRecord
100
AcDbRegAppTableRecord
  2
ACAD
 70
     0
  0
ENDTAB
  0
TABLE
  2
DIMSTYLE
  5
A
330
0
100
AcDbSymbolTable
 70
     1
100
AcDbDimStyleTable
  0
DIMSTYLE
105
27
330
A
100
AcDbSymbolTableRecord
100
AcDbDimStyleTableRecord
  2
Standard
 70
     0
178
     0
340
11
  0
ENDTAB
  0
TABLE
  2
BLOCK_RECORD
  5
1
330
0
100
AcDbSymbolTable
 70
     1
  0
BLOCK_RECORD
  5
1F
330
1
100
AcDbSymbolTableRecord
100
AcDbBlockTableRecord
  2
*Model_Space
340
22
 70
     0
280
     1
281
     0
  0
BLOCK_RECORD
  5
1B
330
1
100
AcDbSymbolTableRecord
100
AcDbBlockTableRecord
  2
*Paper_Space
340
1E
 70
     0
280
     1
281
     0
  0
BLOCK_RECORD
  5
23
330
1
100
AcDbSymbolTableRecord
100
AcDbBlockTableRecord
  2
*Paper_Space0
340
26
 70
     0
280
     1
281
     0
  0
ENDTAB
  0
ENDSEC
  0
SECTION
  2
BLOCKS
  0
BLOCK
  5
20
330
1F
100
AcDbEntity
  8
0
100
AcDbBlockBegin
  2
*Model_Space
 70
     0
 10
0.0
 20
0.0
 30
0.0
  3
*Model_Space
  1

  0
ENDBLK
  5
21
330
1F
100
AcDbEntity
  8
0
100
AcDbBlockEnd
  0
BLOCK
  5
1C
330
1B
100
AcDbEntity
 67
     1
  8
0
100
AcDbBlockBegin
  2
*Paper_Space
 70
     0
 10
0.0
 20
0.0
 30
0.0
  3
*Paper_Space
  1

  0
ENDBLK
  5
1D
330
1B
100
AcDbEntity
 67
     1
  8
0
100
AcDbBlockEnd
  0
BLOCK
  5
24
330
23
100
AcDbEntity
  8
0
100
AcDbBlockBegin
  2
*Paper_Space0
 70
     0
 10
0.0
 20
0.0
 30
0.0
  3
*Paper_Space0
  1

  0
ENDBLK
  5
25
330
23
100
AcDbEntity
  8
0
100
AcDbBlockEnd
  0
ENDSEC
  0
SECTION
  2
ENTITIES
  0
SPLINE
  5
41
330
1F
100
AcDbEntity
  8
Layer 1
370
     0
100
AcDbSpline
210
0.0
220
0.0
230
1.0
 70
    11
 71
     3
 72
   269
 73
   265
 74
     0
 42
0.0000000001
 43
0.0000000001
 12
1.0
 22
0.0
 32
0.0
 13
1.0
 23
0.0
 33
0.0
 40
0.0
 40
0.0
 40
0.0
 40
0.0
 40
1.0
 40
1.0
 40
1.0
 40
2.0
 40
2.0
 40
2.0
 40
3.0
 40
3.0
 40
3.0
 40
4.0
 40
4.0
 40
4.0
 40
5.0
 40
5.0
 40
5.0
 40
6.0
 40
6.0
 40
6.0
 40
7.0
 40
7.0
 40
7.0
 40
8.0
 40
8.0
 40
8.0
 40
9.0
 40
9.0
 40
9.0
 40
10.0
 40
10.0
 40
10.0
 40
11.0
 40
11.0
 40
11.0
 40
12.0
 40
12.0
 40
12.0
 40
13.0
 40
13.0
 40
13.0
 40
14.0
 40
14.0
 40
14.0
 40
15.0
 40
15.0
 40
15.0
 40
16.0
 40
16.0
 40
16.0
 40
17.0
 40
17.0
 40
17.0
 40
18.0
 40
18.0
 40
18.0
 40
19.0
 40
19.0
 40
19.0
 40
20.0
 40
20.0
 40
20.0
 40
21.0
 40
21.0
 40
21.0
 40
22.0
 40
22.0
 40
22.0
 40
23.0
 40
23.0
 40
23.0
 40
24.0
 40
24.0
 40
24.0
 40
25.0
 40
25.0
 40
25.0
 40
26.0
 40
26.0
 40
26.0
 40
27.0
 40
27.0
 40
27.0
 40
28.0
 40
28.0
 40
28.0
 40
29.0
 40
29.0
 40
29.0
 40
30.0
 40
30.0
 40
30.0
 40
31.0
 40
31.0
 40
31.0
 40
32.0
 40
32.0
 40
32.0
 40
33.0
 40
33.0
 40
33.0
 40
34.0
 40
34.0
 40
34.0
 40
35.0
 40
35.0
 40
35.0
 40
36.0
 40
36.0
 40
36.0
 40
37.0
 40
37.0
 40
37.0
 40
38.0
 40
38.0
 40
38.0
 40
39.0
 40
39.0
 40
39.0
 40
40.0
 40
40.0
 40
40.0
 40
41.0
 40
41.0
 40
41.0
 40
42.0
 40
42.0
 40
42.0
 40
43.0
 40
43.0
 40
43.0
 40
44.0
 40
44.0
 40
44.0
 40
45.0
 40
45.0
 40
45.0
 40
46.0
 40
46.0
 40
46.0
 40
47.0
 40
47.0
 40
47.0
 40
48.0
 40
48.0
 40
48.0
 40
49.0
 40
49.0
 40
49.0
 40
50.0
 40
50.0
 40
50.0
 40
51.0
 40
51.0
 40
51.0
 40
52.0
 40
52.0
 40
52.0
 40
53.0
 40
53.0
 40
53.0
 40
54.0
 40
54.0
 40
54.0
 40
55.0
 40
55.0
 40
55.0
 40
56.0
 40
56.0
 40
56.0
 40
57.0
 40
57.0
 40
57.0
 40
58.0
 40
58.0
 40
58.0
 40
59.0
 40
59.0
 40
59.0
 40
60.0
 40
60.0
 40
60.0
 40
61.0
 40
61.0
 40
61.0
 40
62.0
 40
62.0
 40
62.0
 40
63.0
 40
63.0
 40
63.0
 40
64.0
 40
64.0
 40
64.0
 40
65.0
 40
65.0
 40
65.0
 40
66.0
 40
66.0
 40
66.0
 40
67.0
 40
67.0
 40
67.0
 40
68.0
 40
68.0
 40
68.0
 40
69.0
 40
69.0
 40
69.0
 40
70.0
 40
70.0
 40
70.0
 40
71.0
 40
71.0
 40
71.0
 40
72.0
 40
72.0
 40
72.0
 40
73.0
 40
73.0
 40
73.0
 40
74.0
 40
74.0
 40
74.0
 40
75.0
 40
75.0
 40
75.0
 40
76.0
 40
76.0
 40
76.0
 40
77.0
 40
77.0
 40
77.0
 40
78.0
 40
78.0
 40
78.0
 40
79.0
 40
79.0
 40
79.0
 40
80.0
 40
80.0
 40
80.0
 40
81.0
 40
81.0
 40
81.0
 40
82.0
 40
82.0
 40
82.0
 40
83.0
 40
83.0
 40
83.0
 40
84.0
 40
84.0
 40
84.0
 40
85.0
 40
85.0
 40
85.0
 40
86.0
 40
86.0
 40
86.0
 40
87.0
 40
87.0
 40
87.0
 40
88.0
 40
88.0
 40
88.0
 40
88.0
 10
1943.230840404371
 20
-1744.129276085036
 30
0.0
 10
1940.508553886842
 20
-1731.074767899438
 30
0.0
 10
1933.928746878659
 20
-1722.527525340234
 30
0.0
 10
1924.235805263601
 20
-1713.530284224125
 30
0.0
 10
1907.110379900634
 20
-1697.634733582323
 30
0.0
 10
1887.870097821366
 20
-1685.968441369485
 30
0.0
 10
1868.239877659986
 20
-1673.510897902455
 30
0.0
 10
1848.860364480219
 20
-1661.212150690546
 30
0.0
 10
1829.854409253119
 20
-1648.286863526333
 30
0.0
 10
1810.683742724135
 20
-1635.665518764585
 30
0.0
 10
1773.287907139551
 20
-1611.043909150152
 30
0.0
 10
1736.054962842467
 20
-1586.236203064822
 30
0.0
 10
1699.058620415586
 20
-1561.01853873907
 30
0.0
 10
1661.104950421734
 20
-1535.149309263201
 30
0.0
 10
1623.404717431142
 20
-1508.977502395712
 30
0.0
 10
1584.501909935132
 20
-1484.55381934578
 30
0.0
 10
1546.550969962886
 20
-1460.728466025148
 30
0.0
 10
1508.380263253541
 20
-1437.23799535149
 30
0.0
 10
1471.029018021436
 20
-1412.480794665375
 30
0.0
 10
1457.80024345838
 20
-1403.711965354694
 30
0.0
 10
1444.69431986639
 20
-1394.666493857378
 30
0.0
 10
1431.455535224241
 20
-1385.851254179846
 30
0.0
 10
1444.112370266539
 20
-1369.952518512895
 30
0.0
 10
1456.768295301643
 20
-1354.054692853122
 30
0.0
 10
1469.424675340346
 20
-1338.155957186143
 30
0.0
 10
1478.698558643106
 20
-1326.506955109984
 30
0.0
 10
1487.972441945811
 20
-1314.857498030207
 30
0.0
 10
1497.245870244948
 20
-1303.208040950431
 30
0.0
 10
1501.522449047929
 20
-1297.836268490819
 30
0.0
 10
1505.93916895863
 20
-1292.55094671452
 30
0.0
 10
1510.086071736612
 20
-1287.079073463665
 30
0.0
 10
1510.911903264159
 20
-1285.988884846582
 30
0.0
 10
1511.372366903761
 20
-1285.337774700056
 30
0.0
 10
1511.611698795517
 20
-1284.962851736585
 30
0.0
 10
1511.902901097243
 20
-1284.743084999531
 30
0.0
 10
1512.406135074883
 20
-1284.314471611666
 30
0.0
 10
1513.267001879356
 20
-1283.517305310696
 30
0.0
 10
1516.514817550804
 20
-1280.512916563359
 30
0.0
 10
1519.662077427398
 20
-1277.390226880987
 30
0.0
 10
1522.856657678021
 20
-1274.329417687699
 30
0.0
 10
1539.679050645769
 20
-1258.211825290837
 30
0.0
 10
1541.439004556816
 20
-1231.100891000282
 30
0.0
 10
1521.213184687664
 20
-1216.584001255727
 30
0.0
 10
1501.12659591905
 20
-1202.166757298764
 30
0.0
 10
1475.872986309158
 20
-1212.394328139664
 30
0.0
 10
1465.9784781009
 20
-1233.505130003898
 30
0.0
 10
1464.334095103324
 20
-1237.013207732496
 30
0.0
 10
1462.690622112965
 20
-1240.520375453892
 30
0.0
 10
1461.046694119024
 20
-1244.027543175285
 30
0.0
 10
1460.574400385902
 20
-1245.034921137802
 30
0.0
 10
1460.102561656389
 20
-1246.042299100343
 30
0.0
 10
1459.63072292689
 20
-1247.048767055679
 30
0.0
 10
1459.347710689888
 20
-1247.472830407565
 30
0.0
 10
1458.803071384944
 20
-1248.345072301941
 30
0.0
 10
1457.985884925729
 20
-1249.684147886284
 30
0.0
 10
1454.092874154549
 20
-1255.335292554126
 30
0.0
 10
1450.532926015967
 20
-1261.242149243157
 30
0.0
 10
1446.813271615032
 20
-1267.010684838893
 30
0.0
 10
1438.744237835699
 20
-1279.524193748297
 30
0.0
 10
1430.674749052741
 20
-1292.03861266491
 30
0.0
 10
1422.605715273421
 20
-1304.552121574341
 30
0.0
 10
1419.619981673524
 20
-1309.182693175349
 30
0.0
 10
1416.634248073682
 20
-1313.81326477636
 30
0.0
 10
1413.648514473785
 20
-1318.44338137378
 30
0.0
 10
1410.689171082511
 20
-1315.047234529917
 30
0.0
 10
1407.357179745748
 20
-1311.844919218154
 30
0.0
 10
1403.647990427531
 20
-1308.88921585565
 30
0.0
 10
1377.03437506792
 20
-1287.677858196585
 30
0.0
 10
1275.569028064368
 20
-1224.975177581337
 30
0.0
 10
1145.003471046608
 20
-1145.508344458725
 30
0.0
 10
1389.177511049833
 20
-992.982038858584
 30
0.0
 10
1649.468233442665
 20
-832.8826533992187
 30
0.0
 10
1656.95531762216
 20
-827.9859046942693
 30
0.0
 10
1717.694657718735
 20
-788.2609056994706
 30
0.0
 10
1777.639561535947
 20
-746.780502829617
 30
0.0
 10
1828.633634603846
 20
-694.7294564071562
 30
0.0
 10
1852.052669712873
 20
-670.8249324607559
 30
0.0
 10
1874.636318218776
 20
-643.4528261058313
 30
0.0
 10
1890.414477932683
 20
-613.8248119197478
 30
0.0
 10
1898.120873845692
 20
-599.353877538425
 30
0.0
 10
1905.278990424958
 20
-584.1708625286738
 30
0.0
 10
1909.975082543848
 20
-568.460498350636
 30
0.0
 10
1914.52011346872
 20
-553.2556431682551
 30
0.0
 10
1917.999070967162
 20
-537.9374920903392
 30
0.0
 10
1920.954774329664
 20
-522.371364052362
 30
0.0
 10
1925.386964362619
 20
-508.16569676778
 30
0.0
 10
1901.653521768487
 20
-404.8484851267185
 30
0.0
 10
1901.653521768487
 20
-404.8484851267185
 30
0.0
 10
1901.653521768487
 20
-404.8484851267185
 30
0.0
 10
1827.628986662896
 20
-538.3360752408253
 30
0.0
 10
1698.208673697429
 20
-646.5982659680385
 30
0.0
 10
1614.513492153032
 20
-716.6110343637783
 30
0.0
 10
1292.847789639363
 20
-911.6710761595568
 30
0.0
 10
1026.253447421335
 20
-1073.394369454627
 30
0.0
 10
759.6591052033327
 20
-911.6710761595568
 30
0.0
 10
437.9934026896644
 20
-716.6110343637783
 30
0.0
 10
354.2982211452672
 20
-646.5982659680385
 30
0.0
 10
224.8779081797993
 20
-538.3360752408253
 30
0.0
 10
150.8533730742083
 20
-404.8484851267185
 30
0.0
 10
150.8533730742083
 20
-404.8484851267185
 30
0.0
 10
150.8533730742083
 20
-404.8484851267185
 30
0.0
 10
127.1194754764947
 20
-508.16569676778
 30
0.0
 10
131.551665509448
 20
-522.371364052362
 30
0.0
 10
134.5078238755341
 20
-537.9374920903392
 30
0.0
 10
137.9867813739766
 20
-553.2556431682551
 30
0.0
 10
142.5313572952646
 20
-568.460498350636
 30
0.0
 10
147.2274494141557
 20
-584.1708625286738
 30
0.0
 10
154.3860209970044
 20
-599.353877538425
 30
0.0
 10
162.0919619063889
 20
-613.8248119197478
 30
0.0
 10
177.87057662392
 20
-643.4528261058313
 30
0.0
 10
200.4542251298217
 20
-670.8249324607559
 30
0.0
 10
223.8728052352262
 20
-694.7294564071562
 30
0.0
 10
274.8673333067491
 20
-746.780502829617
 30
0.0
 10
334.8122371239606
 20
-788.2609056994706
 30
0.0
 10
395.5515772205363
 20
-827.9859046942693
 30
0.0
 10
403.038206396408
 20
-832.8826533992187
 30
0.0
 10
663.3289287892803
 20
-992.982038858584
 30
0.0
 10
907.5034237960872
 20
-1145.508344458725
 30
0.0
 10
776.9374117747448
 20
-1224.975177581337
 30
0.0
 10
675.4725197747757
 20
-1287.677858196585
 30
0.0
 10
648.8584494115412
 20
-1308.88921585565
 30
0.0
 10
645.1492600933252
 20
-1311.844919218154
 30
0.0
 10
641.8177237601849
 20
-1315.047234529917
 30
0.0
 10
638.8583803689098
 20
-1318.44338137378
 30
0.0
 10
635.872646769014
 20
-1313.81326477636
 30
0.0
 10
632.8869131691717
 20
-1309.182693175349
 30
0.0
 10
629.901179569275
 20
-1304.552121574341
 30
0.0
 10
621.8316907863309
 20
-1292.03861266491
 30
0.0
 10
613.7622020034141
 20
-1279.524193748297
 30
0.0
 10
605.6931682240393
 20
-1267.010684838893
 30
0.0
 10
601.9739688267291
 20
-1261.242149243157
 30
0.0
 10
598.4140206881466
 20
-1255.335292554126
 30
0.0
 10
594.5210099169672
 20
-1249.684147886284
 30
0.0
 10
593.7038234577522
 20
-1248.345072301941
 30
0.0
 10
593.1587291491851
 20
-1247.472830407565
 30
0.0
 10
592.8757169122237
 20
-1247.048767055679
 30
0.0
 10
592.4043331863068
 20
-1246.042299100343
 30
0.0
 10
591.9320394531705
 20
-1245.034921137802
 30
0.0
 10
591.459745720088
 20
-1244.027543175285
 30
0.0
 10
589.8162727297304
 20
-1240.520375453892
 30
0.0
 10
588.172344735749
 20
-1237.013207732496
 30
0.0
 10
586.5284167417949
 20
-1233.505130003898
 30
0.0
 10
576.6339085335385
 20
-1212.394328139664
 30
0.0
 10
551.3802989236465
 20
-1202.166757298764
 30
0.0
 10
531.2937101550324
 20
-1216.584001255727
 30
0.0
 10
511.067890285879
 20
-1231.100891000282
 30
0.0
 10
512.8278441969269
 20
-1258.211825290837
 30
0.0
 10
529.649782161051
 20
-1274.329417687699
 30
0.0
 10
532.8443624117153
 20
-1277.390226880987
 30
0.0
 10
535.9920772918913
 20
-1280.512916563359
 30
0.0
 10
539.23989296334
 20
-1283.517305310696
 30
0.0
 10
540.1007597678126
 20
-1284.314471611666
 30
0.0
 10
540.6039937454534
 20
-1284.743084999531
 30
0.0
 10
540.8951960471777
 20
-1284.962851736585
 30
0.0
 10
541.1345279389352
 20
-1285.337774700056
 30
0.0
 10
541.5949915785368
 20
-1285.988884846582
 30
0.0
 10
542.4203681024601
 20
-1287.079073463665
 30
0.0
 10
546.5672708804832
 20
-1292.55094671452
 30
0.0
 10
550.9844457947665
 20
-1297.836268490819
 30
0.0
 10
555.2605695941256
 20
-1303.208040950431
 30
0.0
 10
564.5344528968853
 20
-1314.857498030207
 30
0.0
 10
573.8083361995914
 20
-1326.506955109984
 30
0.0
 10
583.0822195023511
 20
-1338.155957186143
 30
0.0
 10
595.7381445374294
 20
-1354.054692853122
 30
0.0
 10
608.3940695725341
 20
-1369.952518512895
 30
0.0
 10
621.0509046148327
 20
-1385.851254179846
 30
0.0
 10
607.8125749763058
 20
-1394.666493857378
 30
0.0
 10
594.7061963806927
 20
-1403.711965354694
 30
0.0
 10
581.47787682126
 20
-1412.480794665375
 30
0.0
 10
544.1266315891544
 20
-1437.23799535149
 30
0.0
 10
505.9554698762277
 20
-1460.728466025148
 30
0.0
 10
468.0045299039812
 20
-1484.55381934578
 30
0.0
 10
429.1017224079715
 20
-1508.977502395712
 30
0.0
 10
391.4019444209625
 20
-1535.149309263201
 30
0.0
 10
353.448274427109
 20
-1561.01853873907
 30
0.0
 10
316.4514769966063
 20
-1586.236203064822
 30
0.0
 10
279.2185326995623
 20
-1611.043909150152
 30
0.0
 10
241.8226971149779
 20
-1635.665518764585
 30
0.0
 10
222.6520305859931
 20
-1648.286863526333
 30
0.0
 10
203.6460753588935
 20
-1661.212150690546
 30
0.0
 10
184.2665621791275
 20
-1673.510897902455
 30
0.0
 10
164.6363420177067
 20
-1685.968441369485
 30
0.0
 10
145.39605993848
 20
-1697.634733582323
 30
0.0
 10
128.2706345754723
 20
-1713.530284224125
 30
0.0
 10
118.5781479640382
 20
-1722.527525340234
 30
0.0
 10
111.9978859522298
 20
-1731.074767899438
 30
0.0
 10
109.2760544383254
 20
-1744.129276085036
 30
0.0
 10
106.7152941975355
 20
-1756.408003138675
 30
0.0
 10
110.8276167021741
 20
-1768.992492609152
 30
0.0
 10
117.4806792894133
 20
-1779.197313270211
 30
0.0
 10
123.8889499417382
 20
-1789.026300960591
 30
0.0
 10
136.6900211240827
 20
-1796.321373622373
 30
0.0
 10
148.0796711502826
 20
-1798.192803414579
 30
0.0
 10
161.4963621986562
 20
-1800.397750842934
 30
0.0
 10
171.6697876115741
 20
-1796.212172759228
 30
0.0
 10
183.1477083354566
 20
-1789.98817856349
 30
0.0
 10
206.7091595701586
 20
-1777.211677575327
 30
0.0
 10
226.096407811051
 20
-1759.749549550965
 30
0.0
 10
247.1021038445369
 20
-1743.351674938684
 30
0.0
 10
267.0112412105645
 20
-1727.810117094941
 30
0.0
 10
286.9203785765931
 20
-1712.269014254782
 30
0.0
 10
306.8295159426207
 20
-1696.727456411032
 30
0.0
 10
378.3142209728312
 20
-1640.925360339483
 30
0.0
 10
451.8937625610724
 20
-1587.827350641583
 30
0.0
 10
522.1554179240402
 20
-1530.490527439233
 30
0.0
 10
556.8812924046879
 20
-1502.151993445459
 30
0.0
 10
591.5812316803112
 20
-1473.865784865277
 30
0.0
 10
626.9987116275552
 20
-1446.394032722757
 30
0.0
 10
635.6151147334531
 20
-1439.710939898181
 30
0.0
 10
644.4949649216651
 20
-1433.198928425867
 30
0.0
 10
653.2374040237237
 20
-1426.519475630061
 30
0.0
 10
684.2977695314148
 20
-1466.389620772125
 30
0.0
 10
714.1733056739631
 20
-1507.102432574777
 30
0.0
 10
744.230388251508
 20
-1547.765193981833
 30
0.0
 10
759.6463651026315
 20
-1568.620738828466
 30
0.0
 10
791.7222986375873
 20
-1545.54568643839
 30
0.0
 10
776.9210316452727
 20
-1524.302023523964
 30
0.0
 10
753.7831887588745
 20
-1491.093131033882
 30
0.0
 10
730.5871054121317
 20
-1457.977969284646
 30
0.0
 10
707.9706966472313
 20
-1424.453759302203
 30
0.0
 10
714.4968132310496
 20
-1422.42444326206
 30
0.0
 10
720.5642861896504
 20
-1419.448719741313
 30
0.0
 10
725.370034175271
 20
-1415.489278445066
 30
0.0
 10
750.1267798578465
 20
-1395.092377223649
 30
0.0
 10
875.2918991893648
 20
-1314.84703294748
 30
0.0
 10
1026.253447421335
 20
-1219.915992592498
 30
0.0
 10
1177.21499565333
 20
-1314.84703294748
 30
0.0
 10
1302.38011498485
 20
-1395.092377223649
 30
0.0
 10
1327.136860667424
 20
-1415.489278445066
 30
0.0
 10
1331.942608653046
 20
-1419.448719741313
 30
0.0
 10
1338.009626608064
 20
-1422.42444326206
 30
0.0
 10
1344.536198195465
 20
-1424.453759302203
 30
0.0
 10
1321.919334426982
 20
-1457.977969284646
 30
0.0
 10
1298.723251080239
 20
-1491.093131033882
 30
0.0
 10
1275.58540819384
 20
-1524.302023523964
 30
0.0
 10
1260.784596205109
 20
-1545.54568643839
 30
0.0
 10
1292.860529740065
 20
-1568.620738828466
 30
0.0
 10
1308.276051587605
 20
-1547.765193981833
 30
0.0
 10
1338.333589168733
 20
-1507.102432574777
 30
0.0
 10
1368.209125311281
 20
-1466.389620772125
 30
0.0
 10
1399.269035815349
 20
-1426.519475630061
 30
0.0
 10
1408.011929921031
 20
-1433.198928425867
 30
0.0
 10
1416.89132510566
 20
-1439.710939898181
 30
0.0
 10
1425.507728211516
 20
-1446.394032722757
 30
0.0
 10
1460.92520815876
 20
-1473.865784865277
 30
0.0
 10
1495.625602438007
 20
-1502.151993445459
 30
0.0
 10
1530.351476918657
 20
-1530.490527439233
 30
0.0
 10
1600.613132281624
 20
-1587.827350641583
 30
0.0
 10
1674.192673869864
 20
-1640.925360339483
 30
0.0
 10
1745.677378900076
 20
-1696.727456411032
 30
0.0
 10
1765.586516266103
 20
-1712.269014254782
 30
0.0
 10
1785.495653632132
 20
-1727.810117094941
 30
0.0
 10
1805.404335994575
 20
-1743.351674938684
 30
0.0
 10
1826.410487031644
 20
-1759.749549550965
 30
0.0
 10
1845.797280268955
 20
-1777.211677575327
 30
0.0
 10
1869.359186507239
 20
-1789.98817856349
 30
0.0
 10
1880.837107231122
 20
-1796.212172759228
 30
0.0
 10
1891.010077640456
 20
-1800.397750842934
 30
0.0
 10
1904.427223692413
 20
-1798.192803414579
 30
0.0
 10
1915.816873718613
 20
-1796.321373622373
 30
0.0
 10
1928.617944900958
 20
-1789.026300960591
 30
0.0
 10
1935.026215553282
 20
-1779.197313270211
 30
0.0
 10
1941.679278140522
 20
-1768.992492609152
 30
0.0
 10
1945.79160064516
 20
-1756.408003138675
 30
0.0
 10
1943.230840404371
 20
-1744.129276085036
 30
0.0
  0
HATCH
  5
42
330
1F
100
AcDbEntity
  8
Layer 1
 62
     7
420
 16777215
100
AcDbHatch
 10
0.0
 20
0.0
 30
0.0
210
0.0
220
0.0
230
1.0
  2
SOLID
 70
     1
 71
     0
 91
        1
 92
        1
 93
        1
 72
     4
 94
        3
 73
     0
 74
     1
 95
      269
 96
      265
 40
0.0
 40
0.0
 40
0.0
 40
0.0
 40
1.0
 40
1.0
 40
1.0
 40
2.0
 40
2.0
 40
2.0
 40
3.0
 40
3.0
 40
3.0
 40
4.0
 40
4.0
 40
4.0
 40
5.0
 40
5.0
 40
5.0
 40
6.0
 40
6.0
 40
6.0
 40
7.0
 40
7.0
 40
7.0
 40
8.0
 40
8.0
 40
8.0
 40
9.0
 40
9.0
 40
9.0
 40
10.0
 40
10.0
 40
10.0
 40
11.0
 40
11.0
 40
11.0
 40
12.0
 40
12.0
 40
12.0
 40
13.0
 40
13.0
 40
13.0
 40
14.0
 40
14.0
 40
14.0
 40
15.0
 40
15.0
 40
15.0
 40
16.0
 40
16.0
 40
16.0
 40
17.0
 40
17.0
 40
17.0
 40
18.0
 40
18.0
 40
18.0
 40
19.0
 40
19.0
 40
19.0
 40
20.0
 40
20.0
 40
20.0
 40
21.0
 40
21.0
 40
21.0
 40
22.0
 40
22.0
 40
22.0
 40
23.0
 40
23.0
 40
23.0
 40
24.0
 40
24.0
 40
24.0
 40
25.0
 40
25.0
 40
25.0
 40
26.0
 40
26.0
 40
26.0
 40
27.0
 40
27.0
 40
27.0
 40
28.0
 40
28.0
 40
28.0
 40
29.0
 40
29.0
 40
29.0
 40
30.0
 40
30.0
 40
30.0
 40
31.0
 40
31.0
 40
31.0
 40
32.0
 40
32.0
 40
32.0
 40
33.0
 40
33.0
 40
33.0
 40
34.0
 40
34.0
 40
34.0
 40
35.0
 40
35.0
 40
35.0
 40
36.0
 40
36.0
 40
36.0
 40
37.0
 40
37.0
 40
37.0
 40
38.0
 40
38.0
 40
38.0
 40
39.0
 40
39.0
 40
39.0
 40
40.0
 40
40.0
 40
40.0
 40
41.0
 40
41.0
 40
41.0
 40
42.0
 40
42.0
 40
42.0
 40
43.0
 40
43.0
 40
43.0
 40
44.0
 40
44.0
 40
44.0
 40
45.0
 40
45.0
 40
45.0
 40
46.0
 40
46.0
 40
46.0
 40
47.0
 40
47.0
 40
47.0
 40
48.0
 40
48.0
 40
48.0
 40
49.0
 40
49.0
 40
49.0
 40
50.0
 40
50.0
 40
50.0
 40
51.0
 40
51.0
 40
51.0
 40
52.0
 40
52.0
 40
52.0
 40
53.0
 40
53.0
 40
53.0
 40
54.0
 40
54.0
 40
54.0
 40
55.0
 40
55.0
 40
55.0
 40
56.0
 40
56.0
 40
56.0
 40
57.0
 40
57.0
 40
57.0
 40
58.0
 40
58.0
 40
58.0
 40
59.0
 40
59.0
 40
59.0
 40
60.0
 40
60.0
 40
60.0
 40
61.0
 40
61.0
 40
61.0
 40
62.0
 40
62.0
 40
62.0
 40
63.0
 40
63.0
 40
63.0
 40
64.0
 40
64.0
 40
64.0
 40
65.0
 40
65.0
 40
65.0
 40
66.0
 40
66.0
 40
66.0
 40
67.0
 40
67.0
 40
67.0
 40
68.0
 40
68.0
 40
68.0
 40
69.0
 40
69.0
 40
69.0
 40
70.0
 40
70.0
 40
70.0
 40
71.0
 40
71.0
 40
71.0
 40
72.0
 40
72.0
 40
72.0
 40
73.0
 40
73.0
 40
73.0
 40
74.0
 40
74.0
 40
74.0
 40
75.0
 40
75.0
 40
75.0
 40
76.0
 40
76.0
 40
76.0
 40
77.0
 40
77.0
 40
77.0
 40
78.0
 40
78.0
 40
78.0
 40
79.0
 40
79.0
 40
79.0
 40
80.0
 40
80.0
 40
80.0
 40
81.0
 40
81.0
 40
81.0
 40
82.0
 40
82.0
 40
82.0
 40
83.0
 40
83.0
 40
83.0
 40
84.0
 40
84.0
 40
84.0
 40
85.0
 40
85.0
 40
85.0
 40
86.0
 40
86.0
 40
86.0
 40
87.0
 40
87.0
 40
87.0
 40
88.0
 40
88.0
 40
88.0
 40
88.0
 10
1943.230840404371
 20
-1744.129276085036
 10
1940.508553886842
 20
-1731.074767899438
 10
1933.928746878659
 20
-1722.527525340234
 10
1924.235805263601
 20
-1713.530284224125
 10
1907.110379900634
 20
-1697.634733582323
 10
1887.870097821366
 20
-1685.968441369485
 10
1868.239877659986
 20
-1673.510897902455
 10
1848.860364480219
 20
-1661.212150690546
 10
1829.854409253119
 20
-1648.286863526333
 10
1810.683742724135
 20
-1635.665518764585
 10
1773.287907139551
 20
-1611.043909150152
 10
1736.054962842467
 20
-1586.236203064822
 10
1699.058620415586
 20
-1561.01853873907
 10
1661.104950421734
 20
-1535.149309263201
 10
1623.404717431142
 20
-1508.977502395712
 10
1584.501909935132
 20
-1484.55381934578
 10
1546.550969962886
 20
-1460.728466025148
 10
1508.380263253541
 20
-1437.23799535149
 10
1471.029018021436
 20
-1412.480794665375
 10
1457.80024345838
 20
-1403.711965354694
 10
1444.69431986639
 20
-1394.666493857378
 10
1431.455535224241
 20
-1385.851254179846
 10
1444.112370266539
 20
-1369.952518512895
 10
1456.768295301643
 20
-1354.054692853122
 10
1469.424675340346
 20
-1338.155957186143
 10
1478.698558643106
 20
-1326.506955109984
 10
1487.972441945811
 20
-1314.857498030207
 10
1497.245870244948
 20
-1303.208040950431
 10
1501.522449047929
 20
-1297.836268490819
 10
1505.93916895863
 20
-1292.55094671452
 10
1510.086071736612
 20
-1287.079073463665
 10
1510.911903264159
 20
-1285.988884846582
 10
1511.372366903761
 20
-1285.337774700056
 10
1511.611698795517
 20
-1284.962851736585
 10
1511.902901097243
 20
-1284.743084999531
 10
1512.406135074883
 20
-1284.314471611666
 10
1513.267001879356
 20
-1283.517305310696
 10
1516.514817550804
 20
-1280.512916563359
 10
1519.662077427398
 20
-1277.390226880987
 10
1522.856657678021
 20
-1274.329417687699
 10
1539.679050645769
 20
-1258.211825290837
 10
1541.439004556816
 20
-1231.100891000282
 10
1521.213184687664
 20
-1216.584001255727
 10
1501.12659591905
 20
-1202.166757298764
 10
1475.872986309158
 20
-1212.394328139664
 10
1465.9784781009
 20
-1233.505130003898
 10
1464.334095103324
 20
-1237.013207732496
 10
1462.690622112965
 20
-1240.520375453892
 10
1461.046694119024
 20
-1244.027543175285
 10
1460.574400385902
 20
-1245.034921137802
 10
1460.102561656389
 20
-1246.042299100343
 10
1459.63072292689
 20
-1247.048767055679
 10
1459.347710689888
 20
-1247.472830407565
 10
1458.803071384944
 20
-1248.345072301941
 10
1457.985884925729
 20
-1249.684147886284
 10
1454.092874154549
 20
-1255.335292554126
 10
1450.532926015967
 20
-1261.242149243157
 10
1446.813271615032
 20
-1267.010684838893
 10
1438.744237835699
 20
-1279.524193748297
 10
1430.674749052741
 20
-1292.03861266491
 10
1422.605715273421
 20
-1304.552121574341
 10
1419.619981673524
 20
-1309.182693175349
 10
1416.634248073682
 20
-1313.81326477636
 10
1413.648514473785
 20
-1318.44338137378
 10
1410.689171082511
 20
-1315.047234529917
 10
1407.357179745748
 20
-1311.844919218154
 10
1403.647990427531
 20
-1308.88921585565
 10
1377.03437506792
 20
-1287.677858196585
 10
1275.569028064368
 20
-1224.975177581337
 10
1145.003471046608
 20
-1145.508344458725
 10
1389.177511049833
 20
-992.982038858584
 10
1649.468233442665
 20
-832.8826533992187
 10
1656.95531762216
 20
-827.9859046942693
 10
1717.694657718735
 20
-788.2609056994706
 10
1777.639561535947
 20
-746.780502829617
 10
1828.633634603846
 20
-694.7294564071562
 10
1852.052669712873
 20
-670.8249324607559
 10
1874.636318218776
 20
-643.4528261058313
 10
1890.414477932683
 20
-613.8248119197478
 10
1898.120873845692
 20
-599.353877538425
 10
1905.278990424958
 20
-584.1708625286738
 10
1909.975082543848
 20
-568.460498350636
 10
1914.52011346872
 20
-553.2556431682551
 10
1917.999070967162
 20
-537.9374920903392
 10
1920.954774329664
 20
-522.371364052362
 10
1925.386964362619
 20
-508.16569676778
 10
1901.653521768487
 20
-404.8484851267185
 10
1901.653521768487
 20
-404.8484851267185
 10
1901.653521768487
 20
-404.8484851267185
 10
1827.628986662896
 20
-538.3360752408253
 10
1698.208673697429
 20
-646.5982659680385
 10
1614.513492153032
 20
-716.6110343637783
 10
1292.847789639363
 20
-911.6710761595568
 10
1026.253447421335
 20
-1073.394369454627
 10
759.6591052033327
 20
-911.6710761595568
 10
437.9934026896644
 20
-716.6110343637783
 10
354.2982211452672
 20
-646.5982659680385
 10
224.8779081797993
 20
-538.3360752408253
 10
150.8533730742083
 20
-404.8484851267185
 10
150.8533730742083
 20
-404.8484851267185
 10
150.8533730742083
 20
-404.8484851267185
 10
127.1194754764947
 20
-508.16569676778
 10
131.551665509448
 20
-522.371364052362
 10
134.5078238755341
 20
-537.9374920903392
 10
137.9867813739766
 20
-553.2556431682551
 10
142.5313572952646
 20
-568.460498350636
 10
147.2274494141557
 20
-584.1708625286738
 10
154.3860209970044
 20
-599.353877538425
 10
162.0919619063889
 20
-613.8248119197478
 10
177.87057662392
 20
-643.4528261058313
 10
200.4542251298217
 20
-670.8249324607559
 10
223.8728052352262
 20
-694.7294564071562
 10
274.8673333067491
 20
-746.780502829617
 10
334.8122371239606
 20
-788.2609056994706
 10
395.5515772205363
 20
-827.9859046942693
 10
403.038206396408
 20
-832.8826533992187
 10
663.3289287892803
 20
-992.982038858584
 10
907.5034237960872
 20
-1145.508344458725
 10
776.9374117747448
 20
-1224.975177581337
 10
675.4725197747757
 20
-1287.677858196585
 10
648.8584494115412
 20
-1308.88921585565
 10
645.1492600933252
 20
-1311.844919218154
 10
641.8177237601849
 20
-1315.047234529917
 10
638.8583803689098
 20
-1318.44338137378
 10
635.872646769014
 20
-1313.81326477636
 10
632.8869131691717
 20
-1309.182693175349
 10
629.901179569275
 20
-1304.552121574341
 10
621.8316907863309
 20
-1292.03861266491
 10
613.7622020034141
 20
-1279.524193748297
 10
605.6931682240393
 20
-1267.010684838893
 10
601.9739688267291
 20
-1261.242149243157
 10
598.4140206881466
 20
-1255.335292554126
 10
594.5210099169672
 20
-1249.684147886284
 10
593.7038234577522
 20
-1248.345072301941
 10
593.1587291491851
 20
-1247.472830407565
 10
592.8757169122237
 20
-1247.048767055679
 10
592.4043331863068
 20
-1246.042299100343
 10
591.9320394531705
 20
-1245.034921137802
 10
591.459745720088
 20
-1244.027543175285
 10
589.8162727297304
 20
-1240.520375453892
 10
588.172344735749
 20
-1237.013207732496
 10
586.5284167417949
 20
-1233.505130003898
 10
576.6339085335385
 20
-1212.394328139664
 10
551.3802989236465
 20
-1202.166757298764
 10
531.2937101550324
 20
-1216.584001255727
 10
511.067890285879
 20
-1231.100891000282
 10
512.8278441969269
 20
-1258.211825290837
 10
529.649782161051
 20
-1274.329417687699
 10
532.8443624117153
 20
-1277.390226880987
 10
535.9920772918913
 20
-1280.512916563359
 10
539.23989296334
 20
-1283.517305310696
 10
540.1007597678126
 20
-1284.314471611666
 10
540.6039937454534
 20
-1284.743084999531
 10
540.8951960471777
 20
-1284.962851736585
 10
541.1345279389352
 20
-1285.337774700056
 10
541.5949915785368
 20
-1285.988884846582
 10
542.4203681024601
 20
-1287.079073463665
 10
546.5672708804832
 20
-1292.55094671452
 10
550.9844457947665
 20
-1297.836268490819
 10
555.2605695941256
 20
-1303.208040950431
 10
564.5344528968853
 20
-1314.857498030207
 10
573.8083361995914
 20
-1326.506955109984
 10
583.0822195023511
 20
-1338.155957186143
 10
595.7381445374294
 20
-1354.054692853122
 10
608.3940695725341
 20
-1369.952518512895
 10
621.0509046148327
 20
-1385.851254179846
 10
607.8125749763058
 20
-1394.666493857378
 10
594.7061963806927
 20
-1403.711965354694
 10
581.47787682126
 20
-1412.480794665375
 10
544.1266315891544
 20
-1437.23799535149
 10
505.9554698762277
 20
-1460.728466025148
 10
468.0045299039812
 20
-1484.55381934578
 10
429.1017224079715
 20
-1508.977502395712
 10
391.4019444209625
 20
-1535.149309263201
 10
353.448274427109
 20
-1561.01853873907
 10
316.4514769966063
 20
-1586.236203064822
 10
279.2185326995623
 20
-1611.043909150152
 10
241.8226971149779
 20
-1635.665518764585
 10
222.6520305859931
 20
-1648.286863526333
 10
203.6460753588935
 20
-1661.212150690546
 10
184.2665621791275
 20
-1673.510897902455
 10
164.6363420177067
 20
-1685.968441369485
 10
145.39605993848
 20
-1697.634733582323
 10
128.2706345754723
 20
-1713.530284224125
 10
118.5781479640382
 20
-1722.527525340234
 10
111.9978859522298
 20
-1731.074767899438
 10
109.2760544383254
 20
-1744.129276085036
 10
106.7152941975355
 20
-1756.408003138675
 10
110.8276167021741
 20
-1768.992492609152
 10
117.4806792894133
 20
-1779.197313270211
 10
123.8889499417382
 20
-1789.026300960591
 10
136.6900211240827
 20
-1796.321373622373
 10
148.0796711502826
 20
-1798.192803414579
 10
161.4963621986562
 20
-1800.397750842934
 10
171.6697876115741
 20
-1796.212172759228
 10
183.1477083354566
 20
-1789.98817856349
 10
206.7091595701586
 20
-1777.211677575327
 10
226.096407811051
 20
-1759.749549550965
 10
247.1021038445369
 20
-1743.351674938684
 10
267.0112412105645
 20
-1727.810117094941
 10
286.9203785765931
 20
-1712.269014254782
 10
306.8295159426207
 20
-1696.727456411032
 10
378.3142209728312
 20
-1640.925360339483
 10
451.8937625610724
 20
-1587.827350641583
 10
522.1554179240402
 20
-1530.490527439233
 10
556.8812924046879
 20
-1502.151993445459
 10
591.5812316803112
 20
-1473.865784865277
 10
626.9987116275552
 20
-1446.394032722757
 10
635.6151147334531
 20
-1439.710939898181
 10
644.4949649216651
 20
-1433.198928425867
 10
653.2374040237237
 20
-1426.519475630061
 10
684.2977695314148
 20
-1466.389620772125
 10
714.1733056739631
 20
-1507.102432574777
 10
744.230388251508
 20
-1547.765193981833
 10
759.6463651026315
 20
-1568.620738828466
 10
791.7222986375873
 20
-1545.54568643839
 10
776.9210316452727
 20
-1524.302023523964
 10
753.7831887588745
 20
-1491.093131033882
 10
730.5871054121317
 20
-1457.977969284646
 10
707.9706966472313
 20
-1424.453759302203
 10
714.4968132310496
 20
-1422.42444326206
 10
720.5642861896504
 20
-1419.448719741313
 10
725.370034175271
 20
-1415.489278445066
 10
750.1267798578465
 20
-1395.092377223649
 10
875.2918991893648
 20
-1314.84703294748
 10
1026.253447421335
 20
-1219.915992592498
 10
1177.21499565333
 20
-1314.84703294748
 10
1302.38011498485
 20
-1395.092377223649
 10
1327.136860667424
 20
-1415.489278445066
 10
1331.942608653046
 20
-1419.448719741313
 10
1338.009626608064
 20
-1422.42444326206
 10
1344.536198195465
 20
-1424.453759302203
 10
1321.919334426982
 20
-1457.977969284646
 10
1298.723251080239
 20
-1491.093131033882
 10
1275.58540819384
 20
-1524.302023523964
 10
1260.784596205109
 20
-1545.54568643839
 10
1292.860529740065
 20
-1568.620738828466
 10
1308.276051587605
 20
-1547.765193981833
 10
1338.333589168733
 20
-1507.102432574777
 10
1368.209125311281
 20
-1466.389620772125
 10
1399.269035815349
 20
-1426.519475630061
 10
1408.011929921031
 20
-1433.198928425867
 10
1416.89132510566
 20
-1439.710939898181
 10
1425.507728211516
 20
-1446.394032722757
 10
1460.92520815876
 20
-1473.865784865277
 10
1495.625602438007
 20
-1502.151993445459
 10
1530.351476918657
 20
-1530.490527439233
 10
1600.613132281624
 20
-1587.827350641583
 10
1674.192673869864
 20
-1640.925360339483
 10
1745.677378900076
 20
-1696.727456411032
 10
1765.586516266103
 20
-1712.269014254782
 10
1785.495653632132
 20
-1727.810117094941
 10
1805.404335994575
 20
-1743.351674938684
 10
1826.410487031644
 20
-1759.749549550965
 10
1845.797280268955
 20
-1777.211677575327
 10
1869.359186507239
 20
-1789.98817856349
 10
1880.837107231122
 20
-1796.212172759228
 10
1891.010077640456
 20
-1800.397750842934
 10
1904.427223692413
 20
-1798.192803414579
 10
1915.816873718613
 20
-1796.321373622373
 10
1928.617944900958
 20
-1789.026300960591
 10
1935.026215553282
 20
-1779.197313270211
 10
1941.679278140522
 20
-1768.992492609152
 10
1945.79160064516
 20
-1756.408003138675
 10
1943.230840404371
 20
-1744.129276085036
 97
        0
 97
        0
 75
     2
 76
     1
 98
        0
  0
ENDSEC
  0
SECTION
  2
OBJECTS
  0
DICTIONARY
  5
C
330
0
100
AcDbDictionary
281
     1
  3
ACAD_GROUP
350
D
  3
ACAD_LAYOUT
350
1A
  3
ACAD_MATERIAL
350
3B
  3
ACAD_MLEADERSTYLE
350
44
  3
ACAD_MLINESTYLE
350
17
  3
ACAD_PLOTSETTINGS
350
19
  3
ACAD_PLOTSTYLENAME
350
E
  3
ACAD_TABLESTYLE
350
43
  3
ACAD_VISUALSTYLE
350
2A
  0
SUN
  5
3F
330
29
100
AcDbSun
 90
        1
290
     0
 63
     7
421
 16777215
 40
1.0
291
     1
 91
  2455826
 92
 54000000
292
     0
 70
     2
 71
   256
280
     1
  0
DICTIONARY
  5
D
102
{ACAD_REACTORS
330
C
102
}
330
C
100
AcDbDictionary
281
     1
  0
DICTIONARY
  5
1A
102
{ACAD_REACTORS
330
C
102
}
330
C
100
AcDbDictionary
281
     1
  3
Layout1
350
1E
  3
Layout2
350
26
  3
Model
350
22
  0
DICTIONARY
  5
3B
102
{ACAD_REACTORS
330
C
102
}
330
C
100
AcDbDictionary
281
     1
  3
ByBlock
350
3D
  3
ByLayer
350
3C
  3
Global
350
3E
  0
DICTIONARY
  5
44
102
{ACAD_REACTORS
330
C
102
}
330
C
100
AcDbDictionary
281
     1
  0
DICTIONARY
  5
17
102
{ACAD_REACTORS
330
C
102
}
330
C
100
AcDbDictionary
281
     1
  3
Standard
350
18
  0
DICTIONARY
  5
19
102
{ACAD_REACTORS
330
C
102
}
330
C
100
AcDbDictionary
281
     1
  0
ACDBDICTIONARYWDFLT
  5
E
102
{ACAD_REACTORS
330
C
102
}
330
C
100
AcDbDictionary
281
     1
  3
Normal
350
F
100
AcDbDictionaryWithDefault
340
F
  0
DICTIONARY
  5
43
102
{ACAD_REACTORS
330
C
102
}
330
C
100
AcDbDictionary
281
     1
  0
DICTIONARY
  5
2A
102
{ACAD_REACTORS
330
C
102
}
330
C
100
AcDbDictionary
281
     1
  3
2dWireframe
350
2F
  3
3D Hidden
350
31
  3
3dWireframe
350
30
  3
Basic
350
32
  3
Brighten
350
36
  3
ColorChange
350
3A
  3
Conceptual
350
34
  3
Dim
350
35
  3
Facepattern
350
39
  3
Flat
350
2B
  3
FlatWithEdges
350
2C
  3
Gouraud
350
2D
  3
GouraudWithEdges
350
2E
  3
Linepattern
350
38
  3
Realistic
350
33
  3
Thicken
350
37
  0
LAYOUT
  5
1E
102
{ACAD_REACTORS
330
1A
102
}
330
1A
100
AcDbPlotSettings
  1

  2
none_device
  4

  6

 40
0.0
 41
0.0
 42
0.0
 43
0.0
 44
0.0
 45
0.0
 46
0.0
 47
0.0
 48
0.0
 49
0.0
140
0.0
141
0.0
142
1.0
143
1.0
 70
   688
 72
     0
 73
     0
 74
     5
  7

 75
    16
 76
     0
 77
     2
 78
   300
147
1.0
148
0.0
149
0.0
100
AcDbLayout
  1
Layout1
 70
     1
 71
     1
 10
0.0
 20
0.0
 11
12.0
 21
9.0
 12
0.0
 22
0.0
 32
0.0
 14
1.000000000000000E+20
 24
1.000000000000000E+20
 34
1.000000000000000E+20
 15
-1.000000000000000E+20
 25
-1.000000000000000E+20
 35
-1.000000000000000E+20
146
0.0
 13
0.0
 23
0.0
 33
0.0
 16
1.0
 26
0.0
 36
0.0
 17
0.0
 27
1.0
 37
0.0
 76
     0
330
1B
  0
LAYOUT
  5
26
102
{ACAD_REACTORS
330
1A
102
}
330
1A
100
AcDbPlotSettings
  1

  2
none_device
  4

  6

 40
0.0
 41
0.0
 42
0.0
 43
0.0
 44
0.0
 45
0.0
 46
0.0
 47
0.0
 48
0.0
 49
0.0
140
0.0
141
0.0
142
1.0
143
1.0
 70
   688
 72
     0
 73
     0
 74
     5
  7

 75
    16
 76
     0
 77
     2
 78
   300
147
1.0
148
0.0
149
0.0
100
AcDbLayout
  1
Layout2
 70
     1
 71
     2
 10
0.0
 20
0.0
 11
0.0
 21
0.0
 12
0.0
 22
0.0
 32
0.0
 14
0.0
 24
0.0
 34
0.0
 15
0.0
 25
0.0
 35
0.0
146
0.0
 13
0.0
 23
0.0
 33
0.0
 16
1.0
 26
0.0
 36
0.0
 17
0.0
 27
1.0
 37
0.0
 76
     0
330
23
  0
LAYOUT
  5
22
102
{ACAD_REACTORS
330
1A
102
}
330
1A
100
AcDbPlotSettings
  1

  2
none_device
  4

  6

 40
0.0
 41
0.0
 42
0.0
 43
0.0
 44
0.0
 45
0.0
 46
0.0
 47
0.0
 48
0.0
 49
0.0
140
0.0
141
0.0
142
1.0
143
1.0
 70
  1712
 72
     0
 73
     0
 74
     0
  7

 75
     0
 76
     0
 77
     2
 78
   300
147
1.0
148
0.0
149
0.0
100
AcDbLayout
  1
Model
 70
     1
 71
     0
 10
0.0
 20
0.0
 11
12.0
 21
9.0
 12
0.0
 22
0.0
 32
0.0
 14
1.000000000000000E+20
 24
1.000000000000000E+20
 34
1.000000000000000E+20
 15
-1.000000000000000E+20
 25
-1.000000000000000E+20
 35
-1.000000000000000E+20
146
0.0
 13
0.0
 23
0.0
 33
0.0
 16
1.0
 26
0.0
 36
0.0
 17
0.0
 27
1.0
 37
0.0
 76
     0
330
1F
331
29
  0
MATERIAL
  5
3D
102
{ACAD_REACTORS
330
3B
102
}
330
3B
100
AcDbMaterial
  1
ByBlock
 72
     1
 94
      127
  0
MATERIAL
  5
3C
102
{ACAD_REACTORS
330
3B
102
}
330
3B
100
AcDbMaterial
  1
ByLayer
 72
     1
 94
      127
  0
MATERIAL
  5
3E
102
{ACAD_REACTORS
330
3B
102
}
330
3B
100
AcDbMaterial
  1
Global
 72
     1
 94
      127
  0
MLINESTYLE
  5
18
102
{ACAD_REACTORS
330
17
102
}
330
17
100
AcDbMlineStyle
  2
Standard
 70
     0
  3

 62
   256
 51
90.0
 52
90.0
 71
     2
 49
0.5
 62
   256
  6
BYLAYER
 49
-0.5
 62
   256
  6
BYLAYER
  0
ACDBPLACEHOLDER
  5
F
102
{ACAD_REACTORS
330
E
102
}
330
E
  0
VISUALSTYLE
  5
2F
102
{ACAD_REACTORS
330
2A
102
}
330
2A
100
AcDbVisualStyle
  2
2dWireframe
 70
     4
177
     2
291
     0
 71
     0
176
     1
 72
     2
176
     1
 73
     0
176
     1
 90
        0
176
     1
 40
-0.6
176
     1
 41
-30.0
176
     1
 62
     5
 63
     7
421
 16777215
176
     1
 74
     1
176
     1
 91
        4
176
     1
 64
     7
176
     1
 65
   257
176
     1
 75
     1
176
     1
175
     1
176
     1
 42
1.0
176
     1
 92
        0
176
     1
 66
   257
176
     1
 43
1.0
176
     1
 76
     1
176
     1
 77
     6
176
     1
 78
     2
176
     1
 67
     7
176
     1
 79
     5
176
     1
170
     0
176
     1
171
     0
176
     1
290
     0
176
     1
 93
        1
176
     1
 44
0.0
176
     1
173
     0
176
     1
  0
VISUALSTYLE
  5
31
102
{ACAD_REACTORS
330
2A
102
}
330
2A
100
AcDbVisualStyle
  2
3D Hidden
 70
     6
177
     2
291
     0
 71
     1
176
     1
 72
     2
176
     1
 73
     2
176
     1
 90
        0
176
     1
 40
-0.6
176
     1
 41
-30.0
176
     1
 62
     5
 63
     7
421
 16777215
176
     1
 74
     2
176
     1
 91
        2
176
     1
 64
     7
176
     1
 65
   257
176
     1
 75
     2
176
     1
175
     1
176
     1
 42
40.0
176
     1
 92
        0
176
     1
 66
   257
176
     1
 43
1.0
176
     1
 76
     1
176
     1
 77
     6
176
     1
 78
     2
176
     1
 67
     7
176
     1
 79
     3
176
     1
170
     0
176
     1
171
     0
176
     1
290
     0
176
     1
 93
        1
176
     1
 44
0.0
176
     1
173
     0
176
     1
  0
VISUALSTYLE
  5
30
102
{ACAD_REACTORS
330
2A
102
}
330
2A
100
AcDbVisualStyle
  2
3dWireframe
 70
     5
177
     2
291
     0
 71
     0
176
     1
 72
     2
176
     1
 73
     0
176
     1
 90
        0
176
     1
 40
-0.6
176
     1
 41
-30.0
176
     1
 62
     5
 63
     7
421
 16777215
176
     1
 74
     1
176
     1
 91
        4
176
     1
 64
     7
176
     1
 65
   257
176
     1
 75
     1
176
     1
175
     1
176
     1
 42
1.0
176
     1
 92
        0
176
     1
 66
   257
176
     1
 43
1.0
176
     1
 76
     1
176
     1
 77
     6
176
     1
 78
     2
176
     1
 67
     7
176
     1
 79
     5
176
     1
170
     0
176
     1
171
     0
176
     1
290
     0
176
     1
 93
        1
176
     1
 44
0.0
176
     1
173
     0
176
     1
  0
VISUALSTYLE
  5
32
102
{ACAD_REACTORS
330
2A
102
}
330
2A
100
AcDbVisualStyle
  2
Basic
 70
     7
177
     2
291
     1
 71
     1
176
     1
 72
     0
176
     1
 73
     1
176
     1
 90
        0
176
     1
 40
-0.6
176
     1
 41
-30.0
176
     1
 62
     5
 63
     7
421
 16777215
176
     1
 74
     0
176
     1
 91
        4
176
     1
 64
     7
176
     1
 65
   257
176
     1
 75
     1
176
     1
175
     1
176
     1
 42
1.0
176
     1
 92
        8
176
     1
 66
     7
176
     1
 43
1.0
176
     1
 76
     1
176
     1
 77
     6
176
     1
 78
     2
176
     1
 67
     7
176
     1
 79
     5
176
     1
170
     0
176
     1
171
     0
176
     1
290
     0
176
     1
 93
        1
176
     1
 44
0.0
176
     1
173
     0
176
     1
  0
VISUALSTYLE
  5
36
102
{ACAD_REACTORS
330
2A
102
}
330
2A
100
AcDbVisualStyle
  2
Brighten
 70
    12
177
     2
291
     1
 71
     2
176
     1
 72
     2
176
     1
 73
     0
176
     1
 90
        0
176
     1
 40
-0.6
176
     1
 41
-30.0
176
     1
 62
     5
 63
     7
421
 16777215
176
     1
 74
     1
176
     1
 91
        4
176
     1
 64
     7
176
     1
 65
   257
176
     1
 75
     1
176
     1
175
     1
176
     1
 42
1.0
176
     1
 92
        8
176
     1
 66
     7
176
     1
 43
1.0
176
     1
 76
     1
176
     1
 77
     6
176
     1
 78
     2
176
     1
 67
     7
176
     1
 79
     5
176
     1
170
     0
176
     1
171
     0
176
     1
290
     0
176
     1
 93
        1
176
     1
 44
50.0
176
     1
173
     0
176
     1
  0
VISUALSTYLE
  5
3A
102
{ACAD_REACTORS
330
2A
102
}
330
2A
100
AcDbVisualStyle
  2
ColorChange
 70
    16
177
     2
291
     1
 71
     2
176
     1
 72
     2
176
     1
 73
     3
176
     1
 90
        0
176
     1
 40
-0.6
176
     1
 41
-30.0
176
     1
 62
     5
 63
     8
421
  8421504
176
     1
 74
     1
176
     1
 91
        4
176
     1
 64
     7
176
     1
 65
   257
176
     1
 75
     1
176
     1
175
     1
176
     1
 42
1.0
176
     1
 92
        8
176
     1
 66
     8
424
  8421504
176
     1
 43
1.0
176
     1
 76
     1
176
     1
 77
     6
176
     1
 78
     2
176
     1
 67
     7
176
     1
 79
     5
176
     1
170
     0
176
     1
171
     0
176
     1
290
     0
176
     1
 93
        1
176
     1
 44
0.0
176
     1
173
     0
176
     1
  0
VISUALSTYLE
  5
34
102
{ACAD_REACTORS
330
2A
102
}
330
2A
100
AcDbVisualStyle
  2
Conceptual
 70
     9
177
     2
291
     0
 71
     3
176
     1
 72
     2
176
     1
 73
     0
176
     1
 90
        0
176
     1
 40
-0.6
176
     1
 41
-30.0
176
     1
 62
     5
 63
     7
421
 16777215
176
     1
 74
     2
176
     1
 91
        2
176
     1
 64
     7
176
     1
 65
   257
176
     1
 75
     1
176
     1
175
     1
176
     1
 42
40.0
176
     1
 92
        8
176
     1
 66
     7
176
     1
 43
1.0
176
     1
 76
     1
176
     1
 77
     6
176
     1
 78
     2
176
     1
 67
     7
176
     1
 79
     3
176
     1
170
     0
176
     1
171
     0
176
     1
290
     0
176
     1
 93
        1
176
     1
 44
0.0
176
     1
173
     0
176
     1
  0
VISUALSTYLE
  5
35
102
{ACAD_REACTORS
330
2A
102
}
330
2A
100
AcDbVisualStyle
  2
Dim
 70
    11
177
     2
291
     1
 71
     2
176
     1
 72
     2
176
     1
 73
     0
176
     1
 90
        0
176
     1
 40
-0.6
176
     1
 41
-30.0
176
     1
 62
     5
 63
     7
421
 16777215
176
     1
 74
     1
176
     1
 91
        4
176
     1
 64
     7
176
     1
 65
   257
176
     1
 75
     1
176
     1
175
     1
176
     1
 42
1.0
176
     1
 92
        8
176
     1
 66
     7
176
     1
 43
1.0
176
     1
 76
     1
176
     1
 77
     6
176
     1
 78
     2
176
     1
 67
     7
176
     1
 79
     5
176
     1
170
     0
176
     1
171
     0
176
     1
290
     0
176
     1
 93
        1
176
     1
 44
-50.0
176
     1
173
     0
176
     1
  0
VISUALSTYLE
  5
39
102
{ACAD_REACTORS
330
2A
102
}
330
2A
100
AcDbVisualStyle
  2
Facepattern
 70
    15
177
     2
291
     1
 71
     2
176
     1
 72
     2
176
     1
 73
     0
176
     1
 90
        0
176
     1
 40
-0.6
176
     1
 41
-30.0
176
     1
 62
     5
 63
     7
421
 16777215
176
     1
 74
     1
176
     1
 91
        4
176
     1
 64
     7
176
     1
 65
   257
176
     1
 75
     1
176
     1
175
     1
176
     1
 42
1.0
176
     1
 92
        8
176
     1
 66
     7
176
     1
 43
1.0
176
     1
 76
     1
176
     1
 77
     6
176
     1
 78
     2
176
     1
 67
     7
176
     1
 79
     5
176
     1
170
     0
176
     1
171
     0
176
     1
290
     0
176
     1
 93
        1
176
     1
 44
0.0
176
     1
173
     0
176
     1
  0
VISUALSTYLE
  5
2B
102
{ACAD_REACTORS
330
2A
102
}
330
2A
100
AcDbVisualStyle
  2
Flat
 70
     0
177
     2
291
     1
 71
     2
176
     1
 72
     1
176
     1
 73
     1
176
     1
 90
        2
176
     1
 40
-0.6
176
     1
 41
30.0
176
     1
 62
     5
 63
     7
421
 16777215
176
     1
 74
     0
176
     1
 91
        4
176
     1
 64
     7
176
     1
 65
   257
176
     1
 75
     1
176
     1
175
     1
176
     1
 42
1.0
176
     1
 92
        8
176
     1
 66
     7
176
     1
 43
1.0
176
     1
 76
     1
176
     1
 77
     6
176
     1
 78
     2
176
     1
 67
     7
176
     1
 79
     5
176
     1
170
     0
176
     1
171
     0
176
     1
290
     0
176
     1
 93
       13
176
     1
 44
0.0
176
     1
173
     0
176
     1
  0
VISUALSTYLE
  5
2C
102
{ACAD_REACTORS
330
2A
102
}
330
2A
100
AcDbVisualStyle
  2
FlatWithEdges
 70
     1
177
     2
291
     1
 71
     2
176
     1
 72
     1
176
     1
 73
     1
176
     1
 90
        2
176
     1
 40
-0.6
176
     1
 41
30.0
176
     1
 62
     5
 63
     7
421
 16777215
176
     1
 74
     1
176
     1
 91
        4
176
     1
 64
     7
176
     1
 65
   257
176
     1
 75
     1
176
     1
175
     1
176
     1
 42
1.0
176
     1
 92
        0
176
     1
 66
   257
176
     1
 43
1.0
176
     1
 76
     1
176
     1
 77
     6
176
     1
 78
     2
176
     1
 67
     7
176
     1
 79
     5
176
     1
170
     0
176
     1
171
     0
176
     1
290
     0
176
     1
 93
       13
176
     1
 44
0.0
176
     1
173
     0
176
     1
  0
VISUALSTYLE
  5
2D
102
{ACAD_REACTORS
330
2A
102
}
330
2A
100
AcDbVisualStyle
  2
Gouraud
 70
     2
177
     2
291
     1
 71
     2
176
     1
 72
     2
176
     1
 73
     1
176
     1
 90
        2
176
     1
 40
-0.6
176
     1
 41
30.0
176
     1
 62
     5
 63
     7
421
 16777215
176
     1
 74
     0
176
     1
 91
        4
176
     1
 64
     7
176
     1
 65
   257
176
     1
 75
     1
176
     1
175
     1
176
     1
 42
1.0
176
     1
 92
        0
176
     1
 66
     7
176
     1
 43
1.0
176
     1
 76
     1
176
     1
 77
     6
176
     1
 78
     2
176
     1
 67
     7
176
     1
 79
     5
176
     1
170
     0
176
     1
171
     0
176
     1
290
     0
176
     1
 93
       13
176
     1
 44
0.0
176
     1
173
     0
176
     1
  0
VISUALSTYLE
  5
2E
102
{ACAD_REACTORS
330
2A
102
}
330
2A
100
AcDbVisualStyle
  2
GouraudWithEdges
 70
     3
177
     2
291
     1
 71
     2
176
     1
 72
     2
176
     1
 73
     1
176
     1
 90
        2
176
     1
 40
-0.6
176
     1
 41
30.0
176
     1
 62
     5
 63
     7
421
 16777215
176
     1
 74
     1
176
     1
 91
        4
176
     1
 64
     7
176
     1
 65
   257
176
     1
 75
     1
176
     1
175
     1
176
     1
 42
1.0
176
     1
 92
        0
176
     1
 66
   257
176
     1
 43
1.0
176
     1
 76
     1
176
     1
 77
     6
176
     1
 78
     2
176
     1
 67
     7
176
     1
 79
     5
176
     1
170
     0
176
     1
171
     0
176
     1
290
     0
176
     1
 93
       13
176
     1
 44
0.0
176
     1
173
     0
176
     1
  0
VISUALSTYLE
  5
38
102
{ACAD_REACTORS
330
2A
102
}
330
2A
100
AcDbVisualStyle
  2
Linepattern
 70
    14
177
     2
291
     1
 71
     2
176
     1
 72
     2
176
     1
 73
     0
176
     1
 90
        0
176
     1
 40
-0.6
176
     1
 41
-30.0
176
     1
 62
     5
 63
     7
421
 16777215
176
     1
 74
     1
176
     1
 91
        4
176
     1
 64
     7
176
     1
 65
   257
176
     1
 75
     7
176
     1
175
     7
176
     1
 42
1.0
176
     1
 92
        8
176
     1
 66
     7
176
     1
 43
1.0
176
     1
 76
     1
176
     1
 77
     6
176
     1
 78
     2
176
     1
 67
     7
176
     1
 79
     5
176
     1
170
     0
176
     1
171
     0
176
     1
290
     0
176
     1
 93
        1
176
     1
 44
0.0
176
     1
173
     0
176
     1
  0
VISUALSTYLE
  5
33
102
{ACAD_REACTORS
330
2A
102
}
330
2A
100
AcDbVisualStyle
  2
Realistic
 70
     8
177
     2
291
     0
 71
     2
176
     1
 72
     2
176
     1
 73
     0
176
     1
 90
        0
176
     1
 40
-0.6
176
     1
 41
-30.0
176
     1
 62
     5
 63
     7
421
 16777215
176
     1
 74
     1
176
     1
 91
        0
176
     1
 64
     7
176
     1
 65
   257
176
     1
 75
     1
176
     1
175
     1
176
     1
 42
1.0
176
     1
 92
        8
176
     1
 66
     8
424
  7895160
176
     1
 43
1.0
176
     1
 76
     1
176
     1
 77
     6
176
     1
 78
     2
176
     1
 67
     7
176
     1
 79
     5
176
     1
170
     0
176
     1
171
     0
176
     1
290
     0
176
     1
 93
       13
176
     1
 44
0.0
176
     1
173
     0
176
     1
  0
VISUALSTYLE
  5
37
102
{ACAD_REACTORS
330
2A
102
}
330
2A
100
AcDbVisualStyle
  2
Thicken
 70
    13
177
     2
291
     1
 71
     2
176
     1
 72
     2
176
     1
 73
     0
176
     1
 90
        0
176
     1
 40
-0.6
176
     1
 41
-30.0
176
     1
 62
     5
 63
     7
421
 16777215
176
     1
 74
     1
176
     1
 91
        4
176
     1
 64
     7
176
     1
 65
   257
176
     1
 75
     1
176
     1
175
     1
176
     1
 42
1.0
176
     1
 92
       12
176
     1
 66
     7
176
     1
 43
1.0
176
     1
 76
     1
176
     1
 77
     6
176
     1
 78
     2
176
     1
 67
     7
176
     1
 79
     5
176
     1
170
     0
176
     1
171
     0
176
     1
290
     0
176
     1
 93
        1
176
     1
 44
0.0
176
     1
173
     0
176
     1
  0
ENDSEC
  0
EOF
