<?xml version="1.0" encoding="utf-8"?>
<!-- Generator: Adobe Illustrator 25.4.1, SVG Export Plug-In . SVG Version: 6.00 Build 0)  -->
<svg version="1.1" id="Layer_1" xmlns="http://www.w3.org/2000/svg" xmlns:xlink="http://www.w3.org/1999/xlink" x="0px" y="0px"
	 viewBox="0 0 714 714" style="enable-background:new 0 0 714 714;" xml:space="preserve">
<style type="text/css">
	.st0{fill:#F2F2F2;}
	.st1{fill:#FFC5DD;}
	.st2{fill:#BDFFFD;}
	.st3{fill:#C0FFFC;}
	.st4{fill:#662D91;}
	.st5{fill:#9E005D;}
	.st6{fill:#1A1A1A;}
	.st7{fill:#0049FF;}
	.st8{fill:#D9E021;}
	.st9{fill:#00FFFF;}
	.st10{fill:#29C8FF;}
	.st11{fill:#ED1E79;}
	.st12{fill:#D4145A;}
	.st13{fill:#FF9100;}
	.st14{fill:#FF5B00;}
	.st15{fill:#A67C52;}
	.st16{fill:#FFD4B0;}
	.st17{fill:#FFE592;}
	.st18{fill:#C69C6D;}
	.st19{fill:#333333;}
	.st20{fill:#FFF1CF;}
	.st21{fill:#FF7BAC;}
	.st22{fill:#42210B;}
	.st23{fill:#C2FCFF;}
	.st24{fill:#EFC4A3;}
	.st25{fill:#E0A77C;}
	.st26{fill:#1297C6;}
	.st27{fill:#29ABE2;}
	.st28{fill:#35D5E5;}
	.st29{fill:#D8BB6A;}
	.st30{fill:#FFFFFF;}
	.st31{fill:#8ED6D6;}
	.st32{fill:#DD9A6C;}
	.st33{fill:#EFB378;}
	.st34{fill:#D89456;}
	.st35{fill:#B7784E;}
	.st36{fill:#006057;}
	.st37{fill:#FBB03B;}
	.st38{fill:#C6B377;}
	.st39{fill:#FFD092;}
	.st40{fill:#FFE0BB;}
	.st41{fill:#00A99D;}
	.st42{fill:#39BCAF;}
	.st43{fill:#D8D8D8;}
	.st44{fill:#709392;}
	.st45{fill:#736357;}
	.st46{fill:#30473A;}
	.st47{fill:#576B6A;}
	.st48{fill:#534741;}
	.st49{fill:#E2E2E2;}
	.st50{fill:#D5D6D4;}
	.st51{fill:#B3B3B3;}
	.st52{fill:#E6E6E6;}
	.st53{fill:#999999;}
</style>
<g>
	<path d="M351.0872803,600.5267334c-27.6813965,24.6057129-38.4462891,56.9003906-26.1435547,59.2072754
		c12.3028564,2.3066406,19.9920654-13.0717773,19.9920654-13.0717773s0,6.9204102,16.1474609,8.458252
		c16.1473389,1.5378418,26.9122314-16.9163818,26.9122314-16.9163818s9.9960938,3.0756836,17.6853027-1.5379639
		c7.689209-4.6135254-2.3067627-13.0715332,19.9920654-23.8365479c22.2987061-10.7650146,45.3664551,0.7689209,45.3664551,0.7689209
		s-21.5299072-16.9162598-43.8286133-23.8366699C422.56604,588.3204346,378.7684326,575.9212646,351.0872803,600.5267334z"/>
	<path d="M272.5828857,622.0308838c-23.7236328,8.2756348-45.0095215,26.1906738-39.2607422,35.2246094
		s22.1740723-3.2850342,22.1740723-3.2850342s-5.7487793,15.6038818,4.9274902,12.3189697
		c10.6765137-3.2851562,19.7103271-18.8890381,19.7103271-18.8890381s-2.4844971,6.5917969-0.8547363,10.081665
		c1.6297607,3.4899902,7.3739014,3.8781738,10.2414551-0.3937988
		c11.9433594-17.7926025,25.9976807-18.5134277,25.9976807-18.5134277S289.520752,616.1223145,272.5828857,622.0308838z"/>
	<path d="M565.9559326,553.5548096c-8.8999023-6.2874756-18.8291016-9.2338867-28.5256348-10.2145996
		c-3.4094238,9.2297363-6.7614746,18.4807129-10.010498,27.7683105c-2.9609375,8.463623-5.8354492,16.9584961-8.5981445,25.489502
		c7.302002,1.7043457,14.651123-1.4904785,14.651123-1.4904785s12.7528076,17.1408691,28.6286621,13.8144531
		c15.8756104-3.326416,15.1049805-10.2037354,15.1049805-10.2037354s9.3538818,14.4266357,21.3233643,10.7642822
		C610.4991455,605.8200684,596.2049561,574.9249268,565.9559326,553.5548096z"/>
	<path d="M541.8873291,515.1658936c8.3493652-6.2619629,21.5693359-6.9577637,21.5693359-6.9577637
		s-2.0874023-6.262085-4.8704834-11.1325684c-2.7830811-4.8706055-6.9578857-6.9577637-6.9578857-6.9577637
		s4.8703613-10.4367676,5.5662842-15.307373s-3.4790039-11.1326904-5.5662842-13.2199707s0.6958008-9.0452881,2.7832031-15.307373
		c2.0871582-6.2619629,25.0480957-38.2681885,24.3525391-41.7473145
		c-0.3428955-1.7141113-12.1757812-10.5244141-25.1728516-18.8546143c10.0926514-28.1990967,21.8342285-73.5976562,4.125-97.8314209
		c-26.9019775-36.8134766-77.5065918-104.0527344-80.3383789-108.300415l-24.5285645-29.635376
		c13.6470947,20.8835449,30.0144043,58.244873,33.1188965,74.7182617c0.1777344,0.9438477,0.3405762,1.890625,0.5130615,2.8355713
		c2.4884033,8.5759277,5.1356201,17.1444092,6.5626221,25.9749756c1.4505615,8.9761963,2.7344971,17.9987793,3.1813965,27.0881348
		c0.3244629,6.597168,0.2493896,13.2506104-0.4141846,19.8349609c0.2547607,4.1439209,0.1501465,7.8063965-0.3942871,10.8461914
		c-0.2813721,1.5700684-0.5836182,3.1452637-0.9005127,4.7229004c-0.0046387,1.003418-0.0029297,2.0065918-0.0144043,3.0097656
		c-0.0092773,0.8127441-0.4196777,1.3632812-0.9716797,1.6569824
		c-5.3361816,24.1674805-14.3240967,48.5996094-21.6593018,67.0935059
		c-1.7773438-15.4301758-3.6746826-30.8428955-5.3289795-46.2315674
		c-3.5588379-33.1063232-7.0222168-66.2225342-10.505127-99.3370361
		c-1.1883545-11.2995605-1.9882812-22.854248-3.3442383-34.2860107c1.5614014-0.2486572,2.8125-0.6573486,3.2971191-1.2879639
		c1.6486816-2.1450195,2.1086426-12.0263672,2.1086426-12.0263672s1.675293-0.3718262,3.6538086-1.9805908
		s3.0622559-8.0443115-6.829834-9.6530762c-1.2680664-0.2061768-2.505249-0.3497314-3.7062988-0.4395752l-0.3464355-20.5559082
		c0.2011719,0.0196533,0.3199463,0.0322266,0.3199463,0.0322266s-0.118042-0.0263672-0.3206787-0.0769043l-0.2319336-13.7591553
		c0.715332,0.3812256,1.1520996,0.6481934,1.1520996,0.6481934s-0.4223633-0.3968506-1.157959-0.9957275l-0.0522461-3.1118164
		l-3.8204346,0.3831787c-2.1138916-1.2843018-4.7305908-2.5548096-7.5579834-3.1693115
		c-6.8936768-1.4987793-12.8881836,0.5994873-18.8826904,6.2941895c-3.0640869,2.9108887-6.2862549,6.9908447-9.7436523,10.2895508
		c-15.277832-6.9122314-34.8393555-13.0014648-57.822876-14.5167236c-0.3098145-0.0203857-0.611084-0.0229492-0.9196777-0.0411377
		c-0.4881592-13.173584-1.0930176-26.3383789-1.9346924-39.4776611c0.7755127-4.0264893,1.026001-9.5718994,1.026001-9.5718994
		s1.7624512-0.4084473,3.84375-2.1765137c2.081543-1.7681885,3.2219238-8.8410645-7.1851807-10.6091309
		c-1.270874-0.2159424-2.5123291-0.3688965-3.7196045-0.46875c-0.3287354-21.8778076-0.5229492-34.9306641-0.5229492-34.9306641
		l-4.149292,0.2348633l-0.1668701,7.442627c-2.2824707-1.7098389-6.085083-4.1271973-10.3508301-5.0546875
		c-6.8937988-1.4985352-12.8881836,0.5996094-18.8828125,6.2941895c-5.9943848,5.6949463-12.588501,15.885498-20.3813477,15.885498
		c-7.7929688,0-11.6894531-2.9970703-11.6894531-2.9970703c-5.9943848-2.9973145-10.1906738,2.9970703-10.1906738,2.9970703
		v3.2971191c0,0,4.1962891-3.8963623,8.9918213-2.9973145c4.7956543,0.8991699,10.7901611,10.1907959,17.9837646,11.6893311
		c7.1932373,1.4986572,14.6862793-8.3922119,20.6810303-12.2886963c4.8297119-3.1394043,18.4080811-2.3876953,23.505249-1.9769287
		l-0.2763672,12.3265381c-6.0231934,0.3493652-10.5627441,2.1630859-12.3154297,4.489502
		c-3.4786377,4.6166992,3.4855957,8.3833008,3.6835938,9.2513428c0.8153076,3.5748291,1.8015137,10.8609619,3.4338379,13.2033691
		c-0.7198486,11.956665-1.4345703,23.9136963-2.1356201,35.871582c-47.630127,4.868042-78.6932373,34.6893311-80.0047607,37.6540527
		c-5.6932373,12.8719482-8.2075195,24.5979004-8.5449219,35.1546631c-0.4294434-0.1020508-0.8740234-0.197876-1.3508301-0.2788086
		c-0.8500977-0.1445312-1.6817627-0.2521973-2.5042725-0.3438721c-0.9188232-10.0695801-1.8424072-20.2252197-4.0067139-29.9888916
		c0.5283203,0.2891846,0.8400879,0.4802246,0.8400879,0.4802246s-0.3271484-0.3078613-0.9038086-0.7875977
		c-0.0522461-0.2331543-0.092041-0.4703369-0.145752-0.7030029l-0.0866699-0.1959229l-0.1218262-1.8359375l-2.6939697,0.4796143
		c-2.263916-1.4949951-5.3063965-3.1269531-8.6363525-3.8509521c-6.8937988-1.4985352-12.8881836,0.5996094-18.8828125,6.2944336
		c-5.9943848,5.6947021-12.5883789,15.885376-20.3813477,15.885376c-7.7927246,0-11.6894531-2.9971924-11.6894531-2.9971924
		c-5.9943848-2.9973145-10.1904297,2.9971924-10.1904297,2.9971924v3.2969971c0,0,4.1960449-3.8963623,8.9916992-2.9971924
		c4.7956543,0.8990479,10.7900391,10.1906738,17.9835205,11.689209c7.1934814,1.4987793,14.6866455-8.3922119,20.6811523-12.2886963
		c3.7492676-2.4368896,12.774292-2.5290527,19.0091553-2.2561035c-0.3837891,5.7175293-0.7175293,11.4404297-1.0004883,17.1679688
		c-3.7211914,0.7841797-6.4709473,2.204834-7.7457275,3.8969727c-3.4782715,4.6166992,3.4859619,8.3833008,3.6838379,9.2512207
		c0.7358398,3.2269287,1.612915,9.4658203,2.9769287,12.375c-0.2109375,5.4589844-0.421875,10.9165039-0.6481934,16.369873
		c-14.1318359,1.1968994-26.934082,6.3322754-36.1464844,16.8994141
		c-21.3476562,24.4870605-12.6838379,66.2832031-12.6838379,66.2832031
		c2.875,12.7316895,13.3754883,22.472168,23.1240234,29.0195312c-8.5438232,2.6740723-16.1755371,7.2802734-22.2475586,14.2453613
		c-21.3477783,24.4871826-12.684082,66.2834473-12.684082,66.2834473
		c5.7282715,25.3674316,41.7341309,38.8696289,41.7341309,38.8696289s-13.911377-15.9571533-12.2749023-25.7768555
		c0.9890137-5.9332275,9.6016846-10.2182617,21.404541-11.6015625c-0.6433105,12.2060547-1.2800293,24.4128418-1.9147949,36.6193848
		c-17.8144531,2.7132568-36.9411621,7.6103516-45.0727539,10.9368896
		c-15.307373,6.262085-25.0483398,27.831543-26.4399414,48.7049561
		c-1.3916016,20.8737793,4.1748047,28.5273438,10.4367676,30.6147461
		c10.4368896,3.4788818,10.4368896-6.2619629,10.4368896-6.2619629l-1.0499268-3.1496582
		c-1.8986816-5.6967773-1.3061523-12.0026855,1.9003906-17.079834c1.2370605-1.9584961,2.628418-3.4273682,4.0201416-3.4273682
		c4.1746826,0,11.1324463,8.3494873,11.8282471,22.2650146s-2.782959,49.399292,14.6102295,59.1412354
		c22.4263916,12.5611572,26.3640137,13.4659424,44.8065186,0.5168457
		c18.5135498-12.9987793,38.7287598-18.5721436,49.4725342-15.7729492c7.1536865,1.8637695,13.6328125,6.8623047,21.0180664,6.53479
		c7.9503174-0.3526611,14.137207-6.6855469,19.7634277-12.3137207
		c20.7416992-20.7485352,48.4844971-38.2329102,77.590332-34.5488281
		c13.3287354,1.6870117,25.6605225,7.6748047,37.9598389,13.0808105
		c12.2988281,5.4057617,25.2819824,10.3896484,38.7062988,9.869873
		c24.1850586-0.9365234,30.4768066-17.859375,37.2692871-37.2978516
		C525.6810303,548.8209229,530.5511475,523.668335,541.8873291,515.1658936z M231.6531982,258.5001221
		c-0.5766602,0.0053711-1.1512451,0.019043-1.7244873,0.036377c0.2471924-4.6906738,0.4945068-9.3829346,0.7348633-14.0770264
		c0.2784424,0.024292,0.5618896,0.0477295,0.8594971,0.0662842L231.6531982,258.5001221z M221.1212158,187.8839111
		c0.7304688-5.4785156,5.9089355-4.6136475,9.8460693-3.1025391l0.0030518,0.3361816
		c-0.7180176,0.0081787-1.454834,0.4907227-1.5358887,1.4261475c-0.3276367,3.7835693-0.612793,7.5718994-0.8763428,11.3626709
		C224.6364746,196.0020752,220.4666748,192.793457,221.1212158,187.8839111z M225.7489014,343.7142334
		c2.12146-0.3179932,4.3601074-0.5385742,6.6911621-0.65271l0.2399902,25.7869873
		c-2.737915-0.3533936-5.4628906-0.5936279-8.1624756-0.7132568
		C224.9324951,359.9949951,225.3414307,351.8548584,225.7489014,343.7142334z M210.1569824,368.7406006
		c-2.536377-4.5771484-4.4935303-9.6512451-3.8206787-13.6889648c0.8071289-4.8425293,6.6940918-8.5866699,15.2457275-10.5532227
		c-0.0693359,1.3720703-0.135376,2.7441406-0.204834,4.1162109c-0.3277588,6.4782715-0.6663818,12.9558105-0.9997559,19.4338379
		C216.9029541,368.0582275,213.4862061,368.2821045,210.1569824,368.7406006z M218.4135742,488.9954834
		c0.5775146-12.1259766,1.1396484-24.2480469,1.7364502-36.3580322c4.1923828-0.2332764,8.6828613-0.1260986,13.3132324,0.3773193
		l0.3225098,34.6477051C229.1395264,487.7860107,223.894043,488.2681885,218.4135742,488.9954834z M239.2431641,258.7608643
		l-0.9562988-14.4205322l0.0778809-0.0095215c0.5440674,4.8321533,1.1038818,9.6623535,1.6661377,14.4923096
		C239.7680664,258.8011475,239.5056152,258.7806396,239.2431641,258.7608643z M370.4622803,244.9351807
		c34.9814453,11.5231934,57.5639648,22.7858887,69.5405273,29.5810547
		c-1.2387695,14.7763672-2.5317383,29.5480957-3.8549805,44.3168945c-0.3115234,3.4754639-0.6239014,6.9506836-0.9361572,10.4259033
		c-23.5511475-13.0091553-51.171875-22.5223389-77.7747803-25.182251
		c-0.4394531-11.4238281-0.8768311-22.8476562-1.3063965-34.2717285c0.0571289-1.0032959,0.0826416-1.607666,0.0826416-1.607666
		s2.7873535-0.6896973,6.0789795-3.6733398c2.9643555-2.6870117,4.7145996-12.6312256-6.9848633-16.7624512
		c-0.0860596-2.3161621-0.1721191-4.6323242-0.2580566-6.9484863
		C360.0228271,241.8339844,365.1644287,243.1899414,370.4622803,244.9351807z M352.7047119,290.5032959l0.1162109-0.1914062
		c0.1540527,4.4702148,0.3054199,8.9406738,0.4658203,13.4105225c-2.0134277-0.1473389-4.0200195-0.2578125-6.0166016-0.3222656
		c-0.0549316-3.4927979-0.1098633-6.9866943-0.1646729-10.4798584
		C349.7619629,292.4615479,351.8851318,291.6916504,352.7047119,290.5032959z M351.1827393,240.0904541
		c0.0688477,2.2080078,0.1374512,4.4161377,0.206665,6.6240234c-0.1553955-0.0305176-0.3016357-0.0655518-0.4605713-0.0942383
		c-1.5507812-0.28125-3.0644531-0.4824219-4.5565186-0.645752c-0.0344238-2.2182617-0.0687256-4.4312744-0.1029053-6.6375732
		C347.8862305,239.5505371,349.5250244,239.8033447,351.1827393,240.0904541z M347.2674561,108.9459229
		c0.0871582,11.581543,0.3464355,23.168457,0.7041016,34.7557373c-1.06604-0.0307617-2.1176758-0.0343018-3.1706543-0.0389404
		c-0.1859131-12.2264404-0.3591309-23.6525879-0.5166016-34.0712891
		C345.4329834,109.4552002,346.463623,109.2445068,347.2674561,108.9459229z M326.873291,57.0548096
		c0.8861084-6.6448975,8.3149414-3.9606934,12.1348877-2.1064453l-0.3105469,13.8531494
		C334.6768799,67.5471191,325.9470215,64.001709,326.873291,57.0548096z M346.9302979,338.1619873
		c4.314209,2.9179688,5.5769043,8.4521484,4.869873,14.7351074c-0.6374512,5.6663818-3.3674316,10.302002-3.3674316,10.302002
		s3.0092773,0.4248047,2.3693848,4.5841064s-4.1160889,3.868042-4.1160889,3.868042s-4.8748779-1.1745605-4.8748779,0.7451172
		s-0.7913818,6.7167969-0.7913818,6.7167969l-1.3748779-2.2460938l-4.6279297,1.5109863c0,0-2.8043213-1.3806152-3.8474121-1.119873
		c-1.0432129,0.2607422-2.2166748,2.607666-2.2166748,2.0861816s-0.6519775-2.3469238-0.6519775-2.3469238l-0.7823486-5.2158203
		c0,0-5.8675537,0.6520996-7.1715088-3.3901367c-1.3039551-4.0419922,0.4133301-4.2796631,1.456543-5.1923828
		c0.4143066-0.3624268-0.2059326-0.5151367-0.463501-1.6481934c-1.8044434-2.7929688-4.2009277-9.4121094-1.758667-16.7392578
		C322.7810059,335.2132568,335.7520752,330.6011963,346.9302979,338.1619873z M334.4733887,109.2769775
		c0.7518311,0.1921387,1.9344482,0.3476562,3.3062744,0.4387207l-0.765625,34.1282959
		c-1.3078613,0.0733643-2.5953369,0.178833-3.880249,0.2896729
		C333.6011963,132.5159912,334.0476074,120.8970947,334.4733887,109.2769775z M328.8787842,238.3624268
		c1.9619141-0.0439453,3.9692383-0.0288086,6.0141602,0.0385742l-0.1669922,7.4396973
		c-2.244873,0.2150879-4.3382568,0.5705566-6.2611084,1.043457
		C328.604126,244.0435791,328.7402344,241.2028809,328.8787842,238.3624268z M329.3638916,292.3048096
		c0.7766113,0.3520508,2.3387451,0.657959,4.300293,0.8693848l-0.2352295,10.4899902
		c-2.6342773,0.1914062-5.2415771,0.4637451-7.8149414,0.8269043c0.2911377-5.8378906,0.5800781-11.6759033,0.8709717-17.513916
		C327.305542,289.7425537,328.2503662,291.800415,329.3638916,292.3048096z M273.3778076,264.6143799
		c1.8436279-9.6789551,21.5146484-24.5194092,52.3815918-26.1308594c-0.1691895,3.1142578-0.3430176,6.2281494-0.5109863,9.3424072
		c-3.8791504,1.3712158-6.7629395,3.2767334-8.2961426,5.447876c-5.5009766,7.7911377,5.5128174,14.1477051,5.8259277,15.6124268
		c0.3305664,1.5474854,0.6793213,3.5084229,1.0582275,5.633667c-0.5357666,10.1656494-1.0684814,20.3312988-1.5897217,30.4978027
		c-17.3742676,3.0126953-33.0766602,10.2072754-45.3278809,22.7460938
		c-2.2731934-8.5187988-3.1066895-17.1893311-0.6166992-24.2658691
		c7.7740479-22.0943604,32.7324219-15.9570312,32.7324219-15.9570312
		c-9.7370605-8.199707-22.3631592-15.5562744-35.9680176-20.8148193
		C273.1424561,266.0373535,273.2406006,265.3358154,273.3778076,264.6143799z M241.543335,243.4366455
		c0.3193359-0.1773682,0.592041-0.3703613,0.7583008-0.5961914c0.9016113-1.2255859,1.4633789-4.744873,1.7967529-7.8457031
		c2.1751709,10.2485352,6.3310547,19.0062256,11.0727539,26.2263184c-3.9503174-0.9044189-7.9121094-1.6020508-11.8453369-2.0644531
		C242.7313232,253.916626,242.1309814,248.6772461,241.543335,243.4366455z M263.0345459,347.302124
		c-2.6188965,5.1501465-4.7097168,10.5031738-6.3654785,15.9182129c-0.8562012-6.1065674-1.7026367-12.2145996-2.5404053-18.3234863
		C257.2376709,345.5640869,260.2109375,346.3839111,263.0345459,347.302124z M244.8574219,343.4239502
		c1.8599854,0.1932373,3.7427979,0.4539795,5.6373291,0.7768555c0.0234375,0.1833496,0.0463867,0.3668213,0.0699463,0.550293
		c1.1868896,9.2576904,2.4217529,18.5063477,3.678833,27.7507324c-0.0874023,0.4001465-0.1716309,0.7996826-0.255127,1.199585
		c-2.4055176-0.776001-4.8293457-1.4857178-7.2634277-2.1159668L244.8574219,343.4239502z M276.7926025,526.2984619
		c-8.6472168-1.729248-13.9538574-20.1677246-21.8503418-30.7961426l-2.5374756-38.2661133
		c5.9107666,2.0081787,11.114624,4.4290771,15.420166,6.7570801c2.0024414,12.4459229,4.0614014,24.8847656,6.1834717,37.3172607
		c1.4274902,8.3631592,2.7814941,16.7509766,4.1364746,25.1429443
		C277.6186523,526.421875,277.1602783,526.3720703,276.7926025,526.2984619z M312.2050781,522.2213135
		c-12.9578857,2.3198242-24.5949707,3.9868164-31.1105957,4.2365723
		c-0.9324951-5.2905273-1.8532715-10.5822754-2.7324219-15.8776855c-2.3485107-14.145752-4.5147705-28.3227539-6.6126709-42.5098877
		c13.8485107,14.1697998,31.7404785,23.6873779,41.5766602,28.2532959
		C312.9555664,504.9539795,312.5758057,513.586792,312.2050781,522.2213135z M313.5819092,490.3751221
		c-6.2878418-8.8820801-14.2838135-22.4633789-12.6530762-32.2474365
		c0.9559326-5.7354736,6.366333-10.5062256,14.6481934-13.8823242
		C314.8944092,459.6212158,314.2277832,474.9979248,313.5819092,490.3751221z M328.5965576,519.0812988
		c-4.1810303,0.8510742-8.3848877,1.6690674-12.4992676,2.4310303c0.315918-7.8449707,0.6184082-15.6907959,0.9125977-23.5371094
		c2.2719727,0.9805908,3.5983887,1.4788818,3.5983887,1.4788818s-1.4171143-1.6260986-3.4924316-4.3065186
		c0.6488037-17.3979492,1.2717285-34.7973633,1.9539795-52.1894531c3.4112549-1.1296387,7.2047119-2.0480957,11.2957764-2.7368164
		L328.5965576,519.0812988z M318.5203857,398.1635742c0,0,2.9594727,4.5738525-2.1523438,6.0535889
		s-7.5332031-2.8249512-6.7260742-4.170166c0.8071289-1.3453369,2.2868652-2.2869873,2.2868652-2.2869873
		s-7.3986816-3.3630371-4.0356445-8.2058105s8.4748535,2.0178223,8.4748535,2.0178223
		c0.321167-0.1375732,4.9321289-2.1540527,10.8659668-4.7501221l-9.2553711-3.8592529l-6.4570312,3.0939941
		c0,0-3.7666016,0.269043-4.439209-3.7666016s4.0356445-5.5155029,4.0356445-5.5155029s-1.6142578-0.9416504-2.4213867-2.8249512
		s0.1345215-5.5153809,4.708252-6.0534668s4.439209,6.7260742,4.439209,6.7260742s9.1986084,4.0264893,18.6330566,8.1551514
		c9.4345703-4.1286621,18.6330566-8.1551514,18.6330566-8.1551514s-0.1345215-7.2641602,4.4393311-6.7260742
		c4.5737305,0.5380859,5.5153809,4.170166,4.708252,6.0534668s-2.4213867,2.8249512-2.4213867,2.8249512
		s4.708252,1.4798584,4.0356445,5.5155029s-4.439209,3.7666016-4.439209,3.7666016l-6.4571533-3.0939941l-9.255249,3.8592529
		c5.9338379,2.5959473,10.5447998,4.6125488,10.8659668,4.7501221c0,0,5.1119385-6.8605957,8.4749756-2.0178223
		s-4.0356445,8.2058105-4.0356445,8.2058105s1.4797363,0.9416504,2.2868652,2.2869873
		c0.8071289,1.3452148-1.6142578,5.6499023-6.7261963,4.170166c-5.1118164-1.4797363-2.1523438-6.0535889-2.1523438-6.0535889
		l-17.9569092-7.4875488L318.5203857,398.1635742z M350.8050537,514.171875
		c-0.3725586-19.1989746-0.8330078-45.303833-1.3408203-75.4146729c3.0070801,0.0151367,6.0871582,0.142334,9.2150879,0.3751221
		c0.8886719,19.8270264,1.8259277,39.6522217,2.8399658,59.4732666c0.21521,4.2119141,0.4334717,8.4226074,0.6551514,12.6326904
		C358.7940674,512.1811523,354.9515381,513.1699219,350.8050537,514.171875z M404.12146,462.2862549
		c-13.2198486,12.5241699-18.0904541,38.2681885-29.2230225,44.5302734c-1.56604,0.8811035-4.4268799,1.940918-8.2158203,3.1064453
		c-1.192627-23.4661865-2.4439697-46.9302979-3.5782471-70.3979492c4.5766602,0.489502,9.2370605,1.2177734,13.9178467,2.2032471
		c14.076416,2.9633789,26.4769287,7.8792725,36.4715576,12.8572998
		C410.0291748,457.1463623,406.789917,459.7584229,404.12146,462.2862549z M413.1008301,375.4744873
		c4.3078613-12.2429199,11.9071045-19.0771484,20.0074463-22.7813721
		c-2.7373047,30.5926514-5.4046631,61.1907959-7.7111816,91.819458
		C415.71875,423.9195557,406.0006104,395.6541748,413.1008301,375.4744873z M440.9835205,437.0889893
		c-2.5664062,1.4492188-6.3442383,3.6314697-10.6201172,6.2526855c1.1435547-15.4847412,2.3721924-30.9631348,3.6556396-46.4366455
		c1.2731934-15.3475342,2.5734863-30.6929932,3.8712158-46.0384521c1.5952148-0.5002441,3.1883545-0.8999023,4.7597656-1.2128906
		C441.9963379,383.8105469,441.3973389,415.1992188,440.9835205,437.0889893z M442.9543457,333.7510986
		c-1.1380615-0.6931152-2.2854004-1.380127-3.4464111-2.0571289c1.5336914-18.2893066,3.0158691-36.5830078,4.432251-54.8815918
		l0.1048584,0.0625C443.6849365,295.633667,443.3145752,314.9431152,442.9543457,333.7510986z M441.9608154,250.5192871
		c-0.4650879,5.9163818-0.9438477,11.8319092-1.4326172,17.7467041
		c-12.048584-16.2156982-30.5206299-44.0336914-28.7392578-60.0655518
		c1.8210449-16.3900146,17.223877-22.3487549,27.1398926-24.4630127c-2.0446777,0.7210693-3.5826416,1.6693115-4.4274902,2.7425537
		c-3.3061523,4.2005615,3.3134766,7.6280518,3.5015869,8.4176025c0.8841553,3.7114258,1.9798584,11.8220215,3.9581299,12.6263428
		c0.4989014,0.2027588,1.5344238,0.3774414,2.8283691,0.4916992
		C443.6439209,222.1794434,443.0672607,236.4387207,441.9608154,250.5192871z M445.8902588,180.8441162
		c-2.9454346-2.9389648-10.548584-9.1629639-22.1081543-15.7130127c0.6582031-0.5192871,1.3031006-0.9954834,1.9306641-1.4034424
		c4.0721436-2.6469727,14.3638916-2.5270996,20.5488281-2.1783447
		C446.1585693,166.9022217,446.0333252,173.4066162,445.8902588,180.8441162z M446.2852783,160.3164062
		c-4.2525635-1.7818604-9.6195068-5.1531982-8.8833008-10.6757812c0.6883545-5.1621094,5.3261719-4.6917725,9.1534424-3.3563232
		C446.5140381,148.4299316,446.4205322,153.2880859,446.2852783,160.3164062z M452.2867432,245.9753418
		c1.3156738,13.2004395,2.6281738,26.4014893,3.9396973,39.602417c2.0412598,20.5473633,4.0493164,41.0981445,6.0871582,61.6459961
		c-2.6921387-2.1489258-5.5050049-4.2565918-8.4268799-6.3144531L452.2867432,245.9753418z M459.0887451,400.3612061
		c-1.4890137,1.0637207-2.8630371,2.6191406-4.1245117,4.4841309l-0.9472656-56.2043457
		c3.4926758,0.0384521,6.4533691,0.3688965,8.5053711,0.6807861c1.34375,13.5303955,2.6984863,27.0596924,4.0950928,40.5847168
		c0.1873779,1.8133545,0.3719482,3.6256104,0.557251,5.4381104
		C463.6688232,397.3682861,460.8355713,399.1136475,459.0887451,400.3612061z M482.9858398,386.7205811
		c20.5904541-29.0722656,49.0762939-66.3568115,59.3551025-57.7912598
		c9.6636963,8.0532227,8.7272949,33.2739258,6.1231689,53.5306396
		c-11.7961426-7.2578125-23.444458-13.3297119-27.4503174-12.7133789
		C515.6448975,370.5726318,498.2642822,378.7528076,482.9858398,386.7205811z"/>
	<path d="M334.260498,370.2584229c0,0,0.3734131-3.4230957,0.5744629-6.1323242l-2.4416504,4.4726562L334.260498,370.2584229z"/>
	<path d="M331.7009277,357.6541748c-3.4230957-0.6225586-7.2611084,0.7260742-7.2611084,2.5932617
		c0,1.8669434,0.6223145,3.8378906,1.8671875,4.1491699c1.2446289,0.3110352,5.9125977-0.3112793,6.6386719-1.1411133
		C333.4382324,362.6925049,335.1240234,358.2764893,331.7009277,357.6541748z"/>
	<path d="M335.1954346,370.3585205c0.154541-0.0515137,2.0603027-1.854248,2.0603027-1.854248l-1.9057617-4.4812012
		C335.4014893,364.2806396,335.0408936,370.4100342,335.1954346,370.3585205z"/>
	<path d="M343.8580322,364.3966064c1.244873-0.3112793,1.8671875-2.2822266,1.8671875-4.1491699
		c0-1.8671875-3.8380127-3.2158203-7.2612305-2.5932617c-3.4230957,0.6223145-1.7373047,5.0383301-1.2446289,5.6013184
		C337.9454346,364.0853271,342.6132812,364.7076416,343.8580322,364.3966064z"/>
</g>
</svg>
