<?xml version="1.0" encoding="utf-8"?>
<!-- Generator: Adobe Illustrator 22.0.1, SVG Export Plug-In . SVG Version: 6.00 Build 0)  -->
<svg version="1.1" id="Layer_1" xmlns="http://www.w3.org/2000/svg" xmlns:xlink="http://www.w3.org/1999/xlink" x="0px" y="0px"
	 viewBox="0 0 2000 2000" style="enable-background:new 0 0 2000 2000;" xml:space="preserve">
<style type="text/css">
	.st0{fill:none;}
</style>
<g>
	<path class="st0" d="M651,1513c23.9,8.3,52,7,77.8,6.3c-29.1-3-58.1-6.7-86.9-10.4C644.8,1510.4,647.8,1511.8,651,1513z"/>
	<path class="st0" d="M1080.6,1275.2c-13.4-10.6-26.2-19.8-44.1-20.4c-6.3-0.2-13.6,0.2-19.3,3.4c-2.6,1.5-9.1,8.5-9.1,13.8
		c20.6-12.5,49.9-6.3,55.1,22.6c6.9,38.5-36.6,49.5-65.2,53.2c-49.7,6.5-104.5,5.2-145.1-28.2c-17.1-14.1-27-38.5-46.3-49.4
		c-17.6-9.9-76.7-8-75.8,16.7c10.1-5.1,22.8-4.9,32.5,2.3c11,8.2,12.5,20,9.4,31.4c9.3-0.4,18.5-0.6,27.7-1.9
		c7.3-1.1,10.1,8.4,3.1,11.1c-9.9,3.8-20.1,7.2-30.7,8.3c-3.1,0.3-6.2,0.7-9.3,0.9c-2.4,3.2-4.9,6.1-7.6,8.6
		c-2.7,2.5-5.6,4.8-8.7,6.9c17.1-0.1,34.2,0.1,51.3-0.7c3.6-0.2,4.5,5.8,0.9,6.3c-32.3,4.7-64.1,12.8-96.6,15.9
		c-4.9,0.5-7.9-2.3-9-5.8c-5.9,0.1-11.7-0.2-17.4-0.8c-28.1-3.3-103.8-45-121.5-7c20.2,3.1,42.8,3.9,62.1,1.9
		c2.7-0.3,3.3,4.3,0.6,4.7c-19.2,2.7-45.8-4.4-64.7,2.5c5.2,7.7,10.3,15.4,15.2,23.3c91-1.7,182.1-1.2,273-4.7
		c5.3-0.2,5.2,7.8,0,8.1c-85.6,6.3-170.8,16.1-256.2,24.4c1.2,2.1,2.4,4.3,3.6,6.5c126.6-3.9,253.5,2.4,380.2-2.3
		c3.3-0.1,3.3,5,0,5.1c-121.9,5-243.1,20-364.9,26.5c4,8.4,8,16.8,12.7,24.5c2.1-2.8,5.4-4.9,9.8-5.3c114.1-9.3,229.8-3.5,344.3-4.4
		c1.8,0,1.7,2.7,0,2.7c-91.6,2.3-182.3,13.3-273.3,22.2c83.3,10.5,167.1,7.9,251.8,9.5c2.5,0,4.2,1.7,5.1,3.6
		c179-10.8,357.6-28.6,537-29.7c31.6-0.2,63.2,0.1,94.8,1.1c24.4,0.8,58.2,7.9,81.2-2.4c19.7-8.9,22.1-25.1,19.5-42
		c-111.6,3.5-223.4,1-335.1,4.8c-3.5,0.1-3.5-5.3,0-5.4c110-5.4,219.7-17,329.6-22.9c-0.2-0.9-0.5-1.7-0.7-2.6
		c-18.1-0.8-35.8-3.1-54.1-3c-18.8,0.1-37.5-0.1-56.3,0c-39.2,0.2-78.1-1.3-117.3-0.8c-2.2,0-2.1-3.2,0-3.3
		c39.2-2.2,78.1-6.6,117.3-9.1c20.3-1.3,40.7-3,61-4.4c17.7-1.2,34.8-4.9,52.4-6.8c3.4-5.1,8.3-9.8,13.8-15.3
		c1.4-1.4,2.8-2.9,4.1-4.4c0-0.3-0.1-0.6-0.1-0.9c-22.5,0-45.1-1.3-67.6-0.9c-50.7,0.9-102.4,2.2-152.8,4.8
		c-2.5,0.1-3.1-4.1-0.6-4.4c40.4-5.5,80-11.4,121-13.9c21.7-1.3,43.3-2.6,64.9-4.1c14.9-1,34.4-5,50.6-3.8
		c9.2-19.1,12.8-40.7,14.5-62.8c-20.8,7-43.1,4.8-61.7-8.6c-12.8-9.3-19-25.5-32.6-33.3c-16.9-9.6-34.6-2.8-42.9,11.7
		c20.9,3.3,31.4,24.8,12.4,47.6c-11,13.2-28,21.8-45.4,21.7c-24.4-0.1-59.6-27.4-79.5-4.7c-3.8,4.4-9.1,2.2-11.3-1.7
		c-48.6,47.5-115.1,78.4-183,77.9c-55.6-0.4-92.2-23.9-127.2-65.3c-7.7-9.1-15.1-18.4-22.2-28
		C1115,1299,1098.6,1289.4,1080.6,1275.2z"/>
	<path class="st0" d="M1518.5,1287.2c14.4,2,27.7,9.5,42.5,9.1c6.8-0.2,14.1-2.3,19.9-5.9c6.4-4,12.7-20.7,1.3-13.4
		c-8.9,5.8-21.1-1.8-21-12c0.4-35.2,27.4-64.6,64-61.7c18.1,1.5,32,10,43.8,23.5c17.7,20.4,31.8,34.8,60.6,23
		c1.1-0.4,2.1-0.7,3.1-0.8c0.2-7.1,0.4-14.1,0.7-21c-13.3,2.2-27.7,0.8-39.4-4.1c-20.3-8.5-28.7-34.7-39.1-52.3
		c-2.5-4.3,3.8-7.7,6.5-3.8c9.2,13,21.3,37.4,37.7,40.9c12,2.5,24.3-2.2,36.1-6.5c0-0.1,0-0.2,0-0.4c0.5-4.3,1.1-8.5,1.8-12.7
		c-3.2,0.7-6.3,1.1-9.1,1.1c-17.7,0-27.6-8.5-35.6-23.6c-1-1.9,1.7-3.4,2.9-1.7c4.5,6.8,9.2,13.4,18.3,13.1
		c4.2-0.1,8.5-1.8,12.4-3.2c3.7-1.4,8.5-2.6,11.4-5.6c2.3-2.3,3.4-5.1,5.4-7.6c6.6-26.5,16.6-52,29.7-76
		c-57.1,17.7-113.1,39.4-167.6,63.8c-14.9,6.7-29.8,13.5-44.4,20.8c-15.9,7.9-18.2,18.9-23,34.3c-7.3,22.7-17.9,44.5-31.2,64.3
		c-4.9,7.3-10.3,14.4-15.9,21.2C1499.1,1286.7,1509,1285.9,1518.5,1287.2z"/>
	<path class="st0" d="M599.9,1328.4c27.1,4.7,51.3,19.2,79.1,22c14.2,1.4,28.6,0.3,42-4.7c6.6-2.5,12.5-5.4,18.1-9.8
		c-10.8,5-23.6,7.8-31.3,9.3c-28.7,5.4-49.6-6.3-68.2-27.3c-2.7-3.1,0.9-8.5,4.6-5.9c22.5,15.5,39.2,22.4,66.7,13.7
		c2.7-0.8,5.4-1.7,8.1-2.7c-17.9,1.4-38.3-7.5-52.2-15.1c-1.1-0.6-0.3-2.3,0.8-1.9c14.1,4.5,30,3.3,44.6-1
		c-9.5-18.6-3.2-41.7,15-54.8c25-18.1,69.6-15.7,94.9,0.5c12.5,8,20.5,20.3,29.5,31.7c15.7,20,35.5,32.9,60.1,39.4
		c25.1,6.6,51.6,5.7,77.2,2.9c0.1,0,0.1,0,0.2,0c-7.5,0.3-14.9-0.2-21.6-1.4c-27.7-4.9-48-22.4-65.4-43.7c-1.8-2.2,1.1-5.3,3.2-3.2
		c17.1,16.9,40.4,27.6,64.8,27.7c8.7,0,16.2-1.9,23.3-4.5c-5.1-3.8-8.9-8.6-11.2-13.9c-10.7,6.5-28.1,4.4-38-1.7
		c-15.2-9.5-22.5-27.5-26.3-44.3c-0.8-3.4,4.2-4.8,5.2-1.4c4,13.2,13.5,23,25.7,29.3c12,6.1,20.3-3,30.6-2.4
		c0.1-1.1,0.3-2.2,0.6-3.3c-6.4-0.3-13-2-17.8-4.2c-7.3-3.4-13.5-8.9-15.2-17c-1-4.8,5.5-6.4,7.3-2c3.2,8,11.8,9,19.3,7.9
		c5.3-0.7,9.5-2,14-1.6c4.2-5.8,9.9-10.9,17.1-14.3c18.8-9,41.5-7.6,60.7-0.5c15.9,5.9,32.6,25.9,50,33.9c-1-1.5-2-3-2.9-4.5
		c-14.3-22.5-24.2-48.9-40-70.3c-18-24.3-54.2-29.6-81.7-37.5c-28.5-8.2-57.5-15.5-87.2-17.2c-61-3.6-104.9,21.6-151,58.1
		c-38.7,30.6-75.4,53-125.1,60.1c-11.9,1.7-24.4,2.9-37.1,4.5c-2.4,8-9.6,13.9-20.5,10.4c-4.5-1.4-8.9-3.2-13.3-5.2
		c-23.9,5.1-46.3,13.7-63,31.3c17.3,20.1,33.7,41,49,62.6C549.3,1334.1,576.5,1324.4,599.9,1328.4z"/>
	<path class="st0" d="M1303.5,918.7c39.7,4.3,77.3,7.3,120.3-4.3c49.3-13.3,97-37.6,138.9-67.6c-19.1-22.4-37.6-45.2-55.3-68.6
		c5.4,15.3,11.7,30.3,19.1,44.8c-74.4-4.9-149.7-9.8-223.4,0.5c0.1,11.6,0.1,23.1,0.2,34.7C1303.3,878.4,1303.4,898.5,1303.5,918.7z
		"/>
	<path class="st0" d="M1336.9,1159.2c-10.6,0.8-21.2,2.2-31.7,4.1c0.2,25.4,0.4,50.9,0.6,76.3c0.3,40.4,4.6,83.2,1.5,123.8
		c94.9-11.3,180.7-79.3,207.7-172.3c1.3-4.5,2.5-8.5,3.9-12.2C1458.9,1166.3,1398,1154.7,1336.9,1159.2z"/>
	<path class="st0" d="M1280.8,1239.6c0.2-23.7,0.4-47.3,0.6-71c-42.8,11.5-82.6,33.2-110.9,66.9l0,0
		c-49.3-32.7-47.6-125.3-44.8-176.5c4.3-77.1,40.7-152.3,128.7-145.3c9.8,0.8,19.4,1.8,28.8,2.8c0.1-19.4,0.2-38.9,0.3-58.3
		c0.1-10.5,0.1-21,0.2-31.6c-53.6,9.7-109.8,32-135.5,79.8c1.1-2-6.4-16.9-12-28.1c-11.5,9.5-19.1,23.9-22.7,38.6
		c-4.6,18.9-3.5,38.6-3,58.1c1.1,39.1,0.4,78.2-2.4,117.2c-42.1-5.7-84.2-11.4-126.2-17.1c0.2,16.3-0.5,32.5-3.7,47.9
		c25.4,6.5,50.3,15.1,73.4,25.1c45.8,19.8,61.3,76.6,88.1,115.2c1.2,1.7,2.4,3.4,3.6,5.1c4.3,2.4,7.2,6.8,8.2,11.4
		c15.7,21.4,33,42.2,52.7,59.5c21.9,19.3,47.6,25.5,75.4,25.6C1276.1,1324,1280.5,1280.6,1280.8,1239.6z"/>
	<path class="st0" d="M1533,948.4c-3.1,73.3-6.2,146.6-9.3,219.9c4.2-7.1,10-12.7,20-18.1c26-14.1,53.9-25.5,81.1-37
		c50.6-21.3,102.3-38.9,154.7-55c-77.6-63.4-150-133.4-215.2-209.5c-11.2,12.8-19.8,28-24.5,44.3
		C1534.6,910.9,1533.8,929.8,1533,948.4z"/>
	<path class="st0" d="M953.7,1071.4c-1.1-0.1-2.2-0.3-3.2-0.4c-26.7-3.6-53.9-7.2-80.6-3.1c-26.7,4.1-53.2,17.2-67.4,40.1
		c-16.6-34.3-26.8-71.4-30.8-109.2c-4.2-40-2.3-78.1,32-104c41.4-31.2,100-50.6,152.5-46.3c0.1-18.5,0.2-37,0.3-55.5
		c-52.6,7.4-103,23.3-146.5,53.4c-11.2,7.8-22.9,18.7-21.9,32.3c-1.6-20.2-19.9-46.6-25.3-67.3c-6.1-23.2-9.8-47.1-11.1-71
		c-2.7-49.2-0.2-160.3,50.2-190.3c31.9-18.9,72.8,0.9,105.5,6.3c16.8,2.8,33.7,3.3,50.5,2c0.7-73.2,1.7-146.3,3.3-219.5
		c-54,61.5-109.6,121.3-167,179.7c-20.3,20.6-40.9,41-62,61.1c11.9,10.6,8.4,34.6-10.8,32.4c-0.3,0-0.4-0.1-0.3-0.2
		c-0.4,0.1-0.8,0.3-1.6,0.6c-1.8,0.7-1.9,0.7-4.4,2c-1.5,0.8-3,1.6-4.5,2.4c-19.2,29.9-32.2,62.4-35.7,98.6
		c-3.1,32.3,0.8,64.8,3.4,97c3.7,44.5,6.8,88.3,16,132.1c9.9,47.4,24.4,93.7,40.8,139.2c4.5,12.4-16.2,21.1-21.4,9
		c-34.3-81.2-129.3-90.3-206.1-95.7c-82.9-5.9-169.8-9.8-247.1,26c-15.6,7.2-30.8-10.8-18.6-24.1c35.5-38.6,66.5-81.2,100.2-121.4
		C263.9,923.1,182,962.2,96.7,992.9c74.4,27.9,145.3,63.7,216.1,100.4c45.7,23.7,91.4,47.5,137.2,71.3c22.3,11.6,44.7,23.2,67,34.7
		c21.7,11.2,47.2,20.7,66.5,35.6c1.2,1,2.3,2.1,3.2,3.2c3.1-0.4,6.1-0.8,9.2-1.1c34.4-4,67.2-8.6,97.3-27
		c24.9-15.2,46.2-35.6,69.1-53.5c39.3-30.6,82.6-47.2,132.9-45.7c20.2,0.6,41,3.2,61.6,7.4C954.1,1103,953.5,1087.2,953.7,1071.4z"
		/>
	<path class="st0" d="M1004.6,1322.7c6.1-0.9,12.3-2.2,17.9-4.3c4.9-1.6,9.4-3.9,13.6-7c-0.6-1.7-1.1-3.3-1.7-4.8
		C1026.8,1315,1016.2,1320.1,1004.6,1322.7z"/>
	<path class="st0" d="M646.4,660.5c-11.3,8.5-22.4,17.1-33.5,25.9c-16.9,14.2-34.1,28.1-51.4,41.7c-12.6,10.4-25.2,20.9-37.8,31.4
		c-35.4,29.7-72.3,58.2-106.3,89.5c-42.2,38.9-77.8,84-114.9,127.7c47.2-11.8,96.1-14.1,145.1-12.3c-0.1-1.3-0.3-2.6-0.5-3.8
		c-1.2-7.7-2.6-15.4-4-23c-1.1-5.5,6.6-7.7,8.4-2.3c2.6,7.3,5,14.7,7.5,22.1c0.8,2.5,1.9,5.1,2.8,7.7c2.4,0.1,4.9,0.3,7.3,0.4
		c-1.9-15.4-3.3-30.9-4.1-46.4c-0.2-4.2,6.8-5.2,7.4-1c2.3,16.3,5.4,32.3,9.5,48.1c4.6,0.3,9.2,0.6,13.8,1
		c-2.6-24.1,2.7-51.3,4.7-74.1c0.1-1.6,2.2-1.5,2.4,0c2.4,17.8,6.3,35.5,10.8,52.9c2,7.6,4.8,15.4,6.8,23.3c3.1,0.3,6.2,0.5,9.4,0.8
		c0.6,0.1,1.2,0.1,1.8,0.2c-4-13.5-5.5-27.6-5.5-42.1c-0.1-26.6-0.8-53.2-1.2-79.9c-0.1-4.3,7.1-5.5,7.7-1
		c6.4,43.1,9.3,86.9,28.7,126.5c2.8,0.4,5.7,0.8,8.5,1.3c-5.4-11.2-7-24.6-7.7-37.9c-2-34.3-3-68.7,0-103c0.6-7.1,11.1-7.3,11.2,0
		c0.4,26.5,3.2,52.6,7,78.8c2.9,20,4.7,37.5,16.1,52.9c-12.2-55-5.9-111.2-4-167.9c0.2-4.7,7.3-4.7,7.2,0
		c-0.8,63.2,5.8,129,32.5,187.1c-2.3-12.9-3.1-26.3-4.5-38.8c-2.8-24.3-4.9-48.8-6.3-73.2c-2.8-50.5-0.9-101.5,1.9-152
		c0.5-8.3,13.1-8.4,13,0c-0.6,47.9,3,95.2,8.3,142.8c2.8,24.8,6.3,49.5,10.6,74.1c3.8,21.8,12.6,45.3,10.5,67.4
		c0,0.1-0.1,0.3-0.1,0.4c9.7,5.4,18.8,11.7,27.2,18.8c-7.9-29.1-14.7-58.4-19.7-88.1c-7.6-44.4-9.1-89-12.1-133.8
		c-2.4-36-5-72.7,2.6-108.3c5-23.3,14.2-44.8,26.2-64.8C675.1,639.1,660.6,649.7,646.4,660.5z"/>
	<path class="st0" d="M1377.7,574.8c-30.6-58.5-57-119.4-78.6-182.3c1.1,64,1.9,128,2.4,192.1
		C1327.3,584.4,1352.9,581.1,1377.7,574.8z"/>
	<g>
		<path d="M1815.9,1044.5c-88.1-59.6-167-130.7-236.7-210c0.1-0.1,0.3-0.2,0.4-0.4c-0.1,0.1-0.3,0.2-0.4,0.3
			c-30.7-35-59.6-71.5-86.6-109.4c-14.9-73.4-9-151.1,18.1-221c0,0,0,0,0,0c-33.6,30.3-73,52.4-115.1,65.7
			c-37.6-69.3-70-141.4-97.1-215c-0.1-4.4-0.1-8.7-0.2-13.1c-0.1-6.4-9.8-6.4-10,0c0,1.2,0,2.4-0.1,3.7c-2.1,1-3.5,3.1-2.6,6
			c0.8,2.5,1.6,5,2.4,7.5c-1.4,75.1-2.3,150.3-2.9,225.5c-19.6-0.9-39.3-3.5-58.7-8c-37.3-8.7-74.4-15.8-97,22.2
			c-21.2,35.6-24,87.4-24.2,127.5c-0.2,31.9,3.5,63.8,10.9,94.8c3.7,15.5,8.4,30.8,14.1,45.7c0.5,1.4,2.6,5.4,5.1,10.3
			c-24.4,9.1-52.8,6.2-78.4-0.8c-26.1-7.2-51.1-18.2-77.4-24c-0.1-20.6-0.3-41.2-0.4-61.8c35.6-3.4,71.9-3.4,107.3-1.7
			c3.2,0.2,6.6,0.2,9.2-1.5c3.9-2.6,4.3-8.1,4.3-12.8c0.2-81.7-0.1-166.9,36.3-239.9c10.5-21.1,24.3-42.2,23.4-65.8
			c-37.4,26.3-75.8,51.7-118.1,69.2c-20.5,8.4-42,14.8-63.8,18.3c-0.7-74.7-1.7-149.5-3.4-224.2c-0.1-2.3-1.1-3.9-2.5-5
			c0.8-0.9,1.6-1.8,2.4-2.8c3.3-3.8-2-9.2-5.5-5.5c-84.4,89-171.8,176.6-264.2,258.2c-24.4,7.1-50.7,31.3-67.3,43.5
			c-43.7,32.3-85.7,66.9-127.4,101.6c-22,18.4-44,36.8-65.7,55.6c-53.7,35.1-109.2,67.4-166.9,96.3c-74,37.1-151.1,66.9-230.3,90.9
			c-26.6,8-15,50.3,11.5,41.6c1.7-0.6,3.4-1.2,5.1-1.7c81.1,38.6,160.8,80.3,240,122.5c44.2,23.6,88.3,47.1,132.5,70.7
			c22.2,11.8,44.4,23.7,66.5,35.6c9.6,5.2,19.3,11,29.1,16.5c-19.7,6.6-37.8,16.3-52.3,31.7c-14.1-3.8-29.3,15.9-16.9,30.2
			c40.9,47,76.2,98.3,105.3,153.4c12,22.6,21.2,47.9,41.4,64.8c18.4,15.4,42.2,21,65.6,23.2c62.6,5.8,127.8,0.2,190.5-2.7
			c66.5-3.1,132.8-7.7,199.2-12.7c135.8-10.1,271.5-22,407.7-24.6c31.6-0.6,63.2-0.7,94.8-0.2c30.5,0.5,62.6,5.2,92.8,0.8
			c45-6.4,67.9-44.4,60.3-88c-0.9-5.5-2.8-10.5-4.1-15.8c-2.5-11-3.5-8.4,4.2-17.5c2.9-3.5,5.6-6.9,8.2-10.4
			c0.3-0.1,0.5-0.1,0.7-0.2c10-4,13.7-12.8,12.4-21.1c0.4-0.9,0.9-1.7,1.3-2.5c12.3-26.8,16.4-55.9,17.7-85.1
			c1.5-36.3,0.2-72,8.5-107.7c7.5-32.1,20.5-61.8,37.9-89.7C1821.5,1075.4,1832,1055.5,1815.9,1044.5z M1526.4,823
			c-7.4-14.5-13.6-29.5-19.1-44.8c17.8,23.4,36.2,46.3,55.3,68.6c-41.8,30-89.5,54.3-138.9,67.6c-43,11.6-80.6,8.7-120.3,4.3
			c-0.1-20.2-0.2-40.4-0.3-60.5c-0.1-11.6-0.1-23.1-0.2-34.7C1376.8,813.2,1452,818.1,1526.4,823z M1307.3,1363.4
			c3.2-40.6-1.1-83.4-1.5-123.8c-0.2-25.4-0.4-50.9-0.6-76.3c10.5-1.9,21.1-3.3,31.7-4.1c61.1-4.5,122,7.1,182,19.7
			c-1.3,3.7-2.6,7.7-3.9,12.2C1488,1284,1402.2,1352,1307.3,1363.4z M1390.1,1034.3c-3.8-1.1-3.2-7.6,1-7.1
			c37.6,4,68.1-18.1,104.3-19.3c9.1-0.3,13,13.2,4.7,17.4C1468.8,1041.5,1423.7,1044.1,1390.1,1034.3z M1495.7,1080.8
			c-9.6,7.4-25.2,8.5-36.9,10.2c-9.4,1.3-18.2,1.5-26.3-3.9c-6.1-4-0.8-12.5,5.6-9.6c16.4,7.3,36.9-11.9,53.5-11.9
			C1500.4,1065.6,1501.7,1076.1,1495.7,1080.8z M1380.1,993.9c-3.7-0.7-2.8-6.9,0.9-6.5c22.4,2.2,43.5-1.7,64.5-9.1
			c16.6-5.8,31.5-16,49.1-17.5c5.5-0.5,8.7,7.5,4.6,11.1C1470.3,996.7,1416.1,1001.2,1380.1,993.9z M1347.3,953.4
			c-4.6-1.5-2.7-8.6,2-7.3c52,14.7,108.7-16.4,158.5-29.8c12.8-3.4,18.2,16.4,5.5,19.8C1462.3,949.8,1399.6,970.6,1347.3,953.4z
			 M1369.1,691.1c14.7-2,28.8-5.6,43.1-9.5c11.7-3.2,24.2-10.2,36.2-6.6c4.6,1.4,6.1,7.1,2.8,10.6c-8.6,9-22.5,8.4-34.4,9.6
			c-15.6,1.6-31.3,1.4-47,1.5C1366.7,696.8,1365.9,691.6,1369.1,691.1z M1463.4,725.6c-22.6,9.7-54.9,11-78.2,3.5
			c-3.8-1.2-2.2-6.4,1.6-5.8c25.9,3.9,47.8-15.4,72.7-12C1466,712.1,1471.4,722.2,1463.4,725.6z M1453.5,650.7
			c-41.2,10.6-87.5,13.3-129.9,11.2c-2.9-0.1-2.9-4.5,0-4.5c44,0.1,83.1-14,125.8-21.5C1459,634.2,1463.2,648.2,1453.5,650.7z
			 M1377.7,574.8c-24.8,6.3-50.4,9.6-76.2,9.8c-0.5-64-1.3-128.1-2.4-192.1C1320.7,455.4,1347.1,516.3,1377.7,574.8z M1267.1,618.8
			c5.9,0.7,11.8,1,17.7,1.2c5.6,0.1,11.3,0,16.9-0.3c45.5-2.7,90.5-19,133.4-32.3c14.5-4.5,21,19.3,6.3,22.7
			c-47.2,10.9-92.6,17.5-139.7,14.5c-5.6-0.4-11.3-0.9-17-1.5c-5.9-0.7-11.9-1.5-17.9-2.5C1265.9,620.4,1266.1,618.7,1267.1,618.8z
			 M1108.1,1092.2c2.7-39,3.5-78.1,2.4-117.2c-0.6-19.4-1.6-39.2,3-58.1c3.6-14.8,11.2-29.1,22.7-38.6c5.7,11.2,13.1,26.1,12,28.1
			c25.7-47.8,81.9-70.1,135.5-79.8c-0.1,10.5-0.1,21-0.2,31.6c-0.1,19.4-0.2,38.9-0.3,58.3c-9.4-1-18.9-2-28.8-2.8
			c-88-7-124.4,68.2-128.7,145.3c-2.8,51.2-4.5,143.8,44.8,176.5c28.3-33.7,68.1-55.4,110.9-66.9c-0.2,23.7-0.4,47.3-0.6,71
			c-0.3,41-4.7,84.4-1.3,125.4c-27.8-0.1-53.5-6.3-75.4-25.6c-19.7-17.3-37-38.2-52.7-59.5c-1-4.6-3.9-9-8.2-11.4
			c-1.2-1.7-2.4-3.4-3.6-5.1c-26.8-38.6-42.3-95.4-88.1-115.2c-23.1-10-47.9-18.6-73.4-25.1c3.3-15.5,3.9-31.7,3.7-47.9
			C1023.9,1080.9,1066,1086.6,1108.1,1092.2z M1048.6,1003.7c-5.3-0.3-11.3-0.2-16.1-2.6c-9.7-4.9-16-18.7-21.6-27.4
			c-3.1-4.9,4.5-10.8,8.1-6.2c5.7,7.4,12.8,20.1,22.7,21.9c8.7,1.6,17.5-2.3,26.1,0.7c6.4,2.3,6.1,10.4,0,12.8
			C1061.6,1005.2,1055.1,1004.1,1048.6,1003.7z M1057.4,1058.4c-15.8-0.6-30-7.3-36.9-22.2c-5.6-12.2,11.8-19.3,16.8-7.1
			c3.7,9,11,10.9,20,10.4C1069.5,1038.8,1069.6,1058.8,1057.4,1058.4z M1071.8,966.1c-11.3,0.3-24.2-5.6-33.6-11.7
			c-8.3-5.3-17.7-24.8-28-24c-6.7,0.5-6.4-9.6,0-10.3c11.2-1.2,17.9,7.9,24.5,15.5c10.8,12.5,26.6,11.7,40.2,19.2
			C1080.2,957.9,1077.6,965.9,1071.8,966.1z M1001.9,875.8c14.4-4.3,27.8,2.4,39.1,11.3c6.7,5.3,12.5,11.7,19.2,16.9
			c6.9,5.4,14.2,7.3,21.9,11c5.9,2.9,4.2,12.3-1.8,13.8c-33.3,8.3-44.7-50.2-76.1-44.8C998.8,884.9,996.6,877.4,1001.9,875.8z
			 M999.1,1022.4c-0.4,2.7-3.1,3.9-5.5,4.4c-1.7-0.5-1.9-4.1-2.3-5.4c-0.5-1.6-1.2-3-2.4-4.2c-0.4-0.4-1.1,0.2-0.7,0.7
			c1,1,1.6,2.1,1.8,3.5c-0.3-0.3-0.6-0.6-0.9-0.9c-0.9-0.7-1.8-1-3-1c-0.2,0-0.2,0.4,0,0.4c0.5,0,1,0,1.5,0.2c0.8,0.3,1,0.9,1.2,1.6
			c0.2,0.9,0.5,2.1,1.3,2.8c0,0,0.1,0,0.1,0.1c0,0.5,0,1,0.1,1.5c0.1,0.7,0.4,1.4,0.8,2c-0.8,0.7-1.7,1.2-2.8,1
			c-1.3-0.3-2.8-2.1-3.2-3.4c0-0.2-0.3-0.1-0.3,0c0.2,3.2,2.8,5.3,5.5,5.1c-0.4,0.7-1,1.4-1.8,1.7c-1,0.4-2.4,0.3-3.5,0
			c-1.3-0.4-1.9-1.2-2.6-2.3c-0.8-1.1-1.2-2.5-1.6-3.7c-0.7-2.1-1.5-4-3.9-4.8c-0.5-0.2-0.7,0.6-0.2,0.8c3.6,1.3,2.3,5,3.5,7.9
			c0.2,0.5,0.4,1,0.7,1.5c0.8,1.5,1.8,2.7,3.5,3.4c1.7,0.6,3.7,0.8,5.4,0.3c-1.9,1-4.4,0.9-6.3,0c-1.1-0.5-1.9-1.2-2.6-2
			c-0.6-0.8-1.1-1.7-1.5-2.8c-0.8-2.2-1.6-4.3-2.9-6.3c-4.6-7.3-12.1-12.1-19.2-16.8c-0.7-0.5-1.5-1-2.2-1.5
			c-15.5-10.3-30.7-21.1-47.2-29.7c0.2-0.4,0.2-1-0.2-1.4c-1.3-1.5-2.2-3.3-3.3-5c-1-1.5-1.7-2.8-3.4-3.5c-2-0.8-3.9-1.2-5.7-2.7
			c-0.9-0.8-1.9-1.6-1.7-2.9c0.1-1.1,0.7-2.3,1.4-3.2c0.3-0.5-0.4-0.9-0.8-0.4c-1,1.4-2.2,3.5-1.4,5.2c0.8,1.7,2.6,3,4.1,4
			c1,0.6,1.9,0.9,3,1.3c1,0.4,1.6,1,2,1.8c-0.4-0.1-0.8-0.1-1.2-0.2c-1.4-0.2-2.7-0.6-4-1.1c-2.8-1.1-6.8-3.4-5-7.1
			c0.3-0.6-0.6-1.1-0.9-0.5c-1.2,2.5-0.3,5.7,1.8,7.4c1.4,1.1,2.9,1.9,4.5,2.5c1.8,0.7,3.6,1.2,5.3,2.2c0.4,0.2,0.7,0.3,1.1,0.2
			c0.2,0.5,0.4,1,0.7,1.5c-2.2-1.1-4.4-2.1-6.7-3.1c-2.3-1-5-1.7-6.9-3.3c-2.2-1.9-2.1-5.1-0.9-7.5c1.3-2.6,3.9-4.5,6.1-6.2
			c0.3-0.2,0.3-0.5,0.3-0.8c2.2-3.5,8.3-7.9,10.9-2.7c0.8,1.7,1.2,3.5,2.2,5.2c0.5,0.8,1.1,1.6,1.7,2.3c-1.4,0-2.8,0.3-4,0.5
			c-1.6,0.2-3.2,0.4-4.7-0.3c-1.4-0.7-3.6-2.5-3.6-4.2c0-0.4-0.6-0.4-0.7,0c-0.3,2.6,2.9,5,5.1,5.9c1.5,0.6,3.2,0.7,4.8,0.7
			c1.8,0,3.8,0.2,5.5,0c0.1,0,0.1,0,0.2,0c0,0,0,0,0,0c1.7,1.5,3.4,3.1,4.7,5c1.4,2,2.4,4.2,4,6c3,3.5,7.4,5.3,10.6,8.6
			c1.6,1.7,3.1,3.5,4.7,5.2c1.8,1.8,3.8,3.2,5.9,4.5c2.1,1.2,4.2,2.3,6.2,3.8c2,1.4,3.8,3.1,5.7,4.7c0.2,0.2,0.4,0.4,0.6,0.5
			c3.8,3.1,8.1,5,12.5,7.1c4.4,2,8,5,12.1,7.4c0.1,0,0.2,0.1,0.2,0.1c1.9,1.1,4,2,6.2,2.2c2.8,0.3,5.9-1.3,8.6-0.1
			C997.8,1016.9,999.5,1019.8,999.1,1022.4z M910.2,1027.2c0.4-0.7,1.1-1.2,1.6-1.8c0.4-0.6,0.9-1.1,1.4-1.7
			c0.1-0.1,0.2-0.2,0.3-0.3c-0.3,1.4-0.6,2.9-1.1,4.2c-0.9,2.4-2.5,3.7-4.5,5.2c-0.1,0.1-0.2,0.1-0.2,0.2c0,0-0.1,0-0.1,0
			c-1.4,0-2.8,0.2-4.2,0.1c-0.8,0-1.5,0-2.1-0.6c-0.1,0-0.3-0.4-0.6-0.7c1.4,0.1,2.8,0.1,4.3-0.6c1.6-0.9,3-2.5,3.8-4.1
			c0.3-0.6-0.5-1.1-0.9-0.5c-1,1.7-2.3,2.7-4.2,3.2c-1.7,0.5-3,0-4.6-0.1c-0.4,0-0.9,0.3-1,0.8c-0.4,1.5,1.4,3.7,2.7,4.4
			c1.1,0.6,2.5,0.9,4,0.9c-0.7,0.5-1.5,0.8-2.3,0.8c-2.2-0.1-3.7-2.5-4.7-4.2c-0.6-1.1-1.1-2.2-1.6-3.4c-0.3-0.7-0.7-1.4-1.6-1.4
			c-1-0.1-1.6,0.5-2.7-0.1c-0.7-0.4-1.4-0.8-2-1.3c0.5-0.1,1.1-0.1,1.4-0.2c0.6-0.1,1.1-0.3,1.6-0.5c1-0.4,1.8-1,2.5-1.8
			c1.5-1.9,1-4.3,0.4-6.5c-0.2-0.6-1.1-0.4-1,0.3c0.6,2.6,0.6,5.5-2.6,6.3c-1.5,0.3-3.3-0.3-4.5,0.9c-1.7-1.2-3-2.6-2.7-5
			c0.8-5.2,7.1-6.5,11.4-7.1c2.2-0.3,4.5-0.2,6.7-0.4c-0.1,0.1-0.1,0.1-0.2,0.2c-1.4,1.2-3.1,2.1-4.6,3.1c-0.5,0.4-0.2,1.3,0.5,1.1
			c1.7-0.5,3.2-1.3,4.7-2.3c1.4-1,2.4-2.4,3.9-3.4c0.2-0.1,0.4-0.3,0.5-0.5c0.4-0.3,0.7-0.6,1-0.9c3.5-3.4,7.2-6.1,11.2-8.8
			c3.8-2.5,7.5-5,10.5-8.4c2.8,1.9,5.6,3.8,8.4,5.8c0,0-0.1,0.1-0.1,0.1c-3,3.7-7.4,6.1-11.1,8.9c-3.9,3-7.5,6.2-10.9,9.7
			c-0.8,0.8-1.5,1.6-2,2.5c0,0,0,0-0.1,0c-1.2,1-2.1,2.2-2.9,3.5c-0.4,0.6-0.8,1.2-1.2,1.8c-0.5,0.8-0.6,1.5-1,2.4
			C909.4,1027.3,910,1027.6,910.2,1027.2z M925.1,957.3c0.1,0,0.1,0,0.2,0c0.3,0.5,0.3,1,0.3,1.7c0,0.3-0.1,1.7-0.5,1.8
			C924.2,961.1,924.6,958.3,925.1,957.3z M927.7,962.7c-0.2,0-0.5,0-0.7,0.1c-0.3-0.3-0.5-0.6-0.4-0.9c-0.1-0.3,0-0.7,0-1
			c0-0.5,0-2.4,0.7-2.9c0.7,0.6,0.6,1.5,0.6,2.4c0,0.4,0,0.7,0,1.1C927.7,961.6,927.7,962.6,927.7,962.7z M929.8,964.2
			c-0.9,0.5-1.3-1.2-1.2-2.9c0-0.3,0-0.5,0.1-0.8c0.1-1,0.5-1.9,1-1.9c0.7,0.4,0.4,2.6,0.4,3.1C930,962.2,930.2,964,929.8,964.2z
			 M932.1,960C932.2,960,932.2,960,932.1,960c1,0.9,0.7,2.3,0.5,3.4c0,0.3-0.1,2.2-0.4,2.4c-0.1-0.1-0.1-0.2-0.2-0.4
			c-0.4-0.1-0.6-0.4-0.6-0.8c-0.2-0.5-0.2-1-0.2-1.5C931.3,962.2,931.1,960.2,932.1,960z M934.7,967.1c-1-0.3-0.8-2.3-0.7-3.1
			c0.1-1.1,0.2-3.5,1.5-4.1c0,0.1,0.1,0.2,0.2,0.2c0.6,0.3,0.4,2.8,0.3,3.3C936,964.2,936.3,967.6,934.7,967.1z M940.3,966.7
			c0.2,0.6,0,0.8-0.5,0.5c-0.3,0-0.6,0-0.9-0.1c-1.8-0.3-1.7-1.9-1.5-3.4c0.1-0.7,0.2-1.5,0.4-2.2c0.4-1,0.9-1.4,1.7-1.2
			c0,0.1,0,0.2,0.1,0.3c0.9,1.4,0.8,2.8,0.7,4.4C940.3,965.4,940.4,966.2,940.3,966.7z M980.1,948.5c1.4-0.4,2.8-0.6,3.9,0.1
			c-0.2,0.2-0.4,0.5-0.4,0.9c0,2.2,0.8,3.6-0.9,5.4c-0.7,0.7-1.6,1.4-2.5,1.9c-0.8,0.5-1.6,0.9-2.4,1.1c-0.5,0.2-0.3,1,0.2,0.9
			c0.7-0.2,1.4-0.5,2.1-0.7c1.6-0.6,3.1-1.3,4.3-2.5c0.6-0.5,1-1.3,1.4-2c0,0.3,0.1,0.7,0.2,1c0.4,1.7,1.6,1.7,3.1,1.8
			c0,0,0.1,0,0.1,0c-0.1,1.7-0.5,3.1-1.5,4.5c-0.9,1.2-2.6,2.7-4.1,3.3c-0.3,0.1-0.2,0.5,0.1,0.5c1-0.1,1.9,0,2.8-0.5
			c1-0.5,1.9-1.2,2.7-2c1.2-1.4,2-3.3,2.1-5.2c0.6,0.2,1.1,0.5,1.6,0.9c-0.3,0.7-0.4,1.4-0.7,2.1c-0.5,1-1.2,2.1-1.9,2.9
			c-0.4,0.5,0.2,1.2,0.7,0.7c0.9-0.9,2-1.5,2.6-2.7c0.2-0.4,0.5-1,0.6-1.5c0.2,0.3,0.4,0.7,0.5,1.1c0.5,2-1,5-2.3,6.4
			c-1.5,1.6-3.6,2.4-5.6,2.8c-2.2,0.5-4.4,0.7-6.6,1.1c-1.9,0.3-3.7,0.8-5.4,1.7c-4.6,2.5-9,5.5-13.1,8.6c-2.1,1.6-4.3,3.2-6.5,4.8
			c-2,1.6-4,3.3-5.7,5.2c0,0,0,0.1-0.1,0.1c-0.1,0-0.1-0.1-0.2-0.1c-2.4-1.5-5-2.7-7.3-4.3c-0.6-0.4-1.2-0.9-1.8-1.4
			c4.9-3.8,10-7.3,15.1-10.9c2.8-1.9,5.7-3.9,8.5-5.9c3.2-2.2,5.8-5,7.3-8.6c0.8-1.9,1.1-3.8,1.7-5.7c0.8-2.5,2.4-3.9,4.7-4.9
			C978.3,949.1,979.2,948.8,980.1,948.5z M942.8,960.5c0-0.1,0.1-0.1,0.1-0.2c1.7-0.2,1.8,2.9,1.9,3.9c0.1,1.4-0.2,3.3-2.1,2.9
			c-0.1,0-0.3,0.1-0.4,0.1c0-0.4,0-0.8,0-1.2c0-0.6,0-1.2,0-1.8C942.1,962.9,942,961.8,942.8,960.5z M946.4,960.2
			c0.1-0.1,0.2-0.1,0.2-0.2c2.1,1,1.8,7.1,0.8,7.1c-0.4-0.3-0.8-0.6-1.2-1c0-0.3,0-0.6-0.1-0.9c0-0.5-0.1-1-0.1-1.5
			C946,963.3,945.8,960.5,946.4,960.2z M949.9,960C949.9,960,949.9,960,949.9,960c1,0.2,0.8,2,0.8,2.8c0,0.4,0,0.9,0,1.3
			c0.1,0.6-0.1,1-0.5,1.2c-0.2,0.1-0.4,0.3-0.5,0.5c-0.1,0-0.3-2-0.3-2.2C949.2,962.4,948.8,960.9,949.9,960z M952.5,958.7
			c0.5,0,0.8,0.8,0.9,1.8c0,0.3,0.1,0.6,0.1,0.9c0,1.6-0.4,3.3-1.2,2.8c-0.4-0.2-0.2-2-0.2-2.4C952.1,961.3,951.8,959,952.5,958.7z
			 M955,957.9c0.3,0.2,0.4,0.7,0.5,1.2c0.1,0.6,0.1,1.2,0.1,1.5c0,0.3,0.1,0.7,0,1c0,0.1-0.1,0.4-0.2,0.7c-0.2,0.5-0.5,1-1,0.4
			c-0.2-0.2,0-1.8,0-2.2C954.4,959.6,954.2,958.6,955,957.9z M956.8,957.3c0.1,0,0.1,0,0.2,0c0.5,1,0.7,3.8,0,3.5
			c-0.4-0.2-0.4-1.4-0.5-1.8C956.5,958.3,956.5,957.8,956.8,957.3z M978.9,910.9c-0.6,3-1.6,5.9-2,9c-0.3,1.9-0.2,4-0.6,5.9
			c-0.7-1.3-1.5-2.6-2.1-3.9c-1.2-2.8-0.6-5.8,0.4-8.6c1.6-4.8,4.2-10.2,1-14.9c-0.3-0.4-1,0-0.7,0.4c3.7,5.9-1.7,12.4-2.9,18.2
			c-0.6,3-0.2,5.5,1.2,8.2c1.5,3.1,2.4,5.8,2.2,9.3c-0.1,2.9,0.2,6.9-2.6,8.6c-2.6,1.7-6.1,1.8-9.1,1.7c-2.7-0.1-5,0.9-6.3,3.4
			c-0.5,1.1-0.8,2.3-0.8,3.5c0,1,0.8,3.2-0.1,4c-0.4,0.3-0.4,0.8-0.2,1.1c-0.3,0.4-0.4,0.8-0.5,1.3c0-0.1-0.1-0.1-0.2-0.2
			c-0.1-0.1-0.2-0.3-0.3-0.3c-0.1-0.3-0.4-0.5-0.7-0.3c-0.6,0.4-0.9,0.9-1,1.5c-0.1-0.2-0.3-0.3-0.4-0.4c0-0.1,0-0.3-0.2-0.3
			c-1.5-0.7-1.7,0.9-1.7,2.1c-0.2-0.4-0.6-0.7-1.1-0.6c-0.2-0.3-0.6-0.4-0.8-0.1c-0.5,0.5-0.8,1.2-0.9,1.9c-0.3-0.9-0.9-1.7-1.9-1.8
			c-0.2-0.1-0.4-0.2-0.7,0c-0.5,0.4-0.6,1.1-0.6,1.8c-0.6-1.7-1.6-2.3-3.3-1.1c-0.2,0.1-0.2,0.3-0.1,0.4c-0.2,0.4-0.4,0.7-0.5,1.2
			c-0.1-0.4-0.3-0.8-0.6-1.2c0.1-0.1,0.1-0.3-0.1-0.4c-1.5-1-2.9-1-3.6,0.9c0,0.1-0.1,0.2-0.1,0.3c0-0.7-0.1-1.5-0.6-1.9
			c-0.2-0.2-0.5-0.2-0.7,0c-1,0.1-1.6,0.9-1.9,1.8c-0.1-0.7-0.3-1.4-0.9-1.9c-0.3-0.3-0.7-0.1-0.8,0.1c-0.5,0-0.9,0.2-1.1,0.6
			c0-1.2-0.2-2.8-1.7-2.1c-0.2,0.1-0.2,0.2-0.2,0.4c-0.2,0.1-0.3,0.2-0.4,0.4c-0.1-0.6-0.4-1.1-1-1.5c-0.3-0.2-0.6,0.1-0.7,0.3
			c-0.2,0.1-0.4,0.3-0.5,0.6c0-0.5-0.2-0.9-0.5-1.3c0.2-0.3,0.2-0.8-0.2-1.1c-0.8-0.7,0-2.9-0.1-4c0-1.2-0.3-2.4-0.8-3.5
			c-1.2-2.4-3.4-3.5-6-3.4c-3.1,0.1-6.7,0.1-9.4-1.7c-2.8-1.8-2.5-5.7-2.6-8.6c-0.1-3.5,0.7-6.2,2.2-9.3c1.3-2.6,1.8-5.1,1.2-7.9
			c-1.2-5.9-6.7-12.6-3-18.5c0.3-0.5-0.4-0.9-0.7-0.4c-2.7,4-1.3,8.8,0.2,12.9c1,2.6,2,5.3,1.7,8.2c-0.3,2.4-1.6,4.3-2.8,6.3
			c-0.3-1.5-0.3-3-0.5-4.5c-0.3-2.8-1.1-5.5-1.7-8.2c-1.2-4.9-1.4-9.9-0.2-14.8c2.3-10.4,10.2-17.4,19.9-21c2.6-1,5.2-1.7,7.9-2.3
			c2.9-0.6,5.9-1.4,8.9-1c0.1,0.2,0.3,0.3,0.6,0.2c0.1,0,0.2,0,0.3-0.1c0.1,0,0.2,0,0.3,0.1c0.3,0.1,0.5-0.1,0.6-0.2
			c2.5-0.3,5,0.2,7.5,0.7c2.2,0.5,4.4,1.1,6.5,1.7c0.3,0.1,0.6,0.1,0.9,0.2c4.9,1.6,9.7,4,13.6,7.5
			C977.9,890.7,980.8,901.2,978.9,910.9z M1004.9,755.5c-2-0.6-2.2-4.7-2.7-6.2c-0.6-1.9-1.4-3.5-2.8-4.8c-0.5-0.5-1.3,0.3-0.8,0.8
			c1.2,1.2,1.9,2.5,2.1,4c-0.3-0.4-0.7-0.7-1.1-1c-1.1-0.9-2.1-1.2-3.5-1.2c-0.3,0-0.3,0.4,0,0.4c0.6,0,1.2,0,1.7,0.2
			c0.9,0.3,1.1,1,1.4,1.9c0.3,1.1,0.6,2.5,1.5,3.2c0,0,0.1,0.1,0.1,0.1c0,0.6,0,1.2,0.1,1.8c0.1,0.8,0.4,1.7,0.9,2.3
			c-0.9,0.8-1.9,1.4-3.3,1.1c-1.6-0.4-3.3-2.5-3.7-3.9c-0.1-0.2-0.4-0.2-0.3,0c0.2,3.7,3.2,6.1,6.4,5.9c-0.5,0.8-1.1,1.6-2.1,2
			c-1.2,0.5-2.8,0.3-4,0c-1.5-0.4-2.2-1.4-3-2.7c-2.3-3.4-2-8.4-6.4-9.9c-0.6-0.2-0.8,0.7-0.3,0.9c4.2,1.6,2.6,5.8,4,9.1
			c1,2.5,2.2,4.7,4.8,5.7c2,0.8,4.3,1,6.3,0.3c-2.2,1.2-5.1,1-7.3,0c-2.5-1.1-3.8-3.1-4.7-5.6c-0.9-2.5-1.9-5-3.3-7.3
			c-1.7-2.7-3.8-5.1-6.1-7.3c-4.8-4.7-10.6-8.5-16.1-12.1c-2-1.3-4-2.7-5.9-4c-16.8-11.2-33.4-22.8-51.4-32.1
			c0.2-0.5,0.2-1.1-0.2-1.6c-1.5-1.7-2.5-3.9-3.8-5.8c-1.1-1.7-2-3.2-4-4c-2.4-0.9-4.6-1.4-6.6-3.1c-1.1-0.9-2.2-1.9-2-3.4
			c0.1-1.3,0.8-2.6,1.6-3.7c0.4-0.6-0.5-1.1-0.9-0.5c-1.1,1.6-2.5,4.1-1.6,6.1c0.9,1.9,3,3.5,4.8,4.6c1.1,0.7,2.2,1,3.4,1.5
			c1.1,0.5,1.8,1.2,2.3,2c-0.5-0.1-0.9-0.1-1.4-0.2c-1.6-0.2-3.1-0.6-4.6-1.2c-3.2-1.3-7.9-3.9-5.8-8.2c0.3-0.7-0.7-1.3-1-0.6
			c-1.4,2.9-0.3,6.7,2.1,8.5c1.6,1.2,3.3,2.2,5.2,2.9c2.1,0.9,4.2,1.4,6.1,2.6c0.4,0.3,0.9,0.3,1.2,0.2c0.2,0.6,0.5,1.2,0.8,1.7
			c-2.5-1.2-5.1-2.4-7.7-3.6c-2.6-1.1-5.8-1.9-8-3.8c-2.5-2.2-2.4-5.9-1-8.7c1.5-3,4.5-5.2,7.1-7.2c0.3-0.2,0.4-0.6,0.3-0.9
			c2.5-4.1,9.6-9.1,12.6-3.1c1,1.9,1.4,4.1,2.5,6c0.6,1,1.2,1.8,2,2.6c-1.6,0-3.3,0.4-4.7,0.6c-1.9,0.3-3.7,0.5-5.5-0.4
			c-1.6-0.8-4.2-2.9-4.1-4.9c0-0.5-0.7-0.5-0.8,0c-0.3,3,3.4,5.8,5.9,6.8c1.7,0.7,3.7,0.9,5.5,0.8c2.1-0.1,4.4,0.2,6.4,0
			c0.1,0,0.2,0,0.2,0c0,0,0,0,0,0c2,1.8,3.9,3.6,5.4,5.8c1.6,2.3,2.8,4.8,4.6,7c3.4,4.1,8.6,6.1,12.3,9.9c1.9,1.9,3.6,4.1,5.5,6
			c2,2.1,4.3,3.7,6.8,5.2c2.4,1.4,4.9,2.7,7.2,4.4c1.1,0.8,2.1,1.7,3.2,2.5c1.4,1.2,2.7,2.4,4.1,3.5c4.4,3.6,9.3,5.8,14.4,8.2
			c1.2,0.5,2.3,1.2,3.4,1.8c3.7,2.1,7,4.7,10.7,6.8c2.3,1.3,4.8,2.4,7.5,2.6c3.3,0.3,6.8-1.5,9.9-0.1c2.7,1.2,4.7,4.6,4.3,7.6
			C1010.8,753.6,1007.6,755,1004.9,755.5z M908.2,756.1c0.4-0.8,1.2-1.4,1.8-2.1c0.5-0.6,1-1.3,1.6-1.9c0.1-0.1,0.2-0.2,0.3-0.4
			c-0.3,1.7-0.7,3.3-1.3,4.9c-1.1,2.7-2.9,4.3-5.2,6c-0.1,0.1-0.2,0.1-0.3,0.2c0,0-0.1,0-0.1,0c-1.6,0-3.3,0.2-4.9,0.1
			c-1-0.1-1.7,0-2.5-0.8c-0.1-0.1-0.4-0.4-0.7-0.8c1.7,0.1,3.2,0.2,4.9-0.7c1.9-1,3.5-2.9,4.5-4.8c0.3-0.7-0.6-1.2-1-0.6
			c-1.1,2-2.7,3.1-4.9,3.7c-2,0.5-3.4,0-5.3-0.2c-0.5,0-1,0.4-1.2,0.9c-0.5,1.8,1.7,4.3,3.1,5.1c1.3,0.7,2.9,1,4.6,1.1
			c-0.8,0.6-1.7,0.9-2.6,0.9c-2.5-0.1-4.3-2.9-5.4-4.9c-0.7-1.3-1.2-2.6-1.8-3.9c-0.3-0.8-0.8-1.6-1.8-1.7c-1.2-0.1-1.9,0.5-3.2-0.1
			c-0.8-0.4-1.6-1-2.4-1.5c0.5-0.1,1.2-0.1,1.6-0.2c0.6-0.1,1.3-0.4,1.9-0.6c1.1-0.5,2.1-1.2,2.8-2.1c1.7-2.3,1.2-5,0.4-7.5
			c-0.2-0.7-1.3-0.4-1.1,0.3c0.7,3.1,0.7,6.4-3.1,7.3c-1.8,0.4-3.8-0.4-5.2,1c-1.9-1.4-3.5-3-3.1-5.8c0.9-6.1,8.2-7.6,13.3-8.2
			c2.6-0.3,5.2-0.2,7.8-0.4c-0.1,0.1-0.1,0.2-0.2,0.2c-1.6,1.4-3.6,2.4-5.4,3.6c-0.6,0.4-0.3,1.5,0.5,1.3c1.9-0.6,3.8-1.5,5.4-2.6
			c1.6-1.1,2.8-2.8,4.5-3.9c0.3-0.2,0.4-0.4,0.5-0.6c0.4-0.3,0.8-0.6,1.2-1c4-3.9,8.4-7.1,13-10.2c4.4-2.9,8.7-5.8,12.2-9.7
			c3.3,2.2,6.5,4.4,9.8,6.7c0,0-0.1,0.1-0.1,0.1c-3.5,4.3-8.5,7-12.9,10.4c-4.5,3.4-8.7,7.2-12.6,11.2c-0.9,1-1.7,1.8-2.3,2.9
			c0,0,0,0-0.1,0c-1.4,1.1-2.4,2.6-3.4,4c-0.5,0.7-0.9,1.4-1.3,2.1c-0.6,1-0.7,1.7-1.2,2.8C907.3,756.1,908,756.6,908.2,756.1z
			 M925.4,675c0.1,0,0.1,0,0.2,0c0.3,0.6,0.4,1.2,0.3,2c0,0.4-0.1,1.9-0.5,2.1C924.4,679.4,924.9,676.2,925.4,675z M928.4,681.3
			c-0.3,0-0.6,0.1-0.9,0.1c-0.4-0.3-0.5-0.7-0.5-1.1c-0.1-0.4,0-0.8,0-1.2c0-0.6,0-2.8,0.8-3.4c0.8,0.7,0.7,1.8,0.6,2.8
			c0,0.4,0,0.8,0,1.3C928.4,680,928.5,681.2,928.4,681.3z M931,683.1c-1.1,0.5-1.5-1.4-1.4-3.3c0-0.3,0.1-0.6,0.1-0.9
			c0.2-1.2,0.5-2.1,1.1-2.2c0.8,0.4,0.5,3,0.5,3.6C931.2,680.8,931.4,682.8,931,683.1z M933.6,678.2
			C933.6,678.2,933.6,678.2,933.6,678.2c1.2,1,0.8,2.6,0.6,4c-0.1,0.4-0.1,2.6-0.4,2.8c-0.1-0.1-0.2-0.3-0.3-0.4
			c-0.5-0.2-0.7-0.5-0.7-1c-0.2-0.6-0.2-1.2-0.2-1.8C932.7,680.7,932.4,678.5,933.6,678.2z M936.6,686.4c-1.1-0.3-0.9-2.7-0.8-3.5
			c0.1-1.3,0.2-4.1,1.7-4.7c0,0.1,0.1,0.2,0.3,0.3c0.7,0.3,0.4,3.3,0.4,3.9C938.1,683.1,938.4,687,936.6,686.4z M943.1,685.9
			c0.2,0.7,0,0.9-0.5,0.6c-0.4,0-0.7,0-1.1-0.1c-2.1-0.4-2-2.2-1.8-4c0.1-0.8,0.2-1.8,0.5-2.5c0.5-1.1,1.1-1.6,2-1.4
			c0,0.1,0,0.2,0.1,0.3c1.1,1.6,0.9,3.2,0.9,5.1C943.1,684.4,943.2,685.4,943.1,685.9z M1056.9,730c-5.1,1.7-11.1,1.9-16.4,1.5
			c-5.9-0.5-10.3-4.5-10.6-10.6c-0.2-5.3,5-11.1,10.6-10.6c2.3,0.2,4.5,0.3,6.8,0.2c-0.1,0,2.5-0.2,2.1-0.1c1.6-0.2,3.1-0.5,4.7-0.6
			c5.1-0.5,9.5,4.3,10.1,8.9C1065,724,1061.8,728.4,1056.9,730z M1071.5,667.6c-1.3,7.9-11.7,13.8-19,15.6
			c-7.2,1.8-15.4,1.3-22.6-0.3c-6.6-1.5-3.6-10.9,2.7-9.9c6.4,1,10.6-1.4,15.7-4.8c4.8-3.1,8.7-8.4,14.4-9.4
			C1068.4,657.9,1072.4,662,1071.5,667.6z M1051.4,638.7c-11.2,4.9-18.6,4.9-30.3,2.4c-3.8-0.8-2.7-6.4,0.9-6.5
			c8.9-0.2,19.8-7.1,26.9-12c7-4.8,12.2-11.8,21.2-9.6c2.5,0.6,5,3.5,4.7,6.1C1073.4,630.4,1060.8,634.6,1051.4,638.7z M1003,598.1
			c33.7,2.5,53.4-22.5,69.5-48.5c7.1-11.4,25.3-0.7,18,10.5c-19,29-52.5,50.8-88.3,44.2C998.6,603.7,999.5,597.9,1003,598.1z
			 M993.7,665c-0.3,0.3-0.4,0.6-0.4,1c0,2.5,0.9,4.2-1.1,6.2c-1.5,1.6-3.6,2.9-5.6,3.6c-0.6,0.2-0.4,1.2,0.3,1
			c2.7-0.8,5.4-1.8,7.5-3.8c0.7-0.6,1.2-1.5,1.6-2.4c0,0.4,0.1,0.8,0.2,1.2c0.5,2,1.9,1.9,3.6,2.1c0,0,0.1,0,0.1,0
			c-0.2,1.9-0.5,3.6-1.7,5.2c-1.1,1.4-3,3.1-4.7,3.8c-0.3,0.1-0.3,0.6,0.1,0.6c1.2-0.1,2.2,0,3.3-0.5c1.2-0.5,2.3-1.4,3.1-2.3
			c1.4-1.6,2.4-3.9,2.5-6.1c0.6,0.3,1.3,0.6,1.8,1c-0.3,0.8-0.4,1.6-0.8,2.4c-0.5,1.1-1.4,2.4-2.2,3.4c-0.5,0.6,0.3,1.4,0.8,0.8
			c1.1-1.1,2.3-1.8,3-3.2c0.3-0.5,0.5-1.1,0.7-1.7c0.2,0.4,0.4,0.8,0.5,1.3c0.6,2.3-1.1,5.7-2.7,7.4c-1.7,1.8-4.1,2.7-6.5,3.3
			c-4.7,1.1-9.5,0.9-13.9,3.3c-1.5,0.8-3,1.8-4.5,2.7c-3.7,2.3-7.3,4.7-10.8,7.2c-3.7,2.7-7.5,5.5-11,8.6c-1.1,1-2.1,2-3.1,3
			c0,0,0,0.1-0.1,0.1c-0.1,0-0.1-0.1-0.2-0.1c-2.8-1.7-5.7-3.1-8.5-5c-0.7-0.5-1.4-1-2.1-1.6c4.5-3.5,9.2-6.9,13.9-10.2
			c4.4-3.1,8.9-6.1,13.3-9.2c3.5-2.5,6.4-5.5,8.2-9.4c0.1-0.2,0.2-0.3,0.3-0.5c0.9-2.2,1.3-4.4,2-6.7c0.9-2.9,2.8-4.5,5.5-5.7
			C988.4,665,991.6,663.6,993.7,665z M946,678.8c0-0.1,0.1-0.2,0.1-0.3c2-0.2,2.1,3.3,2.2,4.6c0.1,1.6-0.3,3.8-2.5,3.4
			c-0.2,0-0.3,0.1-0.5,0.1c0-0.5,0-0.9,0-1.4c0-0.7,0-1.4,0-2.1C945.2,681.6,945.1,680.3,946,678.8z M950.1,678.4
			c0.1-0.1,0.2-0.1,0.3-0.2c2.4,1.1,2.1,8.3,0.9,8.2c-0.5-0.4-1-0.7-1.4-1.1c0-0.3,0-0.7-0.1-1c0-0.6-0.1-1.1-0.1-1.7
			C949.7,681.9,949.5,678.7,950.1,678.4z M954.2,678.2C954.2,678.2,954.2,678.2,954.2,678.2c1.2,0.3,1,2.3,1,3.3c0,0.5,0,1,0,1.5
			c0.1,0.7-0.1,1.1-0.6,1.4c-0.3,0.1-0.4,0.3-0.5,0.6c-0.1,0-0.3-2.3-0.4-2.5C953.4,681,953,679.2,954.2,678.2z M957.1,676.8
			c0,0,0-0.1,0.1-0.1c0.6,0,0.9,0.9,1.1,2c0,0.4,0.1,0.7,0.1,1.1c0,1.8-0.4,3.5-1.3,3.3c-0.1,0-0.1,0-0.2,0
			c-0.5-0.2-0.2-2.3-0.2-2.8C956.7,679.7,956.5,677.3,957.1,676.8z M960.1,675.8c0.7,0.6,0.7,2.6,0.7,3.1c0,0.4,0.1,0.8,0,1.2
			c-0.1,0.4-0.5,2.2-1.4,1.3c-0.3-0.3,0-2.1,0-2.5C959.4,677.7,959.2,676.5,960.1,675.8z M961.9,676.9c-0.1-0.8,0-1.3,0.3-2
			c0.1,0,0.1,0,0.2,0c0.5,1.2,0.8,4.4,0,4C962,678.8,962,677.4,961.9,676.9z M978,590C978,590,978,590,978,590
			c8.6,7.8,12,20.1,9.8,31.3c-0.7,3.5-1.9,6.9-2.4,10.4c-0.3,2.2-0.3,4.6-0.7,6.8c-0.8-1.5-1.8-3-2.5-4.6c-1.4-3.3-0.7-6.7,0.4-10
			c1.9-5.5,4.8-11.8,1.1-17.3c-0.3-0.5-1.2,0-0.8,0.5c4.3,6.8-2,14.4-3.4,21.1c-0.7,3.4-0.2,6.4,1.3,9.5c1.7,3.6,2.7,6.7,2.6,10.8
			c-0.1,3.4,0.2,8-3,10c-0.6,0.4-1.3,0.7-2.1,1c-2.7,1-5.8,1.1-8.5,1c-3.2-0.2-5.8,1-7.3,3.9c-0.6,1.2-0.9,2.7-0.9,4
			c0,1.2,0.9,3.7-0.1,4.6c-0.5,0.4-0.4,0.9-0.2,1.3c-0.3,0.4-0.5,1-0.5,1.5c-0.1-0.3-0.3-0.5-0.6-0.7c-0.1-0.3-0.5-0.6-0.8-0.4
			c-0.7,0.4-1,1-1.2,1.7c-0.1-0.2-0.3-0.3-0.5-0.4c0-0.2,0-0.3-0.2-0.4c-0.2-0.1-0.3,0-0.5-0.1c-1.2-0.2-1.5,1.3-1.5,2.5
			c-0.3-0.5-0.7-0.8-1.3-0.7c-0.2-0.3-0.6-0.5-1-0.2c-0.6,0.6-0.9,1.4-1,2.2c-0.4-1.1-1-2-2.2-2.1c-0.2-0.2-0.5-0.2-0.8,0.1
			c-0.6,0.5-0.7,1.3-0.7,2.1c-0.7-2-1.8-2.7-3.9-1.3c-0.2,0.1-0.2,0.3-0.1,0.5c-0.3,0.4-0.5,0.9-0.6,1.3c-0.1-0.5-0.3-0.9-0.6-1.3
			c0.1-0.1,0.1-0.3-0.1-0.5c-1.8-1.2-3.4-1.1-4.1,1c0,0.1-0.1,0.2-0.1,0.4c0-0.8-0.1-1.7-0.7-2.2c-0.3-0.3-0.6-0.2-0.8-0.1
			c-1.2,0.1-1.8,1-2.2,2.1c-0.1-0.8-0.4-1.6-1-2.2c-0.3-0.3-0.8-0.2-1,0.2c-0.6-0.1-1,0.3-1.3,0.7c0-1.4-0.3-3.2-2-2.4
			c-0.2,0.1-0.2,0.3-0.2,0.4c-0.2,0.1-0.4,0.2-0.5,0.4c-0.2-0.7-0.5-1.3-1.2-1.7c-0.3-0.2-0.7,0.1-0.8,0.4c-0.3,0.1-0.5,0.4-0.6,0.7
			c-0.1-0.6-0.2-1.1-0.5-1.5c0.2-0.4,0.3-0.9-0.2-1.3c-1-0.9,0-3.4-0.1-4.6c-0.1-1.4-0.3-2.8-0.9-4c-1.4-2.7-3.9-4.1-6.9-4
			c-3.6,0.1-7.8,0.1-10.9-1.9c-3.2-2-2.9-6.6-3-10c-0.1-4.1,0.9-7.2,2.6-10.8c1.5-3,2.1-5.9,1.4-9.2c-1.3-6.8-7.7-14.6-3.4-21.4
			c0.3-0.5-0.5-1-0.8-0.5c-3.2,4.6-1.5,10.2,0.3,15c1.1,3.1,2.4,6.2,2,9.5c-0.3,2.7-1.9,4.9-3.2,7.3c-0.3-1.7-0.3-3.5-0.5-5.2
			c-0.4-3.3-1.2-6.3-2-9.5c-1.4-5.6-1.6-11.5-0.3-17.2c2.7-12.1,11.8-20.2,23.1-24.4c3-1.1,6.1-2,9.2-2.7c3.3-0.7,6.9-1.6,10.3-1.2
			c0.1,0.2,0.4,0.4,0.7,0.3c0.1,0,0.2-0.1,0.4-0.1c0.1,0,0.2,0.1,0.4,0.1c0.3,0.1,0.6-0.1,0.7-0.3c2.9-0.4,5.8,0.2,8.7,0.8
			c1.4,0.3,2.7,0.6,4.1,1c1.5,0.4,3,0.8,4.5,1.3C968,583.3,973.5,586,978,590z M523.8,759.5c12.5-10.5,25.1-21,37.8-31.4
			c17.4-13.6,34.5-27.5,51.4-41.7c11.1-8.7,22.2-17.4,33.5-25.9c14.2-10.7,28.6-21.4,43.6-31.1c-12,20-21.3,41.5-26.2,64.8
			c-7.6,35.6-5,72.3-2.6,108.3c2.9,44.9,4.5,89.4,12.1,133.8c5,29.7,11.8,59.1,19.7,88.1c-8.4-7.1-17.5-13.4-27.2-18.8
			c0-0.1,0.1-0.3,0.1-0.4c2.1-22.1-6.7-45.6-10.5-67.4c-4.3-24.6-7.8-49.3-10.6-74.1c-5.3-47.6-8.9-94.8-8.3-142.8
			c0.1-8.4-12.5-8.3-13,0c-2.8,50.5-4.7,101.4-1.9,152c1.4,24.5,3.4,48.9,6.3,73.2c1.4,12.5,2.2,25.9,4.5,38.8
			c-26.7-58.1-33.4-123.9-32.5-187.1c0.1-4.7-7.1-4.7-7.2,0c-1.9,56.7-8.1,112.9,4,167.9c-11.5-15.4-13.2-33-16.1-52.9
			c-3.8-26.2-6.6-52.3-7-78.8c-0.1-7.3-10.5-7.1-11.2,0c-3,34.3-2.1,68.7,0,103c0.8,13.3,2.3,26.6,7.7,37.9
			c-2.8-0.5-5.7-0.9-8.5-1.3c-19.4-39.6-22.3-83.4-28.7-126.5c-0.7-4.4-7.8-3.3-7.7,1c0.4,26.6,1.1,53.2,1.2,79.9
			c0.1,14.5,1.5,28.6,5.5,42.1c-0.6-0.1-1.2-0.1-1.8-0.2c-3.1-0.3-6.2-0.5-9.4-0.8c-2-7.8-4.8-15.7-6.8-23.3
			c-4.6-17.4-8.5-35.1-10.8-52.9c-0.2-1.5-2.3-1.6-2.4,0c-2,22.8-7.3,50-4.7,74.1c-4.6-0.3-9.2-0.6-13.8-1
			c-4.2-15.9-7.3-31.9-9.5-48.1c-0.6-4.2-7.6-3.2-7.4,1c0.7,15.5,2.2,31,4.1,46.4c-2.4-0.1-4.8-0.3-7.3-0.4c-0.9-2.6-2-5.2-2.8-7.7
			c-2.5-7.4-4.9-14.8-7.5-22.1c-1.9-5.3-9.5-3.2-8.4,2.3c1.5,7.7,2.9,15.3,4,23c0.2,1.3,0.3,2.5,0.5,3.8
			c-49-1.7-97.9,0.5-145.1,12.3c37.1-43.7,72.7-88.9,114.9-127.7C451.5,817.7,488.4,789.2,523.8,759.5z M583.4,1234.9
			c-19.3-14.9-44.8-24.4-66.5-35.6c-22.3-11.6-44.7-23.2-67-34.7c-45.7-23.8-91.4-47.5-137.2-71.3
			c-70.8-36.7-141.7-72.5-216.1-100.4c85.3-30.8,167.3-69.8,245.7-115.4c-33.7,40.2-64.7,82.8-100.2,121.4
			c-12.2,13.3,3,31.3,18.6,24.1c77.2-35.8,164.2-31.8,247.1-26c76.8,5.4,171.8,14.4,206.1,95.7c5.1,12.1,25.8,3.4,21.4-9
			c-16.4-45.5-30.8-91.8-40.8-139.2c-9.2-43.8-12.3-87.6-16-132.1c-2.7-32.2-6.5-64.6-3.4-97c3.4-36.2,16.5-68.7,35.7-98.6
			c1.5-0.8,3-1.7,4.5-2.4c2.5-1.3,2.6-1.4,4.4-2c0.7-0.3,1.2-0.4,1.6-0.6c-0.1,0.1-0.1,0.2,0.3,0.2c19.2,2.2,22.7-21.8,10.8-32.4
			c21-20.1,41.7-40.5,62-61.1c57.4-58.4,113-118.2,167-179.7c-1.6,73.2-2.6,146.3-3.3,219.5c-16.8,1.3-33.7,0.7-50.5-2
			c-32.7-5.4-73.6-25.3-105.5-6.3c-50.5,30-52.9,141.2-50.2,190.3c1.3,24,5,47.8,11.1,71c5.4,20.6,23.7,47.1,25.3,67.3
			c-1-13.6,10.6-24.6,21.9-32.3c43.5-30.1,93.9-46,146.5-53.4c-0.1,18.5-0.2,37-0.3,55.5c-52.5-4.3-111.1,15.1-152.5,46.3
			c-34.3,25.9-36.2,64-32,104c4,37.8,14.3,74.9,30.8,109.2c14.2-23,40.7-36,67.4-40.1c26.7-4.1,53.9-0.5,80.6,3.1
			c1.1,0.1,2.2,0.3,3.2,0.4c-0.2,15.9,0.3,31.7,3,46.9c-20.6-4.2-41.3-6.8-61.6-7.4c-50.3-1.5-93.6,15.1-132.9,45.7
			c-23,17.9-44.2,38.2-69.1,53.5c-30.1,18.4-62.9,23-97.3,27c-3.1,0.4-6.1,0.7-9.2,1.1C585.7,1237,584.7,1235.9,583.4,1234.9z
			 M556.4,1262.3c4.4,1.9,8.8,3.7,13.3,5.2c10.9,3.5,18.1-2.4,20.5-10.4c12.7-1.5,25.3-2.8,37.1-4.5c49.7-7.2,86.4-29.5,125.1-60.1
			c46.1-36.5,90-61.7,151-58.1c29.7,1.7,58.8,9.1,87.2,17.2c27.5,7.9,63.6,13.3,81.7,37.5c15.9,21.4,25.7,47.7,40,70.3
			c1,1.5,2,3,2.9,4.5c-17.4-8-34.1-27.9-50-33.9c-19.2-7.2-41.9-8.5-60.7,0.5c-7.2,3.4-12.9,8.5-17.1,14.3c-4.6-0.5-8.7,0.9-14,1.6
			c-7.5,1-16.1,0-19.3-7.9c-1.8-4.4-8.3-2.8-7.3,2c1.7,8.1,7.8,13.6,15.2,17c4.9,2.2,11.5,4,17.8,4.2c-0.2,1.1-0.4,2.2-0.6,3.3
			c-10.3-0.6-18.6,8.6-30.6,2.4c-12.2-6.2-21.7-16.1-25.7-29.3c-1-3.4-6-2-5.2,1.4c3.8,16.8,11.1,34.8,26.3,44.3
			c9.9,6.2,27.3,8.3,38,1.7c2.4,5.3,6.1,10,11.2,13.9c-7.1,2.7-14.6,4.6-23.3,4.5c-24.4-0.1-47.7-10.8-64.8-27.7
			c-2.1-2.1-5,1-3.2,3.2c17.3,21.3,37.6,38.8,65.4,43.7c6.7,1.2,14.1,1.7,21.6,1.4c-0.1,0-0.1,0-0.2,0c-25.6,2.9-52,3.8-77.2-2.9
			c-24.6-6.5-44.4-19.4-60.1-39.4c-9-11.5-17-23.7-29.5-31.7c-25.3-16.2-69.9-18.6-94.9-0.5c-18.2,13.2-24.5,36.2-15,54.8
			c-14.6,4.4-30.5,5.5-44.6,1c-1.1-0.4-1.9,1.4-0.8,1.9c13.9,7.6,34.3,16.4,52.2,15.1c-2.7,1-5.4,1.9-8.1,2.7
			c-27.5,8.6-44.2,1.7-66.7-13.7c-3.7-2.5-7.3,2.9-4.6,5.9c18.6,21,39.4,32.7,68.2,27.3c7.7-1.4,20.5-4.2,31.3-9.3
			c-5.5,4.3-11.4,7.3-18.1,9.8c-13.4,5-27.7,6.2-42,4.7c-27.7-2.8-51.9-17.4-79.1-22c-23.3-4-50.5,5.7-57.5,27.8
			c-15.4-21.6-31.8-42.4-49-62.6C510.1,1276,532.5,1267.4,556.4,1262.3z M1036,1311.4c-4.1,3-8.7,5.4-13.6,7
			c-5.6,2.1-11.7,3.3-17.9,4.3c11.6-2.5,22.3-7.6,29.7-16.1C1034.9,1308.1,1035.5,1309.7,1036,1311.4z M651,1513
			c-3.3-1.1-6.2-2.5-9-4.1c28.7,3.7,57.7,7.3,86.9,10.4C703.1,1519.9,674.9,1521.2,651,1513z M1667.1,1480
			c-23,10.4-56.8,3.2-81.2,2.4c-31.6-1-63.2-1.3-94.8-1.1c-179.4,1.1-358,19-537,29.7c-0.8-2-2.6-3.6-5.1-3.6
			c-84.7-1.6-168.4,0.9-251.8-9.5c91-8.9,181.7-19.9,273.3-22.2c1.7,0,1.8-2.7,0-2.7c-114.4,0.8-230.1-4.9-344.3,4.4
			c-4.4,0.4-7.7,2.4-9.8,5.3c-4.7-7.8-8.7-16.2-12.7-24.5c121.7-6.5,243-21.5,364.9-26.5c3.3-0.1,3.3-5.2,0-5.1
			c-126.7,4.7-253.5-1.6-380.2,2.3c-1.2-2.1-2.3-4.3-3.6-6.5c85.4-8.3,170.6-18.1,256.2-24.4c5.2-0.4,5.3-8.4,0-8.1
			c-91,3.5-182,3-273,4.7c-4.9-7.9-10-15.6-15.2-23.3c19-6.9,45.6,0.2,64.7-2.5c2.6-0.4,2-5-0.6-4.7c-19.3,2-41.9,1.2-62.1-1.9
			c17.7-37.9,93.4,3.7,121.5,7c5.7,0.7,11.6,1,17.4,0.8c1.1,3.6,4,6.3,9,5.8c32.5-3.1,64.3-11.2,96.6-15.9c3.6-0.5,2.7-6.5-0.9-6.3
			c-17.1,0.8-34.2,0.6-51.3,0.7c3-2.1,5.9-4.3,8.7-6.9c2.7-2.5,5.2-5.4,7.6-8.6c3.1-0.2,6.3-0.6,9.3-0.9c10.6-1.1,20.8-4.5,30.7-8.3
			c7-2.7,4.2-12.2-3.1-11.1c-9.2,1.3-18.5,1.5-27.7,1.9c3.2-11.4,1.6-23.3-9.4-31.4c-9.7-7.2-22.4-7.4-32.5-2.3
			c-0.9-24.8,58.3-26.6,75.8-16.7c19.3,10.9,29.2,35.3,46.3,49.4c40.6,33.4,95.4,34.7,145.1,28.2c28.6-3.7,72.1-14.7,65.2-53.2
			c-5.2-28.9-34.5-35.2-55.1-22.6c0-5.3,6.4-12.3,9.1-13.8c5.7-3.2,13-3.6,19.3-3.4c17.9,0.6,30.7,9.8,44.1,20.4
			c17.9,14.2,34.4,23.8,57.1,20.9c7.1,9.5,14.5,18.9,22.2,28c35.1,41.5,71.6,64.9,127.2,65.3c67.9,0.5,134.4-30.4,183-77.9
			c2.2,4,7.4,6.1,11.3,1.7c19.9-22.7,55.1,4.6,79.5,4.7c17.4,0.1,34.4-8.5,45.4-21.7c19-22.8,8.5-44.3-12.4-47.6
			c8.3-14.6,26-21.4,42.9-11.7c13.7,7.8,19.8,24,32.6,33.3c18.6,13.4,40.9,15.5,61.7,8.6c-1.7,22.1-5.3,43.7-14.5,62.8
			c-16.2-1.2-35.7,2.8-50.6,3.8c-21.6,1.4-43.3,2.7-64.9,4.1c-41,2.5-80.6,8.4-121,13.9c-2.5,0.3-1.9,4.6,0.6,4.4
			c50.5-2.6,102.1-3.9,152.8-4.8c22.5-0.4,45.1,0.9,67.6,0.9c0,0.3,0,0.6,0.1,0.9c-1.3,1.5-2.7,2.9-4.1,4.4
			c-5.5,5.4-10.4,10.1-13.8,15.3c-17.6,1.9-34.7,5.7-52.4,6.8c-20.3,1.3-40.7,3-61,4.4c-39.2,2.6-78.1,6.9-117.3,9.1
			c-2.1,0.1-2.2,3.4,0,3.3c39.2-0.6,78.1,1,117.3,0.8c18.8-0.1,37.5,0.1,56.3,0c18.3-0.1,36,2.2,54.1,3c0.2,0.8,0.5,1.7,0.7,2.6
			c-109.9,5.9-219.6,17.5-329.6,22.9c-3.5,0.2-3.5,5.6,0,5.4c111.7-3.8,223.5-1.3,335.1-4.8
			C1689.1,1454.9,1686.8,1471.1,1667.1,1480z M1742.7,1161.5c-2,2.5-3.2,5.3-5.4,7.6c-2.9,2.9-7.7,4.2-11.4,5.6
			c-3.9,1.5-8.2,3.1-12.4,3.2c-9.1,0.3-13.8-6.3-18.3-13.1c-1.2-1.8-3.9-0.2-2.9,1.7c8,15.1,17.9,23.6,35.6,23.6
			c2.8,0,6-0.4,9.1-1.1c-0.7,4.2-1.3,8.4-1.8,12.7c0,0.1,0,0.2,0,0.4c-11.8,4.2-24.1,9-36.1,6.5c-16.5-3.5-28.6-27.9-37.7-40.9
			c-2.8-3.9-9-0.4-6.5,3.8c10.4,17.6,18.7,43.8,39.1,52.3c11.7,4.9,26.1,6.3,39.4,4.1c-0.3,6.9-0.5,13.9-0.7,21
			c-1,0.1-2,0.4-3.1,0.8c-28.8,11.9-42.9-2.5-60.6-23c-11.7-13.5-25.6-22.1-43.8-23.5c-36.5-2.9-63.6,26.5-64,61.7
			c-0.1,10.2,12,17.8,21,12c11.3-7.3,5.1,9.3-1.3,13.4c-5.8,3.6-13.1,5.7-19.9,5.9c-14.8,0.5-28.2-7.1-42.5-9.1
			c-9.5-1.3-19.4-0.5-28.3,2.6c5.7-6.8,11-13.9,15.9-21.2c13.4-19.8,24-41.5,31.2-64.3c4.9-15.3,7.1-26.4,23-34.3
			c14.6-7.2,29.5-14.1,44.4-20.8c54.5-24.4,110.5-46.1,167.6-63.8C1759.3,1109.5,1749.3,1135,1742.7,1161.5z M1624.7,1113.2
			c-27.2,11.5-55.1,22.9-81.1,37c-10,5.4-15.8,11.1-20,18.1c3.1-73.3,6.2-146.6,9.3-219.9c0.8-18.6,1.6-37.5,6.8-55.4
			c4.8-16.3,13.3-31.5,24.5-44.3c65.1,76,137.5,146.1,215.2,209.5C1727.1,1074.3,1675.3,1091.9,1624.7,1113.2z"/>
		<path d="M947.9,649.3c-0.4-0.8-0.8-1.6-1.4-2.2c-0.6-0.6-1.5-1-2.3-0.9h-0.4c-0.9-0.1-1.7,0.3-2.3,0.9c-0.6,0.6-1,1.4-1.4,2.2
			c-1.7,3.4-3.2,7-3.6,10.8c-0.2,1.6-0.1,3.3,1,4.5c0.2,0.2,0.5,0.5,0.8,0.5c0.8,0.2,1.6-0.5,2.4-0.9c1-0.6,2.3-0.7,3.4-0.4
			c1.1-0.3,2.4-0.2,3.4,0.4c0.8,0.4,1.5,1.1,2.4,0.9c0.3-0.1,0.6-0.3,0.8-0.5c1.1-1.2,1.2-2.9,1-4.5
			C951.1,656.3,949.6,652.7,947.9,649.3z"/>
		<path d="M955.1,623.8c-1.8,0.3-4.6,0.7-5.9,2.1c-0.5,0.6,0.3,1.4,0.8,0.8c0.9-1,3.3-1.5,4.6-1.8c0.9-0.2,1.8-0.3,2.7-0.4
			c0.8-0.1,1.6-0.1,2.4-0.1c2.9,0.1,5.9,0.5,8.8,0c4.1-0.6,7.6-3.1,8.6-7.2c0-0.1-0.1-0.1-0.1,0c-1,2.8-3,5.1-5.8,6
			c-2.7,0.9-5.6,0.7-8.4,0.4c-1.8-0.1-3.6-0.2-5.4-0.2C956.6,623.7,955.9,623.7,955.1,623.8z"/>
		<path d="M919.3,624.6c2.9,0.5,5.9,0,8.8,0c1.6,0,3.1,0.1,4.7,0.4c1.4,0.3,4,0.8,4.9,1.8c0.5,0.6,1.4-0.3,0.8-0.8
			c-1.3-1.4-4.1-1.8-5.9-2.1c-2.6-0.4-5.1-0.2-7.7,0c-2.8,0.2-5.7,0.5-8.4-0.4c-2.8-1-4.8-3.3-5.8-6c0-0.1-0.1,0-0.1,0
			C911.8,621.5,915.2,624,919.3,624.6z"/>
		<path d="M945.3,611.2c0.3-2.2,0.1-4.6,0.1-6.8c0-2.3,0-4.5-0.1-6.8c-0.1-4.5-0.1-9.1-0.2-13.6c0-0.3-0.5-0.3-0.5,0
			c0,4.5-0.1,9.1-0.2,13.6c0,2.1,0,4.3-0.1,6.4c0,2.4-0.3,4.8,0,7.2C944.6,611.7,945.3,611.7,945.3,611.2z"/>
		<path d="M936.4,634.2c-0.8-2.5-4.8-3-7-3.1c-3.8-0.2-7.6,0.3-11.1,1.5c-1.2,0.4-2.4,0.9-3.4,1.6c-0.6,0.4-1.2,0.9-1.6,1.5
			c-0.3,0.4-0.4,0.9-0.6,1.4c-0.6,2.3-0.7,4.8-0.3,7.1c0.1,0.5,0.2,1.1,0.5,1.5c0.3,0.6,0.9,1.1,1.5,1.5c2.2,1.5,5,1.6,7.6,1.5
			c2.7-0.1,5.3-0.4,7.9-0.9c1-0.2,2.1-0.4,3-1c0.8-0.5,1.5-1.2,2.2-1.8c0.4-0.3,0.7-0.5,1-0.8c0.4-0.4,0.6-0.9,0.8-1.4
			C937.9,639.9,937.4,636.9,936.4,634.2z"/>
		<path d="M944.4,935.1c-0.3-0.7-0.7-1.3-1.2-1.9c-0.5-0.5-1.3-0.9-2-0.8h-0.3c-0.7-0.1-1.5,0.3-2,0.8c-0.5,0.5-0.9,1.2-1.2,1.9
			c-1.5,3-2.8,6-3.1,9.3c-0.1,1.4-0.1,2.9,0.8,3.9c0.2,0.2,0.4,0.4,0.7,0.5c0.7,0.2,1.4-0.4,2.1-0.8c0.9-0.5,1.9-0.6,2.9-0.3
			c1-0.3,2-0.2,2.9,0.3c0.7,0.4,1.3,1,2.1,0.8c0.3-0.1,0.5-0.3,0.7-0.5c0.9-1,1-2.5,0.8-3.9C947.2,941.1,945.9,938.1,944.4,935.1z"
			/>
		<path d="M942.3,902.2c0.3-1.9,0.1-3.9,0-5.9c0-2,0-3.9-0.1-5.9c-0.1-3.9-0.1-7.8-0.1-11.7c0-0.3-0.4-0.3-0.4,0
			c0,3.9-0.1,7.8-0.1,11.7c0,1.8,0,3.7,0,5.5c0,2-0.2,4.2,0,6.2C941.6,902.7,942.2,902.7,942.3,902.2z"/>
		<path d="M934.5,922c-0.7-2.1-4.1-2.6-6-2.7c-3.2-0.2-6.5,0.2-9.6,1.3c-1,0.4-2,0.8-3,1.4c-0.5,0.3-1.1,0.8-1.4,1.3
			c-0.2,0.4-0.4,0.8-0.5,1.2c-0.6,2-0.6,4.1-0.2,6.1c0.1,0.5,0.2,0.9,0.4,1.3c0.3,0.5,0.8,0.9,1.3,1.3c1.9,1.3,4.3,1.4,6.6,1.3
			c2.3-0.1,4.6-0.3,6.9-0.8c0.9-0.2,1.8-0.4,2.6-0.8c0.7-0.4,1.3-1,1.9-1.5c0.3-0.2,0.6-0.4,0.9-0.7c0.3-0.3,0.5-0.8,0.7-1.2
			C935.8,927,935.4,924.4,934.5,922z"/>
		<path d="M919.8,913.8c2.5,0.4,5.1,0,7.6,0c1.4,0,2.7,0,4.1,0.3c1.2,0.2,3.4,0.7,4.3,1.6c0.5,0.5,1.2-0.2,0.7-0.7
			c-1.1-1.2-3.5-1.6-5.1-1.8c-2.2-0.3-4.4-0.1-6.6,0c-2.4,0.2-4.9,0.4-7.2-0.4c-2.4-0.9-4.2-2.8-5-5.2c0-0.1-0.1,0-0.1,0
			C913.3,911.1,916.3,913.2,919.8,913.8z"/>
		<path d="M974.6,635.6c-0.4-0.6-1-1.1-1.6-1.5c-1.1-0.7-2.2-1.2-3.4-1.6c-3.6-1.2-7.4-1.7-11.1-1.5c-0.3,0-0.7,0.1-1.1,0.1
			c-2.2,0.2-5.2,0.9-5.9,3c-0.9,2.8-1.5,5.7-0.5,8.6c0.2,0.5,0.4,1,0.8,1.4c0.3,0.3,0.7,0.6,1,0.8c0.8,0.6,1.4,1.3,2.2,1.8
			c0.7,0.4,1.5,0.6,2.2,0.8c0.2,0.1,0.5,0.1,0.7,0.2c2.6,0.5,5.3,0.8,7.9,0.9c2.6,0.1,5.4-0.1,7.6-1.5c0.6-0.4,1.1-0.9,1.5-1.5
			c0.3-0.5,0.4-1,0.5-1.5c0.5-2.3,0.4-4.8-0.3-7.1C975.1,636.5,974.9,636,974.6,635.6z"/>
		<path d="M967.5,923.3c-0.3-0.5-0.9-1-1.4-1.3c-0.9-0.6-1.9-1-3-1.4c-2.4-0.8-4.9-1.2-7.4-1.2c-0.7,0-1.4-0.1-2.2-0.1
			c-1.9,0.1-5.3,0.6-6,2.7c-0.8,2.4-1.3,5-0.4,7.4c0.2,0.4,0.3,0.9,0.7,1.2c0.3,0.3,0.6,0.5,0.9,0.7c0.7,0.5,1.2,1.1,1.9,1.5
			c0.8,0.5,1.7,0.7,2.6,0.8c0.8,0.2,1.7,0.2,2.5,0.3c1.5,0.2,2.9,0.4,4.4,0.5c2.3,0.1,4.7-0.1,6.6-1.3c0.5-0.3,1-0.8,1.3-1.3
			c0.2-0.4,0.3-0.9,0.4-1.3c0.4-2,0.3-4.1-0.2-6.1C967.9,924.1,967.7,923.6,967.5,923.3z"/>
		<path d="M964.5,912.8c-2.3,0.8-4.8,0.6-7.2,0.4c-0.5,0-1-0.1-1.5-0.1c-1.7-0.1-3.4-0.2-5.1,0.1c-1.5,0.2-3.9,0.6-5.1,1.8
			c-0.5,0.5,0.3,1.2,0.7,0.7c0.8-0.9,2.8-1.3,4-1.5c1.4-0.3,2.9-0.4,4.4-0.4c0.4,0,0.7,0,1.1,0c2.2,0.1,4.3,0.3,6.5,0
			c3.5-0.5,6.5-2.7,7.4-6.2c0-0.1-0.1-0.1-0.1,0C968.7,909.9,966.9,911.9,964.5,912.8z"/>
	</g>
</g>
</svg>
