<?xml version="1.0" encoding="utf-8"?>
<!-- Generator: Adobe Illustrator 22.0.1, SVG Export Plug-In . SVG Version: 6.00 Build 0)  -->
<svg version="1.1" id="Layer_1" xmlns="http://www.w3.org/2000/svg" xmlns:xlink="http://www.w3.org/1999/xlink" x="0px" y="0px"
	 viewBox="0 0 2000 2000" style="enable-background:new 0 0 2000 2000;" xml:space="preserve">
<style type="text/css">
	.st0{fill:none;}
</style>
<g>
	<path class="st0" d="M1139.1,490.4c-24-7.3-57.7-8.1-80.7-0.7c3,6.6,6,13.3,8.6,20.1c1.2,3.2,2.9,12.9,5.8,15
		c4.6,3.3,5.3,1.3,11.2-0.4c13.5-3.8,30.1-5.4,45.1-3.8c0.3-2.3,1.1-4.8,2.5-7.5C1135.3,506.3,1137,498.2,1139.1,490.4z"/>
	<g>
		<path d="M1082.9,1124.2c0.5,0.5,1,0.9,1.7,1.1c1.7,0.5,3.4-0.9,4.9-1.8c0.3-0.2,0.7-0.3,1-0.4c1.9-0.8,4-0.9,5.9-0.4
			c2.3-0.7,4.8-0.4,6.9,0.8c1.6,0.9,3.2,2.3,4.9,1.8c0.7-0.2,1.2-0.6,1.7-1.1c2.2-2.4,2.4-6,2-9.2c-0.8-7.8-4-15.2-7.5-22.3
			c-0.8-1.6-1.6-3.2-2.9-4.5c-1.3-1.3-3-2.1-4.8-1.9h-0.8c-1.8-0.2-3.5,0.6-4.8,1.9c-0.1,0.1-0.1,0.1-0.2,0.2
			c-1.2,1.2-2,2.7-2.7,4.3c-3.5,7-6.6,14.4-7.5,22.3C1080.5,1118.3,1080.7,1121.9,1082.9,1124.2z"/>
		<path d="M1159.6,1064.5c-0.8-1.3-2.1-2.3-3.4-3.1c-2.2-1.4-4.6-2.4-7.1-3.3c-7.3-2.5-15.2-3.6-22.9-3.1c-1.5,0.1-3.5,0.3-5.5,0.7
			c-3.9,0.8-7.8,2.4-9,5.7c-1.9,5.7-3.1,11.8-1,17.6c0.4,1.1,0.8,2.1,1.6,2.9c0.6,0.7,1.4,1.2,2.2,1.7c1.6,1.2,2.9,2.7,4.6,3.7
			c0.7,0.4,1.5,0.7,2.3,1c1.2,0.4,2.5,0.8,3.8,1c5.4,1,10.9,1.7,16.4,1.8c5.4,0.2,11.1-0.1,15.6-3.1c1.2-0.8,2.3-1.8,3-3.1
			c0.5-1,0.8-2.1,1-3.1c1-4.8,0.8-9.9-0.5-14.6C1160.5,1066.4,1160.2,1065.4,1159.6,1064.5z"/>
		<path d="M1045.8,1041.9c6,0.9,12.1,0,18.1-0.1c3.3-0.1,6.5,0.1,9.7,0.7c2.9,0.6,8.1,1.6,10.2,3.8c1.1,1.2,2.8-0.6,1.7-1.7
			c-2.7-2.9-8.4-3.8-12.1-4.3c-5.3-0.8-10.5-0.4-15.8,0.1c-5.7,0.5-11.7,1-17.2-0.9c-5.8-2-9.9-6.8-12-12.5
			c-0.1-0.1-0.3-0.1-0.2,0.1C1030.2,1035.6,1037.4,1040.6,1045.8,1041.9z"/>
		<path d="M1080.9,1061.6c-1.8-5.1-9.9-6.1-14.4-6.4c-7.7-0.5-15.6,0.5-22.9,3.1c-2.5,0.8-4.9,1.9-7.1,3.3c-1.3,0.8-2.5,1.8-3.4,3.1
			c-0.6,0.9-0.9,1.9-1.2,2.9c-1.3,4.7-1.5,9.8-0.6,14.6c0.2,1.1,0.5,2.2,1,3.1c0.7,1.3,1.8,2.3,3,3.1c4.5,3,10.2,3.3,15.6,3.1
			c5.5-0.2,11-0.8,16.4-1.8c2.1-0.4,4.3-0.9,6.1-2c1.7-1,3-2.5,4.6-3.7c0.7-0.6,1.5-1,2.2-1.7c0.8-0.8,1.2-1.9,1.6-2.9
			C1084,1073.4,1082.9,1067.2,1080.9,1061.6z"/>
		<path d="M593.9,1061.3c-0.5-0.8-1.3-1.4-2.1-1.9c-1.4-0.9-2.9-1.5-4.4-2c-2.2-0.8-4.5-1.3-6.8-1.6c-2.5-0.3-5-0.5-7.5-0.3
			c-2.8,0.2-7.9,0.8-9,4c-1.2,3.5-1.9,7.4-0.7,11c0.2,0.7,0.5,1.3,1,1.8c0.4,0.4,0.9,0.7,1.3,1.1c1,0.7,1.8,1.7,2.9,2.3
			c1.2,0.7,2.5,1,3.8,1.3c2.8,0.5,5.7,0.9,8.6,1c0.5,0,1.1,0.1,1.6,0.1c3.4,0.1,7-0.1,9.8-2c0.7-0.5,1.4-1.1,1.9-1.9
			c0.3-0.6,0.5-1.3,0.6-2c0.6-3,0.5-6.2-0.3-9.1C594.4,1062.5,594.2,1061.9,593.9,1061.3z"/>
		<path d="M522.8,1047.2c3.8,0.6,7.5,0,11.3,0c2,0,4,0.1,6.1,0.5c1.8,0.4,5.1,1,6.4,2.4c0.7,0.7,1.8-0.4,1.1-1.1
			c-1.7-1.8-5.2-2.4-7.5-2.7c-3.3-0.5-6.6-0.2-9.9,0.1c-3.5,0.3-7.3,0.6-10.8-0.6c-3.6-1.3-6.2-4.2-7.5-7.8c0-0.1-0.2-0.1-0.1,0
			C513.1,1043.2,517.5,1046.3,522.8,1047.2z"/>
		<path d="M544.7,1059.4c-1.1-3.2-6.2-3.8-9-4c-4.8-0.3-9.7,0.3-14.3,1.9c-1.5,0.5-3,1.2-4.4,2c-0.8,0.5-1.6,1.1-2.1,1.9
			c-0.3,0.6-0.6,1.2-0.7,1.8c-0.8,3-0.9,6.1-0.3,9.1c0.1,0.7,0.3,1.4,0.6,2c0.4,0.8,1.1,1.4,1.9,1.9c2.8,1.9,6.4,2.1,9.8,2
			c3.4-0.1,6.9-0.5,10.2-1.2c1.3-0.3,2.7-0.6,3.8-1.3c1.1-0.6,1.9-1.6,2.9-2.3c0.5-0.3,1-0.7,1.3-1.1c0.5-0.5,0.8-1.2,1-1.8
			C546.6,1066.8,545.9,1063,544.7,1059.4z"/>
		<path d="M545.9,1098.6c0.3,0.3,0.6,0.6,1.1,0.7c0.3,0.1,0.6,0.1,1,0c0.7-0.2,1.4-0.7,2.1-1.1c1.3-0.7,2.9-0.9,4.3-0.5
			c1.4-0.4,3-0.2,4.3,0.5c1,0.6,2,1.4,3.1,1.1c0.4-0.1,0.8-0.4,1.1-0.7c1.4-1.5,1.5-3.7,1.3-5.8c-0.5-4.9-2.5-9.5-4.7-13.9
			c-0.5-1-1-2-1.8-2.8c-0.8-0.8-1.9-1.3-3-1.2h-0.5c-1.1-0.1-2.2,0.4-3,1.2c-0.8,0.8-1.3,1.8-1.8,2.8c-0.3,0.6-0.6,1.3-0.9,1.9
			c-1.8,3.8-3.3,7.8-3.8,12C544.5,1094.9,544.6,1097.1,545.9,1098.6z"/>
		<path d="M1455.8,1224.9c-11.6,9.3-23.8,18.2-33.1,29.8c-2.6,3.2-5.1,7.3-3.8,11.3c2.1,6.4,11,6.1,17.6,4.7
			c36-7.9,72.7-12.4,109.5-13.7c-2.6,32.5-9.3,69.1,3,99.2c5.4,13.2,21.6,13.2,26.9,0c12.5-30.5,4.9-67.1,2.9-99.5
			c33.9,0.6,67.7,3.9,101,10c1.8-47.9,20.4-93.5,27.3-141c0,0,0,0,0,0c5-34.7,3.7-69.8,5-104.7c0.6-17.9,2-35.7,4.9-53.4
			c2-12,9.6-31.2,5.7-43.1c-5.8-17.9-26-5.7-36.5,1.6c-21,14.5-35,34-46.6,56.3c-18.2,34.8-36,69.8-57.3,102.9
			c-2.8,4.3-5.7,8.5-8.6,12.7c-0.7-42.3-1.1-84.5-2-126.8c11.4,0.1,21.4,0.2,30.4-7.3c3.5-2.9,3.4-9.7,0-12.5
			c-9.2-7.7-19.5-7.5-31.1-7.3c-0.2-5.6-0.2-11.3-0.4-16.9c-0.3-10.4-15.8-10.4-16.1,0c-0.2,5.8-0.3,11.5-0.4,17.3
			c-7.6,0.2-15.3,0.4-22.9,0.6c-16.2,0.4-16.2,24.8,0,25.2c7.4,0.2,14.8,0.4,22.2,0.6c-1.1,52.9-1.6,105.7-2.6,158.6
			C1522.8,1164.6,1491,1196.8,1455.8,1224.9z M1574.1,1122.8c11.3-13.8,22.1-28.1,31.7-43.4c24.2-38.6,45.3-79,74.1-114.6
			c3.1-3.8,9.7,1.3,6.8,5.2c-28.6,39.5-45,85.4-70.3,126.8c-11.9,19.5-26.1,39.6-41.6,58.5c-8.2,9.9-16.7,19.5-25.6,28.4
			c-6.9,7-14,13.8-21.1,19.9c-6.2,5.3-17.4-1.8-12.1-9.3c10.7-14.9,22.3-29,34.1-42.9C1558.2,1141.9,1566.2,1132.5,1574.1,1122.8z"
			/>
		<path d="M1099.3,1014.3c0.6-4.6,0.2-9.4,0.1-14c-0.1-4.7-0.1-9.3-0.1-14c-0.1-9.3-0.2-18.7-0.3-28c0-0.6-1-0.6-1,0
			c-0.1,9.3-0.2,18.7-0.3,28c-0.1,4.4-0.1,8.8-0.1,13.2c-0.1,4.9-0.5,10,0.1,14.8C1097.8,1015.4,1099.2,1015.4,1099.3,1014.3z"/>
		<path d="M1109.1,1046.3c1.9-2.1,6.7-3.1,9.4-3.6c0.7-0.1,1.4-0.2,2.1-0.3c2.8-0.4,5.6-0.7,8.4-0.6c6,0.1,12.1,1,18.1,0.1
			c8.4-1.3,15.6-6.3,17.6-14.8c0-0.1-0.2-0.2-0.2-0.1c-2.1,5.7-6.2,10.4-12,12.5c-5.5,1.9-11.5,1.4-17.2,0.9
			c-4.9-0.4-9.8-0.8-14.7-0.2c-0.4,0-0.7,0.1-1.1,0.1c-3.7,0.6-9.4,1.5-12.1,4.3C1106.3,1045.8,1108,1047.5,1109.1,1046.3z"/>
		<path d="M562.3,1049.9c1.2-1.3,4.2-1.9,5.9-2.3c2.1-0.5,4.3-0.6,6.5-0.6c1.9,0,3.8,0.2,5.7,0.3c1.9,0.1,3.7,0.1,5.6-0.2
			c5.3-0.8,9.7-4,11-9.3c0-0.1-0.1-0.1-0.1,0c-1.3,3.5-3.9,6.5-7.5,7.8c-2.9,1-6,0.9-9,0.7c-0.6,0-1.2-0.1-1.8-0.1
			c-3.3-0.3-6.6-0.6-9.9-0.1c-2.3,0.4-5.9,0.9-7.5,2.7C560.6,1049.6,561.7,1050.7,562.3,1049.9z"/>
		<path d="M556.2,1029.9c0.4-2.9,0.1-5.9,0.1-8.7c0-2.9,0-5.8-0.1-8.7c-0.1-5.8-0.1-11.7-0.2-17.5c0-0.4-0.6-0.4-0.6,0
			c-0.1,5.8-0.1,11.7-0.2,17.5c0,2.7,0,5.5-0.1,8.2c0,3-0.3,6.2,0.1,9.3C555.3,1030.6,556.1,1030.6,556.2,1029.9z"/>
		<path d="M1746.2,1296.5c-76.2,69.5-186.9,80.7-287.9,101.6c-13.2,2.7-26.8,5.9-37.4,14.1c-14.2,10.9-20.7,28.8-28.8,44.8
			c-33.9,67.6-104.1,111.9-177.8,129.3c-29.3,6.9-59.1,10.1-89.2,10.6c-0.3-69.7-0.6-139.5-0.9-209.2c57.1-5.8,114.9-8.7,170.1,6
			c29.1,7.8,57.1,20.3,86.9,24.6c-86.8-121.4-97.8-292.6-27.2-424c16.1-29.9,36.7-61.4,30.8-94.8c-51,2-102.1,1.7-153.1-1
			c-38.5-2-76.9-5.3-115.4-7.1c-0.7-23.3-1.5-46.5-2.2-69.8c61-1.3,121.9,1.8,181.4,14.5c6.2,1.3,13.1,3.2,16.6,8.5
			c-8.8-13.5-15.6-28.2-22.4-42.8c-23.5-50.9-47.2-102.3-59.1-157.1c-4.4-20.6-7.2-41.9-3.7-62.6c0.4-2.4,0.8-5.2-0.7-7.1
			c-0.9-1.1-2.3-1.7-3.7-2.2c-14.3-5.1-29.7-5.9-44.9-5.9c-19.3,0-38.6,1-57.9,2.8c0.5-1,0.9-2,1.2-3.1c1.6-6,0.1-11-3-15.7
			c0-0.2-0.1-0.5-0.3-1.2c-0.4-1.4-0.9-2.7-1.3-4.1c-0.1-0.3-0.1-0.5-0.2-0.6c0-0.3,0-0.6,0-1.1c0-0.8,0-1.7,0-2.5
			c8.9,0.4,17.8,1,26.7-0.3c2.2-0.3,3.7-1.3,4.8-2.7c9.6,0,18.7-6.3,15.9-21.1c-2-10.5,2.8-23.6,3.4-34.5
			c0.4-7.3-6.1-11.8-12.5-12.5c-10.4-1.2-22.7-3-35.4-4.3c0.3-1.9,0.2-3.9-0.4-6.1c-1.9-6.5-3.4-13.2-4.7-19.9
			c2.3,1.2,4.8,2.2,7.7,3c11.2,3.3,21-0.8,27.3-8.2c7-5.1,23.9-3.6,31.9-3.9c14.6-0.6,28.2-0.2,41.2,7.2
			c23.2,13.2,39.6,29.5,67.7,32.1c23.3,2.1,48.4-3.5,70.6-10.5c26.3-8.2,54.8-31,82.8-20.1c12.3,4.8,18.1-13.5,8.5-20.1
			c-13.6-9.3-25.4-15.2-42-13.5c-20.7,2.2-37.5,16-58.3,17.5c-17.4,1.3-38.2,0.1-54.4-6.8c-19.4-8.3-32.5-26.6-51-36.6
			c-31.9-17.3-79-17.2-112.8-4.9c-9.4,3.4-18.5,10.9-24.8,19.7c-0.7-14.2-0.7-28.5,0-42.5c0.4-7.4-10.8-7.2-11.4,0
			c-1.9,22.6-4.6,45.1-4.6,67.8c0,12.8-1.4,26-1.3,38.5c0,2.5-0.1,4.4,0.1,6.4c-16.9,0.8-32.7,4.6-44.1,15
			c-3.2,2.9-1.9,8.2,1.3,10.5c2.5,13,5.6,25.6,9.6,38.2c2.2,6.8,3.3,12.6,10.7,15.2c4.6,1.6,10,1.1,15.6,0.2
			c-0.1,2.5-0.2,4.9-0.4,7.4c-0.5,5-0.6,10,0.8,14.9c0.7,2.5,2,4.7,3.5,6.6c-8.2,1.1-16.3,2.2-24.4,3.5c-16.5,2.5-32.9,5.4-49.4,8.4
			c-11.6,2.1-27.3,2.4-37.4,9.4c-14.5,10-21.4,41.7-26.2,57.2c-17.6,56-15.4,118.4,7.6,172.5c2.2,5.2,5.8,11.2,11.5,11.3
			c3.5,0,6.5-2.3,9.7-3.8c4.8-2.3,10.3-2.8,15.7-3.3c34.3-2.8,68.7-5.3,103.2-6.4c-0.7,22.8-1.4,45.7-2.1,68.6
			c-11.7-0.4-23.3-0.6-35-0.5c-32.9,0.2-65.8,2.6-98.4,7c-22.4,3-67.5,3-82.8,21.3c-15.7,18.8-22.4,58-29.3,81.1
			c-9.6,32.3-17.2,65.1-24.6,98c-14.5,64.3-28.2,130.5-18.3,195.6c5.7,37.2,19,72.9,35,106.9c11.5,24.4,24.7,49.7,22.8,76.6
			c12.6-25.6,38.9-41.4,65.3-52.1c49.8-20.1,103.9-26.6,157.3-32.6c-0.3,68.2-0.6,136.4-0.9,204.7c-33-1.6-66-5.8-98.5-11.1
			c-90.9-14.9-187.1-42.7-243.7-115.3c-25.1-32.2-42.3-73-77.9-93c-20.8-11.7-45.4-14.6-69.2-16.6c-5.2-0.4-10.4-0.8-15.6-1.2
			c1.9-28.5,2.8-57.1,2.9-85.8c64.4,11.2,126.8,38,182.5,73c-30.6-93-46-193.1-27.4-289.2c4-20.5,9.5-40.9,10.2-61.9
			c0.1-3.5,0.1-7.1-1.4-10.3c-1.5-3.3-4.4-5.7-7.4-7.8c-20.4-14-46.8-14.2-71.5-14c-30.4,0.3-60.9,0.6-91.3,0.8
			c-0.3-25.4-0.6-50.8-0.9-76.2c35.4,7.6,69.7,21.2,105.8,24.4c0.9-15.2-5.6-29.8-11-44.1c-9.1-24.3-15-49.8-17.5-75.6
			c-1.6-16.4-1.5-34.4,8.5-47.6c-29.8-3.2-59.8-2.6-89.7-1c-0.2-10.4-0.5-20.8-1.1-31.2c9.7-0.2,19.2-1.7,27.7-6.3
			c3.6-1.9,3.6-7.6,0-9.5c-9.1-4.8-19.3-6.3-29.7-6.3c-1-7.4-2.3-14.7-4.2-22c-0.6-2.2-4-2.2-4.6,0c-1.9,7.5-3.3,15.1-4.3,22.7
			c-9.9,1-19.8,2.7-28.9,3.8c-8.3,1-8.3,12,0,13c8.6,1,17.8,2.6,27.1,3.6c-0.6,11.1-0.8,22.2-1.1,33.3c-10.3,0.7-20.5,1.4-30.8,2.2
			c-12,0.8-27-0.8-38.6,2.8c-11.1,3.5-15.4,17.1-18.9,27c-10.4,29.1-20.9,58.8-22.6,89.7c-0.3,4.5-0.3,9.2,1.4,13.5
			c2,4.9,6.1,8.6,10.1,12c1.2,1,2.5,2.1,4,2.4c1.5,0.3,3.1-0.3,4.5-0.8c27.7-9.8,57.6-13.3,86.8-10.4c-0.3,26.9-0.6,53.8-0.9,80.7
			c-5.8,0.1-11.6,0.1-17.4,0.2c-39.4,0.4-80.9-3.3-120.1,0.3c-30,2.8-42.9,48-52.5,71.5c-14.8,36.4-24.8,74.8-28.5,114
			c-2.1,21.8-2.2,43.7-0.1,65.5c1.1,11,2.7,22,4.9,32.9c1.9,9.2,7.8,21,7.8,30.2c5.1,16,11.6,31.8,22.1,44.9
			c25.4-32.6,67.5-47.6,108.4-53.1c22.9-3.1,45.9-3.7,68.8-2.2c0.1,29.5,0.8,59,2.7,88.3c-52.7-3.2-105.4-5.1-157.9-10.3
			c-47.5-4.8-94.1-15.7-141.7-19c-11.9-0.8-65.3-7.9-59.7,13c3.9,14.6,45.2,29.7,57.4,35.3c4.6,2.1,9.3,4.1,14.1,6
			c-4,0.9-7.9,1.8-11.9,2.8c-12.8,3.3-27.5,6.1-38.4,14.1c-10.3,7.5-13.6,19.3-14.1,31.5c-1,23.2,3.2,47.5,5,70.6
			c-3.3,1.5-6.6,3-9.9,4.5c48.9,4.3,97.9,8.2,146.9,11.8c26.7,1.9,53.8,3.8,79.2,12.5c-1-16.5-6.9-32.3-11.2-48.3
			c-7-25.6-10-52-11.4-78.6c28.2,0.5,55.7,3.5,75.1,20.1c16.8,14.4,23.6,37.2,27.9,59c8,40.5,10.2,82,19.9,122.1
			c9.8,40.1,28.5,80,61.9,104.2c29.2,21.2,66.1,28,101.8,33.6c241.5,37.6,488.1,41.8,730.7,12.5c37-4.5,74.8-10,107.6-27.6
			c28.2-15.1,51.7-39,66.4-67.5c28.6-55.5,27.3-130.7,78.6-166.2c9.2-6.4,20.3-11.7,24.6-22.1c5.3-12.8-2.2-27.9,1.6-41.2
			c4.9-17.6,25.7-24,40.7-34.4C1760.5,1374,1768.4,1326.3,1746.2,1296.5z M1084,524.5c-5.9,1.7-6.6,3.7-11.2,0.4
			c-2.9-2.1-4.6-11.9-5.8-15c-2.6-6.9-5.6-13.5-8.6-20.1c23-7.4,56.7-6.6,80.7,0.7c-2.1,7.9-3.9,15.9-7.5,22.8
			c-1.4,2.7-2.2,5.2-2.5,7.5C1114.1,519.1,1097.5,520.7,1084,524.5z M618.5,1099.1c-0.3,0.3-0.6,0.8-0.6,1.3c-0.1,3.2,1.1,5.4-1.4,8
			c-1.9,2-4.6,3.7-7.3,4.6c-0.8,0.3-0.5,1.5,0.4,1.3c3.4-1.1,6.9-2.3,9.6-4.8c0.9-0.8,1.6-1.9,2-3c0.1,0.5,0.1,1,0.3,1.5
			c0.6,2.5,2.4,2.5,4.6,2.7c0.1,0,0.1,0,0.2,0c-0.2,2.5-0.7,4.6-2.2,6.7c-1.4,1.9-3.9,4-6.1,4.9c-0.4,0.1-0.4,0.8,0.1,0.8
			c1.5-0.1,2.8,0,4.2-0.7c1.5-0.7,2.9-1.8,4-3c1.8-2.1,3.1-5,3.2-7.8c0.8,0.3,1.6,0.8,2.3,1.3c-0.4,1-0.5,2.1-1,3.1
			c-0.7,1.5-1.9,3.1-2.9,4.4c-0.6,0.7,0.4,1.8,1.1,1.1c1.4-1.4,3-2.3,3.9-4.1c0.3-0.7,0.7-1.4,0.9-2.2c0.3,0.5,0.5,1,0.7,1.6
			c0.8,3-1.4,7.4-3.5,9.6c-2.2,2.4-5.3,3.5-8.4,4.2c-6.1,1.4-12.2,1.2-17.9,4.3c-6.8,3.7-13.4,8.2-19.6,12.8c-0.7,0.5-1.4,1-2,1.5
			c-5.6,4.1-11.4,8.4-16,13.5c0,0-0.1,0.1-0.1,0.1c-0.1-0.1-0.2-0.1-0.3-0.2c-3.6-2.2-7.4-4-10.9-6.4c-0.9-0.6-1.8-1.3-2.7-2
			c9.5-7.4,19.5-14.1,29.4-21c1.9-1.3,3.8-2.6,5.7-3.9c4.7-3.3,8.6-7.4,10.9-12.8c1.2-2.8,1.6-5.7,2.5-8.6c1.2-3.7,3.6-5.8,7.1-7.3
			C611.6,1099.2,615.7,1097.3,618.5,1099.1z M553.3,1126c0.3,0.9,0.1,1.1-0.7,0.8c-0.5,0-0.9,0-1.4-0.2c-2.7-0.5-2.5-2.9-2.3-5.1
			c0.1-1,0.2-2.3,0.7-3.2c0.6-1.5,1.4-2,2.5-1.8c0,0.1,0,0.3,0.1,0.4c1.4,2.1,1.1,4.2,1.1,6.5C553.3,1124.1,553.5,1125.3,553.3,1126
			z M557,1116.9c0.1-0.1,0.1-0.2,0.1-0.3c2.6-0.3,2.7,4.3,2.8,5.9c0.1,2-0.3,4.9-3.2,4.4c-0.2,0-0.4,0.1-0.7,0.1c0-0.6,0-1.2,0-1.8
			c0-0.9,0-1.8,0-2.6C556,1120.5,555.9,1118.7,557,1116.9z M562.4,1116.4c0.2-0.1,0.3-0.2,0.3-0.3c3.1,1.4,2.7,10.6,1.2,10.6
			c-0.6-0.5-1.2-0.9-1.8-1.4c0-0.4-0.1-0.9-0.1-1.3c0-0.7-0.1-1.5-0.1-2.2C561.9,1120.9,561.5,1116.8,562.4,1116.4z M567.6,1116.1
			C567.6,1116.1,567.6,1116.1,567.6,1116.1c1.5,0.3,1.3,3,1.3,4.2c0,0.6,0.1,1.3,0,1.9c0.1,0.9-0.1,1.4-0.8,1.8
			c-0.3,0.2-0.6,0.4-0.7,0.8c-0.1,0-0.4-3-0.5-3.3C566.6,1119.7,566,1117.4,567.6,1116.1z M571.4,1114.1c0.7,0,1.2,1.2,1.4,2.6
			c0,0.5,0.1,0.9,0.1,1.4c0.1,2.4-0.5,4.9-1.9,4.2c-0.6-0.3-0.3-3-0.3-3.6C570.8,1118,570.5,1114.7,571.4,1114.1z M575.2,1113
			c0.9,0.7,0.9,3.3,0.9,4c0,0.5,0.1,1,0,1.5c-0.1,0.6-0.6,2.8-1.8,1.6c-0.3-0.3,0-2.8,0-3.3C574.3,1115.5,574,1114,575.2,1113z
			 M577.5,1114.5c-0.1-1,0-1.7,0.4-2.5c0.1,0,0.2,0,0.3,0c0.7,1.5,1.1,5.7,0,5.2C577.7,1116.9,577.6,1115,577.5,1114.5z
			 M546.5,843.6c1,1.4-1.2,3-2.2,1.6c-2.1-2.8-4.1-5.6-6.2-8.3c-0.6,0.5-1.2,0.9-1.8,1.4c-2.4,1.9-4.8,3.8-7.2,5.7
			c-4.8,3.9-9.8,7.5-14.7,11.3c-1.4,1.1-2.7,2.1-4.1,3.2c-1.4,1.1-2.8,2.3-4.4,3.2c-0.8,0.4-1.5,0.7-2.4,0.6
			c-0.8-0.1-1.7-0.6-2.1-1.3c-0.5-0.7-0.7-1.6-0.6-2.4c0.2-0.9,0.6-1.5,1.3-2.1c1.2-1.1,2.5-1.9,3.8-2.7c1.3-0.8,2.6-1.7,3.9-2.6
			c2.6-1.7,5.1-3.4,7.6-5.1c2.6-1.8,5.2-3.6,7.8-5.2c2.6-1.6,5.2-3.2,7.7-4.9c0.9-0.6,1.8-1.2,2.7-1.8c-0.9-1.1-1.7-2.2-2.6-3.3
			c-0.6-0.8-1.3-1.6-1.9-2.4c-0.3-0.4-0.6-0.7-0.9-1.1c-0.1-0.1-0.1-0.1-0.1-0.1c0,0-0.1,0-0.1-0.1c-0.2-0.2-0.4-0.4-0.7-0.6
			c-1.1-1.1-1.3-3,0.1-3.9c1.4-1,3.1-0.3,3.8,1.2c0.1,0.2,0.2,0.5,0.3,0.7c0,0.1,0.1,0.1,0.1,0.2c0,0,0.1,0.1,0.1,0.2
			c0.3,0.4,0.5,0.8,0.8,1.2c0.6,0.9,1.1,1.7,1.7,2.6c0.2,0.3,0.4,0.6,0.6,0.9c0.2-0.2,0.4-0.5,0.7-0.7c1.6-1.3,7.3-4.8,14.8-9.4
			c0.9-0.6,1.9-1.2,2.9-1.8c-0.9-0.6-1.9-1.2-2.8-1.7c-15.8-9.9-31.7-19.6-32.1-19.9c-4.1-2.7-8.2-5.5-11.7-9.1
			c-1.6-1.6-3.1-3.5-4.2-5.5c-0.5-1-1-2-1.3-3.1c-0.3-1-0.5-2.1-0.8-3.1c-0.3-1,1.3-8,1.3-8s5.1,9.1,13.9,16.5
			c4.6,3.9,19.9,13.4,35.3,22.7c3.6,2.2,7.1,4.3,10.6,6.4c4.2-2.6,8.7-5.2,13-7.9c14.5-8.8,28.4-17.5,32.8-21.2
			c8.8-7.4,13.9-16.5,13.9-16.5s1.6,7.1,1.3,8c-0.2,1.1-0.4,2.1-0.7,3.1c-0.3,1.1-0.8,2.1-1.3,3.1c-1.1,2-2.6,3.9-4.2,5.5
			c-3.5,3.6-7.6,6.4-11.7,9.1c-0.5,0.3-14.7,9.1-29.7,18.4c-1.8,1.1-3.5,2.2-5.3,3.3c1.9,1.2,3.7,2.3,5.5,3.3
			c6.2,3.8,10.8,6.7,12.2,7.8c0.3,0.2,0.5,0.4,0.7,0.7c0.2-0.3,0.4-0.6,0.6-0.9c0.6-0.9,1.1-1.7,1.7-2.6c0.3-0.4,0.5-0.8,0.8-1.2
			c0.1-0.1,0.1-0.2,0.1-0.2c0-0.1,0.1-0.1,0.1-0.2c0.1-0.2,0.2-0.5,0.3-0.7c0.7-1.4,2.4-2.1,3.8-1.2c1.4,1,1.3,2.8,0.1,3.9
			c-0.2,0.2-0.4,0.4-0.7,0.6c-0.1,0.1-0.1,0.1-0.1,0.1c0,0,0,0.1-0.1,0.1c-0.3,0.4-0.6,0.7-0.9,1.1c-0.6,0.8-1.3,1.6-1.9,2.4
			c-0.9,1.1-1.7,2.2-2.6,3.3c0.9,0.6,1.8,1.2,2.7,1.8c2.5,1.7,5.2,3.3,7.7,4.9c2.7,1.7,5.2,3.5,7.8,5.2c2.5,1.7,5.1,3.4,7.6,5.1
			c1.3,0.9,2.6,1.7,3.9,2.6c1.3,0.9,2.7,1.6,3.8,2.7c0.7,0.6,1.1,1.2,1.3,2.1c0.2,0.8-0.1,1.7-0.6,2.4c-0.4,0.7-1.3,1.2-2.1,1.3
			c-0.9,0.2-1.6-0.1-2.4-0.6c-1.6-0.9-2.9-2.1-4.4-3.2c-1.4-1.1-2.7-2.1-4.1-3.2c-4.9-3.8-9.9-7.4-14.7-11.3
			c-2.4-1.9-4.7-3.9-7.2-5.7c-0.6-0.5-1.2-0.9-1.8-1.4c-2.1,2.7-4.2,5.5-6.2,8.3c-1.1,1.4-3.2-0.2-2.2-1.6c1.6-2.3,3.2-4.5,4.7-6.8
			c-0.4-0.1-0.9-0.3-1.2-0.6c-0.8-0.7-3.2-2.3-6.7-4.5c-3.7-2.4-8.5-5.5-13.9-8.8c-4.2,2.6-8.1,5.1-11.3,7.2
			c-4.8,3.1-8.2,5.3-9.2,6.2c-0.3,0.3-0.7,0.5-1.2,0.6C543.4,839.1,544.9,841.3,546.5,843.6z M498.3,1023.9
			c3.5-15.5,15.2-26,29.7-31.4c3.9-1.4,7.8-2.6,11.8-3.5c3.3-0.7,6.8-1.6,10.3-1.6c1,0,2,0,2.9,0.1c0.2,0.3,0.5,0.5,0.9,0.4
			c0.2,0,0.3-0.1,0.5-0.1c0.2,0,0.3,0.1,0.5,0.1c0.4,0.1,0.7-0.1,0.9-0.4c3.7-0.5,7.5,0.3,11.2,1.1c3.8,0.8,7.5,1.7,11.1,2.9
			c0.5,0.2,1,0.4,1.6,0.6c6.8,2.4,13.4,5.7,18.7,10.5c11,10,15.3,25.8,12.6,40.2c-0.9,4.5-2.4,8.9-3,13.4c-0.4,2.8-0.3,5.9-0.9,8.7
			c-1.1-1.9-2.3-3.8-3.2-5.9c-1.8-4.2-0.9-8.6,0.5-12.8c2.4-7.1,6.2-15.2,1.4-22.2c-0.4-0.7-1.5-0.1-1.1,0.6
			c5.5,8.8-2.6,18.5-4.3,27.1c-0.9,4.4-0.2,8.2,1.7,12.3c2.2,4.6,3.5,8.7,3.3,13.9c-0.1,4.4,0.3,10.2-3.8,12.9
			c-3.9,2.5-9.1,2.7-13.6,2.5c-2.4-0.1-4.6,0.5-6.3,1.7c-1.2,0.8-2.3,1.9-3,3.4c-0.8,1.6-1.1,3.4-1.2,5.2c-0.1,1.5,1.1,4.8-0.1,5.9
			c-0.6,0.5-0.6,1.2-0.3,1.7c-0.4,0.6-0.6,1.2-0.7,1.9c-0.2-0.4-0.4-0.7-0.8-0.9c-0.1-0.4-0.6-0.8-1-0.5c-0.9,0.5-1.3,1.3-1.5,2.2
			c-0.2-0.2-0.4-0.4-0.7-0.5c0-0.2-0.1-0.4-0.3-0.5c-2.2-1.1-2.5,1.4-2.5,3.1c-0.3-0.6-0.9-1-1.7-0.9c-0.3-0.4-0.8-0.6-1.3-0.2
			c-0.8,0.8-1.2,1.8-1.3,2.9c-0.5-1.4-1.3-2.6-2.8-2.7c-0.3-0.2-0.6-0.3-1,0.1c-0.7,0.7-0.9,1.7-0.9,2.7c-0.8-2.6-2.4-3.4-5-1.6
			c-0.2,0.2-0.2,0.4-0.1,0.6c-0.4,0.6-0.6,1.1-0.8,1.7c-0.2-0.6-0.4-1.2-0.8-1.7c0.1-0.2,0.2-0.4-0.1-0.6c-2.3-1.5-4.3-1.5-5.3,1.3
			c-0.1,0.1-0.1,0.3-0.2,0.5c0-1-0.1-2-0.8-2.7c0,0,0-0.1-0.1-0.1c-0.3-0.3-0.7-0.3-1-0.1c-1.5,0.1-2.3,1.3-2.8,2.7
			c-0.1-1.1-0.5-2.1-1.3-2.8c-0.4-0.4-1-0.2-1.3,0.2c-0.8-0.1-1.3,0.3-1.7,0.9c0-1.8-0.4-4.2-2.5-3.1c-0.2,0.1-0.3,0.3-0.3,0.5
			c-0.3,0.1-0.5,0.3-0.7,0.5c-0.2-0.9-0.6-1.7-1.5-2.2c-0.4-0.3-1,0.1-1,0.5c-0.3,0.2-0.6,0.5-0.8,0.8c-0.1-0.7-0.3-1.4-0.7-1.9
			c0.3-0.5,0.3-1.2-0.3-1.7c-1.3-1.1-0.1-4.4-0.1-5.9c-0.1-1.8-0.4-3.6-1.2-5.2c-1.8-3.5-5-5.3-8.9-5.1c-4.7,0.2-10,0.1-14.1-2.5
			c-4.1-2.6-3.7-8.5-3.8-12.9c-0.2-5.2,1.1-9.2,3.3-13.9c1.9-3.9,2.6-7.5,1.8-11.8c-1.7-8.7-9.9-18.7-4.4-27.6
			c0.4-0.7-0.6-1.3-1.1-0.6c-4.1,5.9-1.9,13.1,0.3,19.2c1.4,3.9,3,8,2.6,12.2c-0.4,3.5-2.4,6.4-4.1,9.4c-0.4-2.2-0.4-4.5-0.7-6.7
			c-0.5-4.2-1.6-8.2-2.6-12.2C496.9,1038.8,496.6,1031.3,498.3,1023.9z M544.9,1126.7c-1.4-0.4-1.1-3.5-1.1-4.5
			c0.1-1.6,0.2-5.3,2.2-6.1c0.1,0.1,0.2,0.2,0.3,0.3c0.8,0.4,0.5,4.2,0.5,5C546.9,1122.3,547.3,1127.4,544.9,1126.7z M542,1121.1
			c-0.1,0.5-0.2,3.3-0.5,3.6c-0.1-0.2-0.2-0.4-0.3-0.5c-0.6-0.2-0.9-0.6-0.9-1.3c-0.3-0.7-0.2-1.5-0.2-2.3c0-1.3-0.3-4.3,1.2-4.6
			c0,0,0,0,0,0C542.7,1117.3,542.2,1119.4,542,1121.1z M537.7,1122.4c-1.4,0.7-1.9-1.9-1.9-4.3c0-0.4,0.1-0.8,0.1-1.2
			c0.2-1.5,0.7-2.8,1.4-2.8c1,0.5,0.6,3.9,0.6,4.6C538,1119.4,538.3,1122.1,537.7,1122.4z M534.5,1120.1c-0.4,0-0.7,0.1-1.1,0.1
			c-0.5-0.4-0.7-0.9-0.7-1.4c-0.1-0.5,0-1,0-1.5c0-0.8,0-3.6,1-4.3c1.1,0.9,0.8,2.3,0.8,3.6c0,0.5,0,1.1,0,1.6
			C534.5,1118.4,534.6,1120,534.5,1120.1z M531.3,1114.5c0,0.5-0.2,2.5-0.7,2.7c-1.2,0.4-0.7-3.7,0.1-5.2c0.1,0,0.2,0,0.2,0
			C531.3,1112.8,531.4,1113.5,531.3,1114.5z M477.8,1116.9c2-3.9,5.7-6.7,9.1-9.3c0.4-0.3,0.5-0.7,0.4-1.1c3.2-5.2,12.4-11.8,16.2-4
			c1.2,2.5,1.8,5.3,3.2,7.7c0.7,1.2,1.6,2.3,2.5,3.4c-2.1,0-4.2,0.5-6,0.8c-2.4,0.3-4.8,0.6-7.1-0.5c-2.1-1.1-5.4-3.7-5.3-6.3
			c0-0.7-0.9-0.6-1,0c-0.4,3.9,4.3,7.5,7.5,8.8c2.2,0.9,4.7,1.1,7.1,1c2.7-0.1,5.6,0.3,8.3,0c0.1,0,0.2,0,0.3-0.1c0,0,0,0,0.1,0
			c2.5,2.3,5,4.6,7,7.4c2,3,3.6,6.2,5.9,8.9c4.4,5.3,11.1,7.9,15.8,12.8c1.5,1.6,3,3.2,4.4,4.8c0.9,1,1.7,2,2.6,2.9
			c2.6,2.7,5.6,4.8,8.8,6.7c3.1,1.8,6.3,3.5,9.3,5.6c3.3,2.4,6.3,5.2,9.4,7.8c2.4,2,5.1,3.6,7.7,5.2c3.5,2,7.1,3.7,10.9,5.4
			c6.5,3,11.9,7.5,18.1,11.1c3,1.7,6.2,3.1,9.6,3.4c4.2,0.4,8.7-1.9,12.8-0.1c3.5,1.6,6,5.9,5.5,9.8c-0.6,4-4.6,5.8-8.1,6.5
			c-2.5-0.8-2.9-6.1-3.5-8c-0.7-2.4-1.8-4.5-3.6-6.2c-0.6-0.6-1.6,0.3-1,1c1.5,1.6,2.4,3.2,2.7,5.2c-0.4-0.5-0.9-0.9-1.4-1.3
			c-1.4-1.1-2.7-1.6-4.4-1.5c-0.4,0-0.4,0.6,0,0.6c0.7,0,1.5,0,2.2,0.3c1.2,0.4,1.5,1.3,1.8,2.4c0.4,1.4,0.8,3.2,1.9,4.2
			c0,0,0.1,0.1,0.1,0.1c0,0.8,0.1,1.5,0.2,2.3c0.2,1.1,0.6,2.1,1.1,3c-1.2,1-2.5,1.9-4.2,1.5c-2-0.5-4.2-3.2-4.8-5
			c-0.1-0.2-0.5-0.2-0.4,0.1c0.3,4.8,4.2,7.9,8.2,7.6c-0.7,1.1-1.5,2-2.7,2.5c-1.5,0.6-3.6,0.4-5.2,0c-1.9-0.5-2.8-1.8-3.9-3.4
			c-3-4.4-2.5-10.8-8.2-12.8c-0.8-0.3-1.1,0.9-0.3,1.2c5.3,2,3.4,7.5,5.2,11.7c1.3,3.2,2.9,6,6.2,7.3c2.5,1,5.5,1.2,8.1,0.4
			c-2.8,1.6-6.5,1.3-9.4,0c-3.2-1.5-4.9-4-6-7.2c-1.2-3.2-2.4-6.4-4.3-9.3c-5.6-8.9-14.2-15.3-22.8-21.2c-1.9-1.3-3.8-2.6-5.7-3.8
			c-10.9-7.2-21.8-14.7-32.8-21.9c-13.3-8.8-26.8-17.2-41-24.5c0.3-0.6,0.3-1.4-0.3-2.1c-1.9-2.2-3.2-5-4.9-7.4
			c-1.5-2.2-2.5-4.2-5.1-5.2c-3-1.2-5.9-1.8-8.4-4c-1.4-1.2-2.8-2.4-2.6-4.4c0.2-1.7,1.1-3.4,2-4.8c0.5-0.7-0.7-1.4-1.1-0.7
			c-1.5,2-3.2,5.3-2.1,7.8c1.1,2.5,3.8,4.5,6.1,5.9c1.4,0.8,2.9,1.3,4.4,1.9c1.5,0.6,2.3,1.5,3,2.6c-0.6-0.1-1.2-0.2-1.8-0.3
			c-2-0.3-4-0.8-5.9-1.6c-4.2-1.7-10.1-5-7.5-10.6c0.4-0.9-0.9-1.7-1.3-0.8c-1.8,3.7-0.4,8.6,2.7,11c2,1.6,4.3,2.8,6.7,3.8
			c2.7,1.1,5.4,1.8,7.9,3.3c0.6,0.4,1.1,0.4,1.6,0.3c0.3,0.7,0.6,1.5,1,2.2c-3.3-1.6-6.6-3.1-9.9-4.6c-3.4-1.4-7.5-2.5-10.3-4.9
			C475.8,1125.2,476,1120.5,477.8,1116.9z M545.5,1178c-3.6,2.9-7.5,5.4-11.2,8.2c-5.7,4.4-11.2,9.2-16.2,14.4
			c-1.2,1.2-2.2,2.4-2.9,3.7c0,0-0.1,0-0.1,0.1c-1.7,1.4-3.1,3.3-4.3,5.2c-0.6,0.9-1.2,1.8-1.7,2.7c-0.8,1.2-0.9,2.2-1.5,3.5
			c-0.3,0.6,0.6,1.2,0.9,0.5c0.5-1,1.6-1.9,2.3-2.7c0.7-0.8,1.3-1.7,2-2.5c0.1-0.2,0.3-0.3,0.4-0.5c-0.4,2.1-0.9,4.3-1.7,6.3
			c-1.4,3.5-3.8,5.5-6.7,7.8c-0.1,0.1-0.2,0.2-0.4,0.3c-0.1,0-0.1,0-0.2,0c-2.1,0-4.2,0.2-6.3,0.1c-1.2-0.1-2.2-0.1-3.2-1
			c-0.1-0.1-0.5-0.5-0.9-1c2.1,0.2,4.1,0.2,6.3-1c2.4-1.3,4.5-3.7,5.7-6.2c0.4-0.8-0.8-1.6-1.3-0.8c-1.5,2.6-3.4,4-6.3,4.8
			c-2.6,0.7-4.4-0.1-6.9-0.2c-0.7,0-1.3,0.5-1.5,1.1c-0.6,2.3,2.2,5.5,4,6.6c1.6,0.9,3.8,1.3,5.9,1.4c-1.1,0.7-2.2,1.2-3.4,1.1
			c-3.3-0.2-5.5-3.7-7-6.3c-0.9-1.6-1.6-3.3-2.3-5.1c-0.4-1-1.1-2-2.3-2.1c-1.5-0.1-2.4,0.7-4.1-0.1c-1.1-0.5-2.1-1.2-3-1.9
			c0.7-0.1,1.6-0.1,2-0.2c0.8-0.2,1.6-0.5,2.4-0.8c1.4-0.6,2.7-1.5,3.7-2.7c2.2-2.9,1.5-6.4,0.5-9.7c-0.3-0.9-1.7-0.5-1.4,0.4
			c0.9,3.9,0.8,8.3-3.9,9.4c-2.3,0.5-4.9-0.5-6.7,1.3c-2.5-1.8-4.5-3.9-4-7.4c1.2-7.8,10.6-9.7,17.1-10.5c3.3-0.4,6.7-0.3,10-0.6
			c-0.1,0.1-0.2,0.2-0.3,0.3c-2.1,1.8-4.6,3.1-6.9,4.7c-0.8,0.5-0.3,2,0.7,1.6c2.5-0.8,4.8-1.9,7-3.4c2.1-1.5,3.6-3.6,5.8-5
			c0.3-0.2,0.5-0.5,0.7-0.7c0.5-0.4,1-0.8,1.5-1.3c5.2-5,10.8-9.1,16.7-13.2c5.6-3.8,11.2-7.4,15.7-12.5c2.4,1.7,4.9,3.3,7.3,5
			c1.8,1.2,3.5,2.4,5.3,3.6c0,0-0.1,0.1-0.1,0.1C549.3,1174.8,547.5,1176.4,545.5,1178z M333.1,1417.9c-14.8,6.2-34.9,3.1-51.1,6.3
			c-11.4,2.3-52.9,4.7-54.7,20.7c-0.4,3.8-5.4,3.8-5.9,0c-3-25,23-26.6,40.6-32.7c11.8-4.1,28.2-12.8,43.6-15.7
			c10.2-1.9,20.1-1.3,27.9,5c1.1,0.9,2.2,1.8,3.2,2.9C341.2,1409.2,338.7,1415.5,333.1,1417.9z M436.9,1387.3
			c-28.8-9.1-57.9-9.1-87.5-13.2c-23.7-3.2-48.2-10-70.9-17.6c-1-0.3-0.6-1.8,0.4-1.5c28.8,8.3,55.1,8.8,84.7,7.9
			c25.6-0.8,51,1.6,76.5,0.5C458.1,1362.5,454,1392.7,436.9,1387.3z M479.6,1388.1c-4.4-1-2.9-7,1-7.3c53.8-5.4,108.4-1.5,162.4,0.1
			c16.3,0.5,16,26.5,0,25.2C588.6,1401.6,533.2,1399.5,479.6,1388.1z M664.2,1446.4c-45.1-1.7-91,0.4-133-17.9
			c-1.8-0.8-0.6-3.1,0.9-3.3c43.7-5.1,88.1-2.4,132.1-4.3C680.7,1420.1,680.7,1447.1,664.2,1446.4z M1199,1125
			c-0.5,0.5-0.9,1.3-0.9,2.2c-0.1,5.1,1.8,8.6-2.2,12.9c-3.1,3.3-7.4,5.9-11.6,7.3c-1.3,0.4-0.8,2.5,0.6,2.1
			c5.5-1.7,11.1-3.8,15.4-7.7c1.4-1.3,2.5-3,3.3-4.9c0.1,0.8,0.2,1.6,0.4,2.4c1,4.1,3.9,4,7.4,4.2c0.1,0,0.2,0,0.3,0
			c-0.4,4-1.1,7.4-3.6,10.7c-2.2,3-6.2,6.5-9.8,7.8c-0.6,0.2-0.6,1.3,0.2,1.2c2.5-0.2,4.5,0,6.8-1.1c2.4-1.1,4.6-2.8,6.3-4.8
			c2.9-3.4,4.9-8,5.1-12.5c1.3,0.6,2.6,1.3,3.7,2.1c-0.7,1.6-0.8,3.4-1.6,5c-1.1,2.4-3,5-4.6,7c-1,1.2,0.6,2.8,1.7,1.7
			c2.2-2.2,4.8-3.6,6.3-6.5c0.6-1,1.1-2.3,1.5-3.6c0.5,0.8,0.9,1.7,1.1,2.6c1.2,4.8-2.3,11.8-5.5,15.3c-3.5,3.8-8.5,5.6-13.4,6.8
			c-9.8,2.3-19.6,1.9-28.6,6.8c-10.9,5.9-21.4,13.2-31.4,20.5c-7.6,5.5-15.5,11.3-22.6,17.7c-2.2,2-4.3,4.1-6.3,6.2
			c-0.1,0.1-0.1,0.1-0.1,0.2c-0.1-0.1-0.3-0.2-0.4-0.3c-5.7-3.6-11.8-6.5-17.4-10.2c-1.5-1-2.9-2.1-4.3-3.3
			c9.2-7.2,18.7-14,28.3-20.6c9.3-6.4,18.6-12.8,27.9-19.3c7.6-5.3,13.8-11.8,17.5-20.4c1.9-4.4,2.6-9.1,4.1-13.7
			c1.9-5.9,5.7-9.3,11.3-11.8C1188.1,1125.2,1194.6,1122.2,1199,1125z M1094.7,1168.2c0.4,1.4,0.1,1.8-1.1,1.2
			c-0.7,0-1.5-0.1-2.2-0.2c-0.6-0.1-1.1-0.3-1.5-0.5c-2.7-1.3-2.5-4.6-2.2-7.6c0.2-1.6,0.4-3.7,1.1-5.2c0.4-0.9,0.8-1.5,1.3-2
			c0.8-0.8,1.6-1.1,2.8-0.9c0,0.2,0,0.4,0.2,0.6c2.2,3.3,1.8,6.7,1.8,10.5C1094.7,1165.1,1095,1167,1094.7,1168.2z M1100.6,1153.5
			c0.1-0.2,0.1-0.3,0.1-0.5c4.1-0.4,4.4,6.8,4.5,9.4c0.1,3.2-0.6,7.9-5.1,7c-0.3,0.1-0.7,0.1-1,0.2c0-0.9,0-1.9,0-2.8
			c0-1.4,0-2.8-0.1-4.2C1099,1159.2,1098.8,1156.5,1100.6,1153.5z M1109.2,1152.7c0.3-0.1,0.4-0.3,0.5-0.5c5,2.3,4.4,17,1.9,17
			c-1-0.8-2-1.5-2.9-2.3c-0.1-0.7-0.1-1.4-0.1-2.1c-0.1-1.2-0.1-2.3-0.1-3.5C1108.4,1160,1107.8,1153.4,1109.2,1152.7z M1119.6,1162
			c0.2,1.4-0.2,2.3-1.3,2.8c-0.5,0.3-0.9,0.7-1.1,1.3c-0.2,0-0.7-4.7-0.8-5.2c-0.4-2.9-1.4-6.5,1.2-8.6c0,0,0,0,0,0
			c2.4,0.6,2,4.8,2,6.8C1119.6,1160,1119.7,1161,1119.6,1162z M1122.6,1157.8c0-0.6,0.1-1.1,0.1-1.4c0-1.1-0.6-6.5,1-7.4
			c1.2,0,1.9,1.9,2.2,4.2c0.1,0.8,0.1,1.5,0.2,2.2c0.1,3.9-0.9,7.9-3,6.8c-0.2-0.1-0.4-0.4-0.4-0.8
			C1122.5,1160.5,1122.6,1159,1122.6,1157.8z M1129.7,1147.2c1.5,1.2,1.4,5.3,1.5,6.4c0,0.8,0.2,1.7,0.1,2.5
			c-0.1,0.9-0.9,4.5-2.9,2.6c-0.5-0.5,0-4.4-0.1-5.2C1128.3,1151.3,1127.8,1148.9,1129.7,1147.2z M1134.1,1145.7
			c0.2,0,0.3,0.1,0.5,0.1c1.1,2.4,1.7,9.2,0,8.3c-0.9-0.5-1-3.4-1.1-4.3C1133.3,1148,1133.4,1146.9,1134.1,1145.7z M1095.2,714.3
			c-18.2,11.4-33.3,21.1-36.2,23.6c-0.6,0.5-1.3,0.8-2.1,1.1c2.7,4,5.5,8,8.3,12c1.8,2.6-2.1,5.3-3.9,2.8c-3.6-4.9-7.2-9.8-11-14.6
			c-1.1,0.8-2.1,1.6-3.2,2.4c-4.3,3.3-8.4,6.7-12.6,10.1c-8.5,6.9-17.3,13.3-25.9,20c-2.4,1.9-4.8,3.7-7.2,5.6
			c-2.5,2-4.9,4.1-7.7,5.6c-1.4,0.7-2.6,1.3-4.2,1c-1.4-0.2-2.9-1.1-3.7-2.3c-0.8-1.2-1.3-2.7-1-4.2c0.3-1.6,1.1-2.6,2.3-3.7
			c2.1-1.9,4.4-3.3,6.7-4.8c2.3-1.5,4.6-3,6.9-4.6c4.5-3,9-6,13.4-9c4.6-3.1,9.1-6.3,13.8-9.2c4.6-2.9,9.2-5.7,13.7-8.7
			c1.6-1.1,3.2-2.1,4.8-3.2c-1.5-1.9-3-3.8-4.6-5.7c-1.1-1.4-2.2-2.8-3.4-4.2c-0.5-0.6-1-1.3-1.5-1.9c-0.1-0.1-0.2-0.2-0.2-0.3
			c0,0-0.1-0.1-0.2-0.2c-0.4-0.4-0.8-0.7-1.2-1.1c-2-1.9-2.2-5.2,0.2-7c2.4-1.7,5.5-0.5,6.7,2c0.2,0.4,0.4,0.8,0.6,1.3
			c0.1,0.1,0.1,0.2,0.2,0.4c0,0.1,0.1,0.2,0.2,0.3c0.5,0.7,0.9,1.4,1.3,2.1c1,1.5,1.9,3,2.9,4.5c0.4,0.6,0.7,1.1,1.1,1.7
			c0.4-0.4,0.8-0.8,1.2-1.2c3.2-2.6,15.4-10.1,31.2-19.7c-29.4-18.4-60.8-37.7-61.7-38.2c-7.3-4.8-14.5-9.8-20.7-16
			c-2.8-2.9-5.5-6.2-7.4-9.7c-0.9-1.7-1.8-3.6-2.4-5.5c-0.5-1.8-1-3.7-1.3-5.6c-0.5-1.7,2.3-14.2,2.3-14.2s8.9,16.1,24.5,29.1
			c10.1,8.4,48.8,31.9,80.9,51.4c2.3-1.4,4.7-2.8,7.1-4.3c2.7-1.6,5.3-3.2,8-4.9c28.2-17.2,57.3-35.1,65.8-42.2
			c15.6-13,24.5-29.1,24.5-29.1s2.9,12.4,2.3,14.2c-0.4,1.9-0.8,3.7-1.3,5.6c-0.6,1.9-1.4,3.7-2.4,5.5c-1.9,3.6-4.6,6.9-7.4,9.7
			c-6.1,6.3-13.4,11.3-20.7,16c-0.9,0.6-31.4,19.3-60.4,37.5c-0.4,0.3-0.8,0.5-1.2,0.8c0.4,0.3,0.9,0.5,1.3,0.8
			c15.1,9.2,26.7,16.4,29.9,18.9c0.4,0.4,0.8,0.7,1.2,1.2c0.4-0.6,0.7-1.1,1.1-1.7c1-1.5,1.9-3,2.9-4.5c0.4-0.7,0.9-1.4,1.3-2.1
			c0.1-0.2,0.2-0.3,0.2-0.3c0.1-0.1,0.1-0.2,0.2-0.4c0.2-0.4,0.4-0.8,0.6-1.3c1.2-2.5,4.2-3.8,6.7-2c2.4,1.7,2.2,5,0.2,7
			c-0.4,0.4-0.8,0.7-1.2,1.1c-0.1,0.1-0.2,0.1-0.2,0.2c0,0-0.1,0.1-0.2,0.3c-0.5,0.7-1,1.3-1.5,1.9c-1.1,1.4-2.2,2.8-3.4,4.2
			c-1.5,1.9-3,3.8-4.6,5.7c1.6,1.1,3.2,2.2,4.8,3.2c4.5,3,9.1,5.8,13.7,8.7c4.7,2.9,9.2,6.1,13.8,9.2c4.5,3,8.9,6,13.4,9
			c2.3,1.5,4.6,3.1,6.9,4.6c2.4,1.5,4.7,2.9,6.7,4.8c1.2,1.1,2,2.1,2.3,3.7c0.3,1.5-0.2,3-1,4.2c-0.8,1.2-2.3,2.1-3.7,2.3
			c-1.6,0.3-2.8-0.2-4.2-1c-2.8-1.5-5.2-3.6-7.7-5.6c-2.4-1.9-4.8-3.7-7.2-5.6c-8.6-6.7-17.5-13.1-25.9-20
			c-4.2-3.4-8.4-6.8-12.6-10.1c-1-0.8-2.1-1.6-3.2-2.4c-3.7,4.8-7.3,9.7-11,14.6c-1.9,2.5-5.7-0.3-3.9-2.8c2.8-4,5.6-8,8.3-12
			c-0.8-0.2-1.5-0.6-2.1-1.1c-2-1.7-9.7-6.7-20.1-13.4c-3-1.9-6.3-4-9.7-6.2C1099.5,717,1097.4,715.6,1095.2,714.3z M1006.6,1004.7
			c5.6-24.8,24.4-41.6,47.6-50.2c6.2-2.3,12.5-4.1,18.9-5.6c6.9-1.5,14.1-3.4,21.2-2.4c0.1,0.2,0.3,0.2,0.4,0.4
			c0.3,0.2,0.6,0.3,1.1,0.2c0.2-0.1,0.5-0.1,0.7-0.2c0.3,0.1,0.5,0.1,0.8,0.2c0.7,0.2,1.2-0.1,1.5-0.6c6-0.8,12,0.5,17.9,1.7
			c0.5,0.1,1.1,0.3,1.6,0.4c5.5,1.2,10.9,2.6,16.2,4.3c11.7,3.9,23.3,9.5,32.5,17.8c17.6,16,24.5,41.2,20.1,64.4
			c-1.4,7.2-3.8,14.2-4.9,21.5c-0.6,4.5-0.5,9.4-1.5,14c-1.7-3.1-3.7-6.1-5.1-9.4c-2.9-6.8-1.5-13.8,0.8-20.6
			c3.9-11.4,9.9-24.4,2.3-35.6c-0.7-1-2.4-0.1-1.7,1c8.8,14-4.1,29.6-6.9,43.4c-1.5,7.1-0.4,13.2,2.8,19.6
			c3.6,7.4,5.6,13.9,5.4,22.2c-0.2,7,0.5,16.4-6.2,20.6c-6.2,4-14.6,4.3-21.8,4c-6.5-0.3-11.9,2.1-15,8.1c-1.3,2.5-1.8,5.5-1.9,8.3
			c-0.1,2.4,1.8,7.7-0.2,9.5c-0.9,0.8-0.9,1.9-0.4,2.7c-0.7,0.9-1,2-1.1,3.1c-0.3-0.6-0.7-1.1-1.2-1.4c-0.1-0.7-1-1.3-1.7-0.8
			c-1.4,0.8-2.1,2.1-2.4,3.5c-0.3-0.4-0.6-0.7-1.1-0.9c0-0.3-0.1-0.7-0.4-0.8c-0.9-0.4-1.6-0.5-2.1-0.3c-1.6,0.5-1.9,3.3-2,5.3
			c-0.6-1-1.4-1.6-2.7-1.5c-0.4-0.6-1.3-1-2-0.3c-1.3,1.2-1.9,2.8-2,4.6c-0.8-2.2-2.1-4.1-4.5-4.4c-0.4-0.3-1-0.4-1.6,0.1
			c-1.1,1.1-1.4,2.7-1.4,4.3c-1.3-4.1-3.8-5.5-7.9-2.6c-0.4,0.3-0.4,0.7-0.2,0.9c-0.6,0.9-1,1.8-1.3,2.8c-0.3-1-0.7-1.9-1.3-2.7
			c0.2-0.3,0.3-0.7-0.1-1c-1.9-1.3-3.8-1.8-5.3-1.4c-1.4,0.4-2.5,1.5-3.2,3.6c-0.1,0.2-0.2,0.5-0.3,0.8c0-1.7-0.2-3.5-1.4-4.6
			c-0.6-0.5-1.2-0.4-1.6-0.1c-2.4,0.2-3.7,2.1-4.5,4.3c-0.2-1.7-0.8-3.3-2-4.6c-0.7-0.7-1.6-0.3-2,0.3c-1.3-0.1-2.2,0.5-2.7,1.5
			c-0.1-2.9-0.6-6.7-4.1-5c-0.4,0.2-0.5,0.5-0.4,0.8c-0.4,0.2-0.8,0.5-1.1,0.9c-0.3-1.4-1-2.7-2.4-3.6c-0.7-0.4-1.5,0.2-1.7,0.8
			c-0.5,0.3-0.9,0.8-1.2,1.4c-0.1-1.1-0.4-2.2-1.1-3.1c0.5-0.8,0.5-1.9-0.4-2.7c-2-1.8-0.1-7-0.2-9.5c-0.1-2.8-0.6-5.8-1.9-8.3
			c-2.9-5.7-8.1-8.4-14.3-8.2c-7.5,0.3-16,0.2-22.5-3.9c-6.6-4.2-5.9-13.6-6.2-20.6c-0.3-8.4,1.8-14.8,5.4-22.2
			c3-6.2,4.2-12.1,2.9-18.9c-2.7-14-15.9-30-7.1-44.1c0.7-1.1-1-2-1.7-1c-6.5,9.5-3.1,20.9,0.5,30.8c2.3,6.3,4.9,12.8,4.1,19.6
			c-0.6,5.6-3.9,10.2-6.6,15c-0.7-3.5-0.7-7.2-1.1-10.7c-0.7-6.7-2.6-13.1-4.2-19.6C1004.3,1028.5,1003.9,1016.4,1006.6,1004.7z
			 M1081.2,1169.2c-2.3-0.7-1.8-5.6-1.7-7.3c0.2-2.6,0.4-8.4,3.5-9.7c0.1,0.2,0.3,0.4,0.5,0.5c1.3,0.6,0.8,6.7,0.8,7.9
			C1084.5,1162.3,1085,1170.3,1081.2,1169.2z M1076.5,1160.3c-0.1,0.8-0.3,5.4-0.8,5.7c-0.2-0.3-0.4-0.6-0.5-0.9c-1-0.3-1.5-1-1.5-2
			c-0.5-1.2-0.4-2.4-0.4-3.6c0-2.1-0.5-6.8,2-7.4c0,0,0,0,0,0C1077.7,1154.2,1076.9,1157.6,1076.5,1160.3z M1069.7,1162.3
			c-2.2,1.1-3.1-3-3-6.9c0-0.6,0.1-1.2,0.2-1.9c0.3-2.4,1.1-4.4,2.3-4.4c1.6,0.8,0.9,6.2,1,7.4
			C1070.2,1157.6,1070.7,1161.8,1069.7,1162.3z M1064.5,1158.7c-0.6,0.1-1.2,0.1-1.8,0.2c-0.8-0.6-1.1-1.4-1.1-2.3
			c-0.1-0.8,0-1.7,0-2.5c0.1-1.2,0.1-5.7,1.6-6.9c1.7,1.5,1.4,3.7,1.3,5.7c0,0.9,0,1.7,0,2.6
			C1064.5,1155.9,1064.7,1158.5,1064.5,1158.7z M1059.4,1149.7c-0.1,0.7-0.2,4-1.1,4.3c-2,0.7-1.1-6,0.1-8.3c0.1,0,0.2,0,0.4-0.1
			C1059.4,1146.9,1059.5,1148.1,1059.4,1149.7z M973.8,1153.5c3.2-6.2,9.2-10.7,14.6-14.8c0.6-0.5,0.8-1.2,0.7-1.8
			c5.2-8.4,19.8-18.8,25.9-6.4c2,4,2.9,8.5,5.1,12.3c1.2,2,2.6,3.7,4.1,5.4c-3.3,0-6.7,0.8-9.6,1.2c-3.9,0.5-7.6,1-11.3-0.8
			c-3.4-1.7-8.7-5.9-8.5-10.1c0-1.1-1.5-1-1.6,0c-0.6,6.2,6.9,12,12.1,14c3.6,1.4,7.6,1.8,11.4,1.7c4.3-0.1,9,0.5,13.2,0.1
			c0.2,0,0.3-0.1,0.5-0.1c0,0,0.1,0.1,0.1,0.1c4.1,3.7,8,7.3,11.1,11.9c3.2,4.7,5.8,9.9,9.5,14.3c7.1,8.4,17.7,12.6,25.4,20.5
			c3.9,4,7.3,8.4,11.2,12.4c0.6,0.6,1.2,1,1.8,1.6c3.7,3.5,7.8,6.5,12.3,9.1c5,2.9,10.1,5.6,14.8,9c2.3,1.7,4.6,3.5,6.8,5.4
			c2.8,2.4,5.5,4.7,8.3,7c9,7.4,19.2,12,29.8,16.9c10.5,4.9,19.1,12,29,17.8c4.8,2.8,9.9,4.9,15.4,5.5c6.8,0.6,14-3.1,20.4-0.2
			c5.7,2.5,9.7,9.4,8.8,15.7c-0.9,6.4-7.4,9.3-13,10.4c-4-1.2-4.6-9.7-5.6-12.8c-1.2-3.8-2.9-7.2-5.8-10c-1-1-2.6,0.6-1.6,1.6
			c2.4,2.5,3.9,5.1,4.4,8.2c-0.7-0.8-1.5-1.5-2.2-2c-2.2-1.8-4.3-2.5-7.1-2.4c-0.6,0-0.6,0.9,0,0.9c1.2,0,2.4,0.1,3.5,0.5
			c1.9,0.7,2.4,2.1,2.8,3.8c0.6,2.2,1.3,5.1,3,6.7c0.1,0.1,0.1,0.1,0.2,0.2c0,1.2,0.1,2.4,0.3,3.6c0.3,1.7,0.9,3.4,1.8,4.8
			c-1.9,1.6-4,3-6.7,2.3c-3.2-0.8-6.8-5.1-7.6-8c-0.1-0.4-0.7-0.3-0.7,0.1c0.5,7.6,6.7,12.6,13.1,12.2c-1,1.7-2.3,3.3-4.4,4.1
			c-2.4,1-5.8,0.7-8.2,0c-3.1-0.9-4.5-2.9-6.2-5.5c-4.7-7-4.1-17.3-13.2-20.5c-1.2-0.4-1.7,1.5-0.5,1.9c8.6,3.2,5.5,12,8.3,18.8
			c2.1,5.1,4.6,9.6,9.9,11.7c4,1.5,8.8,2,12.9,0.6c-4.5,2.5-10.4,2-15-0.1c-5.2-2.3-7.8-6.4-9.7-11.5c-1.9-5.2-3.9-10.2-6.8-14.9
			c-10.9-17.4-29-29-45.7-40.1c-3.9-2.6-7.9-5.2-11.8-7.9c-11.4-7.6-22.7-15.3-34.2-22.9c-23.4-15.5-47.2-30.6-72.1-43.6
			c0.5-1,0.4-2.3-0.5-3.3c-3-3.6-5.2-8-7.8-11.9c-2.4-3.5-4.1-6.7-8.1-8.3c-4.9-1.9-9.4-2.9-13.5-6.5c-2.2-1.9-4.4-3.9-4.2-7
			c0.2-2.7,1.7-5.4,3.3-7.6c0.8-1.1-1.1-2.2-1.8-1.1c-2.3,3.3-5.2,8.4-3.3,12.5c1.8,4,6.1,7.3,9.8,9.4c2.3,1.3,4.6,2.1,7.1,3.1
			c2.4,1,3.7,2.4,4.8,4.2c-1-0.2-1.9-0.3-3-0.4c-3.3-0.4-6.4-1.3-9.4-2.6c-6.7-2.7-16.2-8-12-16.9c0.7-1.4-1.5-2.7-2.2-1.3
			c-2.8,5.9-0.6,13.7,4.4,17.6c3.3,2.5,6.9,4.5,10.7,6.1c4.3,1.8,8.7,2.8,12.7,5.3c0.9,0.6,1.8,0.7,2.6,0.5c0.5,1.2,1,2.4,1.6,3.5
			c-5.2-2.6-10.5-5-15.9-7.3c-5.4-2.3-11.9-4-16.4-7.9C970.6,1166.9,970.8,1159.3,973.8,1153.5z M1064.3,1264.4
			c-9.2,7.1-17.9,14.8-26,23.1c-1.9,2-3.5,3.8-4.7,5.9c0,0-0.1,0.1-0.1,0.1c-2.8,2.3-4.9,5.4-6.9,8.3c-0.9,1.4-1.9,2.9-2.8,4.3
			c-1.2,2-1.5,3.6-2.4,5.7c-0.4,1,0.9,1.8,1.5,0.9c0.9-1.6,2.6-3,3.7-4.4c1.1-1.3,2.1-2.7,3.2-4c0.2-0.3,0.5-0.5,0.7-0.8
			c-0.7,3.4-1.4,6.8-2.7,10.1c-2.2,5.7-6,8.9-10.7,12.4c-0.2,0.1-0.4,0.3-0.6,0.4c-0.1,0-0.2,0-0.2,0c-3.4,0-6.8,0.4-10.1,0.2
			c-2-0.1-3.5-0.1-5.1-1.5c-0.1-0.1-0.8-0.9-1.4-1.7c3.4,0.3,6.6,0.3,10.1-1.5c3.9-2.1,7.1-6,9.2-9.9c0.7-1.4-1.3-2.6-2.1-1.2
			c-2.3,4.1-5.5,6.4-10.1,7.6c-4.1,1.1-7.1-0.1-11-0.3c-1.1-0.1-2.1,0.8-2.4,1.8c-1,3.7,3.4,8.8,6.5,10.5c2.6,1.4,6,2.1,9.5,2.3
			c-1.7,1.1-3.5,1.9-5.4,1.8c-5.2-0.2-8.8-6-11.1-10c-1.5-2.6-2.6-5.3-3.8-8.1c-0.7-1.7-1.7-3.3-3.7-3.4c-2.4-0.2-3.9,1.1-6.5-0.2
			c-1.7-0.8-3.3-2-4.9-3.1c1.1-0.2,2.5-0.2,3.3-0.4c1.3-0.3,2.6-0.8,3.9-1.3c2.3-1,4.3-2.4,5.9-4.4c3.6-4.7,2.4-10.3,0.9-15.5
			c-0.4-1.5-2.6-0.9-2.3,0.6c1.5,6.3,1.4,13.2-6.3,15c-3.6,0.8-7.8-0.8-10.7,2.1c-4-2.9-7.2-6.2-6.4-11.9
			c1.9-12.5,17-15.6,27.3-16.9c5.3-0.7,10.7-0.5,16-0.9c-0.2,0.2-0.3,0.3-0.5,0.5c-3.3,2.9-7.4,4.9-11,7.4c-1.2,0.9-0.5,3.1,1.1,2.6
			c4-1.2,7.8-3,11.2-5.4c3.4-2.4,5.8-5.8,9.3-8c0.5-0.3,0.9-0.7,1.1-1.2c0.8-0.6,1.7-1.3,2.5-2.1c8.3-8,17.2-14.6,26.8-21.1
			c9-6.1,17.9-11.8,25.2-20c6.1,4.1,12.2,8.4,18.3,12.6c0.6,0.4,1.2,0.8,1.8,1.2c-0.1,0.1-0.1,0.2-0.2,0.2c-0.5,0.6-1.1,1.1-1.6,1.6
			C1082.2,1252.6,1072.7,1258,1064.3,1264.4z M1727.6,1332.8c-26.6,41.9-59.9,65.9-108,79.8c-56.2,16.2-130.8-0.1-171.6,48.2
			c-11.6,13.7-30.6-3.9-23.5-18.1c24.8-49.6,94.5-33.8,139.5-40.3c56.7-8.1,120.2-29.9,162.6-70.3
			C1727.1,1331.6,1728,1332.2,1727.6,1332.8z"/>
	</g>
</g>
</svg>
