<?xml version="1.0" encoding="utf-8"?>
<!-- Generator: Adobe Illustrator 22.0.1, SVG Export Plug-In . SVG Version: 6.00 Build 0)  -->
<svg version="1.1" id="Layer_1" xmlns="http://www.w3.org/2000/svg" xmlns:xlink="http://www.w3.org/1999/xlink" x="0px" y="0px"
	 viewBox="0 0 2000 2000" style="enable-background:new 0 0 2000 2000;" xml:space="preserve">
<g>
	<path d="M1833.1,1161.9c-62.6,10.6-125.1,21.4-187.7,32.2c-30.4,5.3-60.8,10.6-91.3,15.8c-29.9,5.2-61.8,7.9-90.8,16.8
		c-2.1,0.7-4.2,1.4-6.2,2.2c2-18.7-1.1-37.5-2.4-56.2c-1.2-16.8,0.4-34.6-3-51.2c35.8,16.8,64.8,45.5,94.8,70.9
		c9.2,7.8,26,3.3,25.5-10.6c-0.5-13.8-2.7-27.4-5.2-40.8c0.2-3.2-0.3-6.5-1.9-9.7c-5-25.5-10.2-50.9-7.4-77.7
		c4.1-38.2,24.2-76.2,61.8-90.3c12.6-4.7,15.9-25.8,0-29c-53.2-10.8-108.3-15.7-162.6-23.3c2.9-18.4-0.6-37-2-55.5
		c-0.6-8.1-0.5-16.5-0.7-24.9c34.7,16.9,63.1,45,92.4,69.8c9.2,7.8,26,3.3,25.5-10.6c-1.7-43.5-19.1-83.9-14.4-128.2
		c4.1-38.2,24.2-76.2,61.8-90.3c12.6-4.7,15.9-25.8,0-29c-53.8-10.9-109.4-15.8-164.4-23.5c0.7-0.9,1.2-1.9,1.5-3.1
		c3.4-19-0.3-38.2-1.8-57.4c-1.1-14.4,0.2-29.8-2.4-44.2c0.4-0.2,0.7-0.4,1.1-0.7c5.9-4.4,6.1-14.7-2.2-16.7
		c-6.3-1.5-9.3-0.5-14.6,3.1c-5.1,3.5-9.6,9.7-15.7,12c-3,1.1-10.8,1.4-14,2.3c-19.8,5.3-36.7,21-53,32.9
		c-8.6,6.3-6.8,17.5,2.8,21.4c12.3,5,24.8,9.4,37.5,12.9c12.2,3.4,26.2,4,36.8,11c2.5,1.6,4.9,2.4,7.2,2.5c-0.2,7,0.1,13.9,1.3,20.9
		c0.1,0.4,0.3,0.6,0.4,0.9c-30.3-4.6-60.4-10.3-89.7-18.6c-0.3-3.7-2.5-7.2-6.8-7.9c-13.4-2.2-30.2-3.8-38.7,9.4
		c-12.6,19.5,9,47.1,18.6,62.8c10.4,17,27.4,34.1,19.6,56.2c-4,11.3-15.1,21.8-22.3,31c-18.1,23.1-32.8,48-45,74.7
		c-7.1,15.6,11.8,33.7,25.2,19.5c34.2-36.2,85.8-36.1,131-22c3.5,1.1,6.9,2.3,10.3,3.7c-0.5,10.1-0.1,20.3-0.9,30.1
		c-1.4,17.7-4.6,35.4-2.4,52.9c-30-4.6-59.7-10.3-88.7-18.5c-0.3-3.7-2.5-7.2-6.8-7.9c-13.4-2.2-30.2-3.8-38.7,9.4
		c-12.6,19.5,9,47.1,18.6,62.8c10.4,17,27.4,34.1,19.6,56.2c-4,11.3-15.1,21.8-22.3,31c-18.1,23.1-32.8,48-45,74.7
		c-7.1,15.6,11.8,33.7,25.2,19.5c34.2-36.2,85.8-36.1,131-22c4.5,1.4,8.9,3.1,13.2,4.8c-4.4,17.4-2.4,36.4-3.7,54.1
		c-1.5,20.6-5.2,41.2-1.8,61.7c0.2,1.1,0.6,2,1.1,2.8c-1.6,1-3.3,2.1-4.8,3.2c-10.6,7.9-17.8,19.5-31,23.9
		c-25.8,8.5-60.8-5.6-86.5-9.8c-9.7-1.6-19.5-2.9-29.2-4.2c2.1-0.2,4.1-0.4,6.2-0.8c21.8-4.1,21.6-30.9,9-43.1
		c-7.9-21.9-22.1-38.3-35.9-57.7c-16.1-22.7-32.5-45.9-44.8-70.8c-14.1-28.5-25.2-61.6-23.2-93.8c1.9-30.1,16-57.1,31.1-82.7
		c9-2.8,16.2-18.2,8.8-24.6c-3.4-6.6-13.3-9.9-19.4-3.9c-12.3-2.8-24.7-10.5-35.9-14.7c-13.7-5.2-27.6-9.6-41.7-13.6
		c-26.9-7.7-54-14.2-81-21.7c0.7-1.5,1.2-3.3,1.2-5.4c-0.1-29.8-0.4-59.5-0.8-89.2c23.4,19.4,45.8,39.8,70.3,57.9
		c24,17.8,51.6,38.7,81.2,47.2c0.8,0.6,1.6,1.2,2.5,1.8c11.6,8,23.3,3.4,30-5.5c2.3-2.3,3.9-5.1,4.4-8.4c3.2-9.7,1.1-21.1-10-27.8
		c-21.7-13.2-30.7-26.7-37-50.3c-0.1-1.4-0.4-2.7-1-4c-5.6-22.8-9.6-46.5-8.8-70c1.6-46.6,24-77.9,52-110.8c22-1.6,25.3-38-1.9-40.6
		c-59.2-5.8-117.7-7.6-176.3-19.4c-2.7-0.5-5.3-1.2-8-1.7c10.4-21.5,0.1-49.7-1-72.9c-1.1-22.4,1.4-45.7-2.1-68
		c0.2-0.2,0.4-0.4,0.6-0.7c7.4-8.2-3.6-18.5-11.9-11.9c-19.2,15.2-36,31.5-58.2,42.5c-19.6,9.7-40.9,15.9-62.4,19.6
		c-2.2-0.5-4.4,0-6.3,1.1c-0.1,0-0.1,0-0.2,0c-3.3,0.5-4.8,3.2-4.8,6.1c-0.9,2.9-0.4,6.1,2.6,8.5c14.9,11.9,30.6,21.7,48.2,29
		c21.8,9.1,45,13.7,65.6,25.7c4.2,2.4,8,3.5,11.3,3.7c0.4,4.8,1.3,9.5,2.9,13.9c-42.2-9.9-83.6-23.1-123.9-39.1
		c-1.6-1.9-3.2-3.8-4.8-5.7c-6.6-7.4-16.5,3.2-10.6,10.6c16.3,20.5-4.1,29.5-17.9,43.7c-9.2,9.4-17.8,19.5-25.2,30.4
		c-16.5,24.4-24.4,52.8-27.9,81.8c-4,33.1-2.8,66.6,2.9,99.4c3.5,19.9,8.1,62.5,27,76.9c0,0.1,0,0.2,0.1,0.3
		c-2.1,3.6-0.6,9.1,4.7,8.8c0.8-0.1,1.7-0.1,2.5-0.1c13.3,14.6-18.9,47-25.7,57.4c-9,13.8-16.6,28.4-23.2,43.5
		c-13.3,30.8-21.4,63.6-23.9,97c-2.4,32.8,0.9,66.2,9.5,97.9c9.8,36.4,27,64.6,47.5,95.6c5.4,8.2,18.4,5.2,18.7-5.1
		c1.6-77.1,88.5-78.4,159.1-61.5c-2.3,18.2-1,37-1.3,55.2c-0.3,21.4-2.1,43.3,0.1,64.6c-24.2,1.6-48.4,3.5-72.6,5.5
		c-60.4,5.2-121.9,14.7-182.6,9.4c-47.3-4.1-90.6-24.5-136.5-34.3c6.8-14.3,1.1-29.1,0.3-47c-1-22-0.5-44-0.2-66
		c39.2,24.2,77.3,50.1,118.3,71.6c23.5,12.3,44.3-23,22.1-35.4c-0.8-1.5-1.7-3.1-3-4.6c-11.1-13.9-14.9-36.9-20.7-53.6
		c-8.5-24.5-14.3-47.5-11.2-73.5c5.6-48.5,25.5-82,57.5-116.9c10.1,1.6,14.2-15,3.3-18.4c-55.9-17.4-112.4-29.3-170.1-38.8
		c0.2-0.4,0.5-0.8,0.6-1.2c4.4-13.7-0.1-29.5-0.6-43.8c-0.4-10.7-0.1-21.2-2-31.4c7.4,1.7,13.5,3.7,17.6,5.5
		c20.7,9.5,34.5,26.7,51.5,41.2c14.9,12.7,31,23,48.6,31.6c24.3,11.7,40-24.9,14.4-34.2c-0.6-0.2-1.2-0.5-1.8-0.7
		c-0.3-0.7-0.6-1.4-1-2.1c-24.8-41.5-21.5-85.4,1.2-126.4c7.2-3.3,8.9-17-1.4-20.5c-42.2-14.7-83.9-29.6-126.4-40.5
		c4.2-9.5,3.9-19.6,2.5-29.9c0.1-2.6-0.3-5.3-1.2-7.8c-1.2-6.9-2.5-13.9-3-20.8c-1.2-18.4,0.9-37.3-2-55.5c0.3-0.3,0.6-0.6,0.8-0.9
		c5.8-6.7-2.1-19.4-10.2-13.2c-15.5,11.9-28.9,25.3-46.5,34.6c-16.4,8.7-34.6,14.2-52.9,17.7c-2.8-0.8-5.6-0.1-7.8,1.5
		c-1.8,0.7-2.9,2.1-3.3,3.8c-1.8,3.3-1.7,7.3,1.9,10.3c12.3,10.1,25.3,18.8,40,25.2c17.6,7.7,37.5,10.8,53.4,22
		c3.2,2.2,6.6,3.2,10.1,3.2c0.3,2,0.7,3.9,1.3,5.8c-43.2-9.9-87.1-15-133.1-10.8c-2.2,0.2-3.4,1.8-3.6,3.6c-1.1,3.1-0.1,7.2,3.7,8.1
		c25.5,6.2-12.1,56.4-16.9,66.7c-6.8,14.7-12.4,30-15.2,45.9c-6.2,35.5,2.8,63.3,26.5,89.9c8.3,9.3,21.2-0.8,19.2-11.2
		c-9.9-53.1,74.9-53.3,124-44.1c-2.4,10.9-2.1,22.1-2.5,33.5c-0.5,13.9-4.7,29.2-0.9,42.6c-48.8-7.9-99-15.2-148.2-10
		c-2.2,0.2-3.4,1.9-3.6,3.6c-0.4,0-0.8-0.1-1.3,0c-4,0.4-5.1,5.9-1,7.2c21.2,6.7-10.5,31.3-13.9,35.1c-5.5,6.1-10.2,13-14.1,20.2
		c-9.1,16.5-14.2,35-17.9,53.3c-4.3,20.7-8,42.5-6.5,63.7c1.6,23.9,12.4,45.7,13.7,69.4c0.6,10.9,16.8,17.6,22.4,6.1
		c30.4-63.2,117.5-18.3,160.6,6.4c2.9,1.7,5.7,3.4,8.6,5.1c0,0.1,0,0.1,0,0.2c0.2,26,1.1,52.1,0,78c-0.7,16.4-5.5,30.1-1.1,43.3
		c-4.4-0.6-8.8-1-13.3-1.3c-51.7-3.2-109.5,16.8-159.7,1.1c-28.9-9-39.2-38.3-65.7-50.5c-24.8-11.4-52.9-6.7-79-11.4
		c-54.8-9.9-90.6-59.9-119.7-104c0.5-2.6,1.1-5.3,1.7-8c3.5-14.9-20-18.5-20.9-2.8c0,0.1,0,0.3,0,0.4c-4.1,2.6-6.4,7.6-3.1,13
		c0.7,1.1,1.3,2.2,2,3.3c-3,37.8-8.4,75.8-9.3,113.6c-1,40.8,5.8,81.1,17.3,120.2c20.3,68.4,52,138.4,109.7,183.2
		c0.9,0.7,1.8,1.3,2.7,1.9c2.5,7.2,8.6,12.8,18.4,12.7c0.3,0,0.6,0,0.8,0c20.9,11.8,43.3,18.9,68,22.9c21.1,3.4,27.1,15,37,32.5
		c10.4,18.4,20.2,37.3,31.6,55.2c40.4,63.7,95.6,114.2,171,130.9c77.2,17.2,159.4,7.4,237.3,1.3c95-7.4,190.1-14.9,285-23.7
		c95-8.8,189.8-18.5,284.7-28.7c76.9-8.2,162.5-1.5,230.5-44.5c62.8-39.7,103.9-105,131.2-172.4c36.9-90.9,59.2-188.9,75.4-285.3
		C1854.7,1168.9,1845.7,1159.8,1833.1,1161.9z M1385.3,553.2c8.2-5.9,16.4-11.8,24.4-17.9c7.7-5.8,15.5-13.9,25.1-16.3
		c3.1-0.8,5.8-1.1,8.3-1.5c-1.8,13.4-0.8,27.6-1.8,40.8c-0.1,1.9-0.3,3.9-0.5,5.8C1421.6,560.6,1403.5,558.1,1385.3,553.2z
		 M1423.3,787.9c-31-7.3-62.5-8.6-91.1-0.1c1.8-2.8,3.6-5.5,5.5-8.2c10.5-14.8,28.5-31.2,30-50.5c1.5-18.9-10.5-41.6-17.4-58.7
		c-3.8-9.3-7.5-18.5-11.7-27.5c-4.2-8.9-19-35.7,2.1-33.5c4.3,0.4,7.3-2.3,8.7-5.8c37.8,14.2,77,19.8,117,26.7
		c38.2,6.6,75.1,17.3,111.7,29.6c-6.6,5-12.6,10.8-18,17.1c-9.6-4.5-19.4-8.4-29.8-10.7c-14.1-3.2-28.4-3.8-41.9-9.4
		c-1.8-0.7-2.8,2.1-1.3,3c20.3,11.7,43.7,17.2,65,27.5c-3.4,4.9-6.4,10.1-9.1,15.6c-8.1-2.5-16.4-4.4-24.2-8.2
		c-9.7-4.7-18.3-10.4-29.1-12.2c-2.6-0.5-3.5,2.9-1.1,3.9c11.3,4.6,20.2,13.7,31,19.3c5.6,2.9,11.9,6.3,18.2,8.9
		c-1.4,3.6-2.7,7.2-3.8,10.9c-9.8-3.1-19.8-5.4-29.6-8.4c-12.1-3.8-23.4-8.6-36-10.2c-1.4-0.2-1.7,2.2-0.3,2.5
		c13.7,3.5,25.6,9.9,37.1,17.8c8.2,5.6,16.5,9.1,25.1,13.1c-1.6,8-2.6,16.1-3.1,24.3c-18.6-12.7-41.6-20.3-61.9-28.9
		c-1-0.4-1.5,1.1-0.7,1.7c19.3,14.3,39.6,32.1,62.3,41c0,8.1,0.4,16.2,1.2,24.1c0.1,0.8,0.2,1.6,0.3,2.5
		c-23.9-14.1-47.7-28-71.4-42.5c-2.8-1.7-5.4,2.7-2.6,4.4c26.8,17.2,51.5,35.7,76.3,55.7c0.1,0.1,0.3,0.2,0.4,0.3
		c1.9,10.2,4.1,20.3,6.1,30.4C1503.2,824.7,1468.2,798.5,1423.3,787.9z M1423.3,1079.8c-31-7.3-62.5-8.6-91.1-0.1
		c1.8-2.8,3.6-5.5,5.5-8.2c10.5-14.8,28.5-31.2,30-50.5c1.5-18.9-10.5-41.6-17.4-58.7c-3.8-9.3-7.5-18.5-11.7-27.5
		c-4.2-8.9-19-35.7,2.1-33.5c4.3,0.4,7.3-2.3,8.7-5.8c30.7,11.6,62.5,17.4,94.7,22.9c1.4,0.6,2.9,0.9,4.5,0.8c5.9,1,11.8,2,17.8,3
		c38.2,6.6,75.1,17.3,111.7,29.6c-4.1,3.1-7.9,6.5-11.5,10.1c-25.5-7-50.7-11.3-76.9-15.2c-1.8-0.3-2.7,2.4-0.8,2.8
		c23.6,5.7,47,13.2,70.2,20.7c-3.6,4.4-7,9-10,13.8c-16.3-2.3-33.2-2.7-48.8-8c-13.4-4.5-26.7-10-40.8-11.8c-1.6-0.2-2,2.6-0.4,2.9
		c15.5,2.6,26.3,12.3,39.9,19.2c13,6.7,27,11.3,37.8,21.5c0.1,0.1,0.3,0.2,0.4,0.4c-0.9,2.3-1.7,4.7-2.5,7.1
		c-22.5-2.7-44-7.2-65.4-14.8c-3-1.1-4.8,3.5-2.1,5c20.5,11.8,40.1,24.5,60.2,36.8c0.4,0.2,0.8,0.3,1.2,0.6c-1,7.6-1.6,15.3-1.7,23
		c-21.7-7.1-45.7-11.7-62.4-28c-1.2-1.1-3.3,0.4-2.3,1.8c6.5,9.3,14.6,15.2,24,21.3c12.9,8.4,22.6,20.1,33.1,31.3
		c2.9,3.1,6,4.4,9.1,4.6c0.3,2.5,0.6,5,0.9,7.5c-6.6-3.3-13.4-6.5-20.5-9.9c-18.3-8.7-31.8-24.4-48.2-35.8c-1.7-1.1-3.8,1.1-2.8,2.8
		c10.1,15.3,17.8,28.8,31,42c3.4,3.4,6.3,7.2,8.9,11.1C1475.3,1099.1,1451.2,1086.4,1423.3,1079.8z M1008.1,430.7
		c-8.4-2.4-16.9-4.6-25.4-6.5c-11.3-2.6-22.4-4.8-33.1-8.2c36.8-7.4,71-25,98.3-51.1c-1.7,19.5,0,39.5-1,58.8
		c-0.2,4.2-0.7,8.6-1.4,13.1c-3-0.4-6.5-0.2-10.5,0.9C1027.6,440,1015.3,432.8,1008.1,430.7z M572.2,559c-7-1.5-13.9-2.8-20.7-4.4
		c27.1-6.5,52.6-19.7,73-38.9c-1.2,15.2,0.1,30.8-0.9,46.1c-0.1,2.2-0.4,4.4-0.7,6.6c-2.9-0.5-5.9-0.3-9,0.9
		C606.5,572.3,581.4,561,572.2,559z M485.7,781.9c-7.3-16.1-9.9-32.4-7.4-53.2c3.3-27.1,12.3-49,24.3-73.2
		c6.7-13.7,11.2-31.5,3.1-41.8c83.6,4.3,165,32.5,242.3,63.6c-1.6,2.7-3.2,5.4-4.6,8.1c-0.9-0.4-1.8-0.6-2.9-0.8
		c-9.6-1.4-19-0.8-28.7-2c-9.7-1.3-19.4-2.6-29.1-3.9c-0.6-0.1-0.7,0.8-0.3,1c8.2,4.5,16.3,9,24.5,13.6c3.5,1.9,7.1,3.7,10.5,5.8
		c4.7,2.9,8.2,6.6,13.1,9.3c1,0.5,2,0.9,2.9,1.2c-0.5,1.7-1,3.3-1.5,5c-15.9-10.4-41.2-10.3-57.9-15.7c-2.5-0.8-4.9,2.9-2.7,4.6
		c8.8,6.9,18.3,12.2,28.3,17c9.3,4.5,18.5,11.6,28,15.3c-0.7,5.7-1.2,11.3-1.3,17.1c-12.6-6.9-24.2-14.5-36.7-22.4
		c-16-10.1-32.3-16.1-49.6-23.9c-0.8-0.4-1.6,0.8-0.7,1.3c14.2,7.6,27,17.9,40.3,27c16.6,11.5,29.8,22.5,40.8,39.4
		c2.2,3.4,4.8,5.1,7.4,5.7c0.5,3.8,1.2,7.6,1.9,11.4c-14.5-9.6-28-20.4-42.7-31.1c-25.8-18.6-57-25-88.2-26.5
		C554.2,731.7,504.6,743.7,485.7,781.9z M579.8,1045c-43.3-16.9-102.8-28-134.6,6.1c-6.4-20.8-13.9-40.5-12.1-64.5
		c2.1-29.1,7.5-63.8,22.6-89.3c8.2-13.9,29.2-26.5,30.2-44c0.3-6.2-1.7-11.8-5.5-15.3c104.5-3.8,212.4,25.2,311,58.3
		c-30.6,34.8-58.7,80.6-65.7,125.8c-3.8,24.2-5.6,48.9,0.5,72.8c2.4,9.5,4.3,19.7,6.4,29.8c-19.5-9.8-38.8-19.8-57.7-30.6
		C643.7,1076.4,613.1,1058,579.8,1045z M891.6,788.1c-2.1-3-4.7-5.8-8-8.4c-0.2-0.7-0.5-1.4-0.9-2.1c21.4-27.4,36.9-57.6,72-70.2
		c31.1-11.2,59.3-10.2,85.7,4.7c-0.6,34.8-0.9,69.5-1.1,104.3C990.7,802.5,942.1,788.9,891.6,788.1z M857.9,724
		c-4.6-20-7-40.4-7.6-60.9c-1.1-35.7,2.3-74,18.8-106.3c7.2-14.2,17.1-26.6,28-38.2c9.2-9.8,22.9-18.9,30.1-30.2
		c4.1-6.5,4.3-12.7,2.5-18.7c43,19.6,87.5,34.6,133.9,45.3c52.8,12.2,105,25.5,157.6,38.4c-4.9,4.3-9.4,8.7-13.6,13.4
		c-3.2-3.6-8.2-5.6-14.8-3.7c-23.9,7-54.3,5.5-75.2-7.7c-0.9-0.6-1.9,0.7-1.1,1.4c21.6,20,43.3,30.9,72.1,35.9
		c-2.5,4.3-4.7,8.8-6.8,13.3c-1.1-0.4-2.2-0.6-3.3-0.7c-29.7-2.4-53.3-21.4-76.9-38c-2.9-2-6.4,2.5-3.8,4.9
		c13.8,12.5,27.5,25,41.5,37.2c9.2,8,21.2,17.9,33.6,20.3c-1.7,5.7-3.1,11.6-4.3,17.7c-9.5-3.2-19.2-9-27.9-13.6
		c-17.1-9.1-33.3-18.6-48.8-30.3c-3.2-2.4-7.1,2.8-4.2,5.5c13.8,12.4,27.7,24.9,42.5,36c10.8,8,22.5,17.6,35.2,23
		c-0.2,1.9-0.5,3.7-0.6,5.7c-0.3,3.5-0.6,7-0.8,10.6c-11.8-4.4-23.7-8.6-34.6-14.9c-20.1-11.6-37.7-29.6-54.9-45.1
		c-2.3-2-5.6,1.3-3.4,3.4c18.3,17.2,37.8,32.9,56.5,49.7c10.5,9.4,22.3,19.4,35.4,25.9c-0.1,2.9-0.2,5.7-0.2,8.6
		c-7.8-4.1-15.5-8-23-12.4c-23.2-13.7-47.4-26.9-68.3-43.8c-1.1-0.9-2.5,0.5-1.6,1.6c27,31.8,56.6,71.6,94.9,92.5
		c0.9,7.4,2.1,14.8,3.8,22.1c0.2,0.8,0.5,1.5,0.7,2.3c-22.9-15-44.4-34.4-60.8-47.8c-26.8-22-53.4-49.3-89.1-55.3
		c-68.8-11.5-128.3,32.7-149.1,95.5C863.3,754.2,860,733.4,857.9,724z M905.8,1110.4c-19.6,10.3-38.3,28.9-46.9,50.5
		c-37.4-63.3-46.7-145.5-27.3-215c11.1-39.7,31.6-70.6,54.6-104.1c9.1-13.3,13.8-28.2,10.6-41.6c53.5,2.2,104.8,18.6,156.3,33.6
		c25.9,7.5,52,13.9,77.9,21.2c21.7,6.1,62.9,13.2,81.3,31.2c-29.9,52.3-45.4,101.4-27,162.7c8.9,29.6,22.8,56.7,39.4,82.7
		c13.9,21.8,24.1,41.4,29.8,64.4c-12.7-5.8-25.6-13.8-32.9-17.4c-20.7-10.4-41.4-20.7-62.2-31c-41.2-20.3-84.2-39.7-129.8-47.3
		C989.6,1093.5,943.1,1090.8,905.8,1110.4z M1051.7,1180.4c-0.2-16.6,0.8-33.8-0.8-50.5c20.8,6.1,39.1,13.4,52.1,20.3
		c33.3,17.7,62.1,42.4,94.1,62.1c19.3,11.9,42.8,28.3,66.7,35.1c-41.1-4.3-82.5-6.2-123.9-6.3c-29.4,0-58.8,1-88.2,2.6
		C1053.7,1222.8,1051.9,1201.4,1051.7,1180.4z M251.7,1164.9c16.7,10,35.1,16.1,54.4,18.3c32.6,3.8,62-0.2,85.9,26.4
		c33.5,37.2,72.7,42.1,121.3,38.1c30.8-2.5,61.5-6.3,92.4-4.5c34.1,2,65.2,13.1,97.6,23c120,36.7,248.6,10.4,371.5,7.3
		c65-1.6,130.1-1.3,194.8,6c30.3,3.4,59.9,9.8,89.9,14.6c21.1,3.4,44.2,5.4,63.8-4.9c12.2-6.4,20.2-17.3,31.3-25.1
		c15.1-10.6,34.1-12.3,51.9-15.3c37.2-6.3,74.5-12.5,111.7-18.8c55.9-9.4,111.8-18.8,167.7-28.3c-81.3,30.3-170.4,36.4-252.6,64.4
		c-3.3,1.1-2,6.3,1.5,5.3c60.1-17.9,123-20.7,184.5-30c-61.8,13.5-127.3,15.7-185.8,41.5c-20.5,9-38,21.5-56.3,34.3
		c-27,18.8-52.7,18.1-84.5,17.9c-61.8-0.4-123.6-1.4-185.5-2.4c-242.9-3.9-487.4-3.4-729.8-20.4c-26.8-1.9-54.3-5.3-79.2-15.9
		c72.7-5.6,145.3-0.7,218.1,5.4c5.7,0.5,7.1-9.2,1.4-10.1c-83-12.4-166.7-16.4-250-26c-3-0.3-5.6,0.2-7.8,1.2
		c-7.1-8-14-16.5-22.7-24.4c-32.8-30.1-122.7,2-143.6-40.7c3.7,0.7,7.5,1.3,11.5,1.8c30.6,3.8,61.3,5.9,91.9,10.1
		c3.6,0.5,5.3-4.7,1.6-5.7c-22-5.8-43.7-12.3-65.4-18.9c-18.2-5.6-32.7-12.3-49.2-21.2c-1-5.5-1.9-10.9-2.7-16.4
		c2.7,2.3,5.5,4.3,8.1,5.8c8.2,4.9,18.3,8,27.3,10.8c1.8,0.6,2.9-2.1,1.3-3c-8.4-5.1-13.9-11.4-19.9-19.1c-5-6.4-9.7-15.3-17.4-18.3
		c-0.8-0.3-1.5-0.4-2.3-0.3c-1.2-13.3-1.5-26.6-0.7-40C197.5,1117.6,220.5,1146.3,251.7,1164.9z M1762.9,1415.3
		c-14.2,42.2-31.8,87.2-56.4,126.4c-3.2-1.5-6.9-2-10.6-1.1c-17.9,4.6-33.1,16.4-51.1,21.8c-20.8,6.3-42.1,11.3-63.3,16.1
		c-44.7,10.3-89.7,17.6-135,23.9c-3.5,0.5-2.6,6.3,0.8,6.1c52.3-2.1,104.8-2.6,157-7.3c6.5-0.6,13.8-1.1,21.4-1.8
		c-3.1,1.6-6.2,3.1-9.4,4.4c-21.6,8.7-43.9,15.9-66.3,22.3c-49.9,14.4-101.2,19.5-152.8,23.7c-2.1,0.2-2.1,3.4,0,3.3
		c56.5-3.1,113.5-6.1,169.8-12.2c8.2-0.9,18.1-1.8,28.5-3.2c-43,17-90.7,22.3-138.7,27c-87.6,8.7-176.1,11.9-263.9,17.6
		c-86.3,5.6-172.6,11.8-259,15.7c-79.8,3.5-161.2,10.2-241.1,4.2c-8.1-0.6-16-1.5-23.9-2.6c122.8-9.1,245.5-20.6,368.2-31
		c2.8-0.2,2.9-4.4,0-4.4c-152.9-1.8-306.1-1.6-458.7,7.6c-6.7-3.5-13.3-7.3-19.7-11.4c85.2-4,170.4-9.9,255.6-13.5
		c104.2-4.4,208.1-6.1,312.4-5.6c4.3,0,4.2-6.4,0-6.6c-202.9-7.7-408.1-18.5-611.2-10.2c-0.8-0.9-1.7-1.7-2.5-2.6
		c95.3-5.8,190.6-10.8,285.8-17.6c107.4-7.7,215.5-4.5,323.1-4.1c3.3,0,3.3-4.9,0-5.1c-107.6-7.1-215.5-6.7-323.1-12.2
		c-104.9-5.4-210.2-3.7-315,1.1c-2.7-3.9-5.4-7.9-8-11.9c86.9-0.8,173.8-1.5,260.6-3.4c100.7-2.2,199.3-19.1,300.2-10.8
		c2.6,0.2,2.6-3.8,0-4c-99.4-9.9-200.5-3.6-300.2-4.9c-94.2-1.2-188.3-6.8-282.4-10.5c-1.2-1.8-2.4-3.7-3.6-5.5
		c67.3-0.5,135-4.1,202.1-6.1c72.7-2.2,147.1-2.5,218.7-16.3c1-0.2,0.8-1.9-0.2-1.8c-74.3,4.8-149.4-2.6-223.7-4.5
		c-74.7-1.8-149.7-6.8-224.3-7.2c-3.3-3.1-6.8-5.9-10.6-8.2c131.8-7.5,263.5-20.8,395.5-14.8c3.8,0.2,3.7-5.6,0-5.9
		c-84.1-5.7-168.6-3.7-252.8-7c-81.8-3.2-163.1-8.4-245-8.6c-6.7-5-13.1-10.4-19.1-16.4c27.5-2.9,54.8-7.2,82.6-7.6
		c39.2-0.6,78.4-1.2,117.5-1.8c75.5-1.2,151.7-2.5,226.9,5.6c4.7,0.5,4.6-6.8,0-7.3c-75.3-9.1-151.3-7.5-226.9-9.9
		c-37.5-1.2-75-2.5-112.4-3.7c-39.6-1.3-78-9.6-117.4-12.1c-1.7-2.6-3.4-5.2-5-7.9c17.7-1.2,35.5-4.6,53-6
		c30.9-2.5,61.9-4.7,92.9-5.4c60-1.4,120.5,4.2,180.3,9c4,0.3,4-5.9,0-6.2c-60-5.1-120.3-6.9-180.3-12.3c-29.3-2.7-58.5-6-87.7-8.9
		c-25.4-2.5-52-8.6-77.5-6.6c-1.3-2.9-2.6-5.7-3.9-8.6c36-2.2,72.2-9.7,108-10.9c1.7-0.1,1.6-2.5,0-2.6
		c-39.5-2.4-79.5-12.6-119.2-14.9c-2.1-5.8-4.1-11.6-6-17.4c20.9-5.6,44.1-7.6,65.1-7.7c1.9,0,1.8-2.8,0-2.9
		c-23.5-2.3-49.1-5.7-72-12.1c-4.1-14.6-7.7-29.3-11.1-44.1c16.8,10,38.3,14.4,58.6,15.1c13.7,0.4,27.7-1.1,41.4,0.7
		c19.1,2.5,26.7,12.2,37.8,26.3c13.8,17.6,29.3,31.1,49.8,40.5c46.9,21.7,101.9,21,152.4,23.7c65.2,3.5,130.4,6.3,195.6,9.4
		c133.9,6.2,267.8,10.7,401.7,14.3c67,1.8,133.9,3.3,200.9,5.1c56.7,1.5,114.1,12.6,163.2-21.5c50.7-35.2,103.2-47.8,163.6-56.6
		c49.1-7.2,98-13.9,143.3-34.1C1794.5,1310.3,1780.4,1363.4,1762.9,1415.3z"/>
	<path d="M1722.8,1428.6c-4,27-37.2,43.1-59.2,53.6c-4.3,2.1-9.1,4.2-13.8,6.6c-1.4-12.4-3.3-24.7-3.7-35.7
		c-0.8-21.7-0.3-67.1,0.8-69c11.5-0.7,23.1-0.3,34.5-1.8c-5.4,7.3,4.4,18.6,12.9,11.1c11.5-10,4-30.7,0.3-42.8
		c-2.5-8.1-14.8-3.4-10.9,4.6c1.5,3.2,3.6,9.1,3.9,14.5c-9.9-3.3-20.7-4.1-31.4-4.1c6.2-8.2,11.3-16.6,11.6-28.1
		c0.4-14.9-6.5-30.2-23.1-30.9c-12.9-0.6-29.3,6.8-31,20.9c-1.6,12.9,3.6,27.5,11.1,38.3c-13.9-0.6-28.7-0.5-41.9,3.8
		c0.3-5.4,2.4-11.3,3.9-14.5c3.8-7.9-8.4-12.9-10.9-4.6c-3.7,12.1-11.2,32.7,0.3,42.8c8.4,7.3,18.4-3.8,12.9-11.1
		c11.4,1.4,23,1.1,34.5,1.7c1.9,3.2,6.5,50.7,6.8,73.2c0.1,9.8-0.7,20.5-1.2,31.3c-4.6-2.4-9.3-4.5-13.6-6.5
		c-21.9-10.4-55.2-26.8-59.2-53.6c-0.3-2.2-4.1-1.7-3.9,0.5c1.5,20.3,9.1,35.6,24.5,49c8.2,7.1,17.3,12.9,26.4,18.8
		c5.7,3.7,10.9,6.3,14.6,12.1c3.4,5.2,19.5,32.3,21.6,32.4c3.5,0.3,22.5-35.4,33.8-42.9c9.9-6.5,20-12.7,29-20.5
		c15.4-13.4,23-28.7,24.5-49C1726.9,1426.9,1723.1,1426.4,1722.8,1428.6z M1637,1355.6c-2.2-5.3-3.1-11-4-16.8
		c-0.6-4.3-1.2-8.2,2.8-10.8c4.7-3.2,9.7-0.8,11.1,4.3C1649.2,1340.4,1643.4,1348.5,1637,1355.6z"/>
	<path d="M1089.7,970.7c-2.4-3-3-4.6-6.4-4.1c1.8-1.6,3.8-3.1,5.3-5.7c5.9-9.9,4.5-23.3,4.8-34.2c0.6-23.1,2.2-40.7-21.7-51.3
		c-24.6-10.9-58.5-0.6-80.4,12.2c-20,6.8-29.4,22.2-35,42.2c-2.3,8.3-5.3,21.8-5.5,34.7c-0.4-0.7-0.8-1.3-1.3-1.9
		c-8.3-8.3-20,0.2-22.4,9.5c-9.4,2.3-13.9,15.5-8.7,24.2c2.5,4.3,7.3,6.5,12.2,6.7c2.7,0.1,5.5-0.6,8-1.6c0.5-0.2,5.1-3.5,6.7-4.3
		c4.1,7.1,12.4,10.6,19.5,14.3c5,2.6,9,4.9,13.9,2.6c0,1.6,0.2,3.2,0.4,4.7c0.3,1.9,1.5,2.8,3,3c0.5,2.3,1.2,4.6,2,6.8
		c-2.1-1.6-5.5-1.4-6.8,0.9c-0.3,0.2-0.7,0.4-1.5,0.8c-2,0.9-3.9,2.2-5.7,3.4c-2.9,2-6.5,6.1-9.8,6.9c-5.4,1.3-9.9,0.1-13.1,6.2
		c-5.5,10.4,4.4,18,13.8,18.3c2.5,6.1,8.1,12.4,15.2,10.8c2.9-0.7,5.1-2.4,6-5.3c0.5-1.4,0.4-3,0.3-4.5c-0.2-1.2-0.3-2.5-0.5-3.7
		c-0.1-0.8-0.2-1.3-0.3-1.8c4.8-3.1,13-8.3,14.3-13.7c6.1,5.4,14.2,8.7,24.2,8.5c8.9-0.1,19.3-3,26.8-8.7c0,0.7,0,1.4,0.2,2.2
		c0.7,4.3,4.2,6,7.6,8c6.7,3.7,12.6,8.9,19.5,12c5.5,4.7,9,16.2,17.7,8.8c3.6-3,4.6-7.2,3.2-10.9c6.1-2.8,9.4-10.1,5.4-16.8
		c-2.1-3.6-5.9-5.9-9.9-6.7c-4.7-1-8.7-1.2-13-3.6c-3.6-2-6.9-4.3-10.9-5.5c-3.4-1-7.4-0.7-10.8,0.6c1.4-3.8,1.8-8,0.9-12.9
		c-0.2-1-0.5-2.4-1-3.8c5.7,0.2,11.2-5.1,16.1-8.4c7.3-5,13.6-11.1,22.7-12.4c4.3-0.6,7.7,0.3,11.5-2.5c4.6-3.4,5.3-8.2,2.1-13
		C1103.6,975,1094.5,976.7,1089.7,970.7z M977.3,1029.4C977.6,1029.1,977.7,1029.1,977.3,1029.4L977.3,1029.4z M977.1,1029.7
		c-0.1,0.3-0.3,0.6-0.3,0.9C976.9,1030.2,977,1029.9,977.1,1029.7z"/>
	<path d="M652.5,951.1c-2.9-0.7-2.7-0.6-4.4-2.7c-1-1.2-1.8-2.1-2.6-2.6c1.3-2,2.6-4,3.7-6.5c3.1-7.7,1.9-18,2-26
		c0.2-14.9-2.4-23.9-17.7-29.9c-15.4-6-39.1,0.1-51.9,9.5c-14,4.7-20.6,15.9-24.4,30.1c-1.3,4.9-2.8,11.9-3.2,18.9
		c-5.9-4.8-13.7,0.5-15.9,6.9c-6.6,2.1-9.7,11.4-6.1,17.8c1.9,3.3,5.5,5,9.2,5.2c2,0.1,4-0.4,5.8-1.3c0.1-0.1,2.4-1.9,3.6-2.8
		c1.8,4.1,6.5,6.1,10.5,8.4c3.5,2,7,4.4,11,3.6c0,0.2,0,0.4,0,0.6c0.3,2.2,1.6,3.4,3.1,3.8c0.1,0.4,0.2,0.9,0.3,1.3
		c-1.6-0.2-3.4,0.3-4.3,1.7c-1.4,0.9-3,1.6-4.4,2.5c-1.7,1.1-4,3.9-5.8,4.4c-2.1,0.6-3.9-0.2-6.1,1c-1.6,0.9-3.1,2.3-3.9,3.9
		c-4.1,7.7,2.7,13.5,9.6,14.1c2,4.4,6.1,8.3,11.2,7.2c2.3-0.5,4.1-2.1,4.8-4.4c0.3-1.1,0.3-2.2,0.3-3.3c-0.1-0.9-0.3-1.8-0.4-2.8
		c0-0.1,0-0.1,0-0.2c3.2-1.9,7.4-4.9,9-8.2c4.1,3.1,9.2,5,15.4,5c5.6,0,11.8-1.6,16.7-4.7c0.6,3.1,3,4.5,5.6,6
		c4.5,2.5,8.6,6.7,13.6,8.1c4.1,3.3,6.5,11.1,12.9,5.2c2.3-2.1,3-4.8,2.5-7.2c4.1-2.4,6.1-7.6,3.3-12.3c-1.5-2.6-4.3-4.4-7.2-5
		c-3-0.7-5.6-0.8-8.3-2.4c-2.5-1.4-4.8-3-7.6-3.8c-1.9-0.6-4-0.6-5.9-0.2c0.4-2,0.5-4.2,0.1-6.6c-0.1-0.4-0.2-0.9-0.3-1.4
		c5.3-1,11.1-7,14.7-9.6c4.6-3.4,8.3-3.8,13.7-4.8c2-0.4,4.1-1.2,5.5-2.7c3.1-3.3,1.9-7.7-1.1-10.6
		C657.3,952.6,654.9,951.6,652.5,951.1z"/>
</g>
</svg>
