<?xml version="1.0" encoding="utf-8"?>
<!-- Generator: Adobe Illustrator 22.0.1, SVG Export Plug-In . SVG Version: 6.00 Build 0)  -->
<svg version="1.1" id="Layer_1" xmlns="http://www.w3.org/2000/svg" xmlns:xlink="http://www.w3.org/1999/xlink" x="0px" y="0px"
	 viewBox="0 0 2000 2000" style="enable-background:new 0 0 2000 2000;" xml:space="preserve">
<g>
	<path d="M1102.1,1078.7c0-8.6,1.7-26.7-8.5-29.2c-0.1,0.1-0.1,0.1-0.2,0.2c-11,9.1-6.8,24.8-4.9,37c0.3,2,2.3,22.2,3.2,22.4
		c0.9-2.5,2.5-4.3,4.8-5.4c4.4-2.2,6.1-6.2,5.4-12C1102.5,1087.5,1102.1,1082.9,1102.1,1078.7z"/>
	<path d="M1059.8,1049.9c-0.4,0.8-1.1,1.6-2.2,2.1c-5.9,2.8-3.6,31.1-3.5,37c0.1,5,0.3,10,0.6,14.9c0.2,3,0.4,6,0.6,8.9
		c4.2,3.2,8.4,6.5,12.6,9.7C1078.4,1122.8,1081.3,1059.6,1059.8,1049.9z"/>
	<path d="M1021.2,1053c0,0.7-0.1,1.5-0.6,2.2c-7.7,12.9-6.9,24.6-6.7,38.7c0.1,6.1,0.2,12.1,0.3,18.2c0.1,4,0.1,8.1,0.2,12.1
		c1.5-0.3,3-0.6,4.5-0.9c19.3,3.8,22.2-16,21.7-29.9C1040,1082.2,1038.8,1051.2,1021.2,1053z"/>
	<path d="M1145.1,1028.5c-8,6.9-5.9,17.2-5.7,26.7c0,3.5-2,20.2,0.2,22.4c8.2,8.2,11.7-7.2,12.2-11.1c0.4-3.4,0-7.2-0.3-10.5
		C1151.3,1051.2,1151.3,1033.4,1145.1,1028.5z"/>
	<path d="M1129.1,1054.4c-1.4-9.9-4.7-17.9-9.6-18c-6.7,3.6-4.1,26.8-4.2,31.6c-0.1,4.7-2.5,22.8,1.8,25
		c9.1,4.7,13.2-12.5,12.8-29.1C1129.7,1060.8,1129.4,1057.6,1129.1,1054.4z"/>
	<path d="M995.6,1100c0.2-16.2,2-30.6-7.5-44.8c-0.6-0.9-0.8-1.8-0.7-2.6c-7.8-1.4-12.9,2.5-17.3,12.5c-2.8,6.4-3.9,15.6-4.5,22.3
		c-1.5,15.1-2.5,31.7,15.8,34.9c3.1,0.7,6.2,1.1,9.4,1c5,2.5,6.5,0.8,4.6-5.2C996.5,1113.3,995.5,1105.1,995.6,1100z"/>
	<path d="M839.7,1021.9c-4.9,10.1-8.9,38.6-0.4,35.6c3.8-1.3,4.5-15.3,4.8-18.5c0.6-6.7,0.1-12-2.9-17.2
		C840.7,1021.8,840.2,1021.9,839.7,1021.9z"/>
	<path d="M948,1052c-1.2-0.6-1.9-1.4-2.4-2.3c-13.6,5.5-14.6,30.3-15.2,41.6c-0.4,7.4-2.6,28.3,7.3,31.2
		c16.2,4.7,13.8-29.7,13.8-36.6C951.6,1080.7,953.7,1054.7,948,1052z"/>
	<path d="M866.2,1053c0.1-8.8,1.5-18.1-5.7-24.4c-6.4,5.2-6.4,24.3-6.7,29.6c-0.2,3.4-0.6,7.2-0.1,10.6c-0.3,3.7,1.2,7,4.6,9.7
		c2.5-0.2,5.1-0.5,7.6-0.7c1-1.1,0.1-11.9,0.1-13.5C866.1,1060.5,866.2,1056.7,866.2,1053z"/>
	<path d="M886.1,1036.4c-5.1,0.1-8.4,8.6-9.8,19c-0.2,2.8-0.5,5.5-0.7,8.1c-0.6,16.8,3.4,34.3,12.7,29.5c4.1-2.1,1.9-20.3,1.8-25
		C890,1063,893.1,1040.1,886.1,1036.4z"/>
	<path d="M912.1,1049.7c-0.1-0.1-0.1-0.1-0.2-0.2c-10.8,2.6-8.5,22.8-8.5,31.7c0,5.3-0.4,10.5,1.6,15.5c0,4.4,2.2,7.3,6.5,8.6
		c0.8,1.2,1.5,2.4,2.3,3.7c2.5-1.6,3.1-21.2,3.6-24.6C919.1,1072.8,922.5,1058.4,912.1,1049.7z"/>
	<path d="M1164.2,1021.7c-3.1,5.3-3.5,10.3-2.8,17.2c0.3,3.8,0.8,16.5,4.8,18.5c7.4,3.7,4.8-25.3,0-35.5
		C1165.5,1021.9,1164.9,1021.8,1164.2,1021.7z"/>
	<path d="M638.2,653.5c1.7,15.2,1.8,31,4.7,46c11.4-20.6,25.4-40.1,28.1-64.2c3.3-29.2-7.6-57-17.5-83.9
		c-15.6-42.4-30.2-91.2-2.3-131.9c3.1-4.5,10.3-0.4,7.3,4.3c-37.9,60.6,18.6,129.1,30.4,189c5.7,29.3,0.4,54.5-12.4,81
		c-15.4,31.8-24.1,59.4-23,95.2c0.9,29.9-2,70.2,26.4,88.3c28,17.8,64.6,18.2,96.5,16.9c26.5-1.1,48.6,10.8,61.1,35
		c5.6,10.9,7.8,23.4,8.3,35.6c0.4,10.3-7.8,32.9,0.8,40.5c4,3.5,3.9,8,1.7,11.5c2.9,3.8,4.3,8.4,4.8,13.2c1.3-2.6,3-4.7,5.3-5.8
		c0.6-2.9,4.1-5.4,7.1-3.5c6,3.6,8.9,9.1,10.2,15.2c1.2-1.7,2.7-3,4.5-3.7c-0.2-1.4,0.3-2.8,1.9-3.6c15-7.3,17.2,9.1,17.4,21.4
		c2.4-4.2,6.1-7,11.6-6.5c1.8-2.7,5.7-4.2,8.6-1.3c5.5,5.3,7.9,12.1,8.7,19.5c3.3-9.6,8.9-17.7,19.2-18.6c1.9-1.4,4.5-1.8,6.8,0.5
		c5.3,4.9,6,12.5,6.1,19.8c0.4-1.2,0.8-2.3,1.1-3.3c6.7-19.1,20.6-19.5,36.5-9.2c1.7,1.1,1.6,2.9,0.6,4.1c2.7,3.8,4.5,7.6,5.7,11.8
		c1.2-4.2,2.9-8.1,5.5-11.9c-0.8-1.2-0.8-2.9,0.8-4c17.7-12.4,28.2-6.7,34,11.1c0.2-6.8,1.1-13.7,6.1-18.3c2.4-2.3,5-1.9,6.9-0.5
		c10.3,1,15.9,9.1,19.2,18.7c0.8-7.4,3.2-14.3,8.7-19.5c3-2.9,6.9-1.3,8.6,1.3c5.6-0.5,9.2,2.2,11.6,6.5
		c0.2-11.7,2.4-28.7,17.4-21.3c1.6,0.8,2.1,2.2,1.9,3.6c1.8,0.7,3.3,2,4.5,3.7c1.3-6.1,4.3-11.5,10.2-15.2c3-1.9,6.5,0.7,7.1,3.5
		c2.4,1.2,4.1,3.3,5.3,5.9c0.5-4.9,1.9-9.5,4.8-13.3c-2.2-3.4-2.3-7.9,1.7-11.5c8.6-7.6,0.4-30.1,0.8-40.5
		c0.5-12.2,2.7-24.7,8.3-35.6c13.3-25.9,36.4-36.2,64.3-34.8c30.7,1.5,66.6,0,93.3-17c28.3-18.1,25.5-58.4,26.4-88.3
		c1.1-35.8-7.6-63.4-23-95.2c-13.4-27.7-18.1-53.6-11.8-84.1c12.2-59.1,67.2-125.9,29.7-186c-2.9-4.7,4.3-8.8,7.3-4.3
		c32.8,48,6.9,103.8-9.7,152.4c-9.9,28.8-15.9,58.9-3.6,88c5.9,14.1,14.2,27,21.7,40.3c4.1-19.5,3.6-40.6,6.4-60
		c4.5-31.2,15-61.1,20.9-92c19-99.1-10.6-207-86.1-275.7c-39.4-35.8-88.8-59.7-139-76.3c-24.9-8.3-50.3-14.8-76-20.1
		c-25.2-5.2-51-10.6-76.5-7.2c-1.2,1.9-3.4,3.2-6.2,2.4c-1.1-0.3-2.2-0.5-3.2-0.7c-1.1,0.2-2.1,0.5-3.2,0.7
		c-2.9,0.7-5.1-0.5-6.3-2.5c-30.2-4.1-61.3,3.8-90.7,10.3c-27.5,6.1-54.6,14-81,23.8C722.2,240,641.8,311.7,617.8,418
		c-11.3,50.2-9.7,101.8,2.5,151.7C627.2,597.6,635.1,624.9,638.2,653.5z M924.9,757c-6.8,5.1-12.5,11.4-19.8,15.8
		c-7.9,4.8-17.1,6.9-26.2,8.6c-23.1,4.4-46.6,7.1-70.1,7.9c-23.2,0.8-47.7-0.6-67-13.4c-5.1-3.4-9.8-7.7-12.8-13.1
		c-2.3-4.1-3.5-8.8-4.4-13.4c-4.1-20.7-3.3-42.3,2.4-62.7c1.2-4.3,2.6-8.7,5-12.5c3.5-5.6,8.8-9.7,14.4-13.2
		c9.4-5.9,19.7-10.3,30.3-13.9c31.4-10.8,64.9-15.3,98-13.1c19.5,1.3,54.3,5.7,61.8,27.6c8.3,24.3,13.1,50.6,4.5,75.5
		c-1.6,4.5-3.6,9-6.8,12.6C931.4,752.5,928,754.6,924.9,757z M1280.9,749.3c-0.9,4.6-2.1,9.3-4.4,13.4c-3,5.4-7.7,9.7-12.8,13.1
		c-19.3,12.9-43.8,14.3-67,13.4c-23.5-0.8-47-3.5-70.1-7.9c-9.1-1.7-18.3-3.8-26.2-8.6c-7.2-4.4-13-10.7-19.8-15.8
		c-3.2-2.4-6.6-4.5-9.2-7.4c-3.2-3.5-5.2-8-6.8-12.6c-8.7-24.9-3.9-51.2,4.5-75.5c7.5-21.9,42.3-26.3,61.8-27.6
		c33.1-2.2,66.7,2.3,98,13.1c10.5,3.6,20.8,8,30.3,13.9c5.6,3.5,10.9,7.7,14.4,13.2c2.4,3.8,3.8,8.1,5,12.5
		C1284.2,707,1285,728.6,1280.9,749.3z M1049.6,588.8c11.5-12.4,36-16.2,51.8-18.6c22.6-3.5,45-1.5,67.6,0.4
		c24.4,2,50.1,4.3,73.7-3.8c25-8.6,42.5-29.1,51.6-53.3c0.2-0.6,1.1-0.4,1,0.3c-9,36.4-39.5,58-75.6,63.5
		c-25.8,3.9-51.6,0.2-77.5-0.3c-15-0.3-30,0.7-44.7,3.9c-11.7,2.5-32.2,6.6-40.4,15.6C1052.4,601.4,1044.9,593.8,1049.6,588.8z
		 M1007.7,395.6c0.2-18.8,0.2-37.6,0.5-56.4c0.5-40,0.9-79.9,1.3-119.9c0-2.7,4.2-2.7,4.3,0c0.4,40,0.8,79.9,1.3,119.9
		c0.3,20,0.3,40,0.5,59.9c0.3,19.8,2.2,40.3-0.4,59.9c-0.6,4.6-6.5,4.5-7.1,0C1005.4,438.3,1007.5,416.5,1007.7,395.6z M980.5,776.1
		c5.4-5.4,13-9.1,20.5-8.1h3.5c7.6-1,15.1,2.7,20.5,8.1c5.4,5.4,9,12.3,12.4,19.1c15,30.2,28.4,61.9,32.1,95.4
		c1.5,13.8,0.8,29.3-8.7,39.4c-2,2.1-4.4,4-7.2,4.8c-7.5,2-14.4-4-21.1-7.8c-8.9-5-19.9-6.2-29.7-3.4c-9.8-2.8-20.8-1.6-29.7,3.4
		c-6.8,3.8-13.7,9.8-21.1,7.8c-2.8-0.8-5.2-2.6-7.2-4.8c-9.4-10.2-10.2-25.6-8.7-39.4c3.6-33.5,17-65.2,32.1-95.4
		C971.5,788.4,975.1,781.5,980.5,776.1z M711.2,513.4c9.1,24.3,26.6,44.6,51.6,53.3c23.5,8.2,49.4,5.9,73.7,3.8
		c22.6-1.9,45.1-3.9,67.6-0.4c15.8,2.5,40.3,6.2,51.8,18.6c4.6,5-2.9,12.5-7.5,7.5c-8.7-9.6-31.1-13.7-43.6-16.2
		c-13.8-2.8-27.5-3.5-41.5-3.2c-25.9,0.5-51.7,4.3-77.5,0.3c-36.1-5.6-66.6-27.1-75.6-63.5C710.1,513.1,711,512.8,711.2,513.4z"/>
	<path d="M1087.8,1367.5c0.6,0.4,1.2,0.8,1.8,1.2c0.2-0.3,0.4-0.5,0.6-0.8c35.7-38.8,81.4-71.6,123.9-102.6
		c42.9-31.2,87.8-62.4,134.4-87.8c38.8-21.1,80.8-19.3,122.6-29.2c20.9-5,42.5-12.9,57.4-29.1c13.9-15,28.9-45.2,23.7-65.7
		c-1-4-2.6-7.6-4.7-11.1c-1.7,5.5-4.1,10.9-6.4,15.4c-6.5,12.3-17.2,18.5-26.8,27.8c-4.9,4.8-11.5-2.3-7.4-7.4
		c6.9-8.6,15.1-19.8,19.7-29.8c3.2-7,3.9-14.6,6.8-21.4c-4.8-3.7-10.2-6.7-15.9-9.1c-0.8,19.4-9.4,39.1-21.7,53.6
		c-7.3,8.5-16.9,15.9-27.1,20.6c-9.9,4.6-18.5,3.8-29,4.8c-3.2,0.3-3.3-4.3-0.7-5.2c15.2-5.7,32.2-20.6,41.8-33.4
		c10.6-14.1,13.8-29,15.4-45.9c-0.4,0-0.7-0.1-1.1-0.1c-15.1-1.2-27.6-0.7-31.9-18.2c-0.8-3.4-1.4-6.8-1.8-10.3
		c-3.2,8-7.9,15.3-14,20.8c-18.6,17.1-42.5,25.8-66.1,33.1c-5.6,1.7-8-7-2.4-8.8c18.2-6,36.5-17.4,49.7-31.4
		c17.3-18.3,9.1-33.1,9.5-55.1c0.1-3.9,1.6-7,3.9-9.3c-18.9-11.8-46.9,0.8-65.7,9c-23.8,10.4-40.4,25-48.4,50.4
		c-6.2,19.6-9.2,39.7-17.4,58.7c-15.8,36.8-42.4,64.7-74.9,87.5c-80.7,56.6-162.8,110.4-240.6,171c5.8,4.9,11.8,9.6,18.2,13.9
		C1037.2,1339.7,1063.4,1352.1,1087.8,1367.5z"/>
	<path d="M785.9,1464.4c-40.8,27.6-79.2,56-114.7,90.3c-3.5,3.4-7,6.4-10.6,9.1c-1,1.9-2.4,3.7-4.7,5.1
		c-14.7,9.4-25.3,24.2-39.7,34.3c-14.6,10.3-30.8,17.9-47.8,23.2c-7,2.2-10.1-7.4-4.7-11.2c15.5-10.9,33-19.3,47.3-31.9
		c0.7-0.6,1.4-1.3,2-2c-22.8,1.9-45.7,1-68.5,3.9c-44.2,5.6-108.7,18.8-117,72.2c-3.7,24.2,10.1,38.4,27.2,50.8
		c12.2-12.4,30.2-5.6,45.7-9.1c32.7-7.5,33.1-37.3,26.9-64.2c-1.5-6.4,7.9-9,9.9-2.7c6.8,22.3,11.7,46.4-3.7,66.3
		c-6.6,8.5-15.4,14.4-25.1,18.7c-5.4,2.3-10.9,4.3-16.6,5.6c-3.1,0.7-9.2,0.7-13.9,1.7c6.7,4.8,13.6,9.6,20.9,13.3
		c11.3,5.6,17.7,0.2,28,1c8.6,0.6,12.9,7.5,15.9,14.6c5.1,11.9,9.6,23.5,16.1,34.7c9.9,17.2,25.4,41.9,47.7,42.9
		c8.1,0.4,15.8-2.9,23-7.8c-14.6-0.7-29.3-3.5-40.5-9.6c-13-7.1-31.9-29.2-27.8-45c1.1-4.3,5.7-8.1,10.3-7.8
		c16.9,1,29.6,6.1,47.2,1.4c19.6-5.2,33.2-15,43.2-32.8c3.2-5.8,11.9-0.7,8.8,5.2c-8.6,16.6-22.6,33.3-39.3,42.2
		c-15,8-28.8,7.7-43.5,6.6c2.8,3.5,5.7,6.7,6.2,7.1c6.8,6.2,13.4,6.2,21.9,6.6c14.5,0.8,29-1,43.4-0.9c0.4,0,0.7,0.1,1,0.1
		c0.8-0.7,1.6-1.3,2.4-1.9c20.1-15.3,36.6-29,45.9-53.2c5.4-13.9,8.5-28.5,11.4-43.1c-1,1.1-2,2.1-3,3.3c-4.7,5.6-9.2,11.3-13.8,17
		c-4.9,6.1-12.2,12-15.9,18.8c-2.3,4.2-8.2,0.5-6.3-3.7c4-8.9,5.2-15.8,10.4-24.3c3.8-6.2,7.8-12.4,11.9-18.5
		c8.5-12.8,17.7-25.9,29.6-35.7c0.2-0.2,0.4-0.2,0.6-0.4c5.2-8.9,12-16.7,20.2-25.1c34.6-35.7,71.9-68.7,111.3-99
		c38.3-29.5,82.9-53.4,113.5-91.5c0.3-0.4,0.6-0.7,0.9-1c-28.6-19.9-57.2-39.6-86.1-59.1C862.7,1413.6,824.3,1438.3,785.9,1464.4z"
		/>
	<path d="M1558.8,1620.2c-27.7-12.4-58.6,3.5-87.6,0.8c-23.7-2.2-45.8-11.5-66.1-23.4c-42.4-24.7-79.4-55.2-124.2-76.1
		c-45-21-88.7-40.6-127.4-72.4c-21.5-17.7-41.8-37.1-64.5-53.3c-20.2-14.4-42.2-25.8-63.4-38.4c-21.9-13-42.3-27.6-60.3-45.7
		c-16.8-17-31.5-35.9-48.2-53c-32.8-33.5-78.4-51.6-108.7-87.7c-15.9-18.9-26.9-41.1-40.8-61.4c-13.3-19.5-30.3-35-47.7-50.8
		c-0.1-0.1-0.2-0.2-0.4-0.3c-0.7,0.2-1.4,0.3-2.1,0.4c-18.1,1.8-38.1-0.8-56.7-0.3c-16.4,0.4-33.5-1-48.9-7.1
		c-22-8.8-54.4-33.4-51.7-60c0.4-4.3,7.1-4.5,6.9,0c-0.8,18,22,36,36.5,43.2c15.6,7.8,31.8,5.8,48.4,3.4c12.4-1.8,27.2-5.1,41.3-5.3
		c-6.5-7.2-12.5-14.9-17.4-23.3c-9.8-16.6-13.6-35.6-22-52.8c-26.1-53.4-88.8-8.7-111.1,27.2c0.5,2.7-0.2,5.8-2.9,7.9
		c-23.2,17.8-49,36.9-62.6,63.6c-12.5,24.5-13.4,57.2,8.8,76.5c19.2,16.7,47.3,23.7,70.3,33.6c23,9.9,45.7,20.4,68.1,31.4
		c-2.5-4.9-4.8-10.1-6.8-15.1c-3.4,0.9-7.1,0.4-10.9-2c-16.9-10.8-35.9-15.2-54.2-22.8c-16.3-6.8-31.7-15.2-45.7-26
		c-21.4-16.6-31-50.1-18.8-75.3c3-6.2,12.1-0.8,9.2,5.4c-17.9,38.1,22.9,60.8,51.5,72.4c13.1,5.3,26.5,9.1,40.4,11
		c4.4,0.6,8.6,1.1,12.7,1.8c-4.6-7.7-10.5-13.9-20.6-18c-10.4-4.2-20.5-7.5-30.2-13.2c-15.6-9.2-34.3-23.4-41.9-40.4
		c-7.8-17.3,4.4-39.5,14.3-53.5c3.4-4.7,11.2-0.3,7.9,4.6c-6.5,9.5-12.9,20.9-13.9,32.6c-1.2,13.4,8.2,21.8,17.8,30.1
		c17.6,15.1,37,19.4,57.9,27.7c17.4,6.9,24.8,20.6,34.9,35.5c11.3,16.7,20.6,35.4,33.6,50.8c3.8,4.5,4,10,2.1,14.3
		c176.8,91.9,339.7,208.5,505.5,318.4c71.8,47.6,148.9,97.4,195.8,171.8c12.7,20.2,21.1,41.7,29.2,64c8,22.1,19.4,39.3,41.5,49.3
		c19.6,8.9,44.9,10.9,64.2,0.2c-17.8,5.9-38.2,4.1-55.4-2.6c-22.9-8.8-33.5-28.2-42.5-50c-12-29,1.3-66.7-35.4-80.4
		c-5-1.9-2.9-10,2.2-8.1c39,13.7,36.2,57.7,56.4,87.7c7.4,10.9,13.4,19.8,26.7,23.4c10.6,2.9,24.9,3.9,35.3-0.2
		c8.8-3.5,14.4-9.9,18.9-17.4c-27.7,1.9-54.1-19.4-56.3-52.1c-0.1-1.8,2.6-2.1,3.1-0.4c3.6,12.7,18.9,31.1,32.6,34.4
		c11.5,2.7,20.4-3.2,28.7-10c-4-6.1-6.6-13.3-7.8-20.7c-0.9-5.2-1.1-10.3-1.2-15.5c-0.3-0.2-0.6-0.4-0.9-0.7
		c-7.2-6.8-10.3-19.3-12.8-28.6c-1.9-7.3-4-13.5-12-16.4c-4.8-1.7-10-2-15-2c-2.4,0-2.4-3.7,0-3.8c12-0.3,21.1,2.6,30.4,10.3
		c3,2.5,6.2,5.4,9.3,8.8c-2.3-13.5-8.4-24.6-18.8-35.3c-4.3-4.4,2.3-11.1,6.8-6.8c12.4,12,19.8,26.2,24.8,42.7
		c4,13.4,6.7,49.6,23.9,54.9c23.9-4.9,52-17.2,55.8-44.6C1600.2,1660.7,1583,1631,1558.8,1620.2z"/>
</g>
</svg>
