<?xml version="1.0" encoding="utf-8"?>
<!-- Generator: Adobe Illustrator 22.0.1, SVG Export Plug-In . SVG Version: 6.00 Build 0)  -->
<svg version="1.1" id="Layer_1" xmlns="http://www.w3.org/2000/svg" xmlns:xlink="http://www.w3.org/1999/xlink" x="0px" y="0px"
	 viewBox="0 0 2000 2000" style="enable-background:new 0 0 2000 2000;" xml:space="preserve">
<path d="M1559.5,698.6c-5.7-8.7-21.5-11.2-26.5,0c-10.3,23.1-22.1,44.9-36.2,65.6c-16.2-25.2-19.1-57.5-28.4-86
	c8-9.3,12.2-22.3,17.7-33.1c9.9-19.5,20.7-38.5,29.5-58.6c9.5-21.7,33.9-65.8,12.5-86.7c-10.4-10.1-28-14.3-40.8-19.3
	c-26.2-10.2-52.4-20.4-78.6-30.5c7.1-14.8,12.8-29.9,15.8-44.9c1-4.8-0.6-10.3-5.2-12.8c-30.9-16.7-61-30-95.1-39
	c-34.3-9.1-69.3-15.5-102.8-27.5c-25.2-9-53-33.4-80.6-19.7c-29.6,14.7-52.2,57-70.1,83c-0.3,0.4-0.5,0.8-0.7,1.3
	c-27.5,1.2-54.7,3-81.5,6.3c3.5-8.5,4-17.7,3.5-27c6.5-19.8,8.7-40.6,2-60.7c-1.2-3.7-4.1-6.6-7.5-8.4c-0.9-12.7-2.1-25.3-3.7-37.9
	c-1-7.9-9.3-9.4-13.4-4.8C934,236,886.4,246.4,846.2,247c-45.1,0.7-99.8-5.6-135.8,27c-6.7,6-3.5,15.3,2.6,20
	c34.7,26.3,75.2,41.1,117.2,51.3c22.2,5.4,44.7,9.4,67.2,13.6c18.6,3.4,43.9,4.6,60.8,15.2c-0.2,9.1,1,18,5.3,26.1
	c-48.5,7.7-95.9,21-141.9,44.8c-1.6,0.8-1.9,2.4-1.4,3.8c-0.8,1.2-1.2,2.7-1,4.6c1.9,27.4-6.1,101.9,24.8,118.1
	c1.7,0.9,3.5,1.5,5.3,1.9c4.2,3.2,11.2,2.7,14.9-1.8c8.6-3.2,17.1-9.1,24.4-12.2c22.6-9.7,46.3-16.5,70.5-20.6
	c-0.3,6.6-0.7,13.2-1,19.8c-0.4,7.4-2,14.9-0.7,21.9c-52.8,4.3-103.7,19-149.2,50.5c-5.8-2.3-13.9,0.6-14,8.7
	c-0.5,44.5,1.5,96,20,137.3c2.9,6.5,7.5,16.6,13.6,24.3c-21.5,4.7-42.7,10.4-63.3,17.5c-5.6,1.9-6.9,7.7-5.2,12
	c-30.9,26.9-17.5,82.1-11.6,117.4c3.5,20.9,13.2,73.3,33.9,99.6c-44.6,9.5-88.4,23.4-131.1,43.1c-1,0.5-1.6,1.2-1.9,2.1
	c-56.6,35.9,5.7,134.7,28.9,172.5c17,27.7,64.1,115.8,111.3,114.8c-19.7,15.5-37.7,32.6-53.4,50.3c-4.2,1.1-7.9,5-8.1,9.9
	c-0.7,1.8-0.2,3.6,0.9,4.9c14.6,34.3,31,67.9,48.3,101c-3.1-2-6.2-3.7-9.3-4.8c-13.9-4.8-29.2-5.9-43.5-2.4
	c-20.7,5.2-35.7,18.6-45.2,36.4c-30.4-8.2-62.5,9.5-69.9,42.8c-6.9,31,8,56.6,31.6,72.4c-15.2,12.2-22.1,32.6-13.5,53.6
	c13.2,32.3,51.1,37.7,81.4,29.2c5.2,23.2,20.3,42.3,46.8,50.7c25,7.9,67.1,3.3,95.1-12.8c0.1,0.1,0.1,0.3,0.2,0.4
	c21.6,26.5,52.3,36.9,86,35.7c16.9-0.6,36.1-3.2,51.7-10c9.8-4.3,12.9-10.8,18.4-17.2c2.8-0.6,5.2-1.9,7.1-3.8
	c35.9,34.5,95.9,35,141.3,18.8c11.1-3.9,21.4-9.4,30.3-17.1c7.3-6.4,12.6-21,19.5-25.7c8-5.3,21.5-9.2,30.5-14.1
	c26.3-14.5,51.6-13.7,78.7-2.3c8.1,3.4,15.7-2.2,17-8.7c16.3,12.2,38.1,14.7,57.8-0.3c12.9-9.7,14.4-23.7,22.6-35
	c9.7-13.4,18.5-19.4,20.1-37.9c3.3-37.8-31.4-65.5-62.9-79.3c0.7-0.6,1.4-1.2,2-1.9c1.9-1.9,3.1-3.9,4-5.9c10-6.9,13.6-22.7-0.3-29
	c-27.8-12.6-53.4-27.8-77.7-45c23.6-7.6,46.4-21.7,70.6-27.9c32.3-8.3,64.9-15.2,97.7-21c5.6-1,8.8-9,5.5-13.6
	c-10.6-15-22.7-28.5-36.6-39.7c19.8,5.7,39.8,15.5,60.1,16.1c10.9,0.3,15.4-13.6,8.5-20.6c0,0,0,0,0,0c-0.1-0.1-0.2-0.1-0.2-0.2
	c-0.2-0.2-0.4-0.4-0.7-0.6c-4.9-4.9-10.8-8.9-17.3-12.3c-14.6-12.4-27.9-28.8-38.7-42.5c-17-21.5-29.2-45.6-34.8-72.5
	c-11-52.4-9.7-115.5,2.2-167.6c11.4-12.4,22.7-24.8,33.9-37.3c8.2-9.2,2.1-21.9-9.5-23c-138-13.4-276.3-30.6-414.8-37.9
	c-13.5-0.7-27-1.2-40.5-1.5c-0.4-6.1-1.2-12.2-1.9-18.2c23.5-2.1,47.1-3.3,70.7-3.6c37.3-0.5,75.4,0.3,112.1,7.5
	c27.7,5.4,54.1,18.2,82.2,20.2c3.5,2.4,8,3.5,13.2,2.5c62.2-12.4,120.1-3.1,178.6,19.7c9.4,3.7,18.1-7.1,15.7-15.7
	c-18-66.9-33-135.1-55.3-200.8c-1.4-4.2-5.9-6.2-9.9-4c-44.7,24.5-104,17.6-154.6,16.5c-0.4-8.3-0.9-16.7-1.7-25.1
	c-1.4-15.1-1.8-36.5-17-44.4c-20.4-10.7-55.8-4.1-78.4-4.1c-15.4,0-30.9-0.1-46.6-0.1c7-2.7,13.7-5,20.1-6.3
	c72.7-14.4,154.6-13,222.1,19.8c10.8,5.3,20.3-5.2,15.7-15.7c-12.8-29.1-25.1-58.3-35.3-88.3c1.8,0.1,3.6,0.1,5.6-0.4
	c27.6-6.6,54.8-5,82.8-2.9c5.8,0.5,12.5,1.5,19.4,2.3c-2.7,4.9-5.2,10-7.9,14.8c-9.1,16.4-38.5,49.7-27.6,70
	c11.8,22.2,47.1,32,63.8,50.8c19,21.5,17.3,53,39.2,72.4c6.6,5.9,18.6,6,23.1-3c19.5-38.6,36.9-78.3,56.4-116.9
	C1581,747.6,1577.9,726.9,1559.5,698.6z M862.6,323.9c-42.7-7.1-85.2-17.2-121.6-40.9c31.3-17.9,76.2-17,110-17
	c35.5,0,81.6-1.5,114.7,12.9c-2,20.5-3.2,41-4.5,61.5c0,0.1,0,0.1,0,0.2C930.4,329.3,893.7,329.1,862.6,323.9z M1171.7,324.3
	c23.3,6.8,45.1,21.1,68.9,28c50.9,14.8,114.2,19.9,158.2,52.4c-20,32.5-34.4,68.7-56.3,100.5c-17.5,25.4-38,47.4-60,68.3
	c-7.5-29.6-11.3-59.4-11.5-90.2c-0.1-28.4,6.5-40.9-20.7-53.4c-40.3-18.6-86.8-19.2-126.7-0.8c-1.3-8.8-2.5-16.9-3-23.6
	c-0.5-6-3.7-10.2-7.9-12.6c-1.7-2.3-4.6-3.9-8.6-3.8c-5.5,0.2-10.9,0.3-16.4,0.5C1107.5,363.2,1139,314.8,1171.7,324.3z
	 M1161.1,620.1c-0.3-2.9-1.1-5.4-2.2-7.5c1.2-5.2-0.8-11-7.5-12.5c-14.7-3.4-29.7-6.6-44.7-9.4c22.5-0.8,45.1-1.8,67.6-1.3
	c27.4,0.5,53.3,5.4,79.8,10.2c-0.2,0.2-0.4,0.3-0.6,0.5c-1.8,1.6-3,3.3-3.9,5C1220.7,599.5,1187.5,606.9,1161.1,620.1z M1108.2,528
	c23.4-16.2,21.7-52.8,17.6-84.7c41.8-8.9,82.7-6.8,121.8,10.8c-6.7,36.2-3.3,74.8,4.5,111.2c-30-9.4-62.6-11-93.7-11
	c-24.8-0.1-49.7,1.2-74.5,1.4c-14.2,0.1-42.3,3-57,0.1c-1.8-7.4-2.8-15.1-3.9-22.7c8.6-0.1,17.1-0.1,25.7,0.2
	C1067.7,534,1091.4,539.6,1108.2,528z M874.5,532.5c1.9-7.9,4.3-15.8,8.1-23.6c8.2-16.8,19.3-32.7,30.6-47.6c3.1-4-3.2-8.1-6.6-5.1
	c-23,20-47.1,53.1-56.7,85.6c-1.9-5.5-4-16.4-4.9-19.8c-5.7-22.2-7.3-46-10.1-68.7c-0.2-2-1.1-3.6-2.3-4.8
	c72.5-22.2,150.8-42.4,227.6-40.5c-27.1,9.5-53,24.2-77.2,37.6c-7.8,4.3-0.9,16.1,7,11.9c33.4-17.5,64.7-31,100.5-38.8
	c0.6,6.1,1.1,12.2,1.7,18.3c-17.9,0.6-36.9,6.4-53.1,11.4c-4,1.2-2.3,7,1.7,6.2c17.2-3.3,35.1-3.5,52.5-6c0.5,5.3,1,10.6,1.5,15.9
	c0.7,7.5,2.2,16.3,1.5,23.9c-1.5,15.7-7.9,15-20.9,15.3c-36.2,0.8-71.3-2.3-107.6,2.6c-19.1,2.6-38.1,6.5-56.5,12.2
	c1.9-5.9,5-11.6,7.4-16.6c4.1-8.3-7.6-15.4-12.5-7.3c-3.9,6.3-6.9,13-10.5,19.5c-2.3,4.3-4.9,8.1-6.9,12.4
	c-4.7,1.9-9.3,3.9-13.9,6.1C874.9,532.3,874.7,532.4,874.5,532.5z M979,558.4c-0.4-7.5-0.8-14.9-1.1-22.4c1.4-0.2,2.7-0.3,4.1-0.5
	c2.5,13.1,3.3,31,10.9,43.3c-4.3,0-8.6,0.1-13,0.2C980.8,572.4,979.3,565.4,979,558.4z M813.6,640c94.1-47.8,200-45.5,301.2-25.4
	c-39.9,11.1-79.8,21.9-118.7,36.6c-4.4,1.7-2.6,8.8,2,7.2c42.3-15.2,85.7-27.5,130.5-31.6c1.3,7.9,2.2,15.8,2.7,23.6
	c-30,7.8-61.8,4.4-90.9,17.2c-3.5,1.5-1,7.4,2.6,6.2c16-5.3,32.4-7,49.2-8.4c12.9-1.1,26.4-3.3,39.6-3.1c0.1,12.5-0.7,25-2.4,37.5
	c-66.2-0.6-134.7,0.7-196.6,26.5c-1.3,0.6-2.6,1.2-3.9,1.8c3.1-13.7,9.5-26.5,16.7-38.9c4.9-8.5-8.3-16.2-13.1-7.7
	c-5.8,10.4-10.6,21.4-16.8,31.6c-5.4,8.9-9.9,18-12.8,28.1c-2.5,1.5-5.1,2.9-7.6,4.5c0.7-7.2,1.5-14.3,3.3-21.3
	c7.4-29.6,19.5-57.2,42.3-78.1c4.2-3.9-2.6-10.5-6.2-6.2c-19.3,22.9-40,45.4-53.6,72.4c-8.6,17-18.8,39-19.8,59.5
	c-8.1,5.7-16.5,9.1-23.8,4c-11.9-8.3-16-44.9-18.5-58.2C814.3,691.9,812.9,666.3,813.6,640z M890.3,784.5
	c21.1-14.3,42.3-26,65.3-34.7c-1.8,10.2-3.2,20.5-3.4,31c0,1.3,0.1,2.5,0.3,3.6c-21.5,1.4-43,3.4-64.2,6.2
	C889,788.5,889.7,786.5,890.3,784.5z M1197.4,1442.5c0,0.4,0,0.9,0.1,1.4c0.3,1.9,0.6,3.9,1,5.9c-42.8-41.9-84.2-87.9-136.8-117.2
	c-76.3-42.5-162.6-23.4-234.5,20.6c4.7-9,8.3-18.1,19.5-24.7c18.6-11,39-19.8,59.2-27.5c38.3-14.7,79.1-24,120.2-21.6
	c39.7,2.3,80.6,16,109.5,44c21.8,21.1,36.8,50.1,61.6,67.6c-3.2,9.9-5.4,20.2-8.1,30.4C1187,1429.1,1190.9,1438,1197.4,1442.5z
	 M744.6,1434.3c41.4-42.7,94.8-74.7,151.3-92.8c33.3-10.6,69.9-18,104.7-11.3c35.2,6.8,64.8,27.5,91.2,50.7
	c53.9,47.3,101.5,105,155.6,153.6c-19.1-11.7-37.8-24.5-56.7-38.2c-40.9-29.5-82.3-59-130-76.6c-93.8-34.7-227-34.8-303.1,38.3
	c-4.1-7.6-8.3-15.3-12.5-22.9C745,1434.8,744.8,1434.5,744.6,1434.3z M1209,1633.6c-1.1-12.1-5.2-23.8-8.8-35.7
	c-1.5-5.1-10.2-4.4-9.6,1.3c1.4,13.5,2.2,32.3-7,43.1c-1.1,1.3-2.3,2.5-3.5,3.7c-5.4-21.4-18.4-42.1-33.3-54.4
	c-4.1-3.4-8.9,1.6-5.7,5.7c11.4,14.8,12.4,32.1,10.6,50c-0.4,4.6-1.7,9-2.9,13.4c-10-32.7-38.4-66.7-56.3-85.5
	c-2.1-2.2-6.1,0.8-4.2,3.3c14.4,19.5,25.3,41.6,27.9,65.9c1.1,9.9-0.9,19.3-2.7,28.7c-0.6-0.9-1.3-1.9-1.9-2.8
	c-21.8-34-43.3-68.5-64.4-102.9c-2.1-3.4-6.9-0.4-5.2,3.1c11.3,23.8,21.1,48.3,31,72.7c5,12.3,27.2,51.2,20.7,64.9
	c-12.9-22-29.8-42.8-43.6-63.3c-21.8-32.1-40.6-66-49.7-104c-1.2-5-8.2-2.7-7.5,2.1c5.7,38.7,21.7,72.9,38,108
	c9.2,19.9,20.6,40.2,26.5,61.3c0.4,1.4,0.7,2.9,1,4.3c-7.5-11-15.9-21.5-23.1-32.4c-11.7-17.8-23.4-35.7-34.8-53.7
	c-22.8-36.1-44.6-72.7-67-109c-1.9-3-6.1-0.4-4.7,2.7c17.9,38.9,36.3,77.7,53.8,116.8c8.8,19.6,17.3,39.4,25.6,59.2
	c2.3,5.4,4.3,11,6.4,16.6c-14.7-18.8-28-39-41.8-57.7c-25.1-33.8-48.8-68.2-70.5-104.3c-3.4-5.6-11.7-0.7-8.7,5.1
	c22.4,43,44.1,86.8,69.1,128.4c12.1,20,25.8,39.1,37.6,59.3c2.1,3.6,4,7.3,5.8,11c-3.3-2.1-6.7-4.8-10.6-8.8
	c-11.2-11.2-20.6-24.4-30.1-37c-16.2-21.5-31.5-43.7-46.2-66.2c-29.2-44.8-58.6-90.1-80.9-138.8c-1.5-3.3-7.2-0.9-5.9,2.5
	c25.8,65.8,51.5,129.7,88,190.5c14.4,23.9,29,49.2,45.6,72c-23.4-10.7-44.7-27.2-58-47.7c-19.3-29.9-37.4-60.7-55.2-91.5
	c-30.2-52.2-57.8-105.7-86.3-158.8c80-80.6,230.8-69.5,324.3-20.2c72.3,38.1,131.2,99.3,203,137.9c-0.6,0.1-1.2,0.1-1.8,0.2
	c-13.7,2.2-26.4,8-38.7,14.3C1238,1614.6,1223.3,1623.8,1209,1633.6z M921.8,1826.7c-23.1,0.2-45.2-6.8-63-21.5
	c6.1-4.7,11.1-10,14.5-16.1c3.6-6.5-1-13.9-8.2-14.2c-28.1-1.4-51.7,24.5-81.3,25.6c-39,1.5-64.5-23.5-59.4-62.8
	c1.2-9.5-15.2-11.8-16.9-2.3c-1.8,10-2.2,19.8-1.1,29.2c-22.2,7.8-46.5,5.3-58.8-16.8c-10-17.9-6.8-42.6,18.6-45.5
	c9.7-1.1,17.6-16.3,5.8-21.3c-16.5-7-32.9-19.5-37.4-37.9c-6.4-26.3,17.3-53.4,43.9-38.6c8,4.4,17.3,0.3,20.1-8.2
	c9-27.2,39.6-38.2,65.1-26.2c12.5,5.9,20.6,13.9,34.2,15.9c16,29,32.7,57.6,49.4,85.9c18.4,31.1,35.7,69.9,62.9,94.4
	c18,16.2,45.6,30.5,71.5,37.9c-0.2,1.9,0,3.7,0.5,5.4C985.8,1820.7,927.5,1826.7,921.8,1826.7z M1396.8,1664.6
	c8.4,9.9,15.8,23.2,12.1,36.9c-6.5,24-10.8,8.7-17.2,20.9c-3.2,6.1-2.8,14.4-6.5,20.1c-22.8,35.4-39.4-3.8-46.2-15.6
	c-8.7-15.3-35.8-5-29.3,12.3c1.8,4.7,4.1,9.1,6.8,13.2c-20.9-9.1-44.6-10.6-66.8-4.4c-13.1,3.7-23.4,10.9-35,17.7
	c-8.4,4.9-19,5.3-25.7,12.2c-10.7,11-17.3,20.1-31.9,27c-15.4,7.3-32.1,11.4-49,12.9c-24.3,2.2-49.9,0.4-69.9-12.8
	c14.9-5.3,28.5-14.6,41.7-24.9c32-25.2,61.8-53.1,93.3-79c24.9-20.5,51.1-40,79.3-56c3.1,2.3,7.2,2.9,10.8,0.1
	c14.6-11.2,31.8-16.7,49.4-17.5c4.6,0.2,9.5,0.4,14.8,0.5C1353.8,1631,1379.4,1644,1396.8,1664.6z M1445.1,1469
	c-39.3,8-77.8,18.9-117.1,27.2c-24.8,5.2-48.2,14.8-69.5-3.7c-7.1-6.1-12.6-14.6-16.9-22.9c-3.2-6-5.7-12.2-7.4-18.8
	c0-5.1-0.6-7.7-1.8-7.9c1-1.9,1.5-3.9,1.5-5.9c39.4-12.8,80.2-19,122.1-17.6c12.3,0.4,24.4,1.5,36.5,3.1
	C1411.6,1436.4,1429.5,1451.2,1445.1,1469z M1394.7,1302.4c5.1,26.3,15.2,50.5,30.5,72.5c6.1,8.7,13.3,16.6,20.8,24.3
	c-2.9-0.8-5.8-1.6-8.5-2.3c-25.1-6.8-51.1-10.8-77.1-12.5c-23.1-1.5-46.2-0.6-69,2.2c0.8-5.6,1.4-11.3,2.8-16.8
	c3.8-15,9.8-28.9,17.5-42.3c5.1-8.9-7.6-15.6-13.4-7.8c-13.1,17.4-30.8,45.9-32.9,70.9c-1.1,0.2-2.2,0.4-3.3,0.6
	c2.7-25.2,7.2-46.5,18.6-71.1c11.4-24.6,25.7-49,43.9-69.1c2.5-2.8-1.2-6.3-4.1-4.1c-26.3,21.1-49.3,43.4-65.1,73.6
	c-4.9,9.4-10.1,20-14.1,31.2c4.2-49.5,50-91.3,81.9-125.5c22.9-24.5,45.8-48.9,68.6-73.4C1384.3,1201.9,1385.4,1254.9,1394.7,1302.4
	z M1315.4,1083.5c-0.7,0.1-1.3,0.2-2,0.4c0.1-0.2,0.2-0.4,0.3-0.5C1314.2,1083.3,1314.8,1083.4,1315.4,1083.5z M1038,1055.8
	c58,4.2,115.9,9.9,173.8,16.1c-67.6,9.5-135.4,34.1-193.4,61.7c-3.6,1.7-0.5,6.8,3.1,5.2c44.8-19.9,91-34.9,139.5-42.5
	c41.8-6.5,83-6.3,124.8-7.3c-81.4,16.1-160.4,40.5-233,83.6c-9.3,5.5-0.9,20.1,8.5,14.6c97.7-57.1,210.6-84,322.9-90.9
	c3.9-0.2,6.8-1.8,8.6-4c5.1,0.6,10.2,1.1,15.3,1.7c-45.2,46.3-89.2,93.8-134.8,139.7c-32.1,32.4-60.8,67.1-69.2,109.6
	c-13.9-13.1-25.4-28.6-40.2-42.4c-21.5-20.1-47.6-34.8-75.5-44c-61.1-20.1-127.7-10.9-186.7,11.6c-24.4,9.3-51.6,19.6-73.8,34.5
	c1.7-14.4,2.5-29.1,6.4-43.3c7.5-27.4,21.8-54.8,47-69.6c8.2-4.8-0.3-16.7-8.2-10.6c-31,24.2-65,74.1-72.2,118.7
	c0.1-22.7,3.3-44.9,12.7-68.1c15.6-38.4,41.9-70.8,76.3-93.8c11.9-7.9,0.8-27.2-11.2-19.2c-69,45.6-117.7,137.5-103.7,221.7
	c-1.1-1.1-2.2-2.3-3.3-3.4c-7.5-6.3-13.5-16.9-19.1-24.9c-16.9-23.9-123.5-166.6-79-190.1c13.4-7.1,10.7-22,1.5-29.3
	c39.7-14.4,80.8-24.1,122.5-30.3c4.7,2,9.8,2.8,15.3,1.9c2.8-0.4,5.7-2.4,7.8-5c46.6-5.5,93.8-6.8,140.7-5.7
	c4.3,3.5,10.9,3.6,15.5,0.5C997.3,1053.2,1017.8,1054.3,1038,1055.8z M957.3,1030.6c-41.1,0-81.9,2.2-122.2,7.6
	c11.4-6.2,28.4-7.8,38.4-9.9c18.8-3.9,37.7-7.3,56.7-10c9.5-1.4,19.1-2.6,28.7-3.6C958.3,1019.9,957.7,1025.3,957.3,1030.6z
	 M1311.5,877.6c20.3-1.4,36.7-6.2,53-13.3c-26.9,22.8-53.9,42.8-89.7,52.1c-3.4,0.9-1.9,5.9,1.4,5.2c40.3-8.4,83.2-23.1,112.1-53.8
	c1.6,7.7,3.2,15.4,4.9,23c-5.4,2.8-9.9,7.7-14.7,11.3c-6.6,5.1-13.7,9.2-21,13.2c-4.3,2.3-0.5,8.3,3.7,6.4
	c7.8-3.4,15.6-7.1,23.4-10.6c4-1.8,8.1-3.4,11.8-5.6c8.8,39.3,18.1,78.4,26,117.9c-47.1-20.6-99.9-26.7-151-21.1
	c-13.6-24.2-24-49.7-30.9-76.7c-4.4-17.3-6-34.6-7.1-51.9C1259.3,877.8,1285.6,879.4,1311.5,877.6z M1114,801.5
	c14.2,0,28.4,0.2,42.5,0.5c5.1,0.1,13.9-0.9,22.4-1.2c-61.9,17.7-118.2,49.5-165.8,93.8c-8.2,7.6,3.9,19.4,12.2,12.2
	c52.4-45.4,114.5-75.4,182.3-88.7c2,8.8,2.1,20,1.7,30.9c-19.4-0.5-36.4,7.2-54.7,15.1c-27.6,11.8-54.6,24-80.7,38.8
	c-5.9,3.3-0.6,12.2,5.3,9c42.2-22.7,81.9-37.3,129-41.9c-0.3,5.3-0.6,9.9-0.4,13.3c1.4,38.6,8.5,75.6,20.9,111.5
	c-12.5-3.1-24.8-7.4-37.3-10.3c-20.4-4.7-41.3-7.6-62.1-9.6c-46.9-4.5-94.6-3.5-141.5,0.3c-37.4,3-74.8,8-111.7,15.3
	c5.5-16.8,10.8-34.1,21.7-48.2c1.2-1.5-0.8-3.6-2.1-2.1c-12.3,13.3-25.8,24.6-36.8,39.2c-3.9,5.1-8.4,11.1-12.4,17.5
	c-6.4,1.5-12.9,3.3-19.1,5.6c2.6-7.4,5.1-14.9,8.5-22c6.7-14.3,14.6-27.8,24-40.6c20.7-28.4,45.5-53.6,72.6-75.9
	c5.6-4.6-2-14.5-7.8-10.1c-27.4,20.8-51.5,44.3-72.4,71.7c-19.5,25.5-48.6,58.6-56.3,90.7c-7.5-25.6-20.1-68.9-21.2-75.5
	c-3.3-21.2-17.4-76.2,6.7-90.3c8.3-4.9,8.4-13.9,4.4-20.2C890.1,799,1006.3,801.1,1114,801.5z M982.7,782.7c0.1-0.6,0.2-1.3,0.2-2
	c-0.3-13-2.3-25.6-4.8-38.3c5.1-1.4,10.2-2.7,15.5-3.8c0.7,16,4.3,32,14.7,43.1C999.8,782,991.2,782.4,982.7,782.7z M1184.5,739.9
	c-27.4,0.1-55,0-82.2,3.4c-12.9,1.6-25.8,3.8-38.3,7.5c-5,1.5-11.7,5.5-16.8,5.7c-15.2,0.7-14.9-12.3-14.4-23.8
	c36.4-3.6,73.2-2.8,109.7-2c6.2,0.1,13.6-4.8,14.8-11.3c4.6-25.1,6.2-49.9,5.4-75c17.6-9.2,36.8-14.7,56.9-15.4
	c12.7-0.4,24.7,1.6,36.9,4.5c16,3.8,21.4,6.1,25.4,21.9c9.3,37,20.1,71.8,33.4,106.7C1273.8,745.7,1230,739.8,1184.5,739.9z
	 M1307.4,655.8c-2.2,0.4-4,1.2-5.6,2.2c-3.4-13.6-7.7-27.6-17.4-36.8c29.9-29.6,55.7-63.9,79.7-98.3c13.4-19.2,28.2-41,40.2-63.6
	c0.2,0.1,0.3,0.2,0.5,0.3c16.7,6.5,33.3,13,50,19.6c16.4,6.4,41.2,11.2,55.2,21.8c30.1,22.8-7.6,81-22,107.2
	c-8.2,14.9-18.1,32.2-31.8,42.8c-15.8,12.3-32.9,7.4-51.5,5.2C1371.7,652,1340.1,649.4,1307.4,655.8z M1547.1,759.5
	c-4,14.2-13.7,28.2-20.5,41.2c-10.3,20-21.5,39.5-32.1,59.3c-5.6-11.7-8.2-25.1-15-36.5c-8.2-13.9-20.3-24.7-33.1-34.2
	c-7.2-5.4-14.8-10.3-22.4-15.1c-15.6-9.8-15.6-13.3-9.4-31c4.5-12.9,13.1-33.3,23.9-48.6c11,38.3,15.7,78.9,48,106.4
	c7.8,6.7,19,5.9,24.6-3.2c12.4-19.7,24.3-39.6,35.5-59.9C1548.8,744.7,1549.3,751.7,1547.1,759.5z"/>
</svg>
