<?xml version="1.0" encoding="utf-8"?>
<!-- Generator: Adobe Illustrator 22.0.1, SVG Export Plug-In . SVG Version: 6.00 Build 0)  -->
<svg version="1.1" id="Layer_1" xmlns="http://www.w3.org/2000/svg" xmlns:xlink="http://www.w3.org/1999/xlink" x="0px" y="0px"
	 viewBox="0 0 2000 2000" style="enable-background:new 0 0 2000 2000;" xml:space="preserve">
<g>
	<path d="M398.1,1050.2c-0.5,0-0.5,0.8,0,0.8C398.6,1051,398.6,1050.2,398.1,1050.2z"/>
	<path d="M1957.1,1327.5c-4.8,1.5-9.5,2.9-14.3,4.4c-0.9,0-1.8-0.1-2.7,0.1c-19.4,2.6-35.8,8.3-52.4,16.9
		c-79.8,24.6-159.8,48.8-239.9,72.5c-72.6,21.4-146,42.8-220.8,55.7c10.6-28.7,20-58,28.7-87.3c59.1,0.3,118.3-2.6,177.1-8.5
		c15.6-1.6,25.3-11.1,26.9-26.9c7.5-73.7,8.2-147.3-0.3-221c-7.7-66.5-14.9-140.9-39.1-203.7c-21.1-54.7-68.5-57.4-120.1-56.8
		c-4.3,0.1-8.7,0.1-13,0.2c-1.5-31.9-7.1-64.2-11.8-95.6c-3.5-24-3.4-70.5-22.4-88.3c-15.7-14.7-53-9.1-72.3-9.3
		c-41-0.4-82,1.6-122.8,4.8c-19.3-14.3-36.5-31-57-43.7c-20.8-13-44-21.3-65.4-33.3c-44.4-25-79.7-61.7-116.9-95.9
		c-11.2-16.6-24.1-31.2-39.2-42.5c-21.1-15.9-44.3-24.9-68.7-29.7c4.5-37.9,0.9-76.7-0.8-114.8c-1.3-30.6-2.3-61.3-5.8-91.7
		c12.6,5.2,22.9-14.3,10.3-19.7c-4.6-2-9.3-3.7-14-5.4c-0.3-0.5-0.9-0.7-1.5-0.5c-92.5-32-193.4-3.7-289.6-6.9
		c-4.5-1.5-8.9-3-13.4-4.4c-3.9-1.2-6.7,0.5-8.1,3.1c-1.3-0.1-2.5-0.2-3.8-0.3c-3.8-0.4-3.6,5.4,0,5.8c1,0.1,2.1,0.2,3.1,0.3
		c0.6,2.3,2,4.5,4.7,5.6c22.1,9.2,43.5,19.8,64.2,31.7c7.8,4.5,15.6,8.9,22.9,14.1c13.7,9.6,13.4,5.7,5.9,21.4
		c-18.1,37.6-52.8,72.2-82.2,101c-5.3,5.2-4.3,15.1,2.4,18.7c35.8,19.2,77.7,4.2,115.5-0.2c55.1-6.4,110-4.1,164.9,3
		c0,0,0.1,0,0.1,0c0,12,0.6,23.9,1.9,35.8c-50.7-4.7-104.7,4.9-153.5,8.7c0,0-0.1,0-0.1,0c-2.8-1.4-5.6-2.6-8.5-3.8
		c-7.9-3.1-11.1,9.5-3.5,12.6c30.3,12.7,49.8,39.1,61.4,71.1c-150.8,91-312.5,151.3-486.3,170.4c-0.9-0.1-1.9-0.2-2.8-0.4
		c-86.5-12.2-172.8-18-242.6,43.1c-5.9,5.2,1.4,15.2,8.1,11.8c0.7,1.5,2.2,2.8,4.5,3.2c28.8,5.5,56.2,10.8,37.8,49.1
		c-9.2,19.1-28.1,41.4-41.2,57.4c-8.8,10.8-0.6,25.3,13.3,22.9c54.9-9.5,107.7-23.2,163.7-26.9c33.6-2.2,67.3-2.1,100.9,0
		c-38.7,9-83.1,13.8-111.5,44.2c-7,7.5-9,19-3.6,28.1c1.7,2.9,3.4,5.8,5.1,8.6c1.9,3.1,4.2,5.4,6.9,7.1
		c-3.2,118.2-20.6,238.1-35.1,355.3c-1.4,11.1,11.3,23.2,22.1,22.1c58.6-6.1,118.3-12.8,177.3-22c6.5,31,12.1,61.9,17.6,93
		c-52.2,0.1-104.2,2.5-157.1,7.4c-5.8,0.5-5.9,9.7,0,9.2c2.8-0.2,5.5-0.4,8.3-0.6c-0.2,4.5,2.6,8.9,8.6,8.8
		c52.2-1,65.2,51.2,73.5,91.9c6.7,33.1,13.8,65,25,97c15.5,44.4,35.8,115.2,74.9,144.5c16.9,12.7,38.2,11.3,58.3,11.3
		c35.9,0,71.9-0.2,107.8-0.5c74.4-0.6,148.9-1.8,223.3-3.4c148.8-3.3,297.6-8.7,446.3-16.2c35.9-1.8,71.8-3.7,107.6-5.8
		c25.1-1.4,56,1.3,78.9-11.3c21.2-11.6,36.1-35.8,51.8-53.5c21.5-24.3,43.8-48,66.7-71.1c51.3-51.6,108.1-112.4,172.6-147.3
		c28.4-15.4,61.1-18.1,90.1-32.2c23.8-11.6,43.3-29.7,66.6-40.9c15.6-4.8,31.1-9.5,46.7-14.3
		C1991.3,1357.5,1981.1,1320,1957.1,1327.5z M749,362.8c-18,2.2-36,4.8-53.8,8.2c-19.1,3.7-41.7,13-62,10.7
		c20.4-20.7,40.3-42.3,58.4-64.9c9.2-11.5,30.9-33.2,29.2-49.8c-1.9-17.9-21.9-25.4-36.2-33.6c-17.8-10.2-36-18.5-54.7-25.7
		c90,1.7,180.5-18.1,265,20.9c-3.9,31.8-5,64.1-6.4,96.1c-0.5,10.5-1.1,21.1-1.6,31.7c-0.5,0-1-0.2-1.5-0.2
		C839.6,354.6,794.4,357.2,749,362.8z M1341.4,1487.5c-28.7,2-78-8.6-101.8,12.1c-3.9,3.4-5.4,8.4-8.9,11.9
		c-13.8,14-24.4,17.3-43.6,19.9c-15.4,2.1-31.9,1.7-48.3,1.2c23.7-16.9,45.8-35.6,64.7-58.3c10.2-12.2,18.9-25.4,26.7-39.2
		c7.4-13.2,20.8-53.3,36.7-61.4c5,2.4,10.6,4.1,16.8,5.4c35.3,7.4,74.2,7.4,110.1,8.9c13.2,0.6,26.4,0.9,39.6,1.2
		c-10.8,30.1-20.8,60.5-29.3,91.3C1383.3,1483.7,1362.4,1486.1,1341.4,1487.5z M802.9,1534.7c-0.8-10.4-1.7-20.9-2.5-31.3
		c-0.6-7.7-5.1-15.1-13-17.1c-19.6-5-39.4-8.9-59.3-11.8c21.9-16,43.3-32.7,65.1-49c6.5-4.8,14.8-9.6,23.3-14.7
		c29.8,8.9,59.9,17.2,90.1,24.6c-24.9,30.3-45.6,66.3-66.8,99.1C827.5,1534.5,815.2,1534.6,802.9,1534.7z M657.9,841.4
		c14.7,1.1,29.3,3.4,44.2,3.1c22.1-0.5,44.4-3.1,66.4-5.2c41.4-4,82.7-9,123.8-14.8c79.4-11.2,158.9-22.3,237-40.5
		c41.9,121.5,44.2,250.2,19.7,376.5c-11.2,57.6-23.7,120.6-51.6,172.9c-4,7.5-8.8,15.9-14.3,24c47.6-133.3,43.5-279.1,40.1-419.3
		c-0.2-7.8-12-7.8-12.1,0c-2.5,134.7-20.8,267.4-77.5,388.7c31.3-106.3,39.9-221.4,35.2-329.9c-0.3-7.8-12.4-7.8-12.1,0
		c2,72.8-5.5,139.9-28,209.3c-7.2,22.1-15.3,43.3-24.2,64.1c1.9-12.8,3.6-25.4,5.4-37.7c8.6-59.5,5.7-118.9,4.1-178.8
		c-0.1-1.9-2.8-1.9-2.9,0c-4.6,60.1-19.7,118.6-34.8,176.8c-5.6,21.7-13.3,42.5-21.4,63.1c4.7-51.4,1.2-105-8.5-151.7
		c-0.9-4.5-8.6-3.6-8.1,1.1c4.5,41.1,1.1,82.1-10.9,121.8c-10.9,35.9-28.1,70.1-36,106.8c0,0.2,0,0.4-0.1,0.6
		c-1.4-0.3-2.8-0.7-4.2-1.1c10.3-59.5,20.4-120.1,0.4-178.5c-3.3-9.7-18.1-5.8-15.5,4.3c13.7,53-9,100.4-27.6,148.7
		c1.8-26.3-5.4-57.3-7.1-77.5c-0.7-8.9-14.5-9.2-14.1,0c1,21.9-3.8,41.2-13,61.1c-3.3,7.1-6.6,13-9.1,18.9
		c-19.3-5.4-38.5-10.9-57.7-16.5c-15.9-4.6-42.5-7.1-56.3-15.8c-3.2,0.8-6.5,1.6-9.7,2.4c0-10,0.2-19.9,0.7-29.9
		c1.4-34.8,4.2-69.6,7.4-104.3C696,1068,705.1,949.4,657.9,841.4z M933.2,1441.6c16.5,3.7,33.1,7.2,49.7,10.4
		c48.2,9.2,83.5,5.3,121-28.8c62-56.4,86.2-150.7,100.1-235.9c22.2-21.9,43.5-44.7,63.6-68.7c-0.6,7.9-1.3,15.7-2,23.5
		c-3.8,39.1-8.8,78.1-13.1,117.1c-3,27.4-14,65.4-5.1,92.2c0.5,1.6,1.2,3,1.8,4.4c0.1,1.6,0.2,3.2,0.5,5.1
		c1.9,12.8-16.9,38.2-22.6,49.5c-9.8,19.6-20.1,37.9-34,55c-20.4,25.1-45.5,46-70.2,67c-4.3-0.1-8.6-0.2-12.8-0.1
		c-80.4,0.7-160.8,1.3-241.2,2C891.6,1504.4,915.9,1473.9,933.2,1441.6z M1540.6,1337.5c0.1,0.3,0.1,0.5,0.2,0.8c0,0-0.1,0-0.1,0
		C1540.6,1338.1,1540.6,1337.8,1540.6,1337.5z M1533.9,922.1c40.4,2,51.6,26.7,58.6,63.3c21.6,112.9,22.3,230.6,15.1,345.4
		c-3.1,0.4-6.2,0.9-9.2,1.3c0.2-1.3,0.4-2.5,0.4-3.9c0.3-107.5-7.7-226.2-41-328.9c-2.8-8.6-15.7-5.1-13.6,3.7
		c13,55.3,18.1,110.5,15.6,167.2c-2.3,53-13.7,104.8-19.7,157.4c-5-91-7.7-186.2-33.6-273.1c-1.7-5.7-10-3.3-8.9,2.5
		c9.5,48.9,16.3,101.8,11.4,151.6c-2.2,22.8-5.8,45.2-10,67.6c-4.1-48.5-10.9-96.9-17.8-144.6c-0.8-5.4-9.7-4.1-9.5,1.3
		c2.6,72.1-5.5,139.7-17.3,210.5c-0.9,0-1.8,0-2.6,0.1c-0.2-45.7-9.6-94.1-18.3-138.2c-1.4-6.9-11.2-3.8-10.3,2.8
		c7,50-1.4,89.6-15.1,135.8c-33-0.1-71.2,2.4-103.7-4.3c-23.1-4.7-22.6-4.7-22.4-29.1c0.1-17.1,0.9-34.3,2.2-51.3
		c9.1-112.6,31.4-223-0.6-331.5c54.6-1.5,109.2-2.8,163.8-4C1475.9,923.1,1505.3,920.7,1533.9,922.1z M1343.3,700.7
		c20.2,0.4,79.6-7.5,93.8,9c8.6,9.9,2,62.9,0.6,83c-55.8,1-112.4,8.5-168.3,13.9c14.6-22.3,30.3-47.7,29-70.1
		c-0.9-15.5-9.3-26.7-20.5-35.3C1299.7,700.6,1321.5,700.3,1343.3,700.7z M1107.5,616.6c45.9,31.5,95.5,48.5,134,91.1
		c2.4,2.6,5,4,7.7,4.4c37.9,28.6-6.4,76.5-24.1,105c-6.3,10.1,1.9,24.2,13.7,23.9c64.7-1.5,131.1,2,195.7-3.1
		c-1.2,11.9-2.4,23.8-3.4,35.8c-55.1,0.8-110.2,1.8-165.3,2.9c-6.1,0.1-11,2-14.8,4.9c-6.8,3.3-12,11-9.9,19.7
		c-0.5,7.9,2.2,15.8,7.9,21c19.9,56,23.2,115.2,20,174.3c-19,20.4-38.9,39.9-60.1,57.9c1.1-7.9,2.2-15.7,3.2-23.3
		c17.6-130.5,10.8-265.3-36.9-389c-5.7-14.9-19.1-24.2-35.6-20.2c-60.7,14.8-121.3,30.8-182.5,43.5c-0.2-26.9-10-54.2-10.9-80.9
		c42.3-1.1,84.9,3.8,126.9,15.5c21.1,5.9,30.2-27.1,9-32.8c-1.1-0.3-2.2-0.5-3.3-0.8c-7.7-31.1-17.5-66.6-31.5-100.1
		C1066,584.8,1085.9,601.9,1107.5,616.6z M748.6,453.5c47.4-3.3,98.6-10.5,146-2.6c1.5,0.6,3.1,0.9,4.8,0.9
		c20,3.8,39.3,10.3,57.3,21.3c59.1,36,84.2,118.9,92.4,186.7c-79.4-15.2-159.6-8.8-235.1,21.4c3.7-41,3-91.2-8.6-135.8
		c4.3-7.7,0.4-17.8-6.8-21.8C788,494.9,772.1,470,748.6,453.5z M789.2,696.3c-2,8.1,5.6,17.2,14.3,14.3
		c36.2-12.3,73.1-20.4,110.3-24.1c1.3,15.1,5.5,30.4,7.1,45.1c1.4,13.3,0.8,27.1,1.8,40.5c-9.4,1.7-18.7,3.4-28.1,4.9
		c-41.8,6.7-83.9,12-126,16.4c-22.1,2.3-44.3,3.7-66.4,6.3c-20,2.4-39.2,9.2-59.2,10.9c-3.5-6.1-9.3-7.6-14.6-6.3
		c4.7-4.6,9.3-9.3,13.7-14.3c58.1-65.5,93.2-148.2,144.8-218.6c3.5-4.8,3.5-9.8,1.6-14c1.2-0.7,2.4-1.4,3.5-2
		C802,604.3,798.3,659.1,789.2,696.3z M743.8,582.3c-30.2,60.9-56.7,122.9-98.7,177.6c-46.3,60.3-102.6,90-171.2,109.9
		c-5.2-6.2-10.5-12.2-15.9-17.9c4-2.9,6.5-7.7,5.7-14.4c-4.1-34.3-4.3-97.1-30.5-122.6c-11.4-11.1-26.7-10-41.2-10.5
		c-12-0.4-23.8-1.3-35.6-2.3C491.1,684.2,623.6,644.9,743.8,582.3z M104.9,842c15.2-21.3,30.5-44.8,28.3-65.5
		c-2.7-25.7-35.3-32.9-57.9-36.3c61.2-33,136.3-24.6,202.7-14.7c35.5,5.3,71.2,7.9,106.6,12.8c26.5,3.6,26.1,6,31.8,32.8
		c4.7,21.7,7.6,43.5,9.7,65.6c-0.7-0.1-1.3-0.2-2-0.2c-2.4-5.5-7.7-10-16.3-11.2C311.5,812.8,200.6,812.3,104.9,842z M420.7,891.3
		c39.9,38.4,67.7,101,86,150.7c10.3,28,18.5,56.9,24.9,86c5.7,25.6,14.5,57.7,13.3,85.3c-5.5,2.8-11.3,5.3-17.3,7.5
		c-10.5-81.7-39.5-159.1-92.5-223c-1.3-1.6-3.5,0.4-2.7,2.1c33.8,69.3,51.7,141.4,48.2,217.9c-4-15.8-10.9-31.6-16.3-46.6
		c-13.1-36.5-31.8-69.2-49.1-103.8c-1.1-2.3-4.4-0.3-3.4,2c17.1,36.2,24.6,78.7,25.7,118.6c-12.1-34.7-31.6-64.2-51.9-94.6
		c-2.1-3.1-7-0.3-5,2.9c20.8,34.5,26,74.5,25.4,113.9c-0.2,11.6-2,23.2-1.9,34c-0.2,0-0.4,0.1-0.6,0.1
		c-8.9-42.8-21.5-84.6-48.6-119.8c-3.1-4-8.7-0.7-6.7,3.9c15.1,35.1,17,71.9,16.3,109.2c-1.1-3.6-2.2-7.2-3.2-10.6
		c-5.9-19.6-14.5-38.7-24-56.8c-3.9-7.4-16.8-2.3-13.8,5.8c6.7,17.8,10.7,35.4,11.7,54.5c0.4,8.4-0.4,16.7-0.9,25
		c-29.3,4.9-58.6,10.1-87.8,15.8c8-108.9,5.6-216.4,5.8-325.5c8.3-2.1,15.5-8.6,16.8-17.6c19.7-9.2,40.7-13.1,62.6-17.8
		C360.2,904.4,391.4,894.1,420.7,891.3z M530.8,1272.7c36.8-9.2,69.1-13.9,70-57.3c0.8-43.7-10.1-91.9-22.2-133.6
		c-19.1-65.8-50.8-141.4-94.6-199.3c49.7-10.5,95.1-33.8,133-67.6c-0.9,3.2-0.7,6.8,1.3,10.5c1.2,2.3,2.4,4.6,3.6,6.9
		c0.5,1.4,1.2,2.7,2,3.8c57.8,115.6,43.8,249.4,24.3,373.2c-4.5,28.9-9,57.7-12.7,86.7c-2.2,17-7.1,35.8,5.1,50.2
		c14.8,17.3,47.2,22.9,67.7,29.8c24.8,8.4,49.6,16.5,74.5,24.4c-1.5,1.2-2.9,2.4-4.3,3.5c-28.3,21.8-56.6,43.6-83.6,66.8
		c-12.2-1-24.4-1.6-36.7-1.6c-20-0.1-41.6,5.4-61.2,3.5c-32.6-3-42.3-39.6-50.1-66.7c-1.9-6.6-7.7-10.5-14.3-10.9
		c-30.9-1.9-61.5-2.9-92.1-3.2c1.3-15.5-3.2-31-6.3-46.5c-3.4-16.8-6.6-33.7-9.9-50.6C460.4,1288.6,496,1281.5,530.8,1272.7z
		 M1650,1481.2c-26.7,23.2-52.7,47.3-77.9,72.1c-81.6,1.8-163.2,4.9-244.6,10.2c-5.6,0.4-5.7,8.9,0,8.7
		c75.8-2.7,151.6-3.4,227.5-1.8c-2.9,3-5.9,5.9-8.8,8.8c-111.2,8.2-223.2,7.3-334.6,9.6c-6.9,0.1-6.9,10.8,0,10.7
		c105.5-1.2,211.4-5,316.8-1.5c-3.3,3.5-6.6,7-9.9,10.5c-0.7,0-1.3-0.1-2,0c-146.6,15.3-297.2,16.4-444.3,10c-6.3-0.3-6.2,9.3,0,9.7
		c141,8.9,280.8,10,421.8,9.5c-8.2,10.8-16.9,22.5-26.3,31.8c-0.7-0.2-1.3-0.3-2.1-0.3c-168.1-8.1-336.5-6.8-504.5,4
		c-10.5,0.7-10.6,17.1,0,16.5c156.4-9.2,313-9.6,469.4-1.5c-12.2,1.1-26.1,0.1-36.3,0.7c-20.5,1.2-41,2.4-61.5,3.5
		c-148.7,8.3-297.4,14.5-446.3,18.6c-74.4,2.1-148.8,3.6-223.3,4.7c-35.9,0.5-71.9,0.9-107.8,1.1c-27.9,0.2-68.7,10.8-86.7-13.2
		c-6-8-11.6-16.4-16.8-25.2c111,7.9,222.8,11.6,334.1,7.3c1.9-0.1,1.9-2.9,0-2.9c-117.8,1.8-233.9-7.1-348.8-31.4
		c-6-12.1-11.6-24.5-16.8-37.2c98.3,4.9,195.3,19.5,294.1,20.4c4.1,0,4.1-6.2,0-6.3c-99.6-3.1-204.4-11-298-46.6
		c-3.2-1.2-6-1.2-8.6-0.6c-4.3-12.1-8.3-24.1-12.2-36.1c26.7,10.9,57.5,12.1,86,13.8c44.3,2.7,88.6,4.4,132.9,6.6
		c2.2,0.1,2.1-3.2,0-3.4c-76.2-7.7-147.7-19.5-220.8-41.2c-2.1-0.6-4.1-0.5-5.9,0c-2.9-9.3-5.8-18.4-8.6-27.3
		c-1.7-5.4-3.6-10.8-5.7-16.2c20.7,3.7,40.9,8.4,62,9.8c2.7,0.2,3.3-4.3,0.6-4.8c-21.6-4.1-44.5-9.5-63.3-21.4
		c-2.5-1.6-4.8-1.6-6.7-0.8c-11.1-23.1-26.4-43.7-47.7-54.4c36.1-0.2,71.7,1.9,108.7,4.8c21.8,1.7,70.3-2.2,87,10.3
		c13.6,10.2,16.7,37.9,25,53.3c18.4,34.2,41.4,34.6,77.3,31.7c50.6-4,100.4,0.2,149.7,11.5c0.9,11.6,1.9,23.2,2.8,34.9
		c0.8,9.5,7.5,17.8,17.7,17.7c110.4-0.9,220.8-1.8,331.2-2.7c35.4-0.3,92.5,10.6,124.4-9.3c12.1-7.5,14.7-21.5,25.9-28
		c17.8-10.3,59.5-2.8,80.8-4.4c100.7-7.8,198.6-34.6,295.1-62.9c14.2-4.2,28.4-8.5,42.7-12.7
		C1674.2,1460.2,1662.1,1470.7,1650,1481.2z"/>
</g>
</svg>
